<?xml version="1.0" encoding="UTF-8" standalone="no"?>
<svg xmlns:dc="http://purl.org/dc/elements/1.1/" xmlns:cc="http://web.resource.org/cc/" xmlns:rdf="http://www.w3.org/1999/02/22-rdf-syntax-ns#" xmlns:svg="http://www.w3.org/2000/svg" xmlns="http://www.w3.org/2000/svg" xmlns:sodipodi="http://sodipodi.sourceforge.net/DTD/sodipodi-0.dtd" xmlns:inkscape="http://www.inkscape.org/namespaces/inkscape" width="8in" height="8in" viewBox="0 0 1 1" preserveAspectRatio="none" id="svg2" sodipodi:version="0.32" inkscape:version="0.45.1" sodipodi:docname="nwslogo.svg" inkscape:output_extension="org.inkscape.output.svg.inkscape" inkscape:export-xdpi="90" inkscape:export-ydpi="90">
  <metadata id="metadata189">
    <rdf:RDF>
      <cc:Work rdf:about="">
        <dc:format>image/svg+xml</dc:format>
        <dc:type rdf:resource="http://purl.org/dc/dcmitype/StillImage"/>
      </cc:Work>
    </rdf:RDF>
  </metadata>
  <defs id="defs187"/>
  <sodipodi:namedview inkscape:window-height="581" inkscape:window-width="697" inkscape:pageshadow="2" inkscape:pageopacity="0.0" guidetolerance="10.0" gridtolerance="10.0" objecttolerance="10.0" borderopacity="1.0" bordercolor="#666666" pagecolor="#ffffff" id="base" inkscape:zoom="0.525" inkscape:cx="565.23619" inkscape:cy="366.48906" inkscape:window-x="399" inkscape:window-y="22" inkscape:current-layer="svg2" inkscape:showpageshadow="false"/>
  <title id="title4">SVG drawing</title>
  <desc id="desc6">This was produced by version 4.1 of GNU libplot, a free library for exporting 2-D vector graphics.</desc>
  <path sodipodi:type="arc" style="opacity:1;fill:#ffffff;fill-opacity:1;fill-rule:evenodd;stroke:#ffffff;stroke-width:0;stroke-linecap:round;stroke-linejoin:round;stroke-miterlimit:10.43299961;stroke-dasharray:none;stroke-opacity:1" id="path3203" sodipodi:cx="1.1640211" sodipodi:cy="0.50396824" sodipodi:rx="0.050264549" sodipodi:ry="0.056878306" d="M 1.2142857 0.50396824 A 0.050264549 0.056878306 0 1 1  1.1137566,0.50396824 A 0.050264549 0.056878306 0 1 1  1.2142857 0.50396824 z" transform="matrix(9.9473688,0,0,8.7906978,-11.078948,-3.9302325)"/>
  <path id="path12" style="font-style:normal;font-variant:normal;font-weight:normal;font-stretch:normal;letter-spacing:normal;word-spacing:normal;text-anchor:start;fill:#ff0000;fill-opacity:1;stroke:#ff0000;stroke-width:0;stroke-linecap:butt;stroke-linejoin:miter;stroke-miterlimit:10.43299961;stroke-dasharray:none;stroke-dashoffset:0;stroke-opacity:1" d="M 0.31536162,0.84304114 L 0.28909072,0.88279858 L 0.26275638,0.92261741 C 0.25628384,0.91835311 0.24981131,0.91409102 0.24333877,0.90981832 C 0.24896522,0.89002203 0.25467629,0.87022368 0.26038736,0.85042739 C 0.25558582,0.85911253 0.25124966,0.86657284 0.24759033,0.87273656 C 0.24395218,0.87898277 0.24067361,0.88416291 0.23792384,0.88827063 C 0.23519522,0.89238471 0.23244545,0.89657284 0.22969568,0.90076305 C 0.22421729,0.8971016 0.21867544,0.89345078 0.21311244,0.88971537 C 0.23062637,0.86321807 0.24814029,0.83672087 0.26571768,0.81014752 C 0.27219021,0.81441181 0.27866276,0.81874798 0.2852199,0.82308622 C 0.27927617,0.84334574 0.27333243,0.8635988 0.26732524,0.88393239 C 0.27089994,0.87685062 0.27470731,0.87022368 0.27836662,0.86375537 C 0.282174,0.85735892 0.28589676,0.8511868 0.28978875,0.8454038 C 0.29275005,0.840909 0.29573249,0.83641421 0.29869378,0.83191939 C 0.30425677,0.83557865 0.30981977,0.83930563 0.31536162,0.84304114 z "/>
  <path id="path14" style="font-style:normal;font-variant:normal;font-weight:normal;font-stretch:normal;letter-spacing:normal;word-spacing:normal;text-anchor:start;fill:none;fill-opacity:1;stroke:#ff0000;stroke-width:0.00007615;stroke-linecap:butt;stroke-linejoin:miter;stroke-miterlimit:10.43299961;stroke-dasharray:none;stroke-dashoffset:0;stroke-opacity:1" d="M 0.31536162,0.84304114 L 0.28909072,0.88279858 L 0.26275638,0.92261741 C 0.25628384,0.91835311 0.24981131,0.91409102 0.24333877,0.90981832 C 0.24896522,0.89002203 0.25467629,0.87022368 0.26038736,0.85042739 C 0.25558582,0.85911253 0.25124966,0.86657284 0.24759033,0.87273656 C 0.24395218,0.87898277 0.24067361,0.88416291 0.23792384,0.88827063 C 0.23519522,0.89238471 0.23244545,0.89657284 0.22969568,0.90076305 C 0.22421729,0.8971016 0.21867544,0.89345078 0.21311244,0.88971537 C 0.23062637,0.86321807 0.24814029,0.83672087 0.26571768,0.81014752 C 0.27219021,0.81441181 0.27866276,0.81874798 0.2852199,0.82308622 C 0.27927617,0.84334574 0.27333243,0.8635988 0.26732524,0.88393239 C 0.27089994,0.87685062 0.27470731,0.87022368 0.27836662,0.86375537 C 0.282174,0.85735892 0.28589676,0.8511868 0.28978875,0.8454038 C 0.29275005,0.840909 0.29573249,0.83641421 0.29869378,0.83191939 C 0.30425677,0.83557865 0.30981977,0.83930563 0.31536162,0.84304114 z "/>
  <path id="path16" style="font-style:normal;font-variant:normal;font-weight:normal;font-stretch:normal;letter-spacing:normal;word-spacing:normal;text-anchor:start;fill:#ff0000;fill-opacity:1;stroke:#ff0000;stroke-width:0;stroke-linecap:butt;stroke-linejoin:miter;stroke-miterlimit:10.43299961;stroke-dasharray:none;stroke-dashoffset:0;stroke-opacity:1" d="M 0.17442527,0.7088734 L 0.14113188,0.72805834 L 0.1077962,0.74724329 C 0.11075749,0.75242561 0.11373993,0.75760783 0.11678584,0.76277956 C 0.11145552,0.76582755 0.10610403,0.76887555 0.10071026,0.77199969 C 0.090895683,0.75500612 0.081059969,0.73795753 0.071245394,0.72090893 C 0.076575729,0.71786305 0.081906051,0.71479598 0.087299828,0.71168662 C 0.090430338,0.71710157 0.093560849,0.72249533 0.09667021,0.72791027 C 0.11883759,0.71511327 0.14106844,0.70231626 0.16329928,0.68954039 C 0.16695859,0.69592832 0.17070251,0.70240086 0.17442527,0.7088734 z "/>
  <path id="path18" style="font-style:normal;font-variant:normal;font-weight:normal;font-stretch:normal;letter-spacing:normal;word-spacing:normal;text-anchor:start;fill:none;fill-opacity:1;stroke:#ff0000;stroke-width:0.00007615;stroke-linecap:butt;stroke-linejoin:miter;stroke-miterlimit:10.43299961;stroke-dasharray:none;stroke-dashoffset:0;stroke-opacity:1" d="M 0.17442527,0.7088734 L 0.14113188,0.72805834 L 0.1077962,0.74724329 C 0.11075749,0.75242561 0.11373993,0.75760783 0.11678584,0.76277956 C 0.11145552,0.76582755 0.10610403,0.76887555 0.10071026,0.77199969 C 0.090895683,0.75500612 0.081059969,0.73795753 0.071245394,0.72090893 C 0.076575729,0.71786305 0.081906051,0.71479598 0.087299828,0.71168662 C 0.090430338,0.71710157 0.093560849,0.72249533 0.09667021,0.72791027 C 0.11883759,0.71511327 0.14106844,0.70231626 0.16329928,0.68954039 C 0.16695859,0.69592832 0.17070251,0.70240086 0.17442527,0.7088734 z "/>
  <path id="path20" style="font-style:normal;font-variant:normal;font-weight:normal;font-stretch:normal;letter-spacing:normal;word-spacing:normal;text-anchor:start;fill:#ff0000;fill-opacity:1;stroke:#ff0000;stroke-width:0;stroke-linecap:butt;stroke-linejoin:miter;stroke-miterlimit:10.43299961;stroke-dasharray:none;stroke-dashoffset:0;stroke-opacity:1" d="M 0.14159723,0.64383073 L 0.096437537,0.65914484 L 0.051216486,0.6745224 C 0.048853802,0.66752106 0.046491119,0.6604351 0.044054395,0.65334917 C 0.074143234,0.64315386 0.10428496,0.63295854 0.13444782,0.62274209 C 0.13679571,0.62974343 0.13916476,0.63676592 0.14159723,0.64383073 z "/>
  <path id="path22" style="font-style:normal;font-variant:normal;font-weight:normal;font-stretch:normal;letter-spacing:normal;word-spacing:normal;text-anchor:start;fill:none;fill-opacity:1;stroke:#ff0000;stroke-width:0.00007615;stroke-linecap:butt;stroke-linejoin:miter;stroke-miterlimit:10.43299961;stroke-dasharray:none;stroke-dashoffset:0;stroke-opacity:1" d="M 0.14159723,0.64383073 L 0.096437537,0.65914484 L 0.051216486,0.6745224 C 0.048853802,0.66752106 0.046491119,0.6604351 0.044054395,0.65334917 C 0.074143234,0.64315386 0.10428496,0.63295854 0.13444782,0.62274209 C 0.13679571,0.62974343 0.13916476,0.63676592 0.14159723,0.64383073 z "/>
  <path id="path24" style="font-style:normal;font-variant:normal;font-weight:normal;font-stretch:normal;letter-spacing:normal;word-spacing:normal;text-anchor:start;fill:#ff0000;fill-opacity:1;stroke:#ff0000;stroke-width:0;stroke-linecap:butt;stroke-linejoin:miter;stroke-miterlimit:10.43299961;stroke-dasharray:none;stroke-dashoffset:0;stroke-opacity:1" d="M 0.11526289,0.49238175 L 0.06783991,0.48743215 L 0.020372516,0.48239796 C 0.021133995,0.47471975 0.021975851,0.4670204 0.022811359,0.45925757 C 0.042988336,0.45521752 0.063173767,0.45111401 0.083344396,0.44698935 C 0.073381766,0.44677782 0.064772863,0.44631248 0.057686909,0.44601634 C 0.050457126,0.44563562 0.044358987,0.44508566 0.039409392,0.44455686 C 0.034459809,0.44402806 0.029512334,0.44349926 0.024562751,0.44297046 C 0.025248071,0.43641332 0.025933403,0.42979272 0.026618735,0.4231721 C 0.058224172,0.42651414 0.089816927,0.42985617 0.12150275,0.43321934 C 0.12074127,0.44089756 0.11989519,0.44868151 0.11907026,0.45644434 C 0.098341226,0.4604844 0.077548718,0.46450329 0.056768917,0.46862794 C 0.064688248,0.46854335 0.072302998,0.46886063 0.079854297,0.46915676 C 0.087236376,0.46953749 0.094385783,0.47000283 0.10138712,0.47076431 C 0.10671744,0.47129311 0.11204777,0.47182191 0.1173781,0.47243532 C 0.11670123,0.47905592 0.11600321,0.48567652 0.11526289,0.49238175 z "/>
  <path id="path26" style="font-style:normal;font-variant:normal;font-weight:normal;font-stretch:normal;letter-spacing:normal;word-spacing:normal;text-anchor:start;fill:none;fill-opacity:1;stroke:#ff0000;stroke-width:0.00007615;stroke-linecap:butt;stroke-linejoin:miter;stroke-miterlimit:10.43299961;stroke-dasharray:none;stroke-dashoffset:0;stroke-opacity:1" d="M 0.11526289,0.49238175 L 0.06783991,0.48743215 L 0.020372516,0.48239796 C 0.021133995,0.47471975 0.021975851,0.4670204 0.022811359,0.45925757 C 0.042988336,0.45521752 0.063173767,0.45111401 0.083344396,0.44698935 C 0.073381766,0.44677782 0.064772863,0.44631248 0.057686909,0.44601634 C 0.050457126,0.44563562 0.044358987,0.44508566 0.039409392,0.44455686 C 0.034459809,0.44402806 0.029512334,0.44349926 0.024562751,0.44297046 C 0.025248071,0.43641332 0.025933403,0.42979272 0.026618735,0.4231721 C 0.058224172,0.42651414 0.089816927,0.42985617 0.12150275,0.43321934 C 0.12074127,0.44089756 0.11989519,0.44868151 0.11907026,0.45644434 C 0.098341226,0.4604844 0.077548718,0.46450329 0.056768917,0.46862794 C 0.064688248,0.46854335 0.072302998,0.46886063 0.079854297,0.46915676 C 0.087236376,0.46953749 0.094385783,0.47000283 0.10138712,0.47076431 C 0.10671744,0.47129311 0.11204777,0.47182191 0.1173781,0.47243532 C 0.11670123,0.47905592 0.11600321,0.48567652 0.11526289,0.49238175 z "/>
  <path id="path28" style="font-style:normal;font-variant:normal;font-weight:normal;font-stretch:normal;letter-spacing:normal;word-spacing:normal;text-anchor:start;fill:#ff0000;fill-opacity:1;stroke:#ff0000;stroke-width:0;stroke-linecap:butt;stroke-linejoin:miter;stroke-miterlimit:10.43299961;stroke-dasharray:none;stroke-dashoffset:0;stroke-opacity:1" d="M 0.19086044,0.2758901 L 0.17768269,0.29657683 L 0.16444149,0.31732705 C 0.13764178,0.30019384 0.11084211,0.28306065 0.084042411,0.26592745 C 0.087997855,0.25966644 0.092016751,0.25342657 0.096056799,0.24712325 C 0.1173781,0.2607452 0.13878401,0.27436714 0.16018992,0.28807371 C 0.1649703,0.28062817 0.16977181,0.27307687 0.17465794,0.26554671 C 0.18005173,0.26897334 0.18546665,0.27237884 0.19086044,0.2758901 z "/>
  <path id="path30" style="font-style:normal;font-variant:normal;font-weight:normal;font-stretch:normal;letter-spacing:normal;word-spacing:normal;text-anchor:start;fill:none;fill-opacity:1;stroke:#ff0000;stroke-width:0.00007615;stroke-linecap:butt;stroke-linejoin:miter;stroke-miterlimit:10.43299961;stroke-dasharray:none;stroke-dashoffset:0;stroke-opacity:1" d="M 0.19086044,0.2758901 L 0.17768269,0.29657683 L 0.16444149,0.31732705 C 0.13764178,0.30019384 0.11084211,0.28306065 0.084042411,0.26592745 C 0.087997855,0.25966644 0.092016751,0.25342657 0.096056799,0.24712325 C 0.1173781,0.2607452 0.13878401,0.27436714 0.16018992,0.28807371 C 0.1649703,0.28062817 0.16977181,0.27307687 0.17465794,0.26554671 C 0.18005173,0.26897334 0.18546665,0.27237884 0.19086044,0.2758901 z "/>
  <path id="path32" style="font-style:normal;font-variant:normal;font-weight:normal;font-stretch:normal;letter-spacing:normal;word-spacing:normal;text-anchor:start;fill:#ff0000;fill-opacity:1;stroke:#ff0000;stroke-width:0;stroke-linecap:butt;stroke-linejoin:miter;stroke-miterlimit:10.43299961;stroke-dasharray:none;stroke-dashoffset:0;stroke-opacity:1" d="M 0.2607681,0.20363455 L 0.22599405,0.16960085 L 0.19117772,0.13554598 C 0.19733299,0.13135786 0.20350939,0.12710629 0.20974925,0.12283356 C 0.21988111,0.13463643 0.23001296,0.14643929 0.2401448,0.15832677 C 0.24342337,0.16228222 0.24623661,0.16541273 0.24843642,0.16805673 C 0.25057278,0.17074305 0.25253994,0.17309093 0.25429555,0.1753119 C 0.25224379,0.17180065 0.25042472,0.16837402 0.24866909,0.16518006 C 0.24691347,0.16190148 0.2453059,0.15870751 0.24386757,0.15566162 C 0.23716237,0.14157431 0.23039369,0.12748703 0.22362503,0.11339973 C 0.22978028,0.10921161 0.23595669,0.1050235 0.24211194,0.10075078 C 0.25270914,0.11217291 0.26328519,0.12359504 0.27386122,0.13501717 C 0.27517267,0.13647666 0.27798588,0.13973408 0.28238552,0.14485289 C 0.28507183,0.14781418 0.28712358,0.1500986 0.28856193,0.15185423 C 0.28574871,0.14682004 0.28354888,0.14286459 0.28194133,0.14011482 C 0.2802703,0.13723814 0.27904349,0.13472104 0.27804934,0.13281735 C 0.27066726,0.11902619 0.26328519,0.10525617 0.2559031,0.091380402 C 0.26205837,0.087192292 0.26823477,0.082940722 0.27441118,0.078667998 C 0.28712358,0.10845014 0.29983599,0.13829575 0.312633,0.16814134 C 0.30599125,0.17262559 0.29937064,0.17719444 0.29275005,0.18176329 C 0.28392961,0.17188527 0.27508804,0.16198609 0.26618302,0.1520869 C 0.2638986,0.14948519 0.2613815,0.14675657 0.25909707,0.14368952 C 0.25657998,0.14081283 0.25399943,0.13768234 0.25148232,0.13448838 C 0.25383021,0.13852841 0.25598772,0.14218772 0.25772219,0.14538169 C 0.2594778,0.14863911 0.26123344,0.15176962 0.26267177,0.15466745 C 0.26870012,0.16640688 0.27470731,0.17812513 0.28079911,0.189928 C 0.27417851,0.19449685 0.26747329,0.19906572 0.2607681,0.20363455 z "/>
  <path id="path34" style="font-style:normal;font-variant:normal;font-weight:normal;font-stretch:normal;letter-spacing:normal;word-spacing:normal;text-anchor:start;fill:none;fill-opacity:1;stroke:#ff0000;stroke-width:0.00007615;stroke-linecap:butt;stroke-linejoin:miter;stroke-miterlimit:10.43299961;stroke-dasharray:none;stroke-dashoffset:0;stroke-opacity:1" d="M 0.2607681,0.20363455 L 0.22599405,0.16960085 L 0.19117772,0.13554598 C 0.19733299,0.13135786 0.20350939,0.12710629 0.20974925,0.12283356 C 0.21988111,0.13463643 0.23001296,0.14643929 0.2401448,0.15832677 C 0.24342337,0.16228222 0.24623661,0.16541273 0.24843642,0.16805673 C 0.25057278,0.17074305 0.25253994,0.17309093 0.25429555,0.1753119 C 0.25224379,0.17180065 0.25042472,0.16837402 0.24866909,0.16518006 C 0.24691347,0.16190148 0.2453059,0.15870751 0.24386757,0.15566162 C 0.23716237,0.14157431 0.23039369,0.12748703 0.22362503,0.11339973 C 0.22978028,0.10921161 0.23595669,0.1050235 0.24211194,0.10075078 C 0.25270914,0.11217291 0.26328519,0.12359504 0.27386122,0.13501717 C 0.27517267,0.13647666 0.27798588,0.13973408 0.28238552,0.14485289 C 0.28507183,0.14781418 0.28712358,0.1500986 0.28856193,0.15185423 C 0.28574871,0.14682004 0.28354888,0.14286459 0.28194133,0.14011482 C 0.2802703,0.13723814 0.27904349,0.13472104 0.27804934,0.13281735 C 0.27066726,0.11902619 0.26328519,0.10525617 0.2559031,0.091380402 C 0.26205837,0.087192292 0.26823477,0.082940722 0.27441118,0.078667998 C 0.28712358,0.10845014 0.29983599,0.13829575 0.312633,0.16814134 C 0.30599125,0.17262559 0.29937064,0.17719444 0.29275005,0.18176329 C 0.28392961,0.17188527 0.27508804,0.16198609 0.26618302,0.1520869 C 0.2638986,0.14948519 0.2613815,0.14675657 0.25909707,0.14368952 C 0.25657998,0.14081283 0.25399943,0.13768234 0.25148232,0.13448838 C 0.25383021,0.13852841 0.25598772,0.14218772 0.25772219,0.14538169 C 0.2594778,0.14863911 0.26123344,0.15176962 0.26267177,0.15466745 C 0.26870012,0.16640688 0.27470731,0.17812513 0.28079911,0.189928 C 0.27417851,0.19449685 0.26747329,0.19906572 0.2607681,0.20363455 z "/>
  <path id="path36" style="font-style:normal;font-variant:normal;font-weight:normal;font-stretch:normal;letter-spacing:normal;word-spacing:normal;text-anchor:start;fill:#ff0000;fill-opacity:1;stroke:#ff0000;stroke-width:0;stroke-linecap:butt;stroke-linejoin:miter;stroke-miterlimit:10.43299961;stroke-dasharray:none;stroke-dashoffset:0;stroke-opacity:1" d="M 0.35351998,0.14901984 L 0.33820588,0.10386014 L 0.32291291,0.058636965 C 0.33928464,0.053095119 0.35565633,0.047532122 0.37209152,0.041969113 C 0.37407981,0.047828247 0.37604696,0.053687381 0.37803525,0.059567652 C 0.36866488,0.062677013 0.35931564,0.065892128 0.34986067,0.069086093 C 0.35170089,0.074564486 0.35358343,0.080127492 0.35550827,0.085690492 C 0.36409602,0.082771502 0.37278953,0.079810202 0.38146188,0.076848915 C 0.38351364,0.082856102 0.38556539,0.088947912 0.38763829,0.095039712 C 0.3790294,0.097937552 0.37035704,0.10083539 0.36166354,0.10379668 C 0.3638845,0.11035382 0.36608431,0.11688982 0.36828415,0.12353158 C 0.3776545,0.12040107 0.38702488,0.1172071 0.39645872,0.11401314 C 0.39853163,0.12008379 0.40058337,0.12626022 0.40263512,0.13243662 C 0.38626341,0.137915 0.36989169,0.143478 0.35351998,0.14901984 z "/>
  <path id="path38" style="font-style:normal;font-variant:normal;font-weight:normal;font-stretch:normal;letter-spacing:normal;word-spacing:normal;text-anchor:start;fill:none;fill-opacity:1;stroke:#ff0000;stroke-width:0.00007615;stroke-linecap:butt;stroke-linejoin:miter;stroke-miterlimit:10.43299961;stroke-dasharray:none;stroke-dashoffset:0;stroke-opacity:1" d="M 0.35351998,0.14901984 L 0.33820588,0.10386014 L 0.32291291,0.058636965 C 0.33928464,0.053095119 0.35565633,0.047532122 0.37209152,0.041969113 C 0.37407981,0.047828247 0.37604696,0.053687381 0.37803525,0.059567652 C 0.36866488,0.062677013 0.35931564,0.065892128 0.34986067,0.069086093 C 0.35170089,0.074564486 0.35358343,0.080127492 0.35550827,0.085690492 C 0.36409602,0.082771502 0.37278953,0.079810202 0.38146188,0.076848915 C 0.38351364,0.082856102 0.38556539,0.088947912 0.38763829,0.095039712 C 0.3790294,0.097937552 0.37035704,0.10083539 0.36166354,0.10379668 C 0.3638845,0.11035382 0.36608431,0.11688982 0.36828415,0.12353158 C 0.3776545,0.12040107 0.38702488,0.1172071 0.39645872,0.11401314 C 0.39853163,0.12008379 0.40058337,0.12626022 0.40263512,0.13243662 C 0.38626341,0.137915 0.36989169,0.143478 0.35351998,0.14901984 z "/>
  <path id="path40" style="font-style:normal;font-variant:normal;font-weight:normal;font-stretch:normal;letter-spacing:normal;word-spacing:normal;text-anchor:start;fill:#ff0000;fill-opacity:1;stroke:#ff0000;stroke-width:0;stroke-linecap:butt;stroke-linejoin:miter;stroke-miterlimit:10.43299961;stroke-dasharray:none;stroke-dashoffset:0;stroke-opacity:1" d="M 0.53855842,0.1227701 L 0.54278884,0.084611732 L 0.54701927,0.046389903 C 0.54113898,0.045776492 0.53521639,0.045099627 0.52927266,0.044401611 C 0.52994952,0.038309805 0.53064754,0.032154549 0.53132441,0.025978141 C 0.55082664,0.028114501 0.5703923,0.03022971 0.58995799,0.032450672 C 0.58928113,0.038542478 0.5885831,0.044697735 0.58790624,0.050874145 C 0.58172983,0.050197279 0.57548996,0.049499265 0.5692501,0.0488224 C 0.56643687,0.074247211 0.56360249,0.099777792 0.56072581,0.12526605 C 0.55332258,0.12444112 0.5459405,0.12359504 0.53855842,0.1227701 z "/>
  <path id="path42" style="font-style:normal;font-variant:normal;font-weight:normal;font-stretch:normal;letter-spacing:normal;word-spacing:normal;text-anchor:start;fill:none;fill-opacity:1;stroke:#ff0000;stroke-width:0.00007615;stroke-linecap:butt;stroke-linejoin:miter;stroke-miterlimit:10.43299961;stroke-dasharray:none;stroke-dashoffset:0;stroke-opacity:1" d="M 0.53855842,0.1227701 L 0.54278884,0.084611732 L 0.54701927,0.046389903 C 0.54113898,0.045776492 0.53521639,0.045099627 0.52927266,0.044401611 C 0.52994952,0.038309805 0.53064754,0.032154549 0.53132441,0.025978141 C 0.55082664,0.028114501 0.5703923,0.03022971 0.58995799,0.032450672 C 0.58928113,0.038542478 0.5885831,0.044697735 0.58790624,0.050874145 C 0.58172983,0.050197279 0.57548996,0.049499265 0.5692501,0.0488224 C 0.56643687,0.074247211 0.56360249,0.099777792 0.56072581,0.12526605 C 0.55332258,0.12444112 0.5459405,0.12359504 0.53855842,0.1227701 z "/>
  <path id="path44" style="font-style:normal;font-variant:normal;font-weight:normal;font-stretch:normal;letter-spacing:normal;word-spacing:normal;text-anchor:start;fill:#ff0000;fill-opacity:1;stroke:#ff0000;stroke-width:0;stroke-linecap:butt;stroke-linejoin:miter;stroke-miterlimit:10.43299961;stroke-dasharray:none;stroke-dashoffset:0;stroke-opacity:1" d="M 0.60823338,0.13434031 L 0.62559924,0.089963212 L 0.64302857,0.045543819 C 0.64996646,0.048208988 0.65688318,0.05095876 0.66382107,0.053687381 C 0.65948488,0.064813373 0.65506411,0.076002831 0.65064332,0.087192292 C 0.65620632,0.089328652 0.66176931,0.091528462 0.66731117,0.093749442 C 0.6716685,0.082559982 0.67608929,0.071370521 0.68051007,0.060159912 C 0.68727873,0.062825081 0.6940474,0.065490236 0.70081606,0.068155407 C 0.68926702,0.097789482 0.67759108,0.12740242 0.66595743,0.15703649 C 0.6591676,0.15437133 0.65239894,0.15170616 0.64563027,0.14901984 C 0.65041066,0.13677279 0.65521216,0.12450457 0.6600983,0.11217291 C 0.65453531,0.11003655 0.64897231,0.10783673 0.64340932,0.10561576 C 0.63860778,0.11788397 0.63380627,0.13015218 0.62902589,0.14248384 C 0.62208802,0.13981869 0.61515012,0.13709007 0.60823338,0.13434031 z "/>
  <path id="path46" style="font-style:normal;font-variant:normal;font-weight:normal;font-stretch:normal;letter-spacing:normal;word-spacing:normal;text-anchor:start;fill:none;fill-opacity:1;stroke:#ff0000;stroke-width:0.00007615;stroke-linecap:butt;stroke-linejoin:miter;stroke-miterlimit:10.43299961;stroke-dasharray:none;stroke-dashoffset:0;stroke-opacity:1" d="M 0.60823338,0.13434031 L 0.62559924,0.089963212 L 0.64302857,0.045543819 C 0.64996646,0.048208988 0.65688318,0.05095876 0.66382107,0.053687381 C 0.65948488,0.064813373 0.65506411,0.076002831 0.65064332,0.087192292 C 0.65620632,0.089328652 0.66176931,0.091528462 0.66731117,0.093749442 C 0.6716685,0.082559982 0.67608929,0.071370521 0.68051007,0.060159912 C 0.68727873,0.062825081 0.6940474,0.065490236 0.70081606,0.068155407 C 0.68926702,0.097789482 0.67759108,0.12740242 0.66595743,0.15703649 C 0.6591676,0.15437133 0.65239894,0.15170616 0.64563027,0.14901984 C 0.65041066,0.13677279 0.65521216,0.12450457 0.6600983,0.11217291 C 0.65453531,0.11003655 0.64897231,0.10783673 0.64340932,0.10561576 C 0.63860778,0.11788397 0.63380627,0.13015218 0.62902589,0.14248384 C 0.62208802,0.13981869 0.61515012,0.13709007 0.60823338,0.13434031 z "/>
  <path id="path48" style="font-style:normal;font-variant:normal;font-weight:normal;font-stretch:normal;letter-spacing:normal;word-spacing:normal;text-anchor:start;fill:#ff0000;fill-opacity:1;stroke:#ff0000;stroke-width:0;stroke-linecap:butt;stroke-linejoin:miter;stroke-miterlimit:10.43299961;stroke-dasharray:none;stroke-dashoffset:0;stroke-opacity:1" d="M 0.69633183,0.17385241 L 0.72368147,0.1347845 L 0.75109458,0.095653122 C 0.76524532,0.1055523 0.7794172,0.11545148 0.79356796,0.12541412 C 0.79007787,0.13044831 0.78648201,0.13554598 0.78290731,0.14066478 C 0.77484837,0.13501717 0.76676827,0.12930611 0.75862471,0.12359504 C 0.75528268,0.12833312 0.75191951,0.13311349 0.74857748,0.137915 C 0.75604417,0.14316073 0.7634897,0.14842758 0.771041,0.15367331 C 0.76738169,0.15885558 0.76372236,0.16410131 0.76006305,0.16936816 C 0.75261752,0.16410131 0.74515084,0.15885558 0.7376207,0.15358869 C 0.7336441,0.15923632 0.72968865,0.16494738 0.72564862,0.17065845 C 0.73372872,0.1762849 0.74180881,0.18199596 0.74995236,0.18770704 C 0.74629305,0.19297389 0.74254913,0.19830422 0.73882637,0.20363455 C 0.72465447,0.19373539 0.71050372,0.18383619 0.69633183,0.17385241 z "/>
  <path id="path50" style="font-style:normal;font-variant:normal;font-weight:normal;font-stretch:normal;letter-spacing:normal;word-spacing:normal;text-anchor:start;fill:none;fill-opacity:1;stroke:#ff0000;stroke-width:0.00007615;stroke-linecap:butt;stroke-linejoin:miter;stroke-miterlimit:10.43299961;stroke-dasharray:none;stroke-dashoffset:0;stroke-opacity:1" d="M 0.69633183,0.17385241 L 0.72368147,0.1347845 L 0.75109458,0.095653122 C 0.76524532,0.1055523 0.7794172,0.11545148 0.79356796,0.12541412 C 0.79007787,0.13044831 0.78648201,0.13554598 0.78290731,0.14066478 C 0.77484837,0.13501717 0.76676827,0.12930611 0.75862471,0.12359504 C 0.75528268,0.12833312 0.75191951,0.13311349 0.74857748,0.137915 C 0.75604417,0.14316073 0.7634897,0.14842758 0.771041,0.15367331 C 0.76738169,0.15885558 0.76372236,0.16410131 0.76006305,0.16936816 C 0.75261752,0.16410131 0.74515084,0.15885558 0.7376207,0.15358869 C 0.7336441,0.15923632 0.72968865,0.16494738 0.72564862,0.17065845 C 0.73372872,0.1762849 0.74180881,0.18199596 0.74995236,0.18770704 C 0.74629305,0.19297389 0.74254913,0.19830422 0.73882637,0.20363455 C 0.72465447,0.19373539 0.71050372,0.18383619 0.69633183,0.17385241 z "/>
  <path id="path52" style="font-style:normal;font-variant:normal;font-weight:normal;font-stretch:normal;letter-spacing:normal;word-spacing:normal;text-anchor:start;fill:#ff0000;fill-opacity:1;stroke:#ff0000;stroke-width:0;stroke-linecap:butt;stroke-linejoin:miter;stroke-miterlimit:10.43299961;stroke-dasharray:none;stroke-dashoffset:0;stroke-opacity:1" d="M 0.88617179,0.33803494 L 0.89255971,0.35745256 C 0.8917348,0.35768523 0.89080409,0.35798135 0.88991571,0.35827749 C 0.88496611,0.35996965 0.88160295,0.36172528 0.87993193,0.36360782 C 0.87826091,0.36536344 0.87794363,0.36773247 0.87885317,0.37048224 C 0.87963579,0.37283012 0.88092606,0.37426846 0.88289322,0.37505109 C 0.88488152,0.37587603 0.88722939,0.37572796 0.88991571,0.37488187 C 0.89425188,0.37344353 0.89744586,0.36893814 0.89949761,0.36134454 C 0.89979374,0.35996965 0.90011102,0.35912358 0.90025908,0.3583621 C 0.90032253,0.35821403 0.90040715,0.35774869 0.90063981,0.35721988 C 0.90345305,0.34679191 0.9060336,0.34000209 0.90833918,0.33704078 C 0.91001019,0.33481982 0.91214655,0.33285268 0.91457904,0.33124511 C 0.91701153,0.32948949 0.91990937,0.32813576 0.92318794,0.327057 C 0.93118343,0.32439183 0.93801554,0.32470911 0.94410735,0.32775501 C 0.9501357,0.33086437 0.95447186,0.336512 0.95713704,0.34442287 C 0.96003486,0.35326444 0.96003486,0.36056191 0.95713704,0.36673834 C 0.95417575,0.37283012 0.94852813,0.37725092 0.94008845,0.38000069 C 0.93970771,0.38014876 0.93924237,0.38029683 0.93862896,0.38044488 C 0.93801554,0.38052951 0.93748676,0.38076217 0.93719062,0.38082562 C 0.93513887,0.37450114 0.93300251,0.36817667 0.93086615,0.36178874 C 0.93118343,0.36172528 0.93156417,0.36155606 0.93194491,0.361408 C 0.9359638,0.36011771 0.93879817,0.35851017 0.94038458,0.35660647 C 0.94207675,0.35463932 0.94243633,0.35265104 0.94169601,0.35021854 C 0.940998,0.34831487 0.93970771,0.34687652 0.93788864,0.34609388 C 0.93604841,0.34541702 0.93406011,0.34541702 0.93162762,0.34617849 C 0.92775679,0.34746878 0.9249224,0.3522703 0.92287066,0.36056191 C 0.92242647,0.36202142 0.92210918,0.36322709 0.92187651,0.36407317 C 0.92181306,0.36468658 0.92158038,0.36553266 0.92119965,0.36682293 C 0.91891521,0.37572796 0.91654619,0.38188322 0.91396563,0.38501373 L 0.91396563,0.38501373 C 0.91235806,0.38698087 0.91022171,0.38873651 0.90778921,0.3902806 C 0.9055048,0.39178241 0.90269156,0.39309383 0.89958221,0.39415144 C 0.89050797,0.39711273 0.88274514,0.39704927 0.87627261,0.39391877 C 0.86980007,0.39087287 0.86508315,0.38509833 0.86218532,0.37625678 C 0.85913942,0.36711906 0.85928749,0.3594197 0.86248145,0.35317982 C 0.86561197,0.34708805 0.87185182,0.34245573 0.88113759,0.33938867 C 0.881751,0.33924061 0.88236441,0.33900794 0.88297782,0.33879641 C 0.88365469,0.33856374 0.88473344,0.33841568 0.88617179,0.33803494 L 0.88617179,0.33803494 z "/>
  <path id="path54" style="font-style:normal;font-variant:normal;font-weight:normal;font-stretch:normal;letter-spacing:normal;word-spacing:normal;text-anchor:start;fill:none;fill-opacity:1;stroke:#ff0000;stroke-width:0.00007615;stroke-linecap:butt;stroke-linejoin:miter;stroke-miterlimit:10.43299961;stroke-dasharray:none;stroke-dashoffset:0;stroke-opacity:1" d="M 0.88617179,0.33803494 L 0.89255971,0.35745256 C 0.8917348,0.35768523 0.89080409,0.35798135 0.88991571,0.35827749 C 0.88496611,0.35996965 0.88160295,0.36172528 0.87993193,0.36360782 C 0.87826091,0.36536344 0.87794363,0.36773247 0.87885317,0.37048224 C 0.87963579,0.37283012 0.88092606,0.37426846 0.88289322,0.37505109 C 0.88488152,0.37587603 0.88722939,0.37572796 0.88991571,0.37488187 C 0.89425188,0.37344353 0.89744586,0.36893814 0.89949761,0.36134454 C 0.89979374,0.35996965 0.90011102,0.35912358 0.90025908,0.3583621 C 0.90032253,0.35821403 0.90040715,0.35774869 0.90063981,0.35721988 C 0.90345305,0.34679191 0.9060336,0.34000209 0.90833918,0.33704078 C 0.91001019,0.33481982 0.91214655,0.33285268 0.91457904,0.33124511 C 0.91701153,0.32948949 0.91990937,0.32813576 0.92318794,0.327057 C 0.93118343,0.32439183 0.93801554,0.32470911 0.94410735,0.32775501 C 0.9501357,0.33086437 0.95447186,0.336512 0.95713704,0.34442287 C 0.96003486,0.35326444 0.96003486,0.36056191 0.95713704,0.36673834 C 0.95417575,0.37283012 0.94852813,0.37725092 0.94008845,0.38000069 C 0.93970771,0.38014876 0.93924237,0.38029683 0.93862896,0.38044488 C 0.93801554,0.38052951 0.93748676,0.38076217 0.93719062,0.38082562 C 0.93513887,0.37450114 0.93300251,0.36817667 0.93086615,0.36178874 C 0.93118343,0.36172528 0.93156417,0.36155606 0.93194491,0.361408 C 0.9359638,0.36011771 0.93879817,0.35851017 0.94038458,0.35660647 C 0.94207675,0.35463932 0.94243633,0.35265104 0.94169601,0.35021854 C 0.940998,0.34831487 0.93970771,0.34687652 0.93788864,0.34609388 C 0.93604841,0.34541702 0.93406011,0.34541702 0.93162762,0.34617849 C 0.92775679,0.34746878 0.9249224,0.3522703 0.92287066,0.36056191 C 0.92242647,0.36202142 0.92210918,0.36322709 0.92187651,0.36407317 C 0.92181306,0.36468658 0.92158038,0.36553266 0.92119965,0.36682293 C 0.91891521,0.37572796 0.91654619,0.38188322 0.91396563,0.38501373 L 0.91396563,0.38501373 C 0.91235806,0.38698087 0.91022171,0.38873651 0.90778921,0.3902806 C 0.9055048,0.39178241 0.90269156,0.39309383 0.89958221,0.39415144 C 0.89050797,0.39711273 0.88274514,0.39704927 0.87627261,0.39391877 C 0.86980007,0.39087287 0.86508315,0.38509833 0.86218532,0.37625678 C 0.85913942,0.36711906 0.85928749,0.3594197 0.86248145,0.35317982 C 0.86561197,0.34708805 0.87185182,0.34245573 0.88113759,0.33938867 C 0.881751,0.33924061 0.88236441,0.33900794 0.88297782,0.33879641 C 0.88365469,0.33856374 0.88473344,0.33841568 0.88617179,0.33803494 L 0.88617179,0.33803494 z "/>
  <path id="path56" style="font-style:normal;font-variant:normal;font-weight:normal;font-stretch:normal;letter-spacing:normal;word-spacing:normal;text-anchor:start;fill:#ff0000;fill-opacity:1;stroke:#ff0000;stroke-width:0;stroke-linecap:butt;stroke-linejoin:miter;stroke-miterlimit:10.43299961;stroke-dasharray:none;stroke-dashoffset:0;stroke-opacity:1" d="M 0.87864165,0.43626525 L 0.92604347,0.43085032 L 0.9734453,0.42537193 C 0.97534899,0.44250511 0.97731612,0.45972291 0.97930442,0.47691957 C 0.97321262,0.47759642 0.96712083,0.47829445 0.96094442,0.47905592 C 0.95980219,0.46924135 0.95865999,0.45940564 0.95751776,0.44950644 C 0.95174325,0.45020447 0.94594758,0.45088133 0.94015191,0.45157937 C 0.94114606,0.46063247 0.94222482,0.46968555 0.94328242,0.47875979 C 0.93695794,0.47943666 0.93063346,0.48019814 0.92424553,0.48095962 C 0.9232514,0.47190652 0.92219379,0.46283227 0.92111503,0.45369457 C 0.91426176,0.45445605 0.90734502,0.45521752 0.90040715,0.4560636 C 0.90154936,0.46587817 0.90269156,0.47571389 0.90383378,0.48559192 C 0.89744586,0.48628994 0.89097331,0.48705141 0.88450077,0.48781289 C 0.88259707,0.4706797 0.88060879,0.4534619 0.87864165,0.43626525 z "/>
  <path id="path58" style="font-style:normal;font-variant:normal;font-weight:normal;font-stretch:normal;letter-spacing:normal;word-spacing:normal;text-anchor:start;fill:none;fill-opacity:1;stroke:#ff0000;stroke-width:0.00007615;stroke-linecap:butt;stroke-linejoin:miter;stroke-miterlimit:10.43299961;stroke-dasharray:none;stroke-dashoffset:0;stroke-opacity:1" d="M 0.87864165,0.43626525 L 0.92604347,0.43085032 L 0.9734453,0.42537193 C 0.97534899,0.44250511 0.97731612,0.45972291 0.97930442,0.47691957 C 0.97321262,0.47759642 0.96712083,0.47829445 0.96094442,0.47905592 C 0.95980219,0.46924135 0.95865999,0.45940564 0.95751776,0.44950644 C 0.95174325,0.45020447 0.94594758,0.45088133 0.94015191,0.45157937 C 0.94114606,0.46063247 0.94222482,0.46968555 0.94328242,0.47875979 C 0.93695794,0.47943666 0.93063346,0.48019814 0.92424553,0.48095962 C 0.9232514,0.47190652 0.92219379,0.46283227 0.92111503,0.45369457 C 0.91426176,0.45445605 0.90734502,0.45521752 0.90040715,0.4560636 C 0.90154936,0.46587817 0.90269156,0.47571389 0.90383378,0.48559192 C 0.89744586,0.48628994 0.89097331,0.48705141 0.88450077,0.48781289 C 0.88259707,0.4706797 0.88060879,0.4534619 0.87864165,0.43626525 z "/>
  <path id="path60" style="font-style:normal;font-variant:normal;font-weight:normal;font-stretch:normal;letter-spacing:normal;word-spacing:normal;text-anchor:start;fill:#ff0000;fill-opacity:1;stroke:#ff0000;stroke-width:0;stroke-linecap:butt;stroke-linejoin:miter;stroke-miterlimit:10.43299961;stroke-dasharray:none;stroke-dashoffset:0;stroke-opacity:1" d="M 0.86432169,0.6263168 L 0.91273881,0.63310661 L 0.96117709,0.63995988 C 0.9584273,0.64727853 0.9556987,0.6546606 0.95286431,0.66204267 C 0.93628108,0.65876409 0.9196767,0.65548554 0.90300885,0.65214351 C 0.90078787,0.65167816 0.89789005,0.65100128 0.89425188,0.65015519 C 0.89074064,0.64939373 0.88684865,0.64833613 0.88274514,0.64734197 C 0.88304128,0.64749004 0.88335857,0.64763811 0.8837393,0.64787079 C 0.89272893,0.65243963 0.89850346,0.65542206 0.90108401,0.65692388 C 0.91578471,0.66538469 0.93048542,0.67390899 0.9451861,0.68243328 C 0.94243633,0.68975191 0.93970771,0.69713399 0.93689449,0.70453722 C 0.9096929,0.68664256 0.88244903,0.66866326 0.85518398,0.650684 C 0.85822988,0.64262506 0.86127579,0.63446034 0.86432169,0.6263168 z "/>
  <path id="path62" style="font-style:normal;font-variant:normal;font-weight:normal;font-stretch:normal;letter-spacing:normal;word-spacing:normal;text-anchor:start;fill:none;fill-opacity:1;stroke:#ff0000;stroke-width:0.00007615;stroke-linecap:butt;stroke-linejoin:miter;stroke-miterlimit:10.43299961;stroke-dasharray:none;stroke-dashoffset:0;stroke-opacity:1" d="M 0.86432169,0.6263168 L 0.91273881,0.63310661 L 0.96117709,0.63995988 C 0.9584273,0.64727853 0.9556987,0.6546606 0.95286431,0.66204267 C 0.93628108,0.65876409 0.9196767,0.65548554 0.90300885,0.65214351 C 0.90078787,0.65167816 0.89789005,0.65100128 0.89425188,0.65015519 C 0.89074064,0.64939373 0.88684865,0.64833613 0.88274514,0.64734197 C 0.88304128,0.64749004 0.88335857,0.64763811 0.8837393,0.64787079 C 0.89272893,0.65243963 0.89850346,0.65542206 0.90108401,0.65692388 C 0.91578471,0.66538469 0.93048542,0.67390899 0.9451861,0.68243328 C 0.94243633,0.68975191 0.93970771,0.69713399 0.93689449,0.70453722 C 0.9096929,0.68664256 0.88244903,0.66866326 0.85518398,0.650684 C 0.85822988,0.64262506 0.86127579,0.63446034 0.86432169,0.6263168 z "/>
  <path id="path64" style="font-style:normal;font-variant:normal;font-weight:normal;font-stretch:normal;letter-spacing:normal;word-spacing:normal;text-anchor:start;fill:#ff0000;fill-opacity:1;stroke:#ff0000;stroke-width:0;stroke-linecap:butt;stroke-linejoin:miter;stroke-miterlimit:10.43299961;stroke-dasharray:none;stroke-dashoffset:0;stroke-opacity:1" d="M 0.83263586,0.6973032 L 0.87403049,0.72116276 L 0.91548859,0.74504354 C 0.91159659,0.75143143 0.90764115,0.75790388 0.90368571,0.76438074 C 0.87612455,0.74853355 0.84847877,0.73262719 0.82083299,0.71672083 C 0.82472499,0.71024829 0.82868042,0.70377575 0.83263586,0.6973032 z "/>
  <path id="path66" style="font-style:normal;font-variant:normal;font-weight:normal;font-stretch:normal;letter-spacing:normal;word-spacing:normal;text-anchor:start;fill:none;fill-opacity:1;stroke:#ff0000;stroke-width:0.00007615;stroke-linecap:butt;stroke-linejoin:miter;stroke-miterlimit:10.43299961;stroke-dasharray:none;stroke-dashoffset:0;stroke-opacity:1" d="M 0.83263586,0.6973032 L 0.87403049,0.72116276 L 0.91548859,0.74504354 C 0.91159659,0.75143143 0.90764115,0.75790388 0.90368571,0.76438074 C 0.87612455,0.74853355 0.84847877,0.73262719 0.82083299,0.71672083 C 0.82472499,0.71024829 0.82868042,0.70377575 0.83263586,0.6973032 z "/>
  <path id="path68" style="font-style:normal;font-variant:normal;font-weight:normal;font-stretch:normal;letter-spacing:normal;word-spacing:normal;text-anchor:start;fill:#ff0000;fill-opacity:1;stroke:#ff0000;stroke-width:0;stroke-linecap:butt;stroke-linejoin:miter;stroke-miterlimit:10.43299961;stroke-dasharray:none;stroke-dashoffset:0;stroke-opacity:1" d="M 0.8001251,0.8031419 L 0.78483215,0.81890662 C 0.7843668,0.81844339 0.78398607,0.81821909 0.78337266,0.81768398 C 0.78290731,0.81722917 0.78223044,0.81646767 0.7813209,0.81562591 C 0.77294468,0.80747808 0.76852389,0.79963702 0.76805855,0.79210264 C 0.76752974,0.78448368 0.77089292,0.77679274 0.778275,0.76925627 C 0.78261119,0.76476148 0.78703196,0.7617113 0.79166427,0.7600403 C 0.79623312,0.75843278 0.80095003,0.75790388 0.80583616,0.75889808 C 0.80934742,0.75965957 0.81321825,0.76149979 0.81755443,0.76468739 C 0.82197521,0.76765291 0.82829968,0.77336194 0.83652785,0.78128754 C 0.84475599,0.78935923 0.85053053,0.79544889 0.85357643,0.7997111 C 0.85693961,0.80397527 0.85884329,0.80785882 0.85966823,0.81136162 C 0.86074698,0.81608913 0.86051431,0.82080605 0.85899136,0.82530086 C 0.8574684,0.83001984 0.85448596,0.83443863 0.85029785,0.83885094 C 0.84300038,0.84631332 0.83544908,0.84989021 0.82762282,0.84950947 C 0.81992346,0.84928736 0.81177992,0.84509714 0.80348829,0.83702546 C 0.80331907,0.83687743 0.8030864,0.83664473 0.80287488,0.83641421 C 0.80788792,0.83124247 0.81292211,0.82606026 0.81801977,0.82088013 C 0.8228213,0.82537493 0.82654406,0.82796177 0.8294419,0.82880367 C 0.83225512,0.8296391 0.83477222,0.82887981 0.83714124,0.82651496 C 0.8396372,0.82393019 0.84018716,0.82103876 0.83881226,0.81791449 C 0.83743739,0.8147164 0.83181092,0.80832205 0.82197521,0.79872118 C 0.82159448,0.79834044 0.82121374,0.7979597 0.82076955,0.79750488 C 0.81017235,0.78722708 0.8032556,0.78136162 0.79982898,0.77998888 C 0.79661386,0.77861823 0.79373718,0.77915541 0.79113547,0.78181643 C 0.78885104,0.78417909 0.78808958,0.78676386 0.78893565,0.78935923 C 0.78969712,0.79210264 0.79242575,0.79559704 0.79716381,0.80024827 C 0.79813681,0.80115792 0.79913096,0.80214991 0.8001251,0.8031419 z "/>
  <path id="path70" style="font-style:normal;font-variant:normal;font-weight:normal;font-stretch:normal;letter-spacing:normal;word-spacing:normal;text-anchor:start;fill:none;fill-opacity:1;stroke:#ff0000;stroke-width:0.00007615;stroke-linecap:butt;stroke-linejoin:miter;stroke-miterlimit:10.43299961;stroke-dasharray:none;stroke-dashoffset:0;stroke-opacity:1" d="M 0.8001251,0.8031419 L 0.78483215,0.81890662 C 0.7843668,0.81844339 0.78398607,0.81821909 0.78337266,0.81768398 C 0.78290731,0.81722917 0.78223044,0.81646767 0.7813209,0.81562591 C 0.77294468,0.80747808 0.76852389,0.79963702 0.76805855,0.79210264 C 0.76752974,0.78448368 0.77089292,0.77679274 0.778275,0.76925627 C 0.78261119,0.76476148 0.78703196,0.7617113 0.79166427,0.7600403 C 0.79623312,0.75843278 0.80095003,0.75790388 0.80583616,0.75889808 C 0.80934742,0.75965957 0.81321825,0.76149979 0.81755443,0.76468739 C 0.82197521,0.76765291 0.82829968,0.77336194 0.83652785,0.78128754 C 0.84475599,0.78935923 0.85053053,0.79544889 0.85357643,0.7997111 C 0.85693961,0.80397527 0.85884329,0.80785882 0.85966823,0.81136162 C 0.86074698,0.81608913 0.86051431,0.82080605 0.85899136,0.82530086 C 0.8574684,0.83001984 0.85448596,0.83443863 0.85029785,0.83885094 C 0.84300038,0.84631332 0.83544908,0.84989021 0.82762282,0.84950947 C 0.81992346,0.84928736 0.81177992,0.84509714 0.80348829,0.83702546 C 0.80331907,0.83687743 0.8030864,0.83664473 0.80287488,0.83641421 C 0.80788792,0.83124247 0.81292211,0.82606026 0.81801977,0.82088013 C 0.8228213,0.82537493 0.82654406,0.82796177 0.8294419,0.82880367 C 0.83225512,0.8296391 0.83477222,0.82887981 0.83714124,0.82651496 C 0.8396372,0.82393019 0.84018716,0.82103876 0.83881226,0.81791449 C 0.83743739,0.8147164 0.83181092,0.80832205 0.82197521,0.79872118 C 0.82159448,0.79834044 0.82121374,0.7979597 0.82076955,0.79750488 C 0.81017235,0.78722708 0.8032556,0.78136162 0.79982898,0.77998888 C 0.79661386,0.77861823 0.79373718,0.77915541 0.79113547,0.78181643 C 0.78885104,0.78417909 0.78808958,0.78676386 0.78893565,0.78935923 C 0.78969712,0.79210264 0.79242575,0.79559704 0.79716381,0.80024827 C 0.79813681,0.80115792 0.79913096,0.80214991 0.8001251,0.8031419 z "/>
  <path id="path72" style="font-style:normal;font-variant:normal;font-weight:normal;font-stretch:normal;letter-spacing:normal;word-spacing:normal;text-anchor:start;fill:#ff0000;fill-opacity:1;stroke:#ff0000;stroke-width:0;stroke-linecap:butt;stroke-linejoin:miter;stroke-miterlimit:10.43299961;stroke-dasharray:none;stroke-dashoffset:0;stroke-opacity:1" d="M 0.72922331,0.81410503 L 0.75576918,0.85375037 L 0.7823785,0.89345078 C 0.7679951,0.90304321 0.75359052,0.91263568 0.7392071,0.92231075 C 0.73578046,0.91720456 0.73235382,0.91210691 0.72892719,0.90692677 C 0.73715536,0.90144839 0.74538352,0.89596158 0.75359052,0.8904007 C 0.75039655,0.88560973 0.74713913,0.88073418 0.7438394,0.87585862 C 0.73630927,0.88088222 0.72869452,0.88599045 0.72107977,0.8910881 C 0.71758967,0.88583182 0.71399381,0.88050355 0.71041912,0.8751733 C 0.7179704,0.87007565 0.72558515,0.86496947 0.73319991,0.85987181 C 0.72937138,0.85416291 0.72550056,0.84836932 0.72160856,0.84258633 C 0.71340155,0.84806473 0.70517339,0.85355165 0.69694524,0.85911253 C 0.69337054,0.85377364 0.68979583,0.84836932 0.68613651,0.84296706 C 0.70043533,0.83337462 0.7148399,0.82377157 0.72922331,0.81410503 z "/>
  <path id="path74" style="font-style:normal;font-variant:normal;font-weight:normal;font-stretch:normal;letter-spacing:normal;word-spacing:normal;text-anchor:start;fill:none;fill-opacity:1;stroke:#ff0000;stroke-width:0.00007615;stroke-linecap:butt;stroke-linejoin:miter;stroke-miterlimit:10.43299961;stroke-dasharray:none;stroke-dashoffset:0;stroke-opacity:1" d="M 0.72922331,0.81410503 L 0.75576918,0.85375037 L 0.7823785,0.89345078 C 0.7679951,0.90304321 0.75359052,0.91263568 0.7392071,0.92231075 C 0.73578046,0.91720456 0.73235382,0.91210691 0.72892719,0.90692677 C 0.73715536,0.90144839 0.74538352,0.89596158 0.75359052,0.8904007 C 0.75039655,0.88560973 0.74713913,0.88073418 0.7438394,0.87585862 C 0.73630927,0.88088222 0.72869452,0.88599045 0.72107977,0.8910881 C 0.71758967,0.88583182 0.71399381,0.88050355 0.71041912,0.8751733 C 0.7179704,0.87007565 0.72558515,0.86496947 0.73319991,0.85987181 C 0.72937138,0.85416291 0.72550056,0.84836932 0.72160856,0.84258633 C 0.71340155,0.84806473 0.70517339,0.85355165 0.69694524,0.85911253 C 0.69337054,0.85377364 0.68979583,0.84836932 0.68613651,0.84296706 C 0.70043533,0.83337462 0.7148399,0.82377157 0.72922331,0.81410503 z "/>
  <path id="path76" style="font-style:normal;font-variant:normal;font-weight:normal;font-stretch:normal;letter-spacing:normal;word-spacing:normal;text-anchor:start;fill:#ffffff;fill-opacity:1;stroke:#ffffff;stroke-width:0;stroke-linecap:butt;stroke-linejoin:miter;stroke-miterlimit:10.43299961;stroke-dasharray:none;stroke-dashoffset:0;stroke-opacity:1" d="M 0.18599547,0.50494609 L 0.18639736,0.52110628 L 0.18760304,0.53705495 L 0.18961247,0.55277097 L 0.19236225,0.56823314 L 0.19587349,0.58344151 L 0.20010391,0.59833257 L 0.20505349,0.61292753 L 0.21067996,0.62720519 L 0.21696211,0.64112325 L 0.22389999,0.6546606 L 0.23147245,0.66781719 L 0.23963716,0.68055074 L 0.24839412,0.69286126 L 0.25772219,0.70472758 L 0.26757907,0.71612858 L 0.27798588,0.72704304 L 0.28890035,0.73744988 L 0.30030133,0.74732786 L 0.31216766,0.75663483 L 0.32447817,0.76540027 L 0.33721173,0.77357124 L 0.35036833,0.78113317 L 0.36392681,0.78807105 L 0.37782372,0.79436173 L 0.39210138,0.79998609 L 0.40669632,0.80492511 L 0.42158739,0.80915761 L 0.43679574,0.81266455 L 0.45225791,0.81542707 L 0.46797391,0.81742385 L 0.48392258,0.81863798 L 0.50010393,0.81904624 C 0.67357218,0.81904624 0.8142124,0.67841438 0.8142124,0.50494609 L 0.50010393,0.50494609 L 0.18599547,0.50494609 z "/>
  <path id="path78" style="font-style:normal;font-variant:normal;font-weight:normal;font-stretch:normal;letter-spacing:normal;word-spacing:normal;text-anchor:start;fill:none;fill-opacity:1;stroke:#000000;stroke-width:0.00007615;stroke-linecap:butt;stroke-linejoin:miter;stroke-miterlimit:10.43299961;stroke-dasharray:none;stroke-dashoffset:0;stroke-opacity:1" d="M 0.18599547,0.50494609 L 0.18639736,0.52110628 L 0.18760304,0.53705495 L 0.18961247,0.55277097 L 0.19236225,0.56823314 L 0.19587349,0.58344151 L 0.20010391,0.59833257 L 0.20505349,0.61292753 L 0.21067996,0.62720519 L 0.21696211,0.64112325 L 0.22389999,0.6546606 L 0.23147245,0.66781719 L 0.23963716,0.68055074 L 0.24839412,0.69286126 L 0.25772219,0.70472758 L 0.26757907,0.71612858 L 0.27798588,0.72704304 L 0.28890035,0.73744988 L 0.30030133,0.74732786 L 0.31216766,0.75663483 L 0.32447817,0.76540027 L 0.33721173,0.77357124 L 0.35036833,0.78113317 L 0.36392681,0.78807105 L 0.37782372,0.79436173 L 0.39210138,0.79998609 L 0.40669632,0.80492511 L 0.42158739,0.80915761 L 0.43679574,0.81266455 L 0.45225791,0.81542707 L 0.46797391,0.81742385 L 0.48392258,0.81863798 L 0.50010393,0.81904624 C 0.67357218,0.81904624 0.8142124,0.67841438 0.8142124,0.50494609 L 0.50010393,0.50494609 L 0.18599547,0.50494609 z "/>
  <polygon id="polygon80" style="font-style:normal;font-variant:normal;font-weight:normal;font-stretch:normal;letter-spacing:normal;word-spacing:normal;text-anchor:start;fill:#00007f;fill-opacity:1;stroke:#00007f;stroke-width:0;stroke-linecap:butt;stroke-linejoin:miter;stroke-miterlimit:10.43299961;stroke-dasharray:none;stroke-dashoffset:0;stroke-opacity:1" points="186.16,133.66 209.73,122 221.62,118.72 231.98,117.5 241.92,117.96 252.72,120.38 264.17,125.49 269.1,128.62 282.35,122.32 294.66,118.72 303.98,117.79 312.7,118.54 325.66,121.42 338.87,126.96 342.32,128.95 354.2,123.36 364.71,120.38 374.18,119.15 383.98,119.44 395.1,121.71 409.39,126.82 427.5,135.89 422.39,129.27 411.05,122.82 396.25,117.53 384.48,115.16 374,114.83 363.85,116.09 352.69,119.3 342.5,124.09 340.78,123.07 326.95,117.28 313.38,114.26 303.98,113.46 293.87,114.44 280.8,118.25 269.43,123.69 266.22,121.64 254.09,116.23 242.46,113.64 231.84,113.18 220.75,114.44 208.26,117.93 192.02,126.21 186.16,133.66 " transform="matrix(2.1152085e-3,0,0,-2.1152091e-3,-0.1471499,0.9734649)"/>
  <polygon id="polygon82" style="font-style:normal;font-variant:normal;font-weight:normal;font-stretch:normal;letter-spacing:normal;word-spacing:normal;text-anchor:start;fill:none;fill-opacity:1;stroke:#00007f;stroke-width:0.036;stroke-linecap:butt;stroke-linejoin:miter;stroke-miterlimit:10.43299961;stroke-dasharray:none;stroke-dashoffset:0;stroke-opacity:1" points="186.16,133.66 209.73,122 221.62,118.72 231.98,117.5 241.92,117.96 252.72,120.38 264.17,125.49 269.1,128.62 282.35,122.32 294.66,118.72 303.98,117.79 312.7,118.54 325.66,121.42 338.87,126.96 342.32,128.95 354.2,123.36 364.71,120.38 374.18,119.15 383.98,119.44 395.1,121.71 409.39,126.82 427.5,135.89 422.39,129.27 411.05,122.82 396.25,117.53 384.48,115.16 374,114.83 363.85,116.09 352.69,119.3 342.5,124.09 340.78,123.07 326.95,117.28 313.38,114.26 303.98,113.46 293.87,114.44 280.8,118.25 269.43,123.69 266.22,121.64 254.09,116.23 242.46,113.64 231.84,113.18 220.75,114.44 208.26,117.93 192.02,126.21 186.16,133.66 " transform="matrix(2.1152085e-3,0,0,-2.1152091e-3,-0.1471499,0.9734649)"/>
  <path id="path84" style="font-style:normal;font-variant:normal;font-weight:normal;font-stretch:normal;letter-spacing:normal;word-spacing:normal;text-anchor:start;fill:#33b0e1;fill-opacity:1;stroke:#33b0e1;stroke-width:0;stroke-linecap:butt;stroke-linejoin:miter;stroke-miterlimit:10.43299961;stroke-dasharray:none;stroke-dashoffset:0;stroke-opacity:1" d="M 0.8142124,0.50494609 L 0.81378936,0.48876473 L 0.81258369,0.47281607 L 0.81057424,0.45710005 L 0.80782448,0.44163789 L 0.80431322,0.42642954 L 0.8000828,0.41153846 L 0.79513322,0.39694351 L 0.78952791,0.38266586 L 0.7832246,0.36876893 L 0.77628671,0.35521044 L 0.76873541,0.34205384 L 0.76054955,0.32932028 L 0.75179259,0.31700976 L 0.74248568,0.30514343 L 0.73260766,0.29374244 L 0.72220082,0.28282798 L 0.71128634,0.27242115 L 0.69988536,0.26256427 L 0.68801905,0.2532362 L 0.67570854,0.24447924 L 0.66297498,0.23631453 L 0.64981839,0.22874208 L 0.63628106,0.22180418 L 0.62236298,0.21552203 L 0.60808532,0.20989556 L 0.59349038,0.20494597 L 0.57859931,0.20071557 L 0.56339096,0.19720432 L 0.54792879,0.19445454 L 0.53221279,0.19244511 L 0.51626412,0.19123943 L 0.50010393,0.19083754 C 0.32661453,0.19083754 0.18599547,0.33145664 0.18599547,0.50494609 L 0.50010393,0.50494609 L 0.8142124,0.50494609 z "/>
  <path id="path86" style="font-style:normal;font-variant:normal;font-weight:normal;font-stretch:normal;letter-spacing:normal;word-spacing:normal;text-anchor:start;fill:none;fill-opacity:1;stroke:#0000ff;stroke-width:0.00007615;stroke-linecap:butt;stroke-linejoin:miter;stroke-miterlimit:10.43299961;stroke-dasharray:none;stroke-dashoffset:0;stroke-opacity:1" d="M 0.8142124,0.50494609 L 0.81378936,0.48876473 L 0.81258369,0.47281607 L 0.81057424,0.45710005 L 0.80782448,0.44163789 L 0.80431322,0.42642954 L 0.8000828,0.41153846 L 0.79513322,0.39694351 L 0.78952791,0.38266586 L 0.7832246,0.36876893 L 0.77628671,0.35521044 L 0.76873541,0.34205384 L 0.76054955,0.32932028 L 0.75179259,0.31700976 L 0.74248568,0.30514343 L 0.73260766,0.29374244 L 0.72220082,0.28282798 L 0.71128634,0.27242115 L 0.69988536,0.26256427 L 0.68801905,0.2532362 L 0.67570854,0.24447924 L 0.66297498,0.23631453 L 0.64981839,0.22874208 L 0.63628106,0.22180418 L 0.62236298,0.21552203 L 0.60808532,0.20989556 L 0.59349038,0.20494597 L 0.57859931,0.20071557 L 0.56339096,0.19720432 L 0.54792879,0.19445454 L 0.53221279,0.19244511 L 0.51626412,0.19123943 L 0.50010393,0.19083754 C 0.32661453,0.19083754 0.18599547,0.33145664 0.18599547,0.50494609 L 0.50010393,0.50494609 L 0.8142124,0.50494609 z "/>
  <path id="path88" style="font-style:normal;font-variant:normal;font-weight:normal;font-stretch:normal;letter-spacing:normal;word-spacing:normal;text-anchor:start;fill:#33b0e1;fill-opacity:1;stroke:#33b0e1;stroke-width:0;stroke-linecap:butt;stroke-linejoin:miter;stroke-miterlimit:10.43299961;stroke-dasharray:none;stroke-dashoffset:0;stroke-opacity:1" d="M 0.74629305,0.70003182 L 0.74060314,0.70696971 L 0.73474401,0.71373838 L 0.72871567,0.72031667 L 0.7225181,0.7267046 L 0.71615133,0.73290218 L 0.7096365,0.73888822 L 0.70297358,0.74470505 L 0.69616261,0.7503104 L 0.68920357,0.75570412 L 0.68211763,0.76090754 L 0.67488361,0.76590151 L 0.6675227,0.77068616 L 0.66003484,0.77526138 L 0.65242009,0.77962289 L 0.64469959,0.78377082 L 0.63687332,0.78769884 L 0.62894128,0.7914089 L 0.62090349,0.79489476 L 0.61275994,0.79815634 L 0.60453178,0.80119166 L 0.59619785,0.80399854 L 0.58780048,0.80657284 L 0.5793185,0.80891222 L 0.5707519,0.81101682 L 0.56212184,0.81288032 L 0.55342834,0.81450477 L 0.54467138,0.81588603 L 0.53585095,0.81701985 L 0.52698823,0.81790608 L 0.51806206,0.81854281 L 0.50909356,0.81892562 L 0.50010393,0.81905465 C 0.40667517,0.81905465 0.3192536,0.77823749 0.2594778,0.70673704 L 0.2594778,0.70673704 L 0.29336346,0.7240183 L 0.31978242,0.73140038 L 0.34324007,0.73406554 L 0.36570359,0.73309254 L 0.39030346,0.72761415 L 0.41596093,0.71617088 L 0.42275076,0.71183469 L 0.44680068,0.72334142 L 0.47444645,0.73140038 L 0.49583121,0.73347328 L 0.51571417,0.73178112 L 0.54441754,0.72539318 L 0.57367088,0.71314611 L 0.57730904,0.71098861 L 0.59886302,0.72112045 L 0.62246874,0.72791027 L 0.64393811,0.73057545 L 0.6661055,0.72987743 L 0.69100149,0.72486437 L 0.72230659,0.71367493 L 0.74629305,0.70003182 z "/>
  <path id="path90" style="font-style:normal;font-variant:normal;font-weight:normal;font-stretch:normal;letter-spacing:normal;word-spacing:normal;text-anchor:start;fill:none;fill-opacity:1;stroke:#0000ff;stroke-width:0.00007615;stroke-linecap:butt;stroke-linejoin:miter;stroke-miterlimit:10.43299961;stroke-dasharray:none;stroke-dashoffset:0;stroke-opacity:1" d="M 0.74629305,0.70003182 L 0.74060314,0.70696971 L 0.73474401,0.71373838 L 0.72871567,0.72031667 L 0.7225181,0.7267046 L 0.71615133,0.73290218 L 0.7096365,0.73888822 L 0.70297358,0.74470505 L 0.69616261,0.7503104 L 0.68920357,0.75570412 L 0.68211763,0.76090754 L 0.67488361,0.76590151 L 0.6675227,0.77068616 L 0.66003484,0.77526138 L 0.65242009,0.77962289 L 0.64469959,0.78377082 L 0.63687332,0.78769884 L 0.62894128,0.7914089 L 0.62090349,0.79489476 L 0.61275994,0.79815634 L 0.60453178,0.80119166 L 0.59619785,0.80399854 L 0.58780048,0.80657284 L 0.5793185,0.80891222 L 0.5707519,0.81101682 L 0.56212184,0.81288032 L 0.55342834,0.81450477 L 0.54467138,0.81588603 L 0.53585095,0.81701985 L 0.52698823,0.81790608 L 0.51806206,0.81854281 L 0.50909356,0.81892562 L 0.50010393,0.81905465 C 0.40667517,0.81905465 0.3192536,0.77823749 0.2594778,0.70673704 L 0.2594778,0.70673704 L 0.29336346,0.7240183 L 0.31978242,0.73140038 L 0.34324007,0.73406554 L 0.36570359,0.73309254 L 0.39030346,0.72761415 L 0.41596093,0.71617088 L 0.42275076,0.71183469 L 0.44680068,0.72334142 L 0.47444645,0.73140038 L 0.49583121,0.73347328 L 0.51571417,0.73178112 L 0.54441754,0.72539318 L 0.57367088,0.71314611 L 0.57730904,0.71098861 L 0.59886302,0.72112045 L 0.62246874,0.72791027 L 0.64393811,0.73057545 L 0.6661055,0.72987743 L 0.69100149,0.72486437 L 0.72230659,0.71367493 L 0.74629305,0.70003182 z "/>
  <polygon id="polygon92" style="font-style:normal;font-variant:normal;font-weight:normal;font-stretch:normal;letter-spacing:normal;word-spacing:normal;text-anchor:start;fill:#ff0000;fill-opacity:1;stroke:#ff0000;stroke-width:0;stroke-linecap:butt;stroke-linejoin:miter;stroke-miterlimit:10.43299961;stroke-dasharray:none;stroke-dashoffset:0;stroke-opacity:1" points="326.38,24.438 310.54,24.398 305.68,39.484 300.82,24.398 284.98,24.438 297.83,15.148 292.89,0.10156 305.68,9.4258 318.46,0.10156 313.56,15.148 326.38,24.438 " transform="matrix(2.1152085e-3,0,0,-2.1152091e-3,-0.1471499,0.9734649)"/>
  <polygon id="polygon94" style="font-style:normal;font-variant:normal;font-weight:normal;font-stretch:normal;letter-spacing:normal;word-spacing:normal;text-anchor:start;fill:none;fill-opacity:1;stroke:#ff0000;stroke-width:0.036;stroke-linecap:butt;stroke-linejoin:miter;stroke-miterlimit:10.43299961;stroke-dasharray:none;stroke-dashoffset:0;stroke-opacity:1" points="326.38,24.438 310.54,24.398 305.68,39.484 300.82,24.398 284.98,24.438 297.83,15.148 292.89,0.10156 305.68,9.4258 318.46,0.10156 313.56,15.148 326.38,24.438 " transform="matrix(2.1152085e-3,0,0,-2.1152091e-3,-0.1471499,0.9734649)"/>
  <polygon id="polygon96" style="font-style:normal;font-variant:normal;font-weight:normal;font-stretch:normal;letter-spacing:normal;word-spacing:normal;text-anchor:start;fill:#0000c2;fill-opacity:1;stroke:#0000c2;stroke-width:0;stroke-linecap:butt;stroke-linejoin:miter;stroke-miterlimit:10.43299961;stroke-dasharray:none;stroke-dashoffset:0;stroke-opacity:1" points="261.36,30.629 251.39,30.594 248.33,40.098 245.27,30.594 235.26,30.629 243.36,24.797 240.27,15.293 248.33,21.195 256.36,15.293 253.26,24.797 261.36,30.629 " transform="matrix(2.1152085e-3,0,0,-2.1152091e-3,-0.1471499,0.9734649)"/>
  <polygon id="polygon98" style="font-style:normal;font-variant:normal;font-weight:normal;font-stretch:normal;letter-spacing:normal;word-spacing:normal;text-anchor:start;fill:none;fill-opacity:1;stroke:#0000c2;stroke-width:0.036;stroke-linecap:butt;stroke-linejoin:miter;stroke-miterlimit:10.43299961;stroke-dasharray:none;stroke-dashoffset:0;stroke-opacity:1" points="261.36,30.629 251.39,30.594 248.33,40.098 245.27,30.594 235.26,30.629 243.36,24.797 240.27,15.293 248.33,21.195 256.36,15.293 253.26,24.797 261.36,30.629 " transform="matrix(2.1152085e-3,0,0,-2.1152091e-3,-0.1471499,0.9734649)"/>
  <polygon id="polygon100" style="font-style:normal;font-variant:normal;font-weight:normal;font-stretch:normal;letter-spacing:normal;word-spacing:normal;text-anchor:start;fill:#0000c2;fill-opacity:1;stroke:#0000c2;stroke-width:0;stroke-linecap:butt;stroke-linejoin:miter;stroke-miterlimit:10.43299961;stroke-dasharray:none;stroke-dashoffset:0;stroke-opacity:1" points="377.17,30.629 367.2,30.594 364.14,40.098 361.08,30.594 351.07,30.629 359.17,24.797 356.07,15.293 364.14,21.195 372.17,15.293 369.07,24.797 377.17,30.629 " transform="matrix(2.1152085e-3,0,0,-2.1152091e-3,-0.1471499,0.9734649)"/>
  <polygon id="polygon102" style="font-style:normal;font-variant:normal;font-weight:normal;font-stretch:normal;letter-spacing:normal;word-spacing:normal;text-anchor:start;fill:none;fill-opacity:1;stroke:#0000c2;stroke-width:0.036;stroke-linecap:butt;stroke-linejoin:miter;stroke-miterlimit:10.43299961;stroke-dasharray:none;stroke-dashoffset:0;stroke-opacity:1" points="377.17,30.629 367.2,30.594 364.14,40.098 361.08,30.594 351.07,30.629 359.17,24.797 356.07,15.293 364.14,21.195 372.17,15.293 369.07,24.797 377.17,30.629 " transform="matrix(2.1152085e-3,0,0,-2.1152091e-3,-0.1471499,0.9734649)"/>
  <path id="path106" style="font-style:normal;font-variant:normal;font-weight:normal;font-stretch:normal;letter-spacing:normal;word-spacing:normal;text-anchor:start;fill:#00007f;fill-opacity:1;fill-rule:evenodd;stroke:#00007f;stroke-width:0;stroke-linecap:butt;stroke-linejoin:miter;stroke-miterlimit:10.43299961;stroke-dashoffset:0;stroke-opacity:1" d="M 0.50010393,0.19083811 L 0.50010393,0.19083811 C 0.67357218,0.19083811 0.8142124,0.3314572 0.8142124,0.50494665 C 0.8142124,0.67841495 0.67357218,0.81904681 0.50010393,0.81904681 C 0.32661453,0.81904681 0.18599547,0.67841495 0.18599547,0.50494665 C 0.18599547,0.3314572 0.32661453,0.19083811 0.50010393,0.19083811 z M 0.50010393,0.20035639 L 0.50010393,0.20035639 C 0.66830531,0.20035639 0.80469395,0.33672392 0.80469395,0.50494649 C 0.80469395,0.67314792 0.66830531,0.80952814 0.50010393,0.80952814 C 0.3318814,0.80952814 0.19551391,0.67314792 0.19551391,0.50494649 C 0.19551391,0.33672392 0.3318814,0.20035639 0.50010393,0.20035639 z "/>
  <path id="path108" style="font-style:normal;font-variant:normal;font-weight:normal;font-stretch:normal;letter-spacing:normal;word-spacing:normal;text-anchor:start;fill:none;fill-opacity:1;stroke:#00007f;stroke-width:0.00007615;stroke-linecap:butt;stroke-linejoin:miter;stroke-miterlimit:10.43299961;stroke-dasharray:none;stroke-dashoffset:0;stroke-opacity:1" d="M 0.50010393,0.20035599 L 0.50010393,0.20035599 C 0.66830531,0.20035599 0.80469395,0.33672351 0.80469395,0.50494609 C 0.80469395,0.67314752 0.66830531,0.80952774 0.50010393,0.80952774 C 0.3318814,0.80952774 0.19551391,0.67314752 0.19551391,0.50494609 C 0.19551391,0.33672351 0.3318814,0.20035599 0.50010393,0.20035599 z "/>
  <path id="path110" style="font-style:normal;font-variant:normal;font-weight:normal;font-stretch:normal;letter-spacing:normal;word-spacing:normal;text-anchor:start;fill:none;fill-opacity:1;stroke:#00007f;stroke-width:0.00007615;stroke-linecap:butt;stroke-linejoin:miter;stroke-miterlimit:10.43299961;stroke-dasharray:none;stroke-dashoffset:0;stroke-opacity:1" d="M 0.50010393,0.19083754 L 0.50010393,0.19083754 C 0.67357218,0.19083754 0.8142124,0.33145664 0.8142124,0.50494609 C 0.8142124,0.67841438 0.67357218,0.81904624 0.50010393,0.81904624 C 0.32661453,0.81904624 0.18599547,0.67841438 0.18599547,0.50494609 C 0.18599547,0.33145664 0.32661453,0.19083754 0.50010393,0.19083754 z "/>
  <line id="line112" style="font-style:normal;font-variant:normal;font-weight:normal;font-stretch:normal;letter-spacing:normal;word-spacing:normal;text-anchor:start;fill:none;fill-opacity:1;stroke:#00007f;stroke-width:0.01142213;stroke-linecap:butt;stroke-linejoin:miter;stroke-miterlimit:10.43299961;stroke-dasharray:none;stroke-dashoffset:0;stroke-opacity:1" y2="0.19083756" x2="0.50010395" y1="0.50494605" x1="0.50010395"/>
  <line id="line114" style="font-style:normal;font-variant:normal;font-weight:normal;font-stretch:normal;letter-spacing:normal;word-spacing:normal;text-anchor:start;fill:none;fill-opacity:1;stroke:#00007f;stroke-width:0.01142171;stroke-linecap:butt;stroke-linejoin:miter;stroke-miterlimit:10.43299961;stroke-dasharray:none;stroke-dashoffset:0;stroke-opacity:1" y2="0.23295137" x2="0.34309199" y1="0.50494605" x1="0.50010395"/>
  <line id="line116" style="font-style:normal;font-variant:normal;font-weight:normal;font-stretch:normal;letter-spacing:normal;word-spacing:normal;text-anchor:start;fill:none;fill-opacity:1;stroke:#00007f;stroke-width:0.01142213;stroke-linecap:butt;stroke-linejoin:miter;stroke-miterlimit:10.43299961;stroke-dasharray:none;stroke-dashoffset:0;stroke-opacity:1" y2="0.34784955" x2="0.2281093" y1="0.50494605" x1="0.50010395"/>
  <line id="line118" style="font-style:normal;font-variant:normal;font-weight:normal;font-stretch:normal;letter-spacing:normal;word-spacing:normal;text-anchor:start;fill:none;fill-opacity:1;stroke:#00007f;stroke-width:0.01142213;stroke-linecap:butt;stroke-linejoin:miter;stroke-miterlimit:10.43299961;stroke-dasharray:none;stroke-dashoffset:0;stroke-opacity:1" y2="0.34784955" x2="0.7720986" y1="0.50494605" x1="0.50010395"/>
  <line id="line120" style="font-style:normal;font-variant:normal;font-weight:normal;font-stretch:normal;letter-spacing:normal;word-spacing:normal;text-anchor:start;fill:none;fill-opacity:1;stroke:#00007f;stroke-width:0.01142193;stroke-linecap:butt;stroke-linejoin:miter;stroke-miterlimit:10.43299961;stroke-dasharray:none;stroke-dashoffset:0;stroke-opacity:1" y2="0.23295137" x2="0.65711588" y1="0.50494605" x1="0.50010395"/>
  <polygon id="polygon122" style="font-style:normal;font-variant:normal;font-weight:normal;font-stretch:normal;letter-spacing:normal;word-spacing:normal;text-anchor:start;fill:#00007f;fill-opacity:1;stroke:#00007f;stroke-width:0;stroke-linecap:butt;stroke-linejoin:miter;stroke-miterlimit:10.43299961;stroke-dasharray:none;stroke-dashoffset:0;stroke-opacity:1" points="228.49,280.97 229.18,285.04 232.74,293.03 238.29,300.45 245.09,306.24 253.62,310.24 266.62,313.88 278.71,315.35 289.26,314.16 298.37,311.21 305.96,307.04 317.27,308.22 336.35,308.55 348.09,307.43 359.79,304.27 375.3,298.21 388.37,290.98 397.87,283.24 405.76,273.59 411.05,264.34 415.66,266.11 422.24,266.5 428.65,263.51 432.14,257.68 432.18,257.46 435.17,258.69 443.91,259.84 452.41,259.52 459.25,257.75 466.49,253.72 472.43,247.6 475.13,241.37 475.52,235.72 474.52,230.29 470.77,224.38 465.59,220.64 464.98,216.28 460.91,208.47 451.26,198.17 442.84,192.81 434.91,190.11 422.82,188.34 413.86,188.09 414.25,187.59 417.1,180.79 417.53,175.1 415.55,169.55 409.57,163.57 401.58,159.4 395.53,157.96 387.68,158.32 380.99,160.55 380.41,158.54 376.02,152.81 370.08,148.71 362.34,146.44 352.62,145.79 346.25,146.04 340.6,142.8 327.71,138.99 316.73,136.94 308.12,136.94 295.41,138.34 283.18,141.36 272.66,146.04 262.62,153.21 256.79,158.57 252,156.99 236.95,155.26 228.31,155.59 218.48,158.21 208.26,162.89 200.12,168.9 194.4,175.78 194.33,175.74 187.78,172.9 175.9,170.16 168.84,169.84 157.93,171.82 151.05,174.88 145.73,179.85 141.41,187.16 139.25,194.29 139.25,200.12 141.77,207.96 146.7,215.2 153.4,220.49 153.68,220.6 150.41,225.03 147.74,232.48 147.02,240.4 149.18,248.35 154.91,257.79 162.11,264.81 170.71,269.02 183.96,272.84 195.7,273.99 206.85,273.16 209.34,272.51 211.14,275.18 217.33,279.24 225.07,281.04 228.49,280.97 " transform="matrix(2.1152085e-3,0,0,-2.1152091e-3,-0.1471499,0.9734649)"/>
  <polygon id="polygon124" style="font-style:normal;font-variant:normal;font-weight:normal;font-stretch:normal;letter-spacing:normal;word-spacing:normal;text-anchor:start;fill:none;fill-opacity:1;stroke:#00007f;stroke-width:0.036;stroke-linecap:butt;stroke-linejoin:miter;stroke-miterlimit:10.43299961;stroke-dasharray:none;stroke-dashoffset:0;stroke-opacity:1" points="228.49,280.97 229.18,285.04 232.74,293.03 238.29,300.45 245.09,306.24 253.62,310.24 266.62,313.88 278.71,315.35 289.26,314.16 298.37,311.21 305.96,307.04 317.27,308.22 336.35,308.55 348.09,307.43 359.79,304.27 375.3,298.21 388.37,290.98 397.87,283.24 405.76,273.59 411.05,264.34 415.66,266.11 422.24,266.5 428.65,263.51 432.14,257.68 432.18,257.46 435.17,258.69 443.91,259.84 452.41,259.52 459.25,257.75 466.49,253.72 472.43,247.6 475.13,241.37 475.52,235.72 474.52,230.29 470.77,224.38 465.59,220.64 464.98,216.28 460.91,208.47 451.26,198.17 442.84,192.81 434.91,190.11 422.82,188.34 413.86,188.09 414.25,187.59 417.1,180.79 417.53,175.1 415.55,169.55 409.57,163.57 401.58,159.4 395.53,157.96 387.68,158.32 380.99,160.55 380.41,158.54 376.02,152.81 370.08,148.71 362.34,146.44 352.62,145.79 346.25,146.04 340.6,142.8 327.71,138.99 316.73,136.94 308.12,136.94 295.41,138.34 283.18,141.36 272.66,146.04 262.62,153.21 256.79,158.57 252,156.99 236.95,155.26 228.31,155.59 218.48,158.21 208.26,162.89 200.12,168.9 194.4,175.78 194.33,175.74 187.78,172.9 175.9,170.16 168.84,169.84 157.93,171.82 151.05,174.88 145.73,179.85 141.41,187.16 139.25,194.29 139.25,200.12 141.77,207.96 146.7,215.2 153.4,220.49 153.68,220.6 150.41,225.03 147.74,232.48 147.02,240.4 149.18,248.35 154.91,257.79 162.11,264.81 170.71,269.02 183.96,272.84 195.7,273.99 206.85,273.16 209.34,272.51 211.14,275.18 217.33,279.24 225.07,281.04 228.49,280.97 " transform="matrix(2.1152085e-3,0,0,-2.1152091e-3,-0.1471499,0.9734649)"/>
  <polygon id="polygon126" style="font-style:normal;font-variant:normal;font-weight:normal;font-stretch:normal;letter-spacing:normal;word-spacing:normal;text-anchor:start;fill:#0000a4;fill-opacity:1;stroke:#0f2bff;stroke-width:0;stroke-linecap:butt;stroke-linejoin:miter;stroke-miterlimit:10.43299961;stroke-dasharray:none;stroke-dashoffset:0;stroke-opacity:1" points="232.13,276.54 233.35,283.78 236.48,290.84 241.45,297.46 247.46,302.57 255.13,306.17 267.45,309.63 278.75,310.96 288.36,309.91 296.64,307.21 304.31,303 304.88,302.57 317.52,303.9 336.17,304.23 347.29,303.15 358.41,300.16 373.46,294.29 385.92,287.38 394.81,280.14 402.16,271.14 407.59,261.68 408.78,258.83 416.59,261.82 421.41,262.11 425.63,260.16 428.04,256.1 428.94,251.45 436.29,254.44 444.13,255.52 451.77,255.2 457.63,253.72 463.79,250.27 468.76,245.15 470.88,240.33 471.17,235.97 470.41,231.9 467.57,227.4 461.55,223.05 460.8,217.61 457.34,211.02 448.49,201.55 440.96,196.73 433.91,194.32 422.46,192.66 411.34,192.38 405.32,192.66 410.44,185.46 412.85,179.74 413.14,175.67 411.8,171.93 406.98,167.1 400.07,163.5 395.1,162.32 388.48,162.6 380.81,165.16 378.11,166.35 376.45,160.52 373,155.98 368.21,152.67 361.59,150.72 352.55,150.11 345.2,150.44 338.87,146.84 326.7,143.2 316.33,141.26 308.34,141.26 296.17,142.62 284.58,145.47 274.82,149.82 265.36,156.59 257.83,163.5 251.06,161.23 236.81,159.58 228.96,159.9 219.96,162.32 210.49,166.67 203.11,172.07 197.1,179.31 195.45,182.44 191.99,179.45 186.41,177.04 175.32,174.48 169.13,174.2 159.23,176 153.5,178.55 149.15,182.59 145.4,188.92 143.57,194.93 143.57,199.43 145.69,206.05 149.9,212.21 155.59,216.71 162.36,219.45 157.71,222.44 154.26,227.08 151.99,233.42 151.38,240 153.21,246.63 158.33,255.05 164.63,261.21 172.3,264.99 184.79,268.59 195.73,269.63 206.14,268.88 211.25,267.54 214.23,272.04 219.06,275.21 225.5,276.69 232.13,276.54 " transform="matrix(2.1152085e-3,0,0,-2.1152091e-3,-0.14715,0.9734649)"/>
  <polygon id="polygon128" style="font-style:normal;font-variant:normal;font-weight:normal;font-stretch:normal;letter-spacing:normal;word-spacing:normal;text-anchor:start;fill:none;fill-opacity:1;stroke:#0000a4;stroke-width:0.036;stroke-linecap:butt;stroke-linejoin:miter;stroke-miterlimit:10.43299961;stroke-dasharray:none;stroke-dashoffset:0;stroke-opacity:1" points="232.13,276.54 233.35,283.78 236.48,290.84 241.45,297.46 247.46,302.57 255.13,306.17 267.45,309.63 278.75,310.96 288.36,309.91 296.64,307.21 304.31,303 304.88,302.57 317.52,303.9 336.17,304.23 347.29,303.15 358.41,300.16 373.46,294.29 385.92,287.38 394.81,280.14 402.16,271.14 407.59,261.68 408.78,258.83 416.59,261.82 421.41,262.11 425.63,260.16 428.04,256.1 428.94,251.45 436.29,254.44 444.13,255.52 451.77,255.2 457.63,253.72 463.79,250.27 468.76,245.15 470.88,240.33 471.17,235.97 470.41,231.9 467.57,227.4 461.55,223.05 460.8,217.61 457.34,211.02 448.49,201.55 440.96,196.73 433.91,194.32 422.46,192.66 411.34,192.38 405.32,192.66 410.44,185.46 412.85,179.74 413.14,175.67 411.8,171.93 406.98,167.1 400.07,163.5 395.1,162.32 388.48,162.6 380.81,165.16 378.11,166.35 376.45,160.52 373,155.98 368.21,152.67 361.59,150.72 352.55,150.11 345.2,150.44 338.87,146.84 326.7,143.2 316.33,141.26 308.34,141.26 296.17,142.62 284.58,145.47 274.82,149.82 265.36,156.59 257.83,163.5 251.06,161.23 236.81,159.58 228.96,159.9 219.96,162.32 210.49,166.67 203.11,172.07 197.1,179.31 195.45,182.44 191.99,179.45 186.41,177.04 175.32,174.48 169.13,174.2 159.23,176 153.5,178.55 149.15,182.59 145.4,188.92 143.57,194.93 143.57,199.43 145.69,206.05 149.9,212.21 155.59,216.71 162.36,219.45 157.71,222.44 154.26,227.08 151.99,233.42 151.38,240 153.21,246.63 158.33,255.05 164.63,261.21 172.3,264.99 184.79,268.59 195.73,269.63 206.14,268.88 211.25,267.54 214.23,272.04 219.06,275.21 225.5,276.69 232.13,276.54 " transform="matrix(2.1152085e-3,0,0,-2.1152091e-3,-0.1471499,0.9734649)"/>
  <polygon id="polygon130" style="font-style:normal;font-variant:normal;font-weight:normal;font-stretch:normal;letter-spacing:normal;word-spacing:normal;text-anchor:start;fill:#00007f;fill-opacity:1;stroke:#00007f;stroke-width:0;stroke-linecap:butt;stroke-linejoin:miter;stroke-miterlimit:10.43299961;stroke-dasharray:none;stroke-dashoffset:0;stroke-opacity:1" points="180.79,348.72 256.18,297.21 229.54,283.74 302.44,236.3 272.99,223.19 345.53,175.49 315.86,162.35 422.14,99.641 424.77,103.6 368.68,160.48 384.05,160.48 326.38,221.29 340.88,221.29 281.41,282.38 296.43,282.38 233.6,348.72 180.79,348.72 " transform="matrix(2.1152085e-3,0,0,-2.1152091e-3,-0.1471499,0.9734649)"/>
  <polygon id="polygon132" style="font-style:normal;font-variant:normal;font-weight:normal;font-stretch:normal;letter-spacing:normal;word-spacing:normal;text-anchor:start;fill:none;fill-opacity:1;stroke:#00007f;stroke-width:0.036;stroke-linecap:butt;stroke-linejoin:miter;stroke-miterlimit:10.43299961;stroke-dasharray:none;stroke-dashoffset:0;stroke-opacity:1" points="180.79,348.72 256.18,297.21 229.54,283.74 302.44,236.3 272.99,223.19 345.53,175.49 315.86,162.35 422.14,99.641 424.77,103.6 368.68,160.48 384.05,160.48 326.38,221.29 340.88,221.29 281.41,282.38 296.43,282.38 233.6,348.72 180.79,348.72 " transform="matrix(2.1152085e-3,0,0,-2.1152091e-3,-0.1471499,0.9734649)"/>
  <polygon id="polygon134" style="font-style:normal;font-variant:normal;font-weight:normal;font-stretch:normal;letter-spacing:normal;word-spacing:normal;text-anchor:start;fill:#ffffff;fill-opacity:1;stroke:#ffffff;stroke-width:0;stroke-linecap:butt;stroke-linejoin:miter;stroke-miterlimit:10.43299961;stroke-dasharray:none;stroke-dashoffset:0;stroke-opacity:1" points="194.83,344.37 264.71,296.67 238.18,283.28 311.51,235.54 281.99,222.44 354.56,174.73 325.33,161.81 411.3,111.09 358.31,164.8 373.97,164.8 316.3,225.6 330.62,225.6 271.15,286.73 286.34,286.73 231.73,344.37 194.83,344.37 " transform="matrix(2.1152085e-3,0,0,-2.1152091e-3,-0.1471499,0.9734649)"/>
  <polygon id="polygon136" style="font-style:normal;font-variant:normal;font-weight:normal;font-stretch:normal;letter-spacing:normal;word-spacing:normal;text-anchor:start;fill:none;fill-opacity:1;stroke:#ffffff;stroke-width:0.036;stroke-linecap:butt;stroke-linejoin:miter;stroke-miterlimit:10.43299961;stroke-dasharray:none;stroke-dashoffset:0;stroke-opacity:1" points="194.83,344.37 264.71,296.67 238.18,283.28 311.51,235.54 281.99,222.44 354.56,174.73 325.33,161.81 411.3,111.09 358.31,164.8 373.97,164.8 316.3,225.6 330.62,225.6 271.15,286.73 286.34,286.73 231.73,344.37 194.83,344.37 " transform="matrix(2.1152085e-3,0,0,-2.1152091e-3,-0.1471499,0.9734649)"/>
  <path id="path140" style="font-style:normal;font-variant:normal;font-weight:normal;font-stretch:normal;letter-spacing:normal;word-spacing:normal;text-anchor:start;fill:#ff0000;fill-opacity:1;stroke:#ff0000;stroke-width:0;stroke-linecap:butt;stroke-linejoin:miter;stroke-miterlimit:10.43299961;stroke-dashoffset:0;stroke-opacity:1" d="M 0.07443937,0.59480017 L 0.072345312,0.59507515 L 0.070314707,0.59532898 L 0.068368718,0.59558281 L 0.066486181,0.59581548 L 0.064667096,0.59600583 L 0.062911477,0.5961962 L 0.061232005,0.59636543 L 0.059626562,0.5965135 L 0.058090918,0.59666157 L 0.057350589,0.59670387 L 0.056627196,0.59676732 L 0.055922833,0.59680961 L 0.055237502,0.59685192 L 0.054569093,0.59687309 L 0.053919728,0.59691539 L 0.053287285,0.59693654 L 0.052673873,0.59695769 L 0.052079492,0.59695769 L 0.051502046,0.59697884 L 0.05094574,0.59697884 L 0.050406369,0.59695769 L 0.049883908,0.59695769 L 0.04938261,0.59693654 C 0.043978248,0.59693654 0.039790132,0.59609046 0.036517913,0.59465211 C 0.032023086,0.59251575 0.028370126,0.58932179 0.025785334,0.58536635 C 0.023115951,0.58124168 0.021438587,0.57605941 0.020605187,0.56990416 C 0.019687196,0.56372775 0.019993896,0.55831282 0.021438587,0.55374397 C 0.022811359,0.54911166 0.025478635,0.54515622 0.029279662,0.54196225 C 0.032023086,0.53950859 0.03598065,0.53754146 0.041012727,0.53608196 C 0.046184407,0.53449557 0.05441469,0.53297261 0.065767014,0.53144965 C 0.077104526,0.52992671 0.08539614,0.52916523 0.090726476,0.5293133 C 0.096056799,0.5293133 0.10041412,0.53013824 0.10375615,0.5317458 C 0.10824039,0.53381869 0.11175164,0.53692805 0.11448026,0.54103157 C 0.11723003,0.54500815 0.11892219,0.55016926 0.11974713,0.55634567 C 0.12057206,0.56250093 0.12036054,0.56791588 0.11883759,0.57256932 C 0.11723003,0.57713818 0.11473409,0.58124168 0.11090556,0.58443566 C 0.10817694,0.58672008 0.10436956,0.58862377 0.099187309,0.59016787 C 0.094174262,0.59175427 0.08577688,0.59327723 0.07443937,0.59480017 L 0.07443937,0.59480017 z M 0.077929458,0.55329978 L 0.073656739,0.5536382 L 0.069362869,0.5539978 L 0.065068987,0.55435738 L 0.060734924,0.55473812 C 0.050224454,0.5555842 0.043756151,0.55681102 0.041467496,0.55839743 C 0.039030772,0.55985693 0.037964712,0.56250093 0.038269304,0.56594871 C 0.038576004,0.56929074 0.040020696,0.57165978 0.042607595,0.57263278 C 0.045276991,0.57385961 0.051901817,0.57394421 0.062255763,0.57309812 C 0.067966827,0.57263278 0.07367789,0.57218859 0.079473556,0.57165978 C 0.089753474,0.57072909 0.096141401,0.56958689 0.098658501,0.56800047 C 0.10123905,0.56647753 0.10231781,0.56396042 0.10200053,0.56044917 C 0.1017044,0.55702255 0.10024491,0.55473812 0.097579746,0.55368051 C 0.094914578,0.55253829 0.088293979,0.55245369 0.077929458,0.55329978 L 0.077929458,0.55329978 z "/>
  <path id="path142" style="font-style:normal;font-variant:normal;font-weight:normal;font-stretch:normal;letter-spacing:normal;word-spacing:normal;text-anchor:start;fill:none;fill-opacity:1;stroke:#ff0000;stroke-width:0.00007615;stroke-linecap:butt;stroke-linejoin:miter;stroke-miterlimit:10.43299961;stroke-dashoffset:0;stroke-opacity:1" d="M 0.077929458,0.55330042 L 0.073656739,0.55363883 L 0.069362869,0.55399843 L 0.065068987,0.55435802 L 0.060734924,0.55473875 C 0.050224454,0.55558483 0.043756151,0.55681165 0.041467496,0.55839806 C 0.039030772,0.55985756 0.037964712,0.56250156 0.038269304,0.56594935 C 0.038576004,0.56929138 0.040020696,0.57166042 0.042607595,0.57263341 C 0.045276991,0.57386025 0.051901817,0.57394484 0.062255763,0.57309876 C 0.067966827,0.57263341 0.07367789,0.57218922 0.079473556,0.57166042 C 0.089753474,0.57072972 0.096141401,0.56958753 0.098658501,0.56800111 C 0.10123905,0.56647816 0.10231781,0.56396105 0.10200053,0.5604498 C 0.1017044,0.55702318 0.10024491,0.55473875 0.097579746,0.55368114 C 0.094914578,0.55253892 0.088293979,0.55245432 0.077929458,0.55330042 L 0.077929458,0.55330042 z M 0.07443937,0.5948008 L 0.072345312,0.59507579 L 0.070314707,0.59532961 L 0.068368718,0.59558344 L 0.066486181,0.59581611 L 0.064667096,0.59600647 L 0.062911477,0.59619684 L 0.061232005,0.59636607 L 0.059626562,0.59651414 L 0.058090918,0.59666221 L 0.057350589,0.5967045 L 0.056627196,0.59676795 L 0.055922833,0.59681025 L 0.055237502,0.59685255 L 0.054569093,0.59687372 L 0.053919728,0.59691602 L 0.053287285,0.59693717 L 0.052673873,0.59695833 L 0.052079492,0.59695833 L 0.051502046,0.59697948 L 0.05094574,0.59697948 L 0.050406369,0.59695833 L 0.049883908,0.59695833 L 0.04938261,0.59693717 C 0.043978248,0.59693717 0.039790132,0.59609109 0.036517913,0.59465274 C 0.032023086,0.59251638 0.028370126,0.58932242 0.025785334,0.58536698 C 0.023115951,0.58124231 0.021438587,0.57606005 0.020605187,0.5699048 C 0.019687196,0.56372839 0.019993896,0.55831345 0.021438587,0.55374461 C 0.022811359,0.54911229 0.025478635,0.54515685 0.029279662,0.54196288 C 0.032023086,0.53950923 0.03598065,0.53754209 0.041012727,0.53608259 C 0.046184407,0.5344962 0.05441469,0.53297324 0.065767014,0.53145029 C 0.077104526,0.52992734 0.08539614,0.52916586 0.090726476,0.52931393 C 0.096056799,0.52931393 0.10041412,0.53013887 0.10375615,0.53174644 C 0.10824039,0.53381933 0.11175164,0.53692868 0.11448026,0.5410322 C 0.11723003,0.54500878 0.11892219,0.55016989 0.11974713,0.5563463 C 0.12057206,0.56250156 0.12036054,0.56791651 0.11883759,0.57256996 C 0.11723003,0.57713881 0.11473409,0.58124231 0.11090556,0.58443629 C 0.10817694,0.58672071 0.10436956,0.5886244 0.099187309,0.59016851 C 0.094174262,0.59175491 0.08577688,0.59327786 0.07443937,0.5948008 L 0.07443937,0.5948008 z "/>
  <path id="path148" style="font-style:normal;font-variant:normal;font-weight:normal;font-stretch:normal;letter-spacing:normal;word-spacing:normal;text-anchor:start;fill:#ff0000;fill-opacity:1;stroke:#ff0000;stroke-width:0;stroke-linecap:butt;stroke-linejoin:miter;stroke-miterlimit:10.43299961;stroke-dashoffset:0;stroke-opacity:1" d="M 0.12844064,0.40586971 L 0.086834484,0.38036028 L 0.045202951,0.35478739 C 0.048094442,0.34649579 0.050985934,0.33809839 0.053951453,0.32972217 C 0.086242223,0.33369875 0.11854147,0.33773881 0.15081956,0.3417577 C 0.14836591,0.34875906 0.14593343,0.35578154 0.14350092,0.36284634 C 0.13749374,0.36178874 0.13140193,0.36064652 0.12531012,0.35950429 C 0.12340644,0.3649827 0.12150275,0.37048224 0.11951445,0.3760241 C 0.1249294,0.37892194 0.13040778,0.38181977 0.13588617,0.3847176 C 0.13345369,0.39171895 0.13093659,0.3988049 0.12844064,0.40586971 z M 0.10018145,0.367944 L 0.10077371,0.36648449 L 0.10138712,0.36502502 L 0.10263509,0.36208487 L 0.10388307,0.35912358 L 0.10513104,0.35616228 C 0.091572559,0.35273565 0.077929458,0.34928786 0.064313867,0.34579776 C 0.076258442,0.35317982 0.088230527,0.36056191 0.10018145,0.367944 z "/>
  <path id="path150" style="font-style:normal;font-variant:normal;font-weight:normal;font-stretch:normal;letter-spacing:normal;word-spacing:normal;text-anchor:start;fill:none;fill-opacity:1;stroke:#ff0000;stroke-width:0.00007615;stroke-linecap:butt;stroke-linejoin:miter;stroke-miterlimit:10.43299961;stroke-dashoffset:0;stroke-opacity:1" d="M 0.10018162,0.36794444 L 0.10077388,0.36648494 L 0.10138729,0.36502546 L 0.10263526,0.36208531 L 0.10388324,0.35912402 L 0.10513121,0.35616272 C 0.091572728,0.35273609 0.077929627,0.3492883 0.064314036,0.3457982 C 0.076258611,0.35318027 0.088230696,0.36056235 0.10018162,0.36794444 z M 0.12844082,0.40587015 L 0.086834653,0.38036072 L 0.045203119,0.35478783 C 0.048094611,0.34649623 0.050986103,0.33809883 0.053951622,0.32972261 C 0.086242392,0.3336992 0.11854164,0.33773925 0.15081973,0.34175814 C 0.14836608,0.3487595 0.1459336,0.35578198 0.1435011,0.36284678 C 0.13749391,0.36178918 0.1314021,0.36064696 0.12531029,0.35950474 C 0.12340661,0.36498314 0.12150292,0.37048268 0.11951463,0.37602454 C 0.12492957,0.37892238 0.13040795,0.38182022 0.13588635,0.38471804 C 0.13345386,0.39171939 0.13093676,0.39880534 0.12844082,0.40587015 z "/>
  <path id="path156" style="font-style:normal;font-variant:normal;font-weight:normal;font-stretch:normal;letter-spacing:normal;word-spacing:normal;text-anchor:start;fill:#ff0000;fill-opacity:1;stroke:#ff0000;stroke-width:0;stroke-linecap:butt;stroke-linejoin:miter;stroke-miterlimit:10.43299961;stroke-dashoffset:0;stroke-opacity:1" d="M 0.24355029,0.792936 L 0.15949191,0.84273436 C 0.15348471,0.83634014 0.14747752,0.82986974 0.14144916,0.82339289 C 0.1600207,0.79674559 0.17861338,0.77001569 0.19726953,0.74328785 C 0.20228257,0.7486817 0.20740138,0.75409661 0.21249902,0.759575 C 0.20869165,0.76438074 0.20488428,0.76925627 0.2009923,0.77413183 C 0.20494774,0.77839393 0.20892432,0.78265821 0.21294322,0.78692249 C 0.21797741,0.78349377 0.22307507,0.77998888 0.22819388,0.77648609 C 0.23327038,0.78197287 0.23838919,0.78745126 0.24355029,0.792936 z M 0.19695225,0.7989517 L 0.19593695,0.79775026 L 0.1949005,0.79654042 L 0.19280644,0.79410782 L 0.19069123,0.79166061 L 0.18857602,0.78920268 C 0.17943832,0.79978725 0.17032177,0.81037169 0.16109946,0.82103876 C 0.1730504,0.81372428 0.18500131,0.80633806 0.19695225,0.7989517 z "/>
  <path id="path158" style="font-style:normal;font-variant:normal;font-weight:normal;font-stretch:normal;letter-spacing:normal;word-spacing:normal;text-anchor:start;fill:none;fill-opacity:1;stroke:#ff0000;stroke-width:0.00007615;stroke-linecap:butt;stroke-linejoin:miter;stroke-miterlimit:10.43299961;stroke-dashoffset:0;stroke-opacity:1" d="M 0.19695225,0.79895151 L 0.19593695,0.79775007 L 0.1949005,0.79654019 L 0.19280644,0.79410764 L 0.19069123,0.79166041 L 0.18857602,0.78920243 C 0.17943832,0.799787 0.17032177,0.81037148 0.16109946,0.82103852 C 0.1730504,0.81372409 0.18500131,0.80633785 0.19695225,0.79895151 z M 0.24355029,0.79293577 L 0.15949191,0.84273414 C 0.15348471,0.83633996 0.14747752,0.82986956 0.14144916,0.82339264 C 0.1600207,0.79674534 0.17861338,0.77001548 0.19726953,0.74328764 C 0.20228257,0.7486815 0.20740138,0.75409638 0.21249902,0.75957481 C 0.20869165,0.76438057 0.20488428,0.76925602 0.2009923,0.77413158 C 0.20494774,0.77839369 0.20892432,0.78265801 0.21294322,0.78692223 C 0.21797741,0.78349359 0.22307507,0.77998863 0.22819388,0.77648588 C 0.23327038,0.78197267 0.23838919,0.787451 0.24355029,0.79293577 z "/>
  <path id="path164" style="font-style:normal;font-variant:normal;font-weight:normal;font-stretch:normal;letter-spacing:normal;word-spacing:normal;text-anchor:start;fill:#ff0000;fill-opacity:1;stroke:#ff0000;stroke-width:0;stroke-linecap:butt;stroke-linejoin:miter;stroke-miterlimit:10.43299961;stroke-dashoffset:0;stroke-opacity:1" d="M 0.42844067,0.1257314 L 0.43432095,0.077293107 L 0.44024353,0.028791366 C 0.44900049,0.027966433 0.45784207,0.027120349 0.46668364,0.026274266 C 0.4764136,0.057283236 0.48624932,0.088334492 0.49606389,0.11940691 C 0.48868181,0.12008379 0.48129973,0.12078181 0.47383304,0.12145867 C 0.47237354,0.11551494 0.47087176,0.10959235 0.46934881,0.103564 C 0.46355312,0.10411396 0.45775745,0.10464276 0.45189833,0.10517156 C 0.4516022,0.11132683 0.45122146,0.11750323 0.45084073,0.12367965 C 0.44337404,0.12435651 0.43590736,0.12503338 0.42844067,0.1257314 z M 0.45426736,0.085077082 L 0.45746132,0.084950162 L 0.46065529,0.084823252 L 0.46384926,0.084696342 L 0.46706437,0.084527122 C 0.46439921,0.070841725 0.46164944,0.057050564 0.45889967,0.043259391 C 0.45737672,0.057198619 0.45587492,0.07113785 0.45426736,0.085077082 z "/>
  <path id="path166" style="font-style:normal;font-variant:normal;font-weight:normal;font-stretch:normal;letter-spacing:normal;word-spacing:normal;text-anchor:start;fill:none;fill-opacity:1;stroke:#ff0000;stroke-width:0.00007615;stroke-linecap:butt;stroke-linejoin:miter;stroke-miterlimit:10.43299961;stroke-dashoffset:0;stroke-opacity:1" d="M 0.45426736,0.085076812 L 0.45746132,0.084949892 L 0.46065529,0.084822982 L 0.46384926,0.084696072 L 0.46706437,0.084526852 C 0.46439921,0.070841454 0.46164944,0.057050293 0.45889967,0.043259116 C 0.45737672,0.057198345 0.45587492,0.07113758 0.45426736,0.085076812 z M 0.42844067,0.12573148 L 0.43432095,0.07729318 L 0.44024353,0.028791436 C 0.44900049,0.027966508 0.45784207,0.027120422 0.46668364,0.026274335 C 0.4764136,0.057283305 0.48624932,0.088334572 0.49606389,0.11940699 C 0.48868181,0.12008387 0.48129973,0.12078189 0.47383304,0.12145875 C 0.47237354,0.11551501 0.47087176,0.10959242 0.46934881,0.10356407 C 0.46355312,0.10411403 0.45775745,0.10464283 0.45189833,0.10517164 C 0.4516022,0.1113269 0.45122146,0.11750331 0.45084073,0.12367973 C 0.44337404,0.12435659 0.43590736,0.12503345 0.42844067,0.12573148 z "/>
  <path id="path170" style="font-style:normal;font-variant:normal;font-weight:normal;font-stretch:normal;letter-spacing:normal;word-spacing:normal;text-anchor:start;fill:#ff0000;fill-opacity:1;stroke:#ff0000;stroke-width:0;stroke-linecap:butt;stroke-linejoin:miter;stroke-miterlimit:10.43299961;stroke-dashoffset:0;stroke-opacity:1" d="M 0.82252516,0.20234426 L 0.82256746,0.20238657 L 0.82260978,0.20245003 L 0.82265208,0.20251348 L 0.82271553,0.20257695 L 0.82275783,0.20264039 L 0.8228213,0.20272501 L 0.82286361,0.20278845 L 0.82292705,0.20285191 L 0.82299051,0.20293652 L 0.82305397,0.20302114 L 0.82309627,0.20310573 L 0.82315972,0.20319035 L 0.82320203,0.20327495 L 0.82326549,0.20335957 L 0.82328664,0.20340187 L 0.82330779,0.20346533 L 0.82332895,0.20350763 L 0.8233501,0.20354994 C 0.82373083,0.20401528 0.82402695,0.20439602 0.82417502,0.20462869 C 0.82707286,0.20811879 0.82988609,0.21010708 0.8325724,0.21031861 C 0.83523756,0.21063589 0.83828347,0.20943021 0.84171011,0.20659583 C 0.84481947,0.20401528 0.84642701,0.20141358 0.84657508,0.19874841 C 0.84665969,0.19623133 0.84520021,0.19320657 0.84232353,0.18963187 C 0.8421543,0.18946265 0.84185818,0.18908192 0.84139282,0.18855311 C 0.84101209,0.18825698 0.84071596,0.18787625 0.84039868,0.18755897 C 0.83445494,0.19244511 0.82853236,0.19739469 0.82252516,0.20234426 z M 0.76471715,0.2244905 L 0.80023151,0.19269893 L 0.835767,0.16084387 C 0.84133,0.16699913 0.84689304,0.173239 0.8525195,0.17950002 C 0.8580613,0.18565529 0.86172063,0.19039335 0.86362431,0.19358731 C 0.86554911,0.19684473 0.86660674,0.19997524 0.86675477,0.20293652 C 0.8669029,0.20651122 0.866226,0.20987441 0.86461848,0.21300492 C 0.86309554,0.21619889 0.86074767,0.21924478 0.85732094,0.22229069 C 0.8531963,0.22595 0.84915624,0.22823444 0.84505278,0.2293555 C 0.84101272,0.23034964 0.83682461,0.2302862 0.83234037,0.2288267 C 0.8346248,0.23599723 0.83172696,0.24352739 0.82343534,0.25145943 C 0.82328727,0.25160748 0.82328727,0.25160748 0.82311805,0.2516921 C 0.82229313,0.25243242 0.8210663,0.2537227 0.81939529,0.2552668 C 0.81154786,0.26250081 0.80759242,0.26835995 0.80788856,0.27269612 C 0.80211404,0.26622358 0.79631837,0.25975106 0.79045924,0.2531939 C 0.79160145,0.25152289 0.79280713,0.24976726 0.79426662,0.24818086 C 0.79562034,0.24650984 0.79737597,0.24481767 0.79913159,0.24323126 C 0.80027381,0.24217366 0.80173329,0.24094683 0.80340431,0.23957194 C 0.80513879,0.23819706 0.80613293,0.23728752 0.80659828,0.23682217 C 0.81093445,0.23295134 0.81353616,0.22967279 0.81406496,0.22709221 C 0.81465722,0.22457511 0.81353616,0.22176189 0.81093445,0.21886406 C 0.80994031,0.21772184 0.80896731,0.21657963 0.80788856,0.21543741 C 0.79845473,0.2238771 0.78893628,0.23242254 0.77941783,0.24094683 C 0.77453171,0.23546844 0.76966673,0.22996891 0.76471715,0.2244905 z "/>
  <path id="path174" style="font-style:normal;font-variant:normal;font-weight:normal;font-stretch:normal;letter-spacing:normal;word-spacing:normal;text-anchor:start;fill:none;fill-opacity:1;stroke:#ff0000;stroke-width:0.00007615;stroke-linecap:butt;stroke-linejoin:miter;stroke-miterlimit:10.43299961;stroke-dasharray:none;stroke-dashoffset:0;stroke-opacity:1" d="M 0.82252516,0.20234426 L 0.82256746,0.20238657 L 0.82260978,0.20245003 L 0.82265208,0.20251348 L 0.82271553,0.20257695 L 0.82275783,0.20264039 L 0.8228213,0.20272501 L 0.82286361,0.20278845 L 0.82292705,0.20285191 L 0.82299051,0.20293652 L 0.82305397,0.20302114 L 0.82309627,0.20310573 L 0.82315972,0.20319035 L 0.82320203,0.20327495 L 0.82326549,0.20335957 L 0.82328664,0.20340187 L 0.82330779,0.20346533 L 0.82332895,0.20350763 L 0.8233501,0.20354994 C 0.82373083,0.20401528 0.82402695,0.20439602 0.82417502,0.20462869 C 0.82707286,0.20811879 0.82988609,0.21010708 0.8325724,0.21031861 C 0.83523756,0.21063589 0.83828347,0.20943021 0.84171011,0.20659583 C 0.84481947,0.20401528 0.84642701,0.20141358 0.84657508,0.19874841 C 0.84665969,0.19623133 0.84520021,0.19320657 0.84232353,0.18963187 C 0.8421543,0.18946265 0.84185818,0.18908192 0.84139282,0.18855311 C 0.84101209,0.18825698 0.84071596,0.18787625 0.84039868,0.18755897 C 0.83445494,0.19244511 0.82853236,0.19739469 0.82252516,0.20234426 z "/>
  <path id="path176" style="font-style:normal;font-variant:normal;font-weight:normal;font-stretch:normal;letter-spacing:normal;word-spacing:normal;text-anchor:start;fill:none;fill-opacity:1;stroke:#ff0000;stroke-width:0.00007615;stroke-linecap:butt;stroke-linejoin:miter;stroke-miterlimit:10.43299961;stroke-dasharray:none;stroke-dashoffset:0;stroke-opacity:1" d="M 0.76471652,0.2244905 L 0.80023088,0.19269893 L 0.83576637,0.16084387 C 0.84132937,0.16699913 0.84689236,0.173239 0.85251882,0.17950002 C 0.85806066,0.18565529 0.86171998,0.19039335 0.86362367,0.19358731 C 0.86554851,0.19684473 0.86660611,0.19997524 0.86675416,0.20293652 C 0.86690224,0.20651122 0.86622538,0.20987441 0.86461781,0.21300492 C 0.86309487,0.21619889 0.86074698,0.21924478 0.85732034,0.22229069 C 0.85319568,0.22595 0.84915564,0.22823444 0.84505214,0.2293555 C 0.84101209,0.23034964 0.83682397,0.2302862 0.83233974,0.2288267 C 0.83462416,0.23599723 0.83172633,0.24352739 0.82343471,0.25145943 C 0.82328664,0.25160748 0.82328664,0.25160748 0.82311742,0.2516921 C 0.82229249,0.25243242 0.82106567,0.2537227 0.81939466,0.2552668 C 0.81154723,0.26250081 0.80759179,0.26835995 0.80788792,0.27269612 C 0.80211341,0.26622358 0.79631773,0.25975106 0.7904586,0.2531939 C 0.79160082,0.25152289 0.79280649,0.24976726 0.79426598,0.24818086 C 0.79561971,0.24650984 0.79737534,0.24481767 0.79913096,0.24323126 C 0.80027317,0.24217366 0.80173266,0.24094683 0.80340368,0.23957194 C 0.80513816,0.23819706 0.80613229,0.23728752 0.80659764,0.23682217 C 0.81093382,0.23295134 0.81353553,0.22967279 0.81406432,0.22709221 C 0.81465658,0.22457511 0.81353553,0.22176189 0.81093382,0.21886406 C 0.80993967,0.21772184 0.80896667,0.21657963 0.80788792,0.21543741 C 0.7984541,0.2238771 0.78893565,0.23242254 0.7794172,0.24094683 C 0.77453108,0.23546844 0.7696661,0.22996891 0.76471652,0.2244905 z "/>
  <path id="path180" style="font-style:normal;font-variant:normal;font-weight:normal;font-stretch:normal;letter-spacing:normal;word-spacing:normal;text-anchor:start;fill:#ff0000;fill-opacity:1;stroke:#ff0000;stroke-width:0;stroke-linecap:butt;stroke-linejoin:miter;stroke-miterlimit:10.43299961;stroke-dashoffset:0;stroke-opacity:1" d="M 0.88526225,0.520789 L 0.93255831,0.52677505 L 0.97991783,0.53282456 C 0.97883908,0.54111616 0.97778147,0.54940779 0.97670271,0.55778402 C 0.97570856,0.56594871 0.9745875,0.57180785 0.97336068,0.57538256 C 0.97213387,0.57895725 0.97046285,0.58177048 0.96826302,0.58384339 C 0.96566133,0.58627588 0.96276349,0.58794689 0.95935801,0.58879298 C 0.95584677,0.58976598 0.95203939,0.5899352 0.94747053,0.58932179 C 0.94207675,0.58862377 0.9376348,0.58703736 0.93414472,0.58466833 C 0.93071808,0.58229929 0.92805292,0.57904187 0.92623385,0.57470569 C 0.92234185,0.58117822 0.91464249,0.58384339 0.90330498,0.58276464 C 0.90300885,0.58276464 0.90300885,0.58276464 0.90292423,0.58276464 C 0.90178203,0.58261657 0.9000264,0.58253197 0.89774198,0.58223582 C 0.88716594,0.58100901 0.88016461,0.58185509 0.87703409,0.58498561 C 0.8780917,0.5763767 0.8792339,0.5676832 0.88039727,0.55901084 C 0.88244903,0.55877816 0.88450077,0.55854549 0.88670059,0.55854549 C 0.88883696,0.55854549 0.89126944,0.55869356 0.89363847,0.55901084 C 0.89516143,0.55924351 0.89706512,0.55947619 0.89920147,0.55985693 C 0.90131669,0.56030112 0.90269156,0.56044917 0.90330498,0.56053379 C 0.90910065,0.56129526 0.91320415,0.56106258 0.91555203,0.55977231 C 0.91792106,0.55854549 0.91929596,0.55588033 0.91974015,0.55200949 C 0.91990937,0.55055 0.92012088,0.54902704 0.92035356,0.54750409 C 0.90772577,0.5459177 0.89507682,0.54431013 0.88244903,0.54263912 C 0.88335857,0.5354051 0.8842681,0.52810762 0.88526225,0.520789 z M 0.94008845,0.5501058 L 0.9400673,0.55016926 L 0.94004616,0.55025386 L 0.94004616,0.55031733 L 0.940025,0.55040193 L 0.94000385,0.55048654 L 0.9399827,0.55055 L 0.9399827,0.55063461 L 0.93996154,0.55071921 L 0.93994039,0.55080382 L 0.93989808,0.55088842 L 0.93987693,0.55097304 L 0.93985578,0.55105765 L 0.93981348,0.55114225 L 0.93979233,0.55122686 L 0.93975001,0.55131147 L 0.93970771,0.55139608 C 0.93962311,0.5520941 0.93947504,0.55253829 0.93947504,0.55277097 C 0.93871358,0.55733983 0.9390097,0.56068185 0.94061726,0.56290282 C 0.9421402,0.56510264 0.94503803,0.56662558 0.94937422,0.56730245 C 0.95341426,0.56800047 0.95646016,0.5674505 0.95851192,0.56586412 C 0.96050022,0.56425655 0.96185395,0.56114721 0.96261543,0.55666295 C 0.96270003,0.55643028 0.96276349,0.55588033 0.9628481,0.55528807 C 0.9628481,0.55473812 0.9629327,0.55429392 0.9629327,0.55391319 C 0.95531795,0.55268636 0.9477032,0.55139608 0.94008845,0.5501058 z "/>
  <path id="path182" style="font-style:normal;font-variant:normal;font-weight:normal;font-stretch:normal;letter-spacing:normal;word-spacing:normal;text-anchor:start;fill:none;fill-opacity:1;stroke:#ff0000;stroke-width:0.00007615;stroke-linecap:butt;stroke-linejoin:miter;stroke-miterlimit:10.43299961;stroke-dashoffset:0;stroke-opacity:1" d="M 0.94008826,0.5501058 L 0.94006704,0.55016926 L 0.94004592,0.55025386 L 0.94004592,0.55031733 L 0.9400248,0.55040193 L 0.94000359,0.55048654 L 0.93998247,0.55055 L 0.93998247,0.55063461 L 0.93996135,0.55071921 L 0.93994013,0.55080382 L 0.93989789,0.55088842 L 0.93987668,0.55097304 L 0.93985556,0.55105765 L 0.93981322,0.55114225 L 0.9397921,0.55122686 L 0.93974976,0.55131147 L 0.93970752,0.55139608 C 0.93962285,0.5520941 0.93947482,0.55253829 0.93947482,0.55277097 C 0.93871335,0.55733983 0.93900951,0.56068185 0.94061703,0.56290282 C 0.94213997,0.56510264 0.94503783,0.56662558 0.94937396,0.56730245 C 0.95341402,0.56800047 0.95645991,0.5674505 0.95851172,0.56586412 C 0.96049997,0.56425655 0.96185377,0.56114721 0.96261524,0.55666295 C 0.96269981,0.55643028 0.96276327,0.55588033 0.96284785,0.55528807 C 0.96284785,0.55473812 0.96293252,0.55429392 0.96293252,0.55391319 C 0.9553177,0.55268636 0.94770298,0.55139608 0.94008826,0.5501058 z M 0.88526199,0.520789 L 0.93255812,0.52677505 L 0.97991761,0.53282456 C 0.97883885,0.54111616 0.97778122,0.54940779 0.97670247,0.55778402 C 0.97570839,0.56594871 0.9745873,0.57180785 0.97336042,0.57538256 C 0.97213364,0.57895725 0.97046266,0.58177048 0.96826282,0.58384339 C 0.96566113,0.58627588 0.96276327,0.58794689 0.95935777,0.58879298 C 0.95584657,0.58976598 0.95203921,0.5899352 0.94747028,0.58932179 C 0.94207652,0.58862377 0.9376346,0.58703736 0.93414452,0.58466833 C 0.93071789,0.58229929 0.92805274,0.57904187 0.92623364,0.57470569 C 0.9223416,0.58117822 0.91464231,0.58384339 0.9033048,0.58276464 C 0.90300864,0.58276464 0.90300864,0.58276464 0.90292397,0.58276464 C 0.90178186,0.58261657 0.90002621,0.58253197 0.89774179,0.58223582 C 0.88716576,0.58100901 0.88016439,0.58185509 0.87703383,0.58498561 C 0.87809146,0.5763767 0.87923367,0.5676832 0.88039709,0.55901084 C 0.8824488,0.55877816 0.88450051,0.55854549 0.88670035,0.55854549 C 0.88883674,0.55854549 0.89126919,0.55869356 0.89363827,0.55901084 C 0.89516122,0.55924351 0.8970649,0.55947619 0.89920128,0.55985693 C 0.90131645,0.56030112 0.90269136,0.56044917 0.9033048,0.56053379 C 0.90910042,0.56129526 0.91320394,0.56106258 0.91555181,0.55977231 C 0.9179208,0.55854549 0.91929572,0.55588033 0.91973991,0.55200949 C 0.91990916,0.55055 0.92012064,0.54902704 0.92035335,0.54750409 C 0.90772551,0.5459177 0.89507664,0.54431013 0.8824488,0.54263912 C 0.88335831,0.5354051 0.88426791,0.52810762 0.88526199,0.520789 z "/>
</svg>