<svg width="141" height="117" viewBox="0 0 141 117" fill="none" xmlns="http://www.w3.org/2000/svg">
<g opacity="0.2">
<path d="M10.3333 15.3992L31.1146 15.3992L24.905 9.49658C24.3847 9.00159 24.3844 8.1992 24.905 7.70436C25.4256 7.20953 26.2697 7.20978 26.7904 7.70436L35.2761 15.7706C35.7968 16.2655 35.7968 17.0678 35.2761 17.5628L26.7904 25.629C26.2697 26.1236 25.4256 26.1238 24.905 25.629C24.3844 25.1341 24.3847 24.3317 24.905 23.8368L31.1146 17.9341L10.3333 17.9341L10.3333 15.3992Z" fill="#EFF6FB"/>
<path d="M57.3333 15.3992L78.1146 15.3992L71.905 9.49658C71.3847 9.00159 71.3844 8.1992 71.905 7.70436C72.4256 7.20953 73.2697 7.20978 73.7904 7.70436L82.2761 15.7706C82.7968 16.2655 82.7968 17.0678 82.2761 17.5628L73.7904 25.629C73.2697 26.1236 72.4256 26.1238 71.905 25.629C71.3844 25.1341 71.3847 24.3317 71.905 23.8368L78.1146 17.9341L57.3333 17.9341L57.3333 15.3992Z" fill="#EFF6FB"/>
<path d="M104.333 15.3992L125.115 15.3992L118.905 9.49658C118.385 9.00159 118.384 8.1992 118.905 7.70436C119.426 7.20953 120.27 7.20978 120.79 7.70436L129.276 15.7706C129.797 16.2655 129.797 17.0678 129.276 17.5628L120.79 25.629C120.27 26.1236 119.426 26.1238 118.905 25.629C118.384 25.1341 118.385 24.3317 118.905 23.8368L125.115 17.9341L104.333 17.9341L104.333 15.3992Z" fill="#EFF6FB"/>
</g>
</svg>
