<svg width="141" height="117" viewBox="0 0 141 117" fill="none" xmlns="http://www.w3.org/2000/svg">
<g opacity="0.2">
<path d="M13.147 24.7272L27.8416 10.0325L19.2769 10.2496C18.5589 10.2675 17.9914 9.70032 18.0096 8.98233C18.0278 8.26433 18.6248 7.66762 19.3428 7.64913L31.0467 7.35249C31.7649 7.33428 32.3322 7.90159 32.314 8.61977L32.0174 20.3237C31.9989 21.0417 31.4022 21.6387 30.6842 21.6569C29.9662 21.6751 29.399 21.1076 29.4169 20.3896L29.634 11.8249L14.9394 26.5196L13.147 24.7272Z" fill="#EFF6FB"/>
<path d="M60.1471 24.7272L74.8417 10.0325L66.277 10.2496C65.5591 10.2675 64.9915 9.70032 65.0097 8.98233C65.0279 8.26433 65.625 7.66762 66.3429 7.64913L78.0469 7.35249C78.765 7.33428 79.3324 7.90159 79.3142 8.61977L79.0175 20.3237C78.999 21.0417 78.4023 21.6387 77.6843 21.6569C76.9663 21.6751 76.3991 21.1076 76.417 20.3896L76.6341 11.8249L61.9395 26.5196L60.1471 24.7272Z" fill="#EFF6FB"/>
<path d="M107.147 24.7272L121.842 10.0325L113.277 10.2496C112.559 10.2675 111.992 9.70032 112.01 8.98233C112.028 8.26433 112.625 7.66762 113.343 7.64913L125.047 7.35249C125.765 7.33428 126.332 7.90159 126.314 8.61977L126.018 20.3237C125.999 21.0417 125.402 21.6387 124.684 21.6569C123.966 21.6751 123.399 21.1076 123.417 20.3896L123.634 11.8249L108.939 26.5196L107.147 24.7272Z" fill="#EFF6FB"/>
</g>
</svg>
