<svg width="192" height="116" viewBox="0 0 192 116" fill="none" xmlns="http://www.w3.org/2000/svg">
<g opacity="0.2">
<path d="M106.667 15.3992L127.448 15.3992L121.238 9.49658C120.718 9.00159 120.718 8.1992 121.238 7.70436C121.759 7.20953 122.603 7.20978 123.124 7.70436L131.609 15.7706C132.13 16.2655 132.13 17.0678 131.609 17.5628L123.124 25.629C122.603 26.1236 121.759 26.1238 121.238 25.629C120.718 25.1341 120.718 24.3317 121.238 23.8368L127.448 17.9341L106.667 17.9341L106.667 15.3992Z" fill="#EFF6FB"/>
<path d="M58.6667 15.3992L79.448 15.3992L73.2384 9.49658C72.7181 9.00159 72.7178 8.1992 73.2384 7.70436C73.7589 7.20953 74.6031 7.20978 75.1238 7.70436L83.6095 15.7706C84.1302 16.2655 84.1302 17.0678 83.6095 17.5628L75.1238 25.629C74.6031 26.1236 73.7589 26.1238 73.2384 25.629C72.7178 25.1341 72.7181 24.3317 73.2384 23.8368L79.448 17.9341L58.6667 17.9341L58.6667 15.3992Z" fill="#EFF6FB"/>
<path d="M154.667 15.3992L175.448 15.3992L169.238 9.49658C168.718 9.00159 168.718 8.1992 169.238 7.70436C169.759 7.20953 170.603 7.20978 171.124 7.70436L179.609 15.7706C180.13 16.2655 180.13 17.0678 179.609 17.5628L171.124 25.629C170.603 26.1236 169.759 26.1238 169.238 25.629C168.718 25.1341 168.718 24.3317 169.238 23.8368L175.448 17.9341L154.667 17.9341L154.667 15.3992Z" fill="#EFF6FB"/>
<path d="M10.6667 15.3992L31.448 15.3992L25.2384 9.49658C24.7181 9.00159 24.7178 8.1992 25.2384 7.70436C25.7589 7.20953 26.6031 7.20978 27.1238 7.70436L35.6095 15.7706C36.1302 16.2655 36.1302 17.0678 35.6095 17.5628L27.1238 25.629C26.6031 26.1236 25.7589 26.1238 25.2384 25.629C24.7178 25.1341 24.7181 24.3317 25.2384 23.8368L31.448 17.9341L10.6667 17.9341L10.6667 15.3992Z" fill="#EFF6FB"/>
</g>
</svg>
