<svg width="192" height="116" viewBox="0 0 192 116" fill="none" xmlns="http://www.w3.org/2000/svg">
<g opacity="0.2">
<path d="M109.48 24.7272L124.175 10.0325L115.61 10.2496C114.892 10.2675 114.325 9.70032 114.343 8.98233C114.361 8.26433 114.958 7.66762 115.676 7.64913L127.38 7.35249C128.098 7.33428 128.666 7.90159 128.648 8.61977L128.351 20.3237C128.332 21.0417 127.736 21.6387 127.018 21.6569C126.3 21.6751 125.733 21.1076 125.75 20.3896L125.967 11.8249L111.273 26.5196L109.48 24.7272Z" fill="#EFF6FB"/>
<path d="M61.4805 24.7272L76.1751 10.0325L67.6104 10.2496C66.8924 10.2675 66.3249 9.70032 66.3431 8.98233C66.3613 8.26433 66.9583 7.66762 67.6763 7.64913L79.3802 7.35249C80.0984 7.33428 80.6657 7.90159 80.6475 8.61977L80.3509 20.3237C80.3324 21.0417 79.7357 21.6387 79.0177 21.6569C78.2997 21.6751 77.7325 21.1076 77.7504 20.3896L77.9675 11.8249L63.2729 26.5196L61.4805 24.7272Z" fill="#EFF6FB"/>
<path d="M157.48 24.7272L172.175 10.0325L163.61 10.2496C162.892 10.2675 162.325 9.70032 162.343 8.98233C162.361 8.26433 162.958 7.66762 163.676 7.64913L175.38 7.35249C176.098 7.33428 176.666 7.90159 176.648 8.61977L176.351 20.3237C176.332 21.0417 175.736 21.6387 175.018 21.6569C174.3 21.6751 173.733 21.1076 173.75 20.3896L173.967 11.8249L159.273 26.5196L157.48 24.7272Z" fill="#EFF6FB"/>
<path d="M13.4805 24.7272L28.1751 10.0325L19.6104 10.2496C18.8924 10.2675 18.3249 9.70032 18.3431 8.98233C18.3613 8.26433 18.9583 7.66762 19.6763 7.64913L31.3802 7.35249C32.0984 7.33428 32.6657 7.90159 32.6475 8.61977L32.3509 20.3237C32.3324 21.0417 31.7357 21.6387 31.0177 21.6569C30.2997 21.6751 29.7325 21.1076 29.7504 20.3896L29.9675 11.8249L15.2729 26.5196L13.4805 24.7272Z" fill="#EFF6FB"/>
</g>
</svg>
