<svg width="192" height="116" viewBox="0 0 192 116" fill="none" xmlns="http://www.w3.org/2000/svg">
<g opacity="0.2">
<path d="M120.601 4V24.7813L126.503 18.5717C126.998 18.0514 127.801 18.0511 128.296 18.5717C128.79 19.0922 128.79 19.9364 128.296 20.4571L120.229 28.9428C119.734 29.4635 118.932 29.4635 118.437 28.9428L110.371 20.4571C109.876 19.9364 109.876 19.0922 110.371 18.5717C110.866 18.0511 111.668 18.0514 112.163 18.5717L118.066 24.7813V4H120.601Z" fill="#EFF6FB"/>
<path d="M72.6008 4V24.7813L78.5034 18.5717C78.9984 18.0514 79.8008 18.0511 80.2956 18.5717C80.7905 19.0922 80.7902 19.9364 80.2956 20.4571L72.2294 28.9428C71.7345 29.4635 70.9322 29.4635 70.4372 28.9428L62.371 20.4571C61.8764 19.9364 61.8762 19.0922 62.371 18.5717C62.8659 18.0511 63.6683 18.0514 64.1632 18.5717L70.0659 24.7813V4H72.6008Z" fill="#EFF6FB"/>
<path d="M168.601 4V24.7813L174.503 18.5717C174.998 18.0514 175.801 18.0511 176.296 18.5717C176.79 19.0922 176.79 19.9364 176.296 20.4571L168.229 28.9428C167.734 29.4635 166.932 29.4635 166.437 28.9428L158.371 20.4571C157.876 19.9364 157.876 19.0922 158.371 18.5717C158.866 18.0511 159.668 18.0514 160.163 18.5717L166.066 24.7813V4H168.601Z" fill="#EFF6FB"/>
<path d="M24.6008 4V24.7813L30.5034 18.5717C30.9984 18.0514 31.8008 18.0511 32.2956 18.5717C32.7905 19.0922 32.7902 19.9364 32.2956 20.4571L24.2294 28.9428C23.7345 29.4635 22.9322 29.4635 22.4372 28.9428L14.371 20.4571C13.8764 19.9364 13.8762 19.0922 14.371 18.5717C14.8659 18.0511 15.6683 18.0514 16.1632 18.5717L22.0659 24.7813V4H24.6008Z" fill="#EFF6FB"/>
</g>
</svg>
