<svg width="141" height="117" viewBox="0 0 141 117" fill="none" xmlns="http://www.w3.org/2000/svg">
<g opacity="0.2">
<path d="M24.2674 4V24.7813L30.1701 18.5717C30.6651 18.0514 31.4675 18.0511 31.9623 18.5717C32.4571 19.0922 32.4569 19.9364 31.9623 20.4571L23.8961 28.9428C23.4011 29.4635 22.5988 29.4635 22.1039 28.9428L14.0377 20.4571C13.5431 19.9364 13.5429 19.0922 14.0377 18.5717C14.5325 18.0511 15.3349 18.0514 15.8299 18.5717L21.7326 24.7813V4H24.2674Z" fill="#EFF6FB"/>
<path d="M71.2674 4V24.7813L77.1701 18.5717C77.6651 18.0514 78.4675 18.0511 78.9623 18.5717C79.4571 19.0922 79.4569 19.9364 78.9623 20.4571L70.8961 28.9428C70.4011 29.4635 69.5988 29.4635 69.1039 28.9428L61.0377 20.4571C60.5431 19.9364 60.5429 19.0922 61.0377 18.5717C61.5325 18.0511 62.3349 18.0514 62.8299 18.5717L68.7326 24.7813V4H71.2674Z" fill="#EFF6FB"/>
<path d="M118.267 4V24.7813L124.17 18.5717C124.665 18.0514 125.467 18.0511 125.962 18.5717C126.457 19.0922 126.457 19.9364 125.962 20.4571L117.896 28.9428C117.401 29.4635 116.599 29.4635 116.104 28.9428L108.038 20.4571C107.543 19.9364 107.543 19.0922 108.038 18.5717C108.533 18.0511 109.335 18.0514 109.83 18.5717L115.733 24.7813V4H118.267Z" fill="#EFF6FB"/>
</g>
</svg>
