<?xml version="1.0" encoding="utf-8"?>
<svg xmlns="http://www.w3.org/2000/svg">
  <defs>
    <symbol viewBox="0 0 48 70" id="humidity">
<path d="M23.94 70C10.0393 70 0 59.6413 0 45.5157C0 30.4484 22.241 2.35426 22.3955 2.19731L23.7855 0L25.6389 2.35426C32.2804 11.1435 47.7255 32.8027 47.7255 45.2018C47.88 59.6413 37.8406 70 23.94 70ZM23.94 6.59193C18.9975 13.1839 3.86129 34.5291 3.86129 45.5157C3.86129 57.6009 12.0472 66.0762 23.94 66.0762C35.8327 66.0762 44.0187 57.6009 44.0187 45.5157C44.0187 35.157 30.2725 14.9103 23.94 6.59193Z" fill="black"></path>
<path fill-rule="evenodd" clip-rule="evenodd" d="M13.5704 34.4334C14.1833 33.8205 15.1771 33.8205 15.79 34.4334L33.0546 51.698C33.6675 52.3109 33.6675 53.3047 33.0546 53.9176C32.4416 54.5305 31.4479 54.5305 30.8349 53.9176L13.5704 36.653C12.9574 36.0401 12.9574 35.0463 13.5704 34.4334Z" fill="black"></path>
<path fill-rule="evenodd" clip-rule="evenodd" d="M31.819 40.9085C33.3252 40.9085 34.5462 39.6874 34.5462 38.1812C34.5462 36.675 33.3252 35.4539 31.819 35.4539C30.3127 35.4539 29.0917 36.675 29.0917 38.1812C29.0917 39.6874 30.3127 40.9085 31.819 40.9085ZM31.819 44.5448C35.3335 44.5448 38.1826 41.6957 38.1826 38.1812C38.1826 34.6666 35.3335 31.8176 31.819 31.8176C28.3044 31.8176 25.4553 34.6666 25.4553 38.1812C25.4553 41.6957 28.3044 44.5448 31.819 44.5448Z" fill="black"></path>
<path fill-rule="evenodd" clip-rule="evenodd" d="M15.9095 53.6369C17.4158 53.6369 18.6368 52.4158 18.6368 50.9096C18.6368 49.4034 17.4158 48.1823 15.9095 48.1823C14.4033 48.1823 13.1823 49.4034 13.1823 50.9096C13.1823 52.4158 14.4033 53.6369 15.9095 53.6369ZM15.9095 57.2732C19.4241 57.2732 22.2732 54.4241 22.2732 50.9096C22.2732 47.3951 19.4241 44.546 15.9095 44.546C12.395 44.546 9.5459 47.3951 9.5459 50.9096C9.5459 54.4241 12.395 57.2732 15.9095 57.2732Z" fill="black"></path>
</symbol>
<symbol viewBox="0 0 9 9" id="overnight">
<path d="M4.39054 9C3.89246 9 3.41282 8.92683 2.97007 8.78049C1.80787 8.39634 0.86704 7.59146 0.31361 6.5122L0 5.89024L0.62722 6.18293C0.830145 6.27439 1.01462 6.34756 1.21755 6.42073C3.48661 7.11585 5.70033 5.87195 6.36444 3.80488C6.71495 2.7439 6.62271 1.60976 6.06928 0.621951L5.70033 0L6.36444 0.310976C8.46747 1.29878 9.50054 3.69512 8.76264 5.87195C8.13542 7.73781 6.38289 9 4.39054 9ZM1.14375 6.87805C1.64184 7.55488 2.34285 8.04878 3.173 8.32317C5.44206 9 7.65578 7.77439 8.33834 5.68902C8.61506 4.82927 8.59661 3.85976 8.283 2.98171C7.98784 2.23171 7.45285 1.55488 6.80719 1.09756C7.13924 2.03049 7.15769 3.01829 6.84408 3.98781C6.21686 5.85366 4.48278 7.09756 2.50888 7.09756C2.02924 7.07927 1.56805 7.02439 1.14375 6.87805Z" fill="#71767A"></path>
</symbol>
<symbol viewBox="0 0 68 55" id="wind">
<path d="M47.7212 55C46.5109 55 45.4735 53.9864 45.4735 52.8038C45.4735 51.6212 46.5109 50.4386 47.7212 50.4386C51.3522 50.4386 54.6373 47.2287 54.6373 43.681C54.6373 39.7953 51.698 36.9233 47.7212 36.9233H2.42068C1.21036 36.9233 4.27544e-05 35.9097 4.27544e-05 34.7271C4.27544e-05 33.5445 1.03746 32.3619 2.42068 32.3619H47.7212C54.1186 32.3619 59.3057 37.4301 59.3057 43.8499C59.3057 50.2697 54.1186 55 47.7212 55ZM53.9948 27.3684H19.76C18.5496 27.3684 17.3393 26.3548 17.3393 25.0033C17.3393 23.6517 18.3767 22.6381 19.76 22.6381H53.9948C58.8361 22.6381 62.9858 18.5835 62.9858 13.6842C62.9858 8.61599 58.8361 4.56141 53.9948 4.56141C50.3639 4.56141 47.2516 6.5887 45.6955 9.96752C45.5226 10.4743 45.0039 10.9812 44.3122 11.319C43.7935 11.488 43.1019 11.488 42.5832 11.1501C42.0645 10.9812 41.5458 10.4743 41.3729 9.79857C41.2 9.29175 41.2 8.61599 41.5458 8.10917C43.6206 3.20988 48.6348 0 54.1677 0C61.7755 0 68 6.25081 68 13.6842C67.8271 21.2866 61.6026 27.3684 53.9948 27.3684Z" fill="black"></path>
</symbol>
<symbol viewBox="0 0 16 16" id="wx_wind_arrow">
<rect width="16" height="16" transform="translate(0.625)" fill="white"></rect>
<path fill-rule="evenodd" clip-rule="evenodd" d="M2.96808 6.46448L4.38229 7.88059L7.625 4.63354L7.625 9.97052H9.625L9.625 4.63372L12.8676 7.88065L14.2818 6.46454L10.0391 2.21618L10.0391 2.21616L8.62493 0.800049L2.96808 6.46448ZM9.625 11.9705H7.625V14.9584H9.625V11.9705Z" fill="#3D4551"></path>
</symbol>
<symbol viewBox="0 0 26 26" id="wx_zoom-in-map">
<path fill-rule="evenodd" clip-rule="evenodd" d="M21.41 10.59L19.11 8.29003L22 5.42003L20.58 4.00003L17.71 6.89003L15.41 4.59003V10.59H21.41ZM8.28997 6.89003L10.59 4.59003L10.59 10.59L4.58997 10.59L6.88997 8.29003L3.99997 5.42003L5.41997 4.00003L8.28997 6.89003ZM17.71 19.11L15.41 21.41L15.41 15.41L21.41 15.41L19.11 17.71L22 20.58L20.58 22L17.71 19.11ZM6.88997 17.71L4.58997 15.41H10.59L10.59 21.41L8.28997 19.11L5.41997 22L3.99997 20.58L6.88997 17.71Z"></path>
</symbol>
<symbol viewBox="0 0 50 50" id="blizzard_winter_storm">
<path  d="M20.5,41.6L20.5,41.6L20.5,41.6L20.5,41.6z M18.8,48.9c-0.6,0-1-0.4-1-1v-2.3l-2.4,2.3c-0.4,0.4-1,0.5-1.4,0.2
  L14,47.9c-0.2-0.2-0.4-0.6-0.1-1.3l0.1-0.1l3.9-3.9v-7.2L11,39.3l-1.6,5.1l-0.1,0.1c-0.1,0.1-0.3,0.3-0.7,0.3H8.5
  c-0.1,0-0.3,0-0.5-0.1c-0.2-0.1-0.4-0.3-0.5-0.5c-0.1-0.3,0-0.5,0-0.6l0.9-3l-2.1,1.1c-0.2,0.2-0.5,0.2-0.7,0.2
  c-0.3,0-0.5-0.2-0.6-0.3l-0.1-0.1c-0.1-0.3-0.1-0.6,0-0.9c0.1-0.2,0.3-0.4,0.5-0.5l1.9-1.1L4.1,38c-0.5,0-0.9-0.5-0.9-1.1
  c0-0.4,0.4-0.9,1.1-0.9l0.1,0l5.3,1.4l6.5-3.8L9.8,30l-5.3,1.5c-0.3,0-0.6,0-0.9-0.2l-0.1-0.1v-0.1c0-0.1-0.1-0.2-0.1-0.4
  c0-0.3,0.2-0.6,0.3-0.8l0.1-0.1c0.1,0,0.1-0.1,0.2-0.1c0.1-0.1,0.2-0.1,0.4-0.2l3.1-0.9l-1.9-1.1C5.2,27.4,5,27,5,26.7
  c0-0.1,0-0.4,0.1-0.6c0.1-0.3,0.5-0.5,0.8-0.5c0.1,0,0.5,0,0.7,0.2l1.8,1L7.6,24c-0.2-0.5,0-1,0.5-1.2c0.3-0.1,0.6-0.1,0.9,0
  c0.2,0.1,0.4,0.3,0.5,0.5l1.5,5l6.8,3.9V25l-4-4c-0.2-0.3-0.2-0.6-0.2-0.7c0-0.3,0.2-0.5,0.3-0.7c0.4-0.4,1.1-0.3,1.5,0.1l2.3,2.3
  v-2.2c0-0.6,0.4-1,1-1s1,0.4,1,1v2.1l2-2.2c0.1-0.1,0.4-0.4,0.7-0.4c0.2,0,0.3,0,0.6,0.2l0.1,0.1c0.2,0.1,0.4,0.4,0.4,0.8
  c0,0.1,0,0.4-0.2,0.7l-3.7,3.8v6.9l5.5-3.1l1.3-5.2c0-0.3,0.3-0.7,0.6-0.8c0.3-0.2,0.5-0.2,0.8,0c0.4,0.2,0.7,0.8,0.5,1.4l-0.8,3.1
  l2-1.1c0.4-0.2,1.1-0.1,1.4,0.3c0.2,0.2,0.2,0.6,0.2,0.7c0,0.3-0.2,0.5-0.3,0.7l-0.1,0.1L28.8,29l2.8,0.7c0.1,0,0.4,0,0.6,0.2
  c0.1,0.1,0.2,0.3,0.2,0.7c0,0.3-0.1,0.6-0.3,0.9c-0.2,0.2-0.5,0.2-0.7,0.2l-0.1,0l-5.1-1.3l-5.8,3.4l5.8,3.4l5.1-1.2
  c0.5-0.2,0.9,0.2,1.2,0.5l0.3,0.3l0,0.1c0.1,0.3,0.1,0.6-0.1,0.8c-0.2,0.2-0.4,0.3-0.7,0.4l-2.8,0.6l1.7,1c0.3,0.1,0.5,0.5,0.5,0.8
  c0,0.2,0,0.5-0.2,0.8c-0.1,0.1-0.3,0.3-0.7,0.3c-0.1,0-0.4,0-0.7-0.2L28,40.2l0.8,3.2c0.2,0.5-0.1,1.2-0.6,1.4l-0.1,0.1h-0.3
  c-0.4,0-0.8-0.2-0.9-0.6l0-0.1l-1.3-5.3L20,35.6v6.9l3.6,3.9c0.2,0.3,0.2,0.6,0,0.9l-0.1,0.1l-0.4,0.4c-0.5,0.3-0.9,0.2-1.2-0.3
  l-2-2v2.2c0,0.4-0.2,0.6-0.3,0.8C19.4,48.7,19.1,48.9,18.8,48.9z M40.3,24.5c-0.6,0-1-0.4-1-1V19l-3.6,2.1c-0.5,0.2-1.1,0-1.3-0.5
  l-0.1-0.1v-0.1c-0.1-0.5,0-1,0.5-1.2l3.8-2.3l-3.8-2.3c-0.5-0.3-0.6-0.8-0.4-1.2v-0.2l0.1-0.1c0.4-0.5,0.9-0.6,1.3-0.4l3.6,2.1v-3.7
  c0-0.6,0.4-1,1-1s1,0.4,1,1V15l4-2.6c0.5-0.2,1.1,0,1.3,0.5l0.1,0.1v0.1c0.1,0.5-0.1,1-0.5,1.2l-3.8,2.3l3.9,2.3
  c0.5,0.5,0.4,1.1,0.3,1.5l0,0v0.2l-0.1,0.1c-0.4,0.5-0.9,0.6-1.3,0.4l-4-2.4v4.7C41.3,24.1,40.9,24.5,40.3,24.5z M19.3,15.1
  c-0.6,0-1-0.4-1-1V9.6l-3.5,2.1c-0.4,0.2-1,0.2-1.4-0.4l-0.1-0.1V11c-0.1-0.4-0.1-0.9,0.4-1.2l3.8-2.3l-3.6-2.2
  c-0.2,0-0.3-0.1-0.4-0.2c-0.2-0.2-0.3-0.5-0.2-0.8v0l0.1-0.2c0.2-0.4,0.8-0.6,1.3-0.5l0.1,0l3.5,2.1V2.1c0-0.6,0.4-1,1-1s1,0.4,1,1
  v3.9l3.9-2.3c0.4-0.2,1-0.2,1.4,0.4l0.1,0.1l0,0.2c0.1,0.4,0.1,0.9-0.4,1.2l-3.8,2.3l3.7,2.2c0.2,0,0.3,0.2,0.4,0.3
  c0.2,0.3,0.2,0.6,0,0.9l0,0.1c-0.2,0.3-0.5,0.5-0.8,0.5c-0.2,0-0.4,0-0.6-0.2l-3.9-2.2v4.7C20.3,14.7,19.9,15.1,19.3,15.1z"></path>
</symbol>
<symbol viewBox="0 0 50 50" id="clear-day">
<path id="XMLID_43_"  d="M25.1,14.7c-5.1,0-9.3,4.3-9.3,9.5c0,5.3,4.2,9.5,9.3,9.5s9.3-4.3,9.3-9.5S30.2,14.7,25.1,14.7z
   M25.1,35.5c-6.1,0-11-5.1-11-11.3S19,13,25.1,13s11,5.1,11,11.3C36,30.5,31.1,35.5,25.1,35.5z M25.1,49.5c-0.9,0-1.6-0.7-1.6-1.6
  v-9.2c0-0.9,0.7-1.6,1.6-1.6c0.9,0,1.6,0.7,1.6,1.6V48C26.6,48.8,25.9,49.5,25.1,49.5z M40.5,44h-0.3c-0.5,0-0.9-0.3-1-0.4l-5.9-7.1
  c-0.3-0.5-0.4-1-0.3-1.4c0.1-0.4,0.3-0.7,0.6-0.9c0.4-0.3,0.9-0.4,1.3-0.3c0.4,0.1,0.7,0.3,0.9,0.6l5.8,7c0.3,0.4,0.4,0.8,0.4,1.1
  c0,0.5-0.4,1-0.5,1.1L41.3,44L41,43.9c0,0,0,0-0.1,0C40.7,44,40.6,44,40.5,44z M9.9,44c-0.2,0-0.6,0-1.1-0.3
  c-0.7-0.7-0.8-1.4-0.3-2.1l5.9-7.1c0.6-0.6,1.3-0.7,2.2-0.3l0.1,0.1c0.7,0.7,0.8,1.6,0.2,2.2l-6.3,7.4C10.5,43.9,10.3,44,9.9,44z
   M25.1,36c-6.3,0-11.5-5.3-11.5-11.8c0-6.5,5.1-11.8,11.5-11.8c6.3,0,11.5,5.3,11.5,11.8C36.5,30.7,31.4,36,25.1,36z M25.1,15.2
  c-4.8,0-8.8,4.1-8.8,9c0,5,4,9,8.8,9c4.8,0,8.8-4.1,8.8-9C33.9,19.3,29.8,15.2,25.1,15.2z M48.4,30h-0.2L39,28.4
  c-0.4,0-0.8-0.4-0.9-0.5c-0.4-0.6-0.4-1-0.3-1.2c0-0.4,0.3-0.7,0.5-0.9c0.5-0.4,1-0.5,1.4-0.3l8.9,1.5c0,0,0,0,0,0
  c0.4,0,0.8,0.4,0.9,0.5c0.4,0.5,0.5,1,0.3,1.4C49.7,29.5,49.1,30,48.4,30z M1.9,30H1.7c-0.7,0-1.3-0.4-1.5-1.1
  c-0.2-0.3-0.1-0.8,0.1-1.1c0.2-0.4,0.6-0.7,1.1-0.8l9.2-1.6c0.4-0.1,0.8-0.1,1.2,0.2c0.3,0.2,0.6,0.5,0.7,0.9
  c0.2,0.3,0.1,0.8-0.1,1.1c-0.2,0.4-0.6,0.7-1.1,0.8L1.9,30z M37.6,18.6c-0.6,0-1.2-0.4-1.3-0.9c-0.2-0.4-0.2-0.8-0.1-1.1
  c0.1-0.4,0.4-0.7,0.8-0.9l7.9-4.6c0.7-0.4,1.6-0.2,2.1,0.5c0.4,0.7,0.3,1.6-0.4,2.1l-8.1,4.7C38.1,18.6,37.7,18.6,37.6,18.6z
   M12.6,18.6c-0.4,0-0.7-0.1-0.9-0.3l-7.8-4.6c-0.3-0.2-0.6-0.5-0.7-0.9c-0.2-0.5-0.1-0.9,0.2-1.3c0.1-0.3,0.5-0.6,0.8-0.7
  c0.4-0.1,0.9-0.2,1.4,0.2l7.8,4.6c0.3,0.2,0.6,0.5,0.7,0.9c0.1,0.4,0.2,0.9-0.2,1.4l-0.3,0.3c0,0-0.1,0-0.1,0.1
  C13.4,18.4,13.1,18.6,12.6,18.6z M30,12.3l-0.4,0c-0.4-0.1-0.7-0.4-0.9-0.6l-0.1-0.1l0-0.1c-0.1-0.3-0.2-0.7-0.1-1.2l3.2-8.8
  c0.1-0.2,0.3-0.6,0.7-0.8c0.3-0.1,0.7-0.2,1.2-0.1c0.3,0.1,0.7,0.3,0.9,0.8c0.1,0.3,0.2,0.7,0.1,1.2l-3.1,8.6
  C31.4,11.7,30.9,12.3,30,12.3z M20.5,12.3h-0.4c-0.6,0-1.1-0.4-1.4-1l-3.3-8.7c-0.2-0.5-0.1-0.9,0.1-1.3c0.2-0.4,0.6-0.7,0.8-0.8
  c0.9-0.3,1.8,0.3,2,0.9l3.1,8.6c0.1,0.4,0.1,0.8-0.1,1.2C21.5,11.8,21.1,12.1,20.5,12.3L20.5,12.3z"></path>
</symbol>
<symbol viewBox="0 0 50 50" id="clear-night">
<g>
  <path  d="M24.4,50c-2.7,0-5.3-0.4-7.7-1.2c-6.3-2.1-11.4-6.5-14.4-12.4L0.6,33L4,34.6c1.1,0.5,2.1,0.9,3.2,1.3
    c12.3,3.8,24.3-3,27.9-14.3c1.9-5.8,1.4-12-1.6-17.4l-2-3.4l3.6,1.7c11.4,5.4,17,18.5,13,30.4C44.7,43.1,35.2,50,24.4,50z
     M6.8,38.4c2.7,3.7,6.5,6.4,11,7.9c12.3,3.7,24.3-3,28-14.4l0,0c1.5-4.7,1.4-10-0.3-14.8c-1.6-4.1-4.5-7.8-8-10.3
    c1.8,5.1,1.9,10.5,0.2,15.8c-3.4,10.2-12.8,17-23.5,17C11.6,39.5,9.1,39.2,6.8,38.4z M8.9,31.3l-0.7-3.8L4.7,26l3.4-1.8l0.4-3.8
    l2.8,2.7l3.7-0.9l-1.7,3.5l2,3.4l-3.8-0.6L8.9,31.3z M9.1,25.8l0.9,0.4l0.2,1.1l0.7-0.8l0.6,0.1l-0.3-0.5l0.5-1.1l-1,0.2l-0.8-0.8
    l-0.1,1L9.1,25.8z M19.6,28.5l-0.1-4.1L16,22.1l3.8-1.4l1.1-4l2.5,3.3l4.1-0.3l-2.3,3.4l1.5,3.8l-4-1.1L19.6,28.5z M20.3,22.5
    l1.1,0.7l0.1,1.6l1.2-1l1.2,0.4l-0.6-1.3l0.8-1.3l-1.5,0.1l-0.9-1.2l-0.5,1.6L20.3,22.5z M9,17.1l-1.2-5.9L2.4,8.9L7.7,6l0.5-6
    l4.3,4.1l5.8-1.4l-2.5,5.4l3.1,5.2L13,12.7L9,17.1z M7.6,8.6l2.3,1l0.6,2.5l1.7-1.9l2.5,0.3l-1.3-2.1l1-2.3L12,6.6l-1.9-1.8
    L9.8,7.5L7.6,8.6z M24.3,14.3l-1.7-2.2L20,12.2l1.3-2.3l-1.1-2.6L23,8.2l2.1-1.6l0.2,2.6l2.2,1.4l-2.5,1L24.3,14.3z"></path>
</g>
</symbol>
<symbol viewBox="0 0 50 50" id="cloudy_overcast">
<path id="XMLID_31_"  d="M32.9,39.6H7.6c-4.1,0-7.4-3.3-7.4-7.4c0-4.1,3.3-7.4,7.3-7.4c1-5.8,6.2-10.2,12.3-10.2
  c5,0,9.5,3,11.3,7.4c0.6-0.1,1.1-0.2,1.7-0.2c4.9,0,8.9,4,8.9,8.9C41.7,35.6,37.8,39.6,32.9,39.6z M7.9,26.9
  C7.9,26.9,7.9,26.9,7.9,26.9L7.7,27l-0.2,0c-2.9,0-5.2,2.4-5.2,5.2c0,2.9,2.4,5.2,5.2,5.2H33c3.7,0,6.7-3,6.7-6.7
  c0-3.7-3-6.7-6.7-6.7c-0.7,0-1.4,0.1-2,0.3l-1,0.4l-0.4-1c-1.5-4.1-5.4-6.9-9.7-6.9c-5.3,0-9.7,4-10.3,9.3l-0.2,1.1L8.2,27
  C8.1,26.9,8,26.9,7.9,26.9z M44.1,29.3h-0.9c-0.6,0-1.1-0.5-1.1-1.1s0.5-1.1,1.1-1.1h0.9c1.9,0,3.5-1.6,3.5-3.5
  c0-1.9-1.5-3.5-3.5-3.5h-0.4l-1,0.2l-0.2-1.2c-0.4-3.7-3.5-6.5-7.1-6.5c-2.5,0-4.8,1.3-6.1,3.5c-0.2,0.5-1,0.6-1.5,0.4
  c-0.5-0.3-0.7-1-0.5-1.5c1.7-2.8,4.8-4.6,8.1-4.6c4.5,0,8.3,3.1,9.2,7.4c3,0.2,5.3,2.7,5.3,5.7C49.8,26.7,47.3,29.3,44.1,29.3z"></path>
</symbol>
<symbol viewBox="0 0 50 50" id="cold">
<path  d="M12.8,10.1c0.9,0.7,0.9,2.4,0.9,3.2c0,0.4,0.1,0.8,0.3,1.4l0.3,1c0.3,1.3,0.7,2.8,0.7,5c0,2,0.3,4.8,0.6,7.5
  l0.1,0.7c0.3,2.5,0.5,4.9,0.5,6.6c0,0.7,0,1.3,0,1.8c0-0.6,0.1-1.2,0.2-1.8c0.1-1.2,0.2-2.5,0.2-3.5c0-1,0.1-2,0.3-3.3l0.1-0.7
  c0.2-1.5,0.4-3.1,0.4-5.2c0-4.6,0-6.5,1.7-6.5c2.3,0,2.3,3.2,2.3,4.7c0,0.7,0.2,1.8,0.4,2.9c0.1,0.3,0.1,0.6,0.2,0.9
  c0-0.7,0.1-1.4,0.2-2c0.1-1,0.2-2,0.2-3.2v-6.1c0-2.2,1.3-3,2.6-3c0.4,0,0.6-0.2,1-0.5l0.2-0.1c0.5-0.3,1.1-0.7,2.1-0.6
  c0.8,0,1.9,0.8,1.9,4.6c0,0.6,0.1,1.3,0.3,2.1l0.1,0.4c0.2,1.2,0.5,2.7,0.5,4.5c0,1.7,0.1,3.5,0.3,5.1l0,0.3
  c0.1,1.7,0.2,3.3,0.2,4.6c0,1.2,0.2,2.1,0.4,3.1l0.1,0.6c0,0.2,0.1,0.5,0.1,0.7c0.2,0.8,0.4,1.6,0.4,2.5c0,0.3,0,0.6,0,0.9
  c0-0.2,0-0.4,0-0.7c0-0.7,0.1-1.4,0.1-2.1c0.1-1.7,0.1-3.5,0.1-5.3c0-1.7,0.3-3.1,0.6-4.7l0.2-1c0.3-1.5,0.5-3,0.5-4.7
  c0-1.7,0.1-9.9,2.8-9.9c2.3,0,2.8,3,2.8,7.4c0,2.7,0.2,5,0.4,7.2c0.2,1.8,0.3,3.5,0.3,5.1c0,1.6,0.3,4.4,0.6,7.3
  c0.1,1.1,0.2,2.1,0.3,3c0.1-1.4,0.2-2.5,0.3-3.6c0.2-1.8,0.3-3.3,0.3-5.2c0-2.8,0.2-5.2,0.4-7.5c0.2-2.4,0.4-4.6,0.4-7
  c0-5.5,2.4-15.2,2.4-15.3l0.1-0.6l2,0.4v0.5c0,0.1,0,0.1-0.1,0.6c-1.8,8.1-2.2,12.3-2.2,14.3c0,2.8-0.2,5.3-0.4,7.3
  c-0.2,2.2-0.4,4.6-0.4,7.2c0,1.4-0.1,2.7-0.2,3.9c0,0.5-0.1,1-0.1,1.6c-0.2,1.7-0.4,3.8-0.4,6.5c-0.4,4.7-1.3,5.3-2.2,5.3
  c-2,0-2-2.1-2-4.7c0-0.8-0.1-2-0.2-3.5c-0.1-0.9-0.2-1.9-0.3-3c-0.3-2.9-0.6-5.8-0.6-7.5c0-0.8-0.1-1.8-0.2-2.9
  c-0.1-0.6-0.1-1.3-0.1-2c-0.2-2.3-0.4-4.8-0.4-7.4c0-2.8-0.3-4.1-0.5-4.7c-0.3,1.2-0.7,3.9-0.7,7.2c0,2.4-0.3,4.3-0.7,5.9l-0.1,0.5
  c-0.3,1.4-0.5,2.6-0.5,4c0,1,0,1.9-0.1,2.9c0,0.9,0,1.7,0,2.5c-0.1,1.4-0.1,2.7-0.1,3.9c0,2,0,4.8-2.1,4.8c-2.1,0-2.3-4.8-2.3-6.9
  c0-0.9-0.2-1.6-0.3-2.5l-0.1-0.3c-0.3-1.1-0.6-2.5-0.6-4.2c0-1.3-0.1-2.7-0.2-4.3l0-0.5c0-0.6-0.1-1.2-0.1-1.8
  c-0.1-1.2-0.2-2.4-0.2-3.5c0-1.6-0.2-3-0.4-4.1l-0.1-0.4c-0.2-0.9-0.3-1.8-0.3-2.5c0-1.3-0.2-2-0.3-2.4c-0.1,0-0.2,0.1-0.4,0.3
  L27,11.7c-0.5,0.3-1,0.6-1.9,0.7c-0.3,0-0.5,0-0.5,0.8v6.1c0,1.4-0.1,2.5-0.2,3.5c-0.1,1.1-0.2,2.2-0.2,3.8c0,1.8,0,4.3-1.8,4.3
  c-1.2,0-2.4-1.2-2.4-4c0-0.7-0.2-1.5-0.3-2.5l-0.1-0.3c0-0.1,0-0.1,0-0.2c-0.1,1.7-0.3,3.2-0.4,4.4l-0.1,0.6c0,0.5-0.1,0.9-0.1,1.3
  c-0.1,0.6-0.1,1.2-0.1,1.7c0,1.1-0.1,2.5-0.2,3.7c0,0.4-0.1,0.9-0.1,1.3c-0.1,1-0.2,2-0.2,3c0,3.3-0.9,5.2-2.4,5.2
  c-1.2,0-1.9-0.5-1.9-9.8c0-1.7-0.3-4.3-0.6-7c-0.3-3.1-0.6-5.8-0.6-7.8c0-1.2-0.1-2.3-0.3-3.2c-0.1,0.5-0.1,1-0.2,1.5l-0.1,0.5
  c-0.2,1.2-0.4,2.8-0.4,5.4c0,2.7-0.1,3.7-0.2,4.6c-0.1,0.7-0.1,1.1-0.1,2.4c0,2.7-0.7,4.2-2,4.2c-2.2,0-2.3-5.9-2.3-6
  c0-1.5-0.1-2.8-0.2-4.1c0-0.5-0.1-1.1-0.1-1.6c-0.3-1.2-0.5-2.6-0.5-4.3c0-2-0.2-3.2-0.4-4.2l-0.1-0.4c-0.2-0.9-0.3-1.6-0.3-2.5
  c0-2-1.6-7.3-1.9-7.8c-0.5-0.7-0.8-2.5-0.8-3V1.6L5,1.4L5.1,2C5.2,3,5.4,3.7,5.5,3.9c0.6,0.9,2.2,6.8,2.2,9.1c0,0.6,0.1,1.3,0.3,1.9
  c0.3,1.3,0.6,2.7,0.6,5.2c0,1.4,0.1,2.7,0.3,4.2c0.2,1.5,0.3,3.2,0.3,5.1l0-0.1c0.1-0.8,0.2-1.8,0.2-4.3c0-2.9,0.3-4.7,0.5-5.9
  l0-0.3c0.2-0.9,0.3-1.7,0.3-2.8c0-3.9,0-6.1,1.7-6.1c0.3,0,0.5,0.1,0.7,0.2"></path>
</symbol>
<symbol viewBox="0 0 50 50" id="drizzle">
<path id="XMLID_35_"  d="M28.2,47.1c-0.6,0-1.2-0.6-1.2-1.2v-5.3c0-0.6,0.6-1.2,1.2-1.2s1.2,0.6,1.2,1.2v5.3
  C29.4,46.6,28.8,47.1,28.2,47.1z M18,47.1c-0.6,0-1.2-0.6-1.2-1.2v-5.3c0-0.6,0.6-1.2,1.2-1.2s1.2,0.6,1.2,1.2v5.3
  C19.2,46.6,18.6,47.1,18,47.1z M33.4,41.9c-0.7,0-1.2-0.5-1.2-1.2v-5.3c0-0.6,0.6-1.2,1.2-1.2s1.2,0.6,1.2,1.2v5.3
  C34.6,41.3,34,41.9,33.4,41.9z M23.1,41.9c-0.7,0-1.2-0.5-1.2-1.2v-5.3c0-0.6,0.6-1.2,1.2-1.2s1.2,0.6,1.2,1.2v5.3
  C24.3,41.3,23.7,41.9,23.1,41.9z M12.6,41.9c-0.7,0-1.2-0.5-1.2-1.2v-5.3c0-0.6,0.6-1.2,1.2-1.2c0.6,0,1.2,0.6,1.2,1.2v5.3
  C13.8,41.3,13.2,41.9,12.6,41.9z M39.3,32.5H9c-4.9,0-8.8-3.9-8.8-8.7s3.9-8.7,8.7-8.7C10.1,8,16.2,2.9,23.5,2.9
  c5.9,0,11.2,3.4,13.6,8.8c0.7-0.1,1.4-0.2,2.1-0.2c5.8,0,10.6,4.7,10.6,10.5C49.7,27.8,45,32.5,39.3,32.5z M9.8,17.4H9
  c-3.6,0-6.3,2.8-6.3,6.3S5.5,30,9,30h30.3c4.6,0,8.1-3.6,8.1-8.1c0-4.4-3.7-8.1-8.1-8.1c-0.9,0-1.7,0.1-2.5,0.4l-1.2,0.4l-0.4-1.2
  c-1.7-4.9-6.4-8.2-11.7-8.2c-6.4,0-11.7,4.8-12.4,11.1l-0.2,1.2L9.8,17.4z"></path>
</symbol>
<symbol viewBox="0 0 50 50" id="fog">
<path  d="M31.7,41.5H17.6c-0.7,0-1.4-0.6-1.4-1.4c0-0.7,0.6-1.3,1.4-1.3h14.2c0.7,0,1.4,0.6,1.4,1.3
  C33.1,40.8,32.4,41.5,31.7,41.5z M48.3,33.9c-0.1,0-0.1,0-0.2,0H23.6c-0.7,0-1.4-0.6-1.4-1.3s0.6-1.3,1.4-1.3h24.6
  c0.7,0,1.3,0.6,1.3,1.3c0,0.5-0.2,0.9-0.6,1.1C48.7,33.8,48.5,33.9,48.3,33.9z M19.1,33.9c-0.1,0-0.1,0-0.2,0H8.2
  c-0.7,0-1.3-0.6-1.3-1.3s0.6-1.3,1.3-1.3h10.6c0.7,0,1.4,0.6,1.4,1.3c0,0.5-0.2,0.9-0.5,1.2C19.5,33.8,19.3,33.9,19.1,33.9z
   M43.8,26.3h-5.4c-0.7,0-1.4-0.6-1.4-1.3c0-0.7,0.6-1.4,1.4-1.4h5.4c0.7,0,1.4,0.6,1.4,1.4C45.1,25.7,44.5,26.3,43.8,26.3z M34,26.3
  H1.9c-0.7,0-1.4-0.6-1.4-1.3c0-0.7,0.6-1.4,1.4-1.4H34c0.7,0,1.4,0.6,1.4,1.4C35.4,25.7,34.8,26.3,34,26.3z M48.2,18.9H30.7
  c-0.7,0-1.4-0.6-1.4-1.4s0.6-1.4,1.4-1.4h17.5c0.7,0,1.3,0.6,1.3,1.4S48.9,18.9,48.2,18.9z M25.7,18.9H9.6c-0.7,0-1.4-0.6-1.4-1.4
  s0.6-1.4,1.4-1.4h16.1c0.7,0,1.3,0.6,1.3,1.4S26.4,18.9,25.7,18.9z M35.2,11.2H16.1c-0.7,0-1.4-0.6-1.4-1.4s0.6-1.4,1.4-1.4h19.2
  c0.7,0,1.4,0.6,1.4,1.4C36.6,10.7,36,11.2,35.2,11.2z"></path>
</symbol>
<symbol viewBox="0 0 50 50" id="freezing_rain_sleet">
<path id="XMLID_30_"  d="M33.7,47.4C32,47.4,32,45.6,32,44c0-0.8-0.1-1.9-0.3-2.9c-0.2-1.3-0.4-2.6-0.4-3.8
  c0-0.9-0.1-1.4-0.2-2v-0.2c-0.2-1-0.3-2-0.3-3.7c0-1.3-0.3-2.1-0.6-2.5c-0.2,0.9-0.4,2.4-0.4,4.2c0,1.4-0.3,2.2-0.5,2.8l-0.1,0.2
  c0,0.1-0.1,0.3-0.1,0.5c-0.1,0.4-0.2,0.7-0.2,1.3c0,0.8,0,1.3-0.1,1.7c0,0.2,0,0.4,0,0.5v0.2c-0.1,0.2-0.1,0.6-0.1,1.2
  c0,1.3,0,3.5-1.7,3.5c-1.6,0-1.9-2.6-1.9-4.8V40c-0.4-0.4-0.6-1-0.6-2c0-0.8-0.1-1.4-0.2-2S24,34.7,24,33.5c0-0.8-0.1-1.5-0.2-2.2
  c0-0.2-0.1-0.4-0.1-0.6v-0.2c-0.1-0.5-0.2-1-0.2-1.4s0-0.7,0-0.9c-0.4,0.2-0.8,0.5-1.4,0.5c-0.3,0-0.7,0.2-0.9,0.3v3.7
  c0,0.8-0.1,1.2-0.2,1.5l0,0v0.1c0,0.1-0.1,0.4-0.1,1.1c0,1.2,0,3.2-1.5,3.2c-0.9,0-1.9-1-1.9-3c0-0.2,0-0.2-0.1-0.3l-0.1-0.1
  c-0.1-0.3-0.3-0.6-0.4-1.3c0,0.4,0,0.7,0,0.9c0,0.9,0,1.6-0.5,2.1c0,0.6,0,1.2-0.1,2c-0.1,0.9-0.2,1.9-0.2,2.7
  c0,2.5-0.6,3.8-1.9,3.8c-1.2,0-1.6-0.9-1.6-6.6c0-0.9-0.2-1.4-0.3-2.1v-0.2c-0.2-0.7-0.4-1.5-0.4-2.9c0-1.2-0.2-3-0.4-4.7l-0.2-2.2
  c-0.1-0.9-0.1-1.5-0.1-1.8v-0.6h2.2v0.6c0,0.3,0.1,1.1,0.1,2l0.2,1.8c0.2,1.7,0.4,3.6,0.4,4.9c0,1.1,0.2,1.7,0.3,2.3V36
  c0.1-0.3,0.2-0.5,0.4-0.7V35c0-3.2,0-4.6,1.5-4.6c1,0,2.4,0.7,2.8,2.4l0,0v-4c0-1.4,1.7-2.1,2.8-2.3c0.2-0.1,0.4-0.2,0.6-0.3
  c0.4-0.3,0.9-0.6,1.7-0.5c1.5,0.2,1.5,2.4,1.5,3.4c0,0.3,0.1,0.8,0.2,1.3c0,0.2,0.1,0.4,0.1,0.6c0.1,0.7,0.2,1.5,0.2,2.6
  c0,1,0.1,1.6,0.2,2.2V36c0.1,0.6,0.2,1.2,0.2,2.2c0,0.2,0,0.3,0,0.4c0.1,0,0.1,0.1,0.2,0.1c0-0.2,0-0.4,0-0.7c0-1.2,0.2-1.8,0.4-2.3
  v-0.1c0.2-0.5,0.4-1,0.4-2.2c0-4.5,0.7-6.7,2.2-6.7c1.3,0,3.2,1.3,3.2,5c0,1.2,0.1,2,0.2,2.7c0,0.2,0.1,0.5,0.1,0.7
  c0.1,0.7,0.2,1.4,0.2,2.4c0,0.4,0,0.8,0.1,1.2c0.1-0.8,0.1-1.6,0.1-2.6c0-1.3,0.1-2.3,0.2-3.4c0-0.4,0.1-0.8,0.1-1.2
  c0.2-1.5,0.3-2.7,0.3-4.3v-0.6h2.2V27c0,1.2-0.1,2.2-0.2,3.2c0,0.4-0.1,0.8-0.1,1.3C36,32.9,36,34.3,36,35.9c0,1.3-0.1,2.4-0.2,3.5
  c-0.2,1.3-0.3,2.5-0.3,4.1l0,0c0,2.9-0.5,3.5-1.5,3.9H33.7z M39.3,32.5c-0.6,0-1.2-0.6-1.2-1.2s0.6-1.2,1.2-1.2
  c4.5,0,8.1-3.6,8.1-8.1s-3.6-8.1-8.1-8.1c-0.9,0-1.7,0.1-2.5,0.4l-1.2,0.4l-0.4-1.2c-1.8-5-6.5-8.3-11.7-8.3
  c-6.4,0-11.7,4.8-12.4,11.2l-0.2,1.2l-1.2-0.2c-0.1,0-0.3,0-0.4,0s-0.2,0-0.3,0c-3.5,0-6.3,2.8-6.3,6.3S5.5,30,9,30
  c0.6,0,1.2,0.6,1.2,1.2S9.6,32.4,9,32.4c-4.9,0-8.8-4-8.8-8.8s3.9-8.8,8.7-8.8c1.2-7.1,7.3-12.2,14.7-12.2c5.9,0,11.2,3.5,13.6,8.9
  c0.7-0.1,1.4-0.2,2.1-0.2c5.8,0,10.6,4.8,10.6,10.6C49.7,27.7,45,32.5,39.3,32.5z"></path>
</symbol>
<symbol viewBox="0 0 50 50" id="general_temp">
<path  d="M25,49.5c-5.1,0-9-4-9-9c0-3.3,1.8-6.3,4.8-7.9v-28c0-2.3,1.8-4.2,4.2-4.2c2.3,0,4.2,1.8,4.2,4.2v27.9
  c3,1.5,4.8,4.5,4.8,7.9C34,45.6,30.1,49.5,25,49.5z M24.9,3.2c-0.8,0-1.4,0.6-1.4,1.4v29.7l-1.2,0.6c-2.2,1-3.5,3.2-3.5,5.6
  c0,3.4,2.8,6.2,6.2,6.2c1.7,0,3.3-0.7,4.4-2c1.1-1.2,1.6-2.7,1.5-4.2c0-2.5-1.3-4.6-3.5-5.6l-1.2-0.6V4.6
  C26.3,3.8,25.7,3.2,24.9,3.2z M25.4,36.2c2.2,0.1,3.8,2,3.8,4.1c0,2.5-1.9,4.4-4.4,4.4s-4.4-1.9-4.4-4.4c0-2.2,1.6-4,3.8-4.2"></path>
</symbol>
<symbol viewBox="0 0 50 50" id="hazy_smoke-day">
<path id="XMLID_43_"  d="M20.9,13.5h-0.4l-0.2-0.1c-0.2-0.1-0.4-0.3-0.6-0.6c-0.2-0.3-0.2-0.7-0.1-1l2.2-6
  c0.2-0.4,0.5-0.6,0.8-0.7c0.3-0.1,0.6-0.1,0.8,0C24,5.3,24.2,5.6,24.3,6c0.1,0.3,0.1,0.6,0,0.8l-2.1,6
  C21.9,13.3,21.4,13.5,20.9,13.5z M32.4,14.6c0.5-0.3,0.8-1,0.6-1.6l0-0.1c-0.3-0.5-1-0.8-1.6-0.6l-5.6,3.3c-0.5,0.3-0.8,1-0.6,1.6
  l0,0.1c0.3,0.6,0.8,0.6,1.1,0.6h0.3L32.4,14.6z M14.5,13.5c0.5-0.3,0.9-1,0.7-1.5L13,5.8c-0.1-0.2-0.3-0.4-0.6-0.6
  c-0.3-0.2-0.7-0.2-1-0.1c-0.2,0.1-0.4,0.3-0.6,0.6c-0.2,0.3-0.2,0.7-0.1,0.9l2.2,6.1c0.2,0.4,0.7,0.7,1.2,0.7h0.3L14.5,13.5z
   M9.2,17.9c0.2-0.1,0.5-0.2,0.7-0.6l0,0c0.3-0.6,0.1-1.3-0.5-1.7l-5.6-3.2c-0.6-0.3-1.3-0.1-1.7,0.5c-0.3,0.6-0.1,1.3,0.5,1.7
  l5.5,3.2l0.5,0.3L9.2,17.9z M7.8,24.7c0.5,0,1.1-0.5,1.1-1.3c0-0.5-0.4-1.1-1.3-1.1l-6.3,1.1c-0.5,0-1.1,0.5-1.1,1.3v0.2L0.2,25
  c0.2,0.5,0.7,0.8,1.2,0.8l0.1,0L7.8,24.7z M7.8,35.2l4.2-4.8c0.5-0.5,0.4-1.2-0.1-1.7c-0.3-0.3-0.7-0.4-1-0.4
  c-0.3,0-0.5,0.2-0.7,0.4l-4.1,4.8c-0.5,0.5-0.4,1.2,0.1,1.7c0.3,0.3,0.7,0.3,0.8,0.3C7.1,35.5,7.5,35.5,7.8,35.2z M13.9,28.1
  l0.3,0.7c0.3-0.1,0.5-0.4,0.6-0.5l0,0c0.3-0.5,0.2-1.2-0.2-1.5l-0.1-0.1c-1.6-1-2.5-2.7-2.5-4.8c0-3.2,2.5-5.8,5.7-5.8
  c2,0,3.8,1.1,4.9,2.9c0.3,0.5,1,0.8,1.6,0.6l0.1,0c0.5-0.3,0.8-1,0.6-1.6l-0.1-0.1c-1.4-2.5-4.2-4.1-7-4.1c-4.4,0-8.1,3.7-8.1,8.3
  c0,2.8,1.3,5.3,3.6,6.8c0,0,0.1,0.1,0.1,0.1l0.4,0.2l0.5-0.1L13.9,28.1z M42.9,20.3c0-0.7-0.5-1.2-1.2-1.2h-8.8
  c-0.7,0-1.2,0.5-1.2,1.2s0.5,1.2,1.2,1.2h8.8C42.3,21.5,42.9,21,42.9,20.3z M40,32c0-0.7-0.5-1.2-1.2-1.2H17.9
  c-0.7,0-1.2,0.5-1.2,1.2c0,0.7,0.5,1.2,1.2,1.2h21C39.5,33.2,40,32.7,40,32z M47.5,32c0-0.7-0.5-1.2-1.2-1.2h-3.2
  c-0.7,0-1.2,0.5-1.2,1.2c0,0.7,0.5,1.2,1.2,1.2h3.2C46.9,33.2,47.5,32.7,47.5,32z M37.2,44.9c0.6-0.2,1-0.7,1-1.2
  c0-0.7-0.5-1.2-1.2-1.2H26.1c-0.7,0-1.2,0.5-1.2,1.2s0.5,1.2,1.2,1.2h11L37.2,44.9z M49.9,37.8c0-0.7-0.5-1.2-1.2-1.2h-18
  c-0.7,0-1.2,0.5-1.2,1.2c0,0.7,0.5,1.2,1.2,1.2h18C49.4,39.1,49.9,38.4,49.9,37.8z M27.3,37.8c0-0.7-0.5-1.2-1.2-1.2h-7.2
  c-0.7,0-1.2,0.5-1.2,1.2c0,0.7,0.5,1.2,1.2,1.2h7.2C26.8,39.1,27.3,38.4,27.3,37.8z M49.9,26.2c0-0.7-0.5-1.2-1.2-1.2H36.2
  c-0.7,0-1.2,0.5-1.2,1.2c0,0.7,0.5,1.2,1.2,1.2h12.5C49.4,27.4,49.9,26.9,49.9,26.2z M32.6,26.2c0-0.7-0.5-1.2-1.2-1.2h-8.5
  c-0.7,0-1.2,0.5-1.2,1.2c0,0.7,0.5,1.2,1.2,1.2h8.4C32,27.4,32.6,26.8,32.6,26.2z"></path>
</symbol>
<symbol viewBox="0 0 50 50" id="hot">
<path id="XMLID_56_"  d="M25,49.9l-3.4-11.2c0,0-0.1,0-0.1,0c0,0-0.1,0-0.2,0l-8.6,7.9L15.3,35L15,34.8L3.6,37.4l7.9-8.6
  c0-0.1,0-0.1-0.1-0.2c0,0,0-0.1,0-0.1L0.1,25l11.2-3.5c0,0,0-0.1,0-0.1c0,0,0-0.1,0-0.2l-7.9-8.6l11.5,2.6l0.3-0.3L12.6,3.6l8.6,7.9
  c0.1,0,0.1,0,0.2-0.1c0,0,0.1,0,0.1,0L25,0.1l3.5,11.2c0.1,0,0.2,0,0.3,0.1l8.6-7.9l-2.6,11.5l0.3,0.3l11.5-2.6l-8,8.6
  c0,0,0,0.1,0,0.1c0,0.1,0,0.1,0,0.2L49.9,25l-11.2,3.5c0,0,0,0.1,0,0.1c0,0,0,0.1,0,0.2l7.9,8.6l-11.4-2.6C35,34.9,34.9,35,34.8,35
  l2.6,11.4l-8.6-7.9c-0.1,0-0.1,0-0.2,0.1c0,0-0.1,0-0.1,0L25,49.9z M24,39.3l1,3.3l1-3.3C25.3,39.4,24.6,39.4,24,39.3z M17,36.9
  l-0.8,3.5l2.6-2.4l-0.2-0.1C18.1,37.5,17.5,37.2,17,36.9z M31.2,37.8l2.6,2.4L33,36.7C32.4,37.1,31.8,37.5,31.2,37.8z M25,13.1
  c-6.6,0-11.9,5.3-11.9,11.9S18.4,36.9,25,36.9S36.9,31.6,36.9,25S31.6,13.1,25,13.1z M12.2,31.2l-2.4,2.6l3.5-0.8
  C12.9,32.5,12.5,31.9,12.2,31.2z M36.8,33l3.5,0.8l-2.4-2.6C37.5,31.8,37.2,32.4,36.8,33z M7.4,25l3.3,1c0-0.7,0-1.4,0-2.1L7.4,25z
   M39.3,23.9c0,0.7,0,1.4,0,2.1l3.3-1L39.3,23.9z M9.7,16.2l2.4,2.6c0.3-0.6,0.7-1.2,1.1-1.8L9.7,16.2z M36.8,17
  c0.4,0.5,0.8,1.1,1.1,1.8l2.4-2.6L36.8,17z M31.2,12.1c0.6,0.3,1.2,0.7,1.8,1.1l0.8-3.5L31.2,12.1z M16.2,9.7l0.8,3.5
  c0.6-0.4,1.2-0.8,1.8-1.1L16.2,9.7z M25,7.4l-1,3.3c0.7,0,1.4,0,2,0L25,7.4z"></path>
</symbol>
<symbol viewBox="0 0 50 50" id="hurricane">
<path d="M23.6 35.9C33.7 35.9 41.9 31.4 41.9 25.9C41.9 23.6 40.3 21.4 37.3 19.9C34.6 18.5 30.9 17.7 27.1 17.7C20.3 17.7 15 20.7 15 24.6C15 27.2 18 29.4 22.2 30.1C15.9 29.8 10.7 27.2 10.7 24.2C10.7 19.9 17.9 16.5 26.7 16.5C37.9 16.5 47.3 21 47.3 26.3C47.3 26.9 47.8 27.4 48.4 27.4C49 27.4 49.5 26.9 49.5 26.3C49.5 19.6 39.2 14.2 26.6 14.2C16.5 14.2 8.3 18.7 8.3 24.2C8.3 28.8 14.9 32.4 23.4 32.4C30.2 32.4 35.5 29.4 35.5 25.5C35.5 22.9 32.5 20.7 28.4 20C31.4 20.2 34.2 20.8 36.2 21.9C38.4 23 39.6 24.4 39.6 25.9C39.6 30.2 32.4 33.5999 23.6 33.5999C12.4 33.5999 3 29.1 3 23.8C3 23.2 2.5 22.7 1.9 22.7C1.3 22.7 0.799999 23.2 0.799999 23.8C0.699999 30.4 10.9 35.9 23.6 35.9ZM29.5 24.3C30.2 24.6 30.6 25.1 30.6 25.4C30.6 26.1 29.7 26.7 29.2 27C29 27.1 28.7 27.2 28.5 27.3C29.3 26.7 29.7 25.9 29.7 25.1C29.7 24.8 29.6 24.6 29.5 24.3ZM21.8 22.6C21.1 23.2 20.7 23.9 20.7 24.8C20.7 25.1 20.8 25.4 20.9 25.7C20.1 25.3 19.6 24.9 19.6 24.5C19.5 23.9 20.4 23.1 21.8 22.6ZM17.6 23.1C17.4 23.5 17.2 24 17.2 24.5C17.2 24.9 17.3 25.2 17.4 25.5C17.1 25.2 17 24.8 17 24.5C17.1 24.1 17.3 23.6 17.6 23.1ZM27.1 25C26.9 25.2 26.2 25.5 25.2 25.5C24 25.5 23.2 25.1 22.9 24.9C23.1 24.7 23.8 24.4 24.8 24.4C26 24.4 26.8 24.8 27.1 25Z"></path>
</symbol>
<symbol viewBox="0 0 50 50" id="mixed_precip">
<path id="XMLID_30_"  d="M21.6,47.4c-2.3,0-4.1-1.8-4.1-4.2c0-1.8,1.7-4.4,3.1-6.3l0.9-1.3l1,1.2c0,0,3.3,3.9,3.3,6.4
  C25.7,45.7,24,47.4,21.6,47.4z M21.6,39.6c-1,1.5-1.8,3-1.8,3.6c0,1.1,0.7,1.9,1.8,1.9c1.1,0,1.8-0.7,1.8-1.9
  C23.3,42.6,22.6,41.1,21.6,39.6z M32.2,43c-0.6,0-1.2-0.6-1.2-1.2v-2.8l-2.4,1.4c-0.3,0.2-0.5,0.2-0.6,0.2c-0.4,0-0.8-0.2-1-0.6
  c-0.2-0.2-0.2-0.5-0.1-0.8c0.1-0.3,0.3-0.5,0.5-0.7l2.5-1.5l-2.4-1.4c-0.3-0.1-0.5-0.3-0.6-0.6c-0.1-0.3-0.1-0.7,0.1-1
  c0.1-0.3,0.3-0.5,0.6-0.6c0.3-0.1,0.7-0.1,1,0.1L31,35v-2.8c0-0.6,0.6-1.2,1.2-1.2s1.2,0.6,1.2,1.2V35l2.4-1.4
  c0.2-0.2,0.5-0.2,0.8-0.2c0.3,0.1,0.6,0.3,0.8,0.5c0.2,0.3,0.2,0.6,0.2,0.9c-0.1,0.3-0.3,0.5-0.5,0.7l-2.5,1.5l2.4,1.4
  c0.3,0.1,0.5,0.3,0.6,0.6c0.1,0.3,0.1,0.7-0.1,1c-0.2,0.3-0.5,0.6-1,0.6c-0.1,0-0.4,0-0.6-0.2l-2.4-1.4v2.8
  C33.3,42.5,32.8,43,32.2,43z M15.2,36.9c-0.6,0-1.1-0.5-1.1-1.1v-1.1l-0.9,0.6c-0.4,0.2-1,0.1-1.4-0.3l-0.1-0.2
  c-0.3-0.5-0.1-1.1,0.4-1.4l1-0.6l-1-0.6c-0.4-0.2-0.6-0.8-0.5-1.4c0.3-0.5,0.9-0.8,1.4-0.6l0.1,0l1,0.6v-1.1c0-0.6,0.5-1.1,1.1-1.1
  s1.1,0.5,1.1,1.1v1.1l1-0.6c0.6-0.3,1.1-0.1,1.5,0.4c0.3,0.6,0.1,1.2-0.4,1.5l-1.1,0.6l1,0.6c0.4,0.2,0.6,0.8,0.5,1.4
  c-0.3,0.5-0.9,0.8-1.4,0.6l-0.1,0l-1-0.6v1.1C16.3,36.4,15.8,36.9,15.2,36.9z M39.1,32.2c-0.6,0-1.2-0.6-1.2-1.2s0.6-1.2,1.2-1.2
  c4.4,0,8-3.6,8-8c0-4.4-3.6-8-8-8c-0.9,0-1.7,0.1-2.5,0.4l-1.1,0.4l-0.4-1.1c-1.8-4.9-6.4-8.2-11.6-8.2c-6.3,0-11.6,4.8-12.3,11.1
  l-0.2,1.2l-1.2-0.2c-0.1,0-0.3,0-0.4,0c-0.1,0-0.2,0-0.3,0c-3.5,0-6.3,2.8-6.3,6.3s2.8,6.3,6.3,6.3c0.6,0,1.2,0.6,1.2,1.2
  c0,0.6-0.6,1.2-1.2,1.2c-4.8,0-8.7-3.9-8.7-8.7c0-4.8,3.9-8.7,8.6-8.7c1.2-7,7.3-12.1,14.5-12.1c5.9,0,11.1,3.4,13.5,8.8
  c0.7-0.1,1.4-0.2,2.1-0.2c5.8,0,10.5,4.7,10.5,10.5C49.5,27.5,44.8,32.2,39.1,32.2z M24.9,31.6c-2,0-3.4-1.4-3.4-3.4
  c0-1.4,1.3-3.4,2.3-4.8l1-1.2l0.1,0.1l0,0l0.9,1.1c0.1,0.1,2.1,2.7,2.4,4.4c0,0.1,0,0.3,0,0.4v0c0,0,0,0,0,0l0,0c0,0,0,0,0,0l0,0
  c0,0,0,0,0,0c0,0,0,0,0,0c0,0,0,0,0,0c0,0,0,0,0,0c0,0,0,0,0,0l0,0c0,0,0,0,0,0C28.2,30.1,26.8,31.6,24.9,31.6z M24.9,25.9
  c-0.7,1.1-1.1,1.9-1.1,2.2c0,0.7,0.4,1.1,1.1,1.1c0.7,0,1.1-0.4,1.1-1.1C26,27.8,25.6,27,24.9,25.9z"></path>
</symbol>
<symbol viewBox="0 0 50 50" id="mostly_clear-day">
<path id="XMLID_37_"  d="M41.6,42.7c-0.1,0-0.1,0-0.2,0l-22.9,0c-3.8,0-6.8-3.1-6.8-6.8c0-3.7,2.9-6.7,6.6-6.8
  c1.1-5.4,5.7-9.2,11.2-9.2c4.5,0,8.5,2.6,10.4,6.7c0.5-0.1,1-0.1,1.5-0.1c4.5,0,8.2,3.7,8.2,8.2c0,2.2-0.9,4.3-2.5,5.8
  C45.6,41.9,43.7,42.7,41.6,42.7z M18.3,31.2c-2.5,0.1-4.5,2.1-4.5,4.7c0,2.6,2.1,4.7,4.7,4.7h22.8c3.3,0,5.9-2.7,5.9-5.9
  c0-3.3-2.7-6-5.9-6c-0.5,0-1.2,0.1-1.8,0.3L38.6,29l-0.4-0.8c-1.3-3.7-4.8-6.2-8.7-6.2c-4.8,0-8.7,3.6-9.2,8.3l0,1.2l-1.2-0.2
  C18.8,31.3,18.6,31.3,18.3,31.2z M7,36.8c-0.1,0-0.5,0-0.7-0.3c-0.5-0.5-0.5-1.2-0.1-1.6l4-4.8c0.5-0.5,1.2-0.6,1.6-0.1
  c0.5,0.5,0.5,1.2,0.1,1.6l-3.9,4.7C7.6,36.8,7.2,36.8,7,36.8z M13.6,30.2c-0.1,0-0.4,0-0.7-0.2c-2.1-1.5-3.4-4-3.4-6.6
  c0-4.4,3.5-7.9,7.8-7.9c2.8,0,5.4,1.5,6.7,3.9c0.1,0.3,0.2,0.6,0.1,0.8c-0.1,0.3-0.3,0.5-0.5,0.6c-0.2,0.1-0.5,0.1-0.8,0
  c-0.3-0.1-0.5-0.3-0.6-0.5c-1-1.7-2.9-2.8-4.8-2.8c-3.2,0-5.6,2.5-5.6,5.7c0,2,0.9,3.7,2.5,4.8l0.1,0.1c0.4,0.4,0.5,0.9,0.2,1.4l0,0
  C14.3,30,14,30.2,13.6,30.2z M1.7,27.4l-0.1,0c-0.5,0-0.9-0.4-1.1-0.9l0-0.2c0-0.6,0.4-1.1,1-1.1l6.2-1c0.6,0,1.1,0.4,1.1,1
  c0,0.6-0.4,1.1-1,1.1L1.7,27.4z M8.8,19.7H8.6l-0.3-0.2L3,16.4c-0.2-0.1-0.4-0.3-0.5-0.5c-0.1-0.3-0.1-0.6,0-0.9
  c0.3-0.5,0.9-0.7,1.4-0.5l5.4,3.1c0.2,0.1,0.4,0.3,0.5,0.5c0.1,0.3,0.1,0.6,0,0.9l0,0C9.6,19.5,9.3,19.7,8.8,19.7z M25.8,19.7
  c-0.1,0-0.2,0-0.4-0.1c-0.2,0-0.6-0.1-0.8-0.5c-0.3-0.5,0-1.2,0.5-1.4l5.5-3.1c0.5-0.3,1.2,0,1.5,0.5c0.3,0.5,0,1.2-0.5,1.4
  l-5.3,3.1C26.2,19.7,26,19.7,25.8,19.7z M20.6,15.4h-0.3l-0.1-0.1c-0.5-0.2-0.8-0.9-0.6-1.4l2.1-5.8c0.2-0.3,0.4-0.6,0.7-0.7
  c0.2-0.1,0.5-0.1,0.7,0c0.5,0.2,0.9,0.9,0.6,1.4l-2.1,5.7C21.5,15.1,21.1,15.4,20.6,15.4z M14.3,15.4h-0.3c-0.4,0-0.7-0.2-1-0.6
  l-2.2-5.9c-0.1-0.2-0.1-0.5,0-0.8c0.1-0.3,0.4-0.5,0.7-0.6c0.5-0.2,1.1,0.1,1.4,0.6L15,14c0.2,0.5-0.1,1.1-0.6,1.4L14.3,15.4z"></path>
</symbol>
<symbol viewBox="0 0 50 50" id="mostly_clear-night">
<path  d="M36,46.3H12.6c-3.9,0-7-3.1-7-7c0-3.8,3-6.9,6.8-7c1.1-5.5,5.8-9.4,11.5-9.4c4.5,0,8.7,2.7,10.6,6.8
  c0.5-0.1,1-0.1,1.5-0.1c4.6,0,8.4,3.8,8.4,8.4S40.6,46.3,36,46.3z M12.6,34.6c-2.6,0-4.7,2.1-4.7,4.7S10,44,12.6,44H36
  c3.3,0,6-2.7,6-6s-2.7-6-6-6c-0.6,0-1.2,0.1-1.8,0.3l-1.1,0.3l-0.4-1.1c-1.3-3.7-4.9-6.2-8.8-6.2c-4.8,0-8.9,3.6-9.3,8.4l-0.1,1.2
  l-1.2-0.1C13,34.6,12.8,34.6,12.6,34.6z M15.5,25.7c0.4-0.2,0.5-0.5,0.5-0.6l0.3-0.5l-0.5-0.4c-1.3-1.1-2.1-2.2-2.8-3.6
  c2.1,1.3,4.5,1.9,6.9,1.9c4.3,0,8.2-1.9,10.8-5.3c1.5-2,2.4-4.3,2.7-6.7c2.1,3.9,1.8,8.7-0.9,12.3c-0.1,0.2-0.3,0.4-0.4,0.5
  c-0.2,0.3-0.4,0.5-0.5,0.7c-0.2,0.2-0.3,0.6-0.2,0.9c0.1,0.4,0.5,0.9,1,1c0.3,0.1,0.6,0,0.8-0.2l0,0c0.3-0.3,0.5-0.6,0.8-1
  c0.1-0.2,0.3-0.3,0.4-0.5c4.2-5.5,3.6-13.2-1.3-18l-2.5-2.4l0.6,3.4c0.5,3.1-0.3,6.2-2.1,8.7c-2.2,2.8-5.4,4.4-9,4.4
  c-2.5,0-4.8-0.8-6.8-2.3c-0.5-0.3-0.9-0.7-1.3-1.2l-2.4-2.5l0.5,3.4c0.5,3.4,1.8,6,4.2,8l0.1,0.1l0.2,0c0.1,0,0.2,0,0.3,0
  C15.1,25.9,15.3,25.8,15.5,25.7z"></path>
</symbol>
<symbol viewBox="0 0 50 50" id="mostly_cloudy-day">
<path id="XMLID_38_"  d="M36,40.5H16.1c-3.3,0-6-2.8-6-6c0-3.2,2.6-5.9,5.8-6c1-4.7,5-8,9.9-8c3.9,0,7.4,2.3,9.1,5.8
  c0.4-0.1,0.8-0.1,1.3-0.1c4,0,7.2,3.2,7.2,7.2S40,40.5,36,40.5z M16.1,30.6c-2.2,0-3.9,1.8-3.9,3.9s1.8,3.9,3.9,3.9H36
  c2.8,0,5.1-2.3,5.1-5.1s-2.3-5.1-5.1-5.1c-0.5,0-1,0.1-1.6,0.3l-1.1,0.3l-0.3-1c-1.2-3.1-4.1-5.2-7.5-5.2c-4,0-7.4,3.1-7.9,7.2
  l0,1.2l-1.1-0.3H16.1z M6.4,35.4l-0.2,0c-0.1,0-0.5,0-0.8-0.3c-0.4-0.4-0.5-0.9-0.2-1.3l0.1-0.1l3.4-4.1c0.4-0.4,0.9-0.5,1.4-0.3
  l0.2,0.1c0.4,0.4,0.5,0.9,0.2,1.3l-0.1,0.1L7,35c-0.1,0.1-0.2,0.2-0.3,0.2L6.4,35.4z M44.9,32.3h-0.7c-0.6,0-1-0.5-1-1
  c0-0.6,0.5-1,1-1h0.7c1.4,0,2.6-1.2,2.6-2.6c0-1.4-1.2-2.6-2.6-2.6h-0.3l-1.1,0.3v-1.2c-0.3-2.7-2.6-4.8-5.4-4.8
  c-1.9,0-3.6,0.9-4.6,2.6l-0.1,0.1c-0.4,0.4-0.9,0.5-1.3,0.2l-0.2-0.1c-0.4-0.4-0.5-0.9-0.2-1.3c1.4-2.3,3.8-3.7,6.5-3.7
  c3.6,0,6.6,2.5,7.4,5.9c1,0.1,2,0.5,2.8,1.3c0.9,0.9,1.5,2.1,1.5,3.4C49.7,30.2,47.5,32.3,44.9,32.3z M11.9,30l-0.6-0.5
  c-1.9-1.3-3-3.5-3-5.8c0-3.9,3.1-7,6.8-7c2.5,0,4.8,1.3,6,3.5c0.3,0.5,0,1.2-0.5,1.5c-0.5,0.3-1.2,0-1.5-0.5
  c-0.9-1.5-2.4-2.4-4.1-2.4c-2.6,0-4.7,2.3-4.7,4.9c0,1.6,0.8,3.1,2.2,4.1l0.1,0.1c0.4,0.4,0.4,0.8,0.3,1.3c-0.1,0.2-0.2,0.4-0.5,0.5
  L11.9,30z M1.4,27.1c-0.4,0-0.8-0.2-1-0.7c-0.1-0.3-0.1-0.7,0.1-1C0.7,25.2,0.9,25,1.2,25l5.2-1c0.3-0.1,0.6-0.1,0.8,0.1
  c0.3,0.2,0.4,0.4,0.5,0.7c0.1,0.3,0,0.6-0.1,0.8c-0.2,0.3-0.4,0.5-0.7,0.5l-5.2,1C1.6,27.1,1.5,27.1,1.4,27.1z M22.5,20.5
  c-0.5,0-0.7-0.3-0.9-0.4l-0.1-0.2c-0.3-0.5,0-1.2,0.5-1.5l4.6-2.7c0.2-0.2,0.5-0.3,0.8-0.2c0.3,0.1,0.6,0.3,0.8,0.6
  c0.1,0.2,0.1,0.5,0,0.8c-0.1,0.3-0.3,0.5-0.5,0.6l-4.8,2.8C22.8,20.4,22.6,20.5,22.5,20.5z M7.8,20.5c-0.2,0-0.3,0-0.4-0.1l-5-2.9
  l-0.1-0.2c-0.1-0.2-0.3-0.7-0.1-1.2l0.1-0.2l0.2-0.1c0.2-0.1,0.7-0.3,1.2-0.1l4.9,2.9l0.1,0.2C8.8,19,9,19.4,8.7,19.9l-0.1,0.2
  C8.4,20.3,8.1,20.5,7.8,20.5z M18.1,16.8h-0.3l-0.1-0.1c-0.5-0.3-0.7-0.9-0.5-1.4l1.8-5c0.1-0.3,0.3-0.5,0.6-0.6
  c0.3-0.1,0.6-0.1,0.8,0c0.5,0.3,0.7,0.9,0.5,1.4L19,16.3l-0.1,0.1C18.7,16.6,18.4,16.8,18.1,16.8z M12.5,16.8h-0.3
  c-0.4,0-0.8-0.2-1-0.7l-1.9-5.2c-0.1-0.2-0.1-0.5,0-0.8c0.1-0.2,0.3-0.4,0.5-0.5c0.3-0.1,0.6-0.1,0.8,0c0.2,0.1,0.4,0.3,0.5,0.5
  l1.9,5.2c0.1,0.2,0.1,0.5,0,0.8c-0.1,0.2-0.2,0.4-0.4,0.5L12.5,16.8z"></path>
</symbol>
<symbol viewBox="0 0 50 50" id="mostly_cloudy-night">
<path  d="M45.2,31.1c0-1.3-0.5-2.5-1.5-3.5c-0.8-0.8-1.8-1.2-2.9-1.3c-0.8-3.5-3.9-6-7.6-6c-2.7,0-5.2,1.4-6.6,3.7
  c-0.2,0.3-0.2,0.6-0.1,0.8s0.2,0.5,0.5,0.7s0.5,0.2,0.8,0.1c0.3-0.1,0.5-0.2,0.7-0.5c1-1.7,2.8-2.7,4.7-2.7c2.9,0,5.3,2.1,5.5,5
  l0.1,1.1l1.1-0.1c0.1,0,0.2,0,0.3,0c1.4,0,2.6,1.2,2.6,2.6s-1.2,2.6-2.6,2.6h-0.7c-0.6,0-1.1,0.5-1.1,1.1s0.5,1.1,1.1,1.1h0.7
  C43.1,35.9,45.2,33.7,45.2,31.1z M38.7,36.8c0-4.1-3.3-7.4-7.4-7.4c-0.4,0-0.8,0-1.2,0.1c-1.7-3.6-5.4-5.9-9.3-5.9
  c-5,0-9.1,3.4-10.1,8.2C7.4,32,4.8,34.7,4.8,38c0,3.4,2.8,6.2,6.2,6.2h20.3C35.4,44.2,38.7,40.9,38.7,36.8z M11.5,34l1.1,0.1
  l0.1-1.1c0.4-4.1,3.9-7.3,8-7.3c3.4,0,6.5,2.2,7.6,5.4l0.4,1l1-0.3c0.5-0.2,1-0.2,1.6-0.2c2.9,0,5.2,2.3,5.2,5.2S34.2,42,31.3,42H11
  c-2.2,0-4-1.8-4-4c0-2.2,1.8-4,4-4C11.1,34,11.3,34,11.5,34z M12.8,26.4l0.3-0.1l0.2-0.2c0-0.1,0.2-0.1,0.2-0.2l0.2-0.3l0.2-0.2
  l0.1-0.2l-0.5-0.4c-1.2-1-2.1-2.1-2.7-3.4c1.8,1,3.9,1.6,6,1.6c3.9,0,7.4-1.8,9.8-4.8c1.3-1.8,2.2-3.8,2.4-5.9
  c1.2,2.3,1.5,4.7,0.7,7.2L29.4,20l0.1,0.1l0.5,0.2l0.3,0.1l0.4,0l0.4,0l0.3-0.1l0.3-0.1c1.4-4.3,0.2-8.7-3.2-12.1l-2.4-2.3l0.5,3.3
  c0.5,2.8-0.2,5.5-1.9,7.7c-1.9,2.5-4.8,4-8,4c-2.2,0-4.3-0.7-6.1-2.1c-0.4-0.3-0.8-0.7-1.2-1l-2.3-2.4l0.5,3.3
  c0.4,2.9,1.9,5.7,4.2,7.7l0.1,0.1l0.2,0c0.1,0,0.2,0,0.2,0C12.6,26.5,12.7,26.5,12.8,26.4z"></path>
</symbol>
<symbol viewBox="0 0 75 72" id="new_dust">
<path d="M38.3481 37.44H2.53242C1.26621 37.44 0 36.4089 0 35.0341C0 33.6593 1.08532 32.6282 2.53242 32.6282H38.3481C43.413 32.6282 47.7543 28.5037 47.7543 23.52C47.7543 18.3644 43.413 14.24 38.3481 14.24C34.5495 14.24 31.2935 16.3022 29.6655 19.7393C29.4846 20.2548 28.942 20.7704 28.2184 21.1141C27.6758 21.2859 26.9522 21.2859 26.4096 20.9422C25.8669 20.7704 25.3242 20.2548 25.1433 19.5674C24.9625 19.0519 24.9625 18.3644 25.3242 17.8489C27.4949 12.8652 32.7406 9.6 38.529 9.6C46.488 9.6 53 15.9585 53 23.52C52.8191 31.2533 46.3072 37.44 38.3481 37.44Z"></path>
<path d="M49.5394 62.0848C49.5394 63.2884 50.6239 64.32 51.8892 64.32C58.5773 64.32 64 59.5057 64 52.9719C64 46.4382 58.5773 41.28 51.8892 41.28H4.53061C3.08455 41.28 2 42.4836 2 43.6872C2 44.8907 3.26531 45.9224 4.53061 45.9224H51.8892C56.0466 45.9224 59.1195 48.8454 59.1195 52.8C59.1195 56.4107 55.6851 59.6776 51.8892 59.6776C50.6239 59.6776 49.5394 60.8812 49.5394 62.0848Z"></path>
<ellipse cx="60" cy="34.56" rx="3" ry="2.88" fill="#7F7F7F"></ellipse>
<ellipse cx="35" cy="53.76" rx="3" ry="2.88" fill="#7F7F7F"></ellipse>
<ellipse cx="14" cy="58.56" rx="2" ry="1.92" fill="#7F7F7F"></ellipse>
<ellipse cx="21" cy="25.92" rx="2" ry="1.92" fill="#7F7F7F"></ellipse>
<ellipse cx="12" cy="27.84" rx="2" ry="1.92" fill="#7F7F7F"></ellipse>
<ellipse cx="21" cy="50.88" rx="2" ry="1.92" fill="#7F7F7F"></ellipse>
<ellipse cx="70" cy="43.2" rx="2" ry="1.92" fill="#7F7F7F"></ellipse>
<ellipse cx="66" cy="25.92" rx="2" ry="1.92" fill="#7F7F7F"></ellipse>
</symbol>
<symbol viewBox="0 0 89 75" id="new_snow_sleet">
<path d="M69.5111 53.1556C68.4444 53.1556 67.3778 52.0889 67.3778 51.0222C67.3778 49.9556 68.4444 48.8889 69.5111 48.8889C77.5111 48.8889 83.9111 42.4889 83.9111 34.4889C83.9111 26.4889 77.5111 20.0889 69.5111 20.0889C67.9111 20.0889 66.4889 20.2667 65.0667 20.8L62.9333 21.5111L62.2222 19.3778C59.0222 10.4889 50.6667 4.62222 41.4222 4.62222C30.0444 4.62222 20.6222 13.1556 19.3778 24.5333L19.0222 26.6667L16.8889 26.3111C16.7111 26.3111 16.3556 26.3111 16.1778 26.3111C16 26.3111 15.8222 26.3111 15.6444 26.3111C9.42222 26.3111 4.44444 31.2889 4.44444 37.5111C4.44444 43.7333 9.42222 48.7111 15.6444 48.7111C16.7111 48.7111 17.7778 49.7778 17.7778 50.8444C17.7778 51.9111 16.7111 52.9778 15.6444 52.9778C6.93333 52.9778 0 45.8667 0 37.3333C0 28.8 6.93333 21.6889 15.4667 21.6889C17.6 9.06667 28.4444 0 41.6 0C52.0889 0 61.5111 6.22222 65.7778 15.8222C67.0222 15.6444 68.2667 15.4667 69.5111 15.4667C79.8222 15.4667 88.3556 24 88.3556 34.3111C88 44.6222 79.6444 53.1556 69.5111 53.1556Z"></path>
<path fill-rule="evenodd" clip-rule="evenodd" d="M33.3025 71.1408C32.2582 70.9567 31.5236 70.1725 31.6617 69.3893L33.162 60.8805C33.3001 60.0973 34.2586 59.6117 35.3029 59.7958C36.3472 59.9799 37.0818 60.7641 36.9437 61.5473L35.4433 70.0561C35.3052 70.8393 34.3467 71.3249 33.3025 71.1408Z"></path>
<path fill-rule="evenodd" clip-rule="evenodd" d="M23.9599 61.3525C22.9156 61.1684 22.181 60.3842 22.3191 59.601L23.8195 51.0922C23.9576 50.309 24.9161 49.8234 25.9603 50.0075C27.0046 50.1916 27.7392 50.9758 27.6011 51.759L26.1008 60.2678C25.9627 61.051 25.0042 61.5366 23.9599 61.3525Z"></path>
<path fill-rule="evenodd" clip-rule="evenodd" d="M62.241 71.1856C62.7244 71.2708 63.1854 70.948 63.2707 70.4646C63.3559 69.9811 63.0331 69.5201 62.5497 69.4348L60.2862 69.0357L62.1689 67.7174C62.5711 67.4359 62.6688 66.8816 62.3872 66.4795C62.1056 66.0773 61.5514 65.9796 61.1492 66.2612L59.2664 67.5795L59.6655 65.3159C59.7508 64.8324 59.428 64.3714 58.9445 64.2861C58.461 64.2009 58 64.5237 57.9148 65.0072L57.5156 67.2707L56.1973 65.3879C55.9157 64.9857 55.3614 64.888 54.9593 65.1696C54.5572 65.4512 54.4594 66.0054 54.741 66.4076L56.0594 68.2904L53.7958 67.8913C53.3124 67.806 52.8513 68.1288 52.7661 68.6123C52.6808 69.0958 53.0036 69.5568 53.4871 69.642L55.7508 70.0412L53.8679 71.3596C53.4657 71.6412 53.368 72.1955 53.6496 72.5976C53.9312 72.9997 54.4854 73.0975 54.8876 72.8159L56.7703 71.4976L56.3712 73.761C56.286 74.2445 56.6088 74.7055 57.0923 74.7907C57.5757 74.876 58.0368 74.5532 58.122 74.0697L58.5211 71.8061L59.8395 73.6889C60.1211 74.0911 60.6753 74.1888 61.0775 73.9072C61.4796 73.6256 61.5773 73.0714 61.2957 72.6692L59.9774 70.7865L62.241 71.1856Z"></path>
<path fill-rule="evenodd" clip-rule="evenodd" d="M40.3078 49.2526C40.7913 49.3379 41.2523 49.015 41.3376 48.5316C41.4228 48.0481 41.1 47.5871 40.6166 47.5018L38.3531 47.1027L40.2358 45.7845C40.638 45.5029 40.7357 44.9486 40.4541 44.5465C40.1725 44.1444 39.6183 44.0466 39.2161 44.3282L37.3333 45.6466L37.7324 43.3829C37.8177 42.8994 37.4949 42.4384 37.0114 42.3532C36.5279 42.2679 36.0669 42.5907 35.9817 43.0742L35.5825 45.3377L34.2642 43.4549C33.9826 43.0528 33.4283 42.955 33.0262 43.2366C32.6241 43.5182 32.5263 44.0725 32.8079 44.4746L34.1263 46.3574L31.8627 45.9583C31.3792 45.8731 30.9182 46.1959 30.833 46.6793C30.7477 47.1628 31.0705 47.6238 31.554 47.7091L33.8177 48.1082L31.9348 49.4267C31.5326 49.7082 31.4349 50.2625 31.7165 50.6646C31.9981 51.0668 32.5523 51.1645 32.9545 50.8829L34.8372 49.5646L34.4381 51.828C34.3529 52.3115 34.6757 52.7725 35.1592 52.8578C35.6426 52.943 36.1036 52.6202 36.1889 52.1367L36.588 49.8732L37.9064 51.7559C38.1879 52.1581 38.7422 52.2558 39.1443 51.9742C39.5465 51.6927 39.6442 51.1384 39.3626 50.7363L38.0443 48.8535L40.3078 49.2526Z"></path>
<path fill-rule="evenodd" clip-rule="evenodd" d="M60.1826 55.7808C59.1383 55.5967 58.4037 54.8125 58.5418 54.0293L60.0421 45.5205C60.1802 44.7373 61.1387 44.2517 62.183 44.4358C63.2273 44.6199 63.9619 45.4041 63.8238 46.1873L62.3235 54.6961C62.1854 55.4793 61.2269 55.9649 60.1826 55.7808Z"></path>
<path fill-rule="evenodd" clip-rule="evenodd" d="M47.9709 65.4238C46.9266 65.2397 46.2014 64.4026 46.351 63.5541L47.9763 54.3363C48.1259 53.4878 49.0938 52.9493 50.138 53.1334C51.1823 53.3175 51.9076 54.1546 51.758 55.0031L50.1326 64.2209C49.983 65.0694 49.0152 65.6079 47.9709 65.4238Z"></path>
</symbol>
<symbol viewBox="0 0 87 75" id="new_windy_cloudy">
<path d="M68.1995 53.1512C67.1529 53.1512 66.1064 52.1046 66.1064 51.0581C66.1064 50.0116 67.1529 48.9651 68.1995 48.9651C76.0485 48.9651 82.3277 42.686 82.3277 34.8372C82.3277 26.9884 76.0485 20.7093 68.1995 20.7093C66.6296 20.7093 65.2343 20.8837 63.8389 21.407L61.7458 22.1047L61.0481 20.0116C57.9085 11.2907 49.7106 5.53488 40.6406 5.53488C29.4775 5.53488 20.2331 13.907 19.0121 25.0698L18.6633 27.1628L16.5702 26.814C16.3958 26.814 16.0469 26.814 15.8725 26.814C15.6981 26.814 15.5237 26.814 15.3492 26.814C9.24443 26.814 4.36058 31.6977 4.36058 37.8023C4.36058 43.907 9.24443 48.7907 15.3492 48.7907C16.3958 48.7907 17.4423 49.8372 17.4423 50.8837C17.4423 51.9302 16.3958 52.9767 15.3492 52.9767C6.8025 52.9767 0 46 0 37.6279C0 29.2558 6.8025 22.2791 15.1748 22.2791C17.2679 9.89535 27.9077 1 40.815 1C51.106 1 60.3504 7.10465 64.5366 16.5233C65.7575 16.3488 66.9785 16.1744 68.1995 16.1744C78.316 16.1744 86.6883 24.5465 86.6883 34.6628C86.3395 44.7791 78.1416 53.1512 68.1995 53.1512Z"></path>
<path d="M57.4286 74C56.4286 74 55.5714 73.1455 55.5714 72.1486C55.5714 71.1516 56.4286 70.1547 57.4286 70.1547C60.4286 70.1547 63.1429 67.4487 63.1429 64.458C63.1429 61.1823 60.7143 58.7612 57.4286 58.7612H20C19 58.7612 18 57.9067 18 56.9098C18 55.9129 18.8571 54.9159 20 54.9159H57.4286C62.7143 54.9159 67 59.1885 67 64.6004C67 70.0123 62.7143 74 57.4286 74ZM55.4286 50.0718H27.1429C26.1429 50.0718 25.1429 49.2173 25.1429 48.0779C25.1429 46.9386 26 46.0841 27.1429 46.0841H55.4286C59.4286 46.0841 62.8571 42.666 62.8571 38.5359C62.8571 34.2633 59.4286 30.8453 55.4286 30.8453C52.4286 30.8453 49.8571 32.5543 48.5714 35.4027C48.4286 35.8299 48 36.2572 47.4286 36.542C47 36.6845 46.4286 36.6845 46 36.3996C45.5714 36.2572 45.1429 35.8299 45 35.2603C44.8571 34.833 44.8571 34.2633 45.1429 33.8361C46.8571 29.706 51 27 55.5714 27C61.8571 27 67 32.2695 67 38.5359C66.8571 44.9447 61.7143 50.0718 55.4286 50.0718Z"></path>
</symbol>
<symbol viewBox="0 0 50 50" id="nodata">
<path  d="M41.4,45.1H8.6c-2.6,0-4.5-0.9-5.5-2.5c-0.9-1.6-0.8-3.8,0.5-6L20.1,8.2c1.3-2.2,3-3.4,4.9-3.4s3.6,1.2,4.9,3.4
  l16.4,28.3c1.3,2.2,1.5,4.4,0.5,6C45.9,44.2,43.9,45.1,41.4,45.1z M25,6.1c-1.4,0-2.8,1-3.8,2.8L4.8,37.2c-1,1.8-1.2,3.5-0.5,4.7
  s2.2,1.9,4.3,1.9h32.7c2.1,0,3.6-0.7,4.3-1.9s0.5-2.9-0.5-4.7L28.8,8.8C27.8,7,26.4,6.1,25,6.1z M41.4,45.9H8.6c-2.8,0-5-1-6.1-2.8
  c-1.1-1.9-0.9-4.4,0.5-6.7L19.5,7.9C21,5.4,22.9,4.1,25,4.1c2.2,0,4.1,1.3,5.5,3.7l16.4,28.3c1.4,2.4,1.6,4.9,0.5,6.7
  C46.4,44.8,44.2,45.9,41.4,45.9z M25,6.9c-1.2,0-2.3,0.9-3.2,2.4L5.4,37.6c-0.9,1.6-1.1,3-0.5,4c0.6,1,1.9,1.6,3.7,1.6h32.7
  c1.8,0,3.1-0.6,3.7-1.6c0.6-1,0.4-2.4-0.5-4L28.2,9.2C27.4,7.7,26.2,6.9,25,6.9z M45.9,37.3c0.6,1.2,0.9,2.4,0.8,3.5
  C46.8,39.7,46.6,38.5,45.9,37.3z M26.4,38.9h-2.9v-4.5h2.9V38.9z M26,31.4h-2l-0.3-9.4v-7.9h2.8v7.9L26,31.4z"></path>
</symbol>
<symbol viewBox="0 0 50 50" id="rain">
<path id="XMLID_27_" d="M25,46.6c-8.5,0-14.7-6.3-14.7-14.9c0-9,13.7-26.4,14.3-27.1L25,4l0.4,0.5C26,5.3,39.7,22.7,39.7,31.6
  C39.7,40.3,33.5,46.6,25,46.6z M25,5.7c-2.3,3-13.7,18.2-13.7,26c0,8.2,5.6,13.9,13.7,13.9c8,0,13.7-5.7,13.7-13.9
  C38.7,23.9,27.3,8.6,25,5.7z"></path>
<path  d="M25,47.3c-9,0-15.5-6.6-15.5-15.6C9.5,22.1,23.9,4.2,24,4.1l0.9-1.4l1.2,1.5c4.3,5.6,14.3,19.4,14.3,27.3
  C40.5,40.7,34,47.3,25,47.3z M25,6.9c-3.2,4.2-13,17.8-13,24.8c0,7.7,5.3,13.1,13,13.1s13-5.4,13-13.1C38,25.1,29.1,12.2,25,6.9z"></path>
</symbol>
<symbol viewBox="0 0 50 50" id="showers_scattered_rain">
<path id="XMLID_45_"  d="M25.7,26.9c-0.7,0.9-1.5,2.3-1.5,2.9c0,0.9,0.6,1.5,1.5,1.5c0.9,0,1.5-0.6,1.5-1.5
  C27.2,29.1,26.4,27.8,25.7,26.9z M17.3,31.4c-0.8,1.1-2.1,3.1-2.1,4.1c0,1.3,0.8,2.2,2.1,2.2s2.1-0.9,2.1-2.2
  C19.4,34.5,18.1,32.5,17.3,31.4z M32.4,34.9c-0.9,1.2-2.7,3.8-2.7,5.1c0,1.6,1.1,2.7,2.7,2.7c1.6,0,2.7-1.1,2.7-2.7
  C35,38.6,33.4,36.1,32.4,34.9z M32.4,44.9c-2.7,0-4.8-2-4.8-4.8c0-2.7,3.6-7.2,3.9-7.5l0.8-1.1l0.9,1.1c0.9,1.1,3.9,5,3.9,7.5
  C37.1,43,35.1,44.9,32.4,44.9z M17.3,39.8c-2.3,0-4.1-1.8-4.1-4.2c0-1.7,1.7-4.3,3.1-6.2l1-1.2l1,1.2c1.4,1.9,3.1,4.5,3.1,6.2
  c0.1,1.1-0.3,2.2-1.1,2.9C19.5,39.4,18.5,39.8,17.3,39.8z M39.1,34.7c-0.7,0-1.2-0.6-1.2-1.2c0-0.6,0.6-1.2,1.2-1.2c4.4,0,8-3.6,8-8
  c0-4.4-3.6-8-8-8c-0.9,0-1.7,0.1-2.4,0.4l-1.2,0.4l-0.4-1.2c-1.7-4.9-6.3-8.2-11.5-8.2c-6.3,0-11.6,4.8-12.2,11.1L11.1,20l-1.3-0.2
  c-0.2-0.1-0.4-0.1-0.7-0.1c-3.4,0-6.2,2.8-6.2,6.2c0,3.4,2.8,6.2,6.2,6.2c0.6,0,1.2,0.6,1.2,1.2c0,0.6-0.6,1.2-1.2,1.2
  c-4.8,0-8.8-3.9-8.8-8.8c0-4.8,3.9-8.7,8.6-8.8c1.3-6.9,7.4-12.1,14.6-12.1c5.8,0,11.1,3.5,13.5,8.8c0.7-0.1,1.4-0.2,2.1-0.2
  c5.8,0,10.5,4.7,10.5,10.5C49.6,29.9,44.9,34.6,39.1,34.7z M25.7,33.3c-1.9,0-3.4-1.5-3.4-3.4c0-1.8,2.3-4.8,2.5-5l0.8-1.1l0.9,1.1
  c0.1,0.1,0.1,0.1,0.2,0.2c1,1.3,2.3,3.3,2.3,4.7C29.1,31.8,27.6,33.3,25.7,33.3z"></path>
</symbol>
<symbol viewBox="0 0 50 50" id="snow">
<path  d="M25.9,47.8c-0.3,0-0.4-0.1-0.6-0.2c-0.2-0.1-0.4-0.2-0.4-0.4c-0.1-0.2-0.3-0.4-0.3-0.8v-4l-4.1,4
  c-0.1,0.1-0.4,0.4-0.9,0.4c-0.2,0-0.6,0-0.9-0.2l-0.2-0.1c-0.2-0.2-0.4-0.4-0.4-0.8c0-0.3,0.1-0.8,0.4-1.1l6-6V27.1l-10.8,6.3
  l-2.4,7.8c-0.2,0.4-0.6,0.7-1.1,0.7c-0.2,0-0.6,0-0.9-0.3l-0.1-0.1C9,41.2,8.8,40.7,9.1,40l1.5-5L7.3,37c-0.3,0.2-0.7,0.2-0.9,0.2
  c-0.4,0-0.8-0.2-1-0.6c-0.2-0.3-0.2-0.6-0.2-0.9c0-0.5,0.2-0.8,0.7-1l3.5-2L4,31.1c-0.3,0-0.6-0.2-0.8-0.4l-0.1-0.2
  c-0.1-0.3-0.3-0.5-0.3-0.8c0-0.3,0.2-0.7,0.4-0.9c0.3-0.2,0.7-0.3,1.1-0.2l8.2,2.2l10.4-6l-10.4-6L4.2,21c-0.3,0-0.8,0-1.1-0.3
  c-0.3-0.3-0.3-0.6-0.3-0.8c0-0.4,0.2-0.7,0.4-1c0.2-0.2,0.5-0.3,0.8-0.4L9.4,17l-3.7-2.2c-0.1-0.1-0.3-0.3-0.4-0.6l-0.1-0.1v-0.2
  c0-0.2,0-0.5,0.2-0.8l0.1-0.2c0.1-0.1,0.3-0.3,0.6-0.4l0.1-0.1h0.2c0.2,0,0.5,0,0.8,0.2l3.4,2L9.2,9.6C9,9.4,9,9.2,9,9
  c0-0.2,0.2-0.6,0.7-0.8c0.2-0.2,0.6-0.2,1-0.1c0.3,0.1,0.6,0.3,0.8,0.6l0.1,0.2l2.3,7.8l10.8,6.2V11.2l-6.2-6.1
  c-0.4-0.6-0.3-1.5,0.3-1.9L19,3.1h0.2c0.1,0,0.4-0.1,0.7,0c0.4,0,0.7,0.2,0.9,0.6l3.9,3.9v-4c0-0.7,0.6-1.3,1.3-1.3s1.3,0.6,1.3,1.3
  v3.9l3.4-3.7c0.1-0.3,0.3-0.4,0.4-0.5L31.4,3l0.3,0c0.1,0,0.5,0,0.8,0.2c0.3,0.2,0.7,0.6,0.7,1.1c0,0.1,0,0.5-0.3,0.8l-5.5,6v11.2
  l8.9-5.1l2.2-8.4c0.4-0.6,1-0.9,1.6-0.7l0.2,0.1l0.1,0.1c0.2,0.1,0.4,0.3,0.5,0.6c0.2,0.4,0.2,0.8,0,1.1l-1.4,5.4l3.5-2
  c0.3-0.2,0.7-0.2,0.8-0.2c0.4,0,0.8,0.2,1,0.6c0.2,0.3,0.2,0.6,0.2,0.9c0,0.5-0.2,0.8-0.7,1l-3.3,1.9l5,1.2c0.4,0,0.7,0.3,0.8,0.4
  c0.3,0.3,0.3,0.7,0.3,1c0,0.9-0.5,1.5-1.2,1.5l-0.2,0l-7.9-1.9L28.6,25l9.3,5.3l7.9-2.2c0.8,0,1.3,0.8,1.3,1.6c0,0.3,0,0.7-0.3,1
  c-0.1,0.1-0.4,0.4-0.8,0.4l-5,1.2l3.5,2.1c0.2,0.1,0.5,0.4,0.5,0.9c0,0.2,0,0.5-0.2,0.8l-0.1,0.2c-0.1,0.1-0.3,0.3-0.6,0.4l-0.1,0.1
  h-0.2c-0.2,0-0.5,0-0.8-0.2l-3.6-2.1l1.4,5.4c0.2,0.3,0.2,0.7,0,1.1c-0.1,0.2-0.3,0.6-0.7,0.8l0,0c-0.1,0.1-0.3,0.2-0.5,0.2
  c-0.5,0-0.8-0.3-1.1-0.6l-0.1-0.1l0-0.2l-2.1-8.3l-8.9-5.1v11.2l5.6,5.9c0.3,0.3,0.3,0.6,0.3,0.9c0,0.5-0.4,0.9-0.7,1.1
  c-0.3,0.2-0.6,0.2-0.8,0.2c-0.4,0-0.6-0.3-0.8-0.5l-3.6-3.8v3.9c0,0.5-0.3,0.9-0.7,1C26.5,47.7,26.2,47.8,25.9,47.8z"></path>
</symbol>
<symbol viewBox="0 0 50 50" id="snow_flurries">
<path id="XMLID_38_"  d="M32.2,45.3c-0.6,0-1.2-0.6-1.2-1.2v-2.7l-2.3,1.4c-0.3,0.2-0.5,0.2-0.7,0.2
  c-0.5,0-0.9-0.2-1.1-0.6c-0.1-0.2-0.2-0.5-0.1-0.8c0.1-0.3,0.3-0.6,0.6-0.8l2.4-1.4l-2.4-1.4c-0.3-0.1-0.5-0.3-0.6-0.6
  c-0.1-0.3-0.1-0.7,0.1-1c0.1-0.3,0.3-0.5,0.6-0.6c0.4-0.1,0.8-0.1,1.1,0.1l2.3,1.4v-2.7c0-0.6,0.6-1.2,1.2-1.2
  c0.6,0,1.2,0.6,1.2,1.2v2.7l2.4-1.4c0.2-0.2,0.5-0.2,0.8-0.2c0.3,0.1,0.6,0.3,0.8,0.6c0.4,0.6,0.2,1.3-0.4,1.7l-2.4,1.4l2.4,1.4
  c0.3,0.1,0.5,0.3,0.6,0.6c0.1,0.4,0.1,0.8-0.1,1.1c-0.2,0.3-0.6,0.6-1,0.6c-0.1,0-0.4,0-0.7-0.2l-2.3-1.4v2.7
  C33.4,44.7,32.8,45.3,32.2,45.3z M16.8,42.7c-0.6,0-1.2-0.6-1.2-1.2v-1.8L14,40.6c-0.3,0.2-0.5,0.2-0.7,0.2c-0.5,0-0.9-0.2-1.1-0.6
  c-0.3-0.5-0.2-1.2,0.4-1.6l1.6-0.9l-1.5-0.9c-0.5-0.2-0.8-0.9-0.5-1.6c0.1-0.3,0.4-0.6,0.7-0.7c0.4-0.1,0.8-0.1,1.1,0.1l1.6,0.9
  v-1.8c0-0.6,0.6-1.2,1.2-1.2S18,33,18,33.7v1.8l1.6-0.9c0.3-0.2,0.6-0.2,0.9-0.1c0.3,0.1,0.5,0.3,0.7,0.5c0.4,0.6,0.2,1.3-0.4,1.7
  l-1.6,0.9l1.5,0.9c0.3,0.1,0.5,0.3,0.6,0.6c0.1,0.4,0.1,0.8-0.1,1.1c-0.2,0.3-0.6,0.6-1,0.6c-0.1,0-0.4,0-0.7-0.2L18,39.7v1.8
  C18,42.2,17.4,42.7,16.8,42.7z M39.1,34.4c-0.6,0-1.2-0.6-1.2-1.2c0-0.6,0.6-1.2,1.2-1.2c4.4,0,8-3.6,8-8c0-4.4-3.6-8-8-8
  c-0.9,0-1.7,0.1-2.4,0.4l-1.2,0.4l-0.4-1.2c-1.8-4.9-6.4-8.2-11.5-8.2c-6.3,0-11.6,4.8-12.2,11.1l-0.2,1.3l-1.2-0.2
  c-0.2,0-0.3,0-0.5-0.1c-0.1,0-0.2,0-0.3,0c-3.4,0-6.2,2.8-6.2,6.2c0,3.4,2.8,6.2,6.2,6.2c0.6,0,1.2,0.6,1.2,1.2s-0.6,1.2-1.2,1.2
  c-4.8,0-8.8-3.9-8.8-8.8c0-4.8,3.9-8.7,8.6-8.8c1.3-7,7.3-12.1,14.6-12.1c5.9,0,11.1,3.4,13.5,8.8c0.7-0.1,1.3-0.2,2.1-0.2
  c5.8,0,10.5,4.7,10.5,10.5C49.5,29.7,44.8,34.4,39.1,34.4z M25.1,34.4c-0.6,0-1.2-0.6-1.2-1.2v-0.8l-0.7,0.4
  c-0.3,0.2-0.5,0.2-0.7,0.2c-0.5,0-0.9-0.2-1.1-0.6c-0.2-0.2-0.2-0.6-0.1-0.9c0.1-0.3,0.3-0.5,0.5-0.7l0.8-0.4L22,29.8
  c-0.3-0.1-0.5-0.3-0.6-0.6c-0.1-0.3-0.1-0.7,0.1-1c0.1-0.3,0.3-0.5,0.6-0.6c0.4-0.1,0.8-0.1,1.1,0.1l0.7,0.4v-0.8
  c0-0.6,0.6-1.2,1.2-1.2c0.6,0,1.2,0.6,1.2,1.2v0.8l0.7-0.4c0.2-0.2,0.5-0.2,0.8-0.2c0.3,0.1,0.6,0.3,0.8,0.6
  c0.2,0.3,0.3,0.6,0.2,0.9c-0.1,0.3-0.3,0.5-0.5,0.7l-0.8,0.4l0.7,0.4c0.3,0.1,0.5,0.3,0.6,0.6c0.1,0.4,0.1,0.8-0.1,1.1
  c-0.2,0.3-0.6,0.6-1,0.6c-0.1,0-0.4,0-0.7-0.2l-0.7-0.4v0.8C26.3,33.8,25.7,34.4,25.1,34.4z"></path>
</symbol>
<symbol viewBox="0 0 50 50" id="thunderstorm">
<path id="XMLID_27_"  d="M34.2,39.9c-0.8,1-1.9,2.9-1.9,3.8c0,1.2,0.8,2,1.9,2c1.2,0,1.9-0.8,1.9-2
  C36.1,42.6,35,40.9,34.2,39.9z M14.3,35.4c-0.7,1-1.6,2.3-1.6,3c0,1,0.6,1.6,1.6,1.6s1.6-0.7,1.6-1.6C15.9,37.8,15,36.4,14.3,35.4z
   M20.2,29.1H25l-1,10.2l5.6-11.4h-5.8l3.9-12.8h-5.5L20.2,29.1z M21.5,48.8l1-17.7h-4.9L20.3,13H31l-4.5,12.4H33L21.5,48.8z
   M34.2,48c-2.3,0-4.1-1.8-4.1-4.2c0-1.7,1.7-4.3,3.1-6.2l1-1.2l1,1.2c1.4,1.9,3.1,4.5,3.1,6.2C38.3,46.3,36.6,48,34.2,48z M14.3,42
  c-2,0-3.4-1.5-3.4-3.4c0-1.5,1.4-3.4,2.1-4.5c0.1-0.2,0.3-0.4,0.3-0.4l0.1-0.1l0.9-1.2l1.1,1.4c1,1.4,2.3,3.4,2.3,4.8
  C17.7,40.5,16.3,42,14.3,42z M39.2,30h-3c-0.7,0-1.3-0.6-1.3-1.3s0.6-1.3,1.3-1.3h3c4.4,0,7.9-3.6,7.9-7.9s-3.6-7.9-7.9-7.9
  c-0.9,0-1.7,0.1-2.4,0.4l-1.2,0.4l-0.4-1.2c-1.7-4.9-6.3-8.2-11.5-8.2c-6.3,0-11.5,4.7-12.2,11l-0.2,1.3L9.9,15
  C9.7,15,9.5,15,9.2,15C5.8,15,3,17.7,3,21.1s2.8,6.2,6.2,6.2h3.1c0.7,0,1.3,0.6,1.3,1.3c0,0.7-0.6,1.3-1.3,1.3H9.1
  c-4.9,0-8.8-4-8.8-8.8c0-4.8,3.9-8.7,8.6-8.8c1.3-6.9,7.5-12.1,14.6-12.1c5.8,0,11.1,3.5,13.5,8.8c0.7-0.1,1.4-0.2,2-0.2
  c5.8,0,10.6,4.7,10.6,10.6C49.7,25.2,45,30,39.2,30z"></path>
</symbol>
<symbol viewBox="0 0 50 50" id="tornado">
<path  d="M25,17.3c-5.7,0-11-0.4-15-1.2c-4.8-1-7.1-2.3-7.1-4.2c0-1.9,2.3-3.2,7.1-4.2c4-0.8,9.3-1.2,15-1.2
  c5.7,0,11,0.4,15,1.2c4.8,1,7.1,2.3,7.1,4.2c0,1.9-2.3,3.2-7.1,4.2C36,16.8,30.7,17.3,25,17.3z M5.5,11.9c0.4,0.3,1.6,1.1,5.5,1.8
  c3.8,0.7,8.8,1.1,14.1,1.1c5.3,0,10.2-0.4,14.1-1.1c3.9-0.7,5.1-1.5,5.5-1.8c-0.4-0.3-1.6-1.1-5.5-1.8C35.2,9.3,30.3,8.9,25,8.9
  c-5.3,0-10.2,0.4-14.1,1.1C7.1,10.8,5.8,11.6,5.5,11.9z M25,22.7c-7.7,0-14.6-0.8-18.5-2.1l0,0c-0.6-0.2-1-0.9-0.8-1.6
  c0.2-0.6,0.9-1,1.6-0.8c3.6,1.2,10.4,2,17.7,2c7,0,13.7-0.7,17.4-1.9c0.3-0.1,0.6-0.1,0.9,0.1c0.3,0.2,0.5,0.4,0.6,0.7
  c0.1,0.3,0.1,0.6-0.1,0.9c-0.1,0.3-0.4,0.5-0.7,0.6C39.2,22,32.4,22.7,25,22.7z M25,28.2c-3.2,0-6.3-0.1-9.2-0.4
  c-0.7-0.1-1.3-0.7-1.2-1.4c0.1-0.7,0.7-1.3,1.4-1.2c2.8,0.2,5.9,0.4,9,0.4c7.5,0,14.5-0.7,18.7-1.9c0.3-0.1,0.7-0.1,1,0.1
  c0.3,0.2,0.5,0.5,0.6,0.8c0.1,0.3,0.1,0.7-0.1,1c-0.2,0.3-0.5,0.5-0.8,0.6C40,27.5,32.7,28.2,25,28.2z M22,33.1
  c-0.7,0-1.3-0.6-1.3-1.4s0.6-1.3,1.4-1.3c1.5,0,5.7,0,7,0c4.3-0.1,8.2-0.4,11.4-1c0.7-0.1,1.4,0.4,1.5,1.1c0.1,0.4,0,0.7-0.2,1
  c-0.2,0.3-0.5,0.5-0.9,0.5c-3.3,0.6-7.4,0.9-11.8,1C27.7,33.2,23.4,33.2,22,33.1z M25,38.2c-0.7,0-1.3-0.6-1.3-1.4
  c0-0.7,0.6-1.3,1.4-1.3c1.4,0,2.7,0,4.1,0c2.4,0,4.7-0.1,6.9-0.3c0.7-0.1,1.4,0.5,1.4,1.2c0,0.4-0.1,0.7-0.3,1
  c-0.2,0.3-0.6,0.4-0.9,0.5c-2.2,0.2-4.6,0.3-7.1,0.3C27.8,38.3,26.4,38.3,25,38.2z M25,43.5c-0.7,0-0.9,0-1.4,0l-0.6,0
  c-0.7,0-1.3-0.7-1.3-1.4c0-0.7,0.7-1.3,1.4-1.3l0.5,0c0.5,0,0.7,0,1.4,0c1.7,0,3.3,0,4.9,0c0.7,0,1.4,0.6,1.4,1.3
  c0,0.4-0.1,0.7-0.4,1c-0.2,0.3-0.6,0.4-0.9,0.4C28.4,43.5,26.7,43.5,25,43.5z"></path>
</symbol>
<symbol viewBox="0 0 50 50" id="windy">
<path id="XMLID_1_"  d="M33.1,44.5c-0.7,0-1.3-0.6-1.3-1.3c0-0.7,0.6-1.4,1.3-1.4c2.1,0,4-1.9,4-4c0-2.3-1.7-4-4-4H6.9
  c-0.7,0-1.4-0.6-1.4-1.3c0-0.7,0.6-1.4,1.4-1.4h26.2c3.7,0,6.7,3,6.7,6.8S36.8,44.5,33.1,44.5z M38.3,28.8H1.6
  c-0.7,0-1.4-0.6-1.4-1.3c0-0.7,0.6-1.4,1.4-1.4h36.7C43,26,47,22,47,17.1c0-4.9-4-9-8.8-9c-0.7,0-1.3-0.6-1.3-1.4
  c0-0.7,0.6-1.3,1.3-1.3c6.3,0,11.5,5.2,11.5,11.6S44.6,28.8,38.3,28.8z M31.7,23.8H11.9c-0.7,0-1.4-0.6-1.4-1.4s0.6-1.4,1.4-1.4
  h19.8c2.8,0,5.2-2.4,5.2-5.3c0-3-2.4-5.4-5.2-5.4c-2.1,0-3.9,1.2-4.8,3.2c-0.1,0.3-0.4,0.6-0.8,0.8c-0.3,0.1-0.7,0.1-1-0.1
  c-0.3-0.1-0.6-0.4-0.7-0.8c-0.1-0.3-0.1-0.7,0.1-1c1.2-2.9,4.1-4.8,7.3-4.8c4.4,0,8,3.7,8,8.1C39.7,20.2,36.1,23.8,31.7,23.8z"></path>
</symbol>
  </defs>
</svg>