<svg width="24" height="24" viewBox="0 0 24 24" fill="none" xmlns="http://www.w3.org/2000/svg">
<path d="M12.7812 2.19922C14.649 2.19922 16.2325 3.41851 16.7783 5.10449C17.0208 5.03596 17.2766 4.99906 17.541 4.99902C19.0873 4.99902 20.3416 6.25254 20.3418 7.79883C20.3418 8.64299 19.9658 9.39776 19.375 9.91113C19.1561 8.30815 17.7832 7.0733 16.1201 7.07324C14.3049 7.07324 12.8332 8.54419 12.833 10.3594C12.833 10.44 12.8361 10.5204 12.8418 10.5996H8.78125C7.12454 10.5996 5.78148 9.25627 5.78125 7.59961C5.78125 5.94275 7.1244 4.59961 8.78125 4.59961C8.84885 4.59961 8.91594 4.60107 8.98242 4.60547C9.6552 3.18314 11.1034 2.19929 12.7812 2.19922Z" fill="#F1F3F6"/>
<path d="M12.7812 2.19922C14.5323 2.19922 16.0336 3.27073 16.6641 4.79395L16.7783 5.10449C17.0208 5.03596 17.2766 4.99906 17.541 4.99902C19.0873 4.99902 20.3416 6.25254 20.3418 7.79883L20.3281 8.07031C20.2575 8.80468 19.9019 9.4544 19.375 9.91211C19.2954 9.32801 19.0633 8.79316 18.7188 8.34863C18.797 8.18141 18.8418 7.99538 18.8418 7.79883C18.8416 7.08097 18.2589 6.49902 17.541 6.49902C17.416 6.49906 17.2975 6.51651 17.1865 6.54785L15.7959 6.94043L15.3506 5.56641C14.9991 4.4811 13.9796 3.69922 12.7812 3.69922C11.7049 3.69929 10.773 4.32927 10.3389 5.24707L9.90234 6.16992L8.88379 6.10254C8.85024 6.10032 8.81575 6.09961 8.78125 6.09961C7.95282 6.09961 7.28125 6.77118 7.28125 7.59961C7.28148 8.42784 7.95297 9.09961 8.78125 9.09961H12.8076L12.8213 9.09863V9.09961H13.084C12.9227 9.48765 12.8331 9.91298 12.833 10.3594C12.833 10.44 12.8361 10.5204 12.8418 10.5996H8.78125L8.62695 10.5957C7.09304 10.518 5.86308 9.28776 5.78516 7.75391L5.78125 7.59961C5.78125 5.94275 7.1244 4.59961 8.78125 4.59961L8.98242 4.60547C9.6552 3.18314 11.1034 2.19929 12.7812 2.19922Z" fill="#71767A"/>
<path d="M9.38135 4.59924L11.4598 5.79924L10.8598 6.83847L8.78135 5.63847L9.38135 4.59924Z" fill="#71767A"/>
<path d="M17.3423 10.5996C17.3423 9.90183 16.7843 9.34961 16.1128 9.34961C15.6185 9.34972 15.1864 9.64768 14.9917 10.0869C14.824 10.4657 14.3802 10.6374 14.0015 10.4697C13.6231 10.302 13.4523 9.85903 13.6196 9.48047C14.0429 8.52446 14.9966 7.84972 16.1128 7.84961C17.6275 7.84961 18.8423 9.08825 18.8423 10.5996C18.8423 12.111 17.6275 13.3496 16.1128 13.3496H9.23193C8.81773 13.3496 8.48193 13.0138 8.48193 12.5996C8.48193 12.1854 8.81773 11.8496 9.23193 11.8496H16.1128C16.7843 11.8496 17.3423 11.2974 17.3423 10.5996Z" fill="#2C608A"/>
<path d="M15.4998 14.5962C15.7758 14.5963 15.9998 14.8201 15.9998 15.0962V16.479L17.198 15.7886C17.4372 15.6505 17.7436 15.732 17.8816 15.9712C18.0196 16.2103 17.9371 16.5157 17.698 16.6538L16.4978 17.3462L17.698 18.0386C17.9369 18.1767 18.0185 18.4821 17.8806 18.7212C17.7426 18.9602 17.4371 19.0426 17.198 18.9048L15.9998 18.2124V19.5962C15.9998 19.8723 15.7758 20.0961 15.4998 20.0962C15.2236 20.0962 14.9998 19.8723 14.9998 19.5962V18.2104L13.8006 18.9038C13.5614 19.0417 13.256 18.9603 13.118 18.7212C12.98 18.4822 13.0618 18.1768 13.3006 18.0386L14.4988 17.3462L13.3006 16.6548C13.0614 16.5167 12.9799 16.2103 13.118 15.9712C13.2561 15.7324 13.5616 15.6506 13.8006 15.7886L14.9998 16.48V15.0962C14.9998 14.82 15.2236 14.5962 15.4998 14.5962Z" fill="#8D9297"/>
<path d="M8.2085 15.4798C8.34663 15.2408 8.65205 15.1591 8.89111 15.2972C9.13016 15.4353 9.21178 15.7407 9.07373 15.9798L8.38232 17.178H9.76611C10.0422 17.178 10.266 17.402 10.2661 17.678C10.2661 17.9542 10.0423 18.178 9.76611 18.178H8.38135L9.07373 19.3763C9.21175 19.6153 9.13004 19.9217 8.89111 20.0599C8.65197 20.1979 8.34559 20.1154 8.20752 19.8763L7.51514 18.678L6.82373 19.8773C6.68556 20.1161 6.38014 20.1979 6.14111 20.0599C5.90202 19.9218 5.82045 19.6164 5.9585 19.3773L6.65088 18.178H5.26611C4.98997 18.178 4.76611 17.9542 4.76611 17.678C4.76624 17.402 4.99005 17.178 5.26611 17.178H6.6499L5.95752 15.9798C5.81945 15.7406 5.90197 15.4343 6.14111 15.2962C6.38018 15.1585 6.68576 15.2408 6.82373 15.4798L7.51611 16.679L8.2085 15.4798Z" fill="#8D9297"/>
<path d="M4.56619 8.97681C4.84215 8.97703 5.06619 9.2008 5.06619 9.47681V10.8596L6.26444 10.1682C6.50352 10.0305 6.80906 10.1128 6.94705 10.3518C7.08504 10.5908 7.00333 10.8963 6.76444 11.0344L5.56424 11.7258L6.76444 12.4192C7.0034 12.5573 7.08508 12.8627 6.94705 13.1018C6.80895 13.3409 6.50354 13.4225 6.26444 13.2844L5.06619 12.592V13.9768C5.06619 14.2528 4.84215 14.4766 4.56619 14.4768C4.29005 14.4768 4.06619 14.2529 4.06619 13.9768V12.592L2.86698 13.2844C2.6279 13.4225 2.32249 13.3408 2.18436 13.1018C2.04629 12.8627 2.12783 12.5563 2.36698 12.4182L3.56424 11.7258L2.36698 11.0344C2.12811 10.8963 2.04636 10.5908 2.18436 10.3518C2.32244 10.1127 2.62785 10.0311 2.86698 10.1692L4.06619 10.8606V9.47681C4.06619 9.20066 4.29005 8.97681 4.56619 8.97681Z" fill="#8D9297"/>
</svg>
