<svg width="40" height="40" viewBox="0 0 40 40" fill="none" xmlns="http://www.w3.org/2000/svg">
<mask id="path-1-inside-1_2139_2287" fill="white">
<path d="M14.6665 4C11.8699 4.00018 9.45759 5.64091 8.33643 8.01172C8.22523 8.00433 8.11258 8 7.99951 8C5.23831 8.00026 2.99951 10.2387 2.99951 13C2.99951 15.6751 5.10085 17.8592 7.74268 17.9932L7.99951 18H22.9995V17.9814C25.39 17.7789 27.2671 15.7759 27.2671 13.333C27.2669 10.7558 25.1774 8.66699 22.6001 8.66699C22.1589 8.66701 21.7322 8.72834 21.3276 8.84277C20.418 6.03253 17.7797 4 14.6665 4Z"/>
</mask>
<path d="M14.6665 4C11.8699 4.00018 9.45759 5.64091 8.33643 8.01172C8.22523 8.00433 8.11258 8 7.99951 8C5.23831 8.00026 2.99951 10.2387 2.99951 13C2.99951 15.6751 5.10085 17.8592 7.74268 17.9932L7.99951 18H22.9995V17.9814C25.39 17.7789 27.2671 15.7759 27.2671 13.333C27.2669 10.7558 25.1774 8.66699 22.6001 8.66699C22.1589 8.66701 21.7322 8.72834 21.3276 8.84277C20.418 6.03253 17.7797 4 14.6665 4Z" fill="#F1F3F6"/>
<path d="M14.6665 4L14.6664 2H14.6665V4ZM8.33643 8.01172L10.1444 8.86674L9.56237 10.0976L8.20383 10.0073L8.33643 8.01172ZM7.99951 8L7.99932 6H7.99951V8ZM2.99951 13H0.999512H2.99951ZM7.74268 17.9932L7.68946 19.9925L7.66542 19.9918L7.64141 19.9906L7.74268 17.9932ZM7.99951 18V20H7.9729L7.9463 19.9993L7.99951 18ZM22.9995 18H24.9995V20H22.9995V18ZM22.9995 17.9814H20.9995V16.1438L22.8306 15.9886L22.9995 17.9814ZM27.2671 13.333L29.2671 13.3329V13.333H27.2671ZM22.6001 8.66699L22.6 6.66699H22.6001V8.66699ZM21.3276 8.84277L21.872 10.7673L20.0181 11.2917L19.4248 9.45865L21.3276 8.84277ZM14.6665 4L14.6666 6C12.6728 6.00012 10.9478 7.16802 10.1444 8.86674L8.33643 8.01172L6.5284 7.1567C7.9674 4.1138 11.0671 2.00023 14.6664 2L14.6665 4ZM8.33643 8.01172L8.20383 10.0073C8.12983 10.0024 8.0619 10 7.99951 10V8V6C8.16326 6 8.32062 6.00626 8.46902 6.01612L8.33643 8.01172ZM7.99951 8L7.9997 10C6.34273 10.0002 4.99951 11.3435 4.99951 13H2.99951H0.999512C0.999512 9.13398 4.13389 6.00037 7.99932 6L7.99951 8ZM2.99951 13H4.99951C4.99951 14.604 6.26008 15.9154 7.84394 15.9957L7.74268 17.9932L7.64141 19.9906C3.94162 19.803 0.999512 16.7462 0.999512 13H2.99951ZM7.74268 17.9932L7.79589 15.9939L8.05272 16.0007L7.99951 18L7.9463 19.9993L7.68946 19.9925L7.74268 17.9932ZM7.99951 18V16H22.9995V18V20H7.99951V18ZM22.9995 18H20.9995V17.9814H22.9995H24.9995V18H22.9995ZM22.9995 17.9814L22.8306 15.9886C24.1954 15.8729 25.2671 14.727 25.2671 13.333H27.2671H29.2671C29.2671 16.8247 26.5845 19.6848 23.1684 19.9743L22.9995 17.9814ZM27.2671 13.333L25.2671 13.3331C25.267 11.8608 24.0733 10.667 22.6001 10.667V8.66699V6.66699C26.2815 6.66699 29.2669 9.65072 29.2671 13.3329L27.2671 13.333ZM22.6001 8.66699L22.6002 10.667C22.3452 10.667 22.1015 10.7023 21.872 10.7673L21.3276 8.84277L20.7833 6.91828C21.3629 6.75434 21.9727 6.66702 22.6 6.66699L22.6001 8.66699ZM21.3276 8.84277L19.4248 9.45865C18.7744 7.44912 16.887 6 14.6665 6V4V2C18.6724 2 22.0617 4.61593 23.2304 8.22689L21.3276 8.84277Z" fill="#71767A" mask="url(#path-1-inside-1_2139_2287)"/>
<rect x="9.18301" y="8.68301" width="3" height="1" transform="rotate(30 9.18301 8.68301)" fill="#71767A" stroke="#71767A"/>
<rect width="1.33333" height="8" rx="0.666667" transform="matrix(4.37114e-08 1 1 -4.37114e-08 6 29.1307)" fill="#A9AEB1"/>
<rect width="1.33333" height="8" rx="0.666667" transform="matrix(0.866025 0.5 0.5 -0.866025 7.42261 32.9283)" fill="#A9AEB1"/>
<rect width="1.33333" height="8" rx="0.666667" transform="matrix(0.866025 -0.5 -0.5 -0.866025 11.4226 33.595)" fill="#A9AEB1"/>
<rect width="1.33333" height="8" rx="0.666667" transform="matrix(0.866025 0.5 0.5 -0.866025 17.7114 36.4936)" fill="#A9AEB1"/>
<rect width="1.33333" height="8" rx="0.666667" transform="matrix(0.866025 -0.5 -0.5 -0.866025 21.7114 37.1604)" fill="#A9AEB1"/>
<rect width="1.33333" height="8" rx="0.666667" transform="matrix(-5.56119e-08 -1 -1 5.56119e-08 24.2886 34.0297)" fill="#A9AEB1"/>
<rect width="1" height="6" rx="0.5" transform="matrix(4.37114e-08 1 1 -4.37114e-08 2 22.3482)" fill="#A9AEB1"/>
<rect width="1" height="6" rx="0.5" transform="matrix(0.866025 0.5 0.5 -0.866025 3.06689 25.1964)" fill="#A9AEB1"/>
<rect width="1" height="6" rx="0.5" transform="matrix(0.866025 -0.5 -0.5 -0.866025 6.06689 25.6964)" fill="#A9AEB1"/>
<rect width="1" height="6" rx="0.5" transform="matrix(0.5 0.866025 0.866025 -0.5 27.1741 9.03357)" fill="#A9AEB1"/>
<rect width="1" height="6" rx="0.5" transform="matrix(1 0 0 -1 29.5222 10.9667)" fill="#A9AEB1"/>
<rect width="1" height="6" rx="0.5" transform="matrix(0.5 -0.866025 -0.866025 -0.5 32.3701 9.89972)" fill="#A9AEB1"/>
<path d="M34 18C34 16.8954 33.1046 16 32 16C31.1876 16 30.486 16.4846 30.1729 17.1846C29.9472 17.6886 29.3556 17.914 28.8516 17.6885C28.3477 17.4628 28.1222 16.8712 28.3477 16.3672C28.9712 14.974 30.3708 14 32 14C34.2091 14 36 15.7909 36 18C36 20.2091 34.2091 22 32 22H19C18.4477 22 18 21.5523 18 21C18 20.4477 18.4477 20 19 20H32C33.1046 20 34 19.1046 34 18Z" fill="#4F97D1"/>
<path d="M32 28C32 29.0338 31.0713 29.9998 29.7617 30C28.8099 30 28.0353 29.4748 27.7041 28.7891C27.464 28.2919 26.8664 28.0834 26.3691 28.3232C25.8718 28.5634 25.6631 29.1619 25.9033 29.6592C26.5833 31.0667 28.0776 32 29.7617 32C32.0291 31.9998 34 30.2797 34 28C34 25.7203 32.0291 24.0002 29.7617 24H15C14.4477 24 14 24.4477 14 25C14 25.5523 14.4477 26 15 26H29.7617C31.0713 26.0002 32 26.9662 32 28Z" fill="#4F97D1"/>
</svg>
