<svg width="24" height="24" viewBox="0 0 24 24" fill="none" xmlns="http://www.w3.org/2000/svg">
<mask id="mask0_2139_3080" style="mask-type:alpha" maskUnits="userSpaceOnUse" x="5" y="1" width="16" height="10">
<path d="M20.4006 10.7344H19.385C19.399 10.6114 19.4075 10.4861 19.4075 10.3594C19.4073 8.54423 17.9355 7.07331 16.1204 7.07324C14.3051 7.07324 12.8334 8.54419 12.8333 10.3594C12.8333 10.4861 12.8408 10.6114 12.8547 10.7344H5.26587V1.90137H20.4006V10.7344Z" fill="#D9D9D9"/>
</mask>
<g mask="url(#mask0_2139_3080)">
<mask id="path-2-inside-1_2139_3080" fill="white">
<path d="M12.782 2.19928C11.1039 2.19928 9.65586 3.18386 8.98315 4.60651C8.91646 4.60208 8.84882 4.59967 8.78101 4.59967C7.12433 4.59988 5.78101 5.94295 5.78101 7.59967C5.78119 9.20449 7.04185 10.5153 8.62671 10.5958L8.78101 10.5997H17.781V10.587C19.2153 10.4654 20.3416 9.26461 20.3416 7.79889C20.3413 6.25269 19.088 4.99916 17.5417 4.99908C17.2769 4.99908 17.0209 5.03778 16.7781 5.10651C16.2328 3.41976 14.6502 2.19946 12.782 2.19928Z"/>
</mask>
<path d="M12.782 2.19928C11.1039 2.19928 9.65586 3.18386 8.98315 4.60651C8.91646 4.60208 8.84882 4.59967 8.78101 4.59967C7.12433 4.59988 5.78101 5.94295 5.78101 7.59967C5.78119 9.20449 7.04185 10.5153 8.62671 10.5958L8.78101 10.5997H17.781V10.587C19.2153 10.4654 20.3416 9.26461 20.3416 7.79889C20.3413 6.25269 19.088 4.99916 17.5417 4.99908C17.2769 4.99908 17.0209 5.03778 16.7781 5.10651C16.2328 3.41976 14.6502 2.19946 12.782 2.19928Z" fill="#F1F3F6"/>
<path d="M12.782 2.19928V0.69928H12.7821L12.782 2.19928ZM8.98315 4.60651L10.3392 5.24771L9.90267 6.17088L8.88375 6.10321L8.98315 4.60651ZM8.78101 4.59967L8.78081 3.09967H8.78101V4.59967ZM5.78101 7.59967L4.28101 7.59984V7.59967H5.78101ZM8.62671 10.5958L8.58875 12.0953L8.56968 12.0948L8.55063 12.0938L8.62671 10.5958ZM8.78101 10.5997V12.0997H8.76202L8.74304 12.0992L8.78101 10.5997ZM17.781 10.5997H19.281V12.0997H17.781V10.5997ZM17.781 10.587H16.281V9.20871L17.6543 9.09233L17.781 10.587ZM20.3416 7.79889L21.8416 7.79868V7.79889H20.3416ZM17.5417 4.99908V3.49908H17.5418L17.5417 4.99908ZM16.7781 5.10651L17.1865 6.54983L15.7955 6.94347L15.3508 5.56791L16.7781 5.10651ZM12.782 2.19928V3.69928C11.7058 3.69928 10.7735 4.32934 10.3392 5.24771L8.98315 4.60651L7.62711 3.9653C8.53826 2.03839 10.5019 0.69928 12.782 0.69928V2.19928ZM8.98315 4.60651L8.88375 6.10321C8.84795 6.10083 8.81352 6.09967 8.78101 6.09967V4.59967V3.09967C8.88412 3.09967 8.98498 3.10332 9.08256 3.1098L8.98315 4.60651ZM8.78101 4.59967L8.7812 6.09967C7.95261 6.09978 7.28101 6.77156 7.28101 7.59967H5.78101H4.28101C4.28101 5.11433 6.29605 3.09999 8.78081 3.09967L8.78101 4.59967ZM5.78101 7.59967L7.28101 7.5995C7.2811 8.40143 7.91159 9.05751 8.70279 9.09769L8.62671 10.5958L8.55063 12.0938C6.17211 11.973 4.28127 10.0076 4.28101 7.59984L5.78101 7.59967ZM8.62671 10.5958L8.66467 9.09624L8.81897 9.10015L8.78101 10.5997L8.74304 12.0992L8.58875 12.0953L8.62671 10.5958ZM8.78101 10.5997V9.09967H17.781V10.5997V12.0997H8.78101V10.5997ZM17.781 10.5997H16.281V10.587H17.781H19.281V10.5997H17.781ZM17.781 10.587L17.6543 9.09233C18.32 9.03592 18.8416 8.47732 18.8416 7.79889H20.3416H21.8416C21.8416 10.0519 20.1105 11.8949 17.9077 12.0816L17.781 10.587ZM20.3416 7.79889L18.8416 7.79909C18.8415 7.08104 18.2594 6.49912 17.5417 6.49908L17.5417 4.99908L17.5418 3.49908C19.9165 3.49921 21.8412 5.42435 21.8416 7.79868L20.3416 7.79889ZM17.5417 4.99908V6.49908C17.4238 6.49908 17.3053 6.51622 17.1865 6.54983L16.7781 5.10651L16.3696 3.66319C16.7366 3.55934 17.1299 3.49908 17.5417 3.49908V4.99908ZM16.7781 5.10651L15.3508 5.56791C14.9996 4.48157 13.9801 3.6994 12.7818 3.69928L12.782 2.19928L12.7821 0.69928C15.3204 0.699525 17.466 2.35794 18.2053 4.6451L16.7781 5.10651Z" fill="#71767A" mask="url(#path-2-inside-1_2139_3080)"/>
<rect x="9.38135" y="4.5993" width="2.4" height="1.2" transform="rotate(30 9.38135 4.5993)" fill="#71767A"/>
</g>
<path d="M17.3423 10.5996C17.3423 9.90183 16.7843 9.34961 16.1128 9.34961C15.6185 9.34972 15.1864 9.64768 14.9917 10.0869C14.824 10.4657 14.3802 10.6374 14.0015 10.4697C13.6231 10.302 13.4523 9.85903 13.6196 9.48047C14.0429 8.52446 14.9966 7.84972 16.1128 7.84961C17.6275 7.84961 18.8423 9.08825 18.8423 10.5996C18.8423 12.111 17.6275 13.3496 16.1128 13.3496H9.23193C8.81773 13.3496 8.48193 13.0138 8.48193 12.5996C8.48193 12.1854 8.81773 11.8496 9.23193 11.8496H16.1128C16.7843 11.8496 17.3423 11.2974 17.3423 10.5996Z" fill="#2C608A"/>
<path d="M8.2085 15.4797C8.34664 15.2408 8.65205 15.1591 8.89111 15.2971C9.13017 15.4352 9.21178 15.7406 9.07373 15.9797L8.38232 17.178H9.76611C10.0422 17.178 10.266 17.402 10.2661 17.678C10.2661 17.9541 10.0423 18.178 9.76611 18.178H8.38135L9.07373 19.3762C9.21175 19.6153 9.13004 19.9217 8.89111 20.0598C8.65197 20.1979 8.34559 20.1154 8.20752 19.8762L7.51514 18.678L6.82373 19.8772C6.68556 20.1161 6.38014 20.1978 6.14111 20.0598C5.90202 19.9217 5.82044 19.6163 5.9585 19.3772L6.65088 18.178H5.26611C4.98997 18.178 4.76611 17.9541 4.76611 17.678C4.76625 17.402 4.99006 17.178 5.26611 17.178H6.6499L5.95752 15.9797C5.81945 15.7406 5.90197 15.4342 6.14111 15.2961C6.38018 15.1585 6.68576 15.2408 6.82373 15.4797L7.51611 16.679L8.2085 15.4797Z" fill="#8D9297"/>
<path d="M15.5002 14.5961C15.7763 14.5963 16.0002 14.8201 16.0002 15.0961V16.4789L17.1985 15.7885C17.4376 15.6504 17.744 15.732 17.8821 15.9711C18.02 16.2102 17.9375 16.5157 17.6985 16.6537L16.4983 17.3461L17.6985 18.0385C17.9374 18.1766 18.019 18.4821 17.8811 18.7211C17.7431 18.9602 17.4376 19.0426 17.1985 18.9047L16.0002 18.2123V19.5961C16.0002 19.8722 15.7763 20.096 15.5002 20.0961C15.2241 20.0961 15.0002 19.8723 15.0002 19.5961V18.2104L13.801 18.9037C13.5619 19.0417 13.2564 18.9602 13.1184 18.7211C12.9805 18.4822 13.0623 18.1767 13.301 18.0385L14.4993 17.3461L13.301 16.6547C13.0619 16.5167 12.9803 16.2103 13.1184 15.9711C13.2566 15.7323 13.562 15.6506 13.801 15.7885L15.0002 16.4799V15.0961C15.0002 14.82 15.2241 14.5961 15.5002 14.5961Z" fill="#8D9297"/>
<path d="M4.56641 8.97687C4.84236 8.97709 5.06641 9.20086 5.06641 9.47687V10.8597L6.26465 10.1683C6.50374 10.0305 6.80927 10.1129 6.94727 10.3519C7.08526 10.5909 7.00354 10.8963 6.76465 11.0345L5.56445 11.7259L6.76465 12.4193C7.00361 12.5574 7.08529 12.8628 6.94727 13.1019C6.80916 13.3409 6.50375 13.4225 6.26465 13.2845L5.06641 12.5921V13.9769C5.06641 14.2529 4.84236 14.4766 4.56641 14.4769C4.29026 14.4769 4.06641 14.253 4.06641 13.9769V12.5921L2.86719 13.2845C2.62811 13.4225 2.3227 13.3408 2.18457 13.1019C2.0465 12.8627 2.12804 12.5563 2.36719 12.4183L3.56445 11.7259L2.36719 11.0345C2.12832 10.8963 2.04657 10.5909 2.18457 10.3519C2.32265 10.1128 2.62806 10.0312 2.86719 10.1693L4.06641 10.8607V9.47687C4.06641 9.20073 4.29026 8.97687 4.56641 8.97687Z" fill="#8D9297"/>
</svg>
