<svg width="40" height="40" viewBox="0 0 40 40" fill="none" xmlns="http://www.w3.org/2000/svg">
<mask id="path-1-inside-1_2139_2679" fill="white">
<path d="M14.6665 4C11.8699 4.00018 9.45759 5.64091 8.33643 8.01172C8.22523 8.00433 8.11258 8 7.99951 8C5.23831 8.00026 2.99951 10.2387 2.99951 13C2.99951 15.6751 5.10085 17.8592 7.74268 17.9932L7.99951 18H22.9995V17.9814C25.39 17.7789 27.2671 15.7759 27.2671 13.333C27.2669 10.7558 25.1774 8.66699 22.6001 8.66699C22.1589 8.66701 21.7322 8.72834 21.3276 8.84277C20.418 6.03253 17.7797 4 14.6665 4Z"/>
</mask>
<path d="M14.6665 4C11.8699 4.00018 9.45759 5.64091 8.33643 8.01172C8.22523 8.00433 8.11258 8 7.99951 8C5.23831 8.00026 2.99951 10.2387 2.99951 13C2.99951 15.6751 5.10085 17.8592 7.74268 17.9932L7.99951 18H22.9995V17.9814C25.39 17.7789 27.2671 15.7759 27.2671 13.333C27.2669 10.7558 25.1774 8.66699 22.6001 8.66699C22.1589 8.66701 21.7322 8.72834 21.3276 8.84277C20.418 6.03253 17.7797 4 14.6665 4Z" fill="#F7F9FA"/>
<path d="M14.6665 4L14.6664 2H14.6665V4ZM8.33643 8.01172L10.1444 8.86674L9.56237 10.0976L8.20383 10.0073L8.33643 8.01172ZM7.99951 8L7.99932 6H7.99951V8ZM2.99951 13H0.999512H2.99951ZM7.74268 17.9932L7.68946 19.9925L7.66542 19.9918L7.64141 19.9906L7.74268 17.9932ZM7.99951 18V20H7.9729L7.9463 19.9993L7.99951 18ZM22.9995 18H24.9995V20H22.9995V18ZM22.9995 17.9814H20.9995V16.1438L22.8306 15.9886L22.9995 17.9814ZM27.2671 13.333L29.2671 13.3329V13.333H27.2671ZM22.6001 8.66699L22.6 6.66699H22.6001V8.66699ZM21.3276 8.84277L21.872 10.7673L20.0181 11.2917L19.4248 9.45865L21.3276 8.84277ZM14.6665 4L14.6666 6C12.6728 6.00012 10.9478 7.16802 10.1444 8.86674L8.33643 8.01172L6.5284 7.1567C7.9674 4.1138 11.0671 2.00023 14.6664 2L14.6665 4ZM8.33643 8.01172L8.20383 10.0073C8.12983 10.0024 8.0619 10 7.99951 10V8V6C8.16326 6 8.32062 6.00626 8.46902 6.01612L8.33643 8.01172ZM7.99951 8L7.9997 10C6.34273 10.0002 4.99951 11.3435 4.99951 13H2.99951H0.999512C0.999512 9.13398 4.13389 6.00037 7.99932 6L7.99951 8ZM2.99951 13H4.99951C4.99951 14.604 6.26008 15.9154 7.84394 15.9957L7.74268 17.9932L7.64141 19.9906C3.94162 19.803 0.999512 16.7462 0.999512 13H2.99951ZM7.74268 17.9932L7.79589 15.9939L8.05272 16.0007L7.99951 18L7.9463 19.9993L7.68946 19.9925L7.74268 17.9932ZM7.99951 18V16H22.9995V18V20H7.99951V18ZM22.9995 18H20.9995V17.9814H22.9995H24.9995V18H22.9995ZM22.9995 17.9814L22.8306 15.9886C24.1954 15.8729 25.2671 14.727 25.2671 13.333H27.2671H29.2671C29.2671 16.8247 26.5845 19.6848 23.1684 19.9743L22.9995 17.9814ZM27.2671 13.333L25.2671 13.3331C25.267 11.8608 24.0733 10.667 22.6001 10.667V8.66699V6.66699C26.2815 6.66699 29.2669 9.65072 29.2671 13.3329L27.2671 13.333ZM22.6001 8.66699L22.6002 10.667C22.3452 10.667 22.1015 10.7023 21.872 10.7673L21.3276 8.84277L20.7833 6.91828C21.3629 6.75434 21.9727 6.66702 22.6 6.66699L22.6001 8.66699ZM21.3276 8.84277L19.4248 9.45865C18.7744 7.44912 16.887 6 14.6665 6V4V2C18.6724 2 22.0617 4.61593 23.2304 8.22689L21.3276 8.84277Z" fill="#A9AEB1" mask="url(#path-1-inside-1_2139_2679)"/>
<rect x="9.18301" y="8.68301" width="3" height="1" transform="rotate(30 9.18301 8.68301)" fill="#71767A" stroke="#A9AEB1"/>
<path d="M11.0889 26.5773C11.273 26.2584 11.6811 26.1491 12 26.3331C12.3189 26.5172 12.4282 26.9254 12.2441 27.2443L11.1543 29.131H13.333C13.701 29.131 13.9998 29.429 14 29.797C14 30.1652 13.7012 30.464 13.333 30.464H11.1543L12.2441 32.3507C12.4282 32.6696 12.3189 33.0777 12 33.2618C11.6811 33.4459 11.273 33.3366 11.0889 33.0177L9.99902 31.13L8.91016 33.0177C8.72603 33.3363 8.31876 33.4457 8 33.2618C7.68114 33.0777 7.57176 32.6696 7.75586 32.3507L8.84473 30.464H6.66699C6.2988 30.464 6 30.1652 6 29.797C6.00025 29.429 6.29895 29.131 6.66699 29.131H8.84473L7.75586 27.2443C7.57176 26.9254 7.68114 26.5172 8 26.3331C8.31872 26.1493 8.72602 26.2587 8.91016 26.5773L9.99902 28.463L11.0889 26.5773Z" fill="#DFE1E2"/>
<path d="M21.3774 30.1423C21.5616 29.8236 21.9698 29.7151 22.2886 29.8992C22.6072 30.0833 22.7167 30.4906 22.5327 30.8093L21.4429 32.696H23.6216C23.9898 32.696 24.2886 32.9948 24.2886 33.363C24.2886 33.7312 23.9898 34.03 23.6216 34.03H21.4429L22.5327 35.9167C22.7166 36.2355 22.6073 36.6428 22.2886 36.8269C21.9697 37.011 21.5615 36.9016 21.3774 36.5828L20.2886 34.696L19.1997 36.5828C19.0156 36.9016 18.6074 37.011 18.2886 36.8269C17.9699 36.6429 17.8607 36.2355 18.0444 35.9167L19.1323 34.03H16.9556C16.5874 34.03 16.2886 33.7312 16.2886 33.363C16.2886 32.9948 16.5874 32.696 16.9556 32.696H19.1333L18.0444 30.8093C17.8606 30.4905 17.9699 30.0832 18.2886 29.8992C18.6074 29.7151 19.0156 29.8244 19.1997 30.1433L20.2876 32.0291L21.3774 30.1423Z" fill="#DFE1E2"/>
<path d="M5.81641 20.4331C5.95448 20.194 6.26085 20.1124 6.5 20.2505C6.73899 20.3886 6.82065 20.694 6.68262 20.9331L5.86523 22.3481H7.5C7.77613 22.3481 7.99998 22.572 8 22.8481C8 23.1243 7.77614 23.3481 7.5 23.3481H5.86523L6.68262 24.7632C6.82069 25.0023 6.73915 25.3087 6.5 25.4468C6.26091 25.5847 5.95546 25.5022 5.81738 25.2632L4.99902 23.8472L4.18262 25.2632C4.04459 25.5022 3.7391 25.5846 3.5 25.4468C3.26089 25.3087 3.17843 25.0023 3.31641 24.7632L4.13379 23.3481H2.5C2.22386 23.3481 2 23.1243 2 22.8481C2.00002 22.572 2.22387 22.3481 2.5 22.3481H4.13477L3.31738 20.9331C3.17932 20.694 3.2609 20.3886 3.5 20.2505C3.73908 20.1125 4.04449 20.1941 4.18262 20.4331L4.99902 21.8472L5.81641 20.4331Z" fill="#DFE1E2"/>
<path d="M30.022 4.96674C30.2981 4.96674 30.522 5.19059 30.522 5.46674V7.09955L31.937 6.28314C32.1761 6.14513 32.4825 6.22761 32.6206 6.46674C32.7585 6.70584 32.6761 7.01133 32.437 7.14935L31.021 7.96576L32.437 8.78412C32.676 8.92217 32.7585 9.22764 32.6206 9.46674C32.4825 9.70588 32.1762 9.78742 31.937 9.64935L30.522 8.83197V10.4667C30.522 10.7429 30.2981 10.9667 30.022 10.9667C29.7459 10.9667 29.522 10.7428 29.522 10.4667V8.83197L28.1069 9.64935C27.8679 9.78739 27.5624 9.70573 27.4243 9.46674C27.2862 9.22759 27.3678 8.92121 27.6069 8.78314L29.021 7.96576L27.6069 7.14935C27.368 7.01122 27.2863 6.7058 27.4243 6.46674C27.5624 6.22769 27.8678 6.14607 28.1069 6.28412L29.522 7.10052V5.46674C29.522 5.19063 29.7459 4.96679 30.022 4.96674Z" fill="#DFE1E2"/>
<path d="M34 18C34 16.8954 33.1046 16 32 16C31.1876 16 30.486 16.4846 30.1729 17.1846C29.9472 17.6886 29.3556 17.914 28.8516 17.6885C28.3477 17.4628 28.1222 16.8712 28.3477 16.3672C28.9712 14.974 30.3708 14 32 14C34.2091 14 36 15.7909 36 18C36 20.2091 34.2091 22 32 22H19C18.4477 22 18 21.5523 18 21C18 20.4477 18.4477 20 19 20H32C33.1046 20 34 19.1046 34 18Z" fill="#58B4FF"/>
<path d="M32 28C32 29.0338 31.0713 29.9998 29.7617 30C28.8099 30 28.0353 29.4748 27.7041 28.7891C27.464 28.2919 26.8664 28.0834 26.3691 28.3232C25.8718 28.5634 25.6631 29.1619 25.9033 29.6592C26.5833 31.0667 28.0776 32 29.7617 32C32.0291 31.9998 34 30.2797 34 28C34 25.7203 32.0291 24.0002 29.7617 24H15C14.4477 24 14 24.4477 14 25C14 25.5523 14.4477 26 15 26H29.7617C31.0713 26.0002 32 26.9662 32 28Z" fill="#AACDEC"/>
</svg>
