<svg width="40" height="40" viewBox="0 0 40 40" fill="none" xmlns="http://www.w3.org/2000/svg">
<path d="M14.667 4.99988C17.3337 4.9999 19.5968 6.7407 20.377 9.15027L20.6738 10.0663L21.6006 9.80457C21.9173 9.71506 22.2525 9.66589 22.6006 9.66589C24.6255 9.66603 26.2665 11.308 26.2666 13.3329C26.2666 15.2517 24.7921 16.827 22.915 16.9862L22.7549 16.9999H8C5.79088 16.9999 4.00004 15.209 4 12.9999C4 10.7907 5.79086 8.99988 8 8.99988C8.09061 8.99988 8.18068 9.00278 8.26953 9.00867L8.94824 9.05359L9.23926 8.43835C10.2014 6.40387 12.2713 4.99988 14.667 4.99988Z" fill="#F1F3F6" stroke="#71767A" stroke-width="2"/>
<rect x="9.18301" y="8.68289" width="3" height="1" transform="rotate(30 9.18301 8.68289)" fill="#71767A" stroke="#71767A"/>
<rect width="1.33333" height="8" rx="0.666667" transform="matrix(4.37114e-08 1 1 -4.37114e-08 6 29.1307)" fill="#A9AEB1"/>
<rect width="1.33333" height="8" rx="0.666667" transform="matrix(0.866025 0.5 0.5 -0.866025 7.42236 32.9283)" fill="#A9AEB1"/>
<rect width="1.33333" height="8" rx="0.666667" transform="matrix(0.866025 -0.5 -0.5 -0.866025 11.4224 33.595)" fill="#A9AEB1"/>
<rect width="1.33333" height="8" rx="0.666667" transform="matrix(0.866025 0.5 0.5 -0.866025 17.7114 36.4937)" fill="#A9AEB1"/>
<rect width="1.33333" height="8" rx="0.666667" transform="matrix(0.866025 -0.5 -0.5 -0.866025 21.7114 37.1604)" fill="#A9AEB1"/>
<rect width="1.33333" height="8" rx="0.666667" transform="matrix(-5.56119e-08 -1 -1 5.56119e-08 24.2886 34.0297)" fill="#A9AEB1"/>
<rect width="1" height="6" rx="0.5" transform="matrix(4.37114e-08 1 1 -4.37114e-08 2 22.3481)" fill="#A9AEB1"/>
<rect width="1" height="6" rx="0.5" transform="matrix(0.866025 0.5 0.5 -0.866025 3.06689 25.1963)" fill="#A9AEB1"/>
<rect width="1" height="6" rx="0.5" transform="matrix(0.866025 -0.5 -0.5 -0.866025 6.06689 25.6963)" fill="#A9AEB1"/>
<rect width="1" height="6" rx="0.5" transform="matrix(0.5 0.866025 0.866025 -0.5 27.1743 9.03357)" fill="#A9AEB1"/>
<rect width="1" height="6" rx="0.5" transform="matrix(1 0 0 -1 29.522 10.9667)" fill="#A9AEB1"/>
<rect width="1" height="6" rx="0.5" transform="matrix(0.5 -0.866025 -0.866025 -0.5 32.3701 9.89978)" fill="#A9AEB1"/>
<path d="M34 18C34 16.8954 33.1046 16 32 16C31.1876 16 30.486 16.4846 30.1729 17.1846C29.9472 17.6886 29.3556 17.914 28.8516 17.6885C28.3477 17.4628 28.1222 16.8712 28.3477 16.3672C28.9712 14.974 30.3708 14 32 14C34.2091 14 36 15.7909 36 18C36 20.2091 34.2091 22 32 22H19C18.4477 22 18 21.5523 18 21C18 20.4477 18.4477 20 19 20H32C33.1046 20 34 19.1046 34 18Z" fill="#4F97D1"/>
<path d="M32 28C32 29.0338 31.0713 29.9998 29.7617 30C28.8099 30 28.0353 29.4748 27.7041 28.7891C27.464 28.2919 26.8664 28.0834 26.3691 28.3232C25.8718 28.5634 25.6631 29.1619 25.9033 29.6592C26.5833 31.0667 28.0776 32 29.7617 32C32.0291 31.9998 34 30.2797 34 28C34 25.7203 32.0291 24.0002 29.7617 24H15C14.4477 24 14 24.4477 14 25C14 25.5523 14.4477 26 15 26H29.7617C31.0713 26.0002 32 26.9662 32 28Z" fill="#4F97D1"/>
</svg>
