<svg width="24" height="24" viewBox="0 0 24 24" fill="none" xmlns="http://www.w3.org/2000/svg">
<path d="M12.7812 2.19922C14.649 2.19922 16.2325 3.41851 16.7783 5.10449C17.0208 5.03596 17.2766 4.99906 17.541 4.99902C19.0873 4.99902 20.3416 6.25254 20.3418 7.79883C20.3418 8.64299 19.9658 9.39776 19.375 9.91113C19.1561 8.30815 17.7832 7.0733 16.1201 7.07324C14.3049 7.07324 12.8332 8.54419 12.833 10.3594C12.833 10.44 12.8361 10.5204 12.8418 10.5996H8.78125C7.12454 10.5996 5.78148 9.25627 5.78125 7.59961C5.78125 5.94275 7.1244 4.59961 8.78125 4.59961C8.84885 4.59961 8.91594 4.60107 8.98242 4.60547C9.6552 3.18314 11.1034 2.19929 12.7812 2.19922Z" fill="#F7F9FA"/>
<path d="M12.7812 2.19922C14.5323 2.19922 16.0336 3.27073 16.6641 4.79395L16.7783 5.10449C17.0208 5.03596 17.2766 4.99906 17.541 4.99902C19.0873 4.99902 20.3416 6.25254 20.3418 7.79883L20.3281 8.07031C20.2575 8.80468 19.9019 9.4544 19.375 9.91211C19.2954 9.32801 19.0633 8.79316 18.7188 8.34863C18.797 8.18141 18.8418 7.99538 18.8418 7.79883C18.8416 7.08097 18.2589 6.49902 17.541 6.49902C17.416 6.49906 17.2975 6.51651 17.1865 6.54785L15.7959 6.94043L15.3506 5.56641C14.9991 4.4811 13.9796 3.69922 12.7812 3.69922C11.7049 3.69929 10.773 4.32927 10.3389 5.24707L9.90234 6.16992L8.88379 6.10254C8.85024 6.10032 8.81575 6.09961 8.78125 6.09961C7.95282 6.09961 7.28125 6.77118 7.28125 7.59961C7.28148 8.42784 7.95297 9.09961 8.78125 9.09961H12.8076L12.8213 9.09863V9.09961H13.084C12.9227 9.48765 12.8331 9.91298 12.833 10.3594C12.833 10.44 12.8361 10.5204 12.8418 10.5996H8.78125L8.62695 10.5957C7.09304 10.518 5.86308 9.28776 5.78516 7.75391L5.78125 7.59961C5.78125 5.94275 7.1244 4.59961 8.78125 4.59961L8.98242 4.60547C9.6552 3.18314 11.1034 2.19929 12.7812 2.19922Z" fill="#A9AEB1"/>
<path d="M9.38135 4.59924L11.4598 5.79924L10.8598 6.83847L8.78135 5.63847L9.38135 4.59924Z" fill="#A9AEB1"/>
<path d="M17.3423 10.5996C17.3423 9.90183 16.7843 9.34961 16.1128 9.34961C15.6185 9.34972 15.1864 9.64768 14.9917 10.0869C14.824 10.4657 14.3802 10.6374 14.0015 10.4697C13.6231 10.302 13.4523 9.85903 13.6196 9.48047C14.0429 8.52446 14.9966 7.84972 16.1128 7.84961C17.6275 7.84961 18.8423 9.08825 18.8423 10.5996C18.8423 12.111 17.6275 13.3496 16.1128 13.3496H9.23193C8.81773 13.3496 8.48193 13.0138 8.48193 12.5996C8.48193 12.1854 8.81773 11.8496 9.23193 11.8496H16.1128C16.7843 11.8496 17.3423 11.2974 17.3423 10.5996Z" fill="#58B4FF"/>
<path d="M15.5 14.5962C15.776 14.5963 16 14.8201 16 15.0962V16.479L17.1982 15.7886C17.4374 15.6505 17.7438 15.732 17.8818 15.9712C18.0198 16.2103 17.9373 16.5157 17.6982 16.6538L16.498 17.3462L17.6982 18.0386C17.9372 18.1767 18.0187 18.4821 17.8809 18.7212C17.7428 18.9602 17.4373 19.0426 17.1982 18.9048L16 18.2124V19.5962C16 19.8723 15.776 20.0961 15.5 20.0962C15.2239 20.0962 15 19.8723 15 19.5962V18.2104L13.8008 18.9038C13.5617 19.0417 13.2562 18.9603 13.1182 18.7212C12.9803 18.4822 13.0621 18.1768 13.3008 18.0386L14.499 17.3462L13.3008 16.6548C13.0616 16.5167 12.9801 16.2103 13.1182 15.9712C13.2563 15.7324 13.5618 15.6506 13.8008 15.7886L15 16.48V15.0962C15 14.82 15.2239 14.5962 15.5 14.5962Z" fill="#EDEFF0"/>
<path d="M8.2085 15.4797C8.34663 15.2408 8.65205 15.1591 8.89111 15.2971C9.13016 15.4352 9.21178 15.7406 9.07373 15.9797L8.38232 17.178H9.76611C10.0422 17.178 10.266 17.4019 10.2661 17.678C10.2661 17.9541 10.0423 18.178 9.76611 18.178H8.38135L9.07373 19.3762C9.21175 19.6153 9.13005 19.9217 8.89111 20.0598C8.65197 20.1979 8.34559 20.1154 8.20752 19.8762L7.51514 18.678L6.82373 19.8772C6.68556 20.1161 6.38014 20.1978 6.14111 20.0598C5.90202 19.9217 5.82045 19.6163 5.9585 19.3772L6.65088 18.178H5.26611C4.98997 18.178 4.76611 17.9541 4.76611 17.678C4.76624 17.4019 4.99005 17.178 5.26611 17.178H6.6499L5.95752 15.9797C5.81945 15.7406 5.90197 15.4342 6.14111 15.2961C6.38018 15.1585 6.68576 15.2408 6.82373 15.4797L7.51611 16.679L8.2085 15.4797Z" fill="#EDEFF0"/>
<path d="M4.56641 8.97681C4.84236 8.97703 5.06641 9.2008 5.06641 9.47681V10.8596L6.26465 10.1682C6.50374 10.0305 6.80927 10.1128 6.94727 10.3518C7.08526 10.5908 7.00354 10.8963 6.76465 11.0344L5.56445 11.7258L6.76465 12.4192C7.00361 12.5573 7.08529 12.8627 6.94727 13.1018C6.80916 13.3409 6.50375 13.4225 6.26465 13.2844L5.06641 12.592V13.9768C5.06641 14.2528 4.84236 14.4766 4.56641 14.4768C4.29026 14.4768 4.06641 14.2529 4.06641 13.9768V12.592L2.86719 13.2844C2.62811 13.4225 2.3227 13.3408 2.18457 13.1018C2.0465 12.8627 2.12804 12.5563 2.36719 12.4182L3.56445 11.7258L2.36719 11.0344C2.12832 10.8963 2.04657 10.5908 2.18457 10.3518C2.32265 10.1127 2.62806 10.0311 2.86719 10.1692L4.06641 10.8606V9.47681C4.06641 9.20066 4.29026 8.97681 4.56641 8.97681Z" fill="#EDEFF0"/>
</svg>
