<svg width="24" height="24" viewBox="0 0 24 24" fill="none" xmlns="http://www.w3.org/2000/svg">
<circle cx="11.9998" cy="12.0001" r="5.25" fill="#FACE00" stroke="#DDAA01" stroke-width="1.5"/>
<path d="M12.1494 22.2003C12.1492 22.2829 12.0826 22.3496 12 22.3497C11.9173 22.3497 11.8498 22.283 11.8496 22.2003V19.795C11.8996 19.796 11.9498 19.7999 12 19.7999C12.0499 19.7999 12.0997 19.796 12.1494 19.795V22.2003ZM7.9707 18.6769C8.05627 18.7286 8.14279 18.7787 8.23047 18.8272L7.0293 20.9083C6.98788 20.9799 6.89687 21.0042 6.8252 20.963C6.75345 20.9216 6.72811 20.8297 6.76953 20.7579L7.9707 18.6769ZM17.2305 20.7579C17.2719 20.8297 17.2465 20.9216 17.1748 20.963C17.1031 21.0043 17.0111 20.98 16.9697 20.9083L15.7686 18.8272C15.8562 18.7787 15.9428 18.7286 16.0283 18.6769L17.2305 20.7579ZM5.17188 15.7677C5.22028 15.8552 5.26966 15.942 5.32129 16.0274L3.24121 17.2296C3.16948 17.2709 3.07753 17.2466 3.03613 17.1749C2.99487 17.1032 3.02012 17.0112 3.0918 16.9698L5.17188 15.7677ZM20.9082 16.9698C20.9619 17.0008 20.9895 17.0603 20.9824 17.1183L20.9629 17.1749C20.9215 17.2466 20.8295 17.271 20.7578 17.2296L18.6768 16.0274C18.7283 15.9421 18.7788 15.8561 18.8271 15.7687L20.9082 16.9698ZM1.7998 11.8497H4.2041C4.20316 11.8997 4.2002 11.9499 4.2002 12.0001C4.2002 12.05 4.20316 12.0998 4.2041 12.1495H1.7998C1.71703 12.1495 1.64952 12.0829 1.64941 12.0001C1.64941 11.9173 1.71696 11.8497 1.7998 11.8497ZM22.2002 11.8497C22.2829 11.8499 22.3496 11.9174 22.3496 12.0001C22.3495 12.0827 22.2828 12.1493 22.2002 12.1495H19.7959C19.7968 12.0998 19.7998 12.05 19.7998 12.0001C19.7998 11.9499 19.7968 11.8997 19.7959 11.8497H22.2002ZM3.24121 6.76963L5.32227 7.9708C5.27054 8.05636 5.22037 8.14289 5.17188 8.23057L3.09082 7.02939C3.01956 6.98792 2.9951 6.89682 3.03613 6.82529C3.07752 6.7536 3.16949 6.72834 3.24121 6.76963ZM20.7588 6.76963C20.8305 6.72857 20.9216 6.7537 20.9629 6.82529C21.0042 6.89701 20.9799 6.98799 20.9082 7.02939L18.8271 8.23057C18.7786 8.14288 18.7285 8.05636 18.6768 7.9708L20.7588 6.76963ZM6.8252 3.03623C6.89691 2.99498 6.98889 3.02022 7.03027 3.09189L8.23047 5.171C8.14265 5.21956 8.0564 5.27055 7.9707 5.32236L6.77051 3.24131C6.72909 3.16957 6.75345 3.07765 6.8252 3.03623ZM17.1748 3.03623C17.2465 3.07765 17.2709 3.16957 17.2295 3.24131L16.0273 5.32139C15.9419 5.26976 15.8551 5.22038 15.7676 5.17197L16.9697 3.09189C17.0111 3.0202 17.1031 2.99492 17.1748 3.03623ZM12 1.64951C12.0828 1.64962 12.1494 1.71712 12.1494 1.7999V4.20322C12.0997 4.20229 12.0499 4.20029 12 4.20029C11.9498 4.20029 11.8996 4.20228 11.8496 4.20322V1.7999C11.8496 1.71706 11.9172 1.64951 12 1.64951Z" stroke="#DDAA01" stroke-width="1.2" stroke-linecap="round"/>
</svg>
