<svg width="40" height="40" viewBox="0 0 40 40" fill="none" xmlns="http://www.w3.org/2000/svg">
<circle cx="20" cy="20" r="9" fill="#FACE00" stroke="#DDAA01" stroke-width="2"/>
<path d="M13.1543 29.857C13.7 30.2367 14.2791 30.5717 14.8857 30.8579L12.3662 35.2222C12.1073 35.6704 11.554 35.8419 11.0918 35.6343L11 35.5884C10.5218 35.3123 10.3579 34.7005 10.6338 34.2222L13.1543 29.857ZM29.3662 34.2222C29.6423 34.7005 29.4783 35.3123 29 35.5884L28.9092 35.6343C28.4776 35.8284 27.9662 35.692 27.6895 35.3081L27.6348 35.2222L25.1143 30.8579C25.7208 30.5718 26.3001 30.2366 26.8457 29.857L29.3662 34.2222ZM9.1416 25.1138C9.4278 25.7204 9.76291 26.2996 10.1426 26.8452L5.77832 29.3658C5.32999 29.6246 4.76429 29.4964 4.46777 29.0855L4.41211 28.9995C4.13597 28.5213 4.30003 27.9095 4.77832 27.6333L9.1416 25.1138ZM35.2227 27.6333C35.7008 27.9095 35.8648 28.5213 35.5889 28.9995L35.5332 29.0855C35.2565 29.4693 34.745 29.6065 34.3135 29.4126L34.2227 29.3658L29.8574 26.8452C30.2371 26.2995 30.5722 25.7204 30.8584 25.1138L35.2227 27.6333ZM8.04102 18.9995C8.01381 19.3293 8 19.6628 8 19.9995C8 20.3363 8.01381 20.6698 8.04102 20.9995H3C2.44772 20.9995 2 20.5518 2 19.9995C2 19.4819 2.39333 19.0558 2.89746 19.0044L3 18.9995H8.04102ZM31.959 20.9995C31.9862 20.6698 32 20.3363 32 19.9995C32 19.6628 31.9862 19.3293 31.959 18.9995H37L37.1025 19.0044C37.6067 19.0558 38 19.4819 38 19.9995L37.9951 20.1021C37.9472 20.5725 37.573 20.9468 37.1025 20.9947L37 20.9995H31.959ZM4.41113 10.9995C4.68723 10.5213 5.29909 10.3574 5.77734 10.6333L10.1426 13.1538C9.76289 13.6995 9.42781 14.2787 9.1416 14.8853L4.77734 12.3658C4.29918 12.0896 4.13515 11.4778 4.41113 10.9995ZM34.2227 10.6333C34.701 10.3572 35.3127 10.5213 35.5889 10.9995C35.8649 11.4778 35.7009 12.0896 35.2227 12.3658L30.8584 14.8853C30.5722 14.2787 30.2371 13.6996 29.8574 13.1538L34.2227 10.6333ZM11 4.41068C11.4782 4.13459 12.09 4.2988 12.3662 4.77689L14.8857 9.14115C14.2791 9.42736 13.7 9.76242 13.1543 10.1421L10.6348 5.77689C10.3586 5.29861 10.5217 4.68683 11 4.41068ZM27.6338 4.77689C27.9099 4.29875 28.5218 4.13484 29 4.41068C29.4782 4.68678 29.6422 5.29863 29.3662 5.77689L26.8457 10.1421C26.3001 9.76248 25.7208 9.42733 25.1143 9.14115L27.6338 4.77689ZM21 8.04056C20.6703 8.01336 20.3368 7.99955 20 7.99955C19.6632 7.99955 19.3297 8.01336 19 8.04056V2.99955C19 2.44726 19.4477 1.99955 20 1.99955C20.5523 1.99955 21 2.44726 21 2.99955V8.04056ZM21 36.9995C21 37.5518 20.5523 37.9995 20 37.9995C19.4477 37.9995 19 37.5518 19 36.9995V31.9585C19.3297 31.9857 19.6632 31.9995 20 31.9995C20.3368 31.9995 20.6703 31.9857 21 31.9585V36.9995Z" fill="#DDAA01"/>
</svg>
