<svg width="40" height="40" viewBox="0 0 40 40" fill="none" xmlns="http://www.w3.org/2000/svg">
<circle cx="20" cy="20" r="9" fill="#FACE00" stroke="#B38C00" stroke-width="2"/>
<path d="M13.1543 29.8574C13.7 30.2371 14.2791 30.5722 14.8857 30.8584L12.3662 35.2227C12.1073 35.6709 11.554 35.8424 11.0918 35.6348L11 35.5889C10.5218 35.3128 10.3579 34.7009 10.6338 34.2227L13.1543 29.8574ZM29.3662 34.2227C29.6423 34.7009 29.4783 35.3127 29 35.5889L28.9092 35.6348C28.4776 35.8288 27.9662 35.6924 27.6895 35.3086L27.6348 35.2227L25.1143 30.8584C25.7208 30.5722 26.3001 30.2371 26.8457 29.8574L29.3662 34.2227ZM9.1416 25.1143C9.4278 25.7208 9.76291 26.3 10.1426 26.8457L5.77832 29.3662C5.32999 29.6251 4.76429 29.4969 4.46777 29.0859L4.41211 29C4.13597 28.5217 4.30003 27.9099 4.77832 27.6338L9.1416 25.1143ZM35.2227 27.6338C35.7008 27.9099 35.8648 28.5218 35.5889 29L35.5332 29.0859C35.2565 29.4697 34.745 29.607 34.3135 29.4131L34.2227 29.3662L29.8574 26.8457C30.2371 26.3 30.5722 25.7208 30.8584 25.1143L35.2227 27.6338ZM8.04102 19C8.01381 19.3297 8 19.6632 8 20C8 20.3368 8.01381 20.6703 8.04102 21H3C2.44772 21 2 20.5523 2 20C2 19.4477 2.44772 19 3 19H8.04102ZM31.959 21C31.9862 20.6703 32 20.3368 32 20C32 19.6632 31.9862 19.3297 31.959 19H37L37.1025 19.0049C37.6067 19.0562 38 19.4823 38 20L37.9951 20.1025C37.9472 20.573 37.573 20.9472 37.1025 20.9951L37 21H31.959ZM4.41113 11C4.68723 10.5218 5.29909 10.3578 5.77734 10.6338L10.1426 13.1543C9.76289 13.7 9.42781 14.2792 9.1416 14.8857L4.77734 12.3662C4.29918 12.0901 4.13515 11.4782 4.41113 11ZM34.2227 10.6338C34.701 10.3576 35.3127 10.5217 35.5889 11C35.8649 11.4783 35.7009 12.0901 35.2227 12.3662L30.8584 14.8857C30.5722 14.2791 30.2371 13.7 29.8574 13.1543L34.2227 10.6338ZM11 4.41113C11.4782 4.13504 12.09 4.29926 12.3662 4.77734L14.8857 9.1416C14.2791 9.42781 13.7 9.76287 13.1543 10.1426L10.6348 5.77734C10.3586 5.29906 10.5217 4.68728 11 4.41113ZM27.6338 4.77734C27.9099 4.29921 28.5218 4.13529 29 4.41113C29.4782 4.68724 29.6422 5.29908 29.3662 5.77734L26.8457 10.1426C26.3001 9.76293 25.7208 9.42779 25.1143 9.1416L27.6338 4.77734ZM21 8.04102C20.6703 8.01381 20.3368 8 20 8C19.6632 8 19.3297 8.01381 19 8.04102V3C19 2.44772 19.4477 2 20 2C20.5523 2 21 2.44772 21 3V8.04102ZM21 37C21 37.5523 20.5523 38 20 38C19.4477 38 19 37.5523 19 37V31.959C19.3297 31.9862 19.6632 32 20 32C20.3368 32 20.6703 31.9862 21 31.959V37Z" fill="#B38C00"/>
</svg>
