<svg width="40" height="40" viewBox="0 0 40 40" fill="none" xmlns="http://www.w3.org/2000/svg">
<circle cx="20" cy="20" r="9" fill="#FACE00" stroke="#B38C00" stroke-width="2"/>
<mask id="path-2-inside-1_2139_2016" fill="white">
<path d="M20 2C20.5523 2 21 2.44771 21 3V8.04107C20.6703 8.01387 20.3368 8 20 8C19.6632 8 19.3297 8.01387 19 8.04107V3C19 2.44771 19.4477 2 20 2Z"/>
<path d="M14.8857 9.14128L12.3663 4.77763C12.0902 4.29934 11.4786 4.13546 11.0003 4.41161C10.522 4.68775 10.3581 5.29934 10.6343 5.77763L13.1545 10.1428C13.7003 9.76306 14.279 9.4275 14.8857 9.14128Z"/>
<path d="M10.1429 13.1543L5.77757 10.634C5.29928 10.3578 4.68769 10.5217 4.41154 11C4.1354 11.4783 4.29928 12.0899 4.77757 12.366L9.14138 14.8855C9.42761 14.2788 9.76319 13.7001 10.1429 13.1543Z"/>
<path d="M8.04107 19H3C2.44772 19 2 19.4477 2 20C2 20.5523 2.44772 21 3 21H8.04107C8.01387 20.6703 8 20.3368 8 20C8 19.6632 8.01387 19.3297 8.04107 19Z"/>
<path d="M9.14142 25.1146L4.77787 27.6339C4.29958 27.9101 4.13571 28.5216 4.41185 28.9999C4.68799 29.4782 5.29958 29.6421 5.77787 29.366L10.143 26.8458C9.76324 26.3 9.42766 25.7212 9.14142 25.1146Z"/>
<path d="M13.1545 29.8572L10.6342 34.2225C10.358 34.7008 10.5219 35.3124 11.0002 35.5885C11.4785 35.8647 12.0901 35.7008 12.3662 35.2225L14.8857 30.8587C14.279 30.5725 13.7002 30.2369 13.1545 29.8572Z"/>
<path d="M19 31.9589V37C19 37.5523 19.4477 38 20 38C20.5523 38 21 37.5523 21 37V31.9589C20.6703 31.9861 20.3368 32 20 32C19.6632 32 19.3297 31.9861 19 31.9589Z"/>
<path d="M25.1147 30.8585L27.6343 35.2225C27.9104 35.7008 28.522 35.8647 29.0003 35.5885C29.4786 35.3124 29.6425 34.7008 29.3663 34.2225L26.8459 29.8569C26.3001 30.2367 25.7214 30.5723 25.1147 30.8585Z"/>
<path d="M29.8571 26.8457L34.2224 29.366C34.7007 29.6422 35.3123 29.4783 35.5885 29C35.8646 28.5217 35.7007 27.9101 35.2224 27.634L30.8586 25.1145C30.5724 25.7212 30.2368 26.2999 29.8571 26.8457Z"/>
<path d="M31.9589 21H37C37.5523 21 38 20.5523 38 20C38 19.4477 37.5523 19 37 19H31.9589C31.9861 19.3297 32 19.6632 32 20C32 20.3368 31.9861 20.6703 31.9589 21Z"/>
<path d="M30.8587 14.8856L35.2227 12.366C35.701 12.0898 35.8649 11.4782 35.5888 10.9999C35.3126 10.5216 34.701 10.3578 34.2227 10.6339L29.8571 13.1544C30.2369 13.7001 30.5724 14.2789 30.8587 14.8856Z"/>
<path d="M26.8459 10.143L29.3662 5.77763C29.6424 5.29934 29.4785 4.68775 29.0002 4.41161C28.5219 4.13547 27.9103 4.29934 27.6342 4.77763L25.1147 9.14148C25.7213 9.42772 26.3001 9.7633 26.8459 10.143Z"/>
</mask>
<path d="M21 8.04107L20.8356 10.0343L23 10.2129V8.04107H21ZM19 8.04107H17V10.2129L19.1644 10.0343L19 8.04107ZM14.8857 9.14128L15.7391 10.9501L17.7041 10.0229L16.6177 8.14128L14.8857 9.14128ZM12.3663 4.77763L10.6343 5.77763V5.77763L12.3663 4.77763ZM10.6343 5.77763L12.3663 4.77763L12.3663 4.77763L10.6343 5.77763ZM13.1545 10.1428L11.4225 11.1428L12.5105 13.0273L14.2968 11.7845L13.1545 10.1428ZM10.1429 13.1543L11.7846 14.2966L13.0275 12.5103L11.1429 11.4223L10.1429 13.1543ZM5.77757 10.634L4.77757 12.366L4.77757 12.366L5.77757 10.634ZM4.77757 12.366L5.77757 10.634H5.77757L4.77757 12.366ZM9.14138 14.8855L8.14138 16.6175L10.023 17.7039L10.9502 15.7389L9.14138 14.8855ZM8.04107 19L10.0343 19.1644L10.2129 17H8.04107V19ZM8.04107 21V23H10.2129L10.0343 20.8356L8.04107 21ZM9.14142 25.1146L10.9502 24.2612L10.023 22.2962L8.14142 23.3826L9.14142 25.1146ZM4.77787 27.6339L3.77787 25.9019L4.77787 27.6339ZM4.41185 28.9999L6.1439 27.9999L6.1439 27.9999L4.41185 28.9999ZM5.77787 29.366L4.77787 27.6339H4.77787L5.77787 29.366ZM10.143 26.8458L11.143 28.5778L13.0276 27.4897L11.7847 25.7035L10.143 26.8458ZM13.1545 29.8572L14.2968 28.2155L12.5105 26.9727L11.4224 28.8572L13.1545 29.8572ZM10.6342 34.2225L8.90214 33.2225L8.90213 33.2225L10.6342 34.2225ZM11.0002 35.5885L12.0002 33.8565L12.0002 33.8565L11.0002 35.5885ZM12.3662 35.2225L10.6342 34.2225L10.6342 34.2225L12.3662 35.2225ZM14.8857 30.8587L16.6177 31.8587L17.7041 29.9771L15.7391 29.0499L14.8857 30.8587ZM19 31.9589L19.1644 29.9657L17 29.7871V31.9589H19ZM21 31.9589H23V29.7871L20.8356 29.9657L21 31.9589ZM25.1147 30.8585L24.2613 29.0498L22.2964 29.9769L23.3827 31.8585L25.1147 30.8585ZM27.6343 35.2225L25.9022 36.2225V36.2225L27.6343 35.2225ZM29.3663 34.2225L27.6343 35.2225V35.2225L29.3663 34.2225ZM26.8459 29.8569L28.5779 28.8569L27.4898 26.9723L25.7036 28.2153L26.8459 29.8569ZM29.8571 26.8457L28.2154 25.7034L26.9725 27.4897L28.8571 28.5777L29.8571 26.8457ZM34.2224 29.366L35.2224 27.634H35.2224L34.2224 29.366ZM35.2224 27.634L36.2224 25.9019H36.2224L35.2224 27.634ZM30.8586 25.1145L31.8586 23.3825L29.977 22.2961L29.0499 24.2611L30.8586 25.1145ZM31.9589 21L29.9657 20.8356L29.7871 23H31.9589V21ZM31.9589 19V17H29.7871L29.9657 19.1644L31.9589 19ZM30.8587 14.8856L29.0499 15.739L29.977 17.704L31.8587 16.6176L30.8587 14.8856ZM35.2227 12.366L34.2227 10.6339L34.2227 10.6339L35.2227 12.366ZM34.2227 10.6339L33.2227 8.90186V8.90186L34.2227 10.6339ZM29.8571 13.1544L28.8571 11.4223L26.9726 12.5104L28.2154 14.2967L29.8571 13.1544ZM26.8459 10.143L25.7035 11.7847L27.4898 13.0277L28.5779 11.143L26.8459 10.143ZM29.3662 5.77763L31.0983 6.77763V6.77763L29.3662 5.77763ZM27.6342 4.77763L29.3662 5.77763L29.3662 5.77763L27.6342 4.77763ZM25.1147 9.14148L23.3827 8.14148L22.2963 10.0231L24.2612 10.9502L25.1147 9.14148ZM21 3H23C23 1.34314 21.6569 0 20 0V2V4C19.4477 4 19 3.55229 19 3H21ZM21 8.04107H23V3H21H19V8.04107H21ZM20 8V10C20.2818 10 20.5605 10.0116 20.8356 10.0343L21 8.04107L21.1644 6.04785C20.7801 6.01614 20.3917 6 20 6V8ZM19 8.04107L19.1644 10.0343C19.4395 10.0116 19.7182 10 20 10V8V6C19.6083 6 19.2199 6.01614 18.8356 6.04785L19 8.04107ZM19 3H17V8.04107H19H21V3H19ZM20 2V0C18.3431 0 17 1.34314 17 3H19H21C21 3.55229 20.5523 4 20 4V2ZM14.8857 9.14128L16.6177 8.14128L14.0984 3.77763L12.3663 4.77763L10.6343 5.77763L13.1536 10.1413L14.8857 9.14128ZM12.3663 4.77763L14.0984 3.77763C13.27 2.34275 11.4352 1.85113 10.0003 2.67955L11.0003 4.41161L12.0003 6.14366C11.522 6.4198 10.9104 6.25592 10.6343 5.77763L12.3663 4.77763ZM11.0003 4.41161L10.0003 2.67955C8.56543 3.50798 8.0738 5.34275 8.90223 6.77763L10.6343 5.77763L12.3663 4.77763C12.6425 5.25592 12.4786 5.86751 12.0003 6.14366L11.0003 4.41161ZM10.6343 5.77763L8.90223 6.77763L11.4225 11.1428L13.1545 10.1428L14.8866 9.14278L12.3663 4.77763L10.6343 5.77763ZM13.1545 10.1428L14.2968 11.7845C14.7518 11.4679 15.234 11.1884 15.7391 10.9501L14.8857 9.14128L14.0323 7.3325C13.3241 7.66665 12.6487 8.05822 12.0122 8.50106L13.1545 10.1428ZM10.1429 13.1543L11.1429 11.4223L6.77757 8.90192L5.77757 10.634L4.77757 12.366L9.14292 14.8864L10.1429 13.1543ZM5.77757 10.634L6.77757 8.90192C5.34269 8.07349 3.50792 8.56512 2.67949 10L4.41154 11L6.14359 12C5.86745 12.4783 5.25586 12.6422 4.77757 12.366L5.77757 10.634ZM4.41154 11L2.67949 10C1.85106 11.4349 2.34269 13.2696 3.77757 14.0981L4.77757 12.366L5.77757 10.634C6.25586 10.9101 6.41974 11.5217 6.14359 12L4.41154 11ZM4.77757 12.366L3.77757 14.0981L8.14138 16.6175L9.14138 14.8855L10.1414 13.1534L5.77757 10.634L4.77757 12.366ZM9.14138 14.8855L10.9502 15.7389C11.1884 15.2339 11.468 14.7516 11.7846 14.2966L10.1429 13.1543L8.50122 12.012C8.05837 12.6485 7.66678 13.3238 7.33262 14.032L9.14138 14.8855ZM8.04107 19V17H3V19V21H8.04107V19ZM3 19V17C1.34315 17 0 18.3431 0 20H2H4C4 20.5523 3.55229 21 3 21V19ZM2 20H0C0 21.6569 1.34315 23 3 23V21V19C3.55229 19 4 19.4477 4 20H2ZM3 21V23H8.04107V21V19H3V21ZM8.04107 21L10.0343 20.8356C10.0116 20.5605 10 20.2818 10 20H8H6C6 20.3917 6.01614 20.7801 6.04785 21.1644L8.04107 21ZM8 20H10C10 19.7182 10.0116 19.4395 10.0343 19.1644L8.04107 19L6.04785 18.8356C6.01614 19.2199 6 19.6083 6 20H8ZM9.14142 25.1146L8.14142 23.3826L3.77787 25.9019L4.77787 27.6339L5.77787 29.366L10.1414 26.8467L9.14142 25.1146ZM4.77787 27.6339L3.77787 25.9019C2.343 26.7303 1.85137 28.5651 2.6798 29.9999L4.41185 28.9999L6.1439 27.9999C6.42004 28.4782 6.25617 29.0898 5.77787 29.366L4.77787 27.6339ZM4.41185 28.9999L2.6798 29.9999C3.50822 31.4348 5.343 31.9264 6.77787 31.098L5.77787 29.366L4.77787 27.6339C5.25616 27.3578 5.86776 27.5216 6.1439 27.9999L4.41185 28.9999ZM5.77787 29.366L6.77787 31.098L11.143 28.5778L10.143 26.8458L9.14297 25.1137L4.77787 27.6339L5.77787 29.366ZM10.143 26.8458L11.7847 25.7035C11.468 25.2484 11.1885 24.7662 10.9502 24.2612L9.14142 25.1146L7.33266 25.9681C7.66683 26.6763 8.05843 27.3516 8.50128 27.9881L10.143 26.8458ZM13.1545 29.8572L11.4224 28.8572L8.90214 33.2225L10.6342 34.2225L12.3662 35.2225L14.8865 30.8572L13.1545 29.8572ZM10.6342 34.2225L8.90213 33.2225C8.07371 34.6574 8.56534 36.4921 10.0002 37.3206L11.0002 35.5885L12.0002 33.8565C12.4785 34.1326 12.6424 34.7442 12.3662 35.2225L10.6342 34.2225ZM11.0002 35.5885L10.0002 37.3206C11.4351 38.149 13.2699 37.6574 14.0983 36.2225L12.3662 35.2225L10.6342 34.2225C10.9103 33.7442 11.5219 33.5803 12.0002 33.8565L11.0002 35.5885ZM12.3662 35.2225L14.0983 36.2225L16.6177 31.8587L14.8857 30.8587L13.1536 29.8587L10.6342 34.2225L12.3662 35.2225ZM14.8857 30.8587L15.7391 29.0499C15.234 28.8116 14.7518 28.5321 14.2968 28.2155L13.1545 29.8572L12.0122 31.4989C12.6487 31.9418 13.324 32.3333 14.0323 32.6675L14.8857 30.8587ZM19 31.9589H17V37H19H21V31.9589H19ZM19 37H17C17 38.6569 18.3431 40 20 40V38V36C20.5523 36 21 36.4477 21 37H19ZM20 38V40C21.6569 40 23 38.6569 23 37H21H19C19 36.4477 19.4477 36 20 36V38ZM21 37H23V31.9589H21H19V37H21ZM21 31.9589L20.8356 29.9657C20.5605 29.9884 20.2818 30 20 30V32V34C20.3917 34 20.7801 33.9839 21.1644 33.9522L21 31.9589ZM20 32V30C19.7182 30 19.4395 29.9884 19.1644 29.9657L19 31.9589L18.8356 33.9522C19.2199 33.9839 19.6083 34 20 34V32ZM25.1147 30.8585L23.3827 31.8585L25.9022 36.2225L27.6343 35.2225L29.3663 34.2225L26.8468 29.8585L25.1147 30.8585ZM27.6343 35.2225L25.9022 36.2225C26.7307 37.6574 28.5654 38.149 30.0003 37.3206L29.0003 35.5885L28.0003 33.8565C28.4786 33.5803 29.0902 33.7442 29.3663 34.2225L27.6343 35.2225ZM29.0003 35.5885L30.0003 37.3206C31.4352 36.4921 31.9268 34.6574 31.0984 33.2225L29.3663 34.2225L27.6343 35.2225C27.3581 34.7442 27.522 34.1326 28.0003 33.8565L29.0003 35.5885ZM29.3663 34.2225L31.0984 33.2225L28.5779 28.8569L26.8459 29.8569L25.1138 30.8569L27.6343 35.2225L29.3663 34.2225ZM26.8459 29.8569L25.7036 28.2153C25.2485 28.5319 24.7663 28.8115 24.2613 29.0498L25.1147 30.8585L25.9682 32.6673C26.6764 32.3331 27.3517 31.9415 27.9882 31.4986L26.8459 29.8569ZM29.8571 26.8457L28.8571 28.5777L33.2224 31.0981L34.2224 29.366L35.2224 27.634L30.8571 25.1136L29.8571 26.8457ZM34.2224 29.366L33.2224 31.0981C34.6573 31.9265 36.4921 31.4349 37.3205 30L35.5885 29L33.8564 28C34.1325 27.5217 34.7441 27.3578 35.2224 27.634L34.2224 29.366ZM35.5885 29L37.3205 30C38.1489 28.5651 37.6573 26.7304 36.2224 25.9019L35.2224 27.634L34.2224 29.366C33.7441 29.0899 33.5803 28.4783 33.8564 28L35.5885 29ZM35.2224 27.634L36.2224 25.9019L31.8586 23.3825L30.8586 25.1145L29.8586 26.8466L34.2224 29.366L35.2224 27.634ZM30.8586 25.1145L29.0499 24.2611C28.8116 24.7661 28.532 25.2484 28.2154 25.7034L29.8571 26.8457L31.4988 27.988C31.9416 27.3515 32.3332 26.6762 32.6674 25.968L30.8586 25.1145ZM31.9589 21V23H37V21V19H31.9589V21ZM37 21V23C38.6569 23 40 21.6569 40 20H38H36C36 19.4477 36.4477 19 37 19V21ZM38 20H40C40 18.3431 38.6569 17 37 17V19V21C36.4477 21 36 20.5523 36 20H38ZM37 19V17H31.9589V19V21H37V19ZM31.9589 19L29.9657 19.1644C29.9884 19.4395 30 19.7182 30 20H32H34C34 19.6083 33.9839 19.2199 33.9522 18.8356L31.9589 19ZM32 20H30C30 20.2818 29.9884 20.5605 29.9657 20.8356L31.9589 21L33.9522 21.1644C33.9839 20.7801 34 20.3917 34 20H32ZM30.8587 14.8856L31.8587 16.6176L36.2227 14.098L35.2227 12.366L34.2227 10.6339L29.8587 13.1535L30.8587 14.8856ZM35.2227 12.366L36.2227 14.098C37.6576 13.2696 38.1492 11.4348 37.3208 9.99994L35.5888 10.9999L33.8567 11.9999C33.5806 11.5217 33.7444 10.9101 34.2227 10.6339L35.2227 12.366ZM35.5888 10.9999L37.3208 9.99994C36.4924 8.56506 34.6576 8.07343 33.2227 8.90186L34.2227 10.6339L35.2227 12.366C34.7444 12.6421 34.1329 12.4782 33.8567 11.9999L35.5888 10.9999ZM34.2227 10.6339L33.2227 8.90186L28.8571 11.4223L29.8571 13.1544L30.8571 14.8864L35.2227 12.366L34.2227 10.6339ZM29.8571 13.1544L28.2154 14.2967C28.532 14.7517 28.8116 15.2339 29.0499 15.739L30.8587 14.8856L32.6674 14.0321C32.3333 13.3239 31.9417 12.6486 31.4988 12.0121L29.8571 13.1544ZM26.8459 10.143L28.5779 11.143L31.0983 6.77763L29.3662 5.77763L27.6342 4.77763L25.1138 9.14304L26.8459 10.143ZM29.3662 5.77763L31.0983 6.77763C31.9267 5.34275 31.4351 3.50798 30.0002 2.67956L29.0002 4.41161L28.0002 6.14366C27.5219 5.86752 27.358 5.25593 27.6342 4.77763L29.3662 5.77763ZM29.0002 4.41161L30.0002 2.67956C28.5653 1.85113 26.7306 2.34276 25.9021 3.77763L27.6342 4.77763L29.3662 5.77763C29.0901 6.25593 28.4785 6.4198 28.0002 6.14366L29.0002 4.41161ZM27.6342 4.77763L25.9021 3.77763L23.3827 8.14148L25.1147 9.14148L26.8468 10.1415L29.3662 5.77763L27.6342 4.77763ZM25.1147 9.14148L24.2612 10.9502C24.7663 11.1885 25.2485 11.4681 25.7035 11.7847L26.8459 10.143L27.9882 8.50136C27.3517 8.0585 26.6764 7.6669 25.9682 7.33272L25.1147 9.14148Z" fill="#B38C00" mask="url(#path-2-inside-1_2139_2016)"/>
</svg>
