<svg width="40" height="40" viewBox="0 0 40 40" fill="none" xmlns="http://www.w3.org/2000/svg">
<path d="M14.5791 6.18066C15.9162 5.96077 17.2384 5.94713 18.5156 6.11328C14.4618 8.76921 12.1242 13.6891 12.9365 18.8223C14.0203 25.6697 20.3134 30.3718 27.0742 29.373C25.0373 31.7238 22.2235 33.3926 18.958 33.9297C11.4713 35.1608 4.39369 29.9737 3.17871 22.2969C1.96312 14.6156 7.08726 7.41281 14.5791 6.18066Z" fill="#6B8EE8" stroke="#F7F9FA" stroke-width="2"/>
<path d="M31.9275 17L32.9883 19.8667L35.8551 20.9275L32.9883 21.9883L31.9275 24.8551L30.8667 21.9883L28 20.9275L30.8667 19.8667L31.9275 17Z" fill="#EDEFF0"/>
<path d="M28.9275 6L29.9883 8.86674L32.8551 9.92754L29.9883 10.9883L28.9275 13.8551L27.8667 10.9883L25 9.92754L27.8667 8.86674L28.9275 6Z" fill="#EDEFF0"/>
<path d="M22.9275 14L23.9883 16.8667L26.8551 17.9275L23.9883 18.9883L22.9275 21.8551L21.8667 18.9883L19 17.9275L21.8667 16.8667L22.9275 14Z" fill="#EDEFF0"/>
</svg>
