<svg width="40" height="40" viewBox="0 0 40 40" fill="none" xmlns="http://www.w3.org/2000/svg">
<circle cx="20" cy="20" r="9" fill="#FACE00" stroke="#DDAA01" stroke-width="2"/>
<mask id="path-2-inside-1_2139_2411" fill="white">
<path d="M20 1.99955C20.5523 1.99955 21 2.44726 21 2.99955V8.04062C20.6703 8.01342 20.3368 7.99955 20 7.99955C19.6632 7.99955 19.3297 8.01342 19 8.04062V2.99955C19 2.44726 19.4477 1.99955 20 1.99955Z"/>
<path d="M14.8857 9.14083L12.3663 4.77718C12.0902 4.29888 11.4786 4.13501 11.0003 4.41115C10.522 4.68729 10.3581 5.29888 10.6343 5.77718L13.1545 10.1423C13.7003 9.76261 14.279 9.42705 14.8857 9.14083Z"/>
<path d="M10.1429 13.1539L5.77757 10.6335C5.29928 10.3574 4.68769 10.5213 4.41154 10.9995C4.1354 11.4778 4.29928 12.0894 4.77757 12.3656L9.14138 14.885C9.42761 14.2784 9.76318 13.6996 10.1429 13.1539Z"/>
<path d="M8.04107 18.9995H3C2.44772 18.9995 2 19.4473 2 19.9995C2 20.5518 2.44772 20.9995 3 20.9995H8.04107C8.01387 20.6698 8 20.3363 8 19.9995C8 19.6628 8.01387 19.3293 8.04107 18.9995Z"/>
<path d="M9.14142 25.1142L4.77787 27.6335C4.29958 27.9096 4.13571 28.5212 4.41185 28.9995C4.68799 29.4778 5.29958 29.6416 5.77787 29.3655L10.143 26.8453C9.76324 26.2996 9.42766 25.7208 9.14142 25.1142Z"/>
<path d="M13.1545 29.8568L10.6342 34.222C10.358 34.7003 10.5219 35.3119 11.0002 35.5881C11.4785 35.8642 12.0901 35.7003 12.3662 35.222L14.8857 30.8583C14.279 30.572 13.7002 30.2365 13.1545 29.8568Z"/>
<path d="M19 31.9585V36.9995C19 37.5518 19.4477 37.9995 20 37.9995C20.5523 37.9995 21 37.5518 21 36.9995V31.9585C20.6703 31.9857 20.3368 31.9995 20 31.9995C19.6632 31.9995 19.3297 31.9857 19 31.9585Z"/>
<path d="M25.1147 30.8581L27.6343 35.222C27.9104 35.7003 28.522 35.8642 29.0003 35.5881C29.4786 35.3119 29.6425 34.7003 29.3663 34.222L26.8459 29.8565C26.3001 30.2362 25.7214 30.5718 25.1147 30.8581Z"/>
<path d="M29.8571 26.8452L34.2224 29.3656C34.7007 29.6417 35.3123 29.4778 35.5885 28.9995C35.8646 28.5213 35.7007 27.9097 35.2224 27.6335L30.8586 25.1141C30.5724 25.7207 30.2368 26.2995 29.8571 26.8452Z"/>
<path d="M31.9589 20.9995H37C37.5523 20.9995 38 20.5518 38 19.9995C38 19.4473 37.5523 18.9995 37 18.9995H31.9589C31.9861 19.3293 32 19.6628 32 19.9995C32 20.3363 31.9861 20.6698 31.9589 20.9995Z"/>
<path d="M30.8587 14.8851L35.2227 12.3655C35.701 12.0894 35.8649 11.4778 35.5888 10.9995C35.3126 10.5212 34.701 10.3573 34.2227 10.6335L29.8571 13.1539C30.2369 13.6997 30.5724 14.2785 30.8587 14.8851Z"/>
<path d="M26.8459 10.1426L29.3662 5.77718C29.6424 5.29889 29.4785 4.6873 29.0002 4.41116C28.5219 4.13501 27.9103 4.29889 27.6342 4.77718L25.1147 9.14102C25.7213 9.42726 26.3001 9.76285 26.8459 10.1426Z"/>
</mask>
<path d="M21 8.04062L20.8356 10.0338L23 10.2124V8.04062H21ZM19 8.04062H17V10.2124L19.1644 10.0338L19 8.04062ZM14.8857 9.14083L15.7391 10.9496L17.7041 10.0225L16.6177 8.14083L14.8857 9.14083ZM12.3663 4.77718L10.6343 5.77718V5.77718L12.3663 4.77718ZM10.6343 5.77718L12.3663 4.77718L12.3663 4.77718L10.6343 5.77718ZM13.1545 10.1423L11.4225 11.1423L12.5105 13.0269L14.2968 11.784L13.1545 10.1423ZM10.1429 13.1539L11.7846 14.2961L13.0275 12.5099L11.1429 11.4218L10.1429 13.1539ZM5.77757 10.6335L4.77757 12.3656L4.77757 12.3656L5.77757 10.6335ZM4.77757 12.3656L5.77757 10.6335H5.77757L4.77757 12.3656ZM9.14138 14.885L8.14138 16.6171L10.023 17.7034L10.9501 15.7385L9.14138 14.885ZM8.04107 18.9995L10.0343 19.164L10.2129 16.9995H8.04107V18.9995ZM8.04107 20.9995V22.9995H10.2129L10.0343 20.8351L8.04107 20.9995ZM9.14142 25.1142L10.9502 24.2607L10.023 22.2958L8.14142 23.3821L9.14142 25.1142ZM4.77787 27.6335L3.77787 25.9014H3.77787L4.77787 27.6335ZM4.41185 28.9995L6.1439 27.9995L6.1439 27.9995L4.41185 28.9995ZM5.77787 29.3655L4.77787 27.6335H4.77787L5.77787 29.3655ZM10.143 26.8453L11.143 28.5774L13.0276 27.4893L11.7847 25.703L10.143 26.8453ZM13.1545 29.8568L14.2968 28.215L12.5105 26.9722L11.4224 28.8568L13.1545 29.8568ZM10.6342 34.222L8.90214 33.222L8.90213 33.222L10.6342 34.222ZM11.0002 35.5881L12.0002 33.856L12.0002 33.856L11.0002 35.5881ZM12.3662 35.222L10.6342 34.222L10.6342 34.222L12.3662 35.222ZM14.8857 30.8583L16.6177 31.8583L17.7041 29.9766L15.7391 29.0495L14.8857 30.8583ZM19 31.9585L19.1644 29.9652L17 29.7867V31.9585H19ZM21 31.9585H23V29.7867L20.8356 29.9652L21 31.9585ZM25.1147 30.8581L24.2613 29.0493L22.2964 29.9765L23.3827 31.8581L25.1147 30.8581ZM27.6343 35.222L25.9022 36.222V36.222L27.6343 35.222ZM29.3663 34.222L27.6343 35.222V35.222L29.3663 34.222ZM26.8459 29.8565L28.5779 28.8565L27.4898 26.9719L25.7036 28.2148L26.8459 29.8565ZM29.8571 26.8452L28.2154 25.7029L26.9725 27.4892L28.8571 28.5773L29.8571 26.8452ZM34.2224 29.3656L35.2224 27.6335H35.2224L34.2224 29.3656ZM35.2224 27.6335L36.2224 25.9015H36.2224L35.2224 27.6335ZM30.8586 25.1141L31.8586 23.382L29.977 22.2957L29.0499 24.2606L30.8586 25.1141ZM31.9589 20.9995L29.9657 20.8351L29.7871 22.9995H31.9589V20.9995ZM31.9589 18.9995V16.9995H29.7871L29.9657 19.164L31.9589 18.9995ZM30.8587 14.8851L29.0499 15.7385L29.977 17.7035L31.8587 16.6172L30.8587 14.8851ZM35.2227 12.3655L34.2227 10.6335L34.2227 10.6335L35.2227 12.3655ZM34.2227 10.6335L33.2227 8.90141V8.90141L34.2227 10.6335ZM29.8571 13.1539L28.8571 11.4219L26.9726 12.5099L28.2154 14.2962L29.8571 13.1539ZM26.8459 10.1426L25.7035 11.7843L27.4898 13.0272L28.5779 11.1426L26.8459 10.1426ZM29.3662 5.77718L31.0983 6.77718L31.0983 6.77718L29.3662 5.77718ZM27.6342 4.77718L29.3662 5.77718L29.3662 5.77718L27.6342 4.77718ZM25.1147 9.14102L23.3827 8.14102L22.2963 10.0226L24.2612 10.9498L25.1147 9.14102ZM21 2.99955H23C23 1.34269 21.6569 -0.000453949 20 -0.000453949V1.99955V3.99955C19.4477 3.99955 19 3.55183 19 2.99955H21ZM21 8.04062H23V2.99955H21H19V8.04062H21ZM20 7.99955V9.99955C20.2818 9.99955 20.5605 10.0112 20.8356 10.0338L21 8.04062L21.1644 6.04739C20.7801 6.01568 20.3917 5.99955 20 5.99955V7.99955ZM19 8.04062L19.1644 10.0338C19.4395 10.0112 19.7182 9.99955 20 9.99955V7.99955V5.99955C19.6083 5.99955 19.2199 6.01568 18.8356 6.04739L19 8.04062ZM19 2.99955H17V8.04062H19H21V2.99955H19ZM20 1.99955V-0.000453949C18.3431 -0.000453949 17 1.34269 17 2.99955H19H21C21 3.55183 20.5523 3.99955 20 3.99955V1.99955ZM14.8857 9.14083L16.6177 8.14083L14.0984 3.77718L12.3663 4.77718L10.6343 5.77718L13.1536 10.1408L14.8857 9.14083ZM12.3663 4.77718L14.0984 3.77718C13.27 2.3423 11.4352 1.85067 10.0003 2.6791L11.0003 4.41115L12.0003 6.1432C11.522 6.41935 10.9104 6.25547 10.6343 5.77718L12.3663 4.77718ZM11.0003 4.41115L10.0003 2.6791C8.56543 3.50753 8.0738 5.3423 8.90223 6.77718L10.6343 5.77718L12.3663 4.77718C12.6425 5.25547 12.4786 5.86706 12.0003 6.1432L11.0003 4.41115ZM10.6343 5.77718L8.90223 6.77718L11.4225 11.1423L13.1545 10.1423L14.8866 9.14233L12.3663 4.77718L10.6343 5.77718ZM13.1545 10.1423L14.2968 11.784C14.7518 11.4674 15.234 11.1879 15.7391 10.9496L14.8857 9.14083L14.0323 7.33204C13.3241 7.66619 12.6487 8.05777 12.0122 8.50061L13.1545 10.1423ZM10.1429 13.1539L11.1429 11.4218L6.77757 8.90147L5.77757 10.6335L4.77757 12.3656L9.14292 14.8859L10.1429 13.1539ZM5.77757 10.6335L6.77757 8.90147C5.34269 8.07304 3.50792 8.56467 2.67949 9.99955L4.41154 10.9995L6.14359 11.9995C5.86745 12.4778 5.25586 12.6417 4.77757 12.3656L5.77757 10.6335ZM4.41154 10.9995L2.67949 9.99955C1.85106 11.4344 2.34269 13.2692 3.77757 14.0976L4.77757 12.3656L5.77757 10.6335C6.25586 10.9097 6.41974 11.5213 6.14359 11.9995L4.41154 10.9995ZM4.77757 12.3656L3.77757 14.0976L8.14138 16.6171L9.14138 14.885L10.1414 13.153L5.77757 10.6335L4.77757 12.3656ZM9.14138 14.885L10.9501 15.7385C11.1884 15.2334 11.468 14.7512 11.7846 14.2961L10.1429 13.1539L8.50122 12.0116C8.05837 12.648 7.66678 13.3234 7.33262 14.0316L9.14138 14.885ZM8.04107 18.9995V16.9995H3V18.9995V20.9995H8.04107V18.9995ZM3 18.9995V16.9995C1.34314 16.9995 0 18.3427 0 19.9995H2H4C4 20.5518 3.55229 20.9995 3 20.9995V18.9995ZM2 19.9995H0C0 21.6564 1.34315 22.9995 3 22.9995V20.9995V18.9995C3.55229 18.9995 4 19.4473 4 19.9995H2ZM3 20.9995V22.9995H8.04107V20.9995V18.9995H3V20.9995ZM8.04107 20.9995L10.0343 20.8351C10.0116 20.56 10 20.2814 10 19.9995H8H6C6 20.3912 6.01614 20.7796 6.04785 21.164L8.04107 20.9995ZM8 19.9995H10C10 19.7177 10.0116 19.4391 10.0343 19.164L8.04107 18.9995L6.04785 18.8351C6.01614 19.2195 6 19.6078 6 19.9995H8ZM9.14142 25.1142L8.14142 23.3821L3.77787 25.9014L4.77787 27.6335L5.77787 29.3655L10.1414 26.8462L9.14142 25.1142ZM4.77787 27.6335L3.77787 25.9014C2.343 26.7298 1.85137 28.5646 2.6798 29.9995L4.41185 28.9995L6.1439 27.9995C6.42004 28.4778 6.25616 29.0894 5.77787 29.3655L4.77787 27.6335ZM4.41185 28.9995L2.6798 29.9995C3.50822 31.4344 5.343 31.926 6.77787 31.0976L5.77787 29.3655L4.77787 27.6335C5.25616 27.3573 5.86776 27.5212 6.1439 27.9995L4.41185 28.9995ZM5.77787 29.3655L6.77787 31.0976L11.143 28.5774L10.143 26.8453L9.14297 25.1133L4.77787 27.6335L5.77787 29.3655ZM10.143 26.8453L11.7847 25.703C11.468 25.248 11.1885 24.7657 10.9502 24.2607L9.14142 25.1142L7.33266 25.9676C7.66683 26.6758 8.05843 27.3512 8.50128 27.9876L10.143 26.8453ZM13.1545 29.8568L11.4224 28.8568L8.90214 33.222L10.6342 34.222L12.3662 35.222L14.8865 30.8568L13.1545 29.8568ZM10.6342 34.222L8.90213 33.222C8.07371 34.6569 8.56534 36.4917 10.0002 37.3201L11.0002 35.5881L12.0002 33.856C12.4785 34.1322 12.6424 34.7438 12.3662 35.222L10.6342 34.222ZM11.0002 35.5881L10.0002 37.3201C11.4351 38.1486 13.2699 37.6569 14.0983 36.222L12.3662 35.222L10.6342 34.222C10.9103 33.7438 11.5219 33.5799 12.0002 33.856L11.0002 35.5881ZM12.3662 35.222L14.0983 36.222L16.6177 31.8583L14.8857 30.8583L13.1536 29.8583L10.6342 34.222L12.3662 35.222ZM14.8857 30.8583L15.7391 29.0495C15.234 28.8112 14.7518 28.5316 14.2968 28.215L13.1545 29.8568L12.0122 31.4985C12.6487 31.9413 13.324 32.3329 14.0323 32.667L14.8857 30.8583ZM19 31.9585H17V36.9995H19H21V31.9585H19ZM19 36.9995H17C17 38.6564 18.3431 39.9995 20 39.9995V37.9995V35.9995C20.5523 35.9995 21 36.4473 21 36.9995H19ZM20 37.9995V39.9995C21.6569 39.9995 23 38.6564 23 36.9995H21H19C19 36.4473 19.4477 35.9995 20 35.9995V37.9995ZM21 36.9995H23V31.9585H21H19V36.9995H21ZM21 31.9585L20.8356 29.9652C20.5605 29.9879 20.2818 29.9995 20 29.9995V31.9995V33.9995C20.3917 33.9995 20.7801 33.9834 21.1644 33.9517L21 31.9585ZM20 31.9995V29.9995C19.7182 29.9995 19.4395 29.9879 19.1644 29.9652L19 31.9585L18.8356 33.9517C19.2199 33.9834 19.6083 33.9995 20 33.9995V31.9995ZM25.1147 30.8581L23.3827 31.8581L25.9022 36.222L27.6343 35.222L29.3663 34.222L26.8468 29.8581L25.1147 30.8581ZM27.6343 35.222L25.9022 36.222C26.7307 37.6569 28.5654 38.1485 30.0003 37.3201L29.0003 35.5881L28.0003 33.856C28.4786 33.5799 29.0902 33.7437 29.3663 34.222L27.6343 35.222ZM29.0003 35.5881L30.0003 37.3201C31.4352 36.4917 31.9268 34.6569 31.0984 33.222L29.3663 34.222L27.6343 35.222C27.3581 34.7437 27.522 34.1322 28.0003 33.856L29.0003 35.5881ZM29.3663 34.222L31.0984 33.222L28.5779 28.8565L26.8459 29.8565L25.1138 30.8565L27.6343 35.222L29.3663 34.222ZM26.8459 29.8565L25.7036 28.2148C25.2485 28.5314 24.7663 28.811 24.2613 29.0493L25.1147 30.8581L25.9682 32.6668C26.6764 32.3326 27.3517 31.941 27.9882 31.4982L26.8459 29.8565ZM29.8571 26.8452L28.8571 28.5773L33.2224 31.0976L34.2224 29.3656L35.2224 27.6335L30.8571 25.1132L29.8571 26.8452ZM34.2224 29.3656L33.2224 31.0976C34.6573 31.9261 36.4921 31.4344 37.3205 29.9995L35.5885 28.9995L33.8564 27.9995C34.1325 27.5213 34.7441 27.3574 35.2224 27.6335L34.2224 29.3656ZM35.5885 28.9995L37.3205 29.9995C38.1489 28.5647 37.6573 26.7299 36.2224 25.9015L35.2224 27.6335L34.2224 29.3656C33.7441 29.0894 33.5803 28.4778 33.8564 27.9995L35.5885 28.9995ZM35.2224 27.6335L36.2224 25.9015L31.8586 23.382L30.8586 25.1141L29.8586 26.8461L34.2224 29.3656L35.2224 27.6335ZM30.8586 25.1141L29.0499 24.2606C28.8116 24.7657 28.532 25.2479 28.2154 25.7029L29.8571 26.8452L31.4988 27.9875C31.9416 27.3511 32.3332 26.6757 32.6674 25.9675L30.8586 25.1141ZM31.9589 20.9995V22.9995H37V20.9995V18.9995H31.9589V20.9995ZM37 20.9995V22.9995C38.6569 22.9995 40 21.6564 40 19.9995H38H36C36 19.4473 36.4477 18.9995 37 18.9995V20.9995ZM38 19.9995H40C40 18.3427 38.6569 16.9995 37 16.9995V18.9995V20.9995C36.4477 20.9995 36 20.5518 36 19.9995H38ZM37 18.9995V16.9995H31.9589V18.9995V20.9995H37V18.9995ZM31.9589 18.9995L29.9657 19.164C29.9884 19.4391 30 19.7177 30 19.9995H32H34C34 19.6078 33.9839 19.2195 33.9522 18.8351L31.9589 18.9995ZM32 19.9995H30C30 20.2814 29.9884 20.56 29.9657 20.8351L31.9589 20.9995L33.9522 21.164C33.9839 20.7796 34 20.3912 34 19.9995H32ZM30.8587 14.8851L31.8587 16.6172L36.2227 14.0976L35.2227 12.3655L34.2227 10.6335L29.8587 13.1531L30.8587 14.8851ZM35.2227 12.3655L36.2227 14.0976C37.6576 13.2691 38.1492 11.4344 37.3208 9.99948L35.5888 10.9995L33.8567 11.9995C33.5806 11.5212 33.7444 10.9096 34.2227 10.6335L35.2227 12.3655ZM35.5888 10.9995L37.3208 9.99948C36.4924 8.56461 34.6576 8.07298 33.2227 8.90141L34.2227 10.6335L35.2227 12.3655C34.7444 12.6417 34.1329 12.4778 33.8567 11.9995L35.5888 10.9995ZM34.2227 10.6335L33.2227 8.90141L28.8571 11.4219L29.8571 13.1539L30.8571 14.886L35.2227 12.3655L34.2227 10.6335ZM29.8571 13.1539L28.2154 14.2962C28.532 14.7513 28.8116 15.2335 29.0499 15.7385L30.8587 14.8851L32.6674 14.0317C32.3333 13.3235 31.9417 12.6481 31.4988 12.0117L29.8571 13.1539ZM26.8459 10.1426L28.5779 11.1426L31.0983 6.77718L29.3662 5.77718L27.6342 4.77718L25.1138 9.14259L26.8459 10.1426ZM29.3662 5.77718L31.0983 6.77718C31.9267 5.3423 31.4351 3.50753 30.0002 2.6791L29.0002 4.41116L28.0002 6.14321C27.5219 5.86706 27.358 5.25548 27.6342 4.77718L29.3662 5.77718ZM29.0002 4.41116L30.0002 2.6791C28.5653 1.85068 26.7306 2.3423 25.9021 3.77718L27.6342 4.77718L29.3662 5.77718C29.0901 6.25547 28.4785 6.41935 28.0002 6.14321L29.0002 4.41116ZM27.6342 4.77718L25.9021 3.77718L23.3827 8.14102L25.1147 9.14102L26.8468 10.141L29.3662 5.77718L27.6342 4.77718ZM25.1147 9.14102L24.2612 10.9498C24.7663 11.1881 25.2485 11.4676 25.7035 11.7843L26.8459 10.1426L27.9882 8.50091C27.3517 8.05805 26.6764 7.66645 25.9682 7.33227L25.1147 9.14102Z" fill="#DDAA01" mask="url(#path-2-inside-1_2139_2411)"/>
</svg>
