<svg width="24" height="24" viewBox="0 0 24 24" fill="none" xmlns="http://www.w3.org/2000/svg">
<path d="M8.77246 3.85654C9.42213 3.74973 10.0657 3.72501 10.6934 3.77451C8.41975 5.44397 7.1403 8.32126 7.61426 11.3165C8.25525 15.3669 11.8775 18.1918 15.8604 17.8194C14.6866 19.0484 13.1337 19.9168 11.3506 20.2101C6.94319 20.9347 2.772 17.8811 2.05566 13.3546C1.33883 8.82474 4.36125 4.582 8.77246 3.85654Z" fill="#ADCDFF" stroke="#565C65" stroke-width="1.5"/>
<path d="M19.1568 10.2001L19.7933 11.9201L21.5133 12.5566L19.7933 13.1931L19.1568 14.9131L18.5203 13.1931L16.8003 12.5566L18.5203 11.9201L19.1568 10.2001Z" fill="#8D9297"/>
<path d="M17.3568 3.6001L17.9932 5.32014L19.7133 5.95662L17.9932 6.59309L17.3568 8.31314L16.7203 6.59309L15.0002 5.95662L16.7203 5.32014L17.3568 3.6001Z" fill="#8D9297"/>
<path d="M13.7567 8.4001L14.3931 10.1201L16.1132 10.7566L14.3931 11.3931L13.7567 13.1131L13.1202 11.3931L11.4001 10.7566L13.1202 10.1201L13.7567 8.4001Z" fill="#8D9297"/>
</svg>
