<svg width="24" height="24" viewBox="0 0 24 24" fill="none" xmlns="http://www.w3.org/2000/svg">
<circle cx="12" cy="12.0001" r="5.25" fill="#FACE00" stroke="#B38C00" stroke-width="1.5"/>
<path d="M12.7534 22.2467C12.7532 22.6625 12.4159 23 12 23.0001C11.584 23.0001 11.2468 22.6626 11.2466 22.2467V19.1938C11.4942 19.2194 11.7456 19.233 12 19.233C12.2543 19.233 12.5058 19.2194 12.7534 19.1938V22.2467ZM7.75029 17.8537C8.15529 18.1483 8.59264 18.4017 9.05503 18.6081L7.52858 21.25C7.32053 21.6103 6.85986 21.7337 6.49951 21.5256C6.1395 21.3175 6.01588 20.8568 6.22385 20.4966L7.75029 17.8537ZM17.7762 20.4966C17.9842 20.8569 17.8599 21.3176 17.4995 21.5256C17.1392 21.7335 16.6784 21.6103 16.4704 21.25L14.945 18.6081C15.4074 18.4017 15.8447 18.1473 16.2497 17.8528L17.7762 20.4966ZM5.39196 14.9451C5.59838 15.4075 5.85179 15.8448 6.14635 16.2498L3.50254 17.7753C3.14222 17.9832 2.68148 17.8599 2.47347 17.4996C2.26571 17.1394 2.3891 16.6786 2.74913 16.4705L5.39196 14.9451ZM21.2499 16.4705C21.6102 16.6786 21.7336 17.1393 21.5256 17.4996C21.3175 17.86 20.8568 17.9833 20.4965 17.7753L17.8537 16.2498C18.1482 15.8448 18.4016 15.4075 18.608 14.9451L21.2499 16.4705ZM4.8063 11.2467C4.78068 11.4943 4.76706 11.7457 4.76706 12.0001C4.76706 12.2544 4.78067 12.5059 4.8063 12.7535H1.75341C1.33738 12.7535 1.00011 12.4161 1 12.0001C1 11.584 1.33731 11.2467 1.75341 11.2467H4.8063ZM22.2466 11.2467C22.6625 11.2469 23 11.5841 23 12.0001C22.9999 12.416 22.6624 12.7533 22.2466 12.7535H19.1937C19.2193 12.5059 19.2329 12.2544 19.2329 12.0001C19.2329 11.7457 19.2193 11.4943 19.1937 11.2467H22.2466ZM2.47347 6.49961C2.68154 6.13955 3.14232 6.01615 3.50254 6.22394L6.14635 7.75039C5.85179 8.15544 5.59837 8.59267 5.39196 9.05512L2.74913 7.52966C2.38878 7.32161 2.26542 6.85996 2.47347 6.49961ZM20.4965 6.22394C20.8567 6.01599 21.3174 6.13964 21.5256 6.49961C21.7336 6.85996 21.6102 7.32161 21.2499 7.52966L18.608 9.05512C18.4016 8.59271 18.1482 8.15541 17.8537 7.75039L20.4965 6.22394ZM6.50049 2.47357C6.86074 2.26582 7.32154 2.38912 7.52956 2.74923L9.05503 5.39205C8.59257 5.59846 8.15535 5.8519 7.75029 6.14645L6.22483 3.50264C6.01684 3.1423 6.14016 2.6816 6.50049 2.47357ZM16.4704 2.74923C16.6785 2.38913 17.1393 2.26575 17.4995 2.47357C17.8598 2.68159 17.9831 3.14231 17.7752 3.50264L16.2497 6.14645C15.8447 5.8519 15.4074 5.59847 14.945 5.39205L16.4704 2.74923ZM12 1.0001C12.416 1.00022 12.7534 1.33748 12.7534 1.75351V4.80639C12.5058 4.78077 12.2543 4.76716 12 4.76715C11.7456 4.76715 11.4942 4.78077 11.2466 4.80639V1.75351C11.2466 1.33741 11.5839 1.0001 12 1.0001Z" fill="#B38C00"/>
</svg>
