<svg width="24" height="24" viewBox="0 0 24 24" fill="none" xmlns="http://www.w3.org/2000/svg">
<circle cx="11.9998" cy="12.0001" r="5.25" fill="#FACE00" stroke="#B38C00" stroke-width="1.5"/>
<mask id="path-2-inside-1_2139_2809" fill="white">
<path fill-rule="evenodd" clip-rule="evenodd" d="M11.9998 1.0499C12.414 1.0499 12.7498 1.38569 12.7498 1.7999V4.83849C12.5033 4.81298 12.2531 4.7999 11.9998 4.7999C11.7465 4.7999 11.4963 4.81298 11.2498 4.8385V1.7999C11.2498 1.38569 11.5856 1.0499 11.9998 1.0499ZM9.06822 5.42179L7.54959 2.79146C7.34249 2.43274 6.88379 2.30983 6.52507 2.51694C6.16635 2.72404 6.04345 3.18274 6.25055 3.54146L7.7698 6.17286C8.17302 5.87965 8.60785 5.62726 9.06822 5.42179ZM6.17285 7.76978L3.54119 6.25038C3.18247 6.04328 2.72377 6.16618 2.51667 6.5249C2.30956 6.88362 2.43247 7.34231 2.79119 7.54942L5.42175 9.06818C5.62723 8.60782 5.87963 8.17299 6.17285 7.76978ZM4.8384 11.2499H1.79978C1.38557 11.2499 1.04978 11.5857 1.04978 11.9999C1.04978 12.4141 1.38557 12.7499 1.79978 12.7499H4.8384C4.81288 12.5034 4.7998 12.2532 4.7998 11.9999C4.7998 11.7466 4.81288 11.4964 4.8384 11.2499ZM5.42181 14.9317L2.79146 16.4504C2.43274 16.6575 2.30983 17.1162 2.51694 17.4749C2.72404 17.8336 3.18274 17.9565 3.54146 17.7494L6.17293 16.2301C5.8797 15.8269 5.6273 15.3921 5.42181 14.9317ZM7.7696 17.8268L6.25026 20.4584C6.04315 20.8171 6.16606 21.2758 6.52478 21.4829C6.8835 21.69 7.34219 21.5671 7.5493 21.2084L9.06799 18.5779C8.60764 18.3724 8.17281 18.12 7.7696 17.8268ZM11.2498 19.1613V22.1999C11.2498 22.6141 11.5856 22.9499 11.9998 22.9499C12.414 22.9499 12.7498 22.6141 12.7498 22.1999V19.1613C12.5033 19.1868 12.2531 19.1999 11.9998 19.1999C11.7465 19.1999 11.4963 19.1868 11.2498 19.1613ZM14.9318 18.5778L16.4506 21.2084C16.6577 21.5671 17.1164 21.69 17.4751 21.4829C17.8338 21.2758 17.9567 20.8171 17.7496 20.4584L16.2302 17.8267C15.827 18.1199 15.3922 18.3723 14.9318 18.5778ZM17.8267 16.2302L20.4581 17.7494C20.8168 17.9565 21.2755 17.8336 21.4826 17.4749C21.6897 17.1162 21.5668 16.6575 21.2081 16.4504L18.5778 14.9318C18.3723 15.3921 18.1199 15.8269 17.8267 16.2302ZM19.1612 12.7499H22.1998C22.614 12.7499 22.9498 12.4141 22.9498 11.9999C22.9498 11.5857 22.614 11.2499 22.1998 11.2499H19.1612C19.1867 11.4964 19.1998 11.7466 19.1998 11.9999C19.1998 12.2532 19.1867 12.5034 19.1612 12.7499ZM18.5778 9.06816L21.2084 7.54942C21.5671 7.34231 21.69 6.88362 21.4829 6.5249C21.2758 6.16618 20.8171 6.04328 20.4584 6.25038L17.8267 7.76976C18.12 8.17297 18.3724 8.6078 18.5778 9.06816ZM16.23 6.17299L17.7493 3.54146C17.9564 3.18274 17.8335 2.72404 17.4748 2.51694C17.1161 2.30983 16.6574 2.43274 16.4503 2.79146L14.9316 5.42187C15.3919 5.62736 15.8268 5.87976 16.23 6.17299Z"/>
</mask>
<path d="M12.7498 4.83849L12.6262 6.03212L13.9498 6.1691V4.83849L12.7498 4.83849ZM11.2498 4.8385H10.0498V6.16911L11.3733 6.03212L11.2498 4.8385ZM9.06822 5.42179L9.55731 6.51759L10.7732 5.9749L10.1074 4.82179L9.06822 5.42179ZM7.54959 2.79146L6.51036 3.39145V3.39146L7.54959 2.79146ZM6.52507 2.51694L5.92507 1.47771L5.92507 1.47771L6.52507 2.51694ZM6.25055 3.54146L7.28978 2.94146L7.28978 2.94145L6.25055 3.54146ZM7.7698 6.17286L6.73057 6.77286L7.39721 7.92753L8.47555 7.14339L7.7698 6.17286ZM6.17285 7.76978L7.14336 8.47554L7.92754 7.39721L6.77285 6.73054L6.17285 7.76978ZM3.54119 6.25038L2.94119 7.28961L2.94119 7.28961L3.54119 6.25038ZM2.51667 6.5249L1.47744 5.9249L1.47744 5.9249L2.51667 6.5249ZM2.79119 7.54942L3.39119 6.51019L3.39119 6.51019L2.79119 7.54942ZM5.42175 9.06818L4.82175 10.1074L5.97484 10.7731L6.51755 9.55729L5.42175 9.06818ZM4.8384 11.2499L6.03202 11.3734L6.16901 10.0499H4.8384V11.2499ZM4.8384 12.7499L4.8384 13.9499H6.16901L6.03202 12.6264L4.8384 12.7499ZM5.42181 14.9317L6.51759 14.4426L5.97487 13.2268L4.82181 13.8925L5.42181 14.9317ZM2.79146 16.4504L3.39146 17.4896L2.79146 16.4504ZM2.51694 17.4749L3.55617 16.8749L3.55617 16.8749L2.51694 17.4749ZM3.54146 17.7494L2.94146 16.7102L2.94145 16.7102L3.54146 17.7494ZM6.17293 16.2301L6.77293 17.2694L7.92764 16.6027L7.14343 15.5244L6.17293 16.2301ZM7.7696 17.8268L8.47538 16.8563L7.39704 16.0721L6.73037 17.2268L7.7696 17.8268ZM6.25026 20.4584L7.28949 21.0584L6.25026 20.4584ZM6.52478 21.4829L5.92478 22.5221L5.92478 22.5221L6.52478 21.4829ZM7.5493 21.2084L8.58853 21.8084H8.58853L7.5493 21.2084ZM9.06799 18.5779L10.1072 19.1779L10.773 18.0248L9.55712 17.4821L9.06799 18.5779ZM11.2498 19.1613L11.3733 17.9677L10.0498 17.8307V19.1613H11.2498ZM12.7498 19.1613H13.9498V17.8307L12.6262 17.9677L12.7498 19.1613ZM14.9318 18.5778L14.4426 17.4821L13.2269 18.0248L13.8926 19.1778L14.9318 18.5778ZM16.4506 21.2084L15.4113 21.8084L16.4506 21.2084ZM17.4751 21.4829L16.8751 20.4437L16.8751 20.4437L17.4751 21.4829ZM17.7496 20.4584L16.7104 21.0584L16.7104 21.0584L17.7496 20.4584ZM16.2302 17.8267L17.2694 17.2267L16.6027 16.0719L15.5244 16.8562L16.2302 17.8267ZM17.8267 16.2302L16.8562 15.5244L16.0719 16.6027L17.2267 17.2694L17.8267 16.2302ZM20.4581 17.7494L21.0581 16.7102L21.0581 16.7102L20.4581 17.7494ZM21.4826 17.4749L20.4434 16.8749L20.4434 16.8749L21.4826 17.4749ZM21.2081 16.4504L21.8081 15.4112L21.2081 16.4504ZM18.5778 14.9318L19.1778 13.8925L18.0247 13.2268L17.482 14.4426L18.5778 14.9318ZM19.1612 12.7499L17.9676 12.6264L17.8306 13.9499H19.1612V12.7499ZM19.1612 11.2499V10.0499H17.8306L17.9676 11.3734L19.1612 11.2499ZM18.5778 9.06816L17.4821 9.55727L18.0248 10.7731L19.1778 10.1074L18.5778 9.06816ZM21.2084 7.54942L21.8084 8.58865V8.58865L21.2084 7.54942ZM20.4584 6.25038L21.0584 7.28961L21.0584 7.28961L20.4584 6.25038ZM17.8267 7.76976L17.2267 6.73053L16.072 7.39719L16.8562 8.47553L17.8267 7.76976ZM16.23 6.17299L15.5242 7.14349L16.6025 7.92769L17.2692 6.77299L16.23 6.17299ZM17.7493 3.54146L16.7101 2.94145L16.7101 2.94145L17.7493 3.54146ZM16.4503 2.79146L17.4895 3.39146V3.39145L16.4503 2.79146ZM14.9316 5.42187L13.8924 4.82187L13.2266 5.97495L14.4425 6.51766L14.9316 5.42187ZM12.7498 1.7999H13.9498C13.9498 0.722947 13.0767 -0.150098 11.9998 -0.150098V1.0499V2.2499C11.7513 2.2499 11.5498 2.04843 11.5498 1.7999L12.7498 1.7999ZM12.7498 4.83849L13.9498 4.83849V1.7999H12.7498L11.5498 1.7999V4.83849H12.7498ZM11.9998 4.7999V5.9999C12.2117 5.9999 12.4207 6.01084 12.6262 6.03212L12.7498 4.83849L12.8733 3.64487C12.5858 3.61511 12.2944 3.5999 11.9998 3.5999V4.7999ZM11.2498 4.8385L11.3733 6.03212C11.5789 6.01084 11.7879 5.9999 11.9998 5.9999V4.7999V3.5999C11.7052 3.5999 11.4137 3.61512 11.1262 3.64487L11.2498 4.8385ZM11.2498 1.7999H10.0498V4.8385H11.2498H12.4498V1.7999L11.2498 1.7999ZM11.9998 1.0499V-0.150098C10.9228 -0.150098 10.0498 0.722947 10.0498 1.7999H11.2498L12.4498 1.7999C12.4498 2.04843 12.2483 2.2499 11.9998 2.2499V1.0499ZM9.06822 5.42179L10.1074 4.82179L8.58882 2.19146L7.54959 2.79146L6.51036 3.39146L8.02898 6.02179L9.06822 5.42179ZM7.54959 2.79146L8.58882 2.19146C8.05035 1.25878 6.85774 0.939228 5.92507 1.47771L6.52507 2.51694L7.12507 3.55617C6.90984 3.68043 6.63463 3.60669 6.51036 3.39145L7.54959 2.79146ZM6.52507 2.51694L5.92507 1.47771C4.9924 2.01618 4.67285 3.20878 5.21132 4.14146L6.25055 3.54146L7.28978 2.94145C7.41405 3.15669 7.3403 3.4319 7.12507 3.55617L6.52507 2.51694ZM6.25055 3.54146L5.21132 4.14145L6.73057 6.77286L7.7698 6.17286L8.80903 5.57286L7.28978 2.94146L6.25055 3.54146ZM7.7698 6.17286L8.47555 7.14339C8.8118 6.89887 9.1741 6.68863 9.55731 6.51759L9.06822 5.42179L8.57912 4.32598C8.0416 4.5659 7.53424 4.86042 7.06405 5.20234L7.7698 6.17286ZM6.17285 7.76978L6.77285 6.73054L4.14119 5.21115L3.54119 6.25038L2.94119 7.28961L5.57285 8.80901L6.17285 7.76978ZM3.54119 6.25038L4.14119 5.21115C3.20852 4.67267 2.01591 4.99223 1.47744 5.9249L2.51667 6.5249L3.5559 7.1249C3.43163 7.34013 3.15642 7.41388 2.94119 7.28961L3.54119 6.25038ZM2.51667 6.5249L1.47744 5.9249C0.938959 6.85757 1.25852 8.05017 2.19119 8.58865L2.79119 7.54942L3.39119 6.51019C3.60642 6.63445 3.68016 6.90967 3.5559 7.1249L2.51667 6.5249ZM2.79119 7.54942L2.19119 8.58865L4.82175 10.1074L5.42175 9.06818L6.02175 8.02895L3.39119 6.51019L2.79119 7.54942ZM5.42175 9.06818L6.51755 9.55729C6.68859 9.17409 6.89884 8.81179 7.14336 8.47554L6.17285 7.76978L5.20234 7.06401C4.86042 7.53419 4.56588 8.04155 4.32596 8.57906L5.42175 9.06818ZM4.8384 11.2499V10.0499H1.79978V11.2499L1.79978 12.4499H4.8384V11.2499ZM1.79978 11.2499V10.0499C0.722824 10.0499 -0.15022 10.9229 -0.15022 11.9999H1.04978H2.24978C2.24978 12.2484 2.04831 12.4499 1.79978 12.4499L1.79978 11.2499ZM1.04978 11.9999H-0.15022C-0.15022 13.0769 0.722825 13.9499 1.79978 13.9499V12.7499L1.79978 11.5499C2.04831 11.5499 2.24978 11.7514 2.24978 11.9999H1.04978ZM1.79978 12.7499V13.9499H4.8384L4.8384 12.7499V11.5499H1.79978L1.79978 12.7499ZM4.8384 12.7499L6.03202 12.6264C6.01075 12.4208 5.9998 12.2118 5.9998 11.9999H4.7998H3.5998C3.5998 12.2945 3.61502 12.586 3.64477 12.8734L4.8384 12.7499ZM4.7998 11.9999H5.9998C5.9998 11.788 6.01075 11.579 6.03202 11.3734L4.8384 11.2499L3.64477 11.1264C3.61502 11.4139 3.5998 11.7053 3.5998 11.9999H4.7998ZM5.42181 14.9317L4.82181 13.8925L2.19146 15.4112L2.79146 16.4504L3.39146 17.4896L6.02181 15.971L5.42181 14.9317ZM2.79146 16.4504L2.19146 15.4112C1.25879 15.9496 0.939229 17.1422 1.47771 18.0749L2.51694 17.4749L3.55617 16.8749C3.68043 17.0901 3.60669 17.3653 3.39146 17.4896L2.79146 16.4504ZM2.51694 17.4749L1.47771 18.0749C2.01618 19.0076 3.20879 19.3271 4.14146 18.7886L3.54146 17.7494L2.94145 16.7102C3.15669 16.5859 3.4319 16.6597 3.55617 16.8749L2.51694 17.4749ZM3.54146 17.7494L4.14146 18.7887L6.77293 17.2694L6.17293 16.2301L5.57293 15.1909L2.94146 16.7102L3.54146 17.7494ZM6.17293 16.2301L7.14343 15.5244C6.8989 15.1881 6.68864 14.8258 6.51759 14.4426L5.42181 14.9317L4.32602 15.4209C4.56595 15.9584 4.8605 16.4657 5.20243 16.9359L6.17293 16.2301ZM7.7696 17.8268L6.73037 17.2268L5.21103 19.8584L6.25026 20.4584L7.28949 21.0584L8.80883 18.4268L7.7696 17.8268ZM6.25026 20.4584L5.21103 19.8584C4.67255 20.791 4.99211 21.9836 5.92478 22.5221L6.52478 21.4829L7.12478 20.4437C7.34001 20.5679 7.41376 20.8431 7.28949 21.0584L6.25026 20.4584ZM6.52478 21.4829L5.92478 22.5221C6.85745 23.0606 8.05005 22.741 8.58853 21.8084L7.5493 21.2084L6.51007 20.6084C6.63433 20.3931 6.90955 20.3194 7.12478 20.4437L6.52478 21.4829ZM7.5493 21.2084L8.58853 21.8084L10.1072 19.1779L9.06799 18.5779L8.02876 17.9779L6.51007 20.6084L7.5493 21.2084ZM9.06799 18.5779L9.55712 17.4821C9.17393 17.3111 8.81163 17.1008 8.47538 16.8563L7.7696 17.8268L7.06382 18.7973C7.534 19.1392 8.04135 19.4338 8.57886 19.6737L9.06799 18.5779ZM11.2498 19.1613H10.0498V22.1999H11.2498H12.4498V19.1613H11.2498ZM11.2498 22.1999H10.0498C10.0498 23.2769 10.9228 24.1499 11.9998 24.1499V22.9499V21.7499C12.2483 21.7499 12.4498 21.9514 12.4498 22.1999H11.2498ZM11.9998 22.9499V24.1499C13.0767 24.1499 13.9498 23.2769 13.9498 22.1999H12.7498H11.5498C11.5498 21.9514 11.7513 21.7499 11.9998 21.7499V22.9499ZM12.7498 22.1999H13.9498V19.1613H12.7498H11.5498V22.1999H12.7498ZM12.7498 19.1613L12.6262 17.9677C12.4207 17.989 12.2117 17.9999 11.9998 17.9999V19.1999V20.3999C12.2944 20.3999 12.5858 20.3847 12.8733 20.3549L12.7498 19.1613ZM11.9998 19.1999V17.9999C11.7879 17.9999 11.5789 17.989 11.3733 17.9677L11.2498 19.1613L11.1262 20.3549C11.4137 20.3847 11.7052 20.3999 11.9998 20.3999V19.1999ZM14.9318 18.5778L13.8926 19.1778L15.4113 21.8084L16.4506 21.2084L17.4898 20.6084L15.971 17.9778L14.9318 18.5778ZM16.4506 21.2084L15.4113 21.8084C15.9498 22.741 17.1424 23.0606 18.0751 22.5221L17.4751 21.4829L16.8751 20.4437C17.0903 20.3194 17.3655 20.3931 17.4898 20.6084L16.4506 21.2084ZM17.4751 21.4829L18.0751 22.5221C19.0077 21.9836 19.3273 20.791 18.7888 19.8584L17.7496 20.4584L16.7104 21.0584C16.5861 20.8431 16.6598 20.5679 16.8751 20.4437L17.4751 21.4829ZM17.7496 20.4584L18.7888 19.8584L17.2694 17.2267L16.2302 17.8267L15.1909 18.4267L16.7104 21.0584L17.7496 20.4584ZM16.2302 17.8267L15.5244 16.8562C15.1881 17.1007 14.8258 17.311 14.4426 17.4821L14.9318 18.5778L15.421 19.6736C15.9585 19.4337 16.4658 19.1391 16.936 18.7972L16.2302 17.8267ZM17.8267 16.2302L17.2267 17.2694L19.8581 18.7887L20.4581 17.7494L21.0581 16.7102L18.4267 15.1909L17.8267 16.2302ZM20.4581 17.7494L19.8581 18.7886C20.7908 19.3271 21.9834 19.0076 22.5219 18.0749L21.4826 17.4749L20.4434 16.8749C20.5677 16.6597 20.8429 16.5859 21.0581 16.7102L20.4581 17.7494ZM21.4826 17.4749L22.5219 18.0749C23.0603 17.1422 22.7408 15.9496 21.8081 15.4112L21.2081 16.4504L20.6081 17.4896C20.3929 17.3654 20.3191 17.0901 20.4434 16.8749L21.4826 17.4749ZM21.2081 16.4504L21.8081 15.4112L19.1778 13.8925L18.5778 14.9318L17.9778 15.971L20.6081 17.4896L21.2081 16.4504ZM18.5778 14.9318L17.482 14.4426C17.311 14.8258 17.1007 15.1881 16.8562 15.5244L17.8267 16.2302L18.7972 16.9359C19.1391 16.4658 19.4336 15.9584 19.6736 15.4209L18.5778 14.9318ZM19.1612 12.7499V13.9499H22.1998V12.7499V11.5499H19.1612V12.7499ZM22.1998 12.7499V13.9499C23.2767 13.9499 24.1498 13.0769 24.1498 11.9999H22.9498H21.7498C21.7498 11.7514 21.9513 11.5499 22.1998 11.5499V12.7499ZM22.9498 11.9999H24.1498C24.1498 10.9229 23.2767 10.0499 22.1998 10.0499V11.2499V12.4499C21.9513 12.4499 21.7498 12.2484 21.7498 11.9999H22.9498ZM22.1998 11.2499V10.0499H19.1612V11.2499V12.4499H22.1998V11.2499ZM19.1612 11.2499L17.9676 11.3734C17.9889 11.579 17.9998 11.788 17.9998 11.9999H19.1998H20.3998C20.3998 11.7053 20.3846 11.4139 20.3548 11.1264L19.1612 11.2499ZM19.1998 11.9999H17.9998C17.9998 12.2118 17.9889 12.4208 17.9676 12.6264L19.1612 12.7499L20.3548 12.8734C20.3846 12.5859 20.3998 12.2945 20.3998 11.9999H19.1998ZM18.5778 9.06816L19.1778 10.1074L21.8084 8.58865L21.2084 7.54942L20.6084 6.51019L17.9778 8.02892L18.5778 9.06816ZM21.2084 7.54942L21.8084 8.58865C22.741 8.05018 23.0606 6.85757 22.5221 5.9249L21.4829 6.5249L20.4437 7.1249C20.3194 6.90967 20.3931 6.63445 20.6084 6.51019L21.2084 7.54942ZM21.4829 6.5249L22.5221 5.9249C21.9836 4.99223 20.791 4.67267 19.8584 5.21115L20.4584 6.25038L21.0584 7.28961C20.8431 7.41388 20.5679 7.34013 20.4437 7.1249L21.4829 6.5249ZM20.4584 6.25038L19.8584 5.21115L17.2267 6.73053L17.8267 7.76976L18.4267 8.80899L21.0584 7.28961L20.4584 6.25038ZM17.8267 7.76976L16.8562 8.47553C17.1008 8.81178 17.311 9.17407 17.4821 9.55727L18.5778 9.06816L19.6736 8.57904C19.4337 8.04152 19.1392 7.53417 18.7973 7.06398L17.8267 7.76976ZM16.23 6.17299L17.2692 6.77299L18.7885 4.14146L17.7493 3.54146L16.7101 2.94145L15.1908 5.57299L16.23 6.17299ZM17.7493 3.54146L18.7885 4.14146C19.327 3.20878 19.0074 2.01618 18.0748 1.47771L17.4748 2.51694L16.8748 3.55617C16.6595 3.4319 16.5858 3.15669 16.7101 2.94145L17.7493 3.54146ZM17.4748 2.51694L18.0748 1.47771C17.1421 0.939227 15.9495 1.25878 15.411 2.19146L16.4503 2.79146L17.4895 3.39145C17.3652 3.60669 17.09 3.68043 16.8748 3.55617L17.4748 2.51694ZM16.4503 2.79146L15.411 2.19146L13.8924 4.82187L14.9316 5.42187L15.9708 6.02187L17.4895 3.39146L16.4503 2.79146ZM14.9316 5.42187L14.4425 6.51766C14.8257 6.68871 15.188 6.89896 15.5242 7.14349L16.23 6.17299L16.9358 5.20248C16.4656 4.86055 15.9582 4.56601 15.4207 4.32608L14.9316 5.42187Z" fill="#B38C00" mask="url(#path-2-inside-1_2139_2809)"/>
</svg>
