<svg width="24" height="24" viewBox="0 0 24 24" fill="none" xmlns="http://www.w3.org/2000/svg">
<path d="M16.5806 2.99985C18.3108 2.99995 19.7829 4.10432 20.3315 5.64633C21.6019 6.15521 22.4994 7.39735 22.4995 8.84946C22.4995 10.2292 21.6894 11.4197 20.519 11.9715C20.5037 9.99656 18.8989 8.3995 16.9204 8.39926C16.5803 8.39926 16.2508 8.44687 15.939 8.535C15.465 7.07092 14.3824 5.88099 12.9897 5.26254C13.6312 3.92442 14.9975 2.99985 16.5806 2.99985Z" fill="#F1F3F6"/>
<path d="M16.5806 2.99985C18.3107 3.00006 19.7839 4.1044 20.3325 5.64633C21.6025 6.15538 22.5003 7.39762 22.5005 8.84946L22.4956 9.02719C22.4296 10.3309 21.6388 11.4425 20.519 11.9706C20.5147 11.4245 20.3892 10.9076 20.1675 10.4452C20.6702 10.0924 21.0005 9.51008 21.0005 8.84946C21.0003 8.03134 20.4953 7.32677 19.7749 7.03793L19.146 6.78696L18.9194 6.14828C18.5767 5.18554 17.6562 4.50005 16.5806 4.49985C15.5499 4.49995 14.6629 5.12924 14.2886 6.03012L14.2729 6.06625C13.8872 5.74191 13.4563 5.46973 12.9897 5.26254C13.6312 3.92458 14.9977 2.99995 16.5806 2.99985Z" fill="#71767A"/>
<path d="M16.6284 16.7868C18.4722 16.6303 19.9199 15.0841 19.9199 13.1998C19.9199 11.2115 18.3081 9.59974 16.3199 9.59974C15.9797 9.59974 15.6506 9.64692 15.3386 9.73509C14.6368 7.56744 12.6015 5.99994 10.2001 5.99994C8.04261 5.99994 6.18063 7.26517 5.31568 9.09413C5.23013 9.08846 5.14382 9.08558 5.05684 9.08558C2.9266 9.08558 1.19971 10.8125 1.19971 12.9427C1.19971 15.0729 2.9266 16.7998 5.05684 16.7998C5.05677 16.7998 5.0569 16.7998 5.05684 16.7998L10.151 16.7999C10.1674 16.8 10.1837 16.8001 10.2001 16.8001C10.2165 16.8001 10.2328 16.8 10.2492 16.7999H16.6284V16.7868Z" fill="#F1F3F6"/>
<path d="M10.1997 15.2997V16.7997H5.05713V15.2997H10.1997ZM1.19971 12.9423C1.19992 10.8123 2.92703 9.08588 5.05713 9.08588L5.31592 9.09369C6.18091 7.26508 8.04257 6.00009 10.1997 5.99994C12.5262 5.99994 14.5094 7.47124 15.269 9.53412L15.3384 9.73529C15.6503 9.64712 15.9797 9.59955 16.3198 9.59955C18.3081 9.59955 19.9194 11.2119 19.9194 13.2001L19.9155 13.3749C19.8291 15.1791 18.4148 16.6354 16.6284 16.787V16.7997H10.1997V15.2997H16.4097L16.5015 15.2919C17.5754 15.2008 18.4193 14.2984 18.4194 13.2001C18.4194 12.0403 17.4796 11.0995 16.3198 11.0995C16.119 11.0996 15.9271 11.1276 15.7466 11.1786L14.3569 11.5712L13.9116 10.1972C13.4042 8.63015 11.9318 7.49994 10.1997 7.49994C8.64394 7.50009 7.29767 8.41101 6.67139 9.73529L6.23486 10.6581L5.21631 10.5908C5.16389 10.5873 5.11081 10.5859 5.05713 10.5859C3.75545 10.5859 2.69992 11.6407 2.69971 12.9423C2.69971 14.2441 3.75532 15.2997 5.05713 15.2997V16.7997L4.85791 16.7949C2.82013 16.6913 1.19971 15.0058 1.19971 12.9423Z" fill="#71767A"/>
</svg>
