<svg width="40" height="40" viewBox="0 0 40 40" fill="none" xmlns="http://www.w3.org/2000/svg">
<mask id="mask0_2139_2544" style="mask-type:alpha" maskUnits="userSpaceOnUse" x="2" y="3" width="36" height="25">
<mask id="path-1-inside-1_2139_2544" fill="white">
<path d="M38 28H2V3H38V28ZM18 8C14.4043 8.00022 11.3028 10.1099 9.86133 13.1582C9.71841 13.1487 9.57404 13.1426 9.42871 13.1426C5.87847 13.1427 3.00005 16.021 3 19.5713C3 23.0106 5.70117 25.8189 9.09766 25.9912L9.42871 26H28.7139V25.9756C31.7871 25.715 34.2001 23.1406 34.2002 20C34.2002 16.6862 31.5139 14 28.2002 14C27.6327 14 27.0838 14.0803 26.5635 14.2275C25.3943 10.614 22.0029 8 18 8Z"/>
</mask>
<path d="M38 28H2V3H38V28ZM18 8C14.4043 8.00022 11.3028 10.1099 9.86133 13.1582C9.71841 13.1487 9.57404 13.1426 9.42871 13.1426C5.87847 13.1427 3.00005 16.021 3 19.5713C3 23.0106 5.70117 25.8189 9.09766 25.9912L9.42871 26H28.7139V25.9756C31.7871 25.715 34.2001 23.1406 34.2002 20C34.2002 16.6862 31.5139 14 28.2002 14C27.6327 14 27.0838 14.0803 26.5635 14.2275C25.3943 10.614 22.0029 8 18 8Z" fill="#D9D9D9"/>
<path d="M38 28V29H39V28H38ZM2 28H1V29H2V28ZM2 3V2H1V3H2ZM38 3H39V2H38V3ZM18 8V7H17.9999L18 8ZM9.86133 13.1582L9.79502 14.156L10.4743 14.2011L10.7653 13.5857L9.86133 13.1582ZM9.42871 13.1426L9.42874 12.1426H9.42867L9.42871 13.1426ZM3 19.5713L2 19.5713V19.5713H3ZM9.09766 25.9912L9.04698 26.9899L9.05904 26.9905L9.07112 26.9909L9.09766 25.9912ZM9.42871 26L9.40217 26.9996L9.41544 27H9.42871V26ZM28.7139 26V27H29.7139V26H28.7139ZM28.7139 25.9756L28.6294 24.9792L27.7139 25.0568V25.9756H28.7139ZM34.2002 20L35.2002 20V20H34.2002ZM28.2002 14V13H28.2001L28.2002 14ZM26.5635 14.2275L25.612 14.5354L25.9087 15.4521L26.8358 15.1897L26.5635 14.2275ZM38 28V27H2V28V29H38V28ZM2 28H3V3H2H1V28H2ZM2 3V4H38V3V2H2V3ZM38 3H37V28H38H39V3H38ZM18 8L17.9999 7C14.0029 7.00024 10.5577 9.34644 8.95731 12.7307L9.86133 13.1582L10.7653 13.5857C12.0479 10.8735 14.8058 9.00019 18.0001 9L18 8ZM9.86133 13.1582L9.92764 12.1604C9.76902 12.1499 9.60175 12.1426 9.42874 12.1426L9.42871 13.1426L9.42869 14.1426C9.54632 14.1426 9.66779 14.1475 9.79502 14.156L9.86133 13.1582ZM9.42871 13.1426L9.42867 12.1426C5.3262 12.1427 2.00006 15.4687 2 19.5713L3 19.5713L4 19.5713C4.00004 16.5733 6.43074 14.1427 9.42875 14.1426L9.42871 13.1426ZM3 19.5713H2C2 23.546 5.12141 26.7907 9.04698 26.9899L9.09766 25.9912L9.14833 24.9925C6.28092 24.847 4 22.4752 4 19.5713H3ZM9.09766 25.9912L9.07112 26.9909L9.40217 26.9996L9.42871 26L9.45525 25.0004L9.1242 24.9916L9.09766 25.9912ZM9.42871 26V27H28.7139V26V25H9.42871V26ZM28.7139 26H29.7139V25.9756H28.7139H27.7139V26H28.7139ZM28.7139 25.9756L28.7984 26.972C32.3843 26.6679 35.2001 23.6652 35.2002 20L34.2002 20L33.2002 20C33.2001 22.6161 31.1899 24.762 28.6294 24.9792L28.7139 25.9756ZM34.2002 20H35.2002C35.2002 16.134 32.0662 13 28.2002 13V14V15C30.9617 15 33.2002 17.2385 33.2002 20H34.2002ZM28.2002 14L28.2001 13C27.5379 13 26.8975 13.0937 26.2912 13.2653L26.5635 14.2275L26.8358 15.1897C27.2701 15.0668 27.7274 15 28.2003 15L28.2002 14ZM26.5635 14.2275L27.5149 13.9197C26.2162 9.9059 22.4495 7 18 7V8V9C21.5564 9 24.5723 11.322 25.612 14.5354L26.5635 14.2275Z" fill="#A9AEB1" mask="url(#path-1-inside-1_2139_2544)"/>
</mask>
<g mask="url(#mask0_2139_2544)">
<path d="M27.6348 6C30.0823 6.0001 32.1682 7.56112 32.9453 9.74512L33.0967 10.1709L33.5156 10.3389C35.2663 11.0404 36.5 12.7523 36.5 14.75C36.5 17.3733 34.3733 19.5 31.75 19.5C31.4337 19.5 31.1255 19.4695 30.8281 19.4111L30.4971 19.3457L30.1953 19.4941C29.8362 19.67 29.4527 19.8039 29.0518 19.8896L28.5078 20.0059H15.2773L15.1289 19.9932C13.3767 19.8446 12 18.3742 12 16.583C12 14.6926 13.5324 13.1603 15.4229 13.1602C15.4483 13.1602 15.4738 13.1606 15.499 13.1611L16.1484 13.1748L16.4258 12.5869C17.146 11.0563 18.7006 10 20.5 10C20.782 10 21.0571 10.0261 21.3232 10.0752L22.1182 10.2217L22.4287 9.47461C23.277 7.43284 25.2898 6 27.6348 6Z" fill="#F7F9FA" stroke="#A9AEB1" stroke-width="2"/>
</g>
<path d="M17 11C20.5561 11 23.5732 13.3209 24.6133 16.5332L24.9102 17.4492L25.8369 17.1875C26.2691 17.0653 26.7262 17 27.2002 17C29.9617 17 32.2002 19.2385 32.2002 22C32.2001 24.6165 30.1897 26.7642 27.6299 26.9814L27.4121 27H8.42871C5.43061 27 3 24.5694 3 21.5713C3 18.5732 5.43061 16.1426 8.42871 16.1426C8.55146 16.1426 8.67349 16.1473 8.79395 16.1553L9.47266 16.2002L9.76367 15.585C11.0461 12.8732 13.8054 11.0001 17 11Z" fill="#F7F9FA" stroke="#A9AEB1" stroke-width="2"/>
</svg>
