<svg width="40" height="40" viewBox="0 0 40 40" fill="none" xmlns="http://www.w3.org/2000/svg">
<path d="M27.6348 5C30.5186 5.0001 32.9723 6.84016 33.8867 9.41016C36.0041 10.2583 37.5 12.3296 37.5 14.75C37.5 17.0497 36.1491 19.0324 34.1982 19.9521C34.1726 16.6603 31.4981 14 28.2002 14C27.6332 14 27.0844 14.0786 26.5645 14.2256C25.7744 11.7852 23.9698 9.80217 21.6484 8.77148C22.7173 6.54075 24.996 5 27.6348 5Z" fill="#F1F3F6"/>
<path d="M27.9033 5.00488C30.6701 5.11512 33.0008 6.92031 33.8867 9.41016C36.0041 10.2583 37.4999 12.3296 37.5 14.75L37.4922 15.0459C37.382 17.2191 36.0649 19.0731 34.1982 19.9531C34.1927 19.2235 34.0574 18.5254 33.8135 17.8799C34.8291 17.2089 35.5 16.0583 35.5 14.75C35.4999 13.1747 34.528 11.8212 33.1436 11.2666L32.3057 10.9307L32.0029 10.0811C31.3632 8.28302 29.6461 7.0001 27.6348 7C25.7353 7 24.0994 8.14378 23.3838 9.78711C22.8484 9.38688 22.2665 9.04592 21.6484 8.77148C22.7174 6.54083 24.9961 5 27.6348 5L27.9033 5.00488Z" fill="#71767A"/>
<path d="M27.7142 27.9781C30.7874 27.7175 33.2004 25.1404 33.2004 21.9998C33.2004 18.686 30.5141 15.9997 27.2003 15.9997C26.6333 15.9997 26.0846 16.0783 25.5646 16.2254C24.3949 12.6126 21.0027 10 17.0003 10C13.4045 10 10.3012 12.1087 8.85963 15.157C8.71716 15.1475 8.57341 15.1428 8.42855 15.1428C4.87816 15.1428 2 18.0209 2 21.5713C2 25.1217 4.87816 27.9998 8.42855 27.9998H16.9147C16.9432 28.0001 16.9717 28.0002 17.0003 28.0002C17.0289 28.0002 17.0574 28.0001 17.0859 27.9998H27.7142V27.9781Z" fill="#F1F3F6"/>
<path d="M17.0001 26.0002V28.0002H8.42876V26.0002H17.0001ZM2 21.5714C2 18.021 4.87834 15.1426 8.42876 15.1426L8.85942 15.1573C10.301 12.1091 13.4044 10.0001 17.0001 10C20.8774 10 24.1822 12.4519 25.4484 15.8897L25.5646 16.2257C26.0846 16.0787 26.6333 16.0001 27.2004 16.0001L27.509 16.0079C30.6794 16.1685 33.2004 18.7898 33.2004 22.0002L33.1936 22.2931C33.0489 25.2997 30.6911 27.7263 27.714 27.9788V28.0002H17.0001V26.0002H27.3722L27.5451 25.9856C29.5918 25.812 31.2003 24.0928 31.2004 22.0002C31.2004 19.7909 29.4096 18.0001 27.2004 18.0001C26.8191 18.0001 26.4532 18.0531 26.1086 18.1505L24.255 18.6739L23.6623 16.8419C22.7518 14.0298 20.1101 12 17.0001 12C14.2066 12.0001 11.7915 13.6366 10.668 16.0118L10.086 17.2423L8.72759 17.1524C8.6291 17.1459 8.52944 17.1427 8.42876 17.1427C5.98292 17.1427 4.00002 19.1256 4.00001 21.5714C4.00001 24.0173 5.98292 26.0002 8.42876 26.0002V28.0002L8.0977 27.9915C4.70107 27.8192 2 25.0109 2 21.5714Z" fill="#71767A"/>
</svg>
