<svg width="40" height="40" viewBox="0 0 40 40" fill="none" xmlns="http://www.w3.org/2000/svg">
<mask id="mask0_2139_2159" style="mask-type:alpha" maskUnits="userSpaceOnUse" x="2" y="3" width="38" height="25">
<mask id="path-1-inside-1_2139_2159" fill="white">
<path d="M39.7881 28H2V3H39.7881V28ZM18 8C14.4043 8.00013 11.3009 10.1091 9.85938 13.1572C9.71703 13.1478 9.57344 13.1426 9.42871 13.1426C5.87832 13.1426 3 16.0209 3 19.5713C3 23.1217 5.87832 26 9.42871 26H28.7139V25.9785C31.787 25.7179 34.2001 23.1406 34.2002 20C34.2002 16.6862 31.5139 14 28.2002 14C27.6332 14 27.0844 14.0786 26.5645 14.2256C25.3948 10.6128 22.0024 8 18 8Z"/>
</mask>
<path d="M39.7881 28H2V3H39.7881V28ZM18 8C14.4043 8.00013 11.3009 10.1091 9.85938 13.1572C9.71703 13.1478 9.57344 13.1426 9.42871 13.1426C5.87832 13.1426 3 16.0209 3 19.5713C3 23.1217 5.87832 26 9.42871 26H28.7139V25.9785C31.787 25.7179 34.2001 23.1406 34.2002 20C34.2002 16.6862 31.5139 14 28.2002 14C27.6332 14 27.0844 14.0786 26.5645 14.2256C25.3948 10.6128 22.0024 8 18 8Z" fill="#D9D9D9"/>
<path d="M39.7881 28V29H40.7881V28H39.7881ZM2 28H1V29H2V28ZM2 3V2H1V3H2ZM39.7881 3H40.7881V2H39.7881V3ZM18 8V7H18L18 8ZM9.85938 13.1572L9.79335 14.155L10.4724 14.2L10.7634 13.5848L9.85938 13.1572ZM9.42871 13.1426L9.42873 12.1426H9.42871V13.1426ZM3 19.5713L2 19.5713V19.5713H3ZM28.7139 26V27H29.7139V26H28.7139ZM28.7139 25.9785L28.6294 24.9821L27.7139 25.0597V25.9785H28.7139ZM34.2002 20L35.2002 20V20H34.2002ZM28.2002 14V13H28.2002L28.2002 14ZM26.5645 14.2256L25.6131 14.5336L25.9097 15.4499L26.8365 15.1879L26.5645 14.2256ZM39.7881 28V27H2V28V29H39.7881V28ZM2 28H3V3H2H1V28H2ZM2 3V4H39.7881V3V2H2V3ZM39.7881 3H38.7881V28H39.7881H40.7881V3H39.7881ZM18 8L18 7C14.0033 7.00015 10.556 9.34518 8.95537 12.7297L9.85938 13.1572L10.7634 13.5848C12.0459 10.8729 14.8054 9.00012 18 9L18 8ZM9.85938 13.1572L9.9254 12.1594C9.7632 12.1487 9.5975 12.1426 9.42873 12.1426L9.42871 13.1426L9.42869 14.1426C9.54938 14.1426 9.67087 14.1469 9.79335 14.155L9.85938 13.1572ZM9.42871 13.1426V12.1426C5.32604 12.1426 2.00001 15.4686 2 19.5713L3 19.5713L4 19.5713C4 16.5732 6.43061 14.1426 9.42871 14.1426V13.1426ZM3 19.5713H2C2 23.674 5.32604 27 9.42871 27V26V25C6.43061 25 4 22.5694 4 19.5713H3ZM9.42871 26V27H28.7139V26V25H9.42871V26ZM28.7139 26H29.7139V25.9785H28.7139H27.7139V26H28.7139ZM28.7139 25.9785L28.7984 26.9749C32.3848 26.6708 35.2001 23.6645 35.2002 20L34.2002 20L33.2002 20C33.2001 22.6166 31.1892 24.765 28.6294 24.9821L28.7139 25.9785ZM34.2002 20H35.2002C35.2002 16.134 32.0662 13 28.2002 13V14V15C30.9617 15 33.2002 17.2385 33.2002 20H34.2002ZM28.2002 14L28.2002 13C27.5404 13 26.9001 13.0915 26.2924 13.2633L26.5645 14.2256L26.8365 15.1879C27.2687 15.0657 27.726 15 28.2002 15L28.2002 14ZM26.5645 14.2256L27.5158 13.9176C26.2165 9.90438 22.4486 7 18 7V8V9C21.5561 9 24.573 11.3212 25.6131 14.5336L26.5645 14.2256Z" fill="#A9AEB1" mask="url(#path-1-inside-1_2139_2159)"/>
</mask>
<g mask="url(#mask0_2139_2159)">
<path d="M27.6348 6C30.0823 6.0001 32.1682 7.56112 32.9453 9.74512L33.0967 10.1709L33.5156 10.3389C35.2663 11.0404 36.5 12.7523 36.5 14.75C36.5 17.3733 34.3733 19.5 31.75 19.5C31.4337 19.5 31.1255 19.4695 30.8281 19.4111L30.4971 19.3457L30.1953 19.4941C29.8362 19.67 29.4527 19.8039 29.0518 19.8896L28.5078 20.0059H15.2773L15.1289 19.9932C13.3767 19.8446 12 18.3742 12 16.583C12 14.6926 13.5324 13.1603 15.4229 13.1602C15.4483 13.1602 15.4738 13.1606 15.499 13.1611L16.1484 13.1748L16.4258 12.5869C17.146 11.0563 18.7006 10 20.5 10C20.782 10 21.0571 10.0261 21.3232 10.0752L22.1182 10.2217L22.4287 9.47461C23.277 7.43284 25.2898 6 27.6348 6Z" fill="#F1F3F6" stroke="#71767A" stroke-width="2"/>
</g>
<path d="M17 11C20.5561 11 23.5732 13.3209 24.6133 16.5332L24.9102 17.4492L25.8369 17.1875C26.2691 17.0653 26.7262 17 27.2002 17C29.9617 17 32.2002 19.2385 32.2002 22C32.2001 24.6165 30.1897 26.7642 27.6299 26.9814L27.4121 27H8.42871C5.43061 27 3 24.5694 3 21.5713C3 18.5732 5.43061 16.1426 8.42871 16.1426C8.55146 16.1426 8.67349 16.1473 8.79395 16.1553L9.47266 16.2002L9.76367 15.585C11.0461 12.8732 13.8054 11.0001 17 11Z" fill="#F1F3F6" stroke="#71767A" stroke-width="2"/>
</svg>
