<svg width="24" height="24" viewBox="0 0 24 24" fill="none" xmlns="http://www.w3.org/2000/svg">
<mask id="mask0_2139_2959" style="mask-type:alpha" maskUnits="userSpaceOnUse" x="1" y="1" width="22" height="16">
<mask id="path-1-inside-1_2139_2959" fill="white">
<path d="M22.7996 16.8H1.19995V1.79996H22.7996V16.8ZM10.8005 4.79996C8.64298 4.79996 6.78166 6.06562 5.91675 7.89468C5.83095 7.88898 5.74422 7.88589 5.65698 7.88589C3.52695 7.886 1.80072 9.61233 1.80054 11.7423C1.80059 13.806 3.42076 15.4916 5.45874 15.5949L5.65698 15.5998H17.2283V15.5851C19.0721 15.4288 20.52 13.8844 20.5203 12.0002C20.5203 10.012 18.9087 8.3998 16.9207 8.39957C16.5805 8.39957 16.2511 8.44717 15.9392 8.53531C15.2375 6.36754 13.202 4.8 10.8005 4.79996Z"/>
</mask>
<path d="M22.7996 16.8H1.19995V1.79996H22.7996V16.8ZM10.8005 4.79996C8.64298 4.79996 6.78166 6.06562 5.91675 7.89468C5.83095 7.88898 5.74422 7.88589 5.65698 7.88589C3.52695 7.886 1.80072 9.61233 1.80054 11.7423C1.80059 13.806 3.42076 15.4916 5.45874 15.5949L5.65698 15.5998H17.2283V15.5851C19.0721 15.4288 20.52 13.8844 20.5203 12.0002C20.5203 10.012 18.9087 8.3998 16.9207 8.39957C16.5805 8.39957 16.2511 8.44717 15.9392 8.53531C15.2375 6.36754 13.202 4.8 10.8005 4.79996Z" fill="#D9D9D9"/>
<path d="M22.7996 16.8V17.4H23.3996V16.8H22.7996ZM1.19995 16.8H0.599951V17.4H1.19995V16.8ZM1.19995 1.79996V1.19996H0.599951V1.79996H1.19995ZM22.7996 1.79996H23.3996V1.19996H22.7996V1.79996ZM10.8005 4.79996L10.8005 4.19996H10.8005V4.79996ZM5.91675 7.89468L5.87696 8.49336L6.28454 8.52045L6.45916 8.15118L5.91675 7.89468ZM5.65698 7.88589V7.28589H5.65695L5.65698 7.88589ZM1.80054 11.7423L1.20054 11.7423L1.20054 11.7424L1.80054 11.7423ZM5.45874 15.5949L5.42837 16.1941L5.43617 16.1945L5.44397 16.1947L5.45874 15.5949ZM5.65698 15.5998L5.64221 16.1996L5.64959 16.1998H5.65698V15.5998ZM17.2283 15.5998V16.1998H17.8283V15.5998H17.2283ZM17.2283 15.5851L17.1776 14.9873L16.6283 15.0338V15.5851H17.2283ZM20.5203 12.0002L21.1203 12.0002V12.0002H20.5203ZM16.9207 8.39957L16.9207 7.79957H16.9207V8.39957ZM15.9392 8.53531L15.3684 8.72009L15.5463 9.26984L16.1024 9.1127L15.9392 8.53531ZM22.7996 16.8V16.2H1.19995V16.8V17.4H22.7996V16.8ZM1.19995 16.8H1.79995V1.79996H1.19995H0.599951V16.8H1.19995ZM1.19995 1.79996V2.39996H22.7996V1.79996V1.19996H1.19995V1.79996ZM22.7996 1.79996H22.1996V16.8H22.7996H23.3996V1.79996H22.7996ZM10.8005 4.79996V4.19996C8.40219 4.19996 6.33462 5.60743 5.37433 7.63819L5.91675 7.89468L6.45916 8.15118C7.2287 6.52381 8.88376 5.39996 10.8005 5.39996V4.79996ZM5.91675 7.89468L5.95653 7.296C5.85837 7.28948 5.75835 7.28589 5.65698 7.28589V7.88589V8.48589C5.7301 8.48589 5.80353 8.48848 5.87696 8.49336L5.91675 7.89468ZM5.65698 7.88589L5.65695 7.28589C3.19555 7.28602 1.20075 9.28097 1.20054 11.7423L1.80054 11.7423L2.40054 11.7424C2.40069 9.94369 3.85835 8.48598 5.65701 8.48589L5.65698 7.88589ZM1.80054 11.7423L1.20054 11.7424C1.2006 14.127 3.07266 16.0747 5.42837 16.1941L5.45874 15.5949L5.48911 14.9956C3.76885 14.9085 2.40058 13.485 2.40054 11.7423L1.80054 11.7423ZM5.45874 15.5949L5.44397 16.1947L5.64221 16.1996L5.65698 15.5998L5.67176 14.9999L5.47351 14.9951L5.45874 15.5949ZM5.65698 15.5998V16.1998H17.2283V15.5998V14.9998H5.65698V15.5998ZM17.2283 15.5998H17.8283V15.5851H17.2283H16.6283V15.5998H17.2283ZM17.2283 15.5851L17.279 16.183C19.4303 16.0006 21.12 14.1992 21.1203 12.0002L20.5203 12.0002L19.9203 12.0001C19.9201 13.5696 18.7138 14.857 17.1776 14.9873L17.2283 15.5851ZM20.5203 12.0002H21.1203C21.1203 9.68082 19.2402 7.79984 16.9207 7.79957L16.9207 8.39957L16.9206 8.99957C18.5772 8.99976 19.9203 10.3433 19.9203 12.0002H20.5203ZM16.9207 8.39957V7.79957C16.5244 7.79957 16.14 7.85505 15.776 7.95792L15.9392 8.53531L16.1024 9.1127C16.3622 9.03928 16.6367 8.99957 16.9207 8.99957V8.39957ZM15.9392 8.53531L16.51 8.35052C15.7305 5.94247 13.4697 4.20001 10.8005 4.19996L10.8005 4.79996L10.8005 5.39996C12.9343 5.4 14.7444 6.79261 15.3684 8.72009L15.9392 8.53531Z" fill="#A9AEB1" mask="url(#path-1-inside-1_2139_2959)"/>
</mask>
<g mask="url(#mask0_2139_2959)">
<path d="M16.5806 3.74985C17.9837 3.74985 19.1798 4.6448 19.6255 5.89731L19.7388 6.21664L20.0532 6.34262C21.0487 6.7414 21.7503 7.71424 21.7505 8.84946C21.7505 10.3406 20.5414 11.5495 19.0503 11.5497C18.8703 11.5497 18.6949 11.5321 18.5259 11.4989L18.2778 11.45L18.0513 11.5614C17.8466 11.6616 17.6283 11.7381 17.3999 11.787L17.0894 11.8534H9.17041L9.09033 11.8465C8.11609 11.7639 7.35032 10.946 7.3501 9.95004C7.3501 8.89858 8.20293 8.04575 9.25439 8.04575C9.26841 8.04575 9.28248 8.04544 9.29639 8.04575L9.78369 8.05649L9.99072 7.61606C10.3991 6.74829 11.2809 6.15024 12.3003 6.15024C12.4602 6.15025 12.6164 6.16441 12.7671 6.19223L13.3628 6.30258L13.5952 5.74203C14.0817 4.571 15.2363 3.74995 16.5806 3.74985Z" fill="#F1F3F6" stroke="#71767A" stroke-width="1.5"/>
</g>
<path d="M10.1997 6.74994C12.2664 6.74994 14.0208 8.09851 14.6255 9.96576L14.8472 10.6533L15.5425 10.457C15.7887 10.3874 16.0493 10.3496 16.3198 10.3495C17.8939 10.3495 19.1694 11.6261 19.1694 13.2001C19.1693 14.6913 18.0237 15.9152 16.5649 16.039L16.439 16.0497H5.05713C3.34111 16.0497 1.94971 14.6583 1.94971 12.9423C1.94992 11.2265 3.34124 9.83588 5.05713 9.83588C5.12745 9.83588 5.19714 9.83814 5.26611 9.84271L5.77588 9.87592L5.99365 9.41498C6.73924 7.83841 8.34316 6.75009 10.1997 6.74994Z" fill="#F1F3F6" stroke="#71767A" stroke-width="1.5"/>
</svg>
