<svg width="24" height="24" viewBox="0 0 24 24" fill="none" xmlns="http://www.w3.org/2000/svg">
<path d="M15 18.1006C15 17.2122 14.6161 16.4147 14 15.8633L13.5 15.416V5C13.5 4.17157 12.8284 3.5 12 3.5C11.1716 3.5 10.5 4.17157 10.5 5V15.416L10 15.8633C9.38387 16.4147 9 17.2122 9 18.1006C9.00026 19.7572 10.3433 21.1006 12 21.1006V22.6006L11.7686 22.5947C9.46764 22.4782 7.62267 20.6329 7.50586 18.332L7.5 18.1006C7.5 16.7679 8.07942 15.5701 9 14.7461V5C9 3.34315 10.3431 2 12 2C13.6569 2 15 3.34315 15 5V14.7461C15.9206 15.5701 16.5 16.7679 16.5 18.1006L16.4941 18.332C16.3734 20.7095 14.4075 22.6006 12 22.6006V21.1006C13.6567 21.1006 14.9997 19.7572 15 18.1006Z" fill="#A9AEB1"/>
<path d="M14.5 18.123C14.5 19.5038 13.3807 20.623 12 20.623C10.6193 20.623 9.5 19.5038 9.5 18.123C9.5 16.7423 10.6193 15.623 12 15.623C13.3807 15.623 14.5 16.7423 14.5 18.123Z" fill="#58B4FF"/>
<path d="M11.25 11.75C11.25 11.3358 11.5858 11 12 11C12.4142 11 12.75 11.3358 12.75 11.75V17.248C12.75 17.6623 12.4142 17.998 12 17.998C11.5858 17.998 11.25 17.6623 11.25 17.248V11.75Z" fill="#58B4FF"/>
<rect x="17" y="9.52759" width="5" height="1.5" fill="#58B4FF"/>
<rect x="17" y="12.5295" width="3" height="1.5" fill="#58B4FF"/>
<rect x="17" y="4.02759" width="5" height="1.5" fill="#DFE1E2"/>
<rect x="17" y="6.52539" width="3" height="1.5" fill="#DFE1E2"/>
<path d="M5 14.1024L5 9.10242" stroke="#58B4FF" stroke-linecap="round"/>
<path d="M2.85693 10.2452L7.18706 12.7452" stroke="#58B4FF" stroke-linecap="round"/>
<path d="M2.85742 12.8165L7.18755 10.3165" stroke="#58B4FF" stroke-linecap="round"/>
</svg>
