<svg width="40" height="40" viewBox="0 0 40 40" fill="none" xmlns="http://www.w3.org/2000/svg">
<path d="M25 31C25 29.3026 24.1557 27.8024 22.8555 26.8955L22 26.2979V7C22 5.89543 21.1046 5 20 5C18.8954 5 18 5.89543 18 7V26.2979L17.1445 26.8955C15.8443 27.8024 15 29.3026 15 31C15 33.7614 17.2386 36 20 36V38C16.134 38 13 34.866 13 31C13 28.6213 14.1866 26.5198 16 25.2549V7C16 4.79086 17.7909 3 20 3C22.2091 3 24 4.79086 24 7V25.2549C25.8134 26.5198 27 28.6213 27 31C27 34.866 23.866 38 20 38V36C22.7614 36 25 33.7614 25 31Z" fill="#A9AEB1"/>
<path d="M23 31C23 32.6569 21.6569 34 20 34C18.3431 34 17 32.6569 17 31C17 29.3431 18.3431 28 20 28C21.6569 28 23 29.3431 23 31Z" fill="#58B4FF"/>
<path d="M19 20C19 19.4477 19.4477 19 20 19C20.5523 19 21 19.4477 21 20V29C21 29.5523 20.5523 30 20 30C19.4477 30 19 29.5523 19 29V20Z" fill="#58B4FF"/>
<rect width="1.33333" height="8" rx="0.666667" transform="matrix(-0.5 0.866025 0.866025 0.5 7.23193 8.7113)" fill="#58B4FF"/>
<rect width="1.33333" height="8" rx="0.666667" transform="matrix(0.5 0.866025 0.866025 -0.5 6.56494 12.7113)" fill="#58B4FF"/>
<rect width="1.33333" height="8" rx="0.666667" transform="matrix(1 0 0 -1 9.6958 15.2887)" fill="#58B4FF"/>
<rect width="1.33333" height="8" rx="0.666667" transform="matrix(4.37114e-08 1 1 -4.37114e-08 3 22.1307)" fill="#58B4FF"/>
<rect width="1.33333" height="8" rx="0.666667" transform="matrix(0.866025 0.5 0.5 -0.866025 4.42236 25.9283)" fill="#58B4FF"/>
<rect width="1.33333" height="8" rx="0.666667" transform="matrix(0.866025 -0.5 -0.5 -0.866025 8.42236 26.595)" fill="#58B4FF"/>
<rect x="25" y="18" width="10" height="2" fill="#58B4FF"/>
<rect x="25" y="21" width="5" height="2" fill="#58B4FF"/>
<rect x="25" y="6" width="10" height="2" fill="#DFE1E2"/>
<rect x="25" y="12" width="10" height="2" fill="#DFE1E2"/>
<rect x="25" y="9" width="5" height="2" fill="#DFE1E2"/>
<rect x="25" y="15" width="5" height="2" fill="#DFE1E2"/>
</svg>
