<svg width="24" height="24" viewBox="0 0 24 24" fill="none" xmlns="http://www.w3.org/2000/svg">
<path fill-rule="evenodd" clip-rule="evenodd" d="M6.2959 14.9989C6.26314 14.9997 6.23028 15 6.19733 15C3.88878 15 2.01733 13.1292 2.01733 10.8215C2.01733 8.93157 3.27241 7.33472 4.9948 6.8184C5.55789 4.06848 7.99091 2 10.907 2C13.0739 2 14.9741 3.1422 16.0385 4.85746C16.317 4.81039 16.6031 4.78589 16.895 4.78589C19.7144 4.78589 22 7.07243 22 9.89303C22 12.7136 19.7144 15.0002 16.895 15.0002C16.8707 15.0002 16.8464 15 16.8221 14.9997V14.9999H6.2959V14.9989Z" fill="#F1F3F6"/>
<path fill-rule="evenodd" clip-rule="evenodd" d="M16.8945 6.28613C18.8852 6.28613 20.4999 7.90028 20.5 9.89258C20.5 11.8493 18.9428 13.4407 17.002 13.4975V13.4951H16.252C15.8377 13.4951 15.502 13.8309 15.502 14.2451C15.502 14.6593 15.8377 14.9951 16.252 14.9951H17V14.9989C19.7707 14.9427 22 12.6779 22 9.89258C21.9999 7.07208 19.7139 4.78613 16.8945 4.78613C16.5979 4.78616 16.3072 4.81173 16.0244 4.86035C14.9604 3.14386 13.0604 2.00015 10.8926 2C7.97647 2 5.54256 4.06841 4.97949 6.81836C3.2562 7.33407 2.00009 8.9308 2 10.8213C2 13.0688 3.77495 14.902 6 14.9962V13.4931C4.60345 13.4006 3.5 12.2398 3.5 10.8213C3.50009 9.6125 4.30295 8.58713 5.40918 8.25586L6.26855 7.99805L6.44922 7.11914C6.87225 5.05348 8.70292 3.5 10.8926 3.5L11.1953 3.50977C12.6953 3.60874 13.9969 4.43736 14.749 5.65039L15.2822 6.50977L16.2783 6.33887C16.4784 6.30448 16.6842 6.28616 16.8945 6.28613ZM6.75012 13.495C7.16434 13.495 7.50012 13.8308 7.50012 14.245C7.50012 14.6592 7.16434 14.995 6.75012 14.995H6.00012V13.495H6.75012Z" fill="#71767A"/>
<rect width="1" height="3" rx="0.5" transform="matrix(-1 0 0 1 14 17)" fill="#4F97D1"/>
<rect width="1" height="2" rx="0.5" transform="matrix(-1 0 0 1 11 16)" fill="#4F97D1"/>
</svg>
