<svg width="24" height="24" viewBox="0 0 24 24" fill="none" xmlns="http://www.w3.org/2000/svg">
<path fill-rule="evenodd" clip-rule="evenodd" d="M6.2959 14.9989C6.26314 14.9997 6.23028 15 6.19733 15C3.88878 15 2.01733 13.1292 2.01733 10.8215C2.01733 8.93157 3.27241 7.33472 4.9948 6.8184C5.55789 4.06848 7.99091 2 10.907 2C13.0739 2 14.9741 3.1422 16.0385 4.85746C16.317 4.81039 16.6031 4.78589 16.895 4.78589C19.7144 4.78589 22 7.07243 22 9.89303C22 12.7136 19.7144 15.0002 16.895 15.0002C16.8707 15.0002 16.8464 15 16.8221 14.9997V14.9999H6.2959V14.9989Z" fill="#F7F9FA"/>
<path d="M10.8926 2C13.0604 2.00015 14.9604 3.14386 16.0244 4.86035C16.3072 4.81173 16.5979 4.78616 16.8945 4.78613C19.7139 4.78613 21.9999 7.07208 22 9.89258C22 12.6779 19.7707 14.9409 17 14.9971V14.9951H16.252C15.8377 14.9951 15.502 14.6593 15.502 14.2451C15.502 13.8309 15.8377 13.4951 16.252 13.4951H17.002C18.9427 13.4383 20.5 11.8493 20.5 9.89258C20.4999 7.90028 18.8852 6.28613 16.8945 6.28613C16.6842 6.28616 16.4784 6.30448 16.2783 6.33887L15.2822 6.50977L14.749 5.65039C13.9969 4.43736 12.6953 3.60874 11.1953 3.50977L10.8926 3.5C8.70292 3.5 6.87225 5.05348 6.44922 7.11914L6.26855 7.99805L5.40918 8.25586C4.30295 8.58713 3.50009 9.6125 3.5 10.8213C3.5 12.2397 4.60357 13.3966 6 13.4893V13.4951H6.75C7.16421 13.4951 7.5 13.8309 7.5 14.2451C7.49994 14.6593 7.16417 14.9951 6.75 14.9951H6V14.9941C3.77499 14.8999 2 13.0687 2 10.8213C2.00009 8.9308 3.2562 7.33407 4.97949 6.81836C5.54256 4.06841 7.97647 2 10.8926 2Z" fill="#A9AEB1"/>
<rect width="1" height="3" rx="0.5" transform="matrix(-1 0 0 1 14 17)" fill="#58B4FF"/>
<rect width="1" height="2" rx="0.5" transform="matrix(-1 0 0 1 11 16)" fill="#58B4FF"/>
</svg>
