<svg width="24" height="24" viewBox="0 0 24 24" fill="none" xmlns="http://www.w3.org/2000/svg">
<path d="M19.0498 16.7998C19.0498 18.6573 17.4204 20.25 15.2998 20.25C14.8856 20.25 14.5498 20.5858 14.5498 21C14.5498 21.4142 14.8856 21.75 15.2998 21.75C18.1497 21.75 20.5498 19.5815 20.5498 16.7998C20.5497 14.0182 18.1497 11.8496 15.2998 11.8496H3.2998C2.88572 11.8496 2.55002 12.1856 2.5498 12.5996C2.5498 13.0138 2.88559 13.3496 3.2998 13.3496H15.2998C17.4204 13.3496 19.0497 14.9424 19.0498 16.7998Z" fill="#2C608A"/>
<path d="M14.2505 7.5C14.2505 6.46073 13.3484 5.5498 12.1499 5.5498C11.274 5.54988 10.5434 6.04479 10.2251 6.71875C10.0481 7.09305 9.60148 7.25301 9.22705 7.07617C8.85257 6.89926 8.69275 6.45264 8.86963 6.07812C9.44111 4.86811 10.7063 4.04988 12.1499 4.0498C14.0994 4.0498 15.7505 5.55693 15.7505 7.5C15.7504 9.44298 14.0993 10.9502 12.1499 10.9502H3.6001C3.18601 10.9502 2.85031 10.6142 2.8501 10.2002C2.8501 9.78598 3.18588 9.4502 3.6001 9.4502H12.1499C13.3483 9.4502 14.2504 8.53918 14.2505 7.5Z" fill="#4F97D1"/>
<path d="M5.3998 16.2C5.73118 16.2 5.9998 15.9314 5.9998 15.6C5.9998 15.2686 5.73118 15 5.3998 15C5.06843 15 4.7998 15.2686 4.7998 15.6C4.7998 15.9314 5.06843 16.2 5.3998 16.2Z" fill="#71767A"/>
<path d="M20.69 6.15532C20.3699 6.06956 20.0409 6.25951 19.9552 6.57959C19.8694 6.89967 20.0593 7.22867 20.3794 7.31444C20.6995 7.4002 21.0285 7.21025 21.1143 6.89017C21.2 6.57009 21.0101 6.24109 20.69 6.15532Z" fill="#71767A"/>
<path d="M4.2001 4.8001C4.53147 4.8001 4.8001 4.53147 4.8001 4.2001C4.8001 3.86873 4.53147 3.6001 4.2001 3.6001C3.86873 3.6001 3.6001 3.86873 3.6001 4.2001C3.6001 4.53147 3.86873 4.8001 4.2001 4.8001Z" fill="#71767A"/>
<path d="M6.2999 7.8C6.79696 7.8 7.1999 7.39706 7.1999 6.9C7.1999 6.40294 6.79696 6 6.2999 6C5.80285 6 5.3999 6.40294 5.3999 6.9C5.3999 7.39706 5.80285 7.8 6.2999 7.8Z" fill="#71767A"/>
<path d="M10.2 18.0001C10.8627 18.0001 11.4 17.4628 11.4 16.8001C11.4 16.1374 10.8627 15.6001 10.2 15.6001C9.53726 15.6001 9 16.1374 9 16.8001C9 17.4628 9.53726 18.0001 10.2 18.0001Z" fill="#71767A"/>
<path d="M19.1803 8.71055C18.5402 8.53902 17.8822 8.91892 17.7106 9.55908C17.5391 10.1992 17.919 10.8572 18.5592 11.0288C19.1993 11.2003 19.8573 10.8204 20.0288 10.1802C20.2004 9.54008 19.8205 8.88208 19.1803 8.71055Z" fill="#71767A"/>
<path d="M6.9 20.4001C7.39706 20.4001 7.8 19.9972 7.8 19.5001C7.8 19.003 7.39706 18.6001 6.9 18.6001C6.40294 18.6001 6 19.003 6 19.5001C6 19.9972 6.40294 20.4001 6.9 20.4001Z" fill="#71767A"/>
<path d="M21.4903 11.9554C21.1702 11.8696 20.8412 12.0596 20.7555 12.3796C20.6697 12.6997 20.8596 13.0287 21.1797 13.1145C21.4998 13.2002 21.8288 13.0103 21.9146 12.6902C22.0003 12.3701 21.8104 12.0411 21.4903 11.9554Z" fill="#71767A"/>
</svg>
