<svg width="40" height="40" viewBox="0 0 40 40" fill="none" xmlns="http://www.w3.org/2000/svg">
<path d="M32 28C32 31.2498 29.1559 34 25.5 34C24.9477 34 24.5 34.4477 24.5 35C24.5 35.5523 24.9477 36 25.5 36C30.1283 36 34 32.4821 34 28C34 23.5179 30.1283 20 25.5 20H5.5C4.94772 20 4.5 20.4477 4.5 21C4.5 21.5523 4.94772 22 5.5 22H25.5C29.1559 22 32 24.7502 32 28Z" fill="#2491FF"/>
<path d="M24 12.5C24 10.6173 22.3727 9 20.25 9C18.6955 9 17.3892 9.87826 16.8164 11.0908C16.5806 11.5901 15.9847 11.804 15.4854 11.5684C14.986 11.3325 14.7721 10.7366 15.0078 10.2373C15.9181 8.30983 17.9385 7 20.25 7C23.374 7 26 9.41218 26 12.5C26 15.5878 23.374 18 20.25 18H6C5.44772 18 5 17.5523 5 17C5 16.4477 5.44772 16 6 16H20.25C22.3727 16 24 14.3827 24 12.5Z" fill="#58B4FF"/>
<path d="M9 27C9.55228 27 10 26.5523 10 26C10 25.4477 9.55228 25 9 25C8.44772 25 8 25.4477 8 26C8 26.5523 8.44772 27 9 27Z" fill="#C6CACE"/>
<path d="M34.4834 10.2588C33.9499 10.1159 33.4016 10.4324 33.2586 10.9659C33.1157 11.4994 33.4322 12.0477 33.9657 12.1906C34.4992 12.3336 35.0475 12.017 35.1905 11.4835C35.3334 10.9501 35.0168 10.4017 34.4834 10.2588Z" fill="#C6CACE"/>
<path d="M7 8C7.55228 8 8 7.55228 8 7C8 6.44772 7.55228 6 7 6C6.44772 6 6 6.44772 6 7C6 7.55228 6.44772 8 7 8Z" fill="#C6CACE"/>
<path d="M10.5 13C11.3284 13 12 12.3284 12 11.5C12 10.6716 11.3284 10 10.5 10C9.67157 10 9 10.6716 9 11.5C9 12.3284 9.67157 13 10.5 13Z" fill="#C6CACE"/>
<path d="M17 30C18.1046 30 19 29.1046 19 28C19 26.8954 18.1046 26 17 26C15.8954 26 15 26.8954 15 28C15 29.1046 15.8954 30 17 30Z" fill="#C6CACE"/>
<path d="M31.9672 14.5176C30.9003 14.2317 29.8036 14.8649 29.5177 15.9318C29.2318 16.9987 29.865 18.0954 30.9319 18.3813C31.9989 18.6672 33.0955 18.034 33.3814 16.9671C33.6673 15.9001 33.0341 14.8035 31.9672 14.5176Z" fill="#C6CACE"/>
<path d="M11.5 34C12.3284 34 13 33.3284 13 32.5C13 31.6716 12.3284 31 11.5 31C10.6716 31 10 31.6716 10 32.5C10 33.3284 10.6716 34 11.5 34Z" fill="#C6CACE"/>
<path d="M37.4834 18.2588C36.9499 18.1159 36.4016 18.4324 36.2586 18.9659C36.1157 19.4994 36.4322 20.0477 36.9657 20.1906C37.4992 20.3336 38.0475 20.017 38.1905 19.4835C38.3334 18.9501 38.0168 18.4017 37.4834 18.2588Z" fill="#C6CACE"/>
</svg>
