<svg width="40" height="40" viewBox="0 0 40 40" fill="none" xmlns="http://www.w3.org/2000/svg">
<path d="M29.7142 20.9781C32.7874 20.7175 35.2004 18.1404 35.2004 14.9998C35.2004 11.686 32.5141 8.99968 29.2003 8.99968C28.6333 8.99968 28.0846 9.07835 27.5646 9.22536C26.3949 5.61256 23.0027 3 19.0003 3C15.4045 3 12.3012 5.10872 10.8596 8.15698C10.7172 8.14754 10.5734 8.14275 10.4285 8.14275C6.87816 8.14275 4 11.0209 4 14.5713C4 18.1217 6.87816 20.9998 10.4285 20.9998H18.9147C18.9432 21.0001 18.9717 21.0002 19.0003 21.0002C19.0289 21.0002 19.0574 21.0001 19.0859 20.9998H29.7142V20.9781Z" fill="#F7F9FA"/>
<path d="M19.0001 19.0002V21.0002H10.4288V19.0002H19.0001ZM4 14.5714C4 11.021 6.87834 8.14265 10.4288 8.14265L10.8594 8.1573C12.301 5.10908 15.4044 3.00012 19.0001 3C22.8774 3 26.1822 5.4519 27.4484 8.88973L27.5646 9.22567C28.0846 9.07867 28.6333 9.00009 29.2004 9.00008L29.509 9.00789C32.6794 9.16845 35.2004 11.7898 35.2004 15.0002L35.1936 15.2931C35.0489 18.2997 32.6911 20.7263 29.714 20.9788V21.0002H19.0001V19.0002H29.3722L29.5451 18.9856C31.5918 18.812 33.2003 17.0928 33.2004 15.0002C33.2004 12.7909 31.4096 11.0001 29.2004 11.0001C28.8191 11.0001 28.4532 11.0531 28.1086 11.1505L26.255 11.6739L25.6623 9.84189C24.7518 7.02985 22.1101 5.00003 19.0001 5.00003C16.2066 5.00015 13.7915 6.63656 12.668 9.0118L12.086 10.2423L10.7276 10.1524C10.6291 10.1459 10.5294 10.1427 10.4288 10.1427C7.98292 10.1427 6.00002 12.1256 6.00001 14.5714C6.00001 17.0173 7.98292 19.0002 10.4288 19.0002V21.0002L10.0977 20.9915C6.70107 20.8192 4 18.0109 4 14.5714Z" fill="#A9AEB1"/>
<rect x="12" y="34" width="15" height="2" rx="1" fill="#A9AEB1"/>
<rect x="12" y="29" width="8" height="2" rx="1" fill="#A9AEB1"/>
<rect x="30" y="26" width="11" height="2" rx="1" transform="rotate(180 30 26)" fill="#A9AEB1"/>
<rect x="5" y="29" width="5" height="2" rx="1" fill="#A9AEB1"/>
<rect x="32" y="24" width="5" height="2" rx="1" fill="#A9AEB1"/>
<rect x="22" y="29" width="13" height="2" rx="1" fill="#A9AEB1"/>
<rect x="3" y="24" width="14" height="2" rx="1" fill="#A9AEB1"/>
</svg>
