<svg width="40" height="40" viewBox="0 0 40 40" fill="none" xmlns="http://www.w3.org/2000/svg">
<path d="M18.4475 4C22.0036 4 25.0207 6.32087 26.0608 9.5332L26.3577 10.4492L27.2844 10.1875C27.7166 10.0653 28.1737 10 28.6477 10C31.4092 10 33.6477 12.2385 33.6477 15C33.6476 17.6165 31.6372 19.7642 29.0774 19.9814L28.8596 20H9.87622C6.87812 20 4.44751 17.5694 4.44751 14.5713C4.44751 11.5732 6.87812 9.14258 9.87622 9.14258C9.99897 9.14258 10.121 9.1473 10.2415 9.15527L10.9202 9.2002L11.2112 8.58496C12.4937 5.87317 15.2529 4.00012 18.4475 4Z" fill="#DFE1E2" stroke="#71767A" stroke-width="2"/>
<rect x="12" y="34" width="15" height="2" rx="1" fill="#71767A"/>
<rect x="12" y="29" width="8" height="2" rx="1" fill="#71767A"/>
<rect x="30" y="26" width="11" height="2" rx="1" transform="rotate(180 30 26)" fill="#71767A"/>
<rect x="5" y="29" width="5" height="2" rx="1" fill="#71767A"/>
<rect x="32" y="24" width="5" height="2" rx="1" fill="#71767A"/>
<rect x="22" y="29" width="13" height="2" rx="1" fill="#71767A"/>
<rect x="3" y="24" width="14" height="2" rx="1" fill="#71767A"/>
</svg>
