<svg width="24" height="24" viewBox="0 0 24 24" fill="none" xmlns="http://www.w3.org/2000/svg">
<path d="M11.9998 2.54993C14.0664 2.54993 15.8209 3.8985 16.4255 5.76575L16.6472 6.45325L17.3425 6.25696C17.5887 6.18737 17.8494 6.14954 18.1199 6.14954C19.6939 6.14954 20.9695 7.42608 20.9695 9.00012C20.9693 10.4913 19.8238 11.7161 18.365 11.84L18.2488 11.8497H6.85718C5.14116 11.8497 3.74976 10.4583 3.74976 8.74231C3.74997 7.02647 5.14129 5.63586 6.85718 5.63586C6.9275 5.63587 6.99719 5.63813 7.06616 5.6427L7.57593 5.6759L7.7937 5.21497C8.53929 3.6384 10.1432 2.55007 11.9998 2.54993Z" fill="#DFE1E2" stroke="#71767A" stroke-width="1.5"/>
<rect x="7.19995" y="20.3999" width="9" height="1.5" rx="0.75" fill="#71767A"/>
<rect x="7.19995" y="17.3999" width="4.8" height="1.5" rx="0.75" fill="#71767A"/>
<rect x="18" y="15.8999" width="6.6" height="1.5" rx="0.75" transform="rotate(180 18 15.8999)" fill="#71767A"/>
<rect x="3" y="17.3999" width="3" height="1.5" rx="0.75" fill="#71767A"/>
<rect x="19.1997" y="14.3999" width="3" height="1.5" rx="0.75" fill="#71767A"/>
<rect x="13.2" y="17.3999" width="7.8" height="1.5" rx="0.75" fill="#71767A"/>
<rect x="1.7998" y="14.3999" width="8.4" height="1.5" rx="0.75" fill="#71767A"/>
</svg>
