<svg width="24" height="24" viewBox="0 0 24 24" fill="none" xmlns="http://www.w3.org/2000/svg">
<path d="M18.4287 12.5868C20.2725 12.4303 21.7202 10.8841 21.7202 8.99978C21.7202 7.01153 20.1084 5.39973 18.1202 5.39973C17.78 5.39973 17.4509 5.44691 17.1389 5.53508C16.4371 3.36743 14.4018 1.79993 12.0004 1.79993C9.8429 1.79993 7.98093 3.06516 7.11597 4.89412C7.03042 4.88845 6.94411 4.88557 6.85713 4.88557C4.7269 4.88557 3 6.61246 3 8.7427C3 10.8729 4.7269 12.5998 6.85713 12.5998C6.85706 12.5998 6.85719 12.5998 6.85713 12.5998L11.9513 12.5999C11.9676 12.6 11.984 12.6001 12.0004 12.6001C12.0168 12.6001 12.0331 12.6 12.0495 12.5999H18.4287V12.5868Z" fill="#F7F9FA"/>
<path d="M12 11.0997V12.5997H6.85742V11.0997H12ZM3 8.74231C3.00021 6.61225 4.72732 4.88586 6.85742 4.88586L7.11621 4.89368C7.98121 3.06507 9.84286 1.80008 12 1.79993C14.3265 1.79993 16.3097 3.27122 17.0693 5.33411L17.1387 5.53528C17.4506 5.44711 17.78 5.39954 18.1201 5.39954C20.1084 5.39954 21.7197 7.01187 21.7197 9.00012L21.7158 9.17493C21.6294 10.9791 20.2151 12.4354 18.4287 12.587V12.5997H12V11.0997H18.21L18.3018 11.0919C19.3756 11.0008 20.2196 10.0984 20.2197 9.00012C20.2197 7.8403 19.2799 6.89954 18.1201 6.89954C17.9193 6.89954 17.7274 6.92763 17.5469 6.97864L16.1572 7.37122L15.7119 5.99719C15.2045 4.43013 13.7321 3.29993 12 3.29993C10.4442 3.30007 9.09796 4.211 8.47168 5.53528L8.03516 6.45813L7.0166 6.39075C6.96418 6.38728 6.91111 6.38587 6.85742 6.38586C5.55575 6.38586 4.50021 7.44068 4.5 8.74231C4.5 10.0441 5.55562 11.0997 6.85742 11.0997V12.5997L6.6582 12.5948C4.62042 12.4913 3 10.8058 3 8.74231Z" fill="#A9AEB1"/>
<rect x="7.19971" y="20.3999" width="9" height="1.5" rx="0.75" fill="#A9AEB1"/>
<rect x="7.19971" y="17.3999" width="4.8" height="1.5" rx="0.75" fill="#A9AEB1"/>
<rect x="18" y="15.8999" width="6.6" height="1.5" rx="0.75" transform="rotate(180 18 15.8999)" fill="#A9AEB1"/>
<rect x="3" y="17.3999" width="3" height="1.5" rx="0.75" fill="#A9AEB1"/>
<rect x="19.1997" y="14.3999" width="3" height="1.5" rx="0.75" fill="#A9AEB1"/>
<rect x="13.1997" y="17.3999" width="7.8" height="1.5" rx="0.75" fill="#A9AEB1"/>
<rect x="1.7998" y="14.3999" width="8.4" height="1.5" rx="0.75" fill="#A9AEB1"/>
</svg>
