<svg width="40" height="40" viewBox="0 0 40 40" fill="none" xmlns="http://www.w3.org/2000/svg">
<path fill-rule="evenodd" clip-rule="evenodd" d="M2 18C2 21.866 5.13401 25 9 25H28C32.9706 25 37 20.9706 37 16C37 11.0294 32.9706 7 28 7C27.5635 7 27.1342 7.03108 26.7143 7.09115C24.9986 4.05195 21.7389 2 18 2C12.7925 2 8.51467 5.98049 8.04315 11.0649C4.62984 11.5314 2 14.4586 2 18Z" fill="#F1F3F6"/>
<path d="M18 2C21.739 2 24.9962 4.05345 26.7119 7.09277C27.1326 7.03247 27.5626 7 28 7C32.9706 7 37 11.0294 37 16C37 20.9706 32.9706 25 28 25C27.4477 25 27 24.5523 27 24C27 23.4477 27.4477 23 28 23C31.866 23 35 19.866 35 16C35 12.134 31.866 9 28 9C27.6619 9 27.3269 9.02486 26.9961 9.07227L25.6426 9.2666L24.9707 8.07617C23.5947 5.63855 20.9875 4 18 4C13.835 4 10.4117 7.18479 10.0352 11.251L9.88867 12.833L8.31445 13.0479C5.87753 13.3808 4 15.4727 4 18C4 20.7614 6.23858 23 9 23H10C10.5523 23 11 23.4477 11 24C11 24.5523 10.5523 25 10 25H9C5.13401 25 2 21.866 2 18C2 14.4584 4.63036 11.5327 8.04395 11.0664C8.51478 5.98134 12.792 2 18 2Z" fill="#71767A"/>
<path d="M13 28.7461L13 24.7461C13 24.1938 13.4477 23.7461 14 23.7461C14.5523 23.7461 15 24.1938 15 24.7461L15 28.7461C15 29.2984 14.5523 29.7461 14 29.7461C13.4477 29.7461 13 29.2984 13 28.7461Z" fill="#4F97D1"/>
<path d="M24 29L24 25C24 24.4477 24.4477 24 25 24C25.5523 24 26 24.4477 26 25L26 29C26 29.5523 25.5523 30 25 30C24.4477 30 24 29.5523 24 29Z" fill="#4F97D1"/>
<path d="M18 33.1416L18 29.1416C18 28.5893 18.4477 28.1416 19 28.1416C19.5523 28.1416 20 28.5893 20 29.1416L20 33.1416C20 33.6939 19.5523 34.1416 19 34.1416C18.4477 34.1416 18 33.6939 18 33.1416Z" fill="#4F97D1"/>
<path d="M12 33L14 31L16 33L14 35L12 33Z" fill="#0B4778"/>
<path d="M7 29L9 27L11 29L9 31L7 29Z" fill="#0B4778"/>
<path d="M18 24L20 22L22 24L20 26L18 24Z" fill="#0B4778"/>
<path d="M23 33L25 31L27 33L25 35L23 33Z" fill="#0B4778"/>
<path d="M28 29L30 27L32 29L30 31L28 29Z" fill="#0B4778"/>
</svg>
