<svg width="24" height="24" viewBox="0 0 24 24" fill="none" xmlns="http://www.w3.org/2000/svg">
<path d="M10.9072 2C13.0741 2 14.9727 3.14317 16.0371 4.8584C16.3161 4.81114 16.603 4.78613 16.8955 4.78613C19.7146 4.78628 21.9998 7.07228 22 9.89258C22 12.7131 19.7148 14.9999 16.8955 15C16.8711 15 16.8466 14.9984 16.8223 14.998V15H6.2959V14.9971C6.2632 14.9978 6.23014 15 6.19727 15C3.88886 14.9998 2.01758 13.1289 2.01758 10.8213C2.01766 8.93187 3.27236 7.33599 4.99414 6.81934C5.55682 4.06888 7.99077 2.00001 10.9072 2Z" fill="#F7F9FA"/>
<path d="M10.8926 2C13.0604 2.00015 14.9604 3.14386 16.0244 4.86035C16.3072 4.81173 16.5979 4.78616 16.8945 4.78613C19.7139 4.78613 21.9999 7.07208 22 9.89258C22 12.6779 19.7707 14.9409 17 14.9971V14.9951H16.252C15.8377 14.9951 15.502 14.6593 15.502 14.2451C15.502 13.8309 15.8377 13.4951 16.252 13.4951H17.002C18.9427 13.4383 20.5 11.8493 20.5 9.89258C20.4999 7.90028 18.8852 6.28613 16.8945 6.28613C16.6842 6.28616 16.4784 6.30448 16.2783 6.33887L15.2822 6.50977L14.749 5.65039C13.9969 4.43736 12.6953 3.60874 11.1953 3.50977L10.8926 3.5C8.70292 3.5 6.87225 5.05348 6.44922 7.11914L6.26855 7.99805L5.40918 8.25586C4.37217 8.5664 3.60218 9.48689 3.50977 10.5967L3.5 10.8213C3.5 12.2397 4.60357 13.3966 6 13.4893V13.4951H6.75C7.16421 13.4951 7.5 13.8309 7.5 14.2451C7.49994 14.6593 7.16417 14.9951 6.75 14.9951H6V14.9941C3.77499 14.8999 2 13.0687 2 10.8213C2.00009 8.9308 3.2562 7.33407 4.97949 6.81836C5.54256 4.06841 7.97647 2 10.8926 2Z" fill="#A9AEB1"/>
<path d="M8.25 19.3999L8.25 16.3999C8.25 15.9857 8.58579 15.6499 9 15.6499C9.41421 15.6499 9.75 15.9857 9.75 16.3999L9.75 19.3999C9.75 19.8141 9.41421 20.1499 9 20.1499C8.58579 20.1499 8.25 19.8141 8.25 19.3999Z" fill="#58B4FF"/>
<path d="M14.25 19.3999L14.25 16.3999C14.25 15.9857 14.5858 15.6499 15 15.6499C15.4142 15.6499 15.75 15.9857 15.75 16.3999L15.75 19.3999C15.75 19.8141 15.4142 20.1499 15 20.1499C14.5858 20.1499 14.25 19.8141 14.25 19.3999Z" fill="#58B4FF"/>
<path d="M11.25 17.7316L11.25 14.7316C11.25 14.3174 11.5858 13.9816 12 13.9816C12.4142 13.9816 12.75 14.3174 12.75 14.7316L12.75 17.7316C12.75 18.1458 12.4142 18.4816 12 18.4816C11.5858 18.4816 11.25 18.1458 11.25 17.7316Z" fill="#58B4FF"/>
<path d="M4 17.8999L5.5 16.3999L7 17.8999L5.5 19.3999L4 17.8999Z" fill="#CFE8FF"/>
<path d="M10.5 20.6037L12 19.1037L13.5 20.6037L12 22.1037L10.5 20.6037Z" fill="#CFE8FF"/>
<path d="M17 17.8999L18.5 16.3999L20 17.8999L18.5 19.3999L17 17.8999Z" fill="#CFE8FF"/>
</svg>
