<svg width="40" height="40" viewBox="0 0 40 40" fill="none" xmlns="http://www.w3.org/2000/svg">
<g clip-path="url(#clip0_2174_10357)">
<mask id="mask0_2174_10357" style="mask-type:alpha" maskUnits="userSpaceOnUse" x="0" y="0" width="41" height="38">
<path fill-rule="evenodd" clip-rule="evenodd" d="M41 0H0V38H4V26.6201C4 26.6198 4 26.6194 4 26.619C4 26.6187 4 26.6183 4 26.6179V25H4.595C5.05356 24.461 5.73685 24.119 6.5 24.119H9.09215C8.87616 23.7997 8.75002 23.4145 8.75002 23H5.00002C4.14915 23 3.42472 22.4677 3.13576 21.7187C2.33407 21.3024 1.78615 20.4658 1.78615 19.5C1.78615 18.1193 2.90544 17 4.28615 17H16.2861C17.4955 17.0002 18.5048 17.8589 18.7363 19H23.75C23.7878 19 23.8254 19.001 23.8627 19.0031C23.9082 19.001 23.954 19 24 19C25.6569 19 27 20.3431 27 22C27 23.6523 25.6642 24.9926 24.0137 25L31 25C31.0039 25 31.0077 25 31.0115 25H41V0ZM20.9889 25C20.9926 25 20.9963 25 21 25H12.405C12.405 25 12.405 25 12.405 25H20.9889ZM23.862 24.9969C23.9033 24.9988 23.9447 24.9998 23.9863 25H23.75C23.7876 25 23.825 24.9989 23.862 24.9969Z" fill="#D9D9D9"/>
</mask>
<g mask="url(#mask0_2174_10357)">
<mask id="mask1_2174_10357" style="mask-type:alpha" maskUnits="userSpaceOnUse" x="2" y="2" width="35" height="32">
<path d="M37 33.0005H20.4824C21.5687 32.1465 22.2676 30.8217 22.2676 29.3325C22.2674 26.7554 20.1776 24.6668 17.6006 24.6665C17.1596 24.6665 16.7325 24.7279 16.3281 24.8423C15.4186 22.0322 12.78 19.9997 9.66699 19.9995C6.87047 19.9997 4.45811 21.6405 3.33691 24.0112C3.22587 24.0039 3.11291 23.9995 3 23.9995C2.65774 23.9995 2.32294 24.0336 2 24.0991V2.00049H37V33.0005Z" fill="#D9D9D9"/>
</mask>
<g mask="url(#mask1_2174_10357)">
<path d="M21.6064 4.88818C22.6417 4.71794 23.6652 4.70821 24.6533 4.84033C21.5422 6.86126 19.7455 10.6266 20.3672 14.5552C21.1959 19.7915 26.0181 23.3809 31.1895 22.5952C29.6296 24.4091 27.4677 25.6977 24.9561 26.1108C19.2295 27.0526 13.8159 23.0847 12.8867 17.2134C11.9571 11.3389 15.8762 5.83057 21.6064 4.88818Z" fill="#374274" stroke="#DFE1E2" stroke-width="1.5"/>
<path d="M34 11.9995L34.8103 14.1892L37 14.9995L34.8103 15.8098L34 17.9995L33.1897 15.8098L31 14.9995L33.1897 14.1892L34 11.9995Z" fill="#A9AEB1"/>
<path d="M29 7L29.8103 9.18973L32 10L29.8103 10.8103L29 13L28.1897 10.8103L26 10L28.1897 9.18973L29 7Z" fill="#A9AEB1"/>
</g>
</g>
<mask id="path-6-inside-1_2174_10357" fill="white">
<path d="M10.75 24.0001C9.64543 24.0001 8.75 23.1046 8.75 22.0001L5 22.0001C3.89543 22.0001 3 21.1046 3 20.0001C3 18.8955 3.89543 18.0001 5 18.0001L15.7861 18.0001C16.8905 18.0003 17.7861 18.8956 17.7861 20.0001L24 20.0001C25.1046 20.0001 26 20.8955 26 22.0001C26 23.1046 25.1046 24.0001 24 24.0001L10.75 24.0001Z"/>
</mask>
<path d="M10.75 24.0001C9.64543 24.0001 8.75 23.1046 8.75 22.0001L5 22.0001C3.89543 22.0001 3 21.1046 3 20.0001C3 18.8955 3.89543 18.0001 5 18.0001L15.7861 18.0001C16.8905 18.0003 17.7861 18.8956 17.7861 20.0001L24 20.0001C25.1046 20.0001 26 20.8955 26 22.0001C26 23.1046 25.1046 24.0001 24 24.0001L10.75 24.0001Z" fill="#FAF3D1"/>
<path d="M8.75 22.0001L9.75 22.0001L9.75 21.0001L8.75 21.0001L8.75 22.0001ZM5 22.0001L5 23.0001L5 22.0001ZM15.7861 18.0001L15.7863 17.0001L15.7861 17.0001L15.7861 18.0001ZM17.7861 20.0001L16.7861 20.0001L16.7861 21.0001L17.7861 21.0001L17.7861 20.0001ZM24 20.0001L24 21.0001L24 20.0001ZM24 24.0001L24 25.0001L24 24.0001ZM10.75 24.0001L10.75 23.0001C10.1977 23.0001 9.75 22.5523 9.75 22.0001L8.75 22.0001L7.75 22.0001C7.75 23.6569 9.09315 25.0001 10.75 25.0001L10.75 24.0001ZM8.75 22.0001L8.75 21.0001L5 21.0001L5 22.0001L5 23.0001L8.75 23.0001L8.75 22.0001ZM5 22.0001L5 21.0001C4.44772 21.0001 4 20.5523 4 20.0001L3 20.0001L2 20.0001C2 21.6569 3.34315 23.0001 5 23.0001L5 22.0001ZM3 20.0001L4 20.0001C4 19.4478 4.44772 19.0001 5 19.0001L5 18.0001L5 17.0001C3.34314 17.0001 2 18.3432 2 20.0001L3 20.0001ZM5 18.0001L5 19.0001L15.7861 19.0001L15.7861 18.0001L15.7861 17.0001L5 17.0001L5 18.0001ZM15.7861 18.0001L15.7859 19.0001C16.3384 19.0002 16.7861 19.4481 16.7861 20.0001L17.7861 20.0001L18.7861 20.0001C18.7861 18.3431 17.4426 17.0004 15.7863 17.0001L15.7861 18.0001ZM17.7861 20.0001L17.7861 21.0001L24 21.0001L24 20.0001L24 19.0001L17.7861 19.0001L17.7861 20.0001ZM24 20.0001L24 21.0001C24.5523 21.0001 25 21.4478 25 22.0001L26 22.0001L27 22.0001C27 20.3432 25.6569 19.0001 24 19.0001L24 20.0001ZM26 22.0001L25 22.0001C25 22.5523 24.5523 23.0001 24 23.0001L24 24.0001L24 25.0001C25.6569 25.0001 27 23.6569 27 22.0001L26 22.0001ZM24 24.0001L24 23.0001L10.75 23.0001L10.75 24.0001L10.75 25.0001L24 25.0001L24 24.0001Z" fill="#8D9297" mask="url(#path-6-inside-1_2174_10357)"/>
<path d="M22 26.5001H32C32.8284 26.5001 33.5 27.1716 33.5 28.0001C33.5 28.8285 32.8284 29.5001 32 29.5001H29.5V30.0001C29.5 30.8285 28.8284 31.5001 28 31.5001H15C14.1716 31.5001 13.5 30.8285 13.5 30.0001C13.5 29.1716 14.1716 28.5001 15 28.5001H20.5V28.0001C20.5 27.1716 21.1716 26.5001 22 26.5001Z" fill="#FAF3D1" stroke="#8D9297"/>
<path d="M6.61914 25.5002H10.3809C10.9989 25.5002 11.5 26.0013 11.5 26.6193C11.4999 27.2373 10.9989 27.7385 10.3809 27.7385H6.61914C6.00114 27.7385 5.50005 27.2373 5.5 26.6193C5.5 26.0013 6.00111 25.5002 6.61914 25.5002Z" fill="#FAF3D1" stroke="#8D9297"/>
</g>
<defs>
<clipPath id="clip0_2174_10357">
<rect width="40" height="40" fill="white"/>
</clipPath>
</defs>
</svg>
