<svg width="40" height="40" viewBox="0 0 40 40" fill="none" xmlns="http://www.w3.org/2000/svg">
<g clip-path="url(#clip0_2174_10109)">
<mask id="mask0_2174_10109" style="mask-type:alpha" maskUnits="userSpaceOnUse" x="0" y="0" width="41" height="38">
<path fill-rule="evenodd" clip-rule="evenodd" d="M41 0H0V38H4V26.6201C4 26.6198 4 26.6194 4 26.619C4 26.6187 4 26.6183 4 26.6179V25H4.595C5.05356 24.461 5.73685 24.119 6.5 24.119H9.09215C8.87616 23.7997 8.75002 23.4145 8.75002 23H5.00002C4.14915 23 3.42472 22.4677 3.13576 21.7187C2.33407 21.3024 1.78615 20.4658 1.78615 19.5C1.78615 18.1193 2.90544 17 4.28615 17H16.2861C17.4955 17.0002 18.5048 17.8589 18.7363 19H23.75C23.7878 19 23.8254 19.001 23.8627 19.0031C23.9082 19.001 23.954 19 24 19C25.6569 19 27 20.3431 27 22C27 23.6523 25.6642 24.9926 24.0137 25L31 25C31.0039 25 31.0077 25 31.0115 25H41V0ZM20.9889 25C20.9926 25 20.9963 25 21 25H12.405C12.405 25 12.405 25 12.405 25H20.9889ZM23.862 24.9969C23.9033 24.9988 23.9447 24.9998 23.9863 25H23.75C23.7876 25 23.825 24.9989 23.862 24.9969Z" fill="#D9D9D9"/>
</mask>
<g mask="url(#mask0_2174_10109)">
<circle cx="20" cy="20" r="9" fill="#DDAA01" stroke="#947100" stroke-width="2"/>
<mask id="path-3-inside-1_2174_10109" fill="white">
<path d="M20 1.99951C20.5523 1.99951 21 2.44723 21 2.99951V8.04059C20.6703 8.01338 20.3368 7.99951 20 7.99951C19.6632 7.99951 19.3297 8.01338 19 8.04059V2.99951C19 2.44723 19.4477 1.99951 20 1.99951Z"/>
<path d="M14.8857 9.14079L12.3663 4.77714C12.0902 4.29885 11.4786 4.13498 11.0003 4.41112C10.522 4.68726 10.3581 5.29885 10.6343 5.77714L13.1545 10.1423C13.7003 9.76257 14.279 9.42701 14.8857 9.14079Z"/>
<path d="M10.1429 13.1538L5.77757 10.6335C5.29928 10.3573 4.68769 10.5212 4.41154 10.9995C4.1354 11.4778 4.29928 12.0894 4.77757 12.3655L9.14138 14.885C9.42761 14.2784 9.76318 13.6996 10.1429 13.1538Z"/>
<path d="M8.04107 18.9995H3C2.44772 18.9995 2 19.4472 2 19.9995C2 20.5518 2.44772 20.9995 3 20.9995H8.04107C8.01387 20.6698 8 20.3363 8 19.9995C8 19.6628 8.01387 19.3292 8.04107 18.9995Z"/>
<path d="M9.14142 25.1141L4.77787 27.6334C4.29958 27.9096 4.13571 28.5212 4.41185 28.9994C4.68799 29.4777 5.29958 29.6416 5.77787 29.3655L10.143 26.8453C9.76324 26.2995 9.42766 25.7208 9.14142 25.1141Z"/>
<path d="M13.1545 29.8567L10.6342 34.222C10.358 34.7003 10.5219 35.3119 11.0002 35.588C11.4785 35.8642 12.0901 35.7003 12.3662 35.222L14.8857 30.8582C14.279 30.572 13.7002 30.2364 13.1545 29.8567Z"/>
<path d="M19 31.9584V36.9995C19 37.5518 19.4477 37.9995 20 37.9995C20.5523 37.9995 21 37.5518 21 36.9995V31.9584C20.6703 31.9856 20.3368 31.9995 20 31.9995C19.6632 31.9995 19.3297 31.9856 19 31.9584Z"/>
<path d="M25.1147 30.858L27.6343 35.222C27.9104 35.7003 28.522 35.8642 29.0003 35.588C29.4786 35.3119 29.6425 34.7003 29.3663 34.222L26.8459 29.8565C26.3001 30.2362 25.7214 30.5718 25.1147 30.858Z"/>
<path d="M29.8571 26.8452L34.2224 29.3655C34.7007 29.6417 35.3123 29.4778 35.5885 28.9995C35.8646 28.5212 35.7007 27.9096 35.2224 27.6335L30.8586 25.114C30.5724 25.7207 30.2368 26.2995 29.8571 26.8452Z"/>
<path d="M31.9589 20.9995H37C37.5523 20.9995 38 20.5518 38 19.9995C38 19.4472 37.5523 18.9995 37 18.9995H31.9589C31.9861 19.3292 32 19.6628 32 19.9995C32 20.3363 31.9861 20.6698 31.9589 20.9995Z"/>
<path d="M30.8587 14.8851L35.2227 12.3655C35.701 12.0893 35.8649 11.4777 35.5888 10.9994C35.3126 10.5212 34.701 10.3573 34.2227 10.6334L29.8571 13.1539C30.2369 13.6997 30.5724 14.2784 30.8587 14.8851Z"/>
<path d="M26.8459 10.1426L29.3662 5.77715C29.6424 5.29885 29.4785 4.68726 29.0002 4.41112C28.5219 4.13498 27.9103 4.29885 27.6342 4.77715L25.1147 9.14099C25.7213 9.42723 26.3001 9.76281 26.8459 10.1426Z"/>
</mask>
<path d="M21 8.04059L20.8356 10.0338L23 10.2124V8.04059H21ZM19 8.04059H17V10.2124L19.1644 10.0338L19 8.04059ZM14.8857 9.14079L15.7391 10.9496L17.7041 10.0225L16.6177 8.14079L14.8857 9.14079ZM12.3663 4.77714L10.6343 5.77714V5.77714L12.3663 4.77714ZM10.6343 5.77714L12.3663 4.77714L12.3663 4.77714L10.6343 5.77714ZM13.1545 10.1423L11.4225 11.1423L12.5105 13.0268L14.2968 11.784L13.1545 10.1423ZM10.1429 13.1538L11.7846 14.2961L13.0275 12.5098L11.1429 11.4218L10.1429 13.1538ZM5.77757 10.6335L4.77757 12.3655L4.77757 12.3655L5.77757 10.6335ZM4.77757 12.3655L5.77757 10.6335H5.77757L4.77757 12.3655ZM9.14138 14.885L8.14138 16.617L10.023 17.7034L10.9501 15.7384L9.14138 14.885ZM8.04107 18.9995L10.0343 19.1639L10.2129 16.9995H8.04107V18.9995ZM8.04107 20.9995V22.9995H10.2129L10.0343 20.8351L8.04107 20.9995ZM9.14142 25.1141L10.9502 24.2607L10.023 22.2957L8.14142 23.3821L9.14142 25.1141ZM4.77787 27.6334L3.77787 25.9014H3.77787L4.77787 27.6334ZM4.41185 28.9994L6.1439 27.9994L6.1439 27.9994L4.41185 28.9994ZM5.77787 29.3655L4.77787 27.6334H4.77787L5.77787 29.3655ZM10.143 26.8453L11.143 28.5773L13.0276 27.4893L11.7847 25.703L10.143 26.8453ZM13.1545 29.8567L14.2968 28.215L12.5105 26.9722L11.4224 28.8567L13.1545 29.8567ZM10.6342 34.222L8.90214 33.222L8.90213 33.222L10.6342 34.222ZM11.0002 35.588L12.0002 33.856L12.0002 33.856L11.0002 35.588ZM12.3662 35.222L10.6342 34.222L10.6342 34.222L12.3662 35.222ZM14.8857 30.8582L16.6177 31.8582L17.7041 29.9766L15.7391 29.0494L14.8857 30.8582ZM19 31.9584L19.1644 29.9652L17 29.7866V31.9584H19ZM21 31.9584H23V29.7866L20.8356 29.9652L21 31.9584ZM25.1147 30.858L24.2613 29.0493L22.2964 29.9764L23.3827 31.858L25.1147 30.858ZM27.6343 35.222L25.9022 36.222V36.222L27.6343 35.222ZM29.3663 34.222L27.6343 35.222V35.222L29.3663 34.222ZM26.8459 29.8565L28.5779 28.8565L27.4898 26.9718L25.7036 28.2148L26.8459 29.8565ZM29.8571 26.8452L28.2154 25.7029L26.9725 27.4892L28.8571 28.5773L29.8571 26.8452ZM34.2224 29.3655L35.2224 27.6335H35.2224L34.2224 29.3655ZM35.2224 27.6335L36.2224 25.9014H36.2224L35.2224 27.6335ZM30.8586 25.114L31.8586 23.382L29.977 22.2956L29.0499 24.2606L30.8586 25.114ZM31.9589 20.9995L29.9657 20.8351L29.7871 22.9995H31.9589V20.9995ZM31.9589 18.9995V16.9995H29.7871L29.9657 19.1639L31.9589 18.9995ZM30.8587 14.8851L29.0499 15.7385L29.977 17.7035L31.8587 16.6171L30.8587 14.8851ZM35.2227 12.3655L34.2227 10.6334L34.2227 10.6334L35.2227 12.3655ZM34.2227 10.6334L33.2227 8.90137V8.90137L34.2227 10.6334ZM29.8571 13.1539L28.8571 11.4219L26.9726 12.5099L28.2154 14.2962L29.8571 13.1539ZM26.8459 10.1426L25.7035 11.7842L27.4898 13.0272L28.5779 11.1426L26.8459 10.1426ZM29.3662 5.77715L31.0983 6.77715L31.0983 6.77715L29.3662 5.77715ZM27.6342 4.77715L29.3662 5.77715L29.3662 5.77715L27.6342 4.77715ZM25.1147 9.14099L23.3827 8.14099L22.2963 10.0226L24.2612 10.9497L25.1147 9.14099ZM21 2.99951H23C23 1.34266 21.6569 -0.000488281 20 -0.000488281V1.99951V3.99951C19.4477 3.99951 19 3.5518 19 2.99951H21ZM21 8.04059H23V2.99951H21H19V8.04059H21ZM20 7.99951V9.99951C20.2818 9.99951 20.5605 10.0111 20.8356 10.0338L21 8.04059L21.1644 6.04736C20.7801 6.01565 20.3917 5.99951 20 5.99951V7.99951ZM19 8.04059L19.1644 10.0338C19.4395 10.0111 19.7182 9.99951 20 9.99951V7.99951V5.99951C19.6083 5.99951 19.2199 6.01565 18.8356 6.04736L19 8.04059ZM19 2.99951H17V8.04059H19H21V2.99951H19ZM20 1.99951V-0.000488281C18.3431 -0.000488281 17 1.34266 17 2.99951H19H21C21 3.5518 20.5523 3.99951 20 3.99951V1.99951ZM14.8857 9.14079L16.6177 8.14079L14.0984 3.77714L12.3663 4.77714L10.6343 5.77714L13.1536 10.1408L14.8857 9.14079ZM12.3663 4.77714L14.0984 3.77714C13.27 2.34227 11.4352 1.85064 10.0003 2.67907L11.0003 4.41112L12.0003 6.14317C11.522 6.41931 10.9104 6.25544 10.6343 5.77714L12.3663 4.77714ZM11.0003 4.41112L10.0003 2.67907C8.56543 3.50749 8.0738 5.34227 8.90223 6.77714L10.6343 5.77714L12.3663 4.77714C12.6425 5.25544 12.4786 5.86703 12.0003 6.14317L11.0003 4.41112ZM10.6343 5.77714L8.90223 6.77714L11.4225 11.1423L13.1545 10.1423L14.8866 9.14229L12.3663 4.77714L10.6343 5.77714ZM13.1545 10.1423L14.2968 11.784C14.7518 11.4674 15.234 11.1879 15.7391 10.9496L14.8857 9.14079L14.0323 7.33201C13.3241 7.66616 12.6487 8.05773 12.0122 8.50058L13.1545 10.1423ZM10.1429 13.1538L11.1429 11.4218L6.77757 8.90144L5.77757 10.6335L4.77757 12.3655L9.14292 14.8859L10.1429 13.1538ZM5.77757 10.6335L6.77757 8.90144C5.34269 8.07301 3.50792 8.56464 2.67949 9.99951L4.41154 10.9995L6.14359 11.9995C5.86745 12.4778 5.25586 12.6417 4.77757 12.3655L5.77757 10.6335ZM4.41154 10.9995L2.67949 9.99951C1.85106 11.4344 2.34269 13.2692 3.77757 14.0976L4.77757 12.3655L5.77757 10.6335C6.25586 10.9096 6.41974 11.5212 6.14359 11.9995L4.41154 10.9995ZM4.77757 12.3655L3.77757 14.0976L8.14138 16.617L9.14138 14.885L10.1414 13.1529L5.77757 10.6335L4.77757 12.3655ZM9.14138 14.885L10.9501 15.7384C11.1884 15.2334 11.468 14.7511 11.7846 14.2961L10.1429 13.1538L8.50122 12.0115C8.05837 12.648 7.66678 13.3233 7.33262 14.0315L9.14138 14.885ZM8.04107 18.9995V16.9995H3V18.9995V20.9995H8.04107V18.9995ZM3 18.9995V16.9995C1.34314 16.9995 0 18.3427 0 19.9995H2H4C4 20.5518 3.55229 20.9995 3 20.9995V18.9995ZM2 19.9995H0C0 21.6564 1.34315 22.9995 3 22.9995V20.9995V18.9995C3.55229 18.9995 4 19.4472 4 19.9995H2ZM3 20.9995V22.9995H8.04107V20.9995V18.9995H3V20.9995ZM8.04107 20.9995L10.0343 20.8351C10.0116 20.56 10 20.2813 10 19.9995H8H6C6 20.3912 6.01614 20.7796 6.04785 21.1639L8.04107 20.9995ZM8 19.9995H10C10 19.7177 10.0116 19.4391 10.0343 19.1639L8.04107 18.9995L6.04785 18.8351C6.01614 19.2194 6 19.6078 6 19.9995H8ZM9.14142 25.1141L8.14142 23.3821L3.77787 25.9014L4.77787 27.6334L5.77787 29.3655L10.1414 26.8462L9.14142 25.1141ZM4.77787 27.6334L3.77787 25.9014C2.343 26.7298 1.85137 28.5646 2.6798 29.9994L4.41185 28.9994L6.1439 27.9994C6.42004 28.4777 6.25616 29.0893 5.77787 29.3655L4.77787 27.6334ZM4.41185 28.9994L2.6798 29.9994C3.50822 31.4343 5.343 31.9259 6.77787 31.0975L5.77787 29.3655L4.77787 27.6334C5.25616 27.3573 5.86776 27.5212 6.1439 27.9994L4.41185 28.9994ZM5.77787 29.3655L6.77787 31.0975L11.143 28.5773L10.143 26.8453L9.14297 25.1132L4.77787 27.6334L5.77787 29.3655ZM10.143 26.8453L11.7847 25.703C11.468 25.2479 11.1885 24.7657 10.9502 24.2607L9.14142 25.1141L7.33266 25.9676C7.66683 26.6758 8.05843 27.3511 8.50128 27.9876L10.143 26.8453ZM13.1545 29.8567L11.4224 28.8567L8.90214 33.222L10.6342 34.222L12.3662 35.222L14.8865 30.8567L13.1545 29.8567ZM10.6342 34.222L8.90213 33.222C8.07371 34.6569 8.56534 36.4917 10.0002 37.3201L11.0002 35.588L12.0002 33.856C12.4785 34.1321 12.6424 34.7437 12.3662 35.222L10.6342 34.222ZM11.0002 35.588L10.0002 37.3201C11.4351 38.1485 13.2699 37.6569 14.0983 36.222L12.3662 35.222L10.6342 34.222C10.9103 33.7437 11.5219 33.5798 12.0002 33.856L11.0002 35.588ZM12.3662 35.222L14.0983 36.222L16.6177 31.8582L14.8857 30.8582L13.1536 29.8582L10.6342 34.222L12.3662 35.222ZM14.8857 30.8582L15.7391 29.0494C15.234 28.8111 14.7518 28.5316 14.2968 28.215L13.1545 29.8567L12.0122 31.4984C12.6487 31.9413 13.324 32.3329 14.0323 32.667L14.8857 30.8582ZM19 31.9584H17V36.9995H19H21V31.9584H19ZM19 36.9995H17C17 38.6564 18.3431 39.9995 20 39.9995V37.9995V35.9995C20.5523 35.9995 21 36.4472 21 36.9995H19ZM20 37.9995V39.9995C21.6569 39.9995 23 38.6564 23 36.9995H21H19C19 36.4472 19.4477 35.9995 20 35.9995V37.9995ZM21 36.9995H23V31.9584H21H19V36.9995H21ZM21 31.9584L20.8356 29.9652C20.5605 29.9879 20.2818 29.9995 20 29.9995V31.9995V33.9995C20.3917 33.9995 20.7801 33.9834 21.1644 33.9517L21 31.9584ZM20 31.9995V29.9995C19.7182 29.9995 19.4395 29.9879 19.1644 29.9652L19 31.9584L18.8356 33.9517C19.2199 33.9834 19.6083 33.9995 20 33.9995V31.9995ZM25.1147 30.858L23.3827 31.858L25.9022 36.222L27.6343 35.222L29.3663 34.222L26.8468 29.858L25.1147 30.858ZM27.6343 35.222L25.9022 36.222C26.7307 37.6569 28.5654 38.1485 30.0003 37.3201L29.0003 35.588L28.0003 33.856C28.4786 33.5798 29.0902 33.7437 29.3663 34.222L27.6343 35.222ZM29.0003 35.588L30.0003 37.3201C31.4352 36.4917 31.9268 34.6569 31.0984 33.222L29.3663 34.222L27.6343 35.222C27.3581 34.7437 27.522 34.1321 28.0003 33.856L29.0003 35.588ZM29.3663 34.222L31.0984 33.222L28.5779 28.8565L26.8459 29.8565L25.1138 30.8565L27.6343 35.222L29.3663 34.222ZM26.8459 29.8565L25.7036 28.2148C25.2485 28.5314 24.7663 28.811 24.2613 29.0493L25.1147 30.858L25.9682 32.6668C26.6764 32.3326 27.3517 31.941 27.9882 31.4981L26.8459 29.8565ZM29.8571 26.8452L28.8571 28.5773L33.2224 31.0976L34.2224 29.3655L35.2224 27.6335L30.8571 25.1132L29.8571 26.8452ZM34.2224 29.3655L33.2224 31.0976C34.6573 31.926 36.4921 31.4344 37.3205 29.9995L35.5885 28.9995L33.8564 27.9995C34.1325 27.5212 34.7441 27.3573 35.2224 27.6335L34.2224 29.3655ZM35.5885 28.9995L37.3205 29.9995C38.1489 28.5646 37.6573 26.7299 36.2224 25.9014L35.2224 27.6335L34.2224 29.3655C33.7441 29.0894 33.5803 28.4778 33.8564 27.9995L35.5885 28.9995ZM35.2224 27.6335L36.2224 25.9014L31.8586 23.382L30.8586 25.114L29.8586 26.8461L34.2224 29.3655L35.2224 27.6335ZM30.8586 25.114L29.0499 24.2606C28.8116 24.7656 28.532 25.2479 28.2154 25.7029L29.8571 26.8452L31.4988 27.9875C31.9416 27.351 32.3332 26.6757 32.6674 25.9675L30.8586 25.114ZM31.9589 20.9995V22.9995H37V20.9995V18.9995H31.9589V20.9995ZM37 20.9995V22.9995C38.6569 22.9995 40 21.6564 40 19.9995H38H36C36 19.4472 36.4477 18.9995 37 18.9995V20.9995ZM38 19.9995H40C40 18.3427 38.6569 16.9995 37 16.9995V18.9995V20.9995C36.4477 20.9995 36 20.5518 36 19.9995H38ZM37 18.9995V16.9995H31.9589V18.9995V20.9995H37V18.9995ZM31.9589 18.9995L29.9657 19.1639C29.9884 19.4391 30 19.7177 30 19.9995H32H34C34 19.6078 33.9839 19.2194 33.9522 18.8351L31.9589 18.9995ZM32 19.9995H30C30 20.2813 29.9884 20.56 29.9657 20.8351L31.9589 20.9995L33.9522 21.1639C33.9839 20.7796 34 20.3912 34 19.9995H32ZM30.8587 14.8851L31.8587 16.6171L36.2227 14.0975L35.2227 12.3655L34.2227 10.6334L29.8587 13.153L30.8587 14.8851ZM35.2227 12.3655L36.2227 14.0975C37.6576 13.2691 38.1492 11.4343 37.3208 9.99945L35.5888 10.9994L33.8567 11.9994C33.5806 11.5212 33.7444 10.9096 34.2227 10.6334L35.2227 12.3655ZM35.5888 10.9994L37.3208 9.99945C36.4924 8.56457 34.6576 8.07294 33.2227 8.90137L34.2227 10.6334L35.2227 12.3655C34.7444 12.6416 34.1329 12.4777 33.8567 11.9994L35.5888 10.9994ZM34.2227 10.6334L33.2227 8.90137L28.8571 11.4219L29.8571 13.1539L30.8571 14.886L35.2227 12.3655L34.2227 10.6334ZM29.8571 13.1539L28.2154 14.2962C28.532 14.7512 28.8116 15.2335 29.0499 15.7385L30.8587 14.8851L32.6674 14.0316C32.3333 13.3234 31.9417 12.6481 31.4988 12.0116L29.8571 13.1539ZM26.8459 10.1426L28.5779 11.1426L31.0983 6.77715L29.3662 5.77715L27.6342 4.77715L25.1138 9.14255L26.8459 10.1426ZM29.3662 5.77715L31.0983 6.77715C31.9267 5.34227 31.4351 3.5075 30.0002 2.67907L29.0002 4.41112L28.0002 6.14317C27.5219 5.86703 27.358 5.25544 27.6342 4.77715L29.3662 5.77715ZM29.0002 4.41112L30.0002 2.67907C28.5653 1.85064 26.7306 2.34227 25.9021 3.77715L27.6342 4.77715L29.3662 5.77715C29.0901 6.25544 28.4785 6.41931 28.0002 6.14317L29.0002 4.41112ZM27.6342 4.77715L25.9021 3.77715L23.3827 8.14099L25.1147 9.14099L26.8468 10.141L29.3662 5.77715L27.6342 4.77715ZM25.1147 9.14099L24.2612 10.9497C24.7663 11.188 25.2485 11.4676 25.7035 11.7842L26.8459 10.1426L27.9882 8.50088C27.3517 8.05801 26.6764 7.66641 25.9682 7.33224L25.1147 9.14099Z" fill="#B38C00" mask="url(#path-3-inside-1_2174_10109)"/>
</g>
<path d="M24 24.0001C25.1046 24.0001 26 23.1046 26 22.0001C26 20.8955 25.1046 20.0001 24 20.0001L17.7857 20.0001C17.7857 18.8955 16.8903 18.0001 15.7857 18.0001L5 18.0001C3.89543 18.0001 3 18.8955 3 20.0001C3 21.1046 3.89543 22.0001 5 22.0001L8.75 22.0001C8.75 23.1046 9.64543 24.0001 10.75 24.0001L24 24.0001Z" fill="#DFE1E2"/>
<path d="M24 23.0001V24.0001H10.75V23.0001H24ZM25 22.0001C25 21.4478 24.5523 21.0001 24 21.0001H16.7861V20.0001C16.7861 19.4479 16.3382 19.0003 15.7861 19.0001H5C4.44772 19.0001 4 19.4478 4 20.0001C4 20.5523 4.44771 21.0001 5 21.0001V22.0001C3.89543 22.0001 3 21.1046 3 20.0001C3 18.9644 3.78722 18.1131 4.7959 18.0108L5 18.0001H15.7861C16.8905 18.0003 17.7861 18.8956 17.7861 20.0001H24C25.1046 20.0001 26 20.8955 26 22.0001L25.9893 22.2042C25.887 23.2128 25.0357 24.0001 24 24.0001V23.0001C24.5523 23.0001 25 22.5523 25 22.0001ZM8.75 22.0001H5V21.0001H9.75V22.0001C9.75 22.5523 10.1977 23.0001 10.75 23.0001V24.0001C9.64543 24.0001 8.75 23.1046 8.75 22.0001Z" fill="#565C65"/>
<path d="M20 28.0001C20 26.8955 20.8954 26.0001 22 26.0001L32 26.0001C33.1046 26.0001 34 26.8955 34 28.0001C34 29.1046 33.1046 30.0001 32 30.0001H30C30 31.1046 29.1046 32.0001 28 32.0001L15 32.0001C13.8954 32.0001 13 31.1046 13 30.0001C13 28.8955 13.8954 28.0001 15 28.0001L20 28.0001Z" fill="#DFE1E2"/>
<path d="M28 31.0001V32.0001H15V31.0001H28ZM29 30.0001V29.0001H32V30.0001H30C30 31.1046 29.1046 32.0001 28 32.0001V31.0001C28.5523 31.0001 29 30.5523 29 30.0001ZM33 28.0001C33 27.4478 32.5523 27.0001 32 27.0001H22C21.4477 27.0001 21 27.4478 21 28.0001V29.0001H15C14.4477 29.0001 14 29.4478 14 30.0001C14 30.5523 14.4477 31.0001 15 31.0001V32.0001L14.7959 31.9893C13.8543 31.8939 13.1062 31.1457 13.0107 30.2042L13 30.0001C13 28.9644 13.7872 28.1131 14.7959 28.0108L15 28.0001H20C20 26.8955 20.8954 26.0001 22 26.0001H32C33.1046 26.0001 34 26.8955 34 28.0001C34 29.1046 33.1046 30.0001 32 30.0001V29.0001C32.5523 29.0001 33 28.5523 33 28.0001Z" fill="#565C65"/>
<path d="M5 26.6192C5 25.7251 5.72487 25.0002 6.61905 25.0002L10.381 25.0002C11.2751 25.0002 12 25.7251 12 26.6192C12 27.5134 11.2751 28.2383 10.381 28.2383L6.61905 28.2383C5.72487 28.2383 5 27.5134 5 26.6192Z" fill="#DFE1E2"/>
<path d="M10.3809 27.2383V28.2383H6.61914V27.2383H10.3809ZM11 26.6192C11 26.2774 10.7228 26.0001 10.3809 26.0001H6.61914C6.27725 26.0001 6 26.2774 6 26.6192C6.00005 26.9611 6.27728 27.2383 6.61914 27.2383V28.2383L6.45313 28.2295C5.69121 28.1519 5.08601 27.5462 5.00879 26.7843L5 26.6192C5 25.7811 5.63691 25.0921 6.45313 25.009L6.61914 25.0002H10.3809C11.275 25.0002 12 25.7251 12 26.6192L11.9912 26.7843C11.914 27.5462 11.3088 28.1519 10.5469 28.2295L10.3809 28.2383V27.2383C10.7227 27.2383 11 26.9611 11 26.6192Z" fill="#565C65"/>
</g>
<defs>
<clipPath id="clip0_2174_10109">
<rect width="40" height="40" fill="white"/>
</clipPath>
</defs>
</svg>
