<svg width="40" height="40" viewBox="0 0 40 40" fill="none" xmlns="http://www.w3.org/2000/svg">
<path d="M33.0005 21.3354C32.162 22.7847 31.0155 24.0408 29.6372 25.0004H23.7505C23.7796 25.0004 23.8086 24.9967 23.8374 24.9955C23.8913 24.9984 23.9458 25.0004 24.0005 25.0004C25.6571 25.0003 27.0003 23.657 27.0005 22.0004C27.0005 21.8226 26.9833 21.6482 26.9536 21.4789C28.2709 21.9357 29.714 22.081 31.1841 21.8393C31.8181 21.735 32.4259 21.5646 33.0005 21.3354ZM21.4849 4.14786C23.343 3.84228 25.1684 4.01816 26.8384 4.58536C22.9161 6.00353 20.4228 10.1088 21.1079 14.4379C21.3875 16.2047 22.1603 17.7646 23.2573 19.0004H18.7368C18.5053 17.8594 17.4959 17.0007 16.2866 17.0004H12.1021C11.3049 10.8553 15.443 5.14149 21.4849 4.14786Z" fill="#7292C7"/>
<path d="M33 21.3354C32.1616 22.7845 31.0158 24.0409 29.6377 25.0004H23.75C23.779 25.0004 23.8082 24.9968 23.8369 24.9955C23.8908 24.9984 23.9454 25.0004 24 25.0004C24.3396 25.0004 24.6653 24.9404 24.9697 24.8364C26.0007 24.6411 26.9619 24.2771 27.832 23.7758C27.4177 23.6987 27.0106 23.5966 26.6123 23.4721C26.858 23.0371 26.9999 22.5357 27 22.0004C27 21.8226 26.9838 21.6482 26.9541 21.4789C28.2714 21.9357 29.7145 22.081 31.1846 21.8393C31.8183 21.735 32.4257 21.5645 33 21.3354ZM21.4844 4.14789C23.3423 3.84233 25.168 4.01833 26.8379 4.58539C22.9159 6.0037 20.4234 10.109 21.1084 14.4379C21.388 16.2046 22.1608 17.7647 23.2578 19.0004H20.7539C19.9474 17.751 19.3805 16.3153 19.1328 14.7504C18.6344 11.601 19.5156 8.5387 21.335 6.21136C16.5671 7.25515 13.3301 11.956 14.1191 17.0004H12.1016C11.3045 10.8555 15.4429 5.14179 21.4844 4.14789Z" fill="#224A58"/>
<path d="M34 11.9995L34.8103 14.1892L37 14.9995L34.8103 15.8098L34 17.9995L33.1897 15.8098L31 14.9995L33.1897 14.1892L34 11.9995Z" fill="#71767A"/>
<path d="M29 7L29.8103 9.18973L32 10L29.8103 10.8103L29 13L28.1897 10.8103L26 10L28.1897 9.18973L29 7Z" fill="#71767A"/>
<path d="M24 24.0001C25.1046 24.0001 26 23.1046 26 22.0001C26 20.8955 25.1046 20.0001 24 20.0001L17.7857 20.0001C17.7857 18.8955 16.8903 18.0001 15.7857 18.0001L5 18.0001C3.89543 18.0001 3 18.8955 3 20.0001C3 21.1046 3.89543 22.0001 5 22.0001L8.75 22.0001C8.75 23.1046 9.64543 24.0001 10.75 24.0001L24 24.0001Z" fill="#DFE1E2"/>
<path d="M24 23.0001V24.0001H10.75V23.0001H24ZM25 22.0001C25 21.4478 24.5523 21.0001 24 21.0001H16.7861V20.0001C16.7861 19.4479 16.3382 19.0003 15.7861 19.0001H5C4.44772 19.0001 4 19.4478 4 20.0001C4 20.5523 4.44771 21.0001 5 21.0001V22.0001C3.89543 22.0001 3 21.1046 3 20.0001C3 18.9644 3.78722 18.1131 4.7959 18.0108L5 18.0001H15.7861C16.8905 18.0003 17.7861 18.8956 17.7861 20.0001H24C25.1046 20.0001 26 20.8955 26 22.0001L25.9893 22.2042C25.887 23.2128 25.0357 24.0001 24 24.0001V23.0001C24.5523 23.0001 25 22.5523 25 22.0001ZM8.75 22.0001H5V21.0001H9.75V22.0001C9.75 22.5523 10.1977 23.0001 10.75 23.0001V24.0001C9.64543 24.0001 8.75 23.1046 8.75 22.0001Z" fill="#565C65"/>
<path d="M20 28.0001C20 26.8955 20.8954 26.0001 22 26.0001L32 26.0001C33.1046 26.0001 34 26.8955 34 28.0001C34 29.1046 33.1046 30.0001 32 30.0001H30C30 31.1046 29.1046 32.0001 28 32.0001L15 32.0001C13.8954 32.0001 13 31.1046 13 30.0001C13 28.8955 13.8954 28.0001 15 28.0001L20 28.0001Z" fill="#DFE1E2"/>
<path d="M28 31.0001V32.0001H15V31.0001H28ZM29 30.0001V29.0001H32V30.0001H30C30 31.1046 29.1046 32.0001 28 32.0001V31.0001C28.5523 31.0001 29 30.5523 29 30.0001ZM33 28.0001C33 27.4478 32.5523 27.0001 32 27.0001H22C21.4477 27.0001 21 27.4478 21 28.0001V29.0001H15C14.4477 29.0001 14 29.4478 14 30.0001C14 30.5523 14.4477 31.0001 15 31.0001V32.0001L14.7959 31.9893C13.8543 31.8939 13.1062 31.1457 13.0107 30.2042L13 30.0001C13 28.9644 13.7872 28.1131 14.7959 28.0108L15 28.0001H20C20 26.8955 20.8954 26.0001 22 26.0001H32C33.1046 26.0001 34 26.8955 34 28.0001C34 29.1046 33.1046 30.0001 32 30.0001V29.0001C32.5523 29.0001 33 28.5523 33 28.0001Z" fill="#565C65"/>
<path d="M5 26.6192C5 25.7251 5.72487 25.0002 6.61905 25.0002L10.381 25.0002C11.2751 25.0002 12 25.7251 12 26.6192C12 27.5134 11.2751 28.2383 10.381 28.2383L6.61905 28.2383C5.72487 28.2383 5 27.5134 5 26.6192Z" fill="#DFE1E2"/>
<path d="M10.3809 27.2383V28.2383H6.61914V27.2383H10.3809ZM11 26.6192C11 26.2774 10.7228 26.0001 10.3809 26.0001H6.61914C6.27725 26.0001 6 26.2774 6 26.6192C6.00005 26.9611 6.27728 27.2383 6.61914 27.2383V28.2383L6.45313 28.2295C5.69121 28.1519 5.08601 27.5462 5.00879 26.7843L5 26.6192C5 25.7811 5.63691 25.0921 6.45313 25.009L6.61914 25.0002H10.3809C11.275 25.0002 12 25.7251 12 26.6192L11.9912 26.7843C11.914 27.5462 11.3088 28.1519 10.5469 28.2295L10.3809 28.2383V27.2383C10.7227 27.2383 11 26.9611 11 26.6192Z" fill="#565C65"/>
</svg>
