<svg width="40" height="40" viewBox="0 0 40 40" fill="none" xmlns="http://www.w3.org/2000/svg">
<g clip-path="url(#clip0_2174_10225)">
<mask id="mask0_2174_10225" style="mask-type:alpha" maskUnits="userSpaceOnUse" x="0" y="0" width="41" height="38">
<path fill-rule="evenodd" clip-rule="evenodd" d="M41 0H0V38H4V26.6201C4 26.6198 4 26.6194 4 26.619C4 26.6187 4 26.6183 4 26.6179V25H4.595C5.05356 24.461 5.73685 24.119 6.5 24.119H9.09215C8.87616 23.7997 8.75002 23.4145 8.75002 23H5.00002C4.14915 23 3.42472 22.4677 3.13576 21.7187C2.33407 21.3024 1.78615 20.4658 1.78615 19.5C1.78615 18.1193 2.90544 17 4.28615 17H16.2861C17.4955 17.0002 18.5048 17.8589 18.7363 19H23.75C23.7878 19 23.8254 19.001 23.8627 19.0031C23.9082 19.001 23.954 19 24 19C25.6569 19 27 20.3431 27 22C27 23.6523 25.6642 24.9926 24.0137 25L31 25C31.0039 25 31.0077 25 31.0115 25H41V0ZM20.9889 25C20.9926 25 20.9963 25 21 25H12.405C12.405 25 12.405 25 12.405 25H20.9889ZM23.862 24.9969C23.9033 24.9988 23.9447 24.9998 23.9863 25H23.75C23.7876 25 23.825 24.9989 23.862 24.9969Z" fill="#D9D9D9"/>
</mask>
<g mask="url(#mask0_2174_10225)">
<mask id="mask1_2174_10225" style="mask-type:alpha" maskUnits="userSpaceOnUse" x="2" y="2" width="35" height="32">
<path d="M37 33.0005H20.4824C21.5687 32.1465 22.2676 30.8217 22.2676 29.3325C22.2674 26.7554 20.1776 24.6668 17.6006 24.6665C17.1596 24.6665 16.7325 24.7279 16.3281 24.8423C15.4186 22.0322 12.78 19.9997 9.66699 19.9995C6.87047 19.9997 4.45811 21.6405 3.33691 24.0112C3.22587 24.0039 3.11291 23.9995 3 23.9995C2.65774 23.9995 2.32294 24.0336 2 24.0991V2.00049H37V33.0005Z" fill="#D9D9D9"/>
</mask>
<g mask="url(#mask1_2174_10225)">
<path d="M21.6465 5.13428C22.4281 5.00574 23.203 4.97157 23.96 5.02197C21.1137 7.16743 19.5209 10.8075 20.1201 14.5942C20.9336 19.7345 25.503 23.3308 30.5518 22.9194C29.0737 24.4329 27.1342 25.4998 24.915 25.8647C19.3296 26.7832 14.0419 22.9129 13.1338 17.1743C12.225 11.4314 16.0562 6.0538 21.6465 5.13428Z" fill="#7292C7" stroke="#224A58" stroke-width="2"/>
<path d="M34 11.9995L34.8103 14.1892L37 14.9995L34.8103 15.8098L34 17.9995L33.1897 15.8098L31 14.9995L33.1897 14.1892L34 11.9995Z" fill="#71767A"/>
<path d="M29 7L29.8103 9.18973L32 10L29.8103 10.8103L29 13L28.1897 10.8103L26 10L28.1897 9.18973L29 7Z" fill="#71767A"/>
</g>
</g>
<path d="M24 24.0001C25.1046 24.0001 26 23.1046 26 22.0001C26 20.8955 25.1046 20.0001 24 20.0001L17.7857 20.0001C17.7857 18.8955 16.8903 18.0001 15.7857 18.0001L5 18.0001C3.89543 18.0001 3 18.8955 3 20.0001C3 21.1046 3.89543 22.0001 5 22.0001L8.75 22.0001C8.75 23.1046 9.64543 24.0001 10.75 24.0001L24 24.0001Z" fill="#DFE1E2"/>
<path d="M24 23.0001V24.0001H10.75V23.0001H24ZM25 22.0001C25 21.4478 24.5523 21.0001 24 21.0001H16.7861V20.0001C16.7861 19.4479 16.3382 19.0003 15.7861 19.0001H5C4.44772 19.0001 4 19.4478 4 20.0001C4 20.5523 4.44771 21.0001 5 21.0001V22.0001C3.89543 22.0001 3 21.1046 3 20.0001C3 18.9644 3.78722 18.1131 4.7959 18.0108L5 18.0001H15.7861C16.8905 18.0003 17.7861 18.8956 17.7861 20.0001H24C25.1046 20.0001 26 20.8955 26 22.0001L25.9893 22.2042C25.887 23.2128 25.0357 24.0001 24 24.0001V23.0001C24.5523 23.0001 25 22.5523 25 22.0001ZM8.75 22.0001H5V21.0001H9.75V22.0001C9.75 22.5523 10.1977 23.0001 10.75 23.0001V24.0001C9.64543 24.0001 8.75 23.1046 8.75 22.0001Z" fill="#565C65"/>
<path d="M20 28.0001C20 26.8955 20.8954 26.0001 22 26.0001L32 26.0001C33.1046 26.0001 34 26.8955 34 28.0001C34 29.1046 33.1046 30.0001 32 30.0001H30C30 31.1046 29.1046 32.0001 28 32.0001L15 32.0001C13.8954 32.0001 13 31.1046 13 30.0001C13 28.8955 13.8954 28.0001 15 28.0001L20 28.0001Z" fill="#DFE1E2"/>
<path d="M28 31.0001V32.0001H15V31.0001H28ZM29 30.0001V29.0001H32V30.0001H30C30 31.1046 29.1046 32.0001 28 32.0001V31.0001C28.5523 31.0001 29 30.5523 29 30.0001ZM33 28.0001C33 27.4478 32.5523 27.0001 32 27.0001H22C21.4477 27.0001 21 27.4478 21 28.0001V29.0001H15C14.4477 29.0001 14 29.4478 14 30.0001C14 30.5523 14.4477 31.0001 15 31.0001V32.0001L14.7959 31.9893C13.8543 31.8939 13.1062 31.1457 13.0107 30.2042L13 30.0001C13 28.9644 13.7872 28.1131 14.7959 28.0108L15 28.0001H20C20 26.8955 20.8954 26.0001 22 26.0001H32C33.1046 26.0001 34 26.8955 34 28.0001C34 29.1046 33.1046 30.0001 32 30.0001V29.0001C32.5523 29.0001 33 28.5523 33 28.0001Z" fill="#565C65"/>
<path d="M5 26.6192C5 25.7251 5.72487 25.0002 6.61905 25.0002L10.381 25.0002C11.2751 25.0002 12 25.7251 12 26.6192C12 27.5134 11.2751 28.2383 10.381 28.2383L6.61905 28.2383C5.72487 28.2383 5 27.5134 5 26.6192Z" fill="#DFE1E2"/>
<path d="M10.3809 27.2383V28.2383H6.61914V27.2383H10.3809ZM11 26.6192C11 26.2774 10.7228 26.0001 10.3809 26.0001H6.61914C6.27725 26.0001 6 26.2774 6 26.6192C6.00005 26.9611 6.27728 27.2383 6.61914 27.2383V28.2383L6.45313 28.2295C5.69121 28.1519 5.08601 27.5462 5.00879 26.7843L5 26.6192C5 25.7811 5.63691 25.0921 6.45313 25.009L6.61914 25.0002H10.3809C11.275 25.0002 12 25.7251 12 26.6192L11.9912 26.7843C11.914 27.5462 11.3088 28.1519 10.5469 28.2295L10.3809 28.2383V27.2383C10.7227 27.2383 11 26.9611 11 26.6192Z" fill="#565C65"/>
</g>
<defs>
<clipPath id="clip0_2174_10225">
<rect width="40" height="40" fill="white"/>
</clipPath>
</defs>
</svg>
