<svg width="24" height="24" viewBox="0 0 24 24" fill="none" xmlns="http://www.w3.org/2000/svg">
<path d="M12.0918 2.06552C12.8933 1.93107 13.681 2.00824 14.4014 2.2579C12.7094 2.88217 11.6334 4.68921 11.9287 6.59482C12.2616 8.74123 14.2078 10.2004 16.2754 9.85361C16.5489 9.8077 16.8117 9.73284 17.0596 9.63193C16.9598 9.80784 16.8477 9.97571 16.7285 10.1378L14.0781 10.1388C13.5303 9.36776 12.6304 8.86453 11.6123 8.86435H8.31836C8.20302 8.54831 8.11628 8.21505 8.0625 7.86826C7.63477 5.10858 9.43894 2.51073 12.0918 2.06552Z" fill="#7292C7"/>
<path d="M12.0918 2.06564C12.8933 1.9312 13.681 2.00837 14.4014 2.25803C12.7095 2.88228 11.6334 4.68936 11.9287 6.59494C12.2617 8.74119 14.2079 10.2004 16.2754 9.85373C16.5489 9.80782 16.8117 9.73295 17.0596 9.63205C16.9598 9.80797 16.8478 9.97584 16.7285 10.1379L14.0781 10.1389C13.5352 9.37476 12.6466 8.87353 11.6396 8.86447C11.2253 8.25478 10.934 7.54537 10.8135 6.76877C10.6295 5.58258 10.8635 4.41739 11.4092 3.44162C9.87882 4.12483 8.8901 5.83951 9.17773 7.69553C9.24303 8.11643 9.3689 8.5082 9.54297 8.86447H8.31934C8.23268 8.62707 8.16183 8.38037 8.10938 8.12521L8.0625 7.86935C7.64786 5.19564 9.32815 2.67314 11.8457 2.11349L12.0918 2.06564Z" fill="#224A58"/>
<path d="M16.9277 2.92755L17.4679 4.38737L18.9277 4.92755L17.4679 5.46773L16.9277 6.92755L16.3876 5.46773L14.9277 4.92755L16.3876 4.38737L16.9277 2.92755Z" fill="#71767A"/>
<path d="M11.3691 10.55C12.1435 10.55 12.7997 11.0532 13.0303 11.7502H16.2979C17.2644 11.7502 18.0479 12.5337 18.0479 13.5002C18.0478 14.4667 17.2643 15.2502 16.2979 15.2502H7.94824C7.17404 15.2502 6.51879 14.7468 6.28809 14.05H4.49805C3.53155 14.05 2.74805 13.2665 2.74805 12.3C2.74805 11.3335 3.53155 10.55 4.49805 10.55H11.3691Z" fill="#DFE1E2" stroke="#565C65" stroke-width="1.5"/>
<path d="M19.3994 16.7048C20.3659 16.7048 21.1494 17.4883 21.1494 18.4548C21.1494 19.4213 20.3659 20.2048 19.3994 20.2048H18.6602C18.4295 20.9016 17.7741 21.4049 17 21.405H8.7998C7.83337 21.405 7.04991 20.6214 7.0498 19.655C7.0498 18.6885 7.8333 17.905 8.7998 17.905H11.3389C11.5695 17.208 12.2257 16.7048 13 16.7048H19.3994Z" fill="#DFE1E2" stroke="#565C65" stroke-width="1.5"/>
</svg>
