<svg width="24" height="24" viewBox="0 0 24 24" fill="none" xmlns="http://www.w3.org/2000/svg">
<path d="M12.0918 2.06558C12.8934 1.93107 13.681 2.00828 14.4014 2.25797C12.7094 2.88225 11.6343 4.68921 11.9297 6.59488C12.2626 8.74142 14.2086 10.2007 16.2764 9.85367C16.5498 9.80776 16.8118 9.73189 17.0596 9.63101C16.9598 9.80703 16.8478 9.97568 16.7285 10.1378L14.0781 10.1388C13.5303 9.36779 12.6305 8.86455 11.6123 8.86441H8.31836C8.20302 8.54838 8.11726 8.2151 8.06348 7.86832C7.63565 5.10859 9.43889 2.5108 12.0918 2.06558Z" fill="#374274"/>
<path d="M12.0918 2.0657C12.8933 1.93123 13.681 2.00843 14.4014 2.25809C12.7096 2.88242 11.6334 4.68951 11.9287 6.595C12.2617 8.74118 14.2079 10.2004 16.2754 9.85379C16.5488 9.8079 16.8118 9.73297 17.0596 9.63211C16.9599 9.80787 16.8486 9.97604 16.7295 10.138L14.0781 10.1389C13.5352 9.37474 12.6467 8.87349 11.6396 8.86453C11.2254 8.25487 10.934 7.54538 10.8135 6.76883C10.6295 5.58271 10.8636 4.41741 11.4092 3.44168C9.87895 4.12496 8.89012 5.83967 9.17773 7.69559C9.24303 8.11646 9.36892 8.50828 9.54297 8.86453H8.32031C8.23361 8.62704 8.16185 8.38053 8.10938 8.12527L8.0625 7.86942C7.64787 5.19578 9.32828 2.6733 11.8457 2.11356L12.0918 2.0657Z" fill="#DFE1E2"/>
<path d="M16.9277 2.92755L17.4679 4.38737L18.9277 4.92755L17.4679 5.46773L16.9277 6.92755L16.3876 5.46773L14.9277 4.92755L16.3876 4.38737L16.9277 2.92755Z" fill="#A9AEB1"/>
<path d="M11.3691 10.55C12.1435 10.55 12.7997 11.0532 13.0303 11.7502H16.2979C17.2644 11.7502 18.0479 12.5337 18.0479 13.5002C18.0478 14.4667 17.2643 15.2502 16.2979 15.2502H7.94824C7.17404 15.2502 6.51879 14.7468 6.28809 14.05H4.49805C3.53155 14.05 2.74805 13.2665 2.74805 12.3C2.74805 11.3335 3.53155 10.55 4.49805 10.55H11.3691Z" fill="#FAF3D1" stroke="#8D9297" stroke-width="1.5"/>
<path d="M19.3994 16.7048C20.3659 16.7048 21.1494 17.4883 21.1494 18.4548C21.1494 19.4213 20.3659 20.2048 19.3994 20.2048H18.6602C18.4295 20.9016 17.7741 21.4049 17 21.405H8.7998C7.83337 21.405 7.04991 20.6214 7.0498 19.655C7.0498 18.6885 7.8333 17.905 8.7998 17.905H11.3389C11.5695 17.208 12.2257 16.7048 13 16.7048H19.3994Z" fill="#FAF3D1" stroke="#8D9297" stroke-width="1.5"/>
</svg>
