<svg width="40" height="40" viewBox="0 0 40 40" fill="none" xmlns="http://www.w3.org/2000/svg">
<path d="M21 24.9995C20.9935 24.9995 20.987 25.0004 20.9805 25.0005H12.4033L12.4023 24.9995H21ZM20 10.0005C25.5228 10.0005 30 14.4776 30 20.0005C29.9999 21.8221 29.5103 23.5286 28.6592 24.9995H24.0391C25.6777 24.9786 26.9997 23.6441 27 22.0005C27 20.3436 25.6568 19.0005 24 19.0005C23.9453 19.0005 23.8909 19.0005 23.8369 19.0034C23.8081 19.0022 23.7791 18.9995 23.75 18.9995H18.7363C18.5046 17.8587 17.4953 16.9997 16.2861 16.9995H10.458C11.7324 12.9427 15.5225 10.0005 20 10.0005ZM23.832 24.9946C23.8748 24.997 23.9177 24.999 23.9609 24.9995H23.75C23.7775 24.9995 23.8048 24.9957 23.832 24.9946Z" fill="#DDAA01"/>
<path d="M13.7568 24.9995L13.7578 25.0005H12.4033L12.4023 24.9995H13.7568ZM20 9.99951C25.5228 9.99951 30 14.4776 30 20.0005C29.9999 21.8221 29.5103 23.5286 28.6592 24.9995H26.2432C27.3414 23.6299 27.9999 21.8926 28 20.0005C28 15.5822 24.4183 12.0005 20 12.0005C16.6431 12.0005 13.7711 14.0684 12.584 16.9995H10.458C11.7324 12.9427 15.5225 9.99951 20 9.99951Z" fill="#947100"/>
<path d="M37.1025 19.0044C37.6067 19.0557 38 19.4818 38 19.9995L37.9951 20.1021C37.9472 20.5725 37.573 20.9467 37.1025 20.9946L37 20.9995H31.959C31.9862 20.6698 32 20.3363 32 19.9995C32 19.6628 31.9862 19.3292 31.959 18.9995H37L37.1025 19.0044ZM4.41113 10.9995C4.6872 10.5214 5.29911 10.3575 5.77734 10.6333L10.1426 13.1538C9.76292 13.6995 9.42779 14.2787 9.1416 14.8853L4.77734 12.3657C4.29933 12.0896 4.13525 11.4777 4.41113 10.9995ZM34.2227 10.6333C34.7009 10.3572 35.3127 10.5213 35.5889 10.9995C35.8649 11.4778 35.7009 12.0896 35.2227 12.3657L30.8584 14.8853C30.5722 14.2787 30.2371 13.6995 29.8574 13.1538L34.2227 10.6333ZM11 4.41064C11.4782 4.13457 12.09 4.29884 12.3662 4.77686L14.8857 9.14111C14.2792 9.42731 13.7 9.76242 13.1543 10.1421L10.6348 5.77686C10.3587 5.29864 10.5219 4.68682 11 4.41064ZM27.6338 4.77686C27.9098 4.29877 28.5218 4.13493 29 4.41064C29.4782 4.68675 29.6422 5.29859 29.3662 5.77686L26.8457 10.1421C26.3001 9.76248 25.7207 9.42727 25.1143 9.14111L27.6338 4.77686ZM20 1.99951C20.5523 1.99951 21 2.44723 21 2.99951V8.04053C20.6703 8.01334 20.3367 7.99951 20 7.99951C19.6633 7.99952 19.3297 8.01333 19 8.04053V2.99951C19 2.4473 19.4478 1.99962 20 1.99951Z" fill="#947100"/>
<path d="M24 24.0001C25.1046 24.0001 26 23.1046 26 22.0001C26 20.8955 25.1046 20.0001 24 20.0001L17.7857 20.0001C17.7857 18.8955 16.8903 18.0001 15.7857 18.0001L5 18.0001C3.89543 18.0001 3 18.8955 3 20.0001C3 21.1046 3.89543 22.0001 5 22.0001L8.75 22.0001C8.75 23.1046 9.64543 24.0001 10.75 24.0001L24 24.0001Z" fill="#F1F3F6"/>
<path d="M24 23.0001V24.0001H10.75V23.0001H24ZM25 22.0001C25 21.4478 24.5523 21.0001 24 21.0001H16.7861V20.0001C16.7861 19.4479 16.3382 19.0003 15.7861 19.0001H5C4.44772 19.0001 4 19.4478 4 20.0001C4 20.5523 4.44771 21.0001 5 21.0001V22.0001C3.89543 22.0001 3 21.1046 3 20.0001C3 18.9644 3.78722 18.1131 4.7959 18.0108L5 18.0001H15.7861C16.8905 18.0003 17.7861 18.8956 17.7861 20.0001H24C25.1046 20.0001 26 20.8955 26 22.0001L25.9893 22.2042C25.887 23.2128 25.0357 24.0001 24 24.0001V23.0001C24.5523 23.0001 25 22.5523 25 22.0001ZM8.75 22.0001H5V21.0001H9.75V22.0001C9.75 22.5523 10.1977 23.0001 10.75 23.0001V24.0001C9.64543 24.0001 8.75 23.1046 8.75 22.0001Z" fill="#8D9297"/>
<path d="M20 28.0001C20 26.8955 20.8954 26.0001 22 26.0001L32 26.0001C33.1046 26.0001 34 26.8955 34 28.0001C34 29.1046 33.1046 30.0001 32 30.0001H30C30 31.1046 29.1046 32.0001 28 32.0001L15 32.0001C13.8954 32.0001 13 31.1046 13 30.0001C13 28.8955 13.8954 28.0001 15 28.0001L20 28.0001Z" fill="#F1F3F6"/>
<path d="M28 31.0001V32.0001H15V31.0001H28ZM29 30.0001V29.0001H32V30.0001H30C30 31.1046 29.1046 32.0001 28 32.0001V31.0001C28.5523 31.0001 29 30.5523 29 30.0001ZM33 28.0001C33 27.4478 32.5523 27.0001 32 27.0001H22C21.4477 27.0001 21 27.4478 21 28.0001V29.0001H15C14.4477 29.0001 14 29.4478 14 30.0001C14 30.5523 14.4477 31.0001 15 31.0001V32.0001L14.7959 31.9893C13.8543 31.8939 13.1062 31.1457 13.0107 30.2042L13 30.0001C13 28.9644 13.7872 28.1131 14.7959 28.0108L15 28.0001H20C20 26.8955 20.8954 26.0001 22 26.0001H32C33.1046 26.0001 34 26.8955 34 28.0001C34 29.1046 33.1046 30.0001 32 30.0001V29.0001C32.5523 29.0001 33 28.5523 33 28.0001Z" fill="#8D9297"/>
<path d="M5 26.6192C5 25.7251 5.72487 25.0002 6.61905 25.0002L10.381 25.0002C11.2751 25.0002 12 25.7251 12 26.6192C12 27.5134 11.2751 28.2383 10.381 28.2383L6.61905 28.2383C5.72487 28.2383 5 27.5134 5 26.6192Z" fill="#F1F3F6"/>
<path d="M10.3809 27.2383V28.2383H6.61914V27.2383H10.3809ZM11 26.6192C11 26.2774 10.7228 26.0001 10.3809 26.0001H6.61914C6.27725 26.0001 6 26.2774 6 26.6192C6.00005 26.9611 6.27728 27.2383 6.61914 27.2383V28.2383L6.45313 28.2295C5.69121 28.1519 5.08601 27.5462 5.00879 26.7843L5 26.6192C5 25.7811 5.63691 25.0921 6.45313 25.009L6.61914 25.0002H10.3809C11.275 25.0002 12 25.7251 12 26.6192L11.9912 26.7843C11.914 27.5462 11.3088 28.1519 10.5469 28.2295L10.3809 28.2383V27.2383C10.7227 27.2383 11 26.9611 11 26.6192Z" fill="#8D9297"/>
</svg>
