<svg width="40" height="40" viewBox="0 0 40 40" fill="none" xmlns="http://www.w3.org/2000/svg">
<path d="M33.0005 21.3354C32.162 22.7847 31.0155 24.0408 29.6372 25.0004H23.7505C23.7796 25.0004 23.8086 24.9967 23.8374 24.9955C23.8913 24.9984 23.9458 25.0004 24.0005 25.0004C25.6571 25.0003 27.0003 23.657 27.0005 22.0004C27.0005 21.8226 26.9833 21.6482 26.9536 21.4789C28.2709 21.9357 29.714 22.081 31.1841 21.8393C31.8181 21.735 32.4259 21.5646 33.0005 21.3354ZM21.4849 4.14786C23.343 3.84228 25.1684 4.01816 26.8384 4.58536C22.9161 6.00353 20.4228 10.1088 21.1079 14.4379C21.3875 16.2047 22.1603 17.7646 23.2573 19.0004H18.7368C18.5053 17.8594 17.4959 17.0007 16.2866 17.0004H12.1021C11.3049 10.8553 15.443 5.14149 21.4849 4.14786Z" fill="#374274"/>
<path d="M33.0005 21.3354C32.1622 22.7844 31.0162 24.041 29.6382 25.0005H26.3296C27.3935 24.6448 28.3681 24.1117 29.2261 23.4389C28.399 23.3946 27.593 23.2472 26.8208 23.0112C26.9342 22.695 27.0004 22.3557 27.0005 22.0005C27.0005 21.8223 26.9834 21.6476 26.9536 21.478C28.2712 21.935 29.7146 22.0812 31.1851 21.8393C31.8188 21.735 32.4261 21.5646 33.0005 21.3354ZM21.4849 4.14792C23.3429 3.84237 25.1685 4.01826 26.8384 4.58542C22.9162 6.00362 20.4238 10.1089 21.1089 14.438C21.3885 16.2048 22.1612 17.7647 23.2583 19.0005H21.355C20.4888 17.7467 19.8811 16.2816 19.6265 14.6723C19.0753 11.1892 20.2916 7.82074 22.6157 5.5239C22.3216 5.54482 22.025 5.57954 21.728 5.62839C16.4484 6.49693 12.8049 11.557 13.6147 17.0005H12.1021C11.3049 10.8554 15.4431 5.14163 21.4849 4.14792Z" fill="#DFE1E2"/>
<path d="M34 11.9995L34.8103 14.1892L37 14.9995L34.8103 15.8098L34 17.9995L33.1897 15.8098L31 14.9995L33.1897 14.1892L34 11.9995Z" fill="#A9AEB1"/>
<path d="M29 7L29.8103 9.18973L32 10L29.8103 10.8103L29 13L28.1897 10.8103L26 10L28.1897 9.18973L29 7Z" fill="#A9AEB1"/>
<path d="M10.75 24.0001C9.64543 24.0001 8.75 23.1046 8.75 22.0001L5 22.0001C3.89543 22.0001 3 21.1046 3 20.0001C3 18.8955 3.89543 18.0001 5 18.0001L15.7861 18.0001C16.8905 18.0003 17.7861 18.8956 17.7861 20.0001L24 20.0001C25.1046 20.0001 26 20.8955 26 22.0001C26 23.1046 25.1046 24.0001 24 24.0001L10.75 24.0001Z" fill="#FAF3D1"/>
<path d="M17.7861 20.0001L24 20.0001L24 21.0001L16.7861 21.0001L16.7861 20.0001C16.7861 19.4482 16.3385 19.0003 15.7861 19.0001L15.7861 18.0001C16.8905 18.0003 17.7861 18.8956 17.7861 20.0001ZM5 19.0001L5 18.0001L15.7861 18.0001L15.7861 19.0001L5 19.0001ZM4 20.0001C4 20.5177 4.39333 20.9438 4.89746 20.9952L5 21.0001L9.75 21.0001L9.75 22.0001C9.75 22.5523 10.1977 23.0001 10.75 23.0001L24 23.0001C24.5523 23.0001 25 22.5523 25 22.0001C25 21.4478 24.5523 21.0001 24 21.0001L24 20.0001C25.1046 20.0001 26 20.8955 26 22.0001C26 23.1046 25.1046 24.0001 24 24.0001L10.75 24.0001C9.64543 24.0001 8.75 23.1046 8.75 22.0001L5 22.0001C3.89543 22.0001 3 21.1046 3 20.0001C3 18.9644 3.78722 18.1131 4.7959 18.0108L5 18.0001L5 19.0001C4.44771 19.0001 4 19.4478 4 20.0001Z" fill="#8D9297"/>
<path d="M20 28.0001C20 26.8955 20.8954 26.0001 22 26.0001L32 26.0001C33.1046 26.0001 34 26.8955 34 28.0001C34 29.1046 33.1046 30.0001 32 30.0001H30C30 31.1046 29.1046 32.0001 28 32.0001L15 32.0001C13.8954 32.0001 13 31.1046 13 30.0001C13 28.8955 13.8954 28.0001 15 28.0001L20 28.0001Z" fill="#FAF3D1"/>
<path d="M28 31.0001V32.0001H15V31.0001H28ZM29 30.0001V29.0001H32V30.0001H30C30 31.1046 29.1046 32.0001 28 32.0001V31.0001C28.5523 31.0001 29 30.5523 29 30.0001ZM33 28.0001C33 27.4478 32.5523 27.0001 32 27.0001H22C21.4477 27.0001 21 27.4478 21 28.0001V29.0001H15C14.4477 29.0001 14 29.4478 14 30.0001C14 30.5523 14.4477 31.0001 15 31.0001V32.0001L14.7959 31.9893C13.8543 31.8939 13.1062 31.1457 13.0107 30.2042L13 30.0001C13 28.9644 13.7872 28.1131 14.7959 28.0108L15 28.0001H20C20 26.8955 20.8954 26.0001 22 26.0001H32C33.1046 26.0001 34 26.8955 34 28.0001C34 29.1046 33.1046 30.0001 32 30.0001V29.0001C32.5523 29.0001 33 28.5523 33 28.0001Z" fill="#8D9297"/>
<path d="M5 26.6192C5 25.7251 5.72487 25.0002 6.61905 25.0002L10.381 25.0002C11.2751 25.0002 12 25.7251 12 26.6192C12 27.5134 11.2751 28.2383 10.381 28.2383L6.61905 28.2383C5.72487 28.2383 5 27.5134 5 26.6192Z" fill="#FAF3D1"/>
<path d="M10.3809 27.2383V28.2383H6.61914V27.2383H10.3809ZM11 26.6192C11 26.2774 10.7228 26.0001 10.3809 26.0001H6.61914C6.27725 26.0001 6 26.2774 6 26.6192C6.00005 26.9611 6.27728 27.2383 6.61914 27.2383V28.2383L6.45313 28.2295C5.69121 28.1519 5.08601 27.5462 5.00879 26.7843L5 26.6192C5 25.7811 5.63691 25.0921 6.45313 25.009L6.61914 25.0002H10.3809C11.275 25.0002 12 25.7251 12 26.6192L11.9912 26.7843C11.914 27.5462 11.3088 28.1519 10.5469 28.2295L10.3809 28.2383V27.2383C10.7227 27.2383 11 26.9611 11 26.6192Z" fill="#8D9297"/>
</svg>
