<?xml version="1.0" encoding="utf-8"?>
<!-- Generator: Adobe Illustrator 19.0.0, SVG Export Plug-In . SVG Version: 6.00 Build 0)  -->
<svg version="1.1" id="Layer_1" xmlns="http://www.w3.org/2000/svg" xmlns:xlink="http://www.w3.org/1999/xlink" x="0px" y="0px"
   viewBox="0 0 50 50" style="enable-background:new 0 0 50 50;" xml:space="preserve"  width="50" height="50">
<style type="text/css">
  .st0{fill:#FFFFFF;}
</style>
<path id="XMLID_43_" class="st0" d="M20.9,13.5h-0.4l-0.2-0.1c-0.2-0.1-0.4-0.3-0.6-0.6c-0.2-0.3-0.2-0.7-0.1-1l2.2-6
  c0.2-0.4,0.5-0.6,0.8-0.7c0.3-0.1,0.6-0.1,0.8,0C24,5.3,24.2,5.6,24.3,6c0.1,0.3,0.1,0.6,0,0.8l-2.1,6
  C21.9,13.3,21.4,13.5,20.9,13.5z M32.4,14.6c0.5-0.3,0.8-1,0.6-1.6l0-0.1c-0.3-0.5-1-0.8-1.6-0.6l-5.6,3.3c-0.5,0.3-0.8,1-0.6,1.6
  l0,0.1c0.3,0.6,0.8,0.6,1.1,0.6h0.3L32.4,14.6z M14.5,13.5c0.5-0.3,0.9-1,0.7-1.5L13,5.8c-0.1-0.2-0.3-0.4-0.6-0.6
  c-0.3-0.2-0.7-0.2-1-0.1c-0.2,0.1-0.4,0.3-0.6,0.6c-0.2,0.3-0.2,0.7-0.1,0.9l2.2,6.1c0.2,0.4,0.7,0.7,1.2,0.7h0.3L14.5,13.5z
   M9.2,17.9c0.2-0.1,0.5-0.2,0.7-0.6l0,0c0.3-0.6,0.1-1.3-0.5-1.7l-5.6-3.2c-0.6-0.3-1.3-0.1-1.7,0.5c-0.3,0.6-0.1,1.3,0.5,1.7
  l5.5,3.2l0.5,0.3L9.2,17.9z M7.8,24.7c0.5,0,1.1-0.5,1.1-1.3c0-0.5-0.4-1.1-1.3-1.1l-6.3,1.1c-0.5,0-1.1,0.5-1.1,1.3v0.2L0.2,25
  c0.2,0.5,0.7,0.8,1.2,0.8l0.1,0L7.8,24.7z M7.8,35.2l4.2-4.8c0.5-0.5,0.4-1.2-0.1-1.7c-0.3-0.3-0.7-0.4-1-0.4
  c-0.3,0-0.5,0.2-0.7,0.4l-4.1,4.8c-0.5,0.5-0.4,1.2,0.1,1.7c0.3,0.3,0.7,0.3,0.8,0.3C7.1,35.5,7.5,35.5,7.8,35.2z M13.9,28.1
  l0.3,0.7c0.3-0.1,0.5-0.4,0.6-0.5l0,0c0.3-0.5,0.2-1.2-0.2-1.5l-0.1-0.1c-1.6-1-2.5-2.7-2.5-4.8c0-3.2,2.5-5.8,5.7-5.8
  c2,0,3.8,1.1,4.9,2.9c0.3,0.5,1,0.8,1.6,0.6l0.1,0c0.5-0.3,0.8-1,0.6-1.6l-0.1-0.1c-1.4-2.5-4.2-4.1-7-4.1c-4.4,0-8.1,3.7-8.1,8.3
  c0,2.8,1.3,5.3,3.6,6.8c0,0,0.1,0.1,0.1,0.1l0.4,0.2l0.5-0.1L13.9,28.1z M42.9,20.3c0-0.7-0.5-1.2-1.2-1.2h-8.8
  c-0.7,0-1.2,0.5-1.2,1.2s0.5,1.2,1.2,1.2h8.8C42.3,21.5,42.9,21,42.9,20.3z M40,32c0-0.7-0.5-1.2-1.2-1.2H17.9
  c-0.7,0-1.2,0.5-1.2,1.2c0,0.7,0.5,1.2,1.2,1.2h21C39.5,33.2,40,32.7,40,32z M47.5,32c0-0.7-0.5-1.2-1.2-1.2h-3.2
  c-0.7,0-1.2,0.5-1.2,1.2c0,0.7,0.5,1.2,1.2,1.2h3.2C46.9,33.2,47.5,32.7,47.5,32z M37.2,44.9c0.6-0.2,1-0.7,1-1.2
  c0-0.7-0.5-1.2-1.2-1.2H26.1c-0.7,0-1.2,0.5-1.2,1.2s0.5,1.2,1.2,1.2h11L37.2,44.9z M49.9,37.8c0-0.7-0.5-1.2-1.2-1.2h-18
  c-0.7,0-1.2,0.5-1.2,1.2c0,0.7,0.5,1.2,1.2,1.2h18C49.4,39.1,49.9,38.4,49.9,37.8z M27.3,37.8c0-0.7-0.5-1.2-1.2-1.2h-7.2
  c-0.7,0-1.2,0.5-1.2,1.2c0,0.7,0.5,1.2,1.2,1.2h7.2C26.8,39.1,27.3,38.4,27.3,37.8z M49.9,26.2c0-0.7-0.5-1.2-1.2-1.2H36.2
  c-0.7,0-1.2,0.5-1.2,1.2c0,0.7,0.5,1.2,1.2,1.2h12.5C49.4,27.4,49.9,26.9,49.9,26.2z M32.6,26.2c0-0.7-0.5-1.2-1.2-1.2h-8.5
  c-0.7,0-1.2,0.5-1.2,1.2c0,0.7,0.5,1.2,1.2,1.2h8.4C32,27.4,32.6,26.8,32.6,26.2z"/>
</svg>
