<svg width="24" height="24" viewBox="0 0 24 24" fill="none" xmlns="http://www.w3.org/2000/svg">
<g clip-path="url(#clip0_2177_2367)">
<mask id="mask0_2177_2367" style="mask-type:alpha" maskUnits="userSpaceOnUse" x="1" y="0" width="25" height="23">
<path fill-rule="evenodd" clip-rule="evenodd" d="M1 0H25.6V15H19.4996C19.89 14.4906 20.1221 13.8534 20.1221 13.1621C20.122 11.492 18.7677 10.1377 17.0977 10.1377L14.0781 10.1387C13.5303 9.36764 12.6305 8.8644 11.6123 8.86426H3.2334C2.34894 8.86426 1.55307 9.24406 1 9.84943V0ZM3.75742 15C3.78326 14.9697 3.8103 14.9403 3.83845 14.9121H3.2334C2.34894 14.9121 1.55307 14.5325 1 13.9273V22.8H3.4V15H3.75742Z" fill="#D9D9D9"/>
</mask>
<g mask="url(#mask0_2177_2367)">
<path d="M12.8193 2.56641C11.7161 3.55674 11.1249 5.09398 11.3711 6.68164C11.7124 8.88275 13.5579 10.4747 15.6768 10.4678C15.0913 10.997 14.3638 11.366 13.5479 11.5029C11.2248 11.8927 9.00306 10.2516 8.62012 7.78223C8.23647 5.30832 9.8556 3.01316 12.1846 2.62207C12.3977 2.5863 12.61 2.56912 12.8193 2.56641Z" fill="#7292C7" stroke="#224A58" stroke-width="1.12869"/>
<path d="M16.9275 2.92755L17.4677 4.38737L18.9275 4.92755L17.4677 5.46773L16.9275 6.92755L16.3873 5.46773L14.9275 4.92755L16.3873 4.38737L16.9275 2.92755Z" fill="#8D9297"/>
</g>
<path d="M11.3694 10.55C12.1437 10.55 12.7999 11.0532 13.0305 11.7502H16.2981C17.2646 11.7502 18.0481 12.5337 18.0481 13.5002C18.048 14.4666 17.2646 15.2502 16.2981 15.2502H7.94849C7.17428 15.2502 6.51903 14.7468 6.28833 14.05H4.49829C3.53179 14.05 2.74829 13.2665 2.74829 12.3C2.74829 11.3335 3.53179 10.55 4.49829 10.55H11.3694Z" fill="#DFE1E2" stroke="#565C65" stroke-width="1.5"/>
<path d="M19.3999 16.7048C20.3664 16.7048 21.1499 17.4883 21.1499 18.4548C21.1499 19.4213 20.3664 20.2048 19.3999 20.2048H18.6606C18.43 20.9016 17.7746 21.4049 17.0005 21.405H8.80029C7.83386 21.405 7.0504 20.6214 7.05029 19.655C7.05029 18.6885 7.83379 17.905 8.80029 17.905H11.3394C11.57 17.208 12.2262 16.7048 13.0005 16.7048H19.3999Z" fill="#DFE1E2" stroke="#565C65" stroke-width="1.5"/>
</g>
<defs>
<clipPath id="clip0_2177_2367">
<rect width="24" height="24" fill="white"/>
</clipPath>
</defs>
</svg>
