<svg width="24" height="24" viewBox="0 0 24 24" fill="none" xmlns="http://www.w3.org/2000/svg">
<g clip-path="url(#clip0_2174_10162)">
<mask id="mask0_2174_10162" style="mask-type:alpha" maskUnits="userSpaceOnUse" x="1" y="0" width="25" height="23">
<path fill-rule="evenodd" clip-rule="evenodd" d="M1 0H25.6V15H19.4997C19.8901 14.4906 20.1221 13.8534 20.1221 13.1621C20.122 11.492 18.7677 10.1377 17.0977 10.1377L14.0781 10.1387C13.5303 9.36764 12.6305 8.8644 11.6123 8.86426H3.2334C2.34894 8.86426 1.55307 9.24406 1 9.84943V0ZM3.75746 15C3.78329 14.9696 3.81031 14.9403 3.83845 14.9121H3.2334C2.34894 14.9121 1.55307 14.5325 1 13.9273V22.8H1.1999V15H3.75746Z" fill="#D9D9D9"/>
</mask>
<g mask="url(#mask0_2174_10162)">
<circle cx="12" cy="11.8004" r="5.25" fill="#DDAA01" stroke="#947100" stroke-width="1.5"/>
<mask id="path-3-inside-1_2174_10162" fill="white">
<path d="M11.95 1C12.3642 1 12.7 1.33579 12.7 1.75V4.78859C12.4535 4.76308 12.2033 4.75 11.95 4.75C11.6967 4.75 11.4465 4.76308 11.2 4.78859V1.75C11.2 1.33579 11.5358 1 11.95 1Z"/>
<path d="M9.01843 5.37188L7.49981 2.74155C7.29271 2.38283 6.83401 2.25993 6.47529 2.46703C6.11657 2.67414 5.99367 3.13283 6.20077 3.49155L7.72001 6.12295C8.12323 5.82973 8.55807 5.57735 9.01843 5.37188Z"/>
<path d="M6.12305 7.71986L3.49141 6.20048C3.13269 5.99337 2.67399 6.11628 2.46689 6.475C2.25978 6.83372 2.38269 7.29241 2.74141 7.49952L5.37195 9.01826C5.57744 8.55791 5.82983 8.12308 6.12305 7.71986Z"/>
<path d="M4.78859 11.2H1.75C1.33579 11.2 1 11.5358 1 11.95C1 12.3642 1.33579 12.7 1.75 12.7H4.78859C4.76308 12.4535 4.75 12.2033 4.75 11.95C4.75 11.6967 4.76308 11.4465 4.78859 11.2Z"/>
<path d="M5.37201 14.8819L2.74168 16.4005C2.38296 16.6076 2.26005 17.0663 2.46716 17.425C2.67426 17.7837 3.13296 17.9066 3.49168 17.6995L6.12313 16.1802C5.8299 15.777 5.5775 15.3422 5.37201 14.8819Z"/>
<path d="M7.71982 17.7769L6.20048 20.4085C5.99338 20.7672 6.11628 21.2259 6.475 21.433C6.83372 21.6401 7.29241 21.5172 7.49952 21.1585L9.01821 18.528C8.55785 18.3225 8.12303 18.0701 7.71982 17.7769Z"/>
<path d="M11.2 19.1114V22.15C11.2 22.5642 11.5358 22.9 11.95 22.9C12.3642 22.9 12.7 22.5642 12.7 22.15V19.1114C12.4535 19.1369 12.2033 19.15 11.95 19.15C11.6967 19.15 11.4465 19.1369 11.2 19.1114Z"/>
<path d="M14.882 18.5279L16.4008 21.1585C16.6079 21.5172 17.0666 21.6401 17.4253 21.433C17.784 21.2259 17.9069 20.7672 17.6998 20.4085L16.1804 17.7768C15.7772 18.07 15.3424 18.3224 14.882 18.5279Z"/>
<path d="M17.7769 16.1802L20.4083 17.6995C20.767 17.9066 21.2257 17.7837 21.4328 17.425C21.6399 17.0663 21.517 16.6076 21.1583 16.4005L18.528 14.8819C18.3225 15.3422 18.0701 15.777 17.7769 16.1802Z"/>
<path d="M19.1114 12.7H22.15C22.5642 12.7 22.9 12.3642 22.9 11.95C22.9 11.5358 22.5642 11.2 22.15 11.2H19.1114C19.1369 11.4465 19.15 11.6967 19.15 11.95C19.15 12.2033 19.1369 12.4535 19.1114 12.7Z"/>
<path d="M18.528 9.01826L21.1586 7.49952C21.5173 7.29241 21.6402 6.83372 21.4331 6.475C21.226 6.11628 20.7673 5.99337 20.4086 6.20048L17.7769 7.71986C18.0702 8.12308 18.3226 8.55791 18.528 9.01826Z"/>
<path d="M16.1802 6.1231L17.6995 3.49155C17.9066 3.13283 17.7837 2.67414 17.425 2.46703C17.0663 2.25993 16.6076 2.38283 16.4005 2.74155L14.8818 5.37198C15.3422 5.57747 15.777 5.82987 16.1802 6.1231Z"/>
</mask>
<path d="M12.7 4.78859L12.5456 6.28062L14.2 6.45186V4.78859H12.7ZM11.2 4.78859H9.7V6.45186L11.3544 6.28062L11.2 4.78859ZM9.01843 5.37188L9.62979 6.74163L11.1497 6.06327L10.3175 4.62188L9.01843 5.37188ZM7.49981 2.74155L6.20077 3.49155L6.20077 3.49155L7.49981 2.74155ZM6.47529 2.46703L5.72529 1.168L5.72529 1.168L6.47529 2.46703ZM6.20077 3.49155L7.49981 2.74155L7.49981 2.74155L6.20077 3.49155ZM7.72001 6.12295L6.42097 6.87295L7.25428 8.31628L8.60219 7.33611L7.72001 6.12295ZM6.12305 7.71986L7.33619 8.60208L8.31642 7.25415L6.87305 6.42083L6.12305 7.71986ZM3.49141 6.20048L2.74141 7.49952L2.74141 7.49952L3.49141 6.20048ZM2.46689 6.475L1.16785 5.725L1.16785 5.725L2.46689 6.475ZM2.74141 7.49952L3.49141 6.20048L3.49141 6.20048L2.74141 7.49952ZM5.37195 9.01826L4.62195 10.3173L6.06331 11.1495L6.74169 9.62966L5.37195 9.01826ZM4.78859 11.2L6.28062 11.3544L6.45186 9.7H4.78859V11.2ZM4.78859 12.7V14.2H6.45186L6.28062 12.5456L4.78859 12.7ZM5.37201 14.8819L6.74174 14.2704L6.06334 12.7507L4.62201 13.5828L5.37201 14.8819ZM2.74168 16.4005L3.49168 17.6995L2.74168 16.4005ZM2.46716 17.425L3.7662 16.675L3.7662 16.675L2.46716 17.425ZM3.49168 17.6995L2.74168 16.4005L2.74167 16.4005L3.49168 17.6995ZM6.12313 16.1802L6.87313 17.4793L8.31653 16.6459L7.33625 15.298L6.12313 16.1802ZM7.71982 17.7769L8.60204 16.5638L7.25411 15.5835L6.42078 17.0269L7.71982 17.7769ZM6.20048 20.4085L7.49952 21.1585L6.20048 20.4085ZM6.475 21.433L5.725 22.732L5.725 22.732L6.475 21.433ZM7.49952 21.1585L8.79856 21.9085H8.79856L7.49952 21.1585ZM9.01821 18.528L10.3172 19.278L11.1494 17.8367L9.62962 17.1583L9.01821 18.528ZM11.2 19.1114L11.3544 17.6194L9.7 17.4481V19.1114H11.2ZM12.7 19.1114H14.2V17.4481L12.5456 17.6194L12.7 19.1114ZM14.882 18.5279L14.2706 17.1582L12.7509 17.8366L13.583 19.2779L14.882 18.5279ZM16.4008 21.1585L15.1017 21.9085L16.4008 21.1585ZM17.4253 21.433L16.6753 20.1339L16.6753 20.134L17.4253 21.433ZM17.6998 20.4085L18.9989 19.6585L18.9988 19.6585L17.6998 20.4085ZM16.1804 17.7768L17.4794 17.0268L16.6461 15.5833L15.2981 16.5637L16.1804 17.7768ZM17.7769 16.1802L16.5637 15.298L15.5835 16.6459L17.0269 17.4793L17.7769 16.1802ZM20.4083 17.6995L21.1583 16.4005L21.1583 16.4005L20.4083 17.6995ZM21.4328 17.425L20.1338 16.675L20.1338 16.675L21.4328 17.425ZM21.1583 16.4005L21.9083 15.1014L21.1583 16.4005ZM18.528 14.8819L19.278 13.5828L17.8367 12.7507L17.1583 14.2704L18.528 14.8819ZM19.1114 12.7L17.6194 12.5456L17.4481 14.2H19.1114V12.7ZM19.1114 11.2V9.7H17.4481L17.6194 11.3544L19.1114 11.2ZM18.528 9.01826L17.1583 9.62966L17.8367 11.1495L19.278 10.3173L18.528 9.01826ZM21.1586 7.49952L21.9086 8.79856L21.1586 7.49952ZM20.4086 6.20048L21.1586 7.49952L21.1586 7.49952L20.4086 6.20048ZM17.7769 7.71986L17.0269 6.42083L15.5836 7.25415L16.5638 8.60207L17.7769 7.71986ZM16.1802 6.1231L15.298 7.33623L16.6459 8.31648L17.4792 6.8731L16.1802 6.1231ZM17.6995 3.49155L16.4005 2.74155L16.4005 2.74155L17.6995 3.49155ZM16.4005 2.74155L17.6995 3.49155V3.49155L16.4005 2.74155ZM14.8818 5.37198L13.5828 4.62198L12.7506 6.06333L14.2704 6.74172L14.8818 5.37198ZM12.7 1.75H14.2C14.2 0.507359 13.1926 -0.5 11.95 -0.5V1V2.5C11.5358 2.5 11.2 2.16421 11.2 1.75H12.7ZM12.7 4.78859H14.2V1.75H12.7H11.2V4.78859H12.7ZM11.95 4.75V6.25C12.1516 6.25 12.3503 6.26041 12.5456 6.28062L12.7 4.78859L12.8544 3.29656C12.5567 3.26575 12.2549 3.25 11.95 3.25V4.75ZM11.2 4.78859L11.3544 6.28062C11.5497 6.26041 11.7484 6.25 11.95 6.25V4.75V3.25C11.6451 3.25 11.3433 3.26575 11.0456 3.29656L11.2 4.78859ZM11.2 1.75H9.7V4.78859H11.2H12.7V1.75H11.2ZM11.95 1V-0.5C10.7074 -0.5 9.7 0.507359 9.7 1.75H11.2H12.7C12.7 2.16421 12.3642 2.5 11.95 2.5V1ZM9.01843 5.37188L10.3175 4.62188L8.79885 1.99155L7.49981 2.74155L6.20077 3.49155L7.71939 6.12188L9.01843 5.37188ZM7.49981 2.74155L8.79885 1.99155C8.17753 0.915394 6.80145 0.546676 5.72529 1.168L6.47529 2.46703L7.22529 3.76607C6.86657 3.97318 6.40788 3.85027 6.20077 3.49155L7.49981 2.74155ZM6.47529 2.46703L5.72529 1.168C4.64914 1.78932 4.28041 3.16539 4.90174 4.24155L6.20077 3.49155L7.49981 2.74155C7.70692 3.10027 7.58401 3.55897 7.22529 3.76607L6.47529 2.46703ZM6.20077 3.49155L4.90174 4.24155L6.42097 6.87295L7.72001 6.12295L9.01905 5.37295L7.49981 2.74155L6.20077 3.49155ZM7.72001 6.12295L8.60219 7.33611C8.92171 7.10376 9.26588 6.90406 9.62979 6.74163L9.01843 5.37188L8.40707 4.00212C7.85025 4.25064 7.32476 4.5557 6.83783 4.90979L7.72001 6.12295ZM6.12305 7.71986L6.87305 6.42083L4.24141 4.90144L3.49141 6.20048L2.74141 7.49952L5.37305 9.0189L6.12305 7.71986ZM3.49141 6.20048L4.24141 4.90144C3.16525 4.28012 1.78917 4.64884 1.16785 5.725L2.46689 6.475L3.76593 7.225C3.55882 7.58372 3.10013 7.70663 2.74141 7.49952L3.49141 6.20048ZM2.46689 6.475L1.16785 5.725C0.546529 6.80116 0.915248 8.17724 1.99141 8.79856L2.74141 7.49952L3.49141 6.20048C3.85013 6.40759 3.97303 6.86628 3.76593 7.225L2.46689 6.475ZM2.74141 7.49952L1.99141 8.79856L4.62195 10.3173L5.37195 9.01826L6.12195 7.71923L3.49141 6.20048L2.74141 7.49952ZM5.37195 9.01826L6.74169 9.62966C6.90413 9.26575 7.10384 8.92158 7.33619 8.60208L6.12305 7.71986L4.90992 6.83765C4.55582 7.32458 4.25074 7.85006 4.00221 8.40687L5.37195 9.01826ZM4.78859 11.2V9.7H1.75V11.2V12.7H4.78859V11.2ZM1.75 11.2V9.7C0.507359 9.7 -0.5 10.7074 -0.5 11.95H1H2.5C2.5 12.3642 2.16421 12.7 1.75 12.7V11.2ZM1 11.95H-0.5C-0.5 13.1926 0.507359 14.2 1.75 14.2V12.7V11.2C2.16421 11.2 2.5 11.5358 2.5 11.95H1ZM1.75 12.7V14.2H4.78859V12.7V11.2H1.75V12.7ZM4.78859 12.7L6.28062 12.5456C6.26041 12.3503 6.25 12.1516 6.25 11.95H4.75H3.25C3.25 12.2549 3.26575 12.5567 3.29656 12.8544L4.78859 12.7ZM4.75 11.95H6.25C6.25 11.7484 6.26041 11.5497 6.28062 11.3544L4.78859 11.2L3.29656 11.0456C3.26575 11.3433 3.25 11.6451 3.25 11.95H4.75ZM5.37201 14.8819L4.62201 13.5828L1.99168 15.1014L2.74168 16.4005L3.49168 17.6995L6.12201 16.1809L5.37201 14.8819ZM2.74168 16.4005L1.99168 15.1014C0.915519 15.7228 0.546798 17.0988 1.16812 18.175L2.46716 17.425L3.7662 16.675C3.9733 17.0337 3.8504 17.4924 3.49168 17.6995L2.74168 16.4005ZM2.46716 17.425L1.16812 18.175C1.78944 19.2512 3.16552 19.6199 4.24168 18.9986L3.49168 17.6995L2.74167 16.4005C3.10039 16.1934 3.55909 16.3163 3.7662 16.675L2.46716 17.425ZM3.49168 17.6995L4.24168 18.9986L6.87313 17.4793L6.12313 16.1802L5.37313 14.8812L2.74168 16.4005L3.49168 17.6995ZM6.12313 16.1802L7.33625 15.298C7.1039 14.9785 6.90418 14.6343 6.74174 14.2704L5.37201 14.8819L4.00228 15.4933C4.25082 16.0501 4.55591 16.5756 4.91001 17.0625L6.12313 16.1802ZM7.71982 17.7769L6.42078 17.0269L4.90144 19.6585L6.20048 20.4085L7.49952 21.1585L9.01885 18.5269L7.71982 17.7769ZM6.20048 20.4085L4.90144 19.6585C4.28012 20.7346 4.64884 22.1107 5.725 22.732L6.475 21.433L7.225 20.134C7.58372 20.3411 7.70663 20.7998 7.49952 21.1585L6.20048 20.4085ZM6.475 21.433L5.725 22.732C6.80116 23.3533 8.17724 22.9846 8.79856 21.9085L7.49952 21.1585L6.20048 20.4085C6.40759 20.0497 6.86628 19.9268 7.225 20.134L6.475 21.433ZM7.49952 21.1585L8.79856 21.9085L10.3172 19.278L9.01821 18.528L7.71917 17.778L6.20048 20.4085L7.49952 21.1585ZM9.01821 18.528L9.62962 17.1583C9.26571 16.9959 8.92155 16.7961 8.60204 16.5638L7.71982 17.7769L6.83759 18.99C7.32451 19.3441 7.85 19.6492 8.4068 19.8978L9.01821 18.528ZM11.2 19.1114H9.7V22.15H11.2H12.7V19.1114H11.2ZM11.2 22.15H9.7C9.7 23.3926 10.7074 24.4 11.95 24.4V22.9V21.4C12.3642 21.4 12.7 21.7358 12.7 22.15H11.2ZM11.95 22.9V24.4C13.1926 24.4 14.2 23.3926 14.2 22.15H12.7H11.2C11.2 21.7358 11.5358 21.4 11.95 21.4V22.9ZM12.7 22.15H14.2V19.1114H12.7H11.2V22.15H12.7ZM12.7 19.1114L12.5456 17.6194C12.3503 17.6396 12.1516 17.65 11.95 17.65V19.15V20.65C12.2549 20.65 12.5567 20.6343 12.8544 20.6034L12.7 19.1114ZM11.95 19.15V17.65C11.7484 17.65 11.5497 17.6396 11.3544 17.6194L11.2 19.1114L11.0456 20.6034C11.3433 20.6343 11.6451 20.65 11.95 20.65V19.15ZM14.882 18.5279L13.583 19.2779L15.1017 21.9085L16.4008 21.1585L17.6998 20.4085L16.1811 17.7779L14.882 18.5279ZM16.4008 21.1585L15.1017 21.9085C15.7231 22.9846 17.0991 23.3533 18.1753 22.732L17.4253 21.433L16.6753 20.134C17.034 19.9268 17.4927 20.0498 17.6998 20.4085L16.4008 21.1585ZM17.4253 21.433L18.1753 22.732C19.2515 22.1107 19.6202 20.7346 18.9989 19.6585L17.6998 20.4085L16.4008 21.1585C16.1937 20.7998 16.3166 20.3411 16.6753 20.1339L17.4253 21.433ZM17.6998 20.4085L18.9988 19.6585L17.4794 17.0268L16.1804 17.7768L14.8814 18.5268L16.4008 21.1585L17.6998 20.4085ZM16.1804 17.7768L15.2981 16.5637C14.9786 16.796 14.6345 16.9958 14.2706 17.1582L14.882 18.5279L15.4935 19.8976C16.0503 19.6491 16.5757 19.344 17.0627 18.9899L16.1804 17.7768ZM17.7769 16.1802L17.0269 17.4793L19.6583 18.9986L20.4083 17.6995L21.1583 16.4005L18.5269 14.8812L17.7769 16.1802ZM20.4083 17.6995L19.6583 18.9986C20.7345 19.6199 22.1106 19.2512 22.7319 18.175L21.4328 17.425L20.1338 16.675C20.3409 16.3163 20.7996 16.1934 21.1583 16.4005L20.4083 17.6995ZM21.4328 17.425L22.7319 18.175C23.3532 17.0988 22.9845 15.7228 21.9083 15.1014L21.1583 16.4005L20.4083 17.6995C20.0496 17.4924 19.9267 17.0337 20.1338 16.675L21.4328 17.425ZM21.1583 16.4005L21.9083 15.1014L19.278 13.5828L18.528 14.8819L17.778 16.1809L20.4083 17.6995L21.1583 16.4005ZM18.528 14.8819L17.1583 14.2704C16.9958 14.6343 16.7961 14.9785 16.5637 15.298L17.7769 16.1802L18.99 17.0625C19.3441 16.5756 19.6492 16.0501 19.8977 15.4933L18.528 14.8819ZM19.1114 12.7V14.2H22.15V12.7V11.2H19.1114V12.7ZM22.15 12.7V14.2C23.3926 14.2 24.4 13.1926 24.4 11.95H22.9H21.4C21.4 11.5358 21.7358 11.2 22.15 11.2V12.7ZM22.9 11.95H24.4C24.4 10.7074 23.3926 9.7 22.15 9.7V11.2V12.7C21.7358 12.7 21.4 12.3642 21.4 11.95H22.9ZM22.15 11.2V9.7H19.1114V11.2V12.7H22.15V11.2ZM19.1114 11.2L17.6194 11.3544C17.6396 11.5497 17.65 11.7484 17.65 11.95H19.15H20.65C20.65 11.6451 20.6343 11.3433 20.6034 11.0456L19.1114 11.2ZM19.15 11.95H17.65C17.65 12.1516 17.6396 12.3503 17.6194 12.5456L19.1114 12.7L20.6034 12.8544C20.6343 12.5567 20.65 12.2549 20.65 11.95H19.15ZM18.528 9.01826L19.278 10.3173L21.9086 8.79856L21.1586 7.49952L20.4086 6.20048L17.778 7.71923L18.528 9.01826ZM21.1586 7.49952L21.9086 8.79856C22.9847 8.17724 23.3535 6.80116 22.7321 5.725L21.4331 6.475L20.1341 7.225C19.927 6.86628 20.0499 6.40759 20.4086 6.20048L21.1586 7.49952ZM21.4331 6.475L22.7321 5.725C22.1108 4.64884 20.7348 4.28012 19.6586 4.90144L20.4086 6.20048L21.1586 7.49952C20.7999 7.70663 20.3412 7.58372 20.1341 7.225L21.4331 6.475ZM20.4086 6.20048L19.6586 4.90144L17.0269 6.42083L17.7769 7.71986L18.5269 9.0189L21.1586 7.49952L20.4086 6.20048ZM17.7769 7.71986L16.5638 8.60207C16.7962 8.92159 16.9959 9.26575 17.1583 9.62966L18.528 9.01826L19.8978 8.40687C19.6493 7.85006 19.3442 7.32457 18.9901 6.83765L17.7769 7.71986ZM16.1802 6.1231L17.4792 6.8731L18.9986 4.24155L17.6995 3.49155L16.4005 2.74155L14.8812 5.3731L16.1802 6.1231ZM17.6995 3.49155L18.9986 4.24155C19.6199 3.16539 19.2512 1.78931 18.175 1.168L17.425 2.46703L16.675 3.76607C16.3163 3.55897 16.1934 3.10027 16.4005 2.74155L17.6995 3.49155ZM17.425 2.46703L18.175 1.168C17.0988 0.546675 15.7228 0.915395 15.1014 1.99155L16.4005 2.74155L17.6995 3.49155C17.4924 3.85027 17.0337 3.97318 16.675 3.76607L17.425 2.46703ZM16.4005 2.74155L15.1014 1.99155L13.5828 4.62198L14.8818 5.37198L16.1808 6.12198L17.6995 3.49155L16.4005 2.74155ZM14.8818 5.37198L14.2704 6.74172C14.6343 6.90416 14.9785 7.10387 15.298 7.33623L16.1802 6.1231L17.0624 4.90997C16.5755 4.55587 16.05 4.25079 15.4932 4.00225L14.8818 5.37198Z" fill="#B38C00" mask="url(#path-3-inside-1_2174_10162)"/>
</g>
<path d="M11.3694 10.55C12.1437 10.55 12.7999 11.0532 13.0305 11.7502H16.2981C17.2646 11.7502 18.0481 12.5337 18.0481 13.5002C18.048 14.4666 17.2646 15.2502 16.2981 15.2502H7.94849C7.17428 15.2502 6.51903 14.7468 6.28833 14.05H4.49829C3.53179 14.05 2.74829 13.2665 2.74829 12.3C2.74829 11.3335 3.53179 10.55 4.49829 10.55H11.3694Z" fill="#F1F3F6" stroke="#8D9297" stroke-width="1.5"/>
<path d="M19.3999 16.7048C20.3664 16.7048 21.1499 17.4883 21.1499 18.4548C21.1499 19.4213 20.3664 20.2048 19.3999 20.2048H18.6606C18.43 20.9016 17.7746 21.4049 17.0005 21.405H8.80029C7.83386 21.405 7.0504 20.6214 7.05029 19.655C7.05029 18.6885 7.83379 17.905 8.80029 17.905H11.3394C11.57 17.208 12.2262 16.7048 13.0005 16.7048H19.3999Z" fill="#F1F3F6" stroke="#8D9297" stroke-width="1.5"/>
</g>
<defs>
<clipPath id="clip0_2174_10162">
<rect width="24" height="24" fill="white"/>
</clipPath>
</defs>
</svg>
