<svg width="24" height="24" viewBox="0 0 24 24" fill="none" xmlns="http://www.w3.org/2000/svg">
<path d="M12 5.80078C14.7665 5.80078 17.0943 7.67309 17.7881 10.2197C17.5661 10.1678 17.3354 10.1377 17.0977 10.1377L14.0781 10.1387C13.5303 9.36764 12.6305 8.8644 11.6123 8.86426H6.76855C7.79673 7.03621 9.75328 5.80078 12 5.80078Z" fill="#DDAA01"/>
<path d="M12 5.80078C14.7665 5.80078 17.0943 7.67309 17.7881 10.2197C17.5661 10.1678 17.3354 10.1377 17.0977 10.1377H16.1807C15.5191 8.47579 13.8977 7.30078 12 7.30078C10.6369 7.30078 9.41604 7.90694 8.59082 8.86426H6.76855C7.79673 7.03621 9.75328 5.80078 12 5.80078Z" fill="#947100"/>
<path d="M22.2266 11.2041C22.6048 11.2425 22.9004 11.5618 22.9004 11.9502L22.8965 12.0264C22.8608 12.3796 22.5797 12.6605 22.2266 12.6963L22.1504 12.7002H20.0869C19.9999 12.1325 19.754 11.6177 19.3975 11.2002H22.1504L22.2266 11.2041ZM20.4082 6.2002C20.7669 5.99311 21.2265 6.11597 21.4336 6.47461C21.6407 6.83333 21.5169 7.29289 21.1582 7.5L18.5283 9.01855C18.3229 8.55824 18.0705 8.12291 17.7773 7.71973L20.4082 6.2002ZM2.4668 6.47461C2.67391 6.11619 3.13262 5.99338 3.49121 6.2002L6.12305 7.71973C5.86305 8.07725 5.63782 8.46119 5.44629 8.86426H5.10449L2.74121 7.5C2.38253 7.29289 2.25971 6.83331 2.4668 6.47461ZM6.47559 2.4668C6.83419 2.25999 7.2929 2.38275 7.5 2.74121L9.01855 5.37207C8.5582 5.57754 8.12294 5.82984 7.71973 6.12305L6.20117 3.49121C5.99416 3.13252 6.11693 2.67389 6.47559 2.4668ZM16.4004 2.74121C16.6075 2.38275 17.0662 2.25996 17.4248 2.4668C17.7835 2.67388 17.9062 3.13251 17.6992 3.49121L16.1807 6.12305C15.7775 5.82984 15.3422 5.57755 14.8818 5.37207L16.4004 2.74121ZM11.9502 1C12.3643 1.00011 12.7002 1.33585 12.7002 1.75V4.78906C12.4538 4.76356 12.2034 4.75001 11.9502 4.75C11.697 4.75 11.4467 4.76356 11.2002 4.78906V1.75C11.2002 1.3358 11.536 1.00003 11.9502 1Z" fill="#947100"/>
<path d="M16.2982 14.5001C16.8505 14.5001 17.2982 14.0524 17.2982 13.5001C17.2982 12.9478 16.8505 12.5001 16.2982 12.5001L12.3495 12.5001C12.3626 12.4355 12.3695 12.3685 12.3695 12.3C12.3695 11.7477 11.9218 11.3 11.3695 11.3L4.49805 11.3C3.94576 11.3 3.49805 11.7477 3.49805 12.3C3.49805 12.8523 3.94576 13.3 4.49805 13.3L6.96821 13.3C6.95508 13.3647 6.94819 13.4316 6.94819 13.5001C6.94819 14.0524 7.3959 14.5001 7.94818 14.5001L16.2982 14.5001Z" fill="#F1F3F6"/>
<path d="M4.49805 11.3C3.94576 11.3 3.49805 11.7477 3.49805 12.3C3.49805 12.8523 3.94576 13.3 4.49805 13.3H6.96777C6.95465 13.3646 6.94824 13.4317 6.94824 13.5002C6.94829 14.0179 7.34157 14.444 7.8457 14.4953L7.94824 14.5002H16.2979C16.8155 14.5002 17.2416 14.1068 17.293 13.6028L17.2979 13.5002C17.2979 12.9824 16.9047 12.5563 16.4004 12.5051L16.2979 12.5002V11.0002C17.6786 11.0002 18.7979 12.1195 18.7979 13.5002C18.7978 14.8809 17.6785 16.0002 16.2979 16.0002H7.94824C7.04423 16.0002 6.25452 15.5189 5.81543 14.8H4.49805C3.20371 14.8 2.13887 13.8164 2.01074 12.5559L1.99805 12.3L2.01074 12.0442C2.13887 10.7836 3.20371 9.80002 4.49805 9.80002V11.3ZM11.3691 9.80002C12.2731 9.80002 13.0629 10.2814 13.502 11.0002H16.2979V12.5002H12.3496C12.3627 12.4356 12.3691 12.3685 12.3691 12.3C12.3691 11.7477 11.9214 11.3 11.3691 11.3V9.80002ZM11.3691 9.80002V11.3H4.49805V9.80002H11.3691Z" fill="#8D9297"/>
<path d="M12.0198 18.6548C12.0067 18.5902 11.9998 18.5233 11.9998 18.4548C11.9998 17.9025 12.4475 17.4548 12.9998 17.4548L19.3998 17.4548C19.9521 17.4548 20.3998 17.9026 20.3998 18.4548C20.3998 19.0071 19.9521 19.4548 19.3998 19.4548L17.9798 19.4548C17.9929 19.5195 17.9998 19.5863 17.9998 19.6548C17.9998 20.2071 17.5521 20.6548 16.9998 20.6548L8.7998 20.6548C8.24752 20.6548 7.7998 20.2071 7.7998 19.6548C7.7998 19.1025 8.24752 18.6548 8.7998 18.6548L12.0198 18.6548Z" fill="#F1F3F6"/>
<path d="M8.7998 18.655L8.69727 18.6599C8.19314 18.7113 7.7998 19.1374 7.7998 19.655C7.7999 20.1726 8.19319 20.5988 8.69727 20.6501L8.7998 20.655H17L17.1016 20.6501C17.606 20.5992 17.9999 20.1729 18 19.655C18 19.5865 17.9926 19.5195 17.9795 19.4548H19.3994C19.9517 19.4548 20.3994 19.0071 20.3994 18.4548C20.3994 17.9026 19.9517 17.4548 19.3994 17.4548V15.9548C20.7801 15.9548 21.8994 17.0741 21.8994 18.4548C21.8994 19.8355 20.7801 20.9548 19.3994 20.9548H19.1328C18.6938 21.6737 17.904 22.155 17 22.155H8.7998C7.50553 22.155 6.44072 21.1713 6.3125 19.9109L6.2998 19.655L6.3125 19.3992C6.44054 18.1385 7.5054 17.155 8.7998 17.155V18.655ZM13 17.4548L12.8975 17.4597C12.3932 17.511 12 17.9371 12 18.4548C12 18.5233 12.0064 18.5904 12.0195 18.655H8.7998V17.155H10.8672C11.3063 16.4362 12.096 15.9548 13 15.9548V17.4548ZM19.3994 15.9548V17.4548H13V15.9548H19.3994Z" fill="#8D9297"/>
</svg>
