<svg width="40" height="40" viewBox="0 0 40 40" fill="none" xmlns="http://www.w3.org/2000/svg">
<path d="M25 31C25 29.3026 24.1557 27.8024 22.8555 26.8955L22 26.2979V7C22 5.89543 21.1046 5 20 5C18.8954 5 18 5.89543 18 7V26.2979L17.1445 26.8955C15.8443 27.8025 15 29.3026 15 31C15 33.7614 17.2386 36 20 36V38C16.134 38 13 34.866 13 31C13 28.6213 14.1866 26.5198 16 25.2549V7C16 4.79086 17.7909 3 20 3C22.2091 3 24 4.79086 24 7V25.2549C25.8134 26.5198 27 28.6213 27 31C27 34.866 23.866 38 20 38V36C22.7614 36 25 33.7614 25 31Z" fill="#A9AEB1"/>
<path d="M23 31C23 32.6569 21.6569 34 20 34C18.3431 34 17 32.6569 17 31C17 29.3431 18.3431 28 20 28C21.6569 28 23 29.3431 23 31Z" fill="#FA9441"/>
<path d="M19 8C19 7.44772 19.4477 7 20 7C20.5523 7 21 7.44772 21 8V29C21 29.5523 20.5523 30 20 30C19.4477 30 19 29.5523 19 29V8Z" fill="#FA9441"/>
<rect x="25" y="6" width="10" height="2" fill="#FA9441"/>
<rect x="25" y="18" width="10" height="2" fill="#FCE2C5"/>
<rect x="25" y="12" width="10" height="2" fill="#FA9441"/>
<rect x="25" y="9" width="5" height="2" fill="#FA9441"/>
<rect x="25" y="21" width="5" height="2" fill="#FCE2C5"/>
<rect x="25" y="15" width="5" height="2" fill="#FCE2C5"/>
<path d="M6 11L11.1962 14" stroke="#FA9441" stroke-width="2" stroke-linecap="round"/>
<path d="M9.34277 6.37866L13.5854 10.6213" stroke="#FA9441" stroke-width="2" stroke-linecap="round"/>
</svg>
