<svg width="40" height="40" viewBox="0 0 40 40" fill="none" xmlns="http://www.w3.org/2000/svg">
<path d="M25 31C25 29.3026 24.1557 27.8024 22.8555 26.8955L22 26.2979V7C22 5.89543 21.1046 5 20 5C18.8954 5 18 5.89543 18 7V26.2979L17.1445 26.8955C15.8443 27.8024 15 29.3026 15 31C15 33.7614 17.2386 36 20 36V38C16.134 38 13 34.866 13 31C13 28.6213 14.1866 26.5198 16 25.2549V7C16 4.79086 17.7909 3 20 3C22.2091 3 24 4.79086 24 7V25.2549C25.8134 26.5198 27 28.6213 27 31C27 34.866 23.866 38 20 38V36C22.7614 36 25 33.7614 25 31Z" fill="#3D4551"/>
<circle cx="20" cy="31" r="3" fill="#E66F0E"/>
<rect x="19" y="7" width="2" height="23" rx="1" fill="#E66F0E"/>
<rect x="25" y="6" width="10" height="2" fill="#E66F0E"/>
<rect x="25" y="12" width="10" height="2" fill="#E66F0E"/>
<rect x="25" y="9" width="5" height="2" fill="#E66F0E"/>
<rect x="25" y="18" width="10" height="2" fill="#FFBC78"/>
<rect x="25" y="21" width="5" height="2" fill="#FFBC78"/>
<rect x="25" y="15" width="5" height="2" fill="#FFBC78"/>
<path d="M11.696 13.134L11.7823 13.1895C12.1933 13.4861 12.3208 14.0517 12.062 14.5001C11.8032 14.9484 11.2495 15.1207 10.7872 14.9131L10.696 14.8661L5.49981 11.8661C5.02152 11.5899 4.85765 10.9784 5.13379 10.5001C5.40993 10.0218 6.02152 9.85789 6.49981 10.134L11.696 13.134Z" fill="#E66F0E"/>
<path d="M14.2925 9.91422L14.3616 9.99018C14.6818 10.383 14.6586 10.9624 14.2925 11.3284C13.9265 11.6945 13.347 11.7177 12.9543 11.3975L12.8783 11.3284L8.63567 7.0858C8.24514 6.69527 8.24514 6.06211 8.63567 5.67158C9.02619 5.28106 9.65936 5.28106 10.0499 5.67158L14.2925 9.91422Z" fill="#E66F0E"/>
</svg>
