<svg width="24" height="24" viewBox="0 0 24 24" fill="none" xmlns="http://www.w3.org/2000/svg">
<path d="M15 18.1006C15 17.2122 14.6161 16.4147 14 15.8633L13.5 15.416V5C13.5 4.17157 12.8284 3.5 12 3.5C11.1716 3.5 10.5 4.17157 10.5 5V15.416L10 15.8633C9.38387 16.4147 9 17.2122 9 18.1006C9.00026 19.7572 10.3433 21.1006 12 21.1006V22.6006L11.7686 22.5947C9.46764 22.4782 7.62267 20.6329 7.50586 18.332L7.5 18.1006C7.5 16.7679 8.07942 15.5701 9 14.7461V5C9 3.34315 10.3431 2 12 2C13.6569 2 15 3.34315 15 5V14.7461C15.9206 15.5701 16.5 16.7679 16.5 18.1006L16.4941 18.332C16.3734 20.7095 14.4075 22.6006 12 22.6006V21.1006C13.6567 21.1006 14.9997 19.7572 15 18.1006Z" fill="#A9AEB1"/>
<path d="M14.5 18.123C14.5 19.5038 13.3807 20.623 12 20.623C10.6193 20.623 9.5 19.5038 9.5 18.123C9.5 16.7423 10.6193 15.623 12 15.623C13.3807 15.623 14.5 16.7423 14.5 18.123Z" fill="#FA9441"/>
<path d="M11.25 5.75C11.25 5.33579 11.5858 5 12 5C12.4142 5 12.75 5.33579 12.75 5.75V16.25C12.75 16.6642 12.4142 17 12 17C11.5858 17 11.25 16.6642 11.25 16.25V5.75Z" fill="#FA9441"/>
<rect x="17" y="4.02759" width="5" height="1.5" fill="#FA9441"/>
<rect x="17" y="9.52759" width="5" height="1.5" fill="#FCE2C5"/>
<rect x="17" y="6.52539" width="3" height="1.5" fill="#FA9441"/>
<rect x="17" y="12.5295" width="3" height="1.5" fill="#FCE2C5"/>
<path d="M5 2.5L7 4" stroke="#FA9441" stroke-linecap="round"/>
</svg>
