<svg width="24" height="24" viewBox="0 0 24 24" fill="none" xmlns="http://www.w3.org/2000/svg">
<path d="M16.8842 8.33394L16.5422 8.68194C16.3622 8.43594 16.1702 8.20194 15.9542 7.98594L15.7442 7.78194L16.4642 7.05594L17.3702 3.97194C17.4962 3.53394 17.3582 3.29394 17.0222 3.20994C15.7622 2.79594 11.3102 4.91994 8.75419 6.86394C7.59019 7.60194 6.67219 8.74194 6.22819 10.1399C6.19819 10.2299 6.17419 10.3139 6.15019 10.4039V10.4219C5.64019 12.3119 6.08419 14.2259 7.17619 15.6719L7.51819 15.3239C7.69819 15.5639 7.88419 15.7979 8.10019 16.0079L8.30419 16.2119L8.29219 16.2479L7.58419 16.9679L6.68419 20.0279C6.55819 20.4659 6.69619 20.7059 7.03219 20.7899C8.29219 21.2039 12.7442 19.0799 15.3002 17.1359C16.5422 16.3439 17.5022 15.1079 17.9102 13.5719C18.4142 11.6879 17.9762 9.77994 16.8842 8.33394Z" fill="#EFF6FB"/>
<path d="M12 14C13.1046 14 14 13.1046 14 12C14 10.8954 13.1046 10 12 10C10.8954 10 10 10.8954 10 12C10 13.1046 10.8954 14 12 14Z" fill="#58B4FF"/>
<path d="M6.67188 14.8215C6.67188 15.0185 7.44384 16.1578 8.00686 16.5361L8.77782 15.7662L7.09958 14.4974C6.95701 14.5234 6.67187 14.6245 6.67188 14.8215Z" fill="#EFF6FB"/>
<path d="M17.291 9.05391C17.291 8.85691 16.519 7.7176 15.956 7.33931L15.1851 8.10917L16.8633 9.37793C17.0059 9.35201 17.291 9.25091 17.291 9.05391Z" fill="#EFF6FB"/>
<path d="M16.7192 2.40879C16.865 2.40488 17.0251 2.4121 17.1811 2.44687C17.3295 2.48001 17.5411 2.55313 17.7182 2.73008C17.9835 2.99527 18.0455 3.33542 18.059 3.56113C18.0735 3.80331 18.0415 4.05789 17.9946 4.2916C17.9 4.76283 17.7159 5.29657 17.5268 5.77695C17.335 6.26431 17.125 6.72877 16.9643 7.06894C16.8837 7.23949 16.8141 7.38032 16.7651 7.4791C16.7405 7.52853 16.7211 7.56836 16.7075 7.59531C16.7007 7.60864 16.6955 7.61933 16.6918 7.62656C16.6901 7.63002 16.688 7.63239 16.687 7.63437C16.6864 7.63539 16.6863 7.6367 16.686 7.6373L16.686 7.63828C16.4963 8.00641 16.0434 8.15112 15.6752 7.96152C15.307 7.77177 15.1622 7.31897 15.352 6.95078L15.353 6.9498L15.3696 6.9166C15.3815 6.89295 15.3988 6.85746 15.4213 6.81211C15.4667 6.72075 15.532 6.58893 15.6078 6.42832C15.7602 6.10593 15.9548 5.67405 16.1303 5.22812C16.3086 4.77518 16.4554 4.33795 16.5239 3.99668C16.5285 3.9734 16.5299 3.95041 16.5336 3.9293C16.4094 3.94665 16.2576 3.97529 16.0786 4.01816C15.4691 4.16411 14.6506 4.4469 13.7407 4.84726C11.9129 5.65146 9.82865 6.88037 8.4184 8.29062C6.24658 10.4625 6.39189 12.929 7.08832 14.1188C7.29738 14.4762 7.17716 14.9359 6.81976 15.1451C6.46234 15.3542 6.00265 15.2339 5.7934 14.8766C4.73395 13.0667 4.72979 9.85819 7.35785 7.23008C8.94755 5.64038 11.2139 4.32001 13.1362 3.47422C14.101 3.04971 15.0073 2.73201 15.7289 2.55918C16.0863 2.47362 16.4267 2.41665 16.7192 2.40879Z" fill="#58B4FF"/>
<path d="M7.2652 21.5912C7.11936 21.5951 6.95929 21.5879 6.80328 21.5531C6.65485 21.52 6.44328 21.4469 6.26618 21.2699C6.00089 21.0047 5.93886 20.6646 5.92536 20.4389C5.91089 20.1967 5.94291 19.9421 5.98981 19.7084C6.08438 19.2372 6.26851 18.7034 6.45758 18.223C6.64941 17.7357 6.85936 17.2712 7.02008 16.9311C7.10066 16.7605 7.17024 16.6197 7.2193 16.5209C7.24385 16.4715 7.26327 16.4316 7.27692 16.4047C7.28367 16.3914 7.28885 16.3807 7.29254 16.3734C7.29431 16.37 7.29641 16.3676 7.29743 16.3656C7.29795 16.3646 7.29809 16.3633 7.2984 16.3627L7.2984 16.3617C7.48812 15.9936 7.94099 15.8489 8.30914 16.0385C8.67734 16.2282 8.82214 16.681 8.63239 17.0492L8.63141 17.0502L8.61481 17.0834C8.60283 17.107 8.58558 17.1425 8.56305 17.1879C8.51767 17.2792 8.45241 17.4111 8.37653 17.5717C8.2242 17.8941 8.0296 18.3259 7.85407 18.7719C7.67578 19.2248 7.52902 19.6621 7.46051 20.0033C7.45584 20.0266 7.45446 20.0496 7.45075 20.0707C7.575 20.0533 7.72677 20.0247 7.90582 19.9818C8.51532 19.8359 9.33376 19.5531 10.2437 19.1527C12.0715 18.3485 14.1557 17.1196 15.566 15.7094C17.7378 13.5375 17.5925 11.071 16.8961 9.88125C16.687 9.52381 16.8072 9.06409 17.1646 8.85488C17.522 8.64575 17.9817 8.76608 18.191 9.12344C19.2504 10.9333 19.2546 14.1418 16.6265 16.7699C15.0368 18.3596 12.7704 19.68 10.8482 20.5258C9.88341 20.9503 8.97712 21.268 8.25543 21.4408C7.89809 21.5264 7.55765 21.5834 7.2652 21.5912Z" fill="#58B4FF"/>
</svg>
