<svg width="40" height="40" viewBox="0 0 40 40" fill="none" xmlns="http://www.w3.org/2000/svg">
<path d="M28.1402 13.89L27.5702 14.47C27.2702 14.06 26.9502 13.67 26.5902 13.31L26.2402 12.97L27.4402 11.76L28.9502 6.61999C29.1602 5.88999 28.9302 5.48999 28.3702 5.34999C26.2702 4.65999 18.8502 8.19999 14.5902 11.44C12.6502 12.67 11.1202 14.57 10.3802 16.9C10.3302 17.05 10.2902 17.19 10.2502 17.34V17.37C9.40015 20.52 10.1402 23.71 11.9602 26.12L12.5302 25.54C12.8302 25.94 13.1402 26.33 13.5002 26.68L13.8402 27.02L13.8202 27.08L12.6402 28.28L11.1402 33.38C10.9302 34.11 11.1602 34.51 11.7202 34.65C13.8202 35.34 21.2402 31.8 25.5002 28.56C27.5702 27.24 29.1702 25.18 29.8502 22.62C30.6902 19.48 29.9602 16.3 28.1402 13.89Z" fill="#EFF6FB"/>
<path d="M20.0947 22.9592C21.7516 22.9592 23.0947 21.6161 23.0947 19.9592C23.0947 18.3024 21.7516 16.9592 20.0947 16.9592C18.4379 16.9592 17.0947 18.3024 17.0947 19.9592C17.0947 21.6161 18.4379 22.9592 20.0947 22.9592Z" fill="#58B4FF"/>
<path d="M11.1196 24.7024C11.1196 25.0307 12.4062 26.9296 13.3446 27.5601L14.6295 26.277L11.8325 24.1624C11.5949 24.2056 11.1196 24.374 11.1196 24.7024Z" fill="#EFF6FB"/>
<path d="M28.8179 15.0899C28.8179 14.7615 27.5313 12.8627 26.5929 12.2322L25.308 13.5153L28.105 15.6299C28.3426 15.5867 28.8179 15.4182 28.8179 15.0899Z" fill="#EFF6FB"/>
<path d="M27.872 4.26492C28.1031 4.25874 28.3477 4.27048 28.581 4.32254C28.7762 4.36612 29.0314 4.45249 29.2587 4.63992L29.3544 4.72684L29.4833 4.87332C29.7557 5.22631 29.8302 5.64294 29.8486 5.95047C29.8709 6.32368 29.8211 6.72361 29.7451 7.10282C29.5918 7.86674 29.2919 8.74111 28.9785 9.53739C28.6614 10.3429 28.3133 11.1111 28.0468 11.6751C27.9132 11.9579 27.7989 12.1914 27.7177 12.3548C27.6772 12.4364 27.6455 12.5009 27.623 12.5452C27.6119 12.5671 27.6027 12.5841 27.5966 12.596C27.5936 12.6019 27.5915 12.6074 27.5898 12.6106C27.589 12.6122 27.5883 12.6136 27.5878 12.6145L27.5869 12.6155C27.3339 13.1064 26.7301 13.3002 26.2392 13.0472C25.7483 12.7941 25.5555 12.1904 25.8085 11.6995L25.8105 11.6966C25.8117 11.6943 25.813 11.6904 25.8154 11.6858C25.8204 11.676 25.8288 11.6607 25.8388 11.6409C25.8591 11.601 25.8888 11.5415 25.9267 11.4651C26.003 11.3116 26.1119 11.09 26.2392 10.8206C26.4945 10.2802 26.8218 9.55516 27.1171 8.80496C27.4162 8.04527 27.6656 7.29978 27.7841 6.70926C27.8196 6.53231 27.8387 6.38592 27.8476 6.26883C27.5832 6.284 27.2123 6.34013 26.7392 6.4534C25.7047 6.70112 24.3255 7.17758 22.7998 7.84891C19.7379 9.19612 16.2348 11.2607 13.8544 13.6409C10.1586 17.3367 10.3764 21.5712 11.5976 23.6575C11.8764 24.134 11.7166 24.7467 11.2402 25.0257C10.7636 25.3047 10.151 25.1439 9.87202 24.6673C8.16678 21.7541 8.13624 16.531 12.4404 12.2268C15.06 9.60735 18.8062 7.42151 21.9941 6.01883C23.5931 5.31527 25.0892 4.79164 26.2734 4.50809C26.8608 4.36744 27.409 4.27736 27.872 4.26492Z" fill="#58B4FF"/>
<path d="M12.1021 35.7351C11.871 35.7413 11.6264 35.7295 11.3931 35.6775C11.1979 35.6339 10.9427 35.5475 10.7154 35.3601L10.6197 35.2732L10.4908 35.1267C10.2184 34.7737 10.1439 34.3571 10.1255 34.0495C10.1033 33.6763 10.153 33.2764 10.2291 32.8972C10.3823 32.1333 10.6822 31.2589 10.9957 30.4626C11.3127 29.6571 11.6608 28.8889 11.9273 28.3249C12.0609 28.0421 12.1752 27.8086 12.2564 27.6452C12.2969 27.5636 12.3287 27.4991 12.3511 27.4548C12.3622 27.4329 12.3714 27.4159 12.3775 27.404C12.3805 27.3981 12.3827 27.3926 12.3843 27.3894C12.3851 27.3878 12.3858 27.3864 12.3863 27.3855L12.3873 27.3845C12.6403 26.8936 13.244 26.6998 13.7349 26.9528C14.2258 27.2059 14.4186 27.8096 14.1656 28.3005L14.1636 28.3034C14.1625 28.3057 14.1611 28.3096 14.1587 28.3142C14.1537 28.324 14.1454 28.3393 14.1353 28.3591C14.1151 28.399 14.0853 28.4585 14.0474 28.5349C13.9712 28.6884 13.8622 28.91 13.7349 29.1794C13.4796 29.7197 13.1523 30.4448 12.857 31.195C12.558 31.9547 12.3085 32.7002 12.19 33.2907C12.1545 33.4677 12.1354 33.6141 12.1265 33.7312C12.3909 33.716 12.7618 33.6599 13.2349 33.5466C14.2695 33.2989 15.6486 32.8224 17.1744 32.1511C20.2363 30.8039 23.7393 28.7393 26.1197 26.3591C29.8155 22.6633 29.5978 18.4288 28.3765 16.3425C28.0977 15.866 28.2575 15.2533 28.7339 14.9743C29.2106 14.6953 29.8231 14.8561 30.1021 15.3327C31.8073 18.2459 31.8379 23.469 27.5337 27.7732C24.9142 30.3926 21.1679 32.5785 17.98 33.9812C16.381 34.6847 14.8849 35.2084 13.7007 35.4919C13.1133 35.6326 12.5651 35.7226 12.1021 35.7351Z" fill="#58B4FF"/>
</svg>
