<svg width="24" height="24" viewBox="0 0 24 24" fill="none" xmlns="http://www.w3.org/2000/svg">
<path fill-rule="evenodd" clip-rule="evenodd" d="M6.29614 14.9989C6.26338 14.9997 6.23052 15 6.19758 15C3.88903 15 2.01758 13.1292 2.01758 10.8215C2.01758 8.93157 3.27265 7.33472 4.99504 6.8184C5.55813 4.06848 7.99116 2 10.9072 2C13.0742 2 14.9744 3.1422 16.0387 4.85746C16.3172 4.81039 16.6034 4.78589 16.8952 4.78589C19.7147 4.78589 22.0002 7.07243 22.0002 9.89303C22.0002 12.7136 19.7147 15.0002 16.8952 15.0002C16.8709 15.0002 16.8466 15 16.8224 14.9997V14.9999H6.29614V14.9989Z" fill="#F1F3F6"/>
<path d="M10.8926 2C13.0604 2.00015 14.9604 3.14386 16.0244 4.86035C16.3072 4.81173 16.5979 4.78616 16.8945 4.78613C19.7139 4.78613 21.9999 7.07208 22 9.89258C22 12.6779 19.7707 14.9409 17 14.9971V14.9951H16.252C15.8377 14.9951 15.502 14.6593 15.502 14.2451C15.502 13.8309 15.8377 13.4951 16.252 13.4951H17.002C18.9427 13.4383 20.5 11.8493 20.5 9.89258C20.4999 7.90028 18.8852 6.28613 16.8945 6.28613C16.6842 6.28616 16.4784 6.30448 16.2783 6.33887L15.2822 6.50977L14.749 5.65039C13.9969 4.43736 12.6953 3.60874 11.1953 3.50977L10.8926 3.5C8.70292 3.5 6.87225 5.05348 6.44922 7.11914L6.26855 7.99805L5.40918 8.25586C4.37217 8.5664 3.60218 9.48689 3.50977 10.5967L3.5 10.8213C3.5 12.2397 4.60357 13.3966 6 13.4893V13.4951H6.75C7.16421 13.4951 7.5 13.8309 7.5 14.2451C7.49994 14.6593 7.16417 14.9951 6.75 14.9951H6V14.9941C3.77499 14.8999 2 13.0687 2 10.8213C2.00009 8.9308 3.2562 7.33407 4.97949 6.81836C5.54256 4.06841 7.97647 2 10.8926 2Z" fill="#71767A"/>
<path d="M5.19615 17.3999L6.19615 15.3999L7.19615 17.3999C7.69615 18.3999 7.19615 19.3999 6.19615 19.3999C5.19615 19.3999 4.69615 18.3999 5.19615 17.3999Z" fill="#4F97D1"/>
<path d="M16.0765 17.3999L17.0765 15.3999L18.0765 17.3999C18.5765 18.3999 18.0765 19.3999 17.0765 19.3999C16.0765 19.3999 15.5765 18.3999 16.0765 17.3999Z" fill="#4F97D1"/>
<path d="M11 21.0649L11 15.3999C11 15.1238 11.2239 14.8999 11.5 14.8999C11.7761 14.8999 12 15.1238 12 15.3999L12 21.0649C12 21.3411 11.7761 21.5649 11.5 21.5649C11.2239 21.5649 11 21.3411 11 21.0649Z" fill="#8D9297"/>
<path d="M13.7029 20.0819L8.79678 17.2494C8.55764 17.1113 8.4757 16.8055 8.61377 16.5664C8.75184 16.3272 9.05764 16.2453 9.29678 16.3834L14.2029 19.2159C14.442 19.354 14.5239 19.6597 14.3859 19.8989C14.2478 20.138 13.942 20.22 13.7029 20.0819Z" fill="#8D9297"/>
<path d="M8.79715 19.2156L13.7032 16.3831C13.9424 16.245 14.2482 16.327 14.3862 16.5661C14.5243 16.8053 14.4424 17.1111 14.2032 17.2491L9.29715 20.0817C9.058 20.2197 8.75221 20.1378 8.61414 19.8986C8.47607 19.6595 8.558 19.3537 8.79715 19.2156Z" fill="#8D9297"/>
</svg>
