<svg width="40" height="40" viewBox="0 0 40 40" fill="none" xmlns="http://www.w3.org/2000/svg">
<path fill-rule="evenodd" clip-rule="evenodd" d="M2 18C2 21.866 5.13401 25 9 25H28C32.9706 25 37 20.9706 37 16C37 11.0294 32.9706 7 28 7C27.5635 7 27.1342 7.03108 26.7143 7.09115C24.9986 4.05195 21.7389 2 18 2C12.7925 2 8.51467 5.98049 8.04315 11.0649C4.62984 11.5314 2 14.4586 2 18Z" fill="#F7F9FA"/>
<path fill-rule="evenodd" clip-rule="evenodd" d="M26.7139 7.09082C24.9981 4.05185 21.7387 2 18 2C12.7926 2 8.51467 5.98027 8.04297 11.0645C4.62972 11.5311 2 14.4586 2 18C2 21.866 5.13401 25 9 25H10C10.5523 25 11 24.5523 11 24C11 23.4477 10.5523 23 10 23H9C6.23858 23 4 20.7614 4 18C4 15.4721 5.87832 13.3799 8.31445 13.0469L9.8877 12.8311L10.0342 11.25C10.4112 7.18463 13.8351 4 18 4C20.9885 4 23.5972 5.63771 24.9727 8.07422L25.6445 9.26465L26.9971 9.07129C27.3235 9.0246 27.6585 9 28 9C31.866 9 35 12.134 35 16C35 19.866 31.866 23 28 23C27.4477 23 27 23.4477 27 24C27 24.5523 27.4477 25 28 25C32.9706 25 37 20.9706 37 16C37 11.0294 32.9706 7 28 7C27.5635 7 27.1338 7.03075 26.7139 7.09082Z" fill="#A9AEB1"/>
<rect width="1.33333" height="8" rx="0.666667" transform="matrix(-0.5 0.866025 0.866025 0.5 18.2319 21.7113)" fill="#EDEFF0"/>
<rect width="1.33333" height="8" rx="0.666667" transform="matrix(0.5 0.866025 0.866025 -0.5 17.5649 25.7113)" fill="#EDEFF0"/>
<rect width="1.33333" height="8" rx="0.666667" transform="matrix(1 0 0 -1 20.6958 28.2887)" fill="#EDEFF0"/>
<path d="M12.2942 27L13.7942 24L15.2942 27C16.0442 28.5 15.2942 30 13.7942 30C12.2942 30 11.5442 28.5 12.2942 27Z" fill="#58B4FF"/>
<rect width="1.33333" height="8" rx="0.666667" transform="matrix(-0.5 0.866025 0.866025 0.5 15.2319 31.7113)" fill="#EDEFF0"/>
<rect width="1.33333" height="8" rx="0.666667" transform="matrix(0.5 0.866025 0.866025 -0.5 14.5649 35.7113)" fill="#EDEFF0"/>
<rect width="1.33333" height="8" rx="0.666667" transform="matrix(1 0 0 -1 17.6958 38.2887)" fill="#EDEFF0"/>
<path d="M25.2942 32L26.7942 29L28.2942 32C29.0442 33.5 28.2942 35 26.7942 35C25.2942 35 24.5442 33.5 25.2942 32Z" fill="#58B4FF"/>
</svg>
