<svg width="24" height="24" viewBox="0 0 24 24" fill="none" xmlns="http://www.w3.org/2000/svg">
<path d="M15.9463 7.7207C17.7523 7.7207 19.2831 8.89993 19.8105 10.5303C20.9786 11.083 21.7871 12.2723 21.7871 13.6504C21.7871 14.3089 21.6014 14.9238 21.2812 15.4473C21.012 13.4999 19.3417 12.0002 17.3203 12C16.8465 12 16.3915 12.0831 15.9697 12.2344C15.9684 12.2299 15.9662 12.2252 15.9648 12.2207C16.6831 11.7429 17.1308 11.0677 17.5576 10.0947C17.2912 10.2362 16.065 10.2477 15.7666 10.2783C15.4518 10.3106 15.1512 10.2999 14.8662 10.248C14.3737 9.68467 13.7661 9.22451 13.0801 8.9043C13.8144 8.17257 14.8277 7.72076 15.9463 7.7207Z" fill="#F1F3F6"/>
<path d="M15.9463 7.7207C17.7523 7.7207 19.2831 8.89993 19.8105 10.5303C20.9786 11.083 21.7871 12.2723 21.7871 13.6504L21.7822 13.8281C21.7522 14.4193 21.5721 14.9704 21.2812 15.4463C21.166 14.6146 20.7958 13.8647 20.251 13.2783C20.132 12.6627 19.724 12.1484 19.1689 11.8857L18.583 11.6084L18.3828 10.9922C18.0497 9.96262 17.0828 9.2207 15.9463 9.2207C15.355 9.22075 14.811 9.42012 14.377 9.75781C13.9899 9.41477 13.5543 9.12563 13.0801 8.9043C13.8144 8.17259 14.8277 7.72076 15.9463 7.7207Z" fill="#71767A"/>
<path d="M16.7998 10.5921C16.3593 11.3692 15.7429 12.0338 14.999 12.5218C14.9991 12.5146 15 12.5075 15 12.5003C15 11.9144 14.8728 11.3582 14.6465 10.8568C15.0582 10.9162 15.4851 10.9145 15.917 10.8421C16.225 10.7904 16.5207 10.7057 16.7998 10.5921ZM11.2061 2.07355C12.1086 1.92208 12.9955 2.00921 13.8066 2.29034C11.9015 2.99326 10.6907 5.0284 11.0234 7.17413C11.0988 7.65985 11.2486 8.11373 11.457 8.52667C11.307 8.5096 11.1546 8.50031 11 8.50031C9.4355 8.50031 8.08124 9.39849 7.42383 10.7073C7.05177 10.0847 6.78919 9.37678 6.66992 8.60773C6.18804 5.50041 8.21907 2.57493 11.2061 2.07355Z" fill="#ADCDFF"/>
<path d="M16.7993 10.5924C16.3587 11.3696 15.7427 12.0342 14.9985 12.5221C14.9986 12.5147 14.9995 12.507 14.9995 12.4996C14.9995 11.914 14.8731 11.3583 14.647 10.8571C15.0587 10.9165 15.4856 10.9149 15.9175 10.8424C16.2253 10.7907 16.5204 10.706 16.7993 10.5924ZM11.2056 2.07288C12.1079 1.92145 12.9952 2.00869 13.8062 2.28967C11.9013 2.99262 10.6904 5.02796 11.0229 7.17346C11.0983 7.6593 11.248 8.11392 11.4565 8.52698C11.3067 8.50994 11.1539 8.49963 10.9995 8.49963C10.6106 8.49968 10.2349 8.55623 9.87939 8.65979C9.72529 8.26135 9.60849 7.84121 9.54053 7.40295C9.36603 6.27679 9.51391 5.166 9.91748 4.17639C8.64815 5.04547 7.88407 6.64978 8.15186 8.37756C8.20926 8.74768 8.30986 9.09696 8.44678 9.42053C8.02276 9.77248 7.67292 10.2106 7.42334 10.7076C7.05113 10.0849 6.78872 9.37626 6.66943 8.60706C6.188 5.50015 8.21904 2.57442 11.2056 2.07288Z" fill="#565C65"/>
<path d="M17.4287 20.387C19.2725 20.2305 20.7202 18.6843 20.7202 16.7999C20.7202 14.8117 19.1084 13.1999 17.1202 13.1999C16.78 13.1999 16.4509 13.2471 16.1389 13.3352C15.4371 11.1676 13.4018 9.6001 11.0004 9.6001C8.8429 9.6001 6.98093 10.8653 6.11597 12.6943C6.03042 12.6886 5.94411 12.6857 5.85713 12.6857C3.7269 12.6857 2 14.4126 2 16.5429C2 18.6731 3.7269 20.4 5.85713 20.4C5.85706 20.4 5.85719 20.4 5.85713 20.4L10.9513 20.4C10.9676 20.4002 10.984 20.4002 11.0004 20.4002C11.0168 20.4002 11.0331 20.4002 11.0495 20.4H17.4287V20.387Z" fill="#F1F3F6"/>
<path d="M11 18.8999V20.3999H5.85742V18.8999H11ZM2 16.5425C2.00021 14.4124 3.72732 12.686 5.85742 12.686L6.11621 12.6938C6.98121 10.8652 8.84286 9.60025 11 9.6001C13.3265 9.6001 15.3097 11.0714 16.0693 13.1343L16.1387 13.3354C16.4506 13.2473 16.78 13.1997 17.1201 13.1997C19.1084 13.1997 20.7197 14.812 20.7197 16.8003L20.7158 16.9751C20.6294 18.7793 19.2151 20.2356 17.4287 20.3872V20.3999H11V18.8999H17.21L17.3018 18.8921C18.3756 18.8009 19.2196 17.8986 19.2197 16.8003C19.2197 15.6405 18.2799 14.6997 17.1201 14.6997C16.9193 14.6997 16.7274 14.7278 16.5469 14.7788L15.1572 15.1714L14.7119 13.7974C14.2045 12.2303 12.7321 11.1001 11 11.1001C9.44423 11.1002 8.09796 12.0112 7.47168 13.3354L7.03516 14.2583L6.0166 14.1909C5.96418 14.1874 5.91111 14.186 5.85742 14.186C4.55575 14.186 3.50021 15.2409 3.5 16.5425C3.5 17.8443 4.55562 18.8999 5.85742 18.8999V20.3999L5.6582 20.395C3.62042 20.2915 2 18.606 2 16.5425Z" fill="#71767A"/>
</svg>
