<svg width="24" height="24" viewBox="0 0 24 24" fill="none" xmlns="http://www.w3.org/2000/svg">
<mask id="mask0_2139_1618" style="mask-type:alpha" maskUnits="userSpaceOnUse" x="4" y="0" width="19" height="20">
<path d="M22.7998 19.1997H15.2871C15.9397 18.6876 16.3604 17.8937 16.3604 16.9995C16.3601 15.4534 15.1067 14.1998 13.5605 14.1997C13.2957 14.1997 13.0397 14.2384 12.7969 14.3071C12.2515 12.6203 10.6682 11.3999 8.7998 11.3999C7.12192 11.4001 5.67462 12.3847 5.00195 13.8071C4.93523 13.8027 4.86765 13.8003 4.7998 13.8003C4.59444 13.8003 4.39396 13.8215 4.2002 13.8608V0.600098H22.7998V19.1997Z" fill="#D9D9D9"/>
</mask>
<g mask="url(#mask0_2139_1618)">
<circle cx="13.5503" cy="10.2004" r="4.25" fill="#FACE00" stroke="#DDAA01" stroke-width="1.5"/>
<mask id="path-3-inside-1_2139_1618" fill="white">
<path fill-rule="evenodd" clip-rule="evenodd" d="M13.5502 0.95C13.9645 0.95 14.3002 1.28579 14.3002 1.7V4.24647C14.0545 4.21583 13.8042 4.20005 13.5502 4.20005C13.2962 4.20005 13.0459 4.21583 12.8002 4.24646V1.7C12.8002 1.28579 13.136 0.95 13.5502 0.95ZM11.2227 4.6682L9.94996 2.46377C9.74285 2.10505 9.28416 1.98214 8.92544 2.18925C8.56672 2.39636 8.44381 2.85505 8.65092 3.21377L9.92424 5.41922C10.3213 5.11763 10.757 4.86437 11.2227 4.6682ZM8.7696 6.57377L6.56411 5.30043C6.20539 5.09332 5.7467 5.21623 5.53959 5.57495C5.33249 5.93367 5.45539 6.39236 5.81411 6.59947L8.0185 7.87217C8.2147 7.4065 8.46799 6.97078 8.7696 6.57377ZM7.59662 9.45005H5.05034C4.63613 9.45005 4.30034 9.78584 4.30034 10.2C4.30034 10.6143 4.63613 10.95 5.05034 10.95H7.59662C7.56598 10.7044 7.5502 10.454 7.5502 10.2C7.5502 9.94605 7.56598 9.69574 7.59662 9.45005ZM8.01846 12.5278L5.81424 13.8004C5.45552 14.0075 5.33261 14.4662 5.53972 14.825C5.74683 15.1837 6.20552 15.3066 6.56424 15.0995L8.76954 13.8262C8.46794 13.4292 8.21465 12.9935 8.01846 12.5278ZM9.92412 14.9808L8.65082 17.1862C8.44372 17.5449 8.56662 18.0036 8.92534 18.2107C9.28406 18.4178 9.74275 18.2949 9.94986 17.9362L11.2226 15.7318C10.7569 15.5357 10.3211 15.2824 9.92412 14.9808ZM12.8002 16.1536L12.8002 18.7C12.8002 19.1142 13.136 19.45 13.5502 19.45C13.9645 19.45 14.3002 19.1142 14.3002 18.7L14.3002 16.1536C14.0545 16.1843 13.8042 16.2 13.5502 16.2C13.2962 16.2 13.0459 16.1843 12.8002 16.1536ZM15.8782 15.7317L17.1509 17.9362C17.358 18.2949 17.8167 18.4178 18.1754 18.2107C18.5342 18.0036 18.6571 17.5449 18.45 17.1862L17.1765 14.9806C16.7795 15.2822 16.3438 15.5355 15.8782 15.7317ZM18.331 13.8261L20.5365 15.0995C20.8953 15.3066 21.354 15.1837 21.5611 14.825C21.7682 14.4662 21.6453 14.0075 21.2865 13.8004L19.082 12.5276C18.8858 12.9933 18.6326 13.4291 18.331 13.8261ZM19.5038 10.95L22.0503 10.95C22.4646 10.95 22.8003 10.6143 22.8003 10.2C22.8003 9.78584 22.4646 9.45005 22.0503 9.45005L19.5038 9.45005C19.5344 9.69574 19.5502 9.94605 19.5502 10.2C19.5502 10.454 19.5344 10.7044 19.5038 10.95ZM19.082 7.87235L21.2867 6.59947C21.6454 6.39236 21.7683 5.93367 21.5612 5.57495C21.3541 5.21623 20.8954 5.09332 20.5367 5.30043L18.3309 6.57393C18.6325 6.97094 18.8858 7.40667 19.082 7.87235ZM17.1764 5.41942L18.4499 3.21377C18.657 2.85505 18.5341 2.39636 18.1753 2.18925C17.8166 1.98214 17.3579 2.10505 17.1508 2.46377L15.878 4.66833C16.3437 4.86453 16.7794 5.11781 17.1764 5.41942Z"/>
</mask>
<path d="M14.3002 4.24647L14.1765 5.23879L15.3002 5.37892V4.24647H14.3002ZM12.8002 4.24646H11.8002V5.37889L12.924 5.23878L12.8002 4.24646ZM11.2227 4.6682L11.6109 5.58976L12.6554 5.14976L12.0887 4.1682L11.2227 4.6682ZM9.94996 2.46377L9.08393 2.96377L9.08393 2.96377L9.94996 2.46377ZM8.92544 2.18925L8.42544 1.32322L8.42544 1.32322L8.92544 2.18925ZM8.65092 3.21377L9.51695 2.71377V2.71377L8.65092 3.21377ZM9.92424 5.41922L9.05821 5.91922L9.62556 6.90189L10.5291 6.21553L9.92424 5.41922ZM8.7696 6.57377L9.56587 7.17871L10.2523 6.27513L9.2696 5.70775L8.7696 6.57377ZM6.56411 5.30043L6.06411 6.16646H6.06411L6.56411 5.30043ZM5.53959 5.57495L4.67357 5.07495L4.67357 5.07495L5.53959 5.57495ZM5.81411 6.59947L6.31411 5.73344L6.31411 5.73344L5.81411 6.59947ZM8.0185 7.87217L7.5185 8.7382L8.49999 9.30486L8.94004 8.26045L8.0185 7.87217ZM7.59662 9.45005L8.58893 9.57379L8.72906 8.45005H7.59662V9.45005ZM7.59662 10.95V11.95H8.72906L8.58893 10.8263L7.59662 10.95ZM8.01846 12.5278L8.94001 12.1396L8.49997 11.0951L7.51846 11.6618L8.01846 12.5278ZM5.81424 13.8004L5.31424 12.9344H5.31424L5.81424 13.8004ZM5.53972 14.825L6.40574 14.325L6.40574 14.3249L5.53972 14.825ZM6.56424 15.0995L7.06424 15.9655L6.56424 15.0995ZM8.76954 13.8262L9.26954 14.6923L10.2523 14.1249L9.56582 13.2213L8.76954 13.8262ZM9.92412 14.9808L10.529 14.1845L9.62545 13.4981L9.05809 14.4808L9.92412 14.9808ZM8.65082 17.1862L9.51685 17.6862L8.65082 17.1862ZM9.94986 17.9362L10.8159 18.4362L9.94986 17.9362ZM11.2226 15.7318L12.0886 16.2318L12.6553 15.2503L11.6108 14.8103L11.2226 15.7318ZM12.8002 16.1536L12.924 15.1613L11.8002 15.0212V16.1536H12.8002ZM14.3002 16.1536H15.3002V15.0212L14.1765 15.1613L14.3002 16.1536ZM15.8782 15.7317L15.4899 14.8102L14.4455 15.2502L15.0121 16.2317L15.8782 15.7317ZM17.1509 17.9362L18.0169 17.4362L18.0169 17.4362L17.1509 17.9362ZM18.1754 18.2107L17.6754 17.3447L17.6754 17.3447L18.1754 18.2107ZM18.45 17.1862L19.316 16.6862L19.316 16.6862L18.45 17.1862ZM17.1765 14.9806L18.0426 14.4806L17.4752 13.4978L16.5716 14.1843L17.1765 14.9806ZM18.331 13.8261L17.5347 13.2212L16.8483 14.1248L17.831 14.6921L18.331 13.8261ZM20.5365 15.0995L20.0365 15.9655L20.0365 15.9655L20.5365 15.0995ZM21.5611 14.825L20.695 14.3249L20.695 14.325L21.5611 14.825ZM21.2865 13.8004L20.7865 14.6665L20.7865 14.6665L21.2865 13.8004ZM19.082 12.5276L19.582 11.6616L18.6005 11.0949L18.1604 12.1394L19.082 12.5276ZM19.5038 10.95L18.5115 10.8263L18.3713 11.95H19.5038V10.95ZM19.5038 9.45005V8.45005H18.3713L18.5115 9.57379L19.5038 9.45005ZM19.082 7.87235L18.1604 8.2606L18.6004 9.30506L19.582 8.73838L19.082 7.87235ZM21.2867 6.59947L21.7867 7.4655L21.2867 6.59947ZM20.5367 5.30043L21.0367 6.16646L21.0367 6.16646L20.5367 5.30043ZM18.3309 6.57393L17.8309 5.7079L16.8482 6.27527L17.5346 7.17884L18.3309 6.57393ZM17.1764 5.41942L16.5715 6.2157L17.4751 6.90215L18.0425 5.91942L17.1764 5.41942ZM18.4499 3.21377L19.3159 3.71377V3.71377L18.4499 3.21377ZM17.1508 2.46377L18.0168 2.96377V2.96377L17.1508 2.46377ZM15.878 4.66833L15.012 4.16833L14.4453 5.14983L15.4897 5.58987L15.878 4.66833ZM14.3002 1.7H15.3002C15.3002 0.733501 14.5167 -0.0500001 13.5502 -0.0500001V0.95V1.95C13.4122 1.95 13.3002 1.83807 13.3002 1.7H14.3002ZM14.3002 4.24647H15.3002V1.7H14.3002H13.3002V4.24647H14.3002ZM13.5502 4.20005V5.20005C13.7627 5.20005 13.9717 5.21325 14.1765 5.23879L14.3002 4.24647L14.424 3.25416C14.1373 3.21841 13.8457 3.20005 13.5502 3.20005V4.20005ZM12.8002 4.24646L12.924 5.23878C13.1287 5.21325 13.3377 5.20005 13.5502 5.20005V4.20005V3.20005C13.2548 3.20005 12.9631 3.2184 12.6765 3.25414L12.8002 4.24646ZM12.8002 1.7H11.8002V4.24646H12.8002H13.8002V1.7H12.8002ZM13.5502 0.95V-0.0500001C12.5837 -0.0500001 11.8002 0.733501 11.8002 1.7H12.8002H13.8002C13.8002 1.83807 13.6883 1.95 13.5502 1.95V0.95ZM11.2227 4.6682L12.0887 4.1682L10.816 1.96377L9.94996 2.46377L9.08393 2.96377L10.3567 5.1682L11.2227 4.6682ZM9.94996 2.46377L10.816 1.96377C10.3327 1.12676 9.26245 0.839976 8.42544 1.32322L8.92544 2.18925L9.42544 3.05528C9.30587 3.12431 9.15297 3.08334 9.08393 2.96377L9.94996 2.46377ZM8.92544 2.18925L8.42544 1.32322C7.58843 1.80647 7.30165 2.87676 7.78489 3.71377L8.65092 3.21377L9.51695 2.71377C9.58598 2.83334 9.54501 2.98624 9.42544 3.05528L8.92544 2.18925ZM8.65092 3.21377L7.78489 3.71377L9.05821 5.91922L9.92424 5.41922L10.7903 4.91922L9.51695 2.71377L8.65092 3.21377ZM9.92424 5.41922L10.5291 6.21553C10.8603 5.96399 11.2233 5.75303 11.6109 5.58976L11.2227 4.6682L10.8345 3.74663C10.2907 3.97571 9.78225 4.27128 9.31935 4.6229L9.92424 5.41922ZM8.7696 6.57377L9.2696 5.70775L7.06411 4.43441L6.56411 5.30043L6.06411 6.16646L8.2696 7.4398L8.7696 6.57377ZM6.56411 5.30043L7.06411 4.43441C6.2271 3.95116 5.15682 4.23794 4.67357 5.07495L5.53959 5.57495L6.40562 6.07495C6.33658 6.19452 6.18368 6.23549 6.06411 6.16646L6.56411 5.30043ZM5.53959 5.57495L4.67357 5.07495C4.19032 5.91196 4.4771 6.98225 5.31411 7.4655L5.81411 6.59947L6.31411 5.73344C6.43368 5.80248 6.47465 5.95538 6.40562 6.07495L5.53959 5.57495ZM5.81411 6.59947L5.31411 7.4655L7.5185 8.7382L8.0185 7.87217L8.5185 7.00615L6.31411 5.73344L5.81411 6.59947ZM8.0185 7.87217L8.94004 8.26045C9.10333 7.87289 9.31431 7.50984 9.56587 7.17871L8.7696 6.57377L7.97333 5.96883C7.62167 6.43172 7.32607 6.94011 7.09696 7.4839L8.0185 7.87217ZM7.59662 9.45005V8.45005H5.05034V9.45005L5.05034 10.45H7.59662V9.45005ZM5.05034 9.45005V8.45005C4.08384 8.45005 3.30034 9.23355 3.30034 10.2H4.30034H5.30034C5.30034 10.3381 5.18841 10.45 5.05034 10.45L5.05034 9.45005ZM4.30034 10.2H3.30034C3.30034 11.1665 4.08384 11.95 5.05034 11.95V10.95V9.95005C5.18841 9.95005 5.30034 10.062 5.30034 10.2H4.30034ZM5.05034 10.95V11.95H7.59662V10.95V9.95005H5.05034V10.95ZM7.59662 10.95L8.58893 10.8263C8.5634 10.6216 8.5502 10.4126 8.5502 10.2H7.5502H6.5502C6.5502 10.4955 6.56856 10.7871 6.6043 11.0738L7.59662 10.95ZM7.5502 10.2H8.5502C8.5502 9.98752 8.5634 9.77853 8.58893 9.57379L7.59662 9.45005L6.6043 9.32631C6.56856 9.61295 6.5502 9.90459 6.5502 10.2H7.5502ZM8.01846 12.5278L7.51846 11.6618L5.31424 12.9344L5.81424 13.8004L6.31424 14.6665L8.51846 13.3939L8.01846 12.5278ZM5.81424 13.8004L5.31424 12.9344C4.47723 13.4177 4.19044 14.4879 4.67369 15.325L5.53972 14.825L6.40574 14.3249C6.47478 14.4445 6.43381 14.5974 6.31424 14.6665L5.81424 13.8004ZM5.53972 14.825L4.67369 15.325C5.15694 16.162 6.22723 16.4487 7.06424 15.9655L6.56424 15.0995L6.06424 14.2334C6.18381 14.1644 6.33671 14.2054 6.40574 14.325L5.53972 14.825ZM6.56424 15.0995L7.06424 15.9655L9.26954 14.6923L8.76954 13.8262L8.26954 12.9602L6.06424 14.2334L6.56424 15.0995ZM8.76954 13.8262L9.56582 13.2213C9.31427 12.8902 9.10329 12.5271 8.94001 12.1396L8.01846 12.5278L7.09691 12.9161C7.32602 13.4599 7.62161 13.9683 7.97326 14.4312L8.76954 13.8262ZM9.92412 14.9808L9.05809 14.4808L7.7848 16.6862L8.65082 17.1862L9.51685 17.6862L10.7901 15.4808L9.92412 14.9808ZM8.65082 17.1862L7.7848 16.6862C7.30155 17.5232 7.58833 18.5935 8.42534 19.0767L8.92534 18.2107L9.42534 17.3447C9.54491 17.4137 9.58588 17.5666 9.51685 17.6862L8.65082 17.1862ZM8.92534 18.2107L8.42534 19.0767C9.26235 19.56 10.3326 19.2732 10.8159 18.4362L9.94986 17.9362L9.08384 17.4362C9.15287 17.3166 9.30577 17.2757 9.42534 17.3447L8.92534 18.2107ZM9.94986 17.9362L10.8159 18.4362L12.0886 16.2318L11.2226 15.7318L10.3565 15.2318L9.08384 17.4362L9.94986 17.9362ZM11.2226 15.7318L11.6108 14.8103C11.2232 14.647 10.8602 14.436 10.529 14.1845L9.92412 14.9808L9.31921 15.7771C9.78211 16.1287 10.2905 16.4243 10.8343 16.6534L11.2226 15.7318ZM12.8002 16.1536H11.8002V18.7H12.8002H13.8002L13.8002 16.1536H12.8002ZM12.8002 18.7H11.8002C11.8002 19.6665 12.5837 20.45 13.5502 20.45V19.45V18.45C13.6883 18.45 13.8002 18.5619 13.8002 18.7H12.8002ZM13.5502 19.45V20.45C14.5167 20.45 15.3002 19.6665 15.3002 18.7H14.3002H13.3002C13.3002 18.5619 13.4122 18.45 13.5502 18.45V19.45ZM14.3002 18.7H15.3002L15.3002 16.1536H14.3002H13.3002L13.3002 18.7H14.3002ZM14.3002 16.1536L14.1765 15.1613C13.9717 15.1868 13.7627 15.2 13.5502 15.2V16.2L13.5502 17.2C13.8457 17.2 14.1373 17.1817 14.424 17.1459L14.3002 16.1536ZM13.5502 16.2V15.2C13.3377 15.2 13.1287 15.1868 12.924 15.1613L12.8002 16.1536L12.6765 17.1459C12.9631 17.1817 13.2548 17.2 13.5502 17.2L13.5502 16.2ZM15.8782 15.7317L15.0121 16.2317L16.2849 18.4362L17.1509 17.9362L18.0169 17.4362L16.7442 15.2317L15.8782 15.7317ZM17.1509 17.9362L16.2849 18.4362C16.7681 19.2732 17.8384 19.56 18.6754 19.0767L18.1754 18.2107L17.6754 17.3447C17.795 17.2757 17.9479 17.3166 18.0169 17.4362L17.1509 17.9362ZM18.1754 18.2107L18.6754 19.0767C19.5125 18.5935 19.7992 17.5232 19.316 16.6862L18.45 17.1862L17.5839 17.6862C17.5149 17.5666 17.5559 17.4137 17.6754 17.3447L18.1754 18.2107ZM18.45 17.1862L19.316 16.6862L18.0426 14.4806L17.1765 14.9806L16.3105 15.4806L17.5839 17.6862L18.45 17.1862ZM17.1765 14.9806L16.5716 14.1843C16.2405 14.4359 15.8774 14.6469 15.4899 14.8102L15.8782 15.7317L16.2664 16.6532C16.8102 16.4241 17.3186 16.1285 17.7815 15.7768L17.1765 14.9806ZM18.331 13.8261L17.831 14.6921L20.0365 15.9655L20.5365 15.0995L21.0365 14.2334L18.831 12.9601L18.331 13.8261ZM20.5365 15.0995L20.0365 15.9655C20.8736 16.4487 21.9438 16.162 22.4271 15.3249L21.5611 14.825L20.695 14.325C20.7641 14.2054 20.917 14.1644 21.0365 14.2334L20.5365 15.0995ZM21.5611 14.825L22.4271 15.325C22.9103 14.4879 22.6236 13.4177 21.7865 12.9344L21.2865 13.8004L20.7865 14.6665C20.667 14.5974 20.626 14.4445 20.695 14.3249L21.5611 14.825ZM21.2865 13.8004L21.7865 12.9344L19.582 11.6616L19.082 12.5276L18.582 13.3937L20.7865 14.6665L21.2865 13.8004ZM19.082 12.5276L18.1604 12.1394C17.9972 12.527 17.7862 12.89 17.5347 13.2212L18.331 13.8261L19.1273 14.431C19.4789 13.9681 19.7745 13.4597 20.0036 12.9159L19.082 12.5276ZM19.5038 10.95V11.95L22.0503 11.95V10.95V9.95005L19.5038 9.95005V10.95ZM22.0503 10.95V11.95C23.0168 11.95 23.8003 11.1665 23.8003 10.2H22.8003H21.8003C21.8003 10.062 21.9123 9.95005 22.0503 9.95005V10.95ZM22.8003 10.2H23.8003C23.8003 9.23355 23.0168 8.45005 22.0503 8.45005V9.45005V10.45C21.9123 10.45 21.8003 10.3381 21.8003 10.2H22.8003ZM22.0503 9.45005V8.45005H19.5038V9.45005V10.45L22.0503 10.45V9.45005ZM19.5038 9.45005L18.5115 9.57379C18.537 9.77853 18.5502 9.98752 18.5502 10.2H19.5502L20.5502 10.2C20.5502 9.90459 20.5318 9.61295 20.4961 9.32631L19.5038 9.45005ZM19.5502 10.2H18.5502C18.5502 10.4126 18.537 10.6216 18.5115 10.8263L19.5038 10.95L20.4961 11.0738C20.5318 10.7871 20.5502 10.4955 20.5502 10.2L19.5502 10.2ZM19.082 7.87235L19.582 8.73838L21.7867 7.4655L21.2867 6.59947L20.7867 5.73344L18.582 7.00633L19.082 7.87235ZM21.2867 6.59947L21.7867 7.4655C22.6237 6.98225 22.9105 5.91196 22.4272 5.07495L21.5612 5.57495L20.6952 6.07495C20.6261 5.95538 20.6671 5.80248 20.7867 5.73344L21.2867 6.59947ZM21.5612 5.57495L22.4272 5.07495C21.944 4.23794 20.8737 3.95116 20.0367 4.43441L20.5367 5.30043L21.0367 6.16646C20.9171 6.23549 20.7642 6.19452 20.6952 6.07495L21.5612 5.57495ZM20.5367 5.30043L20.0367 4.43441L17.8309 5.7079L18.3309 6.57393L18.8309 7.43996L21.0367 6.16646L20.5367 5.30043ZM18.3309 6.57393L17.5346 7.17884C17.7862 7.50998 17.9971 7.87304 18.1604 8.2606L19.082 7.87235L20.0035 7.48411C19.7744 6.94031 19.4788 6.43191 19.1272 5.96902L18.3309 6.57393ZM17.1764 5.41942L18.0425 5.91942L19.3159 3.71377L18.4499 3.21377L17.5838 2.71377L16.3104 4.91942L17.1764 5.41942ZM18.4499 3.21377L19.3159 3.71377C19.7991 2.87676 19.5124 1.80647 18.6753 1.32322L18.1753 2.18925L17.6753 3.05528C17.5558 2.98624 17.5148 2.83334 17.5838 2.71377L18.4499 3.21377ZM18.1753 2.18925L18.6753 1.32322C17.8383 0.839976 16.768 1.12676 16.2848 1.96377L17.1508 2.46377L18.0168 2.96377C17.9478 3.08334 17.7949 3.12431 17.6753 3.05528L18.1753 2.18925ZM17.1508 2.46377L16.2848 1.96377L15.012 4.16833L15.878 4.66833L16.744 5.16833L18.0168 2.96377L17.1508 2.46377ZM15.878 4.66833L15.4897 5.58987C15.8773 5.75316 16.2404 5.96414 16.5715 6.2157L17.1764 5.41942L17.7814 4.62314C17.3185 4.27149 16.8101 3.97589 16.2663 3.74678L15.878 4.66833Z" fill="#DDAA01" mask="url(#path-3-inside-1_2139_1618)"/>
</g>
<mask id="path-5-inside-2_2139_1618" fill="white">
<path d="M8.20068 12.6001C6.52254 12.6001 5.07455 13.5847 4.40186 15.0073C4.33516 15.0029 4.26752 15.0005 4.19971 15.0005C2.54303 15.0007 1.19971 16.3438 1.19971 18.0005C1.19991 19.6053 2.46056 20.9161 4.04541 20.9966L4.19971 21.0005H13.1997V20.9878C14.634 20.8663 15.7603 19.6654 15.7603 18.1997C15.7601 16.6535 14.5067 15.4 12.9604 15.3999C12.6956 15.3999 12.4396 15.4386 12.1968 15.5073C11.6515 13.8206 10.0689 12.6003 8.20068 12.6001Z"/>
</mask>
<path d="M8.20068 12.6001C6.52254 12.6001 5.07455 13.5847 4.40186 15.0073C4.33516 15.0029 4.26752 15.0005 4.19971 15.0005C2.54303 15.0007 1.19971 16.3438 1.19971 18.0005C1.19991 19.6053 2.46056 20.9161 4.04541 20.9966L4.19971 21.0005H13.1997V20.9878C14.634 20.8663 15.7603 19.6654 15.7603 18.1997C15.7601 16.6535 14.5067 15.4 12.9604 15.3999C12.6956 15.3999 12.4396 15.4386 12.1968 15.5073C11.6515 13.8206 10.0689 12.6003 8.20068 12.6001Z" fill="#F1F3F6"/>
<path d="M8.20068 12.6001V11.1001H8.20083L8.20068 12.6001ZM4.40186 15.0073L5.75791 15.6485L5.32139 16.5717L4.30245 16.504L4.40186 15.0073ZM4.19971 15.0005L4.19952 13.5005H4.19971V15.0005ZM1.19971 18.0005L-0.300293 18.0007V18.0005H1.19971ZM4.04541 20.9966L4.00745 22.4961L3.98838 22.4956L3.96933 22.4947L4.04541 20.9966ZM4.19971 21.0005V22.5005H4.18072L4.16174 22.5L4.19971 21.0005ZM13.1997 21.0005H14.6997V22.5005H13.1997V21.0005ZM13.1997 20.9878H11.6997V19.6095L13.073 19.4931L13.1997 20.9878ZM15.7603 18.1997L17.2603 18.1995V18.1997H15.7603ZM12.9604 15.3999V13.8999H12.9605L12.9604 15.3999ZM12.1968 15.5073L12.6052 16.9506L11.2142 17.3443L10.7695 15.9687L12.1968 15.5073ZM8.20068 12.6001V14.1001C7.12448 14.1001 6.19215 14.7301 5.75791 15.6485L4.40186 15.0073L3.04581 14.3661C3.95695 12.4392 5.9206 11.1001 8.20068 11.1001V12.6001ZM4.40186 15.0073L4.30245 16.504C4.26665 16.5016 4.23222 16.5005 4.19971 16.5005V15.0005V13.5005C4.30282 13.5005 4.40368 13.5041 4.50126 13.5106L4.40186 15.0073ZM4.19971 15.0005L4.1999 16.5005C3.37131 16.5006 2.69971 17.1724 2.69971 18.0005H1.19971H-0.300293C-0.300293 15.5151 1.71475 13.5008 4.19952 13.5005L4.19971 15.0005ZM1.19971 18.0005L2.69971 18.0003C2.69981 18.8022 3.33033 19.4583 4.12149 19.4985L4.04541 20.9966L3.96933 22.4947C1.5908 22.3739 -0.299986 20.4083 -0.300293 18.0007L1.19971 18.0005ZM4.04541 20.9966L4.08337 19.4971L4.23767 19.501L4.19971 21.0005L4.16174 22.5L4.00745 22.4961L4.04541 20.9966ZM4.19971 21.0005V19.5005H13.1997V21.0005V22.5005H4.19971V21.0005ZM13.1997 21.0005H11.6997V20.9878H13.1997H14.6997V21.0005H13.1997ZM13.1997 20.9878L13.073 19.4931C13.7387 19.4367 14.2603 18.8781 14.2603 18.1997H15.7603H17.2603C17.2603 20.4527 15.5292 22.2958 13.3264 22.4824L13.1997 20.9878ZM15.7603 18.1997L14.2603 18.1999C14.2602 17.4819 13.6781 16.8999 12.9604 16.8999L12.9604 15.3999L12.9605 13.8999C15.3352 13.9 17.26 15.8251 17.2603 18.1995L15.7603 18.1997ZM12.9604 15.3999V16.8999C12.8425 16.8999 12.724 16.917 12.6052 16.9506L12.1968 15.5073L11.7883 14.064C12.1553 13.9602 12.5486 13.8999 12.9604 13.8999V15.3999ZM12.1968 15.5073L10.7695 15.9687C10.4183 14.8824 9.39882 14.1002 8.20054 14.1001L8.20068 12.6001L8.20083 11.1001C10.7391 11.1003 12.8847 12.7587 13.6241 15.0459L12.1968 15.5073Z" fill="#A9AEB1" mask="url(#path-5-inside-2_2139_1618)"/>
<rect x="4.90986" y="15.4099" width="1.8" height="0.6" transform="rotate(30 4.90986 15.4099)" fill="#A9AEB1" stroke="#A9AEB1" stroke-width="0.6"/>
</svg>
