<svg width="24" height="24" viewBox="0 0 24 24" fill="none" xmlns="http://www.w3.org/2000/svg">
<mask id="mask0_2139_2860" style="mask-type:alpha" maskUnits="userSpaceOnUse" x="3" y="1" width="20" height="19">
<path d="M22.7998 19.7997H3V18.1366C3.69171 18.7949 4.62702 19.2 5.65723 19.2001H17.2295V19.1855C19.0728 19.0286 20.5202 17.4843 20.5205 15.6005C20.5205 13.6124 18.9089 12.0002 16.9209 11.9999C16.5807 11.9999 16.2514 12.0484 15.9395 12.1366C15.7701 11.6133 15.522 11.1252 15.2109 10.6855C16.4734 10.3314 17.4004 9.17524 17.4004 7.79971C17.4002 6.14309 16.057 4.79987 14.4004 4.79971C12.7436 4.79971 11.4005 6.14299 11.4004 7.79971C11.4004 8.01956 11.4248 8.23394 11.4697 8.44034C11.2506 8.41325 11.0273 8.40031 10.8008 8.4003C8.64325 8.40033 6.78189 9.66597 5.91699 11.495C5.83136 11.4893 5.7443 11.4862 5.65723 11.4862C4.62705 11.4863 3.6917 11.8907 3 12.5487V1.2001H22.7998V19.7997Z" fill="#D9D9D9"/>
</mask>
<g mask="url(#mask0_2139_2860)">
<path d="M16.5806 8.54999C17.9837 8.54999 19.1798 9.44494 19.6255 10.6974L19.7388 11.0168L20.0532 11.1428C21.0487 11.5415 21.7503 12.5144 21.7505 13.6496C21.7505 15.1407 20.5414 16.3497 19.0503 16.3498C18.8703 16.3498 18.6949 16.3322 18.5259 16.299L18.2778 16.2502L18.0513 16.3615C17.8466 16.4617 17.6283 16.5382 17.3999 16.5871L17.0894 16.6535H9.17041L9.09033 16.6467C8.11609 16.5641 7.35032 15.7462 7.3501 14.7502C7.3501 13.7593 8.10765 12.9435 9.07471 12.8537L9.71729 12.7941L9.75439 12.1506C9.83141 10.8122 10.9422 9.75018 12.3003 9.75018C12.635 9.75021 12.9529 9.81397 13.2437 9.92987L13.7495 10.132L14.0981 9.71405C14.6919 9.00176 15.583 8.55006 16.5806 8.54999Z" fill="#F1F3F6" stroke="#71767A" stroke-width="1.5"/>
</g>
<mask id="mask1_2139_2860" style="mask-type:alpha" maskUnits="userSpaceOnUse" x="1" y="0" width="20" height="20">
<path d="M21 19.1997H17.2295V19.1851C19.0728 19.0282 20.5203 17.484 20.5205 15.6001C20.5204 13.6121 18.9088 11.9998 16.9209 11.9995C16.5808 11.9995 16.2514 12.0481 15.9395 12.1362C15.238 9.96816 13.2024 8.40003 10.8008 8.3999C8.64335 8.39994 6.78194 9.66572 5.91699 11.4946C5.83136 11.4889 5.7443 11.4858 5.65723 11.4858C3.52737 11.4861 1.8011 13.2125 1.80078 15.3423C1.80078 17.4724 3.52717 19.1995 5.65723 19.1997H1.2002V0.600098H21V19.1997Z" fill="#D9D9D9"/>
</mask>
<g mask="url(#mask1_2139_2860)">
<circle cx="12.5997" cy="7.20037" r="2.58333" fill="#FACE00" stroke="#B38C00" stroke-width="1.5"/>
<mask id="path-5-inside-1_2139_2860" fill="white">
<path d="M12.5998 0.783112C13.014 0.783112 13.3498 1.1189 13.3498 1.53311V3.27005C13.1068 3.22394 12.856 3.19981 12.5996 3.19981C12.3433 3.19981 12.0926 3.22391 11.8498 3.26997V1.53311C11.8498 1.1189 12.1855 0.783112 12.5998 0.783112Z"/>
<path d="M10.3514 3.89088L9.12315 2.6626C8.83026 2.3697 8.35539 2.3697 8.06249 2.6626C7.7696 2.95549 7.7696 3.43036 8.06249 3.72326L9.29074 4.95151C9.57442 4.53483 9.93474 4.17453 10.3514 3.89088Z"/>
<path d="M8.66969 6.45015H6.93286C6.51865 6.45015 6.18286 6.78594 6.18286 7.20015C6.18286 7.61437 6.51865 7.95015 6.93286 7.95015H8.66982C8.6237 7.70711 8.59956 7.45628 8.59956 7.19981C8.59956 6.94358 8.62365 6.69298 8.66969 6.45015Z"/>
<path d="M9.2909 9.44835L8.06229 10.677C7.76939 10.9699 7.76939 11.4447 8.06229 11.7376C8.35518 12.0305 8.83005 12.0305 9.12295 11.7376L10.3517 10.5089C9.93495 10.2253 9.57461 9.865 9.2909 9.44835Z"/>
<path d="M11.8498 11.1297V12.8671C11.8498 13.2813 12.1855 13.6171 12.5998 13.6171C13.014 13.6171 13.3498 13.2813 13.3498 12.8671V11.1296C13.1068 11.1757 12.856 11.1998 12.5996 11.1998C12.3433 11.1998 12.0926 11.1757 11.8498 11.1297Z"/>
<path d="M14.8479 10.5086L16.0769 11.7376C16.3698 12.0305 16.8446 12.0305 17.1375 11.7376C17.4304 11.4447 17.4304 10.9699 17.1375 10.677L15.9085 9.44794C15.6248 9.86463 15.2645 10.225 14.8479 10.5086Z"/>
<path d="M16.5293 7.95015H18.2669C18.6811 7.95015 19.0169 7.61437 19.0169 7.20015C19.0169 6.78594 18.6811 6.45015 18.2669 6.45015H16.5294C16.5755 6.69298 16.5996 6.94358 16.5996 7.19981C16.5996 7.45628 16.5754 7.70711 16.5293 7.95015Z"/>
<path d="M15.9087 4.95191L17.1373 3.72326C17.4302 3.43036 17.4302 2.95549 17.1373 2.6626C16.8444 2.3697 16.3695 2.3697 16.0767 2.6626L14.8481 3.89115C15.2647 4.17486 15.625 4.5352 15.9087 4.95191Z"/>
</mask>
<path d="M13.3498 3.27005L13.0701 4.74375L14.8498 5.08143V3.27005H13.3498ZM11.8498 3.26997H10.3498V5.08117L12.1292 4.74371L11.8498 3.26997ZM10.3514 3.89088L11.1955 5.13084L12.6932 4.11132L11.4121 2.83022L10.3514 3.89088ZM9.12315 2.6626L10.1838 1.60194V1.60194L9.12315 2.6626ZM8.06249 3.72326L7.00183 4.78392H7.00183L8.06249 3.72326ZM9.29074 4.95151L8.23008 6.01217L9.51112 7.29321L10.5307 5.79566L9.29074 4.95151ZM8.66969 6.45015L10.1434 6.72958L10.4808 4.95015H8.66969V6.45015ZM8.66982 7.95015V9.45015H10.4813L10.1435 7.67047L8.66982 7.95015ZM9.2909 9.44835L10.5308 8.60411L9.51119 7.10674L8.23024 8.38769L9.2909 9.44835ZM8.06229 10.677L7.00163 9.6163L7.00163 9.6163L8.06229 10.677ZM8.06229 11.7376L7.00163 12.7983L7.00163 12.7983L8.06229 11.7376ZM9.12295 11.7376L8.06229 10.677L8.06229 10.677L9.12295 11.7376ZM10.3517 10.5089L11.4123 11.5696L12.6935 10.2884L11.1957 9.26888L10.3517 10.5089ZM11.8498 11.1297L12.1292 9.65592L10.3498 9.31845V11.1297H11.8498ZM13.3498 11.1296H14.8498V9.31819L13.0701 9.65587L13.3498 11.1296ZM14.8479 10.5086L14.0037 9.2687L12.5062 10.2882L13.7872 11.5693L14.8479 10.5086ZM17.1375 11.7376L16.0769 10.677L16.0769 10.677L17.1375 11.7376ZM15.9085 9.44794L16.9692 8.38728L15.688 7.10617L14.6685 8.60385L15.9085 9.44794ZM16.5293 7.95015L15.0556 7.67047L14.7178 9.45015H16.5293V7.95015ZM16.5294 6.45015V4.95015H14.7183L15.0557 6.72958L16.5294 6.45015ZM15.9087 4.95191L14.6686 5.79591L15.6881 7.29377L16.9693 6.01258L15.9087 4.95191ZM17.1373 3.72326L18.198 4.78392L17.1373 3.72326ZM17.1373 2.6626L16.0767 3.72325L16.0767 3.72326L17.1373 2.6626ZM16.0767 2.6626L17.1373 3.72326L17.1373 3.72325L16.0767 2.6626ZM14.8481 3.89115L13.7874 2.83049L12.5065 4.11144L14.0039 5.13102L14.8481 3.89115ZM13.3498 1.53311H14.8498C14.8498 0.290471 13.8424 -0.716888 12.5998 -0.716888V0.783112V2.28311C12.1855 2.28311 11.8498 1.94732 11.8498 1.53311H13.3498ZM13.3498 3.27005H14.8498V1.53311H13.3498H11.8498V3.27005H13.3498ZM12.5996 3.19981V4.69981C12.7617 4.69981 12.9188 4.71505 13.0701 4.74375L13.3498 3.27005L13.6294 1.79634C13.2947 1.73283 12.9503 1.69981 12.5996 1.69981V3.19981ZM11.8498 3.26997L12.1292 4.74371C12.2804 4.71503 12.4375 4.69981 12.5996 4.69981V3.19981V1.69981C12.249 1.69981 11.9048 1.73279 11.5703 1.79624L11.8498 3.26997ZM11.8498 1.53311H10.3498V3.26997H11.8498H13.3498V1.53311H11.8498ZM12.5998 0.783112V-0.716888C11.3571 -0.716888 10.3498 0.290471 10.3498 1.53311H11.8498H13.3498C13.3498 1.94732 13.014 2.28311 12.5998 2.28311V0.783112ZM10.3514 3.89088L11.4121 2.83022L10.1838 1.60194L9.12315 2.6626L8.06249 3.72326L9.29077 4.95154L10.3514 3.89088ZM9.12315 2.6626L10.1838 1.60194C9.30513 0.723256 7.88051 0.723256 7.00183 1.60194L8.06249 2.6626L9.12315 3.72326C8.83026 4.01615 8.35539 4.01615 8.06249 3.72326L9.12315 2.6626ZM8.06249 2.6626L7.00183 1.60194C6.12315 2.48062 6.12315 3.90524 7.00183 4.78392L8.06249 3.72326L9.12315 2.6626C9.41605 2.95549 9.41605 3.43036 9.12315 3.72326L8.06249 2.6626ZM8.06249 3.72326L7.00183 4.78392L8.23008 6.01217L9.29074 4.95151L10.3514 3.89085L9.12315 2.6626L8.06249 3.72326ZM9.29074 4.95151L10.5307 5.79566C10.7084 5.53459 10.9344 5.30857 11.1955 5.13084L10.3514 3.89088L9.50735 2.65091C8.93504 3.04049 8.44044 3.53507 8.05082 4.10736L9.29074 4.95151ZM8.66969 6.45015V4.95015H6.93286V6.45015V7.95015H8.66969V6.45015ZM6.93286 6.45015V4.95015C5.69022 4.95015 4.68286 5.95751 4.68286 7.20015H6.18286H7.68286C7.68286 7.61437 7.34707 7.95015 6.93286 7.95015V6.45015ZM6.18286 7.20015H4.68286C4.68286 8.44279 5.69022 9.45015 6.93286 9.45015V7.95015V6.45015C7.34707 6.45015 7.68286 6.78594 7.68286 7.20015H6.18286ZM6.93286 7.95015V9.45015H8.66982V7.95015V6.45015H6.93286V7.95015ZM8.66982 7.95015L10.1435 7.67047C10.1148 7.51916 10.0996 7.36196 10.0996 7.19981H8.59956H7.09956C7.09956 7.55059 7.13259 7.89505 7.19613 8.22984L8.66982 7.95015ZM8.59956 7.19981H10.0996C10.0996 7.03781 10.1148 6.88076 10.1434 6.72958L8.66969 6.45015L7.19595 6.17073C7.13253 6.50521 7.09956 6.84936 7.09956 7.19981H8.59956ZM9.2909 9.44835L8.23024 8.38769L7.00163 9.6163L8.06229 10.677L9.12295 11.7376L10.3516 10.509L9.2909 9.44835ZM8.06229 10.677L7.00163 9.6163C6.12295 10.495 6.12295 11.9196 7.00163 12.7983L8.06229 11.7376L9.12295 10.677C9.41584 10.9699 9.41584 11.4447 9.12295 11.7376L8.06229 10.677ZM8.06229 11.7376L7.00163 12.7983C7.88031 13.677 9.30493 13.677 10.1836 12.7983L9.12295 11.7376L8.06229 10.677C8.35518 10.3841 8.83005 10.3841 9.12295 10.677L8.06229 11.7376ZM9.12295 11.7376L10.1836 12.7983L11.4123 11.5696L10.3517 10.5089L9.291 9.44824L8.06229 10.677L9.12295 11.7376ZM10.3517 10.5089L11.1957 9.26888C10.9346 9.09117 10.7085 8.86516 10.5308 8.60411L9.2909 9.44835L8.05104 10.2926C8.44069 10.8648 8.93533 11.3594 9.50767 11.7489L10.3517 10.5089ZM11.8498 11.1297H10.3498V12.8671H11.8498H13.3498V11.1297H11.8498ZM11.8498 12.8671H10.3498C10.3498 14.1098 11.3571 15.1171 12.5998 15.1171V13.6171V12.1171C13.014 12.1171 13.3498 12.4529 13.3498 12.8671H11.8498ZM12.5998 13.6171V15.1171C13.8424 15.1171 14.8498 14.1098 14.8498 12.8671H13.3498H11.8498C11.8498 12.4529 12.1855 12.1171 12.5998 12.1171V13.6171ZM13.3498 12.8671H14.8498V11.1296H13.3498H11.8498V12.8671H13.3498ZM13.3498 11.1296L13.0701 9.65587C12.9188 9.68458 12.7617 9.69981 12.5996 9.69981V11.1998V12.6998C12.9503 12.6998 13.2947 12.6668 13.6294 12.6033L13.3498 11.1296ZM12.5996 11.1998V9.69981C12.4375 9.69981 12.2804 9.68459 12.1292 9.65592L11.8498 11.1297L11.5703 12.6034C11.9048 12.6668 12.249 12.6998 12.5996 12.6998V11.1998ZM14.8479 10.5086L13.7872 11.5693L15.0162 12.7983L16.0769 11.7376L17.1375 10.677L15.9085 9.44797L14.8479 10.5086ZM16.0769 11.7376L15.0162 12.7983C15.8949 13.677 17.3195 13.677 18.1982 12.7983L17.1375 11.7376L16.0769 10.677C16.3698 10.3841 16.8446 10.3841 17.1375 10.677L16.0769 11.7376ZM17.1375 11.7376L18.1982 12.7983C19.0769 11.9196 19.0769 10.495 18.1982 9.6163L17.1375 10.677L16.0769 11.7376C15.784 11.4447 15.784 10.9699 16.0769 10.677L17.1375 11.7376ZM17.1375 10.677L18.1982 9.6163L16.9692 8.38728L15.9085 9.44794L14.8478 10.5086L16.0769 11.7376L17.1375 10.677ZM15.9085 9.44794L14.6685 8.60385C14.4908 8.86493 14.2648 9.09097 14.0037 9.2687L14.8479 10.5086L15.692 11.7486C16.2643 11.3589 16.7589 10.8643 17.1485 10.292L15.9085 9.44794ZM16.5293 7.95015V9.45015H18.2669V7.95015V6.45015H16.5293V7.95015ZM18.2669 7.95015V9.45015C19.5095 9.45015 20.5169 8.44279 20.5169 7.20015H19.0169H17.5169C17.5169 6.78594 17.8527 6.45015 18.2669 6.45015V7.95015ZM19.0169 7.20015H20.5169C20.5169 5.95751 19.5095 4.95015 18.2669 4.95015V6.45015V7.95015C17.8527 7.95015 17.5169 7.61437 17.5169 7.20015H19.0169ZM18.2669 6.45015V4.95015H16.5294V6.45015V7.95015H18.2669V6.45015ZM16.5294 6.45015L15.0557 6.72958C15.0843 6.88076 15.0996 7.03781 15.0996 7.19981H16.5996H18.0996C18.0996 6.84936 18.0666 6.50521 18.0032 6.17073L16.5294 6.45015ZM16.5996 7.19981H15.0996C15.0996 7.36196 15.0843 7.51916 15.0556 7.67047L16.5293 7.95015L18.003 8.22984C18.0665 7.89506 18.0996 7.55059 18.0996 7.19981H16.5996ZM15.9087 4.95191L16.9693 6.01258L18.198 4.78392L17.1373 3.72326L16.0767 2.6626L14.848 3.89125L15.9087 4.95191ZM17.1373 3.72326L18.198 4.78392C19.0767 3.90524 19.0767 2.48062 18.198 1.60194L17.1373 2.6626L16.0767 3.72326C15.7838 3.43036 15.7838 2.95549 16.0767 2.6626L17.1373 3.72326ZM17.1373 2.6626L18.198 1.60194C17.3193 0.723256 15.8947 0.723256 15.016 1.60194L16.0767 2.6626L17.1373 3.72325C16.8444 4.01615 16.3695 4.01615 16.0767 3.72325L17.1373 2.6626ZM16.0767 2.6626L15.016 1.60194L13.7874 2.83049L14.8481 3.89115L15.9088 4.95181L17.1373 3.72326L16.0767 2.6626ZM14.8481 3.89115L14.0039 5.13102C14.2649 5.30877 14.4909 5.53482 14.6686 5.79591L15.9087 4.95191L17.1487 4.10792C16.7591 3.53558 16.2646 3.04094 15.6923 2.65129L14.8481 3.89115Z" fill="#B38C00" mask="url(#path-5-inside-1_2139_2860)"/>
</g>
<mask id="path-7-inside-2_2139_2860" fill="white">
<path d="M10.2002 9.60016C8.04264 9.60016 6.18132 10.8658 5.31641 12.6949C5.23064 12.6892 5.14385 12.6851 5.05664 12.6851C2.92659 12.6853 1.20027 14.4125 1.2002 16.5425C1.2002 18.6062 2.82043 20.2918 4.8584 20.3951L5.05664 20.4H16.6289V20.3853C18.4724 20.2285 19.9199 18.6844 19.9199 16.8004C19.9199 14.8122 18.3084 13.2 16.3203 13.1998C15.9801 13.1998 15.6508 13.2483 15.3389 13.3365C14.6374 11.1683 12.602 9.60018 10.2002 9.60016Z"/>
</mask>
<path d="M10.2002 9.60016C8.04264 9.60016 6.18132 10.8658 5.31641 12.6949C5.23064 12.6892 5.14385 12.6851 5.05664 12.6851C2.92659 12.6853 1.20027 14.4125 1.2002 16.5425C1.2002 18.6062 2.82043 20.2918 4.8584 20.3951L5.05664 20.4H16.6289V20.3853C18.4724 20.2285 19.9199 18.6844 19.9199 16.8004C19.9199 14.8122 18.3084 13.2 16.3203 13.1998C15.9801 13.1998 15.6508 13.2483 15.3389 13.3365C14.6374 11.1683 12.602 9.60018 10.2002 9.60016Z" fill="#F1F3F6"/>
<path d="M10.2002 9.60016V8.10016H10.2002L10.2002 9.60016ZM5.31641 12.6949L6.67244 13.3361L6.2359 14.2593L5.21697 14.1916L5.31641 12.6949ZM5.05664 12.6851L5.05653 11.1851H5.05664V12.6851ZM1.2002 16.5425H-0.299805V16.5425L1.2002 16.5425ZM4.8584 20.3951L4.82146 21.8946L4.80195 21.8941L4.78245 21.8932L4.8584 20.3951ZM5.05664 20.4V21.9H5.03817L5.01971 21.8995L5.05664 20.4ZM16.6289 20.4H18.1289V21.9H16.6289V20.4ZM16.6289 20.3853H15.1289V19.0075L16.5018 18.8907L16.6289 20.3853ZM19.9199 16.8004H21.4199V16.8004L19.9199 16.8004ZM16.3203 13.1998V11.6998H16.3205L16.3203 13.1998ZM15.3389 13.3365L15.7469 14.7799L14.3565 15.1729L13.9117 13.7982L15.3389 13.3365ZM10.2002 9.60016V11.1002C8.64461 11.1002 7.29892 12.0113 6.67244 13.3361L5.31641 12.6949L3.96038 12.0537C5.06373 9.72037 7.44068 8.10016 10.2002 8.10016V9.60016ZM5.31641 12.6949L5.21697 14.1916C5.14951 14.1871 5.09859 14.1851 5.05664 14.1851V12.6851V11.1851C5.18912 11.1851 5.31176 11.1913 5.41584 11.1982L5.31641 12.6949ZM5.05664 12.6851L5.05675 14.1851C3.75548 14.1852 2.70024 15.2405 2.7002 16.5426L1.2002 16.5425L-0.299805 16.5425C-0.299698 13.5845 2.0977 11.1853 5.05653 11.1851L5.05664 12.6851ZM1.2002 16.5425H2.7002C2.7002 17.8036 3.6906 18.8339 4.93435 18.897L4.8584 20.3951L4.78245 21.8932C1.95025 21.7496 -0.299805 19.4088 -0.299805 16.5425H1.2002ZM4.8584 20.3951L4.89533 18.8955L5.09358 18.9004L5.05664 20.4L5.01971 21.8995L4.82146 21.8946L4.8584 20.3951ZM5.05664 20.4V18.9H16.6289V20.4V21.9H5.05664V20.4ZM16.6289 20.4H15.1289V20.3853H16.6289H18.1289V20.4H16.6289ZM16.6289 20.3853L16.5018 18.8907C17.5767 18.7993 18.4199 17.8975 18.4199 16.8003L19.9199 16.8004L21.4199 16.8004C21.4198 19.4713 19.3681 21.6577 16.756 21.8799L16.6289 20.3853ZM19.9199 16.8004H18.4199C18.4199 15.6403 17.4795 14.6999 16.3201 14.6998L16.3203 13.1998L16.3205 11.6998C19.1372 11.7001 21.4199 13.9842 21.4199 16.8004H19.9199ZM16.3203 13.1998V14.6998C16.1234 14.6998 15.9313 14.7278 15.7469 14.7799L15.3389 13.3365L14.9309 11.893C15.3703 11.7688 15.8368 11.6998 16.3203 11.6998V13.1998ZM15.3389 13.3365L13.9117 13.7982C13.4046 12.2307 11.9325 11.1002 10.2002 11.1002L10.2002 9.60016L10.2002 8.10016C13.2715 8.10019 15.8702 10.1059 16.766 12.8748L15.3389 13.3365Z" fill="#71767A" mask="url(#path-7-inside-2_2139_2860)"/>
</svg>
