<svg width="24" height="24" viewBox="0 0 24 24" fill="none" xmlns="http://www.w3.org/2000/svg">
<path d="M17.3965 7.88672C18.7626 8.17141 19.8721 9.15354 20.332 10.4463C21.6025 10.9552 22.5 12.1981 22.5 13.6504C22.4998 15.1187 21.5819 16.3712 20.2891 16.8691C20.4379 16.4746 20.5204 16.0473 20.5205 15.6006C20.5205 13.6126 18.9088 12.0004 16.9209 12C16.5808 12 16.2514 12.0486 15.9395 12.1367C15.7702 11.6135 15.522 11.1253 15.2109 10.6855C16.4466 10.339 17.3584 9.22376 17.3965 7.88672Z" fill="#F7F9FA"/>
<path d="M17.3965 7.88672C18.7626 8.17155 19.8731 9.15361 20.333 10.4463C21.603 10.9553 22.5008 12.1976 22.501 13.6494L22.4961 13.8271C22.4256 15.2186 21.5297 16.3914 20.2891 16.8691C20.4379 16.4746 20.5204 16.0473 20.5205 15.6006C20.5205 15.3911 20.5011 15.186 20.4668 14.9863C20.7965 14.6371 21.001 14.1676 21.001 13.6494C21.0008 12.8314 20.4958 12.1267 19.7754 11.8379L19.1465 11.5869L18.9199 10.9482C18.6201 10.1059 17.8779 9.47562 16.9766 9.33105C17.2304 8.90615 17.3814 8.41433 17.3965 7.88672Z" fill="#A9AEB1"/>
<path d="M12.6001 3.8671C14.4409 3.86718 15.933 5.35933 15.9331 7.2001C15.9331 8.31623 15.3837 9.30313 14.5415 9.90811C13.5709 8.97483 12.2531 8.4003 10.8003 8.4003C10.3698 8.40031 9.95163 8.45257 9.55029 8.54776C9.36799 8.13574 9.26611 7.67964 9.26611 7.2001C9.26626 5.35928 10.7592 3.8671 12.6001 3.8671Z" fill="#FACE00"/>
<path d="M12.6001 3.8671C14.4407 3.86736 15.9339 5.35947 15.9341 7.2001L15.9292 7.37198C15.8762 8.41741 15.3384 9.33228 14.5396 9.90616C14.1356 9.51807 13.6717 9.19239 13.1626 8.94424C13.8996 8.70637 14.4341 8.01604 14.4341 7.2001C14.4339 6.18789 13.6123 5.36736 12.6001 5.3671C11.5878 5.36727 10.7673 6.18784 10.7671 7.2001C10.7671 7.66729 10.9423 8.093 11.23 8.4169C11.0882 8.40574 10.9449 8.4003 10.8003 8.4003C10.3709 8.40031 9.95364 8.45205 9.55322 8.54678C9.37078 8.13463 9.26612 7.67982 9.26611 7.2001C9.26629 5.35941 10.7594 3.86727 12.6001 3.8671Z" fill="#DDAA01"/>
<path d="M17.1382 10.6767C17.4309 10.9694 17.4306 11.4443 17.1382 11.7372L17.0806 11.789C16.786 12.0292 16.3512 12.0118 16.0767 11.7372L15.5259 11.1864C15.372 10.9088 15.1943 10.6462 14.9956 10.4013C15.3497 10.1359 15.6593 9.81445 15.9087 9.44815L17.1382 10.6767ZM8.67041 6.4501C8.62437 6.69293 8.6001 6.94388 8.6001 7.2001C8.60012 7.45646 8.6243 7.70716 8.67041 7.9501H6.93311C6.51889 7.9501 6.18311 7.61432 6.18311 7.2001C6.18314 6.81197 6.47801 6.49263 6.85596 6.45401L6.93311 6.4501H8.67041ZM18.2671 6.4501C18.6813 6.4501 19.0171 6.78592 19.0171 7.2001C19.0171 7.61432 18.6813 7.9501 18.2671 7.9501H16.5298C16.5759 7.70718 16.6001 7.45643 16.6001 7.2001C16.6001 6.94388 16.5758 6.69293 16.5298 6.4501H18.2671ZM16.0767 2.66299C16.3695 2.37011 16.8443 2.37012 17.1372 2.66299C17.4301 2.95589 17.4301 3.43066 17.1372 3.72354L15.9087 4.95206C15.6251 4.53537 15.2648 4.17521 14.8481 3.89151L16.0767 2.66299ZM8.06299 2.66299C8.35588 2.3701 8.83064 2.37011 9.12354 2.66299L10.3521 3.89053C9.93539 4.17417 9.57419 4.53444 9.29053 4.95108L8.06299 3.72354C7.77013 3.43067 7.77017 2.95589 8.06299 2.66299ZM12.6001 0.783112C13.0143 0.783164 13.3501 1.11893 13.3501 1.53311V3.27042C13.1072 3.22433 12.8564 3.20012 12.6001 3.2001C12.3438 3.20011 12.093 3.22436 11.8501 3.27042V1.53311C11.8501 1.1189 12.1859 0.783122 12.6001 0.783112Z" fill="#DDAA01"/>
<path d="M16.6289 20.3868C18.4727 20.2303 19.9204 18.6841 19.9204 16.7998C19.9204 14.8116 18.3086 13.1998 16.3204 13.1998C15.9802 13.1998 15.6511 13.247 15.3391 13.3351C14.6373 11.1675 12.602 9.59998 10.2006 9.59998C8.04309 9.59998 6.18112 10.8652 5.31617 12.6942C5.23062 12.6885 5.14431 12.6856 5.05732 12.6856C2.92709 12.6856 1.2002 14.4125 1.2002 16.5427C1.2002 18.673 2.92709 20.3999 5.05732 20.3999C5.05726 20.3999 5.05739 20.3999 5.05732 20.3999L10.1515 20.3999C10.1678 20.4 10.1842 20.4001 10.2006 20.4001C10.217 20.4001 10.2333 20.4 10.2497 20.3999H16.6289V20.3868Z" fill="#F7F9FA"/>
<path d="M10.2002 18.8998V20.3998H5.05762V18.8998H10.2002ZM1.2002 16.5424C1.2004 14.4123 2.92751 12.6859 5.05762 12.6859L5.31641 12.6937C6.1814 10.8651 8.04305 9.60012 10.2002 9.59998C12.5267 9.59998 14.5099 11.0713 15.2695 13.1342L15.3389 13.3353C15.6508 13.2472 15.9802 13.1996 16.3203 13.1996C18.3086 13.1996 19.9199 14.8119 19.9199 16.8002L19.916 16.975C19.8296 18.7792 18.4153 20.2355 16.6289 20.3871V20.3998H10.2002V18.8998H16.4102L16.502 18.892C17.5758 18.8008 18.4197 17.8984 18.4199 16.8002C18.4199 15.6403 17.4801 14.6996 16.3203 14.6996C16.1195 14.6996 15.9275 14.7277 15.7471 14.7787L14.3574 15.1713L13.9121 13.7972C13.4047 12.2302 11.9323 11.1 10.2002 11.1C8.64443 11.1001 7.29816 12.011 6.67188 13.3353L6.23535 14.2582L5.2168 14.1908C5.16437 14.1873 5.1113 14.1859 5.05762 14.1859C3.75594 14.1859 2.7004 15.2407 2.7002 16.5424C2.7002 17.8442 3.75581 18.8998 5.05762 18.8998V20.3998L4.8584 20.3949C2.82061 20.2914 1.2002 18.6059 1.2002 16.5424Z" fill="#A9AEB1"/>
</svg>
