<svg width="40" height="40" viewBox="0 0 40 40" fill="none" xmlns="http://www.w3.org/2000/svg">
<path d="M27.6348 11C30.5186 11.0001 32.9723 12.8402 33.8867 15.4102C36.0041 16.2583 37.5 18.3296 37.5 20.75C37.5 23.0497 36.1491 25.0324 34.1982 25.9521C34.1725 22.6604 31.498 20 28.2002 20C27.6794 20 27.1751 20.0704 26.6934 20.1953C26.7113 20.1865 26.7301 20.1789 26.748 20.1699C29.4098 18.8379 30.3377 17.2332 30.9521 14.46C30.5425 14.7938 28.4389 15.2304 27.9355 15.3848C25.6544 16.0847 23.794 15.3432 22.2129 13.2725C22.3221 13.3082 22.4301 13.3464 22.5361 13.3887C23.7532 11.9289 25.5856 11 27.6348 11Z" fill="#F1F3F6"/>
<path d="M27.9033 11.0049C30.6701 11.1151 33.0008 12.9203 33.8867 15.4102C36.0041 16.2583 37.4999 18.3296 37.5 20.75L37.4922 21.0459C37.382 23.2191 36.0649 25.0731 34.1982 25.9531C34.1927 25.2235 34.0574 24.5254 33.8135 23.8799C34.8291 23.2089 35.5 22.0583 35.5 20.75C35.4999 19.1747 34.528 17.8212 33.1436 17.2666L32.3057 16.9307L32.0029 16.0811C31.3632 14.283 29.6461 13.0001 27.6348 13C26.2039 13 24.9256 13.6463 24.0723 14.6699L23.8857 14.8926C23.2936 14.5024 22.7381 13.9612 22.2129 13.2734C22.2408 13.2826 22.2692 13.2902 22.2969 13.2998L22.5361 13.3887C23.7532 11.9289 25.5856 11 27.6348 11L27.9033 11.0049Z" fill="#71767A"/>
<path d="M28.9995 16.3211C28.3127 17.5325 27.3694 18.5787 26.2358 19.3748C25.7497 18.2717 25.0499 17.2844 24.187 16.4666C25.2313 16.8215 26.3699 16.9317 27.5298 16.7371C28.0429 16.651 28.5345 16.5103 28.9995 16.3211ZM19.6782 2.12283C21.1822 1.87048 22.6595 2.01572 24.0112 2.48416C20.8363 3.65581 18.8181 7.04684 19.3726 10.6228C19.6179 12.2047 20.3317 13.5866 21.3413 14.6433C20.308 14.2296 19.1808 13.9998 17.9995 13.9998C16.102 13.9999 14.342 14.5877 12.8911 15.5906C12.5257 14.7929 12.2598 13.929 12.1177 13.0125C11.3147 7.83364 14.6999 2.95832 19.6782 2.12283Z" fill="#ADCDFF"/>
<path d="M29.0005 16.3203C28.3136 17.5319 27.3696 18.5777 26.2358 19.374C25.7497 18.2714 25.0506 17.2844 24.188 16.4668C25.2323 16.8216 26.371 16.9319 27.5308 16.7373C28.0439 16.6511 28.5354 16.5096 29.0005 16.3203ZM19.6782 2.12302C21.1824 1.87057 22.6603 2.01579 24.0122 2.48434C20.8371 3.65591 18.819 7.04686 19.3735 10.623C19.6187 12.204 20.3316 13.5851 21.3403 14.6416C20.4345 14.2791 19.4564 14.0592 18.4331 14.0107C17.9274 13.0758 17.569 12.039 17.397 10.9297C17.0366 8.60605 17.5406 6.32741 18.6772 4.45993C15.5701 5.65904 13.5271 9.04169 14.0952 12.706C14.202 13.3948 14.3946 14.0428 14.6567 14.6425C14.0298 14.8938 13.4372 15.2127 12.8892 15.5918C12.5882 14.9348 12.3565 14.2324 12.2046 13.4931L12.1187 13.0127C11.3407 7.99567 14.4925 3.26342 19.2163 2.21286L19.6782 2.12302Z" fill="#565C65"/>
<path d="M27.7142 33.9781C30.7874 33.7175 33.2004 31.1404 33.2004 27.9998C33.2004 24.686 30.5141 21.9997 27.2003 21.9997C26.6333 21.9997 26.0846 22.0783 25.5646 22.2254C24.3949 18.6126 21.0027 16 17.0003 16C13.4045 16 10.3012 18.1087 8.85963 21.157C8.71716 21.1475 8.57341 21.1428 8.42855 21.1428C4.87816 21.1428 2 24.0209 2 27.5713C2 31.1217 4.87816 33.9998 8.42855 33.9998H16.9147C16.9432 34.0001 16.9717 34.0002 17.0003 34.0002C17.0289 34.0002 17.0574 34.0001 17.0859 33.9998H27.7142V33.9781Z" fill="#F1F3F6"/>
<path d="M17.0001 32.0002V34.0002H8.42876V32.0002H17.0001ZM2 27.5714C2 24.021 4.87834 21.1426 8.42876 21.1426L8.85942 21.1573C10.301 18.1091 13.4044 16.0001 17.0001 16C20.8774 16 24.1822 18.4519 25.4484 21.8897L25.5646 22.2257C26.0846 22.0787 26.6333 22.0001 27.2004 22.0001L27.509 22.0079C30.6794 22.1685 33.2004 24.7898 33.2004 28.0002L33.1936 28.2931C33.0489 31.2997 30.6911 33.7263 27.714 33.9788V34.0002H17.0001V32.0002H27.3722L27.5451 31.9856C29.5918 31.812 31.2003 30.0928 31.2004 28.0002C31.2004 25.7909 29.4096 24.0001 27.2004 24.0001C26.8191 24.0001 26.4532 24.0531 26.1086 24.1505L24.255 24.6739L23.6623 22.8419C22.7518 20.0298 20.1101 18 17.0001 18C14.2066 18.0001 11.7915 19.6366 10.668 22.0118L10.086 23.2423L8.72759 23.1524C8.6291 23.1459 8.52944 23.1427 8.42876 23.1427C5.98292 23.1427 4.00002 25.1256 4.00001 27.5714C4.00001 30.0173 5.98292 32.0002 8.42876 32.0002V34.0002L8.0977 33.9915C4.70107 33.8192 2 31.0109 2 27.5714Z" fill="#71767A"/>
</svg>
