<svg width="24" height="24" viewBox="0 0 24 24" fill="none" xmlns="http://www.w3.org/2000/svg">
<path d="M11.6909 1.88928C12.8057 1.70598 13.9009 1.81167 14.9028 2.15198C12.5495 3.00288 11.0533 5.46567 11.4644 8.06311C11.9273 10.9887 14.6344 12.9773 17.5103 12.5045C17.8907 12.442 18.2553 12.3393 18.6001 12.2018C17.895 13.4206 16.8261 14.41 15.52 15.0016C15.015 14.5062 14.3233 14.1999 13.5601 14.1998C13.2954 14.1999 13.0391 14.2386 12.7964 14.3073C12.251 12.6204 10.6677 11.4 8.79932 11.4C8.06804 11.4002 7.38032 11.5868 6.78174 11.9156C6.44799 11.2697 6.20777 10.5591 6.0874 9.79846C5.49236 6.03705 8.00113 2.4961 11.6909 1.88928Z" fill="#ADCDFF"/>
<path d="M11.6899 1.8886C12.8045 1.70529 13.9001 1.81119 14.9019 2.15129C12.549 3.00232 11.0537 5.46544 11.4644 8.06242C11.9273 10.988 14.6344 12.9766 17.5103 12.5038C17.8904 12.4413 18.2546 12.3385 18.5991 12.2011C17.894 13.4199 16.826 14.4102 15.52 15.0019C15.015 14.5064 14.3234 14.2002 13.5601 14.2001C13.2954 14.2002 13.0391 14.2389 12.7964 14.3075C12.7733 14.236 12.7451 14.1664 12.7183 14.0966C13.0099 14.0993 13.3053 14.079 13.6021 14.0302C13.9566 13.9719 14.2972 13.8764 14.6216 13.7519C12.2552 12.9892 10.3999 10.9317 9.98291 8.2968C9.71981 6.63311 10.0704 5.00713 10.8706 3.66301C8.60918 4.55705 7.15979 6.97833 7.56885 9.56438C7.67716 10.2485 7.90717 10.8791 8.229 11.4394C7.70979 11.51 7.22053 11.6745 6.77979 11.9169C6.49751 11.3707 6.28298 10.7774 6.15088 10.1474L6.08643 9.79875C5.49142 6.03753 8.00045 2.49567 11.6899 1.8886Z" fill="#565C65"/>
<path d="M20.4001 6.60039L20.8863 7.91422L22.2001 8.40039L20.8863 8.88655L20.4001 10.2004L19.9139 8.88655L18.6001 8.40039L19.9139 7.91422L20.4001 6.60039Z" fill="#8D9297"/>
<path d="M17.4001 2.40015L17.8863 3.71398L19.2001 4.20015L17.8863 4.68631L17.4001 6.00015L16.9139 4.68631L15.6001 4.20015L16.9139 3.71398L17.4001 2.40015Z" fill="#8D9297"/>
<path d="M15.0002 6.00014L15.4864 7.31397L16.8002 7.80014L15.4864 8.2863L15.0002 9.60014L14.514 8.2863L13.2002 7.80014L14.514 7.31397L15.0002 6.00014Z" fill="#8D9297"/>
<path d="M13.2002 20.9899C14.6344 20.8683 15.7604 19.6657 15.7604 18.2C15.7604 16.6536 14.5068 15.4 12.9604 15.4C12.6958 15.4 12.4397 15.4367 12.197 15.5053C11.6512 13.8193 10.0682 12.6001 8.20037 12.6001C6.52232 12.6001 5.07411 13.5842 4.40137 15.0067C4.33488 15.0023 4.2678 15.0001 4.2002 15.0001C2.54334 15.0001 1.2002 16.3432 1.2002 18.0001C1.2002 19.6569 2.54334 21.0001 4.2002 21.0001H8.16032C8.17366 21.0002 8.187 21.0002 8.20037 21.0002C8.21373 21.0002 8.22708 21.0002 8.24041 21.0001H13.2002V20.9899Z" fill="#F1F3F6"/>
<path d="M8.2002 19.5005V21.0005H4.2002V19.5005H8.2002ZM1.2002 18.0005C1.2002 16.3436 2.54334 15.0005 4.2002 15.0005L4.40137 15.0063C5.07415 13.584 6.52233 12.6002 8.2002 12.6001C9.95129 12.6001 11.4525 13.6716 12.083 15.1948L12.1973 15.5054C12.4397 15.4368 12.6956 15.3999 12.96 15.3999C14.5063 15.3999 15.7606 16.6534 15.7607 18.1997L15.7471 18.4712C15.6182 19.8116 14.5448 20.8757 13.2002 20.9897V21.0005H8.2002V19.5005C8.20892 19.5005 8.21796 19.5006 8.22656 19.5005L8.24023 19.4995V19.5005H13.0156L13.0732 19.4956C13.7375 19.4393 14.2607 18.8794 14.2607 18.1997C14.2606 17.4818 13.6779 16.8999 12.96 16.8999C12.8349 16.8999 12.7164 16.9174 12.6055 16.9487L11.2148 17.3413L10.7695 15.9673C10.4181 14.882 9.39858 14.1001 8.2002 14.1001C7.12385 14.1002 6.19195 14.7301 5.75781 15.6479L5.32129 16.5708L4.30273 16.5034C4.26919 16.5012 4.2347 16.5005 4.2002 16.5005C3.37177 16.5005 2.7002 17.1721 2.7002 18.0005C2.70043 18.8287 3.37191 19.5005 4.2002 19.5005V21.0005L4.0459 20.9966C2.51199 20.9189 1.28203 19.6886 1.2041 18.1548L1.2002 18.0005Z" fill="#71767A"/>
<rect x="4.9101" y="15.4099" width="1.8" height="0.6" transform="rotate(30 4.9101 15.4099)" fill="#71767A" stroke="#71767A" stroke-width="0.6"/>
</svg>
