<svg width="40" height="40" viewBox="0 0 40 40" fill="none" xmlns="http://www.w3.org/2000/svg">
<mask id="mask0_2139_2067" style="mask-type:alpha" maskUnits="userSpaceOnUse" x="5" y="2" width="35" height="31">
<path d="M40 33H5V30.2295C6.07843 31.255 7.51192 31.9107 9.09766 31.9912L9.42871 32H28.7139V31.9756C31.7871 31.715 34.2001 29.1406 34.2002 26C34.2002 22.6862 31.5139 20 28.2002 20C27.6327 20 27.0838 20.0803 26.5635 20.2275C26.2818 19.3569 25.8697 18.5455 25.3525 17.8135C27.4567 17.2235 29 15.2926 29 13C29 10.2386 26.7614 8 24 8C21.2386 8 19 10.2386 19 13C19 13.3667 19.0403 13.7241 19.1152 14.0684C18.7499 14.0232 18.3776 14 18 14C14.4043 14.0002 11.3028 16.1099 9.86133 19.1582C9.71841 19.1487 9.57404 19.1426 9.42871 19.1426C7.71194 19.1426 6.15302 19.8165 5 20.9131V2H40V33Z" fill="#D9D9D9"/>
</mask>
<g mask="url(#mask0_2139_2067)">
<path d="M27.6348 14C30.0823 14.0001 32.1682 15.5611 32.9453 17.7451L33.0967 18.1709L33.5156 18.3389C35.2663 19.0404 36.5 20.7523 36.5 22.75C36.5 25.3733 34.3733 27.5 31.75 27.5C31.4337 27.5 31.1255 27.4695 30.8281 27.4111L30.4971 27.3457L30.1953 27.4941C29.8362 27.67 29.4527 27.8039 29.0518 27.8896L28.5078 28.0059H15.2773L15.1289 27.9932C13.3767 27.8446 12 26.3742 12 24.583C12 22.8011 13.3623 21.3362 15.1016 21.1748L15.958 21.0957L16.0078 20.2363C16.1438 17.8742 18.1032 16 20.5 16C21.0903 16 21.6522 16.1135 22.166 16.3184L22.8398 16.5869L23.3037 16.0293C24.3389 14.7875 25.8947 14 27.6348 14Z" fill="#F1F3F6" stroke="#71767A" stroke-width="2"/>
</g>
<mask id="mask1_2139_2067" style="mask-type:alpha" maskUnits="userSpaceOnUse" x="2" y="1" width="33" height="31">
<path d="M35 32H28.7139V31.9756C31.7871 31.715 34.2001 29.1406 34.2002 26C34.2002 22.6862 31.5139 20 28.2002 20C27.6327 20 27.0838 20.0803 26.5635 20.2275C25.3943 16.614 22.0029 14 18 14C14.4043 14.0002 11.3028 16.1099 9.86133 19.1582C9.71841 19.1487 9.57404 19.1426 9.42871 19.1426C5.87847 19.1427 3.00005 22.021 3 25.5713C3 29.0106 5.70117 31.8189 9.09766 31.9912L9.42871 32H2V1H35V32Z" fill="#D9D9D9"/>
</mask>
<g mask="url(#mask1_2139_2067)">
<circle cx="20.9992" cy="12.0007" r="4.80556" fill="#FACE00" stroke="#B38C00" stroke-width="1.5"/>
<path d="M21.1941 21.4451C21.1941 21.5523 21.1069 21.6392 20.9998 21.6394C20.8924 21.6394 20.8054 21.5525 20.8054 21.4451V19.2166C20.8697 19.2183 20.9341 19.2224 20.9988 19.2224C21.0641 19.2224 21.1292 19.2183 21.1941 19.2166V21.4451ZM15.7585 16.9656C15.8476 17.0595 15.939 17.151 16.033 17.24L14.4578 18.8162C14.3818 18.8921 14.2593 18.8921 14.1833 18.8162C14.1076 18.7403 14.1075 18.6177 14.1833 18.5418L15.7585 16.9656ZM27.8162 18.5418C27.8917 18.6176 27.8916 18.7403 27.8162 18.8162C27.7402 18.8921 27.6167 18.8921 27.5408 18.8162L25.9646 17.24C26.0587 17.1508 26.1498 17.0588 26.239 16.9646L27.8162 18.5418ZM11.5544 11.8064H13.782C13.7803 11.8707 13.7771 11.9351 13.7771 11.9998C13.7771 12.065 13.7803 12.1303 13.782 12.1951H11.5544C11.4472 12.1951 11.3602 12.108 11.3601 12.0008C11.3601 11.8934 11.4471 11.8064 11.5544 11.8064ZM30.4441 11.8064C30.5515 11.8064 30.6384 11.8934 30.6384 12.0008C30.6383 12.108 30.5514 12.1951 30.4441 12.1951H28.2156C28.2173 12.1303 28.2214 12.065 28.2214 11.9998C28.2214 11.9351 28.2173 11.8707 28.2156 11.8064H30.4441ZM27.5408 5.18436C27.6166 5.10858 27.7393 5.10863 27.8152 5.18436C27.8911 5.26028 27.8911 5.38382 27.8152 5.45975L26.239 7.03494C26.1498 6.94083 26.0587 6.84875 25.9646 6.75955L27.5408 5.18436ZM14.1833 5.18436C14.2593 5.10843 14.3828 5.10843 14.4587 5.18436L16.033 6.75858C15.9389 6.84776 15.8477 6.93987 15.7585 7.03397L14.1833 5.45975C14.1075 5.38385 14.1075 5.26029 14.1833 5.18436ZM20.9998 2.36111C21.1069 2.36133 21.1941 2.44821 21.1941 2.55545V4.78299C21.1292 4.78126 21.0641 4.77811 20.9988 4.77811C20.9341 4.77811 20.8697 4.7813 20.8054 4.78299V2.55545C20.8054 2.44808 20.8924 2.36111 20.9998 2.36111Z" stroke="#B38C00" stroke-width="1.11118" stroke-linecap="round"/>
</g>
<path d="M17 17C20.5561 17 23.5732 19.3209 24.6133 22.5332L24.9102 23.4492L25.8369 23.1875C26.2691 23.0653 26.7262 23 27.2002 23C29.9617 23 32.2002 25.2385 32.2002 28C32.2001 30.6165 30.1897 32.7642 27.6299 32.9814L27.4121 33H8.42871C5.43061 33 3 30.5694 3 27.5713C3 24.5732 5.43061 22.1426 8.42871 22.1426C8.55146 22.1426 8.67349 22.1473 8.79395 22.1553L9.47266 22.2002L9.76367 21.585C11.0461 18.8732 13.8054 17.0001 17 17Z" fill="#F1F3F6" stroke="#71767A" stroke-width="2"/>
</svg>
