<svg width="40" height="40" viewBox="0 0 40 40" fill="none" xmlns="http://www.w3.org/2000/svg">
<path d="M22.8169 8.66724C27.4192 8.66724 31.1507 12.398 31.1509 17.0002C31.1509 20.597 28.8716 23.6608 25.6792 24.8284C24.8573 24.106 23.7803 23.6672 22.6001 23.6672C22.1589 23.6673 21.7322 23.7286 21.3276 23.843C20.424 21.051 17.8139 19.0274 14.7271 19.0012C14.5691 18.3602 14.4839 17.69 14.4839 17.0002C14.4841 12.3981 18.2148 8.66741 22.8169 8.66724Z" fill="#FACE00"/>
<path d="M22.8169 8.66699C27.4191 8.66699 31.1506 12.3979 31.1509 17L31.1401 17.4287C30.9675 20.8389 28.7434 23.7062 25.6782 24.8271C24.8565 24.1054 23.7798 23.667 22.6001 23.667C22.1589 23.667 21.7322 23.7283 21.3276 23.8428C21.2426 23.5799 21.1412 23.3244 21.0269 23.0762C21.5946 23.2432 22.1951 23.334 22.8169 23.334C26.3147 23.334 29.1509 20.4978 29.1509 17C29.1506 13.5025 26.3145 10.667 22.8169 10.667C19.3194 10.6672 16.4842 13.5026 16.4839 17C16.4839 17.8422 16.6493 18.6458 16.9478 19.3809C16.2502 19.1405 15.5028 19.0074 14.7251 19.001C14.5672 18.3601 14.4839 17.6896 14.4839 17C14.4842 12.398 18.2149 8.66717 22.8169 8.66699Z" fill="#DDAA01"/>
<path d="M16.9756 25.1174C17.5148 25.5062 18.0946 25.8429 18.707 26.1194L16.5996 29.7688L16.5439 29.8547C16.2672 30.2382 15.7566 30.3748 15.3252 30.1809L15.2344 30.135C14.7561 29.8589 14.592 29.2471 14.8682 28.7688L16.9756 25.1174ZM30.7666 28.7688C31.0427 29.2471 30.8787 29.8589 30.4004 30.135L30.3096 30.1809C29.878 30.375 29.3666 30.2386 29.0898 29.8547L29.0342 29.7688L26.9277 26.1184C27.5398 25.842 28.1192 25.506 28.6582 25.1174L30.7666 28.7688ZM13.6982 21.1106C13.9746 21.7227 14.3107 22.302 14.6992 22.8411L11.0488 24.9495L10.957 24.9963C10.5257 25.1899 10.0149 25.0527 9.73828 24.6692L9.68262 24.5833C9.40647 24.105 9.57054 23.4932 10.0488 23.217L13.6982 21.1106ZM35.5859 23.217C36.0641 23.4932 36.2281 24.105 35.9521 24.5833L35.8965 24.6692C35.6198 25.053 35.1083 25.1903 34.6768 24.9963L34.5859 24.9495L30.9346 22.8411C31.3233 22.3018 31.6601 21.7219 31.9365 21.1096L35.5859 23.217ZM12.8662 16.0002C12.8336 16.329 12.8174 16.6629 12.8174 17.0002C12.8174 17.3376 12.8336 17.6714 12.8662 18.0002H8.65039L8.54785 17.9944C8.04386 17.943 7.65056 17.5178 7.65039 17.0002C7.65039 16.4826 8.04374 16.0565 8.54785 16.0051L8.65039 16.0002H12.8662ZM9.68262 9.41626C9.95886 8.93825 10.5707 8.77495 11.0488 9.05103L14.6992 11.1584C14.3105 11.6977 13.9747 12.2775 13.6982 12.8899L10.0488 10.7825C9.57054 10.5063 9.40647 9.89455 9.68262 9.41626ZM34.5859 9.05005C35.0642 8.77406 35.676 8.93813 35.9521 9.41626C36.2283 9.89455 36.0642 10.5063 35.5859 10.7825L31.9365 12.8899C31.6601 12.2775 31.3233 11.6977 30.9346 11.1584L34.5859 9.05005ZM15.2344 3.86548C15.7126 3.5895 16.3235 3.75346 16.5996 4.23169L18.707 7.8811C18.0947 8.15753 17.5148 8.49339 16.9756 8.88208L14.8682 5.23169C14.592 4.7534 14.7561 4.14162 15.2344 3.86548ZM29.0342 4.23169C29.3103 3.75341 29.9221 3.58936 30.4004 3.86548C30.8787 4.14162 31.0427 4.7534 30.7666 5.23169L28.6582 8.88208C28.1192 8.49354 27.5398 8.15746 26.9277 7.8811L29.0342 4.23169ZM23.8174 7.04907C23.4886 7.01643 23.1548 7.00025 22.8174 7.00024C22.48 7.00024 22.1462 7.01644 21.8174 7.04907V2.83325C21.8174 2.28097 22.2651 1.83325 22.8174 1.83325C23.3695 1.83343 23.8174 2.28108 23.8174 2.83325V7.04907ZM23.8115 31.2688C23.7603 31.7729 23.335 32.1661 22.8174 32.1663L22.7148 32.1614C22.2442 32.1136 21.8701 31.7395 21.8223 31.2688L21.8174 31.1663V26.9504C22.1462 26.9831 22.48 27.0002 22.8174 27.0002C23.1548 27.0002 23.4886 26.9831 23.8174 26.9504V31.1663L23.8115 31.2688ZM37.9785 17.1018C37.9309 17.5726 37.5567 17.9466 37.0859 17.9944L36.9834 18.0002H32.7676C32.8002 17.6714 32.8174 17.3376 32.8174 17.0002C32.8174 16.6629 32.8002 16.329 32.7676 16.0002H36.9834L37.0859 16.0051C37.5902 16.0563 37.9834 16.4825 37.9834 17.0002L37.9785 17.1018Z" fill="#DDAA01"/>
<path d="M22 34.9831C24.3903 34.7803 26.2671 32.7759 26.2671 30.3332C26.2671 27.7558 24.1777 25.6665 21.6003 25.6665C21.1593 25.6665 20.7325 25.7276 20.3281 25.842C19.4183 23.032 16.7799 21 13.667 21C10.8702 21 8.45654 22.6401 7.33529 25.011C7.22448 25.0037 7.11267 24.9999 7 24.9999C4.23858 24.9999 2 27.2385 2 29.9999C2 32.7614 4.23858 34.9999 7 34.9999H13.6003C13.6225 35.0001 13.6447 35.0002 13.667 35.0002C13.6892 35.0002 13.7114 35.0001 13.7336 34.9999H21.5879C21.5921 34.9999 21.5962 34.9999 21.6003 34.9999C21.6045 34.9999 21.6086 34.9999 21.6128 34.9999H22V34.9831Z" fill="#F7F9FA"/>
<path d="M13.667 33V35H7V33H13.667ZM2 30C2 27.2386 4.23858 25 7 25L7.33496 25.0107C8.45622 22.6399 10.8703 21 13.667 21L13.957 21.0059C16.8467 21.1236 19.2842 22.9933 20.2373 25.5811L20.3281 25.8418C20.7325 25.7275 21.1596 25.666 21.6006 25.666L21.8408 25.6729C24.3064 25.798 26.2675 27.8364 26.2676 30.333L26.2617 30.5605C26.1495 32.8993 24.3157 34.787 22 34.9834V35H13.667V33H21.7158L21.8311 32.9902C23.1948 32.8745 24.2676 31.7278 24.2676 30.333C24.2675 28.8604 23.0732 27.6661 21.6006 27.666C21.3453 27.666 21.1012 27.7018 20.8721 27.7666L19.0186 28.291L18.4258 26.458C17.7753 24.4488 15.8875 23 13.667 23C11.6723 23 9.94664 24.1681 9.14355 25.8662L8.56152 27.0967L7.20312 27.0068C7.13625 27.0024 7.06854 27 7 27C5.34315 27 4 28.3431 4 30C4.00004 31.6568 5.34317 33 7 33V35L6.74316 34.9932C4.1862 34.8638 2.13626 32.8138 2.00684 30.2568L2 30Z" fill="#A9AEB1"/>
<rect x="8.18301" y="25.683" width="3" height="1" transform="rotate(30 8.18301 25.683)" fill="#A9AEB1" stroke="#A9AEB1"/>
</svg>
