<svg width="24" height="24" viewBox="0 0 24 24" fill="none" xmlns="http://www.w3.org/2000/svg">
<mask id="mask0_2139_1642" style="mask-type:alpha" maskUnits="userSpaceOnUse" x="4" y="0" width="19" height="20">
<path d="M22.7996 19.1997H15.2869C15.9394 18.6876 16.3601 17.8936 16.3601 16.9995C16.3598 15.4535 15.1064 14.1999 13.5603 14.1997C13.2955 14.1997 13.0394 14.2385 12.7966 14.3071C12.2513 12.6203 10.6679 11.3999 8.79956 11.3999C7.12166 11.4 5.6744 12.3847 5.00171 13.8071C4.93498 13.8027 4.86741 13.8003 4.79956 13.8003C4.59423 13.8003 4.39369 13.8215 4.19995 13.8608V0.600098H22.7996V19.1997Z" fill="#D9D9D9"/>
</mask>
<g mask="url(#mask0_2139_1642)">
<path d="M12.7654 2.55205C11.2168 3.89419 10.3782 5.99814 10.7234 8.17998C11.2016 11.2016 13.7925 13.3605 16.7361 13.3226C15.9126 14.0621 14.8836 14.5801 13.7244 14.7708C10.4578 15.308 7.3603 13.0454 6.82788 9.68193C6.29506 6.31506 8.54187 3.16704 11.8123 2.6292C12.1327 2.5765 12.4511 2.55265 12.7654 2.55205Z" fill="#6B8EE8" stroke="#F7F9FA" stroke-width="1.5"/>
<path d="M20.3999 6.60039L20.886 7.91422L22.1999 8.40039L20.886 8.88655L20.3999 10.2004L19.9137 8.88655L18.5999 8.40039L19.9137 7.91422L20.3999 6.60039Z" fill="#F7F9FA"/>
<path d="M17.3999 2.40015L17.886 3.71398L19.1999 4.20015L17.886 4.68631L17.3999 6.00015L16.9137 4.68631L15.5999 4.20015L16.9137 3.71398L17.3999 2.40015Z" fill="#F7F9FA"/>
<path d="M14.9997 6.00014L15.4859 7.31397L16.7997 7.80014L15.4859 8.2863L14.9997 9.60014L14.5135 8.2863L13.1997 7.80014L14.5135 7.31397L14.9997 6.00014Z" fill="#F7F9FA"/>
</g>
<mask id="path-6-inside-1_2139_1642" fill="white">
<path d="M8.19971 12.6001C6.52177 12.6003 5.07449 13.5848 4.40186 15.0073C4.33513 15.0029 4.26755 15.0005 4.19971 15.0005C2.54299 15.0006 1.19971 16.3437 1.19971 18.0005C1.19991 19.6053 2.46052 20.9161 4.04541 20.9966L4.19971 21.0005H13.1997V20.9878C14.6339 20.8662 15.7603 19.6654 15.7603 18.1997C15.7601 16.6535 14.5066 15.4 12.9604 15.3999C12.6956 15.3999 12.4396 15.4386 12.1968 15.5073C11.6515 13.8204 10.0682 12.6001 8.19971 12.6001Z"/>
</mask>
<path d="M8.19971 12.6001C6.52177 12.6003 5.07449 13.5848 4.40186 15.0073C4.33513 15.0029 4.26755 15.0005 4.19971 15.0005C2.54299 15.0006 1.19971 16.3437 1.19971 18.0005C1.19991 19.6053 2.46052 20.9161 4.04541 20.9966L4.19971 21.0005H13.1997V20.9878C14.6339 20.8662 15.7603 19.6654 15.7603 18.1997C15.7601 16.6535 14.5066 15.4 12.9604 15.3999C12.6956 15.3999 12.4396 15.4386 12.1968 15.5073C11.6515 13.8204 10.0682 12.6001 8.19971 12.6001Z" fill="#F1F3F6"/>
<path d="M8.19971 12.6001L8.19954 11.1001H8.19971V12.6001ZM4.40186 15.0073L5.7579 15.6485L5.32136 16.5717L4.3024 16.504L4.40186 15.0073ZM4.19971 15.0005L4.19956 13.5005H4.19971V15.0005ZM1.19971 18.0005L-0.300293 18.0007V18.0005H1.19971ZM4.04541 20.9966L4.00745 22.4961L3.9884 22.4956L3.96938 22.4947L4.04541 20.9966ZM4.19971 21.0005V22.5005H4.18072L4.16174 22.5L4.19971 21.0005ZM13.1997 21.0005H14.6997V22.5005H13.1997V21.0005ZM13.1997 20.9878H11.6997V19.6096L13.073 19.4932L13.1997 20.9878ZM15.7603 18.1997L17.2603 18.1995V18.1997H15.7603ZM12.9604 15.3999V13.8999H12.9606L12.9604 15.3999ZM12.1968 15.5073L12.6052 16.9507L11.2142 17.3443L10.7695 15.9687L12.1968 15.5073ZM8.19971 12.6001L8.19987 14.1001C7.12403 14.1002 6.19221 14.73 5.7579 15.6485L4.40186 15.0073L3.04581 14.3661C3.95678 12.4396 5.91952 11.1003 8.19954 11.1001L8.19971 12.6001ZM4.40186 15.0073L4.3024 16.504C4.26663 16.5016 4.23229 16.5005 4.19971 16.5005V15.0005V13.5005C4.30282 13.5005 4.40363 13.5041 4.50131 13.5106L4.40186 15.0073ZM4.19971 15.0005L4.19985 16.5005C3.3713 16.5006 2.69971 17.1723 2.69971 18.0005H1.19971H-0.300293C-0.300293 15.5152 1.71467 13.5007 4.19956 13.5005L4.19971 15.0005ZM1.19971 18.0005L2.69971 18.0003C2.69981 18.8023 3.33032 19.4584 4.12144 19.4985L4.04541 20.9966L3.96938 22.4947C1.59071 22.3739 -0.299986 20.4083 -0.300293 18.0007L1.19971 18.0005ZM4.04541 20.9966L4.08337 19.4971L4.23767 19.501L4.19971 21.0005L4.16174 22.5L4.00745 22.4961L4.04541 20.9966ZM4.19971 21.0005V19.5005H13.1997V21.0005V22.5005H4.19971V21.0005ZM13.1997 21.0005H11.6997V20.9878H13.1997H14.6997V21.0005H13.1997ZM13.1997 20.9878L13.073 19.4932C13.7387 19.4367 14.2603 18.8781 14.2603 18.1997H15.7603H17.2603C17.2603 20.4527 15.5291 22.2957 13.3264 22.4824L13.1997 20.9878ZM15.7603 18.1997L14.2603 18.1999C14.2602 17.4819 13.6781 16.9 12.9603 16.8999L12.9604 15.3999L12.9606 13.8999C15.3352 13.9001 17.26 15.8251 17.2603 18.1995L15.7603 18.1997ZM12.9604 15.3999V16.8999C12.8426 16.8999 12.724 16.917 12.6052 16.9507L12.1968 15.5073L11.7884 14.064C12.1553 13.9602 12.5486 13.8999 12.9604 13.8999V15.3999ZM12.1968 15.5073L10.7695 15.9687C10.4184 14.8825 9.39836 14.1001 8.19971 14.1001V12.6001V11.1001C10.738 11.1001 12.8846 12.7583 13.6241 15.0459L12.1968 15.5073Z" fill="#A9AEB1" mask="url(#path-6-inside-1_2139_1642)"/>
<rect x="4.90961" y="15.4098" width="1.8" height="0.6" transform="rotate(30 4.90961 15.4098)" fill="#71767A" stroke="#A9AEB1" stroke-width="0.6"/>
</svg>
