<svg width="40" height="40" viewBox="0 0 40 40" fill="none" xmlns="http://www.w3.org/2000/svg">
<mask id="mask0_2139_2462" style="mask-type:alpha" maskUnits="userSpaceOnUse" x="5" y="2" width="33" height="31">
<mask id="path-1-inside-1_2139_2462" fill="white">
<path d="M38 33H5V30.2295C6.07843 31.255 7.51192 31.9107 9.09766 31.9912L9.42871 32H28.7139V31.9756C31.7871 31.715 34.2001 29.1406 34.2002 26C34.2002 22.6862 31.5139 20 28.2002 20C27.6327 20 27.0838 20.0803 26.5635 20.2275C26.2818 19.3569 25.8697 18.5455 25.3525 17.8135C27.4567 17.2235 29 15.2926 29 13C29 10.2386 26.7614 8 24 8C21.2386 8 19 10.2386 19 13C19 13.3667 19.0403 13.7241 19.1152 14.0684C18.7499 14.0232 18.3776 14 18 14C14.4043 14.0002 11.3028 16.1099 9.86133 19.1582C9.71841 19.1487 9.57404 19.1426 9.42871 19.1426C7.71194 19.1426 6.15302 19.8165 5 20.9131V2H38V33Z"/>
</mask>
<path d="M38 33H5V30.2295C6.07843 31.255 7.51192 31.9107 9.09766 31.9912L9.42871 32H28.7139V31.9756C31.7871 31.715 34.2001 29.1406 34.2002 26C34.2002 22.6862 31.5139 20 28.2002 20C27.6327 20 27.0838 20.0803 26.5635 20.2275C26.2818 19.3569 25.8697 18.5455 25.3525 17.8135C27.4567 17.2235 29 15.2926 29 13C29 10.2386 26.7614 8 24 8C21.2386 8 19 10.2386 19 13C19 13.3667 19.0403 13.7241 19.1152 14.0684C18.7499 14.0232 18.3776 14 18 14C14.4043 14.0002 11.3028 16.1099 9.86133 19.1582C9.71841 19.1487 9.57404 19.1426 9.42871 19.1426C7.71194 19.1426 6.15302 19.8165 5 20.9131V2H38V33Z" fill="#D9D9D9"/>
<path d="M38 33V34H39V33H38ZM5 33H4V34H5V33ZM5 30.2295L5.68912 29.5048L4 27.8986V30.2295H5ZM9.09766 31.9912L9.04698 32.9899L9.05904 32.9905L9.07112 32.9909L9.09766 31.9912ZM9.42871 32L9.40217 32.9996L9.41544 33H9.42871V32ZM28.7139 32V33H29.7139V32H28.7139ZM28.7139 31.9756L28.6294 30.9792L27.7139 31.0568V31.9756H28.7139ZM34.2002 26L35.2002 26V26H34.2002ZM28.2002 20V19H28.2001L28.2002 20ZM26.5635 20.2275L25.612 20.5354L25.9087 21.4521L26.8358 21.1897L26.5635 20.2275ZM25.3525 17.8135L25.0825 16.8506L23.7182 17.2332L24.5358 18.3905L25.3525 17.8135ZM19.1152 14.0684L18.9926 15.0608L20.3924 15.2338L20.0923 13.8556L19.1152 14.0684ZM18 14V13H17.9999L18 14ZM9.86133 19.1582L9.79502 20.156L10.4743 20.2011L10.7653 19.5857L9.86133 19.1582ZM9.42871 19.1426L9.42874 18.1426H9.42867L9.42871 19.1426ZM5 20.9131H4V23.2443L5.68917 21.6377L5 20.9131ZM5 2V1H4V2H5ZM38 2H39V1H38V2ZM38 33V32H5V33V34H38V33ZM5 33H6V30.2295H5H4V33H5ZM5 30.2295L4.31088 30.9541C5.55572 32.1379 7.21328 32.8969 9.04698 32.9899L9.09766 31.9912L9.14833 30.9925C7.81055 30.9246 6.60114 30.3721 5.68912 29.5048L5 30.2295ZM9.09766 31.9912L9.07112 32.9909L9.40217 32.9996L9.42871 32L9.45525 31.0004L9.1242 30.9916L9.09766 31.9912ZM9.42871 32V33H28.7139V32V31H9.42871V32ZM28.7139 32H29.7139V31.9756H28.7139H27.7139V32H28.7139ZM28.7139 31.9756L28.7984 32.972C32.3843 32.6679 35.2001 29.6652 35.2002 26L34.2002 26L33.2002 26C33.2001 28.6161 31.1899 30.762 28.6294 30.9792L28.7139 31.9756ZM34.2002 26H35.2002C35.2002 22.134 32.0662 19 28.2002 19V20V21C30.9617 21 33.2002 23.2385 33.2002 26H34.2002ZM28.2002 20L28.2001 19C27.5379 19 26.8975 19.0937 26.2912 19.2653L26.5635 20.2275L26.8358 21.1897C27.2701 21.0668 27.7274 21 28.2003 21L28.2002 20ZM26.5635 20.2275L27.5149 19.9197C27.2012 18.9503 26.7429 18.0484 26.1693 17.2365L25.3525 17.8135L24.5358 18.3905C24.9964 19.0425 25.3623 19.7636 25.612 20.5354L26.5635 20.2275ZM25.3525 17.8135L25.6225 18.7763C28.1466 18.0686 30 15.753 30 13H29H28C28 14.8322 26.7668 16.3783 25.0825 16.8506L25.3525 17.8135ZM29 13H30C30 9.68629 27.3137 7 24 7V8V9C26.2091 9 28 10.7909 28 13H29ZM24 8V7C20.6863 7 18 9.68629 18 13H19H20C20 10.7909 21.7909 9 24 9V8ZM19 13H18C18 13.4402 18.0484 13.8689 18.1381 14.2811L19.1152 14.0684L20.0923 13.8556C20.0322 13.5793 20 13.2933 20 13H19ZM19.1152 14.0684L19.2379 13.0759C18.8319 13.0257 18.4185 13 18 13V14V15C18.3366 15 18.668 15.0207 18.9926 15.0608L19.1152 14.0684ZM18 14L17.9999 13C14.0029 13.0002 10.5577 15.3464 8.95731 18.7307L9.86133 19.1582L10.7653 19.5857C12.0479 16.8735 14.8058 15.0002 18.0001 15L18 14ZM9.86133 19.1582L9.92764 18.1604C9.76902 18.1499 9.60175 18.1426 9.42874 18.1426L9.42871 19.1426L9.42869 20.1426C9.54632 20.1426 9.66779 20.1475 9.79502 20.156L9.86133 19.1582ZM9.42871 19.1426L9.42867 18.1426C7.44486 18.1427 5.64197 18.9224 4.31083 20.1885L5 20.9131L5.68917 21.6377C6.66406 20.7105 7.97902 20.1426 9.42875 20.1426L9.42871 19.1426ZM5 20.9131H6V2H5H4V20.9131H5ZM5 2V3H38V2V1H5V2ZM38 2H37V33H38H39V2H38Z" fill="#A9AEB1" mask="url(#path-1-inside-1_2139_2462)"/>
</mask>
<g mask="url(#mask0_2139_2462)">
<path d="M27.6348 14C30.0823 14.0001 32.1682 15.5611 32.9453 17.7451L33.0967 18.1709L33.5156 18.3389C35.2663 19.0404 36.5 20.7523 36.5 22.75C36.5 25.3733 34.3733 27.5 31.75 27.5C31.4337 27.5 31.1255 27.4695 30.8281 27.4111L30.4971 27.3457L30.1953 27.4941C29.8362 27.67 29.4527 27.8039 29.0518 27.8896L28.5078 28.0059H15.2773L15.1289 27.9932C13.3767 27.8446 12 26.3742 12 24.583C12 22.8011 13.3623 21.3362 15.1016 21.1748L15.958 21.0957L16.0078 20.2363C16.1438 17.8742 18.1032 16 20.5 16C21.0903 16 21.6522 16.1135 22.166 16.3184L22.8398 16.5869L23.3037 16.0293C24.3389 14.7875 25.8947 14 27.6348 14Z" fill="#F7F9FA" stroke="#A9AEB1" stroke-width="2"/>
</g>
<mask id="mask1_2139_2462" style="mask-type:alpha" maskUnits="userSpaceOnUse" x="2" y="1" width="33" height="31">
<path d="M35 32H28.7139V31.9756C31.7871 31.715 34.2001 29.1406 34.2002 26C34.2002 22.6862 31.5139 20 28.2002 20C27.6327 20 27.0838 20.0803 26.5635 20.2275C25.3943 16.614 22.0029 14 18 14C14.4043 14.0002 11.3028 16.1099 9.86133 19.1582C9.71841 19.1487 9.57404 19.1426 9.42871 19.1426C5.87847 19.1427 3.00005 22.021 3 25.5713C3 29.0106 5.70117 31.8189 9.09766 31.9912L9.42871 32H2V1H35V32Z" fill="#D9D9D9"/>
</mask>
<g mask="url(#mask1_2139_2462)">
<circle cx="20.9992" cy="12.0007" r="4.80556" fill="#FACE00" stroke="#DDAA01" stroke-width="1.5"/>
<path d="M21.1941 21.4451C21.1941 21.5523 21.1069 21.6392 20.9998 21.6394C20.8924 21.6394 20.8054 21.5525 20.8054 21.4451V19.2166C20.8697 19.2183 20.9341 19.2224 20.9988 19.2224C21.0641 19.2224 21.1292 19.2183 21.1941 19.2166V21.4451ZM15.7585 16.9656C15.8476 17.0595 15.939 17.151 16.033 17.24L14.4578 18.8162C14.3818 18.8921 14.2593 18.8921 14.1833 18.8162C14.1076 18.7403 14.1075 18.6177 14.1833 18.5418L15.7585 16.9656ZM27.8162 18.5418C27.8917 18.6176 27.8916 18.7403 27.8162 18.8162C27.7402 18.8921 27.6167 18.8921 27.5408 18.8162L25.9646 17.24C26.0587 17.1508 26.1498 17.0588 26.239 16.9646L27.8162 18.5418ZM11.5544 11.8064H13.782C13.7803 11.8707 13.7771 11.9351 13.7771 11.9998C13.7771 12.065 13.7803 12.1303 13.782 12.1951H11.5544C11.4472 12.1951 11.3602 12.108 11.3601 12.0008C11.3601 11.8934 11.4471 11.8064 11.5544 11.8064ZM30.4441 11.8064C30.5515 11.8064 30.6384 11.8934 30.6384 12.0008C30.6383 12.108 30.5514 12.1951 30.4441 12.1951H28.2156C28.2173 12.1303 28.2214 12.065 28.2214 11.9998C28.2214 11.9351 28.2173 11.8707 28.2156 11.8064H30.4441ZM27.5408 5.18436C27.6166 5.10858 27.7393 5.10863 27.8152 5.18436C27.8911 5.26028 27.8911 5.38382 27.8152 5.45975L26.239 7.03494C26.1498 6.94083 26.0587 6.84875 25.9646 6.75955L27.5408 5.18436ZM14.1833 5.18436C14.2593 5.10843 14.3828 5.10843 14.4587 5.18436L16.033 6.75858C15.9389 6.84776 15.8477 6.93987 15.7585 7.03397L14.1833 5.45975C14.1075 5.38385 14.1075 5.26029 14.1833 5.18436ZM20.9998 2.36111C21.1069 2.36133 21.1941 2.44821 21.1941 2.55545V4.78299C21.1292 4.78126 21.0641 4.77811 20.9988 4.77811C20.9341 4.77811 20.8697 4.7813 20.8054 4.78299V2.55545C20.8054 2.44808 20.8924 2.36111 20.9998 2.36111Z" stroke="#DDAA01" stroke-width="1.11118" stroke-linecap="round"/>
</g>
<path d="M17 17C20.5561 17 23.5732 19.3209 24.6133 22.5332L24.9102 23.4492L25.8369 23.1875C26.2691 23.0653 26.7262 23 27.2002 23C29.9617 23 32.2002 25.2385 32.2002 28C32.2001 30.6165 30.1897 32.7642 27.6299 32.9814L27.4121 33H8.42871C5.43061 33 3 30.5694 3 27.5713C3 24.5732 5.43061 22.1426 8.42871 22.1426C8.55146 22.1426 8.67349 22.1473 8.79395 22.1553L9.47266 22.2002L9.76367 21.585C11.0461 18.8732 13.8054 17.0001 17 17Z" fill="#F7F9FA" stroke="#A9AEB1" stroke-width="2"/>
</svg>
