<svg width="24" height="24" viewBox="0 0 24 24" fill="none" xmlns="http://www.w3.org/2000/svg">
<path d="M13.5508 5.2C16.3118 5.20026 18.5506 7.43892 18.5508 10.2C18.5508 12.3216 17.228 14.133 15.3633 14.8592C14.8761 14.4484 14.2476 14.2001 13.5605 14.2C13.2957 14.2 13.0397 14.2387 12.7969 14.3074C12.2516 12.6205 10.6683 11.4002 8.7998 11.4002C8.76551 11.4002 8.73136 11.4023 8.69727 11.4031C8.60208 11.0178 8.55078 10.6147 8.55078 10.2C8.551 7.43876 10.7895 5.2 13.5508 5.2Z" fill="#FACE00"/>
<path d="M13.5508 5.2C16.3118 5.20026 18.5506 7.43892 18.5508 10.2C18.5508 12.3216 17.228 14.133 15.3633 14.8592C14.8761 14.4484 14.2476 14.2001 13.5605 14.2C13.2957 14.2 13.0397 14.2387 12.7969 14.3074C12.7076 14.0313 12.5879 13.7691 12.4463 13.5213C12.7935 13.6366 13.1649 13.7 13.5508 13.7C15.4836 13.6997 17.0508 12.1328 17.0508 10.2C17.0506 8.26735 15.4834 6.70026 13.5508 6.7C11.6179 6.7 10.051 8.26718 10.0508 10.2C10.0508 10.7424 10.1734 11.2564 10.3936 11.7146C9.90197 11.5128 9.36417 11.4002 8.7998 11.4002C8.76551 11.4002 8.73136 11.4023 8.69727 11.4031C8.60208 11.0178 8.55078 10.6147 8.55078 10.2C8.551 7.43876 10.7895 5.2 13.5508 5.2Z" fill="#DDAA01"/>
<path d="M14.3003 18.7C14.3003 19.1142 13.9645 19.4499 13.5503 19.45C13.1361 19.45 12.8003 19.1142 12.8003 18.7V16.1541C13.0459 16.1847 13.2964 16.2 13.5503 16.2C13.8043 16.2 14.0546 16.1847 14.3003 16.1541V18.7ZM9.92432 14.9812C10.3212 15.2827 10.7567 15.5361 11.2222 15.7322L9.94971 17.9363C9.74256 18.2949 9.28396 18.4178 8.92529 18.2107C8.56659 18.0036 8.44381 17.545 8.65088 17.1863L9.92432 14.9812ZM18.4497 17.1863C18.6568 17.545 18.534 18.0036 18.1753 18.2107C17.8166 18.4178 17.358 18.2949 17.1509 17.9363L15.8784 15.7312C16.3439 15.5351 16.7794 15.2818 17.1763 14.9803L18.4497 17.1863ZM21.2866 13.8006C21.6452 14.0077 21.7681 14.4663 21.561 14.825C21.3539 15.1837 20.8953 15.3065 20.5366 15.0994L18.3306 13.826C18.632 13.4291 18.8854 12.9936 19.0815 12.5281L21.2866 13.8006ZM7.59619 9.45C7.56556 9.69568 7.55029 9.94602 7.55029 10.2C7.55029 10.454 7.56556 10.7043 7.59619 10.95H5.05029C4.63608 10.95 4.30029 10.6142 4.30029 10.2C4.30032 9.78581 4.6361 9.45 5.05029 9.45H7.59619ZM22.0503 9.45C22.4645 9.45 22.8003 9.78581 22.8003 10.2C22.8003 10.6142 22.4645 10.95 22.0503 10.95H19.5034C19.5341 10.7043 19.5503 10.454 19.5503 10.2C19.5503 9.94602 19.5341 9.69568 19.5034 9.45H22.0503ZM5.53955 5.575C5.74666 5.21628 6.20525 5.09348 6.56396 5.30058L8.77002 6.57402C8.46844 6.97099 8.21426 7.40624 8.01807 7.87187L5.81396 6.59941C5.45533 6.39228 5.33249 5.93368 5.53955 5.575ZM20.5366 5.30058C20.8953 5.09348 21.3539 5.21628 21.561 5.575C21.7681 5.93371 21.6453 6.3923 21.2866 6.59941L19.0815 7.87187C18.8854 7.4064 18.6321 6.97088 18.3306 6.57402L20.5366 5.30058ZM8.92529 2.18925C9.28396 1.98218 9.74256 2.10507 9.94971 2.46367L11.2222 4.66777C10.7566 4.86393 10.3213 5.11819 9.92432 5.41972L8.65088 3.21367C8.44384 2.85499 8.56666 2.39637 8.92529 2.18925ZM17.1509 2.46367C17.358 2.10504 17.8166 1.98217 18.1753 2.18925C18.534 2.39636 18.6568 2.85495 18.4497 3.21367L17.1763 5.41972C16.7794 5.11823 16.3439 4.86491 15.8784 4.66875L17.1509 2.46367ZM13.5503 0.949997C13.9645 0.95005 14.3003 1.28582 14.3003 1.7V4.24687C14.0546 4.21624 13.8043 4.2 13.5503 4.2C13.2963 4.2 13.046 4.21624 12.8003 4.24687V1.7C12.8003 1.28578 13.1361 0.949997 13.5503 0.949997Z" fill="#DDAA01"/>
<path d="M13.2002 20.9899C14.6344 20.8683 15.7604 19.6657 15.7604 18.2C15.7604 16.6536 14.5068 15.4 12.9604 15.4C12.6958 15.4 12.4397 15.4367 12.197 15.5053C11.6512 13.8193 10.0682 12.6001 8.20037 12.6001C6.52232 12.6001 5.07411 13.5842 4.40137 15.0067C4.33488 15.0023 4.2678 15.0001 4.2002 15.0001C2.54334 15.0001 1.2002 16.3432 1.2002 18.0001C1.2002 19.6569 2.54334 21.0001 4.2002 21.0001H8.16032C8.17366 21.0002 8.187 21.0002 8.20037 21.0002C8.21373 21.0002 8.22708 21.0002 8.24041 21.0001H13.2002V20.9899Z" fill="#F7F9FA"/>
<path d="M8.2002 19.5005V21.0005H4.2002V19.5005H8.2002ZM1.2002 18.0005C1.2002 16.3436 2.54334 15.0005 4.2002 15.0005L4.40137 15.0063C5.07415 13.584 6.52233 12.6002 8.2002 12.6001C9.95129 12.6001 11.4525 13.6716 12.083 15.1948L12.1973 15.5054C12.4397 15.4368 12.6956 15.3999 12.96 15.3999C14.5063 15.3999 15.7606 16.6534 15.7607 18.1997L15.7471 18.4712C15.6182 19.8116 14.5448 20.8757 13.2002 20.9897V21.0005H8.2002V19.5005C8.20892 19.5005 8.21796 19.5006 8.22656 19.5005L8.24023 19.4995V19.5005H13.0156L13.0732 19.4956C13.7375 19.4393 14.2607 18.8794 14.2607 18.1997C14.2606 17.4818 13.6779 16.8999 12.96 16.8999C12.8349 16.8999 12.7164 16.9174 12.6055 16.9487L11.2148 17.3413L10.7695 15.9673C10.4181 14.882 9.39858 14.1001 8.2002 14.1001C7.12385 14.1002 6.19195 14.7301 5.75781 15.6479L5.32129 16.5708L4.30273 16.5034C4.26919 16.5012 4.2347 16.5005 4.2002 16.5005C3.37177 16.5005 2.7002 17.1721 2.7002 18.0005C2.70043 18.8287 3.37191 19.5005 4.2002 19.5005V21.0005L4.0459 20.9966C2.51199 20.9189 1.28203 19.6886 1.2041 18.1548L1.2002 18.0005Z" fill="#A9AEB1"/>
<rect x="4.9101" y="15.4099" width="1.8" height="0.6" transform="rotate(30 4.9101 15.4099)" fill="#A9AEB1" stroke="#A9AEB1" stroke-width="0.6"/>
</svg>
