<svg width="24" height="24" viewBox="0 0 24 24" fill="none" xmlns="http://www.w3.org/2000/svg">
<path d="M15.9463 7.7207C17.7523 7.7207 19.2831 8.89993 19.8105 10.5303C20.9786 11.083 21.7871 12.2723 21.7871 13.6504C21.7871 14.3089 21.6014 14.9238 21.2812 15.4473C21.012 13.4999 19.3417 12.0002 17.3203 12C16.8464 12 16.3915 12.0831 15.9697 12.2344C15.9684 12.2299 15.9662 12.2252 15.9648 12.2207C16.6831 11.7429 17.1308 11.0677 17.5576 10.0947C17.2912 10.2362 16.065 10.2477 15.7666 10.2783C15.4518 10.3106 15.1512 10.2999 14.8662 10.248C14.3737 9.68465 13.7661 9.22451 13.0801 8.9043C13.8144 8.17257 14.8277 7.72076 15.9463 7.7207Z" fill="#F7F9FA"/>
<path d="M15.9463 7.7207C17.7523 7.7207 19.2831 8.89993 19.8105 10.5303C20.9786 11.083 21.7871 12.2723 21.7871 13.6504L21.7822 13.8281C21.7522 14.4193 21.5721 14.9704 21.2812 15.4463C21.166 14.6143 20.795 13.8648 20.25 13.2783C20.131 12.6628 19.7239 12.1483 19.1689 11.8857L18.583 11.6084L18.3828 10.9922C18.0497 9.96262 17.0828 9.2207 15.9463 9.2207C15.355 9.22075 14.811 9.42012 14.377 9.75781C13.9899 9.41502 13.5542 9.1265 13.0801 8.90527C13.8145 8.17328 14.8275 7.72076 15.9463 7.7207Z" fill="#A9AEB1"/>
<path d="M16.7993 10.5927C16.3588 11.3697 15.7424 12.0334 14.9985 12.5214C14.9986 12.5143 14.9995 12.5071 14.9995 12.4999C14.9995 11.9142 14.8722 11.3587 14.646 10.8574C15.0579 10.9169 15.4854 10.9152 15.9175 10.8427C16.2254 10.791 16.5203 10.7063 16.7993 10.5927ZM11.2065 2.07318C12.1088 1.92184 12.9952 2.00899 13.8062 2.28998C11.9011 2.99292 10.6902 5.0281 11.0229 7.17377C11.0983 7.65943 11.2482 8.11339 11.4565 8.52631C11.3066 8.50926 11.154 8.49994 10.9995 8.49994C9.43518 8.50004 8.08074 9.39827 7.42334 10.707C7.05142 10.0844 6.78965 9.37623 6.67041 8.60736C6.18868 5.50009 8.21955 2.57447 11.2065 2.07318Z" fill="#6B8EE8"/>
<path d="M16.7998 10.5931C16.3594 11.3698 15.7427 12.033 14.999 12.5208C14.9991 12.514 15 12.5071 15 12.5003C15 11.9148 14.8726 11.3589 14.6465 10.8577C15.0584 10.9172 15.4859 10.9156 15.918 10.8431C16.2257 10.7914 16.5209 10.7066 16.7998 10.5931ZM11.2061 2.07355C12.1085 1.92214 12.9956 2.00927 13.8066 2.29034C11.9015 2.99326 10.6907 5.0284 11.0234 7.17413C11.0988 7.6597 11.2477 8.11382 11.4561 8.52667C11.3064 8.50967 11.1542 8.50031 11 8.50031C10.6108 8.50031 10.2347 8.55678 9.87891 8.66046C9.72475 8.26198 9.60901 7.84193 9.54102 7.40363C9.36642 6.27738 9.5144 5.16675 9.91797 4.17706C8.64849 5.0462 7.88437 6.65026 8.15234 8.37823C8.2097 8.74789 8.31058 9.09602 8.44727 9.41925C8.02293 9.77122 7.6736 10.2101 7.42383 10.7073C7.05165 10.0847 6.78924 9.37682 6.66992 8.60773C6.18823 5.50057 8.21923 2.57496 11.2061 2.07355Z" fill="#F7F9FA"/>
<path d="M17.4287 20.387C19.2725 20.2305 20.7202 18.6843 20.7202 16.7999C20.7202 14.8117 19.1084 13.1999 17.1202 13.1999C16.78 13.1999 16.4509 13.2471 16.1389 13.3352C15.4371 11.1676 13.4018 9.6001 11.0004 9.6001C8.8429 9.6001 6.98093 10.8653 6.11597 12.6943C6.03042 12.6886 5.94411 12.6857 5.85713 12.6857C3.7269 12.6857 2 14.4126 2 16.5429C2 18.6731 3.7269 20.4 5.85713 20.4C5.85706 20.4 5.85719 20.4 5.85713 20.4L10.9513 20.4C10.9676 20.4002 10.984 20.4002 11.0004 20.4002C11.0168 20.4002 11.0331 20.4002 11.0495 20.4H17.4287V20.387Z" fill="#F7F9FA"/>
<path d="M11 18.8999V20.3999H5.85742V18.8999H11ZM2 16.5425C2.00021 14.4124 3.72732 12.686 5.85742 12.686L6.11621 12.6938C6.98121 10.8652 8.84286 9.60025 11 9.6001C13.3265 9.6001 15.3097 11.0714 16.0693 13.1343L16.1387 13.3354C16.4506 13.2473 16.78 13.1997 17.1201 13.1997C19.1084 13.1997 20.7197 14.812 20.7197 16.8003L20.7158 16.9751C20.6294 18.7793 19.2151 20.2356 17.4287 20.3872V20.3999H11V18.8999H17.21L17.3018 18.8921C18.3756 18.8009 19.2196 17.8986 19.2197 16.8003C19.2197 15.6405 18.2799 14.6997 17.1201 14.6997C16.9193 14.6997 16.7274 14.7278 16.5469 14.7788L15.1572 15.1714L14.7119 13.7974C14.2045 12.2303 12.7321 11.1001 11 11.1001C9.44423 11.1002 8.09796 12.0112 7.47168 13.3354L7.03516 14.2583L6.0166 14.1909C5.96418 14.1874 5.91111 14.186 5.85742 14.186C4.55575 14.186 3.50021 15.2409 3.5 16.5425C3.5 17.8443 4.55562 18.8999 5.85742 18.8999V20.3999L5.6582 20.395C3.62042 20.2915 2 18.606 2 16.5425Z" fill="#A9AEB1"/>
</svg>
