<svg width="40" height="40" viewBox="0 0 40 40" fill="none" xmlns="http://www.w3.org/2000/svg">
<mask id="mask0_2139_2421" style="mask-type:alpha" maskUnits="userSpaceOnUse" x="7" y="1" width="31" height="31">
<path d="M38 32H25.4844C26.5697 31.1459 27.2676 29.8215 27.2676 28.333C27.2674 25.7559 25.1776 23.6673 22.6006 23.667C22.1596 23.667 21.7325 23.7284 21.3281 23.8428C20.4186 21.0327 17.78 19.0002 14.667 19C11.8705 19.0002 9.45811 20.641 8.33691 23.0117C8.22587 23.0043 8.11291 23 8 23C7.65774 23 7.32294 23.0341 7 23.0996V1H38V32Z" fill="#D9D9D9"/>
</mask>
<g mask="url(#mask0_2139_2421)">
<circle cx="22.817" cy="17.0006" r="7.33333" fill="#FACE00" stroke="#DDAA01" stroke-width="2"/>
<path d="M22.9829 31.1663C22.9829 31.2582 22.9088 31.3331 22.8169 31.3333C22.7248 31.3333 22.6499 31.2583 22.6499 31.1663V27.8284C22.7054 27.8292 22.7612 27.8333 22.8169 27.8333C22.8723 27.8333 22.9276 27.8292 22.9829 27.8284V31.1663ZM17.2563 26.2961C17.3516 26.3532 17.4483 26.4079 17.5454 26.4622L15.8774 29.3518C15.8314 29.4315 15.7296 29.4593 15.6499 29.4133C15.5703 29.3673 15.5435 29.2655 15.5894 29.1858L17.2563 26.2961ZM30.0444 29.1858C30.0902 29.2654 30.0634 29.3673 29.9839 29.4133C29.9042 29.4594 29.8014 29.4315 29.7554 29.3518L28.0874 26.4622C28.1843 26.4081 28.2805 26.3531 28.3755 26.2961L30.0444 29.1858ZM13.353 22.2708C13.4072 22.3678 13.463 22.4637 13.52 22.5588L10.6313 24.2278C10.5517 24.2737 10.4498 24.2459 10.4038 24.1663C10.358 24.0867 10.3849 23.9848 10.4644 23.9387L13.353 22.2708ZM35.1685 23.9387C35.248 23.9847 35.2757 24.0866 35.23 24.1663C35.184 24.246 35.0812 24.2738 35.0015 24.2278L32.1118 22.5588C32.169 22.4634 32.2245 22.3671 32.2788 22.2698L35.1685 23.9387ZM8.6499 16.8333H11.9868C11.986 16.8887 11.9829 16.9446 11.9829 17.0002C11.9829 17.0557 11.986 17.111 11.9868 17.1663H8.6499C8.55796 17.1663 8.48309 17.0921 8.48291 17.0002C8.48291 16.9082 8.55785 16.8333 8.6499 16.8333ZM36.9829 16.8333C37.075 16.8333 37.1499 16.9082 37.1499 17.0002C37.1497 17.0921 37.0748 17.1663 36.9829 17.1663H33.646C33.6468 17.111 33.6499 17.0557 33.6499 17.0002C33.6499 16.9446 33.6468 16.8887 33.646 16.8333H36.9829ZM10.6313 9.77271L13.52 11.4397C13.4629 11.5351 13.4073 11.6315 13.353 11.7288L10.4644 10.0608C10.3848 10.0147 10.3578 9.9129 10.4038 9.83325C10.4499 9.75363 10.5517 9.7267 10.6313 9.77271ZM35.0024 9.77173C35.0821 9.72602 35.184 9.75367 35.23 9.83325C35.2759 9.91295 35.2481 10.0148 35.1685 10.0608L32.2788 11.7288C32.2245 11.6315 32.169 11.5351 32.1118 11.4397L35.0024 9.77173ZM15.6499 4.58716C15.7295 4.5412 15.8313 4.56826 15.8774 4.64771L17.5454 7.53638C17.4481 7.59067 17.3517 7.6462 17.2563 7.70337L15.5894 4.8147C15.5434 4.73508 15.5704 4.63326 15.6499 4.58716ZM29.9839 4.58716C30.0633 4.63331 30.0904 4.73513 30.0444 4.8147L28.3755 7.70337C28.2803 7.64635 28.1844 7.59053 28.0874 7.53638L29.7554 4.64771C29.8014 4.56801 29.9042 4.54114 29.9839 4.58716ZM22.8169 2.66626C22.9088 2.66644 22.9829 2.74131 22.9829 2.83325V6.17017C22.9277 6.16933 22.8723 6.16626 22.8169 6.16626C22.7612 6.16626 22.7054 6.16933 22.6499 6.17017V2.83325C22.6499 2.7412 22.7248 2.66626 22.8169 2.66626Z" stroke="#DDAA01" stroke-width="1.66667" stroke-linecap="round"/>
</g>
<path d="M13.667 22C16.3337 22 18.5968 23.7408 19.377 26.1504L19.6738 27.0664L20.6006 26.8047C20.9173 26.7152 21.2525 26.666 21.6006 26.666C23.6255 26.6661 25.2675 28.3081 25.2676 30.333C25.2676 32.2518 23.7921 33.8271 21.915 33.9863L21.7549 34H7C4.79088 34 3.00004 32.2091 3 30C3 27.7909 4.79086 26 7 26C7.09061 26 7.18068 26.0029 7.26953 26.0088L7.94824 26.0537L8.23926 25.4385C9.20142 23.404 11.2713 22 13.667 22Z" fill="#F7F9FA" stroke="#A9AEB1" stroke-width="2"/>
<rect x="8.18301" y="25.683" width="3" height="1" transform="rotate(30 8.18301 25.683)" fill="#A9AEB1" stroke="#A9AEB1"/>
</svg>
