<svg width="40" height="40" viewBox="0 0 40 40" fill="none" xmlns="http://www.w3.org/2000/svg">
<mask id="mask0_2139_2046" style="mask-type:alpha" maskUnits="userSpaceOnUse" x="7" y="1" width="31" height="31">
<path d="M38 32H25.4844C26.5697 31.1459 27.2676 29.8215 27.2676 28.333C27.2674 25.7559 25.1776 23.6673 22.6006 23.667C22.1596 23.667 21.7325 23.7284 21.3281 23.8428C20.4186 21.0327 17.78 19.0002 14.667 19C11.8705 19.0002 9.45811 20.641 8.33691 23.0117C8.22587 23.0043 8.11291 23 8 23C7.65774 23 7.32294 23.0341 7 23.0996V1H38V32Z" fill="#D9D9D9"/>
</mask>
<g mask="url(#mask0_2139_2046)">
<path d="M19.6465 4.13477C20.4281 4.00623 21.203 3.97206 21.96 4.02246C19.1137 6.16791 17.5209 9.808 18.1201 13.5947C18.9336 18.735 23.503 22.3313 28.5518 21.9199C27.0737 23.4334 25.1342 24.5003 22.915 24.8652C17.3296 25.7837 12.0419 21.9134 11.1338 16.1748C10.225 10.4319 14.0562 5.05429 19.6465 4.13477Z" fill="#ADCDFF" stroke="#565C65" stroke-width="2"/>
<path d="M34 11L34.8103 13.1897L37 14L34.8103 14.8103L34 17L33.1897 14.8103L31 14L33.1897 13.1897L34 11Z" fill="#8D9297"/>
<path d="M29 4L29.8103 6.18973L32 7L29.8103 7.81027L29 10L28.1897 7.81027L26 7L28.1897 6.18973L29 4Z" fill="#8D9297"/>
<path d="M25 10L25.8103 12.1897L28 13L25.8103 13.8103L25 16L24.1897 13.8103L22 13L24.1897 12.1897L25 10Z" fill="#8D9297"/>
</g>
<path d="M13.667 22C16.3337 22 18.5968 23.7408 19.377 26.1504L19.6738 27.0664L20.6006 26.8047C20.9173 26.7152 21.2525 26.666 21.6006 26.666C23.6255 26.6661 25.2675 28.3081 25.2676 30.333C25.2676 32.2518 23.7921 33.8271 21.915 33.9863L21.7549 34H7C4.79088 34 3.00004 32.2091 3 30C3 27.7909 4.79086 26 7 26C7.09061 26 7.18068 26.0029 7.26953 26.0088L7.94824 26.0537L8.23926 25.4385C9.20142 23.404 11.2713 22 13.667 22Z" fill="#F1F3F6" stroke="#71767A" stroke-width="2"/>
<rect x="8.18301" y="25.683" width="3" height="1" transform="rotate(30 8.18301 25.683)" fill="#71767A" stroke="#71767A"/>
</svg>
