<svg width="40" height="40" viewBox="0 0 40 40" fill="none" xmlns="http://www.w3.org/2000/svg">
<path d="M19.4844 3.14844C21.3425 2.84286 23.1679 3.01876 24.8379 3.58594C20.9157 5.00415 18.4233 9.10941 19.1084 13.4385C19.8801 18.3145 24.3914 21.6281 29.1846 20.8398C29.8184 20.7356 30.4256 20.5651 31 20.3359C29.8252 22.3665 28.0467 24.0187 25.8711 25.0049C25.029 24.1775 23.8744 23.6671 22.6006 23.667C22.1596 23.667 21.7325 23.7284 21.3281 23.8428C20.4186 21.0327 17.78 19.0002 14.667 19C13.4476 19.0001 12.3008 19.312 11.3027 19.8604C10.7463 18.7836 10.3462 17.599 10.1455 16.3311C9.15354 10.0619 13.3347 4.1599 19.4844 3.14844Z" fill="#6B8EE8"/>
<path d="M19.4844 3.14844C21.3424 2.84286 23.1679 3.0188 24.8379 3.58594C20.9157 5.00417 18.4233 9.10946 19.1084 13.4385C19.8801 18.3144 24.3914 21.6281 29.1846 20.8398C29.8184 20.7356 30.4256 20.5651 31 20.3359C29.8253 22.3665 28.0468 24.0187 25.8711 25.0049C25.2138 24.3591 24.3661 23.9069 23.4199 23.7393C24.2812 23.5304 25.09 23.2039 25.832 22.7764C21.4535 21.9617 17.8733 18.4302 17.1328 13.751C16.6344 10.6014 17.5155 7.53929 19.335 5.21191C14.5614 6.25678 11.3218 10.9673 12.1211 16.0186C12.3011 17.1558 12.6695 18.2109 13.1885 19.1562C12.519 19.3003 11.885 19.5398 11.3018 19.8604C10.7454 18.7837 10.3462 17.5989 10.1455 16.3311C9.15358 10.062 13.3348 4.15995 19.4844 3.14844Z" fill="#F7F9FA"/>
<path d="M34 11L34.8103 13.1897L37 14L34.8103 14.8103L34 17L33.1897 14.8103L31 14L33.1897 13.1897L34 11Z" fill="#EDEFF0"/>
<path d="M29 4L29.8103 6.18973L32 7L29.8103 7.81027L29 10L28.1897 7.81027L26 7L28.1897 6.18973L29 4Z" fill="#EDEFF0"/>
<path d="M25 10L25.8103 12.1897L28 13L25.8103 13.8103L25 16L24.1897 13.8103L22 13L24.1897 12.1897L25 10Z" fill="#EDEFF0"/>
<path d="M22 34.9831C24.3903 34.7803 26.2671 32.7759 26.2671 30.3332C26.2671 27.7558 24.1777 25.6665 21.6003 25.6665C21.1593 25.6665 20.7325 25.7276 20.3281 25.842C19.4183 23.032 16.7799 21 13.667 21C10.8702 21 8.45654 22.6401 7.33529 25.011C7.22448 25.0037 7.11267 24.9999 7 24.9999C4.23858 24.9999 2 27.2385 2 29.9999C2 32.7614 4.23858 34.9999 7 34.9999H13.6003C13.6225 35.0001 13.6447 35.0002 13.667 35.0002C13.6892 35.0002 13.7114 35.0001 13.7336 34.9999H21.5879C21.5921 34.9999 21.5962 34.9999 21.6003 34.9999C21.6045 34.9999 21.6086 34.9999 21.6128 34.9999H22V34.9831Z" fill="#F7F9FA"/>
<path d="M13.667 33V35H7V33H13.667ZM2 30C2 27.2386 4.23858 25 7 25L7.33496 25.0107C8.45622 22.6399 10.8703 21 13.667 21L13.957 21.0059C16.8467 21.1236 19.2842 22.9933 20.2373 25.5811L20.3281 25.8418C20.7325 25.7275 21.1596 25.666 21.6006 25.666L21.8408 25.6729C24.3064 25.798 26.2675 27.8364 26.2676 30.333L26.2617 30.5605C26.1495 32.8993 24.3157 34.787 22 34.9834V35H13.667V33H21.7158L21.8311 32.9902C23.1948 32.8745 24.2676 31.7278 24.2676 30.333C24.2675 28.8604 23.0732 27.6661 21.6006 27.666C21.3453 27.666 21.1012 27.7018 20.8721 27.7666L19.0186 28.291L18.4258 26.458C17.7753 24.4488 15.8875 23 13.667 23C11.6723 23 9.94664 24.1681 9.14355 25.8662L8.56152 27.0967L7.20312 27.0068C7.13625 27.0024 7.06854 27 7 27C5.34315 27 4 28.3431 4 30C4.00004 31.6568 5.34317 33 7 33V35L6.74316 34.9932C4.1862 34.8638 2.13626 32.8138 2.00684 30.2568L2 30Z" fill="#A9AEB1"/>
<rect x="8.18301" y="25.683" width="3" height="1" transform="rotate(30 8.18301 25.683)" fill="#A9AEB1" stroke="#A9AEB1"/>
</svg>
