<svg width="40" height="40" viewBox="0 0 40 40" fill="none" xmlns="http://www.w3.org/2000/svg">
<path d="M28.9961 13.1406C31.2723 13.6154 33.1203 15.256 33.8867 17.4102C36.0041 18.2583 37.5 20.3296 37.5 22.75C37.5 25.1977 35.9698 27.2865 33.8145 28.1162C34.0628 27.4581 34.2002 26.7453 34.2002 26C34.2002 22.6862 31.5139 20 28.2002 20C27.6326 20 27.0839 20.0803 26.5635 20.2275C26.2818 19.357 25.8697 18.5454 25.3525 17.8135C27.4135 17.2356 28.9345 15.3712 28.9961 13.1406Z" fill="#F7F9FA"/>
<path d="M28.9961 13.1406C31.2722 13.6156 33.1203 15.2561 33.8867 17.4102C36.0041 18.2583 37.4999 20.3296 37.5 22.75L37.4922 23.0459C37.3746 25.3651 35.8823 27.3201 33.8145 28.1162C34.0628 27.4581 34.2002 26.7453 34.2002 26C34.2002 25.8657 34.1933 25.7327 34.1846 25.6006C34.9891 24.9128 35.5 23.8914 35.5 22.75C35.4999 21.1747 34.528 19.8212 33.1436 19.2666L32.3057 18.9307L32.0029 18.0811C31.4619 16.5604 30.1496 15.4111 28.541 15.0918C28.8164 14.4954 28.9769 13.8361 28.9961 13.1406Z" fill="#A9AEB1"/>
<path d="M20.999 6.44531C24.0673 6.44531 26.5547 8.93273 26.5547 12.001C26.5546 13.8611 25.639 15.5054 24.2354 16.5137C22.618 14.9579 20.4216 14 18 14C17.2829 14 16.5856 14.0846 15.917 14.2432C15.6139 13.5572 15.4444 12.7991 15.4443 12.001C15.4443 8.93285 17.9309 6.44552 20.999 6.44531Z" fill="#FACE00"/>
<path d="M21.2852 6.45215C24.2203 6.60111 26.5547 9.02878 26.5547 12.001L26.5469 12.2871C26.4584 14.0288 25.5678 15.5584 24.2373 16.5146C23.8578 16.1494 23.4467 15.8171 23.0078 15.5225C24.23 14.8239 25.0545 13.5094 25.0547 12.001C25.0547 9.76124 23.2388 7.94537 20.999 7.94531C18.7594 7.94552 16.9434 9.76133 16.9434 12.001C16.9434 12.7345 17.1398 13.4219 17.4805 14.0156C16.945 14.0461 16.4223 14.124 15.916 14.2441C15.6491 13.6405 15.4854 12.9808 15.4502 12.2871L15.4443 12.001C15.4443 8.93291 17.931 6.44552 20.999 6.44531L21.2852 6.45215Z" fill="#DDAA01"/>
<path d="M28.209 18.1494C28.5015 18.4423 28.5017 18.9172 28.209 19.21L28.1523 19.2607C27.8774 19.4853 27.4801 19.4852 27.2051 19.2607L27.1484 19.21L25.1533 17.2148C25.5452 16.9022 25.9012 16.5462 26.2139 16.1543L28.209 18.1494ZM14.374 11.251C14.3465 11.4968 14.332 11.7469 14.332 12C14.332 12.2536 14.3464 12.5047 14.374 12.751H11.5547L11.4775 12.7471C11.0997 12.7085 10.8049 12.3889 10.8047 12.001C10.8047 11.6128 11.0996 11.2935 11.4775 11.2549L11.5547 11.251H14.374ZM30.5215 11.2549C30.8996 11.2933 31.1943 11.6127 31.1943 12.001L31.1904 12.0771C31.1546 12.4301 30.8744 12.7112 30.5215 12.7471L30.4443 12.751H27.624C27.6516 12.5047 27.666 12.2536 27.666 12C27.666 11.7468 27.6515 11.4968 27.624 11.251H30.4443L30.5215 11.2549ZM27.1484 4.79199C27.4413 4.49919 27.9161 4.49913 28.209 4.79199C28.5014 5.08489 28.5016 5.55978 28.209 5.85254L26.2139 7.84668C25.9013 7.45476 25.5452 7.09878 25.1533 6.78613L27.1484 4.79199ZM13.791 4.79199C14.0839 4.4991 14.5587 4.4991 14.8516 4.79199L16.8457 6.78516C16.4537 7.0978 16.0968 7.45375 15.7842 7.8457L13.791 5.85254C13.4982 5.55971 13.4983 5.0849 13.791 4.79199ZM21 1.80566C21.414 1.80588 21.75 2.14158 21.75 2.55566V5.375C21.5037 5.3474 21.2527 5.33398 20.999 5.33398C20.7458 5.33399 20.4959 5.34751 20.25 5.375V2.55566C20.25 2.14145 20.5858 1.80566 21 1.80566Z" fill="#DDAA01"/>
<path d="M27.7142 33.9781C30.7874 33.7175 33.2004 31.1404 33.2004 27.9998C33.2004 24.686 30.5141 21.9997 27.2003 21.9997C26.6333 21.9997 26.0846 22.0783 25.5646 22.2254C24.3949 18.6126 21.0027 16 17.0003 16C13.4045 16 10.3012 18.1087 8.85963 21.157C8.71716 21.1475 8.57341 21.1428 8.42855 21.1428C4.87816 21.1428 2 24.0209 2 27.5713C2 31.1217 4.87816 33.9998 8.42855 33.9998H16.9147C16.9432 34.0001 16.9717 34.0002 17.0003 34.0002C17.0289 34.0002 17.0574 34.0001 17.0859 33.9998H27.7142V33.9781Z" fill="#F7F9FA"/>
<path d="M17.0001 32.0002V34.0002H8.42876V32.0002H17.0001ZM2 27.5714C2 24.021 4.87834 21.1426 8.42876 21.1426L8.85942 21.1573C10.301 18.1091 13.4044 16.0001 17.0001 16C20.8774 16 24.1822 18.4519 25.4484 21.8897L25.5646 22.2257C26.0846 22.0787 26.6333 22.0001 27.2004 22.0001L27.509 22.0079C30.6794 22.1685 33.2004 24.7898 33.2004 28.0002L33.1936 28.2931C33.0489 31.2997 30.6911 33.7263 27.714 33.9788V34.0002H17.0001V32.0002H27.3722L27.5451 31.9856C29.5918 31.812 31.2003 30.0928 31.2004 28.0002C31.2004 25.7909 29.4096 24.0001 27.2004 24.0001C26.8191 24.0001 26.4532 24.0531 26.1086 24.1505L24.255 24.6739L23.6623 22.8419C22.7518 20.0298 20.1101 18 17.0001 18C14.2066 18.0001 11.7915 19.6366 10.668 22.0118L10.086 23.2423L8.72759 23.1524C8.6291 23.1459 8.52944 23.1427 8.42876 23.1427C5.98292 23.1427 4.00002 25.1256 4.00001 27.5714C4.00001 30.0173 5.98292 32.0002 8.42876 32.0002V34.0002L8.0977 33.9915C4.70107 33.8192 2 31.0109 2 27.5714Z" fill="#A9AEB1"/>
</svg>
