<svg width="24" height="24" viewBox="0 0 24 24" fill="none" xmlns="http://www.w3.org/2000/svg">
<path d="M11.6904 1.88913C12.8052 1.70579 13.9004 1.81157 14.9023 2.15182C12.5492 3.00283 11.0539 5.46566 11.4648 8.06296C11.9278 10.9886 14.6348 12.9773 17.5107 12.5044C17.8909 12.4418 18.255 12.3391 18.5996 12.2016C17.8944 13.4205 16.8257 14.4098 15.5195 15.0014C15.0145 14.5063 14.3236 14.1998 13.5605 14.1997C13.2958 14.1997 13.0396 14.2384 12.7969 14.3071C12.2515 12.6203 10.6682 11.3999 8.7998 11.3999C8.06827 11.3999 7.38001 11.5865 6.78125 11.9155C6.44763 11.2697 6.20728 10.5597 6.08691 9.79929C5.49164 6.03778 8.0006 2.49604 11.6904 1.88913Z" fill="#6B8EE8"/>
<path d="M11.6904 1.8885C12.8051 1.70524 13.9005 1.81102 14.9023 2.1512C12.5494 3.00216 11.0542 5.46528 11.4648 8.06233C11.9278 10.988 14.6348 12.9767 17.5107 12.5037C17.8909 12.4412 18.2551 12.3384 18.5996 12.201C17.8944 13.4199 16.8257 14.4101 15.5195 15.0018C15.0145 14.5065 14.3237 14.2002 13.5605 14.2C13.2958 14.2 13.0396 14.2388 12.7969 14.3074C12.7739 14.2363 12.7463 14.1669 12.7197 14.0975C13.011 14.1001 13.3062 14.0788 13.6025 14.0301C13.957 13.9718 14.2977 13.8763 14.6221 13.7518C12.2555 12.9893 10.4004 10.9318 9.9834 8.29671C9.7203 6.63303 10.0709 5.00703 10.8711 3.66292C8.60957 4.5569 7.16027 6.97817 7.56934 9.56429C7.67764 10.2483 7.90676 10.879 8.22852 11.4393C7.70934 11.51 7.22 11.6744 6.7793 11.9168C6.49708 11.3706 6.28344 10.7772 6.15137 10.1473L6.08691 9.79866C5.4919 6.03735 8.00079 2.49544 11.6904 1.8885Z" fill="#F7F9FA"/>
<path d="M20.4001 6.60039L20.8863 7.91422L22.2001 8.40039L20.8863 8.88655L20.4001 10.2004L19.9139 8.88655L18.6001 8.40039L19.9139 7.91422L20.4001 6.60039Z" fill="#EDEFF0"/>
<path d="M17.4001 2.40015L17.8863 3.71398L19.2001 4.20015L17.8863 4.68631L17.4001 6.00015L16.9139 4.68631L15.6001 4.20015L16.9139 3.71398L17.4001 2.40015Z" fill="#EDEFF0"/>
<path d="M15.0002 6.00014L15.4864 7.31397L16.8002 7.80014L15.4864 8.2863L15.0002 9.60014L14.514 8.2863L13.2002 7.80014L14.514 7.31397L15.0002 6.00014Z" fill="#EDEFF0"/>
<path d="M13.2002 20.9899C14.6344 20.8683 15.7604 19.6657 15.7604 18.2C15.7604 16.6536 14.5068 15.4 12.9604 15.4C12.6958 15.4 12.4397 15.4367 12.197 15.5053C11.6512 13.8193 10.0682 12.6001 8.20037 12.6001C6.52232 12.6001 5.07411 13.5842 4.40137 15.0067C4.33488 15.0023 4.2678 15.0001 4.2002 15.0001C2.54334 15.0001 1.2002 16.3432 1.2002 18.0001C1.2002 19.6569 2.54334 21.0001 4.2002 21.0001H8.16032C8.17366 21.0002 8.187 21.0002 8.20037 21.0002C8.21373 21.0002 8.22708 21.0002 8.24041 21.0001H13.2002V20.9899Z" fill="#F7F9FA"/>
<path d="M8.2002 19.5005V21.0005H4.2002V19.5005H8.2002ZM1.2002 18.0005C1.2002 16.3436 2.54334 15.0005 4.2002 15.0005L4.40137 15.0063C5.07415 13.584 6.52233 12.6002 8.2002 12.6001C9.95129 12.6001 11.4525 13.6716 12.083 15.1948L12.1973 15.5054C12.4397 15.4368 12.6956 15.3999 12.96 15.3999C14.5063 15.3999 15.7606 16.6534 15.7607 18.1997L15.7471 18.4712C15.6182 19.8116 14.5448 20.8757 13.2002 20.9897V21.0005H8.2002V19.5005C8.20892 19.5005 8.21796 19.5006 8.22656 19.5005L8.24023 19.4995V19.5005H13.0156L13.0732 19.4956C13.7375 19.4393 14.2607 18.8794 14.2607 18.1997C14.2606 17.4818 13.6779 16.8999 12.96 16.8999C12.8349 16.8999 12.7164 16.9174 12.6055 16.9487L11.2148 17.3413L10.7695 15.9673C10.4181 14.882 9.39858 14.1001 8.2002 14.1001C7.12385 14.1002 6.19195 14.7301 5.75781 15.6479L5.32129 16.5708L4.30273 16.5034C4.26919 16.5012 4.2347 16.5005 4.2002 16.5005C3.37177 16.5005 2.7002 17.1721 2.7002 18.0005C2.70043 18.8287 3.37191 19.5005 4.2002 19.5005V21.0005L4.0459 20.9966C2.51199 20.9189 1.28203 19.6886 1.2041 18.1548L1.2002 18.0005Z" fill="#A9AEB1"/>
<rect x="4.9101" y="15.4099" width="1.8" height="0.6" transform="rotate(30 4.9101 15.4099)" fill="#A9AEB1" stroke="#A9AEB1" stroke-width="0.6"/>
</svg>
