<svg width="24" height="24" viewBox="0 0 24 24" fill="none" xmlns="http://www.w3.org/2000/svg">
<mask id="mask0_2139_2821" style="mask-type:alpha" maskUnits="userSpaceOnUse" x="4" y="0" width="19" height="20">
<path d="M22.7998 19.1997H15.2871C15.9397 18.6876 16.3604 17.8937 16.3604 16.9995C16.3601 15.4534 15.1067 14.1998 13.5605 14.1997C13.2957 14.1997 13.0397 14.2384 12.7969 14.3071C12.2515 12.6203 10.6682 11.3999 8.7998 11.3999C7.12192 11.4001 5.67462 12.3847 5.00195 13.8071C4.93523 13.8027 4.86765 13.8003 4.7998 13.8003C4.59444 13.8003 4.39396 13.8215 4.2002 13.8608V0.600098H22.7998V19.1997Z" fill="#D9D9D9"/>
</mask>
<g mask="url(#mask0_2139_2821)">
<circle cx="13.5503" cy="10.2004" r="4.25" fill="#FACE00" stroke="#B38C00" stroke-width="1.5"/>
<path d="M13.5502 0.949997C13.9644 0.949997 14.3002 1.28578 14.3002 1.7V4.24647C14.0545 4.21583 13.8042 4.20005 13.5502 4.20005C13.2962 4.20005 13.0459 4.21583 12.8002 4.24647V1.7C12.8002 1.28578 13.136 0.949997 13.5502 0.949997Z" fill="#B38C00"/>
<path d="M11.2226 4.66821L9.94991 2.46377C9.7428 2.10505 9.28411 1.98214 8.92539 2.18925C8.56667 2.39635 8.44376 2.85505 8.65087 3.21377L9.9242 5.41924C10.3212 5.11765 10.757 4.86439 11.2226 4.66821Z" fill="#B38C00"/>
<path d="M8.76959 6.57379L6.56406 5.30043C6.20534 5.09332 5.74665 5.21623 5.53954 5.57495C5.33244 5.93367 5.45534 6.39236 5.81406 6.59947L8.01849 7.87219C8.21469 7.40652 8.46798 6.9708 8.76959 6.57379Z" fill="#B38C00"/>
<path d="M7.59662 9.45005H5.05029C4.63608 9.45005 4.30029 9.78583 4.30029 10.2C4.30029 10.6143 4.63608 10.95 5.05029 10.95H7.59662C7.56598 10.7044 7.5502 10.454 7.5502 10.2C7.5502 9.94605 7.56598 9.69574 7.59662 9.45005Z" fill="#B38C00"/>
<path d="M8.01845 12.5278L5.81419 13.8004C5.45547 14.0075 5.33256 14.4662 5.53967 14.8249C5.74678 15.1837 6.20547 15.3066 6.56419 15.0995L8.76953 13.8262C8.46792 13.4292 8.21464 12.9935 8.01845 12.5278Z" fill="#B38C00"/>
<path d="M9.92408 14.9808L8.65077 17.1862C8.44367 17.5449 8.56657 18.0036 8.92529 18.2107C9.28401 18.4178 9.74271 18.2949 9.94981 17.9362L11.2225 15.7318C10.7568 15.5356 10.3211 15.2824 9.92408 14.9808Z" fill="#B38C00"/>
<path d="M12.8002 16.1536V18.7C12.8002 19.1142 13.136 19.45 13.5502 19.45C13.9644 19.45 14.3002 19.1142 14.3002 18.7V16.1536C14.0545 16.1843 13.8042 16.2 13.5502 16.2C13.2962 16.2 13.0459 16.1843 12.8002 16.1536Z" fill="#B38C00"/>
<path d="M15.8781 15.7317L17.1509 17.9362C17.358 18.2949 17.8167 18.4178 18.1754 18.2107C18.5341 18.0036 18.657 17.5449 18.4499 17.1862L17.1765 14.9806C16.7795 15.2822 16.3438 15.5355 15.8781 15.7317Z" fill="#B38C00"/>
<path d="M18.331 13.8261L20.5365 15.0995C20.8952 15.3066 21.3539 15.1837 21.561 14.8249C21.7681 14.4662 21.6452 14.0075 21.2865 13.8004L19.082 12.5277C18.8858 12.9933 18.6325 13.4291 18.331 13.8261Z" fill="#B38C00"/>
<path d="M19.5038 10.95H22.0503C22.4645 10.95 22.8003 10.6143 22.8003 10.2C22.8003 9.78583 22.4645 9.45005 22.0503 9.45005H19.5038C19.5344 9.69574 19.5502 9.94605 19.5502 10.2C19.5502 10.454 19.5344 10.7043 19.5038 10.95Z" fill="#B38C00"/>
<path d="M19.082 7.87233L21.2866 6.59947C21.6453 6.39236 21.7682 5.93367 21.5611 5.57495C21.354 5.21623 20.8953 5.09332 20.5366 5.30043L18.3309 6.57391C18.6325 6.97092 18.8858 7.40665 19.082 7.87233Z" fill="#B38C00"/>
<path d="M17.1764 5.41939L18.4498 3.21377C18.6569 2.85505 18.534 2.39635 18.1753 2.18925C17.8166 1.98214 17.3579 2.10505 17.1508 2.46377L15.878 4.66831C16.3437 4.86451 16.7794 5.11779 17.1764 5.41939Z" fill="#B38C00"/>
</g>
<path d="M8.2002 13.3501C9.73315 13.3501 11.0346 14.3504 11.4834 15.7358L11.7061 16.4233L12.4014 16.2271C12.5781 16.1771 12.7652 16.1499 12.96 16.1499C14.0921 16.1499 15.0106 17.0676 15.0107 18.1997C15.0107 19.2724 14.186 20.1537 13.1367 20.2427L13.0449 20.2505H4.2002C2.9577 20.2505 1.95043 19.2429 1.9502 18.0005C1.9502 16.7578 2.95755 15.7505 4.2002 15.7505C4.25117 15.7505 4.30162 15.7521 4.35156 15.7554L4.86133 15.7886L5.0791 15.3276C5.63251 14.1574 6.823 13.3502 8.2002 13.3501Z" fill="#F1F3F6" stroke="#71767A" stroke-width="1.5"/>
<rect x="4.90986" y="15.4099" width="1.8" height="0.6" transform="rotate(30 4.90986 15.4099)" fill="#71767A" stroke="#71767A" stroke-width="0.6"/>
</svg>
