<svg width="40" height="40" viewBox="0 0 40 40" fill="none" xmlns="http://www.w3.org/2000/svg">
<mask id="mask0_2139_2104" style="mask-type:alpha" maskUnits="userSpaceOnUse" x="5" y="2" width="35" height="31">
<path d="M40 33H5V30.2295C6.07843 31.255 7.51192 31.9107 9.09766 31.9912L9.42871 32H28.7139V31.9756C31.7871 31.715 34.2001 29.1406 34.2002 26C34.2002 22.6862 31.5139 20 28.2002 20C27.6327 20 27.0838 20.0803 26.5635 20.2275C26.4555 19.894 26.3281 19.5692 26.1836 19.2539C28.4157 18.4717 29.4659 17.1752 30.4521 14.9268C30.0088 15.1627 27.9654 15.1823 27.4678 15.2334C24.4836 15.54 22.2666 13.5483 21.2334 9.60547C20.3162 6.10466 21.7805 3.60028 24.8193 2.11035C24.6392 2.06793 24.4574 2.03109 24.2744 2H40V33ZM21.3477 2C21.0556 2.04945 20.7634 2.11403 20.4717 2.19434C15.6048 3.53428 12.9317 7.65405 14.2598 12.7236C14.4271 13.3624 14.6537 13.9689 14.9307 14.5381C12.694 15.3502 10.8706 17.0239 9.86133 19.1582C9.71841 19.1487 9.57404 19.1426 9.42871 19.1426C7.71194 19.1426 6.15302 19.8165 5 20.9131V2H21.3477Z" fill="#D9D9D9"/>
</mask>
<g mask="url(#mask0_2139_2104)">
<path d="M27.6348 14C30.0823 14.0001 32.1682 15.5611 32.9453 17.7451L33.0967 18.1709L33.5156 18.3389C35.2663 19.0404 36.5 20.7523 36.5 22.75C36.5 25.3733 34.3733 27.5 31.75 27.5C31.4337 27.5 31.1255 27.4695 30.8281 27.4111L30.4971 27.3457L30.1953 27.4941C29.8362 27.67 29.4527 27.8039 29.0518 27.8896L28.5078 28.0059H15.2773L15.1289 27.9932C13.3767 27.8446 12 26.3742 12 24.583C12 22.8011 13.3623 21.3362 15.1016 21.1748L15.958 21.0957L16.0078 20.2363C16.1438 17.8742 18.1032 16 20.5 16C21.0903 16 21.6522 16.1135 22.166 16.3184L22.8398 16.5869L23.3037 16.0293C24.3389 14.7875 25.8947 14 27.6348 14Z" fill="#F1F3F6" stroke="#71767A" stroke-width="2"/>
</g>
<path d="M20.2031 3C18.0703 4.8403 16.9169 7.75939 17.3848 10.7764C18.0291 14.9311 21.5469 17.9187 25.5557 17.8291C24.4305 18.8845 23.0162 19.6239 21.4209 19.8916C17.0271 20.6289 12.8298 17.5236 12.1064 12.8594C11.3819 8.18686 14.4391 3.8476 18.8438 3.1084C19.3011 3.03167 19.7554 2.99655 20.2031 3Z" fill="#ADCDFF" stroke="#565C65" stroke-width="2"/>
<path d="M17 17C20.5561 17 23.5732 19.3209 24.6133 22.5332L24.9102 23.4492L25.8369 23.1875C26.2691 23.0653 26.7262 23 27.2002 23C29.9617 23 32.2002 25.2385 32.2002 28C32.2001 30.6165 30.1897 32.7642 27.6299 32.9814L27.4121 33H8.42871C5.43061 33 3 30.5694 3 27.5713C3 24.5732 5.43061 22.1426 8.42871 22.1426C8.55146 22.1426 8.67349 22.1473 8.79395 22.1553L9.47266 22.2002L9.76367 21.585C11.0461 18.8732 13.8054 17.0001 17 17Z" fill="#F1F3F6" stroke="#71767A" stroke-width="2"/>
</svg>
