<svg width="24" height="24" viewBox="0 0 24 24" fill="none" xmlns="http://www.w3.org/2000/svg">
<mask id="mask0_2139_2838" style="mask-type:alpha" maskUnits="userSpaceOnUse" x="4" y="0" width="19" height="20">
<path d="M22.7996 19.1997H15.2869C15.9394 18.6876 16.3601 17.8936 16.3601 16.9995C16.3598 15.4535 15.1064 14.1999 13.5603 14.1997C13.2955 14.1997 13.0394 14.2385 12.7966 14.3071C12.2513 12.6203 10.6679 11.3999 8.79956 11.3999C7.12166 11.4 5.6744 12.3847 5.00171 13.8071C4.93498 13.8027 4.86741 13.8003 4.79956 13.8003C4.59423 13.8003 4.39369 13.8215 4.19995 13.8608V0.600098H22.7996V19.1997Z" fill="#D9D9D9"/>
</mask>
<g mask="url(#mask0_2139_2838)">
<path d="M12.7654 2.55205C11.2168 3.89419 10.3782 5.99814 10.7234 8.17998C11.2016 11.2016 13.7925 13.3605 16.7361 13.3226C15.9126 14.0621 14.8836 14.5801 13.7244 14.7708C10.4578 15.308 7.3603 13.0454 6.82788 9.68193C6.29506 6.31506 8.54187 3.16704 11.8123 2.6292C12.1327 2.5765 12.4511 2.55265 12.7654 2.55205Z" fill="#ADCDFF" stroke="#565C65" stroke-width="1.5"/>
<path d="M20.3999 6.60039L20.886 7.91422L22.1999 8.40039L20.886 8.88655L20.3999 10.2004L19.9137 8.88655L18.5999 8.40039L19.9137 7.91422L20.3999 6.60039Z" fill="#8D9297"/>
<path d="M17.3999 2.40015L17.886 3.71398L19.1999 4.20015L17.886 4.68631L17.3999 6.00015L16.9137 4.68631L15.5999 4.20015L16.9137 3.71398L17.3999 2.40015Z" fill="#8D9297"/>
<path d="M14.9997 6.00014L15.4859 7.31397L16.7997 7.80014L15.4859 8.2863L14.9997 9.60014L14.5135 8.2863L13.1997 7.80014L14.5135 7.31397L14.9997 6.00014Z" fill="#8D9297"/>
</g>
<path d="M8.19995 13.3501C9.73291 13.3501 11.0344 14.3504 11.4832 15.7358L11.7058 16.4233L12.4011 16.2271C12.5778 16.1771 12.765 16.1499 12.9597 16.1499C14.0918 16.1499 15.0103 17.0676 15.0105 18.1997C15.0105 19.2724 14.1857 20.1537 13.1365 20.2427L13.0447 20.2505H4.19995C2.95745 20.2505 1.95018 19.2429 1.94995 18.0005C1.94995 16.7578 2.95731 15.7505 4.19995 15.7505C4.25092 15.7505 4.30138 15.7521 4.35132 15.7554L4.86108 15.7886L5.07886 15.3276C5.63227 14.1574 6.82275 13.3502 8.19995 13.3501Z" fill="#F1F3F6" stroke="#71767A" stroke-width="1.5"/>
<rect x="4.90961" y="15.4098" width="1.8" height="0.6" transform="rotate(30 4.90961 15.4098)" fill="#71767A" stroke="#71767A" stroke-width="0.6"/>
</svg>
