<svg width="40" height="40" viewBox="0 0 40 40" fill="none" xmlns="http://www.w3.org/2000/svg">
<path d="M22.8169 8.66724C27.4192 8.66724 31.1507 12.398 31.1509 17.0002C31.1509 20.597 28.8716 23.6608 25.6792 24.8284C24.8573 24.106 23.7803 23.6672 22.6001 23.6672C22.1589 23.6673 21.7322 23.7286 21.3276 23.843C20.424 21.051 17.8139 19.0274 14.7271 19.0012C14.5691 18.3602 14.4839 17.69 14.4839 17.0002C14.4841 12.3981 18.2148 8.66741 22.8169 8.66724Z" fill="#FACE00"/>
<path d="M22.8169 8.66699C27.4191 8.66699 31.1506 12.3979 31.1509 17L31.1401 17.4287C30.9675 20.8389 28.7434 23.7062 25.6782 24.8271C24.8565 24.1054 23.7798 23.667 22.6001 23.667C22.1589 23.667 21.7322 23.7283 21.3276 23.8428C21.2426 23.5799 21.1412 23.3244 21.0269 23.0762C21.5946 23.2432 22.1951 23.334 22.8169 23.334C26.3147 23.334 29.1509 20.4978 29.1509 17C29.1506 13.5025 26.3145 10.667 22.8169 10.667C19.3194 10.6672 16.4842 13.5026 16.4839 17C16.4839 17.8422 16.6493 18.6458 16.9478 19.3809C16.2502 19.1405 15.5028 19.0074 14.7251 19.001C14.5672 18.3601 14.4839 17.6896 14.4839 17C14.4842 12.398 18.2149 8.66717 22.8169 8.66699Z" fill="#B38C00"/>
<path d="M16.9753 25.1174C17.5146 25.5062 18.0944 25.8429 18.7068 26.1194L16.5994 29.7688L16.5437 29.8547C16.2669 30.2382 15.7563 30.3748 15.325 30.1809L15.2341 30.135C14.7558 29.8589 14.5918 29.2471 14.8679 28.7688L16.9753 25.1174ZM30.7664 28.7688C31.0424 29.2471 30.8784 29.8589 30.4001 30.135L30.3093 30.1809C29.8778 30.375 29.3663 30.2386 29.0896 29.8547L29.0339 29.7688L26.9275 26.1184C27.5396 25.842 28.1189 25.506 28.658 25.1174L30.7664 28.7688ZM13.698 21.1106C13.9744 21.7227 14.3104 22.302 14.699 22.8411L11.0486 24.9495L10.9568 24.9963C10.5254 25.1899 10.0146 25.0527 9.73804 24.6692L9.68237 24.5833C9.40623 24.105 9.57029 23.4932 10.0486 23.217L13.698 21.1106ZM35.5857 23.217C36.0639 23.4932 36.2279 24.105 35.9519 24.5833L35.8962 24.6692C35.6196 25.053 35.108 25.1903 34.6765 24.9963L34.5857 24.9495L30.9343 22.8411C31.323 22.3018 31.6599 21.7219 31.9363 21.1096L35.5857 23.217ZM12.866 16.0002C12.8333 16.329 12.8171 16.6629 12.8171 17.0002C12.8171 17.3376 12.8333 17.6714 12.866 18.0002H8.65015L8.54761 17.9944C8.04362 17.943 7.65031 17.5178 7.65015 17.0002C7.65015 16.4826 8.04349 16.0565 8.54761 16.0051L8.65015 16.0002H12.866ZM9.68237 9.41626C9.95862 8.93825 10.5704 8.77495 11.0486 9.05103L14.699 11.1584C14.3103 11.6977 13.9744 12.2775 13.698 12.8899L10.0486 10.7825C9.57029 10.5063 9.40623 9.89455 9.68237 9.41626ZM34.5857 9.05005C35.0639 8.77406 35.6757 8.93813 35.9519 9.41626C36.228 9.89455 36.064 10.5063 35.5857 10.7825L31.9363 12.8899C31.6598 12.2775 31.3231 11.6977 30.9343 11.1584L34.5857 9.05005ZM15.2341 3.86548C15.7124 3.5895 16.3233 3.75346 16.5994 4.23169L18.7068 7.8811C18.0945 8.15753 17.5146 8.49339 16.9753 8.88208L14.8679 5.23169C14.5918 4.7534 14.7558 4.14162 15.2341 3.86548ZM29.0339 4.23169C29.3101 3.75341 29.9219 3.58936 30.4001 3.86548C30.8784 4.14162 31.0425 4.7534 30.7664 5.23169L28.658 8.88208C28.1189 8.49354 27.5396 8.15746 26.9275 7.8811L29.0339 4.23169ZM23.8171 7.04907C23.4883 7.01643 23.1545 7.00026 22.8171 7.00024C22.4798 7.00024 22.1459 7.01644 21.8171 7.04907V2.83325C21.8171 2.28097 22.2649 1.83325 22.8171 1.83325C23.3693 1.83343 23.8171 2.28108 23.8171 2.83325V7.04907ZM23.8113 31.2688C23.7601 31.7729 23.3348 32.1661 22.8171 32.1663L22.7146 32.1614C22.2439 32.1136 21.8698 31.7395 21.822 31.2688L21.8171 31.1663V26.9504C22.1459 26.9831 22.4797 27.0002 22.8171 27.0002C23.1545 27.0002 23.4883 26.9831 23.8171 26.9504V31.1663L23.8113 31.2688ZM37.9783 17.1018C37.9306 17.5726 37.5564 17.9466 37.0857 17.9944L36.9832 18.0002H32.7673C32.8 17.6714 32.8171 17.3376 32.8171 17.0002C32.8171 16.6629 32.8 16.329 32.7673 16.0002H36.9832L37.0857 16.0051C37.59 16.0563 37.9832 16.4825 37.9832 17.0002L37.9783 17.1018Z" fill="#B38C00"/>
<path d="M13.667 22C16.3337 22 18.5968 23.7408 19.377 26.1504L19.6738 27.0664L20.6006 26.8047C20.9173 26.7152 21.2525 26.666 21.6006 26.666C23.6255 26.6661 25.2675 28.3081 25.2676 30.333C25.2676 32.2518 23.7921 33.8271 21.915 33.9863L21.7549 34H7C4.79088 34 3.00004 32.2091 3 30C3 27.7909 4.79086 26 7 26C7.09061 26 7.18068 26.0029 7.26953 26.0088L7.94824 26.0537L8.23926 25.4385C9.20142 23.404 11.2713 22 13.667 22Z" fill="#F1F3F6" stroke="#71767A" stroke-width="2"/>
<rect x="8.18301" y="25.683" width="3" height="1" transform="rotate(30 8.18301 25.683)" fill="#71767A" stroke="#71767A"/>
</svg>
