<svg width="24" height="24" viewBox="0 0 24 24" fill="none" xmlns="http://www.w3.org/2000/svg">
<mask id="mask0_2139_2902" style="mask-type:alpha" maskUnits="userSpaceOnUse" x="2" y="1" width="21" height="19">
<path d="M22.0864 19.7998H2.28662V18.1387C2.93367 18.7537 3.79361 19.147 4.74463 19.1953L4.94287 19.2002H17.229V19.1855C19.0725 19.0288 20.5198 17.4846 20.52 15.6006C20.52 13.6124 18.9086 12.0001 16.9204 12C16.8034 12 16.6879 12.0074 16.5737 12.0186C16.4708 12.0081 16.3666 12.0026 16.2612 12.001C16.8126 11.5413 17.1931 10.9268 17.5581 10.0947C17.2921 10.2363 16.0657 10.2477 15.7671 10.2783C15.4515 10.3107 15.1504 10.2992 14.8647 10.2471C14.312 9.61532 13.6153 9.11294 12.8247 8.79297C12.4927 8.28454 12.2227 7.65243 12.0259 6.90137C11.4755 4.80088 12.3549 3.29826 14.1782 2.4043C13.3426 2.20754 12.4512 2.21216 11.5688 2.45508C8.649 3.25918 7.04545 5.73085 7.84229 8.77246C7.85138 8.80718 7.86191 8.84158 7.87158 8.87598C6.70078 9.40375 5.75095 10.3356 5.20264 11.4951C5.11693 11.4894 5.03002 11.4863 4.94287 11.4863C3.91321 11.4865 2.97837 11.8904 2.28662 12.5479V1.2002H22.0864V19.7998Z" fill="#D9D9D9"/>
</mask>
<g mask="url(#mask0_2139_2902)">
<path d="M15.946 8.47061C17.4172 8.47061 18.6661 9.43082 19.0964 10.7607L19.196 11.0692L19.489 11.2079C20.405 11.6413 21.0369 12.5729 21.0369 13.6503C21.0369 15.1414 19.8277 16.3504 18.3367 16.3505C18.1567 16.3505 17.9812 16.3329 17.8123 16.2997L17.5642 16.2509L17.3376 16.3622C17.1331 16.4624 16.9147 16.538 16.6863 16.5868L16.3718 16.6542H8.45776L8.37671 16.6474C7.40232 16.5648 6.63647 15.7461 6.63647 14.7499C6.63657 13.7591 7.39411 12.9442 8.36108 12.8544L9.00366 12.7948L9.04077 12.1513C9.11779 10.8129 10.2286 9.74991 11.5867 9.74991C11.9161 9.74993 12.2293 9.81225 12.5164 9.92471L13.0271 10.1249L13.3728 9.69913C13.9809 8.94866 14.9073 8.47067 15.946 8.47061Z" fill="#F1F3F6" stroke="#71767A" stroke-width="1.5"/>
</g>
<mask id="mask1_2139_2902" style="mask-type:alpha" maskUnits="userSpaceOnUse" x="4" y="1" width="14" height="17">
<path d="M18 17.2002H4V1.2002H18V17.2002ZM11 8.5C8.79086 8.5 7 10.2909 7 12.5C7 14.7091 8.79086 16.5 11 16.5C13.2091 16.5 15 14.7091 15 12.5C15 10.2909 13.2091 8.5 11 8.5Z" fill="#D9D9D9"/>
</mask>
<g mask="url(#mask1_2139_2902)">
<path d="M11.7236 2.7666C10.5989 3.90785 10.0163 5.57411 10.2822 7.28906C10.6586 9.7152 12.6254 11.5019 14.9395 11.6396C14.3382 12.1188 13.621 12.4537 12.8271 12.5869C10.2787 13.0145 7.83331 11.2143 7.41113 8.49316C6.98816 5.76575 8.77358 3.24279 11.3301 2.81348C11.4616 2.79141 11.5933 2.77707 11.7236 2.7666Z" fill="#ADCDFF" stroke="#565C65" stroke-width="1.5"/>
</g>
<path d="M11.0002 10.3501C13.0671 10.3501 14.8215 11.6994 15.426 13.5669L15.6477 14.2534L16.343 14.0571C16.5892 13.9875 16.8499 13.9497 17.1204 13.9497C18.6944 13.9497 19.97 15.2263 19.97 16.8003C19.9699 18.2916 18.8243 19.5163 17.3655 19.6401L17.2493 19.6499H5.85767C4.14165 19.6499 2.75024 18.2585 2.75024 16.5425C2.75032 14.8265 4.14169 13.4351 5.85767 13.4351C5.92799 13.4351 5.99767 13.4383 6.06665 13.4429L6.57642 13.4761L6.79419 13.0151C7.53984 11.4387 9.14374 10.3502 11.0002 10.3501Z" fill="#F1F3F6" stroke="#71767A" stroke-width="1.5"/>
</svg>
