<svg width="40" height="40" viewBox="0 0 40 40" fill="none" xmlns="http://www.w3.org/2000/svg">
<path d="M18 2C21.739 2 24.9962 4.05345 26.7119 7.09277C27.1326 7.03247 27.5626 7 28 7C32.9706 7 37 11.0294 37 16C37 20.9706 32.9706 25 28 25H9C5.13401 25 2 21.866 2 18C2 14.4584 4.63036 11.5327 8.04395 11.0664C8.51478 5.98134 12.792 2 18 2Z" fill="#F7F9FA"/>
<path d="M18 2C21.739 2 24.9962 4.05345 26.7119 7.09277C27.1326 7.03247 27.5626 7 28 7C32.9706 7 37 11.0294 37 16C37 20.9706 32.9706 25 28 25C27.4477 25 27 24.5523 27 24C27 23.4477 27.4477 23 28 23C31.866 23 35 19.866 35 16C35 12.134 31.866 9 28 9C27.6619 9 27.3269 9.02486 26.9961 9.07227L25.6426 9.2666L24.9707 8.07617C23.5947 5.63855 20.9875 4 18 4C13.835 4 10.4117 7.18479 10.0352 11.251L9.88867 12.833L8.31445 13.0479C5.87753 13.3808 4 15.4727 4 18C4 20.7614 6.23858 23 9 23H10C10.5523 23 11 23.4477 11 24C11 24.5523 10.5523 25 10 25H9C5.13401 25 2 21.866 2 18C2 14.4584 4.63036 11.5327 8.04395 11.0664C8.51478 5.98134 12.792 2 18 2Z" fill="#A9AEB1"/>
<path d="M25 19C25 17.3172 23.6797 16.0001 22.1084 16C20.9487 16 19.9301 16.7122 19.4707 17.7676C19.2502 18.2735 18.6614 18.5052 18.1553 18.2852C17.6489 18.0647 17.4163 17.4751 17.6367 16.9688C18.3924 15.2328 20.1004 14 22.1084 14C24.8356 14.0001 27 16.2647 27 19C27 21.7353 24.8356 23.9999 22.1084 24H13C12.4477 24 12 23.5523 12 23C12 22.4477 12.4477 22 13 22H22.1084C23.6797 21.9999 25 20.6828 25 19Z" fill="#0076D6"/>
<path d="M31 30.5C31 31.8929 29.889 32.9998 28.5459 33C27.5561 33 26.6932 32.4016 26.3057 31.5244C26.0826 31.0192 25.4915 30.7906 24.9863 31.0137C24.4814 31.2369 24.2525 31.827 24.4756 32.332C25.1667 33.897 26.7241 35 28.5459 35C31.0182 34.9998 33 32.9728 33 30.5C33 28.0272 31.0182 26.0002 28.5459 26H13C12.4477 26 12 26.4477 12 27C12 27.5523 12.4477 28 13 28H28.5459C29.889 28.0002 31 29.1071 31 30.5Z" fill="#58B4FF"/>
</svg>
