<svg width="87" height="75" viewBox="0 0 87 75" fill="none" xmlns="http://www.w3.org/2000/svg">
<path d="M68.1995 53.1512C67.1529 53.1512 66.1064 52.1046 66.1064 51.0581C66.1064 50.0116 67.1529 48.9651 68.1995 48.9651C76.0485 48.9651 82.3277 42.686 82.3277 34.8372C82.3277 26.9884 76.0485 20.7093 68.1995 20.7093C66.6296 20.7093 65.2343 20.8837 63.8389 21.407L61.7458 22.1047L61.0481 20.0116C57.9085 11.2907 49.7106 5.53488 40.6406 5.53488C29.4775 5.53488 20.2331 13.907 19.0121 25.0698L18.6633 27.1628L16.5702 26.814C16.3958 26.814 16.0469 26.814 15.8725 26.814C15.6981 26.814 15.5237 26.814 15.3492 26.814C9.24443 26.814 4.36058 31.6977 4.36058 37.8023C4.36058 43.907 9.24443 48.7907 15.3492 48.7907C16.3958 48.7907 17.4423 49.8372 17.4423 50.8837C17.4423 51.9302 16.3958 52.9767 15.3492 52.9767C6.8025 52.9767 0 46 0 37.6279C0 29.2558 6.8025 22.2791 15.1748 22.2791C17.2679 9.89535 27.9077 1 40.815 1C51.106 1 60.3504 7.10465 64.5366 16.5233C65.7575 16.3488 66.9785 16.1744 68.1995 16.1744C78.316 16.1744 86.6883 24.5465 86.6883 34.6628C86.3395 44.7791 78.1416 53.1512 68.1995 53.1512Z"/>
<path d="M57.4286 74C56.4286 74 55.5714 73.1455 55.5714 72.1486C55.5714 71.1516 56.4286 70.1547 57.4286 70.1547C60.4286 70.1547 63.1429 67.4487 63.1429 64.458C63.1429 61.1823 60.7143 58.7612 57.4286 58.7612H20C19 58.7612 18 57.9067 18 56.9098C18 55.9129 18.8571 54.9159 20 54.9159H57.4286C62.7143 54.9159 67 59.1885 67 64.6004C67 70.0123 62.7143 74 57.4286 74ZM55.4286 50.0718H27.1429C26.1429 50.0718 25.1429 49.2173 25.1429 48.0779C25.1429 46.9386 26 46.0841 27.1429 46.0841H55.4286C59.4286 46.0841 62.8571 42.666 62.8571 38.5359C62.8571 34.2633 59.4286 30.8453 55.4286 30.8453C52.4286 30.8453 49.8571 32.5543 48.5714 35.4027C48.4286 35.8299 48 36.2572 47.4286 36.542C47 36.6845 46.4286 36.6845 46 36.3996C45.5714 36.2572 45.1429 35.8299 45 35.2603C44.8571 34.833 44.8571 34.2633 45.1429 33.8361C46.8571 29.706 51 27 55.5714 27C61.8571 27 67 32.2695 67 38.5359C66.8571 44.9447 61.7143 50.0718 55.4286 50.0718Z"/>
</svg>
