<svg width="24" height="24" viewBox="0 0 24 24" fill="none" xmlns="http://www.w3.org/2000/svg">
<path d="M10.907 2C13.0739 2 14.9725 3.14317 16.0369 4.8584C16.3159 4.81114 16.6028 4.78613 16.8953 4.78613C19.7144 4.78628 21.9995 7.07228 21.9998 9.89258C21.9998 12.7131 19.7146 14.9999 16.8953 15C16.8709 15 16.8463 14.9984 16.822 14.998V15H6.29565V14.9971C6.26296 14.9978 6.2299 15 6.19702 15C3.88861 14.9998 2.01733 13.1289 2.01733 10.8213C2.01741 8.93187 3.27212 7.33599 4.9939 6.81934C5.55657 4.06888 7.99052 2.00001 10.907 2Z" fill="#F7F9FA"/>
<path d="M10.8926 2C13.0604 2.00015 14.9604 3.14386 16.0244 4.86035C16.3072 4.81173 16.5979 4.78616 16.8945 4.78613C19.7139 4.78613 21.9999 7.07208 22 9.89258C22 12.6779 19.7707 14.9409 17 14.9971V14.9951H16.252C15.8377 14.9951 15.502 14.6593 15.502 14.2451C15.502 13.8309 15.8377 13.4951 16.252 13.4951H17.002C18.9427 13.4383 20.5 11.8493 20.5 9.89258C20.4999 7.90028 18.8852 6.28613 16.8945 6.28613C16.6842 6.28616 16.4784 6.30448 16.2783 6.33887L15.2822 6.50977L14.749 5.65039C13.9969 4.43736 12.6953 3.60874 11.1953 3.50977L10.8926 3.5C8.70292 3.5 6.87225 5.05348 6.44922 7.11914L6.26855 7.99805L5.40918 8.25586C4.37217 8.5664 3.60218 9.48689 3.50977 10.5967L3.5 10.8213C3.5 12.2397 4.60357 13.3966 6 13.4893V13.4951H6.75C7.16421 13.4951 7.5 13.8309 7.5 14.2451C7.49994 14.6593 7.16417 14.9951 6.75 14.9951H6V14.9941C3.77499 14.8999 2 13.0687 2 10.8213C2.00009 8.9308 3.2562 7.33407 4.97949 6.81836C5.54256 4.06841 7.97647 2 10.8926 2Z" fill="#A9AEB1"/>
<path d="M15.3501 10.7002C15.3501 9.70319 14.5839 8.95044 13.7056 8.9502C13.0558 8.9502 12.4733 9.35564 12.2075 9.97559C12.0443 10.3563 11.6029 10.5323 11.2222 10.3691C10.8417 10.2058 10.6655 9.76535 10.8286 9.38477C11.3106 8.26027 12.4061 7.4502 13.7056 7.4502C15.4723 7.45043 16.8501 8.93608 16.8501 10.7002C16.8501 12.4643 15.4723 13.95 13.7056 13.9502H8.6001C8.18588 13.9502 7.8501 13.6144 7.8501 13.2002C7.8501 12.786 8.18588 12.4502 8.6001 12.4502H13.7056C14.5839 12.45 15.3501 11.6972 15.3501 10.7002Z" fill="#0076D6"/>
<path d="M16.2502 18.3003C16.25 19.055 15.6482 19.6499 14.927 19.6499C14.3957 19.6498 13.9307 19.3286 13.7209 18.854C13.5537 18.4752 13.1105 18.3032 12.7317 18.4702C12.3529 18.6375 12.1808 19.0806 12.3479 19.4595C12.7853 20.4499 13.7717 21.1498 14.927 21.1499C16.495 21.1499 17.75 19.8649 17.7502 18.3003C17.7502 16.7356 16.4952 15.4497 14.927 15.4497H8.59985C8.18571 15.4497 7.84996 15.7856 7.84985 16.1997C7.84985 16.6139 8.18564 16.9497 8.59985 16.9497H14.927C15.6483 16.9497 16.2502 17.5454 16.2502 18.3003Z" fill="#58B4FF"/>
</svg>
