<svg width="24" height="24" viewBox="0 0 24 24" fill="none" xmlns="http://www.w3.org/2000/svg">
<mask id="mask0_2174_4212" style="mask-type:alpha" maskUnits="userSpaceOnUse" x="0" y="2" width="23" height="18">
<path d="M22.5996 20H0.599609V2H22.5996V20ZM10.9131 6C9.12985 6.00016 7.56396 6.91703 6.66602 8.2998C6.48338 8.27157 6.2961 8.25782 6.10547 8.25781C4.11405 8.25781 2.5 9.85668 2.5 11.8291C2.50014 13.7398 4.01479 15.2999 5.91992 15.3955L6.10547 15.4004H8.51465C9.22808 15.7827 10.045 15.9999 10.9131 16C11.7811 16 12.5981 15.7826 13.3115 15.4004H15.3154C15.7205 15.5715 16.1665 15.667 16.6348 15.667C18.4933 15.6669 19.9999 14.1738 20 12.333C19.9998 10.4923 18.4932 9.00011 16.6348 9C16.2766 9 15.9312 9.05553 15.6074 9.1582C14.8669 7.3084 13.0443 6 10.9131 6Z" fill="#D9D9D9"/>
</mask>
<g mask="url(#mask0_2174_4212)">
<mask id="mask1_2174_4212" style="mask-type:alpha" maskUnits="userSpaceOnUse" x="2" y="2" width="21" height="16">
<path d="M23 18H2V2H23V18Z" fill="#D9D9D9"/>
</mask>
<g mask="url(#mask1_2174_4212)">
<path d="M18.2539 2.50781C17.7783 3.22119 17.5 4.07806 17.5 5C17.5 7.21872 19.106 9.06069 21.2188 9.43066C20.5049 10.0941 19.5503 10.5 18.5 10.5C16.2909 10.5 14.5 8.70914 14.5 6.5C14.5 4.37351 16.1594 2.63495 18.2539 2.50781Z" fill="#ADCDFF" stroke="#565C65"/>
</g>
</g>
<path d="M10.1543 7.75C12.1468 7.75008 13.8134 9.00109 14.3838 10.6973L14.6094 11.3682L15.292 11.1816C15.528 11.1174 15.7782 11.083 16.0381 11.083C17.5624 11.083 18.7498 12.2659 18.75 13.666C18.75 14.9936 17.6849 16.1248 16.2744 16.2402L16.1553 16.25H5.20898C3.5481 16.25 2.25017 14.9603 2.25 13.4287C2.25 11.8969 3.54799 10.6074 5.20898 10.6074C5.27659 10.6074 5.34386 10.6091 5.41016 10.6133L5.91016 10.6455L6.13086 10.1953C6.83624 8.75924 8.36531 7.75 10.1543 7.75Z" fill="#F1F3F6" stroke="#71767A" stroke-width="1.5"/>
<rect x="4" y="18" width="1" height="3" rx="0.5" fill="#4F97D1"/>
<path d="M12 18.5C12 18.2239 12.2239 18 12.5 18C12.7761 18 13 18.2239 13 18.5V20.5C13 20.7761 12.7761 21 12.5 21C12.2239 21 12 20.7761 12 20.5V18.5Z" fill="#4F97D1"/>
<rect x="8" y="19" width="1" height="3" rx="0.5" fill="#4F97D1"/>
<rect width="1" height="3" rx="0.5" transform="matrix(-1 0 0 1 17 19)" fill="#4F97D1"/>
</svg>
