<svg width="40" height="40" viewBox="0 0 40 40" fill="none" xmlns="http://www.w3.org/2000/svg">
<mask id="mask0_2173_3849" style="mask-type:alpha" maskUnits="userSpaceOnUse" x="1" y="0" width="39" height="33">
<path d="M40 33H1V0H40V33ZM18 6C14.4043 6.00022 11.3028 8.10995 9.86133 11.1582C9.71841 11.1487 9.57403 11.1426 9.42871 11.1426C5.87847 11.1427 3.00005 14.021 3 17.5713C3 21.0106 5.70117 23.8189 9.09766 23.9912L9.42871 24H28.7139V23.9756C31.7871 23.715 34.2001 21.1406 34.2002 18C34.2002 14.6862 31.5139 12 28.2002 12C27.6327 12 27.0838 12.0803 26.5635 12.2275C25.3943 8.61396 22.0029 6 18 6Z" fill="#D9D9D9"/>
</mask>
<g mask="url(#mask0_2173_3849)">
<path d="M31.4199 3.76562C29.4018 5.36055 28.2887 8.05056 28.71 10.8281C29.2804 14.588 32.486 17.2753 36.0859 17.001C35.0442 18.1085 33.6853 18.8855 32.1367 19.1514C28.2359 19.8208 24.4911 17.0026 23.8447 12.7412C23.1971 8.47104 25.9305 4.52053 29.8447 3.84863C30.3766 3.75736 30.904 3.73339 31.4199 3.76562Z" fill="#6B8EE8" stroke="#F7F9FA" stroke-width="1.5"/>
</g>
<path d="M17 9C20.5561 9 23.5732 11.3209 24.6133 14.5332L24.9102 15.4492L25.8369 15.1875C26.2691 15.0653 26.7262 15 27.2002 15C29.9617 15 32.2002 17.2385 32.2002 20C32.2001 22.6165 30.1897 24.7642 27.6299 24.9814L27.4121 25H8.42871C5.43061 25 3 22.5694 3 19.5713C3 16.5732 5.43061 14.1426 8.42871 14.1426C8.55146 14.1426 8.67349 14.1473 8.79395 14.1553L9.47266 14.2002L9.76367 13.585C11.0461 10.8732 13.8054 9.00012 17 9Z" fill="#F7F9FA" stroke="#A9AEB1" stroke-width="2"/>
<rect x="5" y="28" width="1.5" height="3" rx="0.75" fill="#58B4FF"/>
<rect x="25" y="28" width="1.5" height="3" rx="0.75" fill="#58B4FF"/>
<rect x="15" y="28" width="1.5" height="3" rx="0.75" fill="#58B4FF"/>
<rect x="10" y="30" width="1.5" height="3" rx="0.75" fill="#58B4FF"/>
<rect width="1.5" height="3" rx="0.75" transform="matrix(-1 0 0 1 21 30)" fill="#58B4FF"/>
</svg>
