<svg width="24" height="24" viewBox="0 0 24 24" fill="none" xmlns="http://www.w3.org/2000/svg">
<g clip-path="url(#clip0_2174_3969)">
<mask id="mask0_2174_3969" style="mask-type:alpha" maskUnits="userSpaceOnUse" x="0" y="0" width="25" height="20">
<path d="M24.0002 19.7997H0.599854V-6.10352e-05H24.0002V19.7997ZM10.9133 5.99994C9.13016 6.0001 7.56422 6.91705 6.66626 8.29974C6.4837 8.27152 6.29626 8.25777 6.10571 8.25775C4.11432 8.25775 2.50028 9.85665 2.50024 11.829C2.50032 13.7398 4.01499 15.2998 5.92017 15.3954L6.10571 15.4003H8.51489C9.2283 15.7826 10.0453 15.9999 10.9133 15.9999C11.7812 15.9999 12.5984 15.7825 13.3118 15.4003H15.3157C15.7207 15.5714 16.1668 15.6669 16.635 15.6669C18.4935 15.6667 20.0002 14.1738 20.0002 12.3329C20 10.4923 18.4933 9.00018 16.635 8.99994C16.2769 8.99994 15.9314 9.05552 15.6077 9.15814C14.8672 7.30841 13.0445 6.00004 10.9133 5.99994Z" fill="#D9D9D9"/>
</mask>
<g mask="url(#mask0_2174_3969)">
<circle cx="15.9993" cy="8.00039" r="2.58333" fill="#FACE00" stroke="#DDAA01" stroke-width="1.5"/>
<mask id="path-3-inside-1_2174_3969" fill="white">
<path d="M15.9992 1.58319C16.4134 1.58319 16.7492 1.91898 16.7492 2.33319V4.0701C16.5062 4.02399 16.2554 3.99987 15.999 3.99987C15.7427 3.99987 15.4921 4.02397 15.2492 4.07003V2.33319C15.2492 1.91898 15.585 1.58319 15.9992 1.58319Z"/>
<path d="M13.7508 4.69095L12.5226 3.46268C12.2297 3.16978 11.7548 3.16978 11.4619 3.46268C11.169 3.75557 11.169 4.23044 11.4619 4.52334L12.6902 5.75159C12.9738 5.33492 13.3342 4.97461 13.7508 4.69095Z"/>
<path d="M12.0691 7.25023H10.3323C9.91806 7.25023 9.58228 7.58602 9.58228 8.00023C9.58228 8.41445 9.91806 8.75023 10.3323 8.75023H12.0693C12.0231 8.50718 11.999 8.25634 11.999 7.99987C11.999 7.74365 12.0231 7.49306 12.0691 7.25023Z"/>
<path d="M12.6903 10.2484L11.4617 11.477C11.1688 11.7699 11.1688 12.2448 11.4617 12.5377C11.7546 12.8306 12.2295 12.8306 12.5224 12.5377L13.7511 11.309C13.3344 11.0253 12.974 10.6651 12.6903 10.2484Z"/>
<path d="M15.2492 11.9297V13.6672C15.2492 14.0814 15.585 14.4172 15.9992 14.4172C16.4134 14.4172 16.7492 14.0814 16.7492 13.6672V11.9296C16.5062 11.9757 16.2554 11.9999 15.999 11.9999C15.7427 11.9999 15.4921 11.9758 15.2492 11.9297Z"/>
<path d="M18.2473 11.3087L19.4763 12.5377C19.7692 12.8306 20.244 12.8306 20.5369 12.5377C20.8298 12.2448 20.8298 11.7699 20.5369 11.477L19.3079 10.248C19.0243 10.6647 18.6639 11.025 18.2473 11.3087Z"/>
<path d="M19.9287 8.75023H21.6663C22.0805 8.75023 22.4163 8.41444 22.4163 8.00023C22.4163 7.58602 22.0805 7.25023 21.6663 7.25023H19.9289C19.9749 7.49306 19.999 7.74365 19.999 7.99987C19.999 8.25634 19.9749 8.50718 19.9287 8.75023Z"/>
<path d="M19.3081 5.75197L20.5367 4.52334C20.8296 4.23044 20.8296 3.75557 20.5367 3.46268C20.2438 3.16978 19.769 3.16978 19.4761 3.46268L18.2475 4.69121C18.6642 4.97491 19.0245 5.33526 19.3081 5.75197Z"/>
</mask>
<path d="M16.7492 4.0701L16.4696 5.5438L18.2492 5.88147V4.0701H16.7492ZM15.2492 4.07003H13.7492V5.88124L15.5287 5.54376L15.2492 4.07003ZM13.7508 4.69095L14.5949 5.93091L16.0926 4.91139L14.8115 3.63029L13.7508 4.69095ZM12.5226 3.46268L13.5832 2.40201V2.40201L12.5226 3.46268ZM11.4619 3.46268L12.5226 4.52334L11.4619 3.46268ZM11.4619 4.52334L10.4012 5.584L10.4012 5.584L11.4619 4.52334ZM12.6902 5.75159L11.6295 6.81225L12.9106 8.0933L13.9301 6.59573L12.6902 5.75159ZM12.0691 7.25023L13.5429 7.52965L13.8802 5.75023H12.0691V7.25023ZM12.0693 8.75023V10.2502H13.8807L13.543 8.47054L12.0693 8.75023ZM12.6903 10.2484L13.9302 9.40416L12.9106 7.90679L11.6297 9.18774L12.6903 10.2484ZM11.4617 11.477L10.401 10.4164L10.401 10.4164L11.4617 11.477ZM11.4617 12.5377L10.401 13.5984L10.401 13.5984L11.4617 12.5377ZM12.5224 12.5377L13.583 13.5984L13.583 13.5984L12.5224 12.5377ZM13.7511 11.309L14.8118 12.3696L16.093 11.0884L14.5951 10.0689L13.7511 11.309ZM15.2492 11.9297L15.5287 10.456L13.7492 10.1185V11.9297H15.2492ZM16.7492 11.9296H18.2492V10.1183L16.4696 10.4559L16.7492 11.9296ZM18.2473 11.3087L17.4031 10.0688L15.9056 11.0883L17.1866 12.3694L18.2473 11.3087ZM19.4763 12.5377L20.5369 11.477L20.5369 11.477L19.4763 12.5377ZM20.5369 12.5377L21.5976 13.5984L21.5976 13.5984L20.5369 12.5377ZM20.5369 11.477L21.5976 10.4164L21.5976 10.4164L20.5369 11.477ZM19.3079 10.248L20.3686 9.18736L19.0875 7.90627L18.068 9.40393L19.3079 10.248ZM19.9287 8.75023L18.455 8.47054L18.1173 10.2502H19.9287V8.75023ZM19.9289 7.25023V5.75023H18.1178L18.4551 7.52965L19.9289 7.25023ZM19.3081 5.75197L18.0681 6.59597L19.0876 8.09383L20.3688 6.81263L19.3081 5.75197ZM20.5367 4.52334L21.5974 5.584L20.5367 4.52334ZM20.5367 3.46268L19.4761 4.52333L19.4761 4.52334L20.5367 3.46268ZM19.4761 3.46268L20.5367 4.52334L20.5367 4.52333L19.4761 3.46268ZM18.2475 4.69121L17.1869 3.63055L15.9059 4.91149L17.4033 5.93107L18.2475 4.69121ZM16.7492 2.33319H18.2492C18.2492 1.09055 17.2418 0.0831909 15.9992 0.0831909V1.58319V3.08319C15.585 3.08319 15.2492 2.7474 15.2492 2.33319H16.7492ZM16.7492 4.0701H18.2492V2.33319H16.7492H15.2492V4.0701H16.7492ZM15.999 3.99987V5.49987C16.1611 5.49987 16.3183 5.5151 16.4696 5.5438L16.7492 4.0701L17.0288 2.59639C16.6941 2.53288 16.3497 2.49987 15.999 2.49987V3.99987ZM15.2492 4.07003L15.5287 5.54376C15.6799 5.51509 15.837 5.49987 15.999 5.49987V3.99987V2.49987C15.6485 2.49987 15.3042 2.53285 14.9697 2.5963L15.2492 4.07003ZM15.2492 2.33319H13.7492V4.07003H15.2492H16.7492V2.33319H15.2492ZM15.9992 1.58319V0.0831909C14.7565 0.0831909 13.7492 1.09055 13.7492 2.33319H15.2492H16.7492C16.7492 2.7474 16.4134 3.08319 15.9992 3.08319V1.58319ZM13.7508 4.69095L14.8115 3.63029L13.5832 2.40201L12.5226 3.46268L11.4619 4.52334L12.6902 5.75161L13.7508 4.69095ZM12.5226 3.46268L13.5832 2.40201C12.7045 1.52334 11.2799 1.52334 10.4012 2.40201L11.4619 3.46268L12.5226 4.52334C12.2297 4.81623 11.7548 4.81623 11.4619 4.52334L12.5226 3.46268ZM11.4619 3.46268L10.4012 2.40201C9.52257 3.28069 9.52257 4.70532 10.4012 5.584L11.4619 4.52334L12.5226 3.46268C12.8155 3.75557 12.8155 4.23044 12.5226 4.52334L11.4619 3.46268ZM11.4619 4.52334L10.4012 5.584L11.6295 6.81225L12.6902 5.75159L13.7508 4.69093L12.5226 3.46268L11.4619 4.52334ZM12.6902 5.75159L13.9301 6.59573C14.1078 6.33466 14.3339 6.10863 14.5949 5.93091L13.7508 4.69095L12.9067 3.45099C12.3344 3.84058 11.8398 4.33517 11.4502 4.90745L12.6902 5.75159ZM12.0691 7.25023V5.75023H10.3323V7.25023V8.75023H12.0691V7.25023ZM10.3323 7.25023V5.75023C9.08963 5.75023 8.08228 6.75759 8.08228 8.00023H9.58228H11.0823C11.0823 8.41445 10.7465 8.75023 10.3323 8.75023V7.25023ZM9.58228 8.00023H8.08228C8.08228 9.24287 9.08964 10.2502 10.3323 10.2502V8.75023V7.25023C10.7465 7.25023 11.0823 7.58602 11.0823 8.00023H9.58228ZM10.3323 8.75023V10.2502H12.0693V8.75023V7.25023H10.3323V8.75023ZM12.0693 8.75023L13.543 8.47054C13.5142 8.31923 13.499 8.16202 13.499 7.99987H11.999H10.499C10.499 8.35066 10.532 8.69513 10.5956 9.02992L12.0693 8.75023ZM11.999 7.99987H13.499C13.499 7.83787 13.5142 7.68082 13.5429 7.52965L12.0691 7.25023L10.5954 6.97081C10.532 7.30529 10.499 7.64942 10.499 7.99987H11.999ZM12.6903 10.2484L11.6297 9.18774L10.401 10.4164L11.4617 11.477L12.5224 12.5377L13.751 11.3091L12.6903 10.2484ZM11.4617 11.477L10.401 10.4164C9.52236 11.2951 9.52236 12.7197 10.401 13.5984L11.4617 12.5377L12.5224 11.477C12.8153 11.7699 12.8153 12.2448 12.5224 12.5377L11.4617 11.477ZM11.4617 12.5377L10.401 13.5984C11.2797 14.477 12.7043 14.477 13.583 13.5984L12.5224 12.5377L11.4617 11.477C11.7546 11.1841 12.2295 11.1841 12.5224 11.477L11.4617 12.5377ZM12.5224 12.5377L13.583 13.5984L14.8118 12.3696L13.7511 11.309L12.6904 10.2483L11.4617 11.477L12.5224 12.5377ZM13.7511 11.309L14.5951 10.0689C14.334 9.89123 14.108 9.66522 13.9302 9.40416L12.6903 10.2484L11.4505 11.0926C11.8401 11.6649 12.3348 12.1594 12.9071 12.549L13.7511 11.309ZM15.2492 11.9297H13.7492V13.6672H15.2492H16.7492V11.9297H15.2492ZM15.2492 13.6672H13.7492C13.7492 14.9099 14.7565 15.9172 15.9992 15.9172V14.4172V12.9172C16.4134 12.9172 16.7492 13.253 16.7492 13.6672H15.2492ZM15.9992 14.4172V15.9172C17.2418 15.9172 18.2492 14.9099 18.2492 13.6672H16.7492H15.2492C15.2492 13.253 15.585 12.9172 15.9992 12.9172V14.4172ZM16.7492 13.6672H18.2492V11.9296H16.7492H15.2492V13.6672H16.7492ZM16.7492 11.9296L16.4696 10.4559C16.3183 10.4846 16.1611 10.4999 15.999 10.4999V11.9999V13.4999C16.3497 13.4999 16.6941 13.4668 17.0288 13.4033L16.7492 11.9296ZM15.999 11.9999V10.4999C15.837 10.4999 15.6799 10.4846 15.5287 10.456L15.2492 11.9297L14.9697 13.4034C15.3042 13.4669 15.6485 13.4999 15.999 13.4999V11.9999ZM18.2473 11.3087L17.1866 12.3694L18.4156 13.5984L19.4763 12.5377L20.5369 11.477L19.3079 10.248L18.2473 11.3087ZM19.4763 12.5377L18.4156 13.5984C19.2943 14.477 20.7189 14.477 21.5976 13.5984L20.5369 12.5377L19.4763 11.477C19.7692 11.1841 20.244 11.1841 20.5369 11.477L19.4763 12.5377ZM20.5369 12.5377L21.5976 13.5984C22.4763 12.7197 22.4763 11.2951 21.5976 10.4164L20.5369 11.477L19.4763 12.5377C19.1834 12.2448 19.1834 11.7699 19.4763 11.477L20.5369 12.5377ZM20.5369 11.477L21.5976 10.4164L20.3686 9.18736L19.3079 10.248L18.2473 11.3087L19.4763 12.5377L20.5369 11.477ZM19.3079 10.248L18.068 9.40393C17.8902 9.665 17.6642 9.89104 17.4031 10.0688L18.2473 11.3087L19.0914 12.5486C19.6637 12.159 20.1583 11.6644 20.5479 11.0921L19.3079 10.248ZM19.9287 8.75023V10.2502H21.6663V8.75023V7.25023H19.9287V8.75023ZM21.6663 8.75023V10.2502C22.9089 10.2502 23.9163 9.24287 23.9163 8.00023H22.4163H20.9163C20.9163 7.58602 21.2521 7.25023 21.6663 7.25023V8.75023ZM22.4163 8.00023H23.9163C23.9163 6.75759 22.9089 5.75023 21.6663 5.75023V7.25023V8.75023C21.2521 8.75023 20.9163 8.41445 20.9163 8.00023H22.4163ZM21.6663 7.25023V5.75023H19.9289V7.25023V8.75023H21.6663V7.25023ZM19.9289 7.25023L18.4551 7.52965C18.4838 7.68082 18.499 7.83787 18.499 7.99987H19.999H21.499C21.499 7.64942 21.466 7.30529 21.4026 6.97081L19.9289 7.25023ZM19.999 7.99987H18.499C18.499 8.16202 18.4838 8.31922 18.455 8.47054L19.9287 8.75023L21.4024 9.02993C21.466 8.69513 21.499 8.35066 21.499 7.99987H19.999ZM19.3081 5.75197L20.3688 6.81263L21.5974 5.584L20.5367 4.52334L19.4761 3.46268L18.2474 4.69131L19.3081 5.75197ZM20.5367 4.52334L21.5974 5.584C22.4761 4.70532 22.4761 3.28069 21.5974 2.40201L20.5367 3.46268L19.4761 4.52334C19.1832 4.23044 19.1832 3.75557 19.4761 3.46268L20.5367 4.52334ZM20.5367 3.46268L21.5974 2.40202C20.7187 1.52333 19.2941 1.52333 18.4154 2.40202L19.4761 3.46268L20.5367 4.52333C20.2438 4.81623 19.769 4.81623 19.4761 4.52333L20.5367 3.46268ZM19.4761 3.46268L18.4154 2.40201L17.1869 3.63055L18.2475 4.69121L19.3082 5.75187L20.5367 4.52334L19.4761 3.46268ZM18.2475 4.69121L17.4033 5.93107C17.6643 6.10883 17.8904 6.33488 18.0681 6.59597L19.3081 5.75197L20.5481 4.90797C20.1586 4.33564 19.664 3.841 19.0918 3.45134L18.2475 4.69121Z" fill="#DDAA01" mask="url(#path-3-inside-1_2174_3969)"/>
</g>
<path d="M10.1543 7.75C12.1468 7.75008 13.8134 9.00109 14.3838 10.6973L14.6094 11.3682L15.292 11.1816C15.528 11.1174 15.7782 11.083 16.0381 11.083C17.5624 11.083 18.7498 12.2659 18.75 13.666C18.75 14.9936 17.6849 16.1248 16.2744 16.2402L16.1553 16.25H5.20898C3.5481 16.25 2.25017 14.9603 2.25 13.4287C2.25 11.8969 3.54799 10.6074 5.20898 10.6074C5.27659 10.6074 5.34386 10.6091 5.41016 10.6133L5.91016 10.6455L6.13086 10.1953C6.83624 8.75924 8.36531 7.75 10.1543 7.75Z" fill="#F7F9FA" stroke="#A9AEB1" stroke-width="1.5"/>
<rect x="4" y="18" width="1" height="3" rx="0.5" fill="#58B4FF"/>
<path d="M12 18.5C12 18.2239 12.2239 18 12.5 18C12.7761 18 13 18.2239 13 18.5V20.5C13 20.7761 12.7761 21 12.5 21C12.2239 21 12 20.7761 12 20.5V18.5Z" fill="#58B4FF"/>
<rect x="8" y="19" width="1" height="3" rx="0.5" fill="#58B4FF"/>
<rect width="1" height="3" rx="0.5" transform="matrix(-1 0 0 1 17 19)" fill="#58B4FF"/>
</g>
<defs>
<clipPath id="clip0_2174_3969">
<rect width="24" height="24" fill="white"/>
</clipPath>
</defs>
</svg>
