<svg width="40" height="40" viewBox="0 0 40 40" fill="none" xmlns="http://www.w3.org/2000/svg">
<path d="M33.2354 14.7381C34.2917 15.2145 35.4843 15.3937 36.7031 15.1863C37.156 15.1092 37.5896 14.9827 38 14.8133C37.1349 16.3607 35.8106 17.6091 34.1904 18.3289C34.1963 18.22 34.2002 18.1102 34.2002 17.9998C34.2002 16.7968 33.845 15.6772 33.2354 14.7381ZM29.7744 2.11015C31.1017 1.88428 32.4058 2.01415 33.5986 2.43339C30.797 3.48163 29.0165 6.51587 29.5059 9.71562C29.6645 10.7526 30.0458 11.6929 30.5879 12.4939C29.8562 12.1762 29.0488 11.9998 28.2002 11.9998C27.6326 11.9998 27.0839 12.0801 26.5635 12.2273C25.9882 10.4493 24.8744 8.91396 23.415 7.8123C24.3348 4.91 26.7119 2.63146 29.7744 2.11015Z" fill="#ADCDFF"/>
<path d="M33.2363 14.739C34.2925 15.2153 35.4846 15.3937 36.7031 15.1863C37.156 15.1092 37.5896 14.9827 38 14.8133C37.1349 16.3607 35.8107 17.61 34.1904 18.3299C34.1963 18.2207 34.2002 18.1104 34.2002 17.9998C34.2002 17.5595 34.1506 17.1308 34.0605 16.7176C34.1153 16.6874 34.1708 16.6584 34.2246 16.6267C34.1595 16.6137 34.0949 16.5986 34.0303 16.5838C33.8693 15.9187 33.5983 15.2969 33.2363 14.739ZM29.7744 2.10916C31.1016 1.8833 32.4058 2.01418 33.5986 2.43338C30.7973 3.48155 29.0169 6.51517 29.5059 9.71463C29.6645 10.7517 30.0457 11.6927 30.5879 12.4939C29.9782 12.2292 29.3159 12.0636 28.6211 12.0154C28.3389 11.3679 28.1342 10.6729 28.0225 9.94217C27.6724 7.65267 28.2807 5.40843 29.5605 3.68728C27.1021 4.30274 25.2077 6.37695 24.6602 8.949C24.2819 8.53275 23.8656 8.15172 23.416 7.81228C24.3357 4.90992 26.7119 2.63041 29.7744 2.10916Z" fill="#565C65"/>
<path d="M27.7142 25.9781C30.7874 25.7175 33.2004 23.1404 33.2004 19.9998C33.2004 16.686 30.5141 13.9997 27.2003 13.9997C26.6333 13.9997 26.0846 14.0783 25.5646 14.2254C24.3949 10.6126 21.0027 8 17.0003 8C13.4045 8 10.3012 10.1087 8.85963 13.157C8.71716 13.1475 8.57341 13.1428 8.42855 13.1428C4.87816 13.1428 2 16.0209 2 19.5713C2 23.1217 4.87816 25.9998 8.42855 25.9998H16.9147C16.9432 26.0001 16.9717 26.0002 17.0003 26.0002C17.0289 26.0002 17.0574 26.0001 17.0859 25.9998H27.7142V25.9781Z" fill="#F1F3F6"/>
<path d="M17.0001 24.0002V26.0002H8.42876V24.0002H17.0001ZM2 19.5714C2 16.021 4.87834 13.1426 8.42876 13.1426L8.85942 13.1573C10.301 10.1091 13.4044 8.00012 17.0001 8C20.8774 8 24.1822 10.4519 25.4484 13.8897L25.5646 14.2257C26.0846 14.0787 26.6333 14.0001 27.2004 14.0001L27.509 14.0079C30.6794 14.1685 33.2004 16.7898 33.2004 20.0002L33.1936 20.2931C33.0489 23.2997 30.6911 25.7263 27.714 25.9788V26.0002H17.0001V24.0002H27.3722L27.5451 23.9856C29.5918 23.812 31.2003 22.0928 31.2004 20.0002C31.2004 17.7909 29.4096 16.0001 27.2004 16.0001C26.8191 16.0001 26.4532 16.0531 26.1086 16.1505L24.255 16.6739L23.6623 14.8419C22.7518 12.0298 20.1101 10 17.0001 10C14.2066 10.0001 11.7915 11.6366 10.668 14.0118L10.086 15.2423L8.72759 15.1524C8.6291 15.1459 8.52944 15.1427 8.42876 15.1427C5.98292 15.1427 4.00002 17.1256 4.00001 19.5714C4.00001 22.0173 5.98292 24.0002 8.42876 24.0002V26.0002L8.0977 25.9915C4.70107 25.8192 2 23.0109 2 19.5714Z" fill="#71767A"/>
<rect x="5" y="28" width="1.5" height="3" rx="0.75" fill="#4F97D1"/>
<rect x="25" y="28" width="1.5" height="3" rx="0.75" fill="#4F97D1"/>
<rect x="15" y="28" width="1.5" height="3" rx="0.75" fill="#4F97D1"/>
<rect x="10" y="30" width="1.5" height="3" rx="0.75" fill="#4F97D1"/>
<rect width="1.5" height="3" rx="0.75" transform="matrix(-1 0 0 1 21 30)" fill="#4F97D1"/>
</svg>
