<svg width="24" height="24" viewBox="0 0 24 24" fill="none" xmlns="http://www.w3.org/2000/svg">
<path d="M18.5 2C18.7658 2 19.0261 2.02414 19.2793 2.06836C18.4926 2.79882 18 3.84177 18 5C18 7.20914 19.7909 9 22 9C22.0827 9 22.1647 8.99615 22.2461 8.99121C21.6444 9.8942 20.7254 10.5666 19.6484 10.8506C19.0975 9.75395 17.9554 9.00008 16.6348 9C16.2766 9 15.9312 9.05553 15.6074 9.1582C15.2769 8.33256 14.7299 7.61595 14.0371 7.07422C14.0132 6.88616 14 6.69457 14 6.5C14 4.01472 16.0147 2 18.5 2Z" fill="#6B8EE8"/>
<path d="M18.5 2C18.7658 2 19.0261 2.02414 19.2793 2.06836C18.4926 2.79882 18 3.84177 18 5C18 7.20914 19.7909 9 22 9C22.0827 9 22.1647 8.99615 22.2461 8.99121C21.6444 9.8942 20.7254 10.5666 19.6484 10.8506C19.482 10.5193 19.2621 10.2193 18.999 9.96191C19.3843 9.90625 19.7495 9.78961 20.084 9.61914C18.2735 8.86729 17 7.08259 17 5C17 4.36527 17.1181 3.75787 17.334 3.19922C15.9743 3.67954 15 4.97587 15 6.5C15 7.50153 15.4214 8.40401 16.0957 9.04199C15.9285 9.06867 15.7654 9.1081 15.6074 9.1582C15.2769 8.33256 14.7299 7.61595 14.0371 7.07422C14.0132 6.88616 14 6.69457 14 6.5C14 4.01472 16.0147 2 18.5 2Z" fill="#F7F9FA"/>
<path d="M16.3351 16.9877C18.108 16.8428 19.5 15.4112 19.5 13.6664C19.5 11.8255 17.9502 10.3331 16.0385 10.3331C15.7114 10.3331 15.3949 10.3768 15.095 10.4584C14.4201 8.45137 12.4631 7 10.1541 7C8.07964 7 6.2893 8.1715 5.45762 9.86495C5.37536 9.85971 5.29237 9.85704 5.20873 9.85704C3.16046 9.85704 1.5 11.456 1.5 13.4284C1.5 15.4008 3.16046 16.9998 5.20873 16.9998C5.20867 16.9998 5.2088 16.9998 5.20873 16.9998L10.1069 16.9998C10.1226 16.9999 10.1384 17 10.1541 17C10.1699 17 10.1856 16.9999 10.2013 16.9998H16.3351V16.9877Z" fill="#F7F9FA"/>
<path d="M10.1537 15.6108V16.9997H5.20902V15.6108H10.1537ZM1.5 13.428C1.5002 11.4558 3.16086 9.85731 5.20902 9.85731L5.45785 9.86454C6.28957 8.17141 8.0796 7.00014 10.1537 7C12.3908 7 14.2977 8.36229 15.0281 10.2723L15.0947 10.4586C15.3946 10.377 15.7113 10.3329 16.0384 10.3329C17.9502 10.3329 19.4995 11.8258 19.4995 13.6668L19.4958 13.8286C19.4127 15.4991 18.0528 16.8475 16.3351 16.9879V16.9997H10.1537V15.6108H16.1248L16.2131 15.6036C17.2456 15.5192 18.0571 14.6837 18.0572 13.6668C18.0572 12.5929 17.1536 11.7218 16.0384 11.7218C15.8453 11.7218 15.6608 11.7478 15.4872 11.795L14.151 12.1585L13.7229 10.8863C13.235 9.43534 11.8192 8.38887 10.1537 8.38887C8.65784 8.38901 7.36336 9.23244 6.76117 10.4586L6.34144 11.3131L5.36207 11.2507C5.31167 11.2475 5.26064 11.2462 5.20902 11.2462C3.95742 11.2462 2.94249 12.2229 2.94229 13.428C2.94229 14.6334 3.9573 15.6108 5.20902 15.6108V16.9997L5.01746 16.9952C3.05808 16.8993 1.5 15.3387 1.5 13.428Z" fill="#A9AEB1"/>
<rect x="4" y="18" width="1" height="3" rx="0.5" fill="#58B4FF"/>
<path d="M12 18.5C12 18.2239 12.2239 18 12.5 18C12.7761 18 13 18.2239 13 18.5V20.5C13 20.7761 12.7761 21 12.5 21C12.2239 21 12 20.7761 12 20.5V18.5Z" fill="#58B4FF"/>
<rect x="8" y="19" width="1" height="3" rx="0.5" fill="#58B4FF"/>
<rect width="1" height="3" rx="0.5" transform="matrix(-1 0 0 1 17 19)" fill="#58B4FF"/>
</svg>
