<svg width="40" height="40" viewBox="0 0 40 40" fill="none" xmlns="http://www.w3.org/2000/svg">
<mask id="mask0_2173_2337" style="mask-type:alpha" maskUnits="userSpaceOnUse" x="1" y="0" width="39" height="33">
<path d="M40 33H1V0H40V33ZM18 6C14.4043 6.00022 11.3028 8.10995 9.86133 11.1582C9.71841 11.1487 9.57403 11.1426 9.42871 11.1426C5.87847 11.1427 3.00005 14.021 3 17.5713C3 21.0106 5.70117 23.8189 9.09766 23.9912L9.42871 24H28.7139V23.9756C31.7871 23.715 34.2001 21.1406 34.2002 18C34.2002 14.6862 31.5139 12 28.2002 12C27.6327 12 27.0838 12.0803 26.5635 12.2275C25.3943 8.61396 22.0029 6 18 6Z" fill="#D9D9D9"/>
</mask>
<g mask="url(#mask0_2173_2337)">
<circle cx="27.9992" cy="12.0007" r="4.80556" fill="#FACE00" stroke="#B38C00" stroke-width="1.5"/>
<path d="M28.2498 21.4451C28.2498 21.583 28.1376 21.6949 27.9998 21.6951C27.8617 21.6951 27.7498 21.5832 27.7498 21.4451V19.159C27.8325 19.1618 27.9154 19.1668 27.9988 19.1668C28.0828 19.1668 28.1664 19.1618 28.2498 19.159V21.4451ZM22.7595 16.8865C22.8731 17.0083 22.9913 17.1254 23.113 17.239L21.4978 18.8562C21.4003 18.9537 21.2419 18.9535 21.1443 18.8562C21.0467 18.7586 21.0467 18.6004 21.1443 18.5027L22.7595 16.8865ZM34.8552 18.5027C34.9526 18.6004 34.9528 18.7587 34.8552 18.8562C34.7577 18.9537 34.5993 18.9535 34.5017 18.8562L32.8845 17.239C33.0065 17.1253 33.1243 17.0075 33.238 16.8855L34.8552 18.5027ZM18.5544 11.7508H20.8386C20.8358 11.8335 20.8318 11.9164 20.8318 11.9998C20.8318 12.0837 20.8358 12.1675 20.8386 12.2508H18.5544C18.4165 12.2508 18.3046 12.1387 18.3044 12.0008C18.3044 11.8627 18.4164 11.7508 18.5544 11.7508ZM37.4441 11.7508C37.5822 11.7508 37.6941 11.8627 37.6941 12.0008C37.694 12.1387 37.5821 12.2508 37.4441 12.2508H35.1589C35.1618 12.1675 35.1658 12.0837 35.1658 11.9998C35.1658 11.9164 35.1618 11.8335 35.1589 11.7508H37.4441ZM34.5017 5.14529C34.5993 5.04776 34.7576 5.04769 34.8552 5.14529C34.9525 5.24292 34.9527 5.40128 34.8552 5.49881L33.238 7.11404C33.1243 6.99211 33.0065 6.87428 32.8845 6.76053L34.5017 5.14529ZM21.1443 5.14529C21.2419 5.04766 21.4002 5.04766 21.4978 5.14529L23.113 6.75955C22.9909 6.87343 22.8724 6.99099 22.7585 7.11307L21.1443 5.49881C21.0467 5.40121 21.0467 5.24293 21.1443 5.14529ZM27.9998 2.30545C28.1376 2.30567 28.2498 2.41751 28.2498 2.55545V4.83963C28.1664 4.83676 28.0828 4.83377 27.9988 4.83377C27.9154 4.83377 27.8325 4.8368 27.7498 4.83963V2.55545C27.7498 2.41738 27.8617 2.30545 27.9998 2.30545Z" stroke="#B38C00" stroke-linecap="round"/>
</g>
<path d="M17 9C20.5561 9 23.5732 11.3209 24.6133 14.5332L24.9102 15.4492L25.8369 15.1875C26.2691 15.0653 26.7262 15 27.2002 15C29.9617 15 32.2002 17.2385 32.2002 20C32.2001 22.6165 30.1897 24.7642 27.6299 24.9814L27.4121 25H8.42871C5.43061 25 3 22.5694 3 19.5713C3 16.5732 5.43061 14.1426 8.42871 14.1426C8.55146 14.1426 8.67349 14.1473 8.79395 14.1553L9.47266 14.2002L9.76367 13.585C11.0461 10.8732 13.8054 9.00012 17 9Z" fill="#F1F3F6" stroke="#71767A" stroke-width="2"/>
<rect x="5" y="28" width="1.5" height="3" rx="0.75" fill="#4F97D1"/>
<rect x="25" y="28" width="1.5" height="3" rx="0.75" fill="#4F97D1"/>
<rect x="15" y="28" width="1.5" height="3" rx="0.75" fill="#4F97D1"/>
<rect x="10" y="30" width="1.5" height="3" rx="0.75" fill="#4F97D1"/>
<rect width="1.5" height="3" rx="0.75" transform="matrix(-1 0 0 1 21 30)" fill="#4F97D1"/>
</svg>
