<svg width="40" height="40" viewBox="0 0 40 40" fill="none" xmlns="http://www.w3.org/2000/svg">
<path d="M27.999 6.44531C31.0673 6.44531 33.5547 8.93273 33.5547 12.001C33.5546 12.8635 33.3577 13.6798 33.0068 14.4082C31.9126 12.9462 30.1669 12 28.2002 12C27.6326 12 27.0839 12.0803 26.5635 12.2275C26.057 10.6621 25.1324 9.28554 23.9229 8.22656C24.9375 7.13109 26.3881 6.44542 27.999 6.44531Z" fill="#FACE00"/>
<path d="M28.2852 6.45215C31.2203 6.60111 33.5547 9.02878 33.5547 12.001L33.5469 12.2871C33.5084 13.0439 33.3175 13.7601 33.0059 14.4072C32.6784 13.9699 32.292 13.5796 31.8594 13.2461C31.9859 12.8537 32.0546 12.4354 32.0547 12.001C32.0547 9.76124 30.2388 7.94537 27.999 7.94531C26.7934 7.94542 25.7106 8.47136 24.9678 9.30664C24.65 8.91808 24.3003 8.55702 23.9229 8.22656C24.9375 7.13108 26.3881 6.44542 27.999 6.44531L28.2852 6.45215Z" fill="#B38C00"/>
<path d="M37.5215 11.2549C37.8995 11.2934 38.1943 11.6127 38.1943 12.001L38.1904 12.0771C38.1546 12.4301 37.8744 12.7111 37.5215 12.7471L37.4443 12.751H34.624C34.6516 12.5047 34.666 12.2536 34.666 12C34.666 11.7469 34.6515 11.4968 34.624 11.251H37.4443L37.5215 11.2549ZM34.1484 4.79199C34.4413 4.49919 34.9161 4.49913 35.209 4.79199C35.5013 5.0849 35.5016 5.55981 35.209 5.85254L33.2139 7.84668C32.9013 7.4548 32.5451 7.09876 32.1533 6.78613L34.1484 4.79199ZM20.791 4.79199C21.0839 4.4991 21.5587 4.4991 21.8516 4.79199L23.8457 6.78516C23.5568 7.01557 23.2871 7.26944 23.04 7.54395C22.6362 7.27031 22.2087 7.02933 21.7617 6.82324L20.791 5.85254C20.4982 5.55969 20.4982 5.0849 20.791 4.79199ZM28 1.80566C28.414 1.80597 28.75 2.14164 28.75 2.55566V5.375C28.5037 5.34741 28.2527 5.33399 27.999 5.33398C27.7459 5.33399 27.4958 5.34752 27.25 5.375V2.55566C27.25 2.14145 27.5858 1.80566 28 1.80566Z" fill="#B38C00"/>
<path d="M27.7142 25.9781C30.7874 25.7175 33.2004 23.1404 33.2004 19.9998C33.2004 16.686 30.5141 13.9997 27.2003 13.9997C26.6333 13.9997 26.0846 14.0783 25.5646 14.2254C24.3949 10.6126 21.0027 8 17.0003 8C13.4045 8 10.3012 10.1087 8.85963 13.157C8.71716 13.1475 8.57341 13.1428 8.42855 13.1428C4.87816 13.1428 2 16.0209 2 19.5713C2 23.1217 4.87816 25.9998 8.42855 25.9998H16.9147C16.9432 26.0001 16.9717 26.0002 17.0003 26.0002C17.0289 26.0002 17.0574 26.0001 17.0859 25.9998H27.7142V25.9781Z" fill="#F1F3F6"/>
<path d="M17.0001 24.0002V26.0002H8.42876V24.0002H17.0001ZM2 19.5714C2 16.021 4.87834 13.1426 8.42876 13.1426L8.85942 13.1573C10.301 10.1091 13.4044 8.00012 17.0001 8C20.8774 8 24.1822 10.4519 25.4484 13.8897L25.5646 14.2257C26.0846 14.0787 26.6333 14.0001 27.2004 14.0001L27.509 14.0079C30.6794 14.1685 33.2004 16.7898 33.2004 20.0002L33.1936 20.2931C33.0489 23.2997 30.6911 25.7263 27.714 25.9788V26.0002H17.0001V24.0002H27.3722L27.5451 23.9856C29.5918 23.812 31.2003 22.0928 31.2004 20.0002C31.2004 17.7909 29.4096 16.0001 27.2004 16.0001C26.8191 16.0001 26.4532 16.0531 26.1086 16.1505L24.255 16.6739L23.6623 14.8419C22.7518 12.0298 20.1101 10 17.0001 10C14.2066 10.0001 11.7915 11.6366 10.668 14.0118L10.086 15.2423L8.72759 15.1524C8.6291 15.1459 8.52944 15.1427 8.42876 15.1427C5.98292 15.1427 4.00002 17.1256 4.00001 19.5714C4.00001 22.0173 5.98292 24.0002 8.42876 24.0002V26.0002L8.0977 25.9915C4.70107 25.8192 2 23.0109 2 19.5714Z" fill="#71767A"/>
<rect x="5" y="28" width="1.5" height="3" rx="0.75" fill="#4F97D1"/>
<rect x="25" y="28" width="1.5" height="3" rx="0.75" fill="#4F97D1"/>
<rect x="15" y="28" width="1.5" height="3" rx="0.75" fill="#4F97D1"/>
<rect x="10" y="30" width="1.5" height="3" rx="0.75" fill="#4F97D1"/>
<rect width="1.5" height="3" rx="0.75" transform="matrix(-1 0 0 1 21 30)" fill="#4F97D1"/>
</svg>
