<svg width="24" height="24" viewBox="0 0 24 24" fill="none" xmlns="http://www.w3.org/2000/svg">
<g clip-path="url(#clip0_2174_3938)">
<mask id="mask0_2174_3938" style="mask-type:alpha" maskUnits="userSpaceOnUse" x="0" y="0" width="25" height="20">
<path d="M24.0002 19.7997H0.599854V-6.10352e-05H24.0002V19.7997ZM10.9133 5.99994C9.13016 6.0001 7.56422 6.91705 6.66626 8.29974C6.4837 8.27152 6.29626 8.25777 6.10571 8.25775C4.11432 8.25775 2.50028 9.85665 2.50024 11.829C2.50032 13.7398 4.01499 15.2998 5.92017 15.3954L6.10571 15.4003H8.51489C9.2283 15.7826 10.0453 15.9999 10.9133 15.9999C11.7812 15.9999 12.5984 15.7825 13.3118 15.4003H15.3157C15.7207 15.5714 16.1668 15.6669 16.635 15.6669C18.4935 15.6667 20.0002 14.1738 20.0002 12.3329C20 10.4923 18.4933 9.00018 16.635 8.99994C16.2769 8.99994 15.9314 9.05552 15.6077 9.15814C14.8672 7.30841 13.0445 6.00004 10.9133 5.99994Z" fill="#D9D9D9"/>
</mask>
<g mask="url(#mask0_2174_3938)">
<circle cx="15.9989" cy="8.00039" r="2.58333" fill="#FACE00" stroke="#B38C00" stroke-width="1.5"/>
<mask id="path-3-inside-1_2174_3938" fill="white">
<path d="M15.9987 1.58319C16.4129 1.58319 16.7487 1.91898 16.7487 2.33319V4.0701C16.5057 4.02399 16.2549 3.99987 15.9985 3.99987C15.7422 3.99987 15.4916 4.02397 15.2487 4.07003V2.33319C15.2487 1.91898 15.5845 1.58319 15.9987 1.58319Z"/>
<path d="M13.7504 4.69095L12.5221 3.46268C12.2292 3.16978 11.7543 3.16978 11.4614 3.46268C11.1685 3.75557 11.1685 4.23044 11.4614 4.52334L12.6897 5.75159C12.9733 5.33492 13.3337 4.97461 13.7504 4.69095Z"/>
<path d="M12.0686 7.25023H10.3318C9.91757 7.25023 9.58179 7.58602 9.58179 8.00023C9.58179 8.41445 9.91757 8.75023 10.3318 8.75023H12.0688C12.0226 8.50718 11.9985 8.25634 11.9985 7.99987C11.9985 7.74365 12.0226 7.49306 12.0686 7.25023Z"/>
<path d="M12.6899 10.2484L11.4612 11.477C11.1683 11.7699 11.1683 12.2448 11.4612 12.5377C11.7541 12.8306 12.229 12.8306 12.5219 12.5377L13.7506 11.309C13.3339 11.0253 12.9736 10.6651 12.6899 10.2484Z"/>
<path d="M15.2487 11.9297V13.6672C15.2487 14.0814 15.5845 14.4172 15.9987 14.4172C16.4129 14.4172 16.7487 14.0814 16.7487 13.6672V11.9296C16.5057 11.9757 16.2549 11.9999 15.9985 11.9999C15.7422 11.9999 15.4916 11.9758 15.2487 11.9297Z"/>
<path d="M18.2468 11.3087L19.4758 12.5377C19.7687 12.8306 20.2436 12.8306 20.5364 12.5377C20.8293 12.2448 20.8293 11.7699 20.5364 11.477L19.3074 10.248C19.0238 10.6647 18.6635 11.025 18.2468 11.3087Z"/>
<path d="M19.9282 8.75023H21.6658C22.08 8.75023 22.4158 8.41444 22.4158 8.00023C22.4158 7.58602 22.08 7.25023 21.6658 7.25023H19.9284C19.9744 7.49306 19.9985 7.74365 19.9985 7.99987C19.9985 8.25634 19.9744 8.50718 19.9282 8.75023Z"/>
<path d="M19.3076 5.75197L20.5362 4.52334C20.8291 4.23044 20.8291 3.75557 20.5362 3.46268C20.2433 3.16978 19.7685 3.16978 19.4756 3.46268L18.247 4.69121C18.6637 4.97491 19.024 5.33526 19.3076 5.75197Z"/>
</mask>
<path d="M16.7487 4.0701L16.4691 5.5438L18.2487 5.88147V4.0701H16.7487ZM15.2487 4.07003H13.7487V5.88124L15.5282 5.54376L15.2487 4.07003ZM13.7504 4.69095L14.5944 5.93091L16.0921 4.91139L14.811 3.63029L13.7504 4.69095ZM12.5221 3.46268L13.5827 2.40201V2.40201L12.5221 3.46268ZM11.4614 3.46268L12.5221 4.52334L11.4614 3.46268ZM11.4614 4.52334L10.4008 5.584L10.4008 5.584L11.4614 4.52334ZM12.6897 5.75159L11.629 6.81225L12.9101 8.0933L13.9296 6.59573L12.6897 5.75159ZM12.0686 7.25023L13.5424 7.52965L13.8798 5.75023H12.0686V7.25023ZM12.0688 8.75023V10.2502H13.8802L13.5425 8.47054L12.0688 8.75023ZM12.6899 10.2484L13.9297 9.40416L12.9101 7.90679L11.6292 9.18774L12.6899 10.2484ZM11.4612 11.477L10.4006 10.4164L10.4006 10.4164L11.4612 11.477ZM11.4612 12.5377L10.4006 13.5984L10.4006 13.5984L11.4612 12.5377ZM12.5219 12.5377L13.5825 13.5984L13.5825 13.5984L12.5219 12.5377ZM13.7506 11.309L14.8113 12.3696L16.0925 11.0884L14.5946 10.0689L13.7506 11.309ZM15.2487 11.9297L15.5282 10.456L13.7487 10.1185V11.9297H15.2487ZM16.7487 11.9296H18.2487V10.1183L16.4691 10.4559L16.7487 11.9296ZM18.2468 11.3087L17.4026 10.0688L15.9051 11.0883L17.1861 12.3694L18.2468 11.3087ZM19.4758 12.5377L20.5364 11.477L20.5364 11.477L19.4758 12.5377ZM20.5364 12.5377L21.5971 13.5984L21.5971 13.5984L20.5364 12.5377ZM20.5364 11.477L21.5971 10.4164L21.5971 10.4164L20.5364 11.477ZM19.3074 10.248L20.3681 9.18736L19.087 7.90627L18.0675 9.40393L19.3074 10.248ZM19.9282 8.75023L18.4546 8.47054L18.1168 10.2502H19.9282V8.75023ZM19.9284 7.25023V5.75023H18.1173L18.4546 7.52965L19.9284 7.25023ZM19.3076 5.75197L18.0676 6.59597L19.0871 8.09383L20.3683 6.81263L19.3076 5.75197ZM20.5362 4.52334L21.5969 5.584L20.5362 4.52334ZM20.5362 3.46268L19.4756 4.52333L19.4756 4.52334L20.5362 3.46268ZM19.4756 3.46268L20.5362 4.52334L20.5362 4.52333L19.4756 3.46268ZM18.247 4.69121L17.1864 3.63055L15.9054 4.91149L17.4028 5.93107L18.247 4.69121ZM16.7487 2.33319H18.2487C18.2487 1.09055 17.2413 0.0831909 15.9987 0.0831909V1.58319V3.08319C15.5845 3.08319 15.2487 2.7474 15.2487 2.33319H16.7487ZM16.7487 4.0701H18.2487V2.33319H16.7487H15.2487V4.0701H16.7487ZM15.9985 3.99987V5.49987C16.1606 5.49987 16.3178 5.5151 16.4691 5.5438L16.7487 4.0701L17.0283 2.59639C16.6936 2.53288 16.3492 2.49987 15.9985 2.49987V3.99987ZM15.2487 4.07003L15.5282 5.54376C15.6794 5.51509 15.8365 5.49987 15.9985 5.49987V3.99987V2.49987C15.648 2.49987 15.3038 2.53285 14.9692 2.5963L15.2487 4.07003ZM15.2487 2.33319H13.7487V4.07003H15.2487H16.7487V2.33319H15.2487ZM15.9987 1.58319V0.0831909C14.756 0.0831909 13.7487 1.09055 13.7487 2.33319H15.2487H16.7487C16.7487 2.7474 16.4129 3.08319 15.9987 3.08319V1.58319ZM13.7504 4.69095L14.811 3.63029L13.5827 2.40201L12.5221 3.46268L11.4614 4.52334L12.6897 5.75161L13.7504 4.69095ZM12.5221 3.46268L13.5827 2.40201C12.7041 1.52334 11.2794 1.52334 10.4008 2.40201L11.4614 3.46268L12.5221 4.52334C12.2292 4.81623 11.7543 4.81623 11.4614 4.52334L12.5221 3.46268ZM11.4614 3.46268L10.4008 2.40201C9.52208 3.28069 9.52208 4.70532 10.4008 5.584L11.4614 4.52334L12.5221 3.46268C12.815 3.75557 12.815 4.23044 12.5221 4.52334L11.4614 3.46268ZM11.4614 4.52334L10.4008 5.584L11.629 6.81225L12.6897 5.75159L13.7503 4.69093L12.5221 3.46268L11.4614 4.52334ZM12.6897 5.75159L13.9296 6.59573C14.1073 6.33466 14.3334 6.10863 14.5944 5.93091L13.7504 4.69095L12.9063 3.45099C12.334 3.84058 11.8394 4.33517 11.4497 4.90745L12.6897 5.75159ZM12.0686 7.25023V5.75023H10.3318V7.25023V8.75023H12.0686V7.25023ZM10.3318 7.25023V5.75023C9.08915 5.75023 8.08179 6.75759 8.08179 8.00023H9.58179H11.0818C11.0818 8.41445 10.746 8.75023 10.3318 8.75023V7.25023ZM9.58179 8.00023H8.08179C8.08179 9.24287 9.08915 10.2502 10.3318 10.2502V8.75023V7.25023C10.746 7.25023 11.0818 7.58602 11.0818 8.00023H9.58179ZM10.3318 8.75023V10.2502H12.0688V8.75023V7.25023H10.3318V8.75023ZM12.0688 8.75023L13.5425 8.47054C13.5138 8.31923 13.4985 8.16202 13.4985 7.99987H11.9985H10.4985C10.4985 8.35066 10.5315 8.69513 10.5951 9.02992L12.0688 8.75023ZM11.9985 7.99987H13.4985C13.4985 7.83787 13.5137 7.68082 13.5424 7.52965L12.0686 7.25023L10.5949 6.97081C10.5315 7.30529 10.4985 7.64942 10.4985 7.99987H11.9985ZM12.6899 10.2484L11.6292 9.18774L10.4006 10.4164L11.4612 11.477L12.5219 12.5377L13.7505 11.3091L12.6899 10.2484ZM11.4612 11.477L10.4006 10.4164C9.52187 11.2951 9.52187 12.7197 10.4006 13.5984L11.4612 12.5377L12.5219 11.477C12.8148 11.7699 12.8148 12.2448 12.5219 12.5377L11.4612 11.477ZM11.4612 12.5377L10.4006 13.5984C11.2792 14.477 12.7039 14.477 13.5825 13.5984L12.5219 12.5377L11.4612 11.477C11.7541 11.1841 12.229 11.1841 12.5219 11.477L11.4612 12.5377ZM12.5219 12.5377L13.5825 13.5984L14.8113 12.3696L13.7506 11.309L12.69 10.2483L11.4612 11.477L12.5219 12.5377ZM13.7506 11.309L14.5946 10.0689C14.3335 9.89123 14.1075 9.66522 13.9297 9.40416L12.6899 10.2484L11.45 11.0926C11.8396 11.6649 12.3343 12.1594 12.9066 12.549L13.7506 11.309ZM15.2487 11.9297H13.7487V13.6672H15.2487H16.7487V11.9297H15.2487ZM15.2487 13.6672H13.7487C13.7487 14.9099 14.756 15.9172 15.9987 15.9172V14.4172V12.9172C16.4129 12.9172 16.7487 13.253 16.7487 13.6672H15.2487ZM15.9987 14.4172V15.9172C17.2413 15.9172 18.2487 14.9099 18.2487 13.6672H16.7487H15.2487C15.2487 13.253 15.5845 12.9172 15.9987 12.9172V14.4172ZM16.7487 13.6672H18.2487V11.9296H16.7487H15.2487V13.6672H16.7487ZM16.7487 11.9296L16.4691 10.4559C16.3178 10.4846 16.1606 10.4999 15.9985 10.4999V11.9999V13.4999C16.3492 13.4999 16.6936 13.4668 17.0283 13.4033L16.7487 11.9296ZM15.9985 11.9999V10.4999C15.8365 10.4999 15.6794 10.4846 15.5282 10.456L15.2487 11.9297L14.9692 13.4034C15.3038 13.4669 15.648 13.4999 15.9985 13.4999V11.9999ZM18.2468 11.3087L17.1861 12.3694L18.4151 13.5984L19.4758 12.5377L20.5364 11.477L19.3074 10.248L18.2468 11.3087ZM19.4758 12.5377L18.4151 13.5984C19.2938 14.477 20.7184 14.477 21.5971 13.5984L20.5364 12.5377L19.4758 11.477C19.7687 11.1841 20.2436 11.1841 20.5364 11.477L19.4758 12.5377ZM20.5364 12.5377L21.5971 13.5984C22.4758 12.7197 22.4758 11.2951 21.5971 10.4164L20.5364 11.477L19.4758 12.5377C19.1829 12.2448 19.1829 11.7699 19.4758 11.477L20.5364 12.5377ZM20.5364 11.477L21.5971 10.4164L20.3681 9.18736L19.3074 10.248L18.2468 11.3087L19.4758 12.5377L20.5364 11.477ZM19.3074 10.248L18.0675 9.40393C17.8897 9.665 17.6637 9.89104 17.4026 10.0688L18.2468 11.3087L19.0909 12.5486C19.6632 12.159 20.1578 11.6644 20.5474 11.0921L19.3074 10.248ZM19.9282 8.75023V10.2502H21.6658V8.75023V7.25023H19.9282V8.75023ZM21.6658 8.75023V10.2502C22.9085 10.2502 23.9158 9.24287 23.9158 8.00023H22.4158H20.9158C20.9158 7.58602 21.2516 7.25023 21.6658 7.25023V8.75023ZM22.4158 8.00023H23.9158C23.9158 6.75759 22.9085 5.75023 21.6658 5.75023V7.25023V8.75023C21.2516 8.75023 20.9158 8.41445 20.9158 8.00023H22.4158ZM21.6658 7.25023V5.75023H19.9284V7.25023V8.75023H21.6658V7.25023ZM19.9284 7.25023L18.4546 7.52965C18.4833 7.68082 18.4985 7.83787 18.4985 7.99987H19.9985H21.4985C21.4985 7.64942 21.4655 7.30529 21.4021 6.97081L19.9284 7.25023ZM19.9985 7.99987H18.4985C18.4985 8.16202 18.4833 8.31922 18.4546 8.47054L19.9282 8.75023L21.4019 9.02993C21.4655 8.69513 21.4985 8.35066 21.4985 7.99987H19.9985ZM19.3076 5.75197L20.3683 6.81263L21.5969 5.584L20.5362 4.52334L19.4756 3.46268L18.2469 4.69131L19.3076 5.75197ZM20.5362 4.52334L21.5969 5.584C22.4756 4.70532 22.4756 3.28069 21.5969 2.40201L20.5362 3.46268L19.4756 4.52334C19.1827 4.23044 19.1827 3.75557 19.4756 3.46268L20.5362 4.52334ZM20.5362 3.46268L21.5969 2.40202C20.7182 1.52333 19.2936 1.52333 18.4149 2.40202L19.4756 3.46268L20.5362 4.52333C20.2433 4.81623 19.7685 4.81623 19.4756 4.52333L20.5362 3.46268ZM19.4756 3.46268L18.4149 2.40201L17.1864 3.63055L18.247 4.69121L19.3077 5.75187L20.5362 4.52334L19.4756 3.46268ZM18.247 4.69121L17.4028 5.93107C17.6639 6.10883 17.8899 6.33488 18.0676 6.59597L19.3076 5.75197L20.5476 4.90797C20.1581 4.33564 19.6635 3.841 19.0913 3.45134L18.247 4.69121Z" fill="#B38C00" mask="url(#path-3-inside-1_2174_3938)"/>
</g>
<path d="M10.1543 7.75C12.1468 7.75008 13.8134 9.00109 14.3838 10.6973L14.6094 11.3682L15.292 11.1816C15.528 11.1174 15.7782 11.083 16.0381 11.083C17.5624 11.083 18.7498 12.2659 18.75 13.666C18.75 14.9936 17.6849 16.1248 16.2744 16.2402L16.1553 16.25H5.20898C3.5481 16.25 2.25017 14.9603 2.25 13.4287C2.25 11.8969 3.54799 10.6074 5.20898 10.6074C5.27659 10.6074 5.34386 10.6091 5.41016 10.6133L5.91016 10.6455L6.13086 10.1953C6.83624 8.75924 8.36531 7.75 10.1543 7.75Z" fill="#F1F3F6" stroke="#71767A" stroke-width="1.5"/>
<rect x="4" y="18" width="1" height="3" rx="0.5" fill="#4F97D1"/>
<path d="M12 18.5C12 18.2239 12.2239 18 12.5 18C12.7761 18 13 18.2239 13 18.5V20.5C13 20.7761 12.7761 21 12.5 21C12.2239 21 12 20.7761 12 20.5V18.5Z" fill="#4F97D1"/>
<rect x="8" y="19" width="1" height="3" rx="0.5" fill="#4F97D1"/>
<rect width="1" height="3" rx="0.5" transform="matrix(-1 0 0 1 17 19)" fill="#4F97D1"/>
</g>
<defs>
<clipPath id="clip0_2174_3938">
<rect width="24" height="24" fill="white"/>
</clipPath>
</defs>
</svg>
