<svg width="24" height="24" viewBox="0 0 24 24" fill="none" xmlns="http://www.w3.org/2000/svg">
<path d="M15.9985 4.66699C17.8394 4.66699 19.3323 6.15923 19.3325 8C19.3325 8.65939 19.1394 9.27362 18.8091 9.79102C18.2226 9.29842 17.4644 9.00017 16.6353 9C16.2772 9 15.9316 9.05562 15.6079 9.1582C15.1314 7.96789 14.2051 7.00439 13.0386 6.4668C13.5936 5.39764 14.7107 4.66712 15.9985 4.66699Z" fill="#FACE00"/>
<path d="M15.9985 4.66699C17.8394 4.66699 19.3323 6.15923 19.3325 8L19.3276 8.17188C19.2975 8.76596 19.1084 9.31691 18.8071 9.78906C18.4227 9.46667 17.9651 9.22658 17.4614 9.10059C17.6927 8.79366 17.8325 8.41374 17.8325 8C17.8323 6.98766 17.0109 6.16699 15.9985 6.16699C15.2347 6.16712 14.5806 6.63462 14.3052 7.29883C13.9302 6.96147 13.5034 6.68101 13.0386 6.4668C13.5936 5.39764 14.7107 4.66712 15.9985 4.66699Z" fill="#DDAA01"/>
<path d="M21.666 7.25C22.0801 7.25 22.4159 7.5859 22.416 8C22.416 8.41421 22.0802 8.75 21.666 8.75H19.9287C19.9748 8.50713 19.999 8.25627 19.999 8C19.999 7.74385 19.9747 7.49276 19.9287 7.25H21.666ZM19.4756 3.46289C19.7684 3.17008 20.2432 3.17017 20.5361 3.46289C20.829 3.75578 20.829 4.23055 20.5361 4.52344L19.3076 5.75195C19.024 5.33533 18.6636 4.97506 18.2471 4.69141L19.4756 3.46289ZM11.4619 3.46289C11.7548 3.17009 12.2296 3.17016 12.5225 3.46289L13.751 4.69043C13.3343 4.97405 12.9731 5.33437 12.6895 5.75098L11.4619 4.52344C11.1692 4.23056 11.1691 3.75574 11.4619 3.46289ZM15.999 1.58301C16.4131 1.58306 16.7489 1.91891 16.749 2.33301V4.07031C16.5062 4.02424 16.2553 4.00002 15.999 4C15.7428 4.00001 15.4919 4.02426 15.249 4.07031V2.33301C15.2491 1.91892 15.5849 1.58307 15.999 1.58301Z" fill="#DDAA01"/>
<path d="M16.3351 16.9877C18.108 16.8428 19.5 15.4112 19.5 13.6664C19.5 11.8255 17.9502 10.3331 16.0385 10.3331C15.7114 10.3331 15.3949 10.3768 15.095 10.4584C14.4201 8.45137 12.4631 7 10.1541 7C8.07964 7 6.2893 8.1715 5.45762 9.86495C5.37536 9.85971 5.29237 9.85704 5.20873 9.85704C3.16046 9.85704 1.5 11.456 1.5 13.4284C1.5 15.4008 3.16046 16.9998 5.20873 16.9998C5.20867 16.9998 5.2088 16.9998 5.20873 16.9998L10.1069 16.9998C10.1226 16.9999 10.1384 17 10.1541 17C10.1699 17 10.1856 16.9999 10.2013 16.9998H16.3351V16.9877Z" fill="#F7F9FA"/>
<path d="M10.1537 15.6108V16.9997H5.20902V15.6108H10.1537ZM1.5 13.428C1.5002 11.4558 3.16086 9.85731 5.20902 9.85731L5.45785 9.86454C6.28957 8.17141 8.0796 7.00014 10.1537 7C12.3908 7 14.2977 8.36229 15.0281 10.2723L15.0947 10.4586C15.3946 10.377 15.7113 10.3329 16.0384 10.3329C17.9502 10.3329 19.4995 11.8258 19.4995 13.6668L19.4958 13.8286C19.4127 15.4991 18.0528 16.8475 16.3351 16.9879V16.9997H10.1537V15.6108H16.1248L16.2131 15.6036C17.2456 15.5192 18.0571 14.6837 18.0572 13.6668C18.0572 12.5929 17.1536 11.7218 16.0384 11.7218C15.8453 11.7218 15.6608 11.7478 15.4872 11.795L14.151 12.1585L13.7229 10.8863C13.235 9.43534 11.8192 8.38887 10.1537 8.38887C8.65784 8.38901 7.36336 9.23244 6.76117 10.4586L6.34144 11.3131L5.36207 11.2507C5.31167 11.2475 5.26064 11.2462 5.20902 11.2462C3.95742 11.2462 2.94249 12.2229 2.94229 13.428C2.94229 14.6334 3.9573 15.6108 5.20902 15.6108V16.9997L5.01746 16.9952C3.05808 16.8993 1.5 15.3387 1.5 13.428Z" fill="#A9AEB1"/>
<rect x="4" y="18" width="1" height="3" rx="0.5" fill="#58B4FF"/>
<path d="M12 18.5C12 18.2239 12.2239 18 12.5 18C12.7761 18 13 18.2239 13 18.5V20.5C13 20.7761 12.7761 21 12.5 21C12.2239 21 12 20.7761 12 20.5V18.5Z" fill="#58B4FF"/>
<rect x="8" y="19" width="1" height="3" rx="0.5" fill="#58B4FF"/>
<rect width="1" height="3" rx="0.5" transform="matrix(-1 0 0 1 17 19)" fill="#58B4FF"/>
</svg>
