<?xml version="1.0" encoding="utf-8"?>
<!-- Generator: Adobe Illustrator 19.0.0, SVG Export Plug-In . SVG Version: 6.00 Build 0)  -->
<svg version="1.1" id="Layer_1" xmlns="http://www.w3.org/2000/svg" xmlns:xlink="http://www.w3.org/1999/xlink" x="0px" y="0px"
   viewBox="0 0 50 50" style="enable-background:new 0 0 50 50;" xml:space="preserve"  width="50" height="50">
<style type="text/css">
  .st0{fill:#FFFFFF;}
</style>
<path id="XMLID_45_" class="st0" d="M25.7,26.9c-0.7,0.9-1.5,2.3-1.5,2.9c0,0.9,0.6,1.5,1.5,1.5c0.9,0,1.5-0.6,1.5-1.5
  C27.2,29.1,26.4,27.8,25.7,26.9z M17.3,31.4c-0.8,1.1-2.1,3.1-2.1,4.1c0,1.3,0.8,2.2,2.1,2.2s2.1-0.9,2.1-2.2
  C19.4,34.5,18.1,32.5,17.3,31.4z M32.4,34.9c-0.9,1.2-2.7,3.8-2.7,5.1c0,1.6,1.1,2.7,2.7,2.7c1.6,0,2.7-1.1,2.7-2.7
  C35,38.6,33.4,36.1,32.4,34.9z M32.4,44.9c-2.7,0-4.8-2-4.8-4.8c0-2.7,3.6-7.2,3.9-7.5l0.8-1.1l0.9,1.1c0.9,1.1,3.9,5,3.9,7.5
  C37.1,43,35.1,44.9,32.4,44.9z M17.3,39.8c-2.3,0-4.1-1.8-4.1-4.2c0-1.7,1.7-4.3,3.1-6.2l1-1.2l1,1.2c1.4,1.9,3.1,4.5,3.1,6.2
  c0.1,1.1-0.3,2.2-1.1,2.9C19.5,39.4,18.5,39.8,17.3,39.8z M39.1,34.7c-0.7,0-1.2-0.6-1.2-1.2c0-0.6,0.6-1.2,1.2-1.2c4.4,0,8-3.6,8-8
  c0-4.4-3.6-8-8-8c-0.9,0-1.7,0.1-2.4,0.4l-1.2,0.4l-0.4-1.2c-1.7-4.9-6.3-8.2-11.5-8.2c-6.3,0-11.6,4.8-12.2,11.1L11.1,20l-1.3-0.2
  c-0.2-0.1-0.4-0.1-0.7-0.1c-3.4,0-6.2,2.8-6.2,6.2c0,3.4,2.8,6.2,6.2,6.2c0.6,0,1.2,0.6,1.2,1.2c0,0.6-0.6,1.2-1.2,1.2
  c-4.8,0-8.8-3.9-8.8-8.8c0-4.8,3.9-8.7,8.6-8.8c1.3-6.9,7.4-12.1,14.6-12.1c5.8,0,11.1,3.5,13.5,8.8c0.7-0.1,1.4-0.2,2.1-0.2
  c5.8,0,10.5,4.7,10.5,10.5C49.6,29.9,44.9,34.6,39.1,34.7z M25.7,33.3c-1.9,0-3.4-1.5-3.4-3.4c0-1.8,2.3-4.8,2.5-5l0.8-1.1l0.9,1.1
  c0.1,0.1,0.1,0.1,0.2,0.2c1,1.3,2.3,3.3,2.3,4.7C29.1,31.8,27.6,33.3,25.7,33.3z"/>
</svg>
