<svg width="40" height="40" viewBox="0 0 40 40" fill="none" xmlns="http://www.w3.org/2000/svg">
<path fill-rule="evenodd" clip-rule="evenodd" d="M2 18C2 21.866 5.13401 25 9 25H28C32.9706 25 37 20.9706 37 16C37 11.0294 32.9706 7 28 7C27.5635 7 27.1342 7.03108 26.7143 7.09115C24.9986 4.05195 21.7389 2 18 2C12.7925 2 8.51467 5.98049 8.04315 11.0649C4.62984 11.5314 2 14.4586 2 18Z" fill="#F7F9FA"/>
<path fill-rule="evenodd" clip-rule="evenodd" d="M26.7139 7.09082C24.9981 4.05185 21.7387 2 18 2C12.7926 2 8.51467 5.98027 8.04297 11.0645C4.62972 11.5311 2 14.4586 2 18C2 21.866 5.13401 25 9 25H10C10.5523 25 11 24.5523 11 24C11 23.4477 10.5523 23 10 23H9C6.23858 23 4 20.7614 4 18C4 15.4721 5.87832 13.3799 8.31445 13.0469L9.8877 12.8311L10.0342 11.25C10.4112 7.18463 13.8351 4 18 4C20.9885 4 23.5972 5.63771 24.9727 8.07422L25.6445 9.26465L26.9971 9.07129C27.3235 9.0246 27.6585 9 28 9C31.866 9 35 12.134 35 16C35 19.866 31.866 23 28 23C27.4477 23 27 23.4477 27 24C27 24.5523 27.4477 25 28 25C32.9706 25 37 20.9706 37 16C37 11.0294 32.9706 7 28 7C27.5635 7 27.1338 7.03075 26.7139 7.09082Z" fill="#A9AEB1"/>
<path d="M15.189 26.0717C15.281 25.9122 15.4846 25.8575 15.644 25.9496C15.8034 26.0416 15.8581 26.2453 15.7661 26.4047L15.2212 27.348H16.311C16.4949 27.3482 16.6438 27.4972 16.644 27.681C16.644 27.865 16.495 28.0148 16.311 28.015H15.2212L15.7661 28.9584C15.858 29.1178 15.8034 29.3214 15.644 29.4135C15.4846 29.5055 15.281 29.4508 15.189 29.2914L14.6431 28.347L14.0991 29.2914C14.0071 29.4508 13.8035 29.5055 13.644 29.4135C13.4847 29.3214 13.4301 29.1178 13.522 28.9584L14.0669 28.015H12.9771C12.7931 28.0148 12.644 27.865 12.644 27.681C12.6442 27.4972 12.7932 27.3482 12.9771 27.348H14.0669L13.522 26.4047C13.43 26.2453 13.4848 26.0416 13.644 25.9496C13.8035 25.8575 14.0071 25.9122 14.0991 26.0717L14.644 27.015L15.189 26.0717Z" fill="#EDEFF0"/>
<path d="M23.3628 28.2887C23.7309 28.2888 24.0288 28.5876 24.0288 28.9557V31.1334L25.9165 30.0446C26.2353 29.8608 26.6426 29.97 26.8267 30.2887C27.0108 30.6076 26.9014 31.0157 26.5825 31.1998L24.6958 32.2887L26.5825 33.3776C26.9014 33.5617 27.0108 33.9698 26.8267 34.2887C26.6426 34.6074 26.2353 34.7167 25.9165 34.5328L24.0288 33.442V35.6217C24.0288 35.9898 23.7309 36.2886 23.3628 36.2887C22.9946 36.2887 22.6958 35.9899 22.6958 35.6217V33.443L20.8091 34.5328C20.4903 34.7168 20.083 34.6074 19.8989 34.2887C19.7149 33.9699 19.8233 33.5617 20.1421 33.3776L22.0288 32.2877L20.1431 31.1998C19.8242 31.0157 19.7148 30.6076 19.8989 30.2887C20.083 29.97 20.4903 29.8607 20.8091 30.0446L22.6958 31.1334V28.9557C22.6958 28.5875 22.9946 28.2887 23.3628 28.2887Z" fill="#EDEFF0"/>
</svg>
