<svg width="24" height="24" viewBox="0 0 24 24" fill="none" xmlns="http://www.w3.org/2000/svg">
<path d="M10.907 2C13.0739 2 14.9725 3.14317 16.0369 4.8584C16.3159 4.81114 16.6028 4.78613 16.8953 4.78613C19.7144 4.78628 21.9995 7.07228 21.9998 9.89258C21.9998 12.7131 19.7146 14.9999 16.8953 15C16.8709 15 16.8463 14.9984 16.822 14.998V15H6.29565V14.9971C6.26296 14.9978 6.2299 15 6.19702 15C3.88861 14.9998 2.01733 13.1289 2.01733 10.8213C2.01741 8.93187 3.27212 7.33599 4.9939 6.81934C5.55657 4.06888 7.99052 2.00001 10.907 2Z" fill="#F7F9FA"/>
<path d="M10.8926 2C13.0604 2.00015 14.9604 3.14386 16.0244 4.86035C16.3072 4.81173 16.5979 4.78616 16.8945 4.78613C19.7139 4.78613 21.9999 7.07208 22 9.89258C22 12.6779 19.7707 14.9409 17 14.9971V14.9951H16.252C15.8377 14.9951 15.502 14.6593 15.502 14.2451C15.502 13.8309 15.8377 13.4951 16.252 13.4951H17.002C18.9427 13.4383 20.5 11.8493 20.5 9.89258C20.4999 7.90028 18.8852 6.28613 16.8945 6.28613C16.6842 6.28616 16.4784 6.30448 16.2783 6.33887L15.2822 6.50977L14.749 5.65039C13.9969 4.43736 12.6953 3.60874 11.1953 3.50977L10.8926 3.5C8.70292 3.5 6.87225 5.05348 6.44922 7.11914L6.26855 7.99805L5.40918 8.25586C4.37217 8.5664 3.60218 9.48689 3.50977 10.5967L3.5 10.8213C3.5 12.2397 4.60357 13.3966 6 13.4893V13.4951H6.75C7.16421 13.4951 7.5 13.8309 7.5 14.2451C7.49994 14.6593 7.16417 14.9951 6.75 14.9951H6V14.9941C3.77499 14.8999 2 13.0687 2 10.8213C2.00009 8.9308 3.2562 7.33407 4.97949 6.81836C5.54256 4.06841 7.97647 2 10.8926 2Z" fill="#A9AEB1"/>
<path d="M5 20.498L5 15.998C5 15.7219 5.22386 15.498 5.5 15.498C5.77614 15.498 6 15.7219 6 15.998L6 20.498C6 20.7742 5.77614 20.998 5.5 20.998C5.22386 20.998 5 20.7742 5 20.498Z" fill="#F7F9FA"/>
<path d="M7.19878 19.806L3.30167 17.556C3.06252 17.4179 2.98058 17.1121 3.11865 16.873C3.25672 16.6338 3.56252 16.5519 3.80167 16.6899L7.69878 18.9399C7.93793 19.078 8.01986 19.3838 7.88179 19.623C7.74372 19.8621 7.43793 19.944 7.19878 19.806Z" fill="#F7F9FA"/>
<path d="M7.69878 17.556L3.80167 19.806C3.56252 19.944 3.25672 19.8621 3.11865 19.623C2.98058 19.3838 3.06252 19.078 3.30166 18.9399L7.19878 16.6899C7.43793 16.5519 7.74372 16.6338 7.88179 16.873C8.01986 17.1121 7.93793 17.4179 7.69878 17.556Z" fill="#F7F9FA"/>
<path d="M18 20.498L18 15.998C18 15.7219 18.2239 15.498 18.5 15.498C18.7761 15.498 19 15.7219 19 15.998L19 20.498C19 20.7742 18.7761 20.998 18.5 20.998C18.2239 20.998 18 20.7742 18 20.498Z" fill="#F7F9FA"/>
<path d="M20.1988 19.806L16.3017 17.556C16.0625 17.4179 15.9806 17.1121 16.1187 16.873C16.2567 16.6338 16.5625 16.5519 16.8017 16.6899L20.6988 18.9399C20.9379 19.078 21.0199 19.3838 20.8818 19.623C20.7437 19.8621 20.4379 19.944 20.1988 19.806Z" fill="#F7F9FA"/>
<path d="M20.6988 17.556L16.8017 19.806C16.5625 19.944 16.2567 19.8621 16.1187 19.623C15.9806 19.3838 16.0625 19.078 16.3017 18.9399L20.1988 16.6899C20.4379 16.5519 20.7437 16.6338 20.8818 16.873C21.0199 17.1121 20.9379 17.4179 20.6988 17.556Z" fill="#F7F9FA"/>
<path d="M12.6118 22.1471L10.3618 18.25C10.2237 18.0109 10.3057 17.7051 10.5448 17.567C10.784 17.4289 11.0898 17.5109 11.2278 17.75L13.4778 21.6471C13.6159 21.8863 13.534 22.1921 13.2948 22.3302C13.0557 22.4682 12.7499 22.3863 12.6118 22.1471Z" fill="#F7F9FA"/>
<path d="M14.1697 20.4487L9.66968 20.4487C9.39354 20.4487 9.16968 20.2249 9.16968 19.9487C9.16968 19.6726 9.39354 19.4487 9.66968 19.4487L14.1697 19.4487C14.4458 19.4487 14.6697 19.6726 14.6697 19.9487C14.6697 20.2249 14.4458 20.4487 14.1697 20.4487Z" fill="#F7F9FA"/>
<path d="M13.4778 18.2503L11.2278 22.1474C11.0897 22.3866 10.7839 22.4685 10.5448 22.3304C10.3056 22.1924 10.2237 21.8866 10.3618 21.6474L12.6118 17.7503C12.7498 17.5112 13.0556 17.4292 13.2948 17.5673C13.5339 17.7054 13.6159 18.0112 13.4778 18.2503Z" fill="#F7F9FA"/>
</svg>
