<svg width="40" height="40" viewBox="0 0 40 40" fill="none" xmlns="http://www.w3.org/2000/svg">
<path d="M18 2C21.739 2 24.9962 4.05345 26.7119 7.09277C27.1326 7.03247 27.5626 7 28 7C32.9706 7 37 11.0294 37 16C37 20.9706 32.9706 25 28 25H9C5.13401 25 2 21.866 2 18C2 14.4584 4.63036 11.5327 8.04395 11.0664C8.51478 5.98134 12.792 2 18 2Z" fill="#F1F3F6"/>
<path d="M18 2C21.739 2 24.9962 4.05345 26.7119 7.09277C27.1326 7.03247 27.5626 7 28 7C32.9706 7 37 11.0294 37 16C37 20.9706 32.9706 25 28 25C27.4477 25 27 24.5523 27 24C27 23.4477 27.4477 23 28 23C31.866 23 35 19.866 35 16C35 12.134 31.866 9 28 9C27.6619 9 27.3269 9.02486 26.9961 9.07227L25.6426 9.2666L24.9707 8.07617C23.5947 5.63855 20.9875 4 18 4C13.835 4 10.4117 7.18479 10.0352 11.251L9.88867 12.833L8.31445 13.0479C5.87753 13.3808 4 15.4727 4 18C4 20.7614 6.23858 23 9 23H10C10.5523 23 11 23.4477 11 24C11 24.5523 10.5523 25 10 25H9C5.13401 25 2 21.866 2 18C2 14.4584 4.63036 11.5327 8.04395 11.0664C8.51478 5.98134 12.792 2 18 2Z" fill="#71767A"/>
<path d="M28.4895 27.2891C28.8576 27.2892 29.1555 27.5879 29.1555 27.9561V30.1338L31.0432 29.0449C31.362 28.8611 31.7693 28.9703 31.9534 29.2891C32.1374 29.6079 32.0281 30.0151 31.7092 30.1992L29.8215 31.2881L31.7092 32.3779C32.0281 32.562 32.1375 32.9702 31.9534 33.2891C31.7694 33.6078 31.362 33.717 31.0432 33.5332L29.1555 32.4434V34.6221C29.1555 34.9902 28.8576 35.289 28.4895 35.2891C28.1213 35.2891 27.8225 34.9903 27.8225 34.6221V32.4434L25.9358 33.5332C25.6171 33.7171 25.2098 33.6076 25.0256 33.2891C24.8416 32.9702 24.9509 32.562 25.2698 32.3779L27.1546 31.2881L25.2688 30.2002C24.9501 30.0161 24.8416 29.6079 25.0256 29.2891C25.2098 28.9704 25.617 28.861 25.9358 29.0449L27.8225 30.1338V27.9561C27.8225 27.5879 28.1213 27.2891 28.4895 27.2891Z" fill="#8D9297"/>
<path d="M20.5889 30.5765C20.773 30.2578 21.1812 30.1493 21.5 30.3334C21.8186 30.5175 21.9281 30.9248 21.7441 31.2435L20.6543 33.1303H22.833C23.2012 33.1303 23.5 33.4291 23.5 33.7972C23.4999 34.1654 23.2012 34.4642 22.833 34.4642H20.6543L21.7441 36.351C21.9279 36.6697 21.8187 37.0771 21.5 37.2611C21.1811 37.4452 20.773 37.3358 20.5889 37.017L19.499 35.1303L18.4102 37.017C18.226 37.3358 17.8188 37.4452 17.5 37.2611C17.1813 37.0771 17.0721 36.6698 17.2559 36.351L18.3447 34.4642H16.167C15.7988 34.4642 15.5001 34.1654 15.5 33.7972C15.5 33.4291 15.7988 33.1303 16.167 33.1303H18.3447L17.2559 31.2435C17.0719 30.9247 17.1813 30.5175 17.5 30.3334C17.8189 30.1493 18.2261 30.2587 18.4102 30.5775L19.499 32.4633L20.5889 30.5765Z" fill="#8D9297"/>
<path d="M10.51 27.2891C10.8781 27.2892 11.176 27.5879 11.176 27.9561V30.1338L13.0637 29.0449C13.3825 28.8612 13.7899 28.9704 13.9739 29.2891C14.158 29.6079 14.0486 30.0161 13.7297 30.2002L11.843 31.2891L13.7297 32.3779C14.0486 32.562 14.158 32.9702 13.9739 33.2891C13.7898 33.6077 13.3825 33.717 13.0637 33.5332L11.176 32.4424V34.6221C11.176 34.9902 10.8781 35.289 10.51 35.2891C10.1418 35.2891 9.84303 34.9903 9.84303 34.6221V32.4434L7.95631 33.5332C7.63753 33.7172 7.23027 33.6077 7.04615 33.2891C6.86208 32.9702 6.97056 32.5621 7.28932 32.3779L9.17604 31.2881L7.29029 30.2002C6.97143 30.0161 6.86206 29.6079 7.04615 29.2891C7.23023 28.9704 7.63752 28.861 7.95631 29.0449L9.84303 30.1338V27.9561C9.84303 27.5879 10.1418 27.2891 10.51 27.2891Z" fill="#8D9297"/>
</svg>
