<svg width="24" height="24" viewBox="0 0 24 24" fill="none" xmlns="http://www.w3.org/2000/svg">
<path fill-rule="evenodd" clip-rule="evenodd" d="M6.29614 14.9989C6.26338 14.9997 6.23052 15 6.19758 15C3.88903 15 2.01758 13.1292 2.01758 10.8215C2.01758 8.93157 3.27265 7.33472 4.99504 6.8184C5.55813 4.06848 7.99116 2 10.9072 2C13.0742 2 14.9744 3.1422 16.0387 4.85746C16.3172 4.81039 16.6034 4.78589 16.8952 4.78589C19.7147 4.78589 22.0002 7.07243 22.0002 9.89303C22.0002 12.7136 19.7147 15.0002 16.8952 15.0002C16.8709 15.0002 16.8466 15 16.8224 14.9997V14.9999H6.29614V14.9989Z" fill="#F1F3F6"/>
<path d="M10.8926 2C13.0604 2.00015 14.9604 3.14386 16.0244 4.86035C16.3072 4.81173 16.5979 4.78616 16.8945 4.78613C19.7139 4.78613 21.9999 7.07208 22 9.89258C22 12.6779 19.7707 14.9409 17 14.9971V14.9951H16.252C15.8377 14.9951 15.502 14.6593 15.502 14.2451C15.502 13.8309 15.8377 13.4951 16.252 13.4951H17.002C18.9427 13.4383 20.5 11.8493 20.5 9.89258C20.4999 7.90028 18.8852 6.28613 16.8945 6.28613C16.6842 6.28616 16.4784 6.30448 16.2783 6.33887L15.2822 6.50977L14.749 5.65039C13.9969 4.43736 12.6953 3.60874 11.1953 3.50977L10.8926 3.5C8.70292 3.5 6.87225 5.05348 6.44922 7.11914L6.26855 7.99805L5.40918 8.25586C4.37217 8.5664 3.60218 9.48689 3.50977 10.5967L3.5 10.8213C3.5 12.2397 4.60357 13.3966 6 13.4893V13.4951H6.75C7.16421 13.4951 7.5 13.8309 7.5 14.2451C7.49994 14.6593 7.16417 14.9951 6.75 14.9951H6V14.9941C3.77499 14.8999 2 13.0687 2 10.8213C2.00009 8.9308 3.2562 7.33407 4.97949 6.81836C5.54256 4.06841 7.97647 2 10.8926 2Z" fill="#71767A"/>
<path d="M18.4997 15.498C18.7758 15.498 18.9997 15.7219 18.9997 15.998V17.3818L20.1989 16.6904C20.438 16.5524 20.7434 16.634 20.8815 16.873C21.0196 17.1121 20.9379 17.4175 20.6989 17.5557L19.4997 18.2471L20.6989 18.9404C20.9379 19.0786 21.0196 19.384 20.8815 19.623C20.7434 19.8621 20.438 19.9437 20.1989 19.8057L18.9997 19.1133V20.498C18.9997 20.7742 18.7758 20.998 18.4997 20.998C18.2238 20.9978 17.9997 20.774 17.9997 20.498V19.1133L16.8015 19.8057C16.5623 19.9437 16.2569 19.8621 16.1188 19.623C15.9808 19.384 16.0626 19.0786 16.3015 18.9404L17.5007 18.2471L16.3015 17.5557C16.0626 17.4175 15.9808 17.1121 16.1188 16.873C16.2569 16.634 16.5623 16.5524 16.8015 16.6904L17.9997 17.3818V15.998C17.9997 15.7221 18.2238 15.4983 18.4997 15.498Z" fill="#8D9297"/>
<path d="M12.6924 17.4798C12.8305 17.2408 13.1359 17.1591 13.375 17.2972C13.614 17.4353 13.6957 17.7407 13.5576 17.9798L12.8662 19.178H14.25C14.5261 19.178 14.7499 19.402 14.75 19.678C14.75 19.9542 14.5261 20.178 14.25 20.178H12.8652L13.5576 21.3763C13.6956 21.6153 13.6139 21.9217 13.375 22.0599C13.1359 22.1979 12.8295 22.1154 12.6914 21.8763L11.999 20.678L11.3076 21.8773C11.1694 22.1161 10.864 22.1979 10.625 22.0599C10.3859 21.9218 10.3043 21.6164 10.4424 21.3773L11.1348 20.178H9.75C9.47386 20.178 9.25 19.9542 9.25 19.678C9.25013 19.402 9.47394 19.178 9.75 19.178H11.1338L10.4414 17.9798C10.3033 17.7406 10.3859 17.4343 10.625 17.2962C10.8641 17.1585 11.1696 17.2408 11.3076 17.4798L12 18.679L12.6924 17.4798Z" fill="#8D9297"/>
<path d="M5.49969 15.498C5.77583 15.498 5.99968 15.7219 5.99969 15.998V17.3818L7.19891 16.6904C7.43803 16.5524 7.74343 16.634 7.88153 16.873C8.01957 17.1121 7.93792 17.4175 7.69891 17.5557L6.49969 18.2471L7.69891 18.9404C7.93787 19.0786 8.01955 19.384 7.88153 19.623C7.7434 19.862 7.43799 19.9437 7.19891 19.8057L5.99969 19.1133V20.498C5.99969 20.7742 5.77584 20.998 5.49969 20.998C5.22375 20.9978 4.99969 20.774 4.99969 20.498V19.1133L3.80145 19.8057C3.56235 19.9437 3.25692 19.8621 3.11883 19.623C2.98084 19.384 3.06263 19.0786 3.30145 18.9404L4.50067 18.2471L3.30145 17.5557C3.06258 17.4175 2.98084 17.1121 3.11883 16.873C3.2569 16.6339 3.56231 16.5524 3.80145 16.6904L4.99969 17.3818V15.998C4.9997 15.7221 5.22375 15.4983 5.49969 15.498Z" fill="#8D9297"/>
</svg>
