<svg width="24" height="24" viewBox="0 0 24 24" fill="none" xmlns="http://www.w3.org/2000/svg">
<path d="M10.9072 2C13.0741 2 14.9727 3.14317 16.0371 4.8584C16.3161 4.81114 16.603 4.78613 16.8955 4.78613C19.7146 4.78628 21.9998 7.07228 22 9.89258C22 12.7131 19.7148 14.9999 16.8955 15C16.8711 15 16.8466 14.9984 16.8223 14.998V15H6.2959V14.9971C6.2632 14.9978 6.23014 15 6.19727 15C3.88886 14.9998 2.01758 13.1289 2.01758 10.8213C2.01766 8.93187 3.27236 7.33599 4.99414 6.81934C5.55682 4.06888 7.99077 2.00001 10.9072 2Z" fill="#F7F9FA"/>
<path d="M10.8926 2C13.0604 2.00015 14.9604 3.14386 16.0244 4.86035C16.3072 4.81173 16.5979 4.78616 16.8945 4.78613C19.7139 4.78613 21.9999 7.07208 22 9.89258C22 12.6779 19.7707 14.9409 17 14.9971V14.9951H16.252C15.8377 14.9951 15.502 14.6593 15.502 14.2451C15.502 13.8309 15.8377 13.4951 16.252 13.4951H17.002C18.9427 13.4383 20.5 11.8493 20.5 9.89258C20.4999 7.90028 18.8852 6.28613 16.8945 6.28613C16.6842 6.28616 16.4784 6.30448 16.2783 6.33887L15.2822 6.50977L14.749 5.65039C13.9969 4.43736 12.6953 3.60874 11.1953 3.50977L10.8926 3.5C8.70292 3.5 6.87225 5.05348 6.44922 7.11914L6.26855 7.99805L5.40918 8.25586C4.37217 8.5664 3.60218 9.48689 3.50977 10.5967L3.5 10.8213C3.5 12.2397 4.60357 13.3966 6 13.4893V13.4951H6.75C7.16421 13.4951 7.5 13.8309 7.5 14.2451C7.49994 14.6593 7.16417 14.9951 6.75 14.9951H6V14.9941C3.77499 14.8999 2 13.0687 2 10.8213C2.00009 8.9308 3.2562 7.33407 4.97949 6.81836C5.54256 4.06841 7.97647 2 10.8926 2Z" fill="#A9AEB1"/>
<path d="M18.5 15.498C18.7761 15.498 19 15.7219 19 15.998V17.3818L20.1992 16.6904C20.4383 16.5525 20.7438 16.634 20.8818 16.873C21.0198 17.112 20.938 17.4175 20.6992 17.5557L19.5 18.2471L20.6992 18.9404C20.938 19.0786 21.0198 19.3841 20.8818 19.623C20.7438 19.8621 20.4383 19.9436 20.1992 19.8057L19 19.1133V20.498C19 20.7742 18.7761 20.998 18.5 20.998C18.2239 20.998 18 20.7741 18 20.498V19.1133L16.8018 19.8057C16.5627 19.9437 16.2573 19.862 16.1191 19.623C15.9811 19.3839 16.0627 19.0785 16.3018 18.9404L17.501 18.2471L16.3018 17.5557C16.0627 17.4176 15.9811 17.1122 16.1191 16.873C16.2573 16.6341 16.5627 16.5524 16.8018 16.6904L18 17.3818V15.998C18 15.722 18.2239 15.4981 18.5 15.498Z" fill="#EDEFF0"/>
<path d="M12.6924 17.4797C12.8305 17.2408 13.1359 17.1591 13.375 17.2971C13.614 17.4352 13.6957 17.7406 13.5576 17.9797L12.8662 19.178H14.25C14.5261 19.178 14.7499 19.4019 14.75 19.678C14.75 19.9541 14.5261 20.178 14.25 20.178H12.8652L13.5576 21.3762C13.6956 21.6153 13.6139 21.9217 13.375 22.0598C13.1359 22.1979 12.8295 22.1154 12.6914 21.8762L11.999 20.678L11.3076 21.8772C11.1694 22.1161 10.864 22.1978 10.625 22.0598C10.3859 21.9217 10.3043 21.6163 10.4424 21.3772L11.1348 20.178H9.75C9.47386 20.178 9.25 19.9541 9.25 19.678C9.25013 19.4019 9.47394 19.178 9.75 19.178H11.1338L10.4414 17.9797C10.3033 17.7406 10.3859 17.4342 10.625 17.2961C10.8641 17.1585 11.1696 17.2408 11.3076 17.4797L12 18.679L12.6924 17.4797Z" fill="#EDEFF0"/>
<path d="M5.5 15.498C5.77614 15.498 5.99999 15.7219 6 15.998V17.3818L7.19922 16.6904C7.43835 16.5524 7.74378 16.6339 7.88184 16.873C8.01979 17.1121 7.93803 17.4175 7.69922 17.5557L6.5 18.2471L7.69922 18.9404C7.938 19.0786 8.01982 19.3841 7.88184 19.623C7.74377 19.8621 7.43832 19.9436 7.19922 19.8057L6 19.1133V20.498C6 20.7742 5.77614 20.998 5.5 20.998C5.22391 20.998 5 20.7742 5 20.498V19.1133L3.80176 19.8057C3.56269 19.9437 3.25728 19.862 3.11914 19.623C2.98111 19.384 3.06276 19.0786 3.30176 18.9404L4.50098 18.2471L3.30176 17.5557C3.06271 17.4176 2.98109 17.1122 3.11914 16.873C3.25725 16.634 3.56265 16.5524 3.80176 16.6904L5 17.3818V15.998C5.00001 15.722 5.22392 15.4981 5.5 15.498Z" fill="#EDEFF0"/>
</svg>
