<svg width="24" height="24" viewBox="0 0 24 24" fill="none" xmlns="http://www.w3.org/2000/svg">
<path d="M10.907 2C13.0739 2 14.9725 3.14317 16.0369 4.8584C16.3159 4.81114 16.6028 4.78613 16.8953 4.78613C19.7144 4.78628 21.9995 7.07228 21.9998 9.89258C21.9998 12.7131 19.7146 14.9999 16.8953 15C16.8709 15 16.8463 14.9984 16.822 14.998V15H6.29565V14.9971C6.26296 14.9978 6.2299 15 6.19702 15C3.88861 14.9998 2.01733 13.1289 2.01733 10.8213C2.01741 8.93187 3.27212 7.33599 4.9939 6.81934C5.55657 4.06888 7.99052 2.00001 10.907 2Z" fill="#F1F3F6"/>
<path d="M10.8926 2C13.0604 2.00015 14.9604 3.14386 16.0244 4.86035C16.3072 4.81173 16.5979 4.78616 16.8945 4.78613C19.7139 4.78613 21.9999 7.07208 22 9.89258C22 12.6779 19.7707 14.9409 17 14.9971V14.9951H16.252C15.8377 14.9951 15.502 14.6593 15.502 14.2451C15.502 13.8309 15.8377 13.4951 16.252 13.4951H17.002C18.9427 13.4383 20.5 11.8493 20.5 9.89258C20.4999 7.90028 18.8852 6.28613 16.8945 6.28613C16.6842 6.28616 16.4784 6.30448 16.2783 6.33887L15.2822 6.50977L14.749 5.65039C13.9969 4.43736 12.6953 3.60874 11.1953 3.50977L10.8926 3.5C8.70292 3.5 6.87225 5.05348 6.44922 7.11914L6.26855 7.99805L5.40918 8.25586C4.37217 8.5664 3.60218 9.48689 3.50977 10.5967L3.5 10.8213C3.5 12.2397 4.60357 13.3966 6 13.4893V13.4951H6.75C7.16421 13.4951 7.5 13.8309 7.5 14.2451C7.49994 14.6593 7.16417 14.9951 6.75 14.9951H6V14.9941C3.77499 14.8999 2 13.0687 2 10.8213C2.00009 8.9308 3.2562 7.33407 4.97949 6.81836C5.54256 4.06841 7.97647 2 10.8926 2Z" fill="#71767A"/>
<path d="M5 20.498L5 15.998C5 15.7219 5.22386 15.498 5.5 15.498C5.77614 15.498 6 15.7219 6 15.998L6 20.498C6 20.7742 5.77614 20.998 5.5 20.998C5.22386 20.998 5 20.7742 5 20.498Z" fill="#8D9297"/>
<path d="M7.19878 19.806L3.30167 17.556C3.06252 17.4179 2.98058 17.1121 3.11865 16.873C3.25672 16.6338 3.56252 16.5519 3.80167 16.6899L7.69878 18.9399C7.93793 19.078 8.01986 19.3838 7.88179 19.623C7.74372 19.8621 7.43793 19.944 7.19878 19.806Z" fill="#8D9297"/>
<path d="M7.69878 17.556L3.80167 19.806C3.56252 19.944 3.25672 19.8621 3.11865 19.623C2.98058 19.3838 3.06252 19.078 3.30166 18.9399L7.19878 16.6899C7.43793 16.5519 7.74372 16.6338 7.88179 16.873C8.01986 17.1121 7.93793 17.4179 7.69878 17.556Z" fill="#8D9297"/>
<path d="M18 20.498L18 15.998C18 15.7219 18.2239 15.498 18.5 15.498C18.7761 15.498 19 15.7219 19 15.998L19 20.498C19 20.7742 18.7761 20.998 18.5 20.998C18.2239 20.998 18 20.7742 18 20.498Z" fill="#8D9297"/>
<path d="M20.1985 19.806L16.3014 17.556C16.0623 17.418 15.9803 17.1122 16.1184 16.873C16.2565 16.6339 16.5623 16.5519 16.8014 16.69L20.6985 18.94C20.9377 19.0781 21.0196 19.3839 20.8815 19.623C20.7435 19.8622 20.4377 19.9441 20.1985 19.806Z" fill="#8D9297"/>
<path d="M20.6985 17.556L16.8014 19.806C16.5623 19.9441 16.2565 19.8622 16.1184 19.623C15.9803 19.3839 16.0623 19.0781 16.3014 18.94L20.1985 16.69C20.4377 16.5519 20.7435 16.6339 20.8815 16.873C21.0196 17.1122 20.9377 17.418 20.6985 17.556Z" fill="#8D9297"/>
<path d="M12.6924 17.4797C12.8305 17.2408 13.1359 17.1591 13.375 17.2971C13.6141 17.4352 13.6957 17.7406 13.5576 17.9797L12.8662 19.178H14.25C14.5261 19.178 14.7499 19.402 14.75 19.678C14.75 19.9541 14.5261 20.178 14.25 20.178H12.8652L13.5576 21.3762C13.6956 21.6153 13.6139 21.9217 13.375 22.0598C13.1359 22.1979 12.8295 22.1154 12.6914 21.8762L11.999 20.678L11.3076 21.8772C11.1695 22.1161 10.864 22.1978 10.625 22.0598C10.3859 21.9217 10.3043 21.6163 10.4424 21.3772L11.1348 20.178H9.75C9.47386 20.178 9.25 19.9541 9.25 19.678C9.25014 19.402 9.47394 19.178 9.75 19.178H11.1338L10.4414 17.9797C10.3033 17.7406 10.3859 17.4342 10.625 17.2961C10.8641 17.1585 11.1696 17.2408 11.3076 17.4797L12 18.679L12.6924 17.4797Z" fill="#8D9297"/>
</svg>
