<svg width="40" height="40" viewBox="0 0 40 40" fill="none" xmlns="http://www.w3.org/2000/svg">
<path d="M18 2C21.739 2 24.9962 4.05345 26.7119 7.09277C27.1326 7.03247 27.5626 7 28 7C32.9706 7 37 11.0294 37 16C37 20.9706 32.9706 25 28 25H9C5.13401 25 2 21.866 2 18C2 14.4584 4.63036 11.5327 8.04395 11.0664C8.51478 5.98134 12.792 2 18 2Z" fill="#F7F9FA"/>
<path d="M18 2C21.739 2 24.9962 4.05345 26.7119 7.09277C27.1326 7.03247 27.5626 7 28 7C32.9706 7 37 11.0294 37 16C37 20.9706 32.9706 25 28 25C27.4477 25 27 24.5523 27 24C27 23.4477 27.4477 23 28 23C31.866 23 35 19.866 35 16C35 12.134 31.866 9 28 9C27.6619 9 27.3269 9.02486 26.9961 9.07227L25.6426 9.2666L24.9707 8.07617C23.5947 5.63855 20.9875 4 18 4C13.835 4 10.4117 7.18479 10.0352 11.251L9.88867 12.833L8.31445 13.0479C5.87753 13.3808 4 15.4727 4 18C4 20.7614 6.23858 23 9 23H10C10.5523 23 11 23.4477 11 24C11 24.5523 10.5523 25 10 25H9C5.13401 25 2 21.866 2 18C2 14.4584 4.63036 11.5327 8.04395 11.0664C8.51478 5.98134 12.792 2 18 2Z" fill="#A9AEB1"/>
<path d="M15.189 26.0717C15.281 25.9122 15.4846 25.8575 15.644 25.9496C15.8034 26.0416 15.8581 26.2453 15.7661 26.4047L15.2212 27.348H16.311C16.4949 27.3482 16.6438 27.4972 16.644 27.681C16.644 27.865 16.495 28.0148 16.311 28.015H15.2212L15.7661 28.9584C15.858 29.1178 15.8034 29.3214 15.644 29.4135C15.4846 29.5055 15.281 29.4508 15.189 29.2914L14.6431 28.347L14.0991 29.2914C14.0071 29.4508 13.8035 29.5055 13.644 29.4135C13.4847 29.3214 13.4301 29.1178 13.522 28.9584L14.0669 28.015H12.9771C12.7931 28.0148 12.644 27.865 12.644 27.681C12.6442 27.4972 12.7932 27.3482 12.9771 27.348H14.0669L13.522 26.4047C13.43 26.2453 13.4848 26.0416 13.644 25.9496C13.8035 25.8575 14.0071 25.9122 14.0991 26.0717L14.644 27.015L15.189 26.0717Z" fill="#DFE1E2"/>
<path d="M23.3628 28.2887C23.7309 28.2888 24.0288 28.5876 24.0288 28.9557V31.1334L25.9165 30.0446C26.2353 29.8608 26.6426 29.97 26.8267 30.2887C27.0108 30.6076 26.9014 31.0157 26.5825 31.1998L24.6958 32.2887L26.5825 33.3776C26.9014 33.5617 27.0108 33.9698 26.8267 34.2887C26.6426 34.6074 26.2353 34.7167 25.9165 34.5328L24.0288 33.442V35.6217C24.0288 35.9898 23.7309 36.2886 23.3628 36.2887C22.9946 36.2887 22.6958 35.9899 22.6958 35.6217V33.443L20.8091 34.5328C20.4903 34.7168 20.083 34.6074 19.8989 34.2887C19.7149 33.9699 19.8233 33.5617 20.1421 33.3776L22.0288 32.2877L20.1431 31.1998C19.8242 31.0157 19.7148 30.6076 19.8989 30.2887C20.083 29.97 20.4903 29.8607 20.8091 30.0446L22.6958 31.1334V28.9557C22.6958 28.5875 22.9946 28.2887 23.3628 28.2887Z" fill="#DFE1E2"/>
</svg>
