<svg width="40" height="40" viewBox="0 0 40 40" fill="none" xmlns="http://www.w3.org/2000/svg">
<path d="M18 2C21.739 2 24.9962 4.05345 26.7119 7.09277C27.1326 7.03247 27.5626 7 28 7C32.9706 7 37 11.0294 37 16C37 20.9706 32.9706 25 28 25H9C5.13401 25 2 21.866 2 18C2 14.4584 4.63036 11.5327 8.04395 11.0664C8.51478 5.98134 12.792 2 18 2Z" fill="#F7F9FA"/>
<path d="M18 2C21.739 2 24.9962 4.05345 26.7119 7.09277C27.1326 7.03247 27.5626 7 28 7C32.9706 7 37 11.0294 37 16C37 20.9706 32.9706 25 28 25C27.4477 25 27 24.5523 27 24C27 23.4477 27.4477 23 28 23C31.866 23 35 19.866 35 16C35 12.134 31.866 9 28 9C27.6619 9 27.3269 9.02486 26.9961 9.07227L25.6426 9.2666L24.9707 8.07617C23.5947 5.63855 20.9875 4 18 4C13.835 4 10.4117 7.18479 10.0352 11.251L9.88867 12.833L8.31445 13.0479C5.87753 13.3808 4 15.4727 4 18C4 20.7614 6.23858 23 9 23H10C10.5523 23 11 23.4477 11 24C11 24.5523 10.5523 25 10 25H9C5.13401 25 2 21.866 2 18C2 14.4584 4.63036 11.5327 8.04395 11.0664C8.51478 5.98134 12.792 2 18 2Z" fill="#A9AEB1"/>
<path d="M28.4897 27.2891C28.8579 27.2892 29.1558 27.5879 29.1558 27.9561V30.1338L31.0435 29.0449C31.3623 28.8611 31.7696 28.9703 31.9536 29.2891C32.1377 29.6079 32.0283 30.0151 31.7095 30.1992L29.8218 31.2881L31.7095 32.3779C32.0283 32.562 32.1377 32.9702 31.9536 33.2891C31.7696 33.6078 31.3623 33.717 31.0435 33.5332L29.1558 32.4434V34.6221C29.1558 34.9902 28.8579 35.289 28.4897 35.2891C28.1216 35.2891 27.8228 34.9903 27.8228 34.6221V32.4434L25.936 33.5332C25.6173 33.7171 25.21 33.6076 25.0259 33.2891C24.8418 32.9702 24.9512 32.562 25.27 32.3779L27.1548 31.2881L25.269 30.2002C24.9503 30.0161 24.8418 29.6079 25.0259 29.2891C25.21 28.9704 25.6173 28.861 25.936 29.0449L27.8228 30.1338V27.9561C27.8228 27.5879 28.1216 27.2891 28.4897 27.2891Z" fill="#EDEFF0"/>
<path d="M20.5889 30.5768C20.773 30.258 21.1812 30.1496 21.5 30.3336C21.8186 30.5177 21.9281 30.925 21.7441 31.2438L20.6543 33.1305H22.833C23.2012 33.1305 23.5 33.4293 23.5 33.7975C23.4999 34.1656 23.2012 34.4645 22.833 34.4645H20.6543L21.7441 36.3512C21.9279 36.67 21.8187 37.0773 21.5 37.2614C21.1811 37.4454 20.773 37.3361 20.5889 37.0172L19.499 35.1305L18.4102 37.0172C18.226 37.336 17.8188 37.4454 17.5 37.2614C17.1813 37.0773 17.0721 36.67 17.2559 36.3512L18.3447 34.4645H16.167C15.7988 34.4645 15.5001 34.1656 15.5 33.7975C15.5 33.4293 15.7988 33.1305 16.167 33.1305H18.3447L17.2559 31.2438C17.0719 30.925 17.1813 30.5177 17.5 30.3336C17.8189 30.1495 18.2261 30.2589 18.4102 30.5778L19.499 32.4635L20.5889 30.5768Z" fill="#EDEFF0"/>
<path d="M10.5103 27.2891C10.8784 27.2892 11.1763 27.5879 11.1763 27.9561V30.1338L13.064 29.0449C13.3828 28.8612 13.7901 28.9704 13.9741 29.2891C14.1582 29.6079 14.0488 30.0161 13.73 30.2002L11.8433 31.2891L13.73 32.3779C14.0488 32.562 14.1582 32.9702 13.9741 33.2891C13.7901 33.6077 13.3827 33.717 13.064 33.5332L11.1763 32.4424V34.6221C11.1763 34.9902 10.8784 35.289 10.5103 35.2891C10.1421 35.2891 9.84326 34.9903 9.84326 34.6221V32.4434L7.95654 33.5332C7.63776 33.7172 7.2305 33.6077 7.04639 33.2891C6.86232 32.9702 6.97079 32.5621 7.28955 32.3779L9.17627 31.2881L7.29053 30.2002C6.97167 30.0161 6.86229 29.6079 7.04639 29.2891C7.23046 28.9704 7.63775 28.861 7.95654 29.0449L9.84326 30.1338V27.9561C9.84326 27.5879 10.1421 27.2891 10.5103 27.2891Z" fill="#EDEFF0"/>
</svg>
