<svg width="40" height="40" viewBox="0 0 40 40" fill="none" xmlns="http://www.w3.org/2000/svg">
<path d="M18 2C21.739 2 24.9962 4.05345 26.7119 7.09277C27.1326 7.03247 27.5626 7 28 7C32.9706 7 37 11.0294 37 16C37 20.9706 32.9706 25 28 25H9C5.13401 25 2 21.866 2 18C2 14.4584 4.63036 11.5327 8.04395 11.0664C8.51478 5.98134 12.792 2 18 2Z" fill="#F1F3F6"/>
<path d="M18 2C21.739 2 24.9962 4.05345 26.7119 7.09277C27.1326 7.03247 27.5626 7 28 7C32.9706 7 37 11.0294 37 16C37 20.9706 32.9706 25 28 25C27.4477 25 27 24.5523 27 24C27 23.4477 27.4477 23 28 23C31.866 23 35 19.866 35 16C35 12.134 31.866 9 28 9C27.6619 9 27.3269 9.02486 26.9961 9.07227L25.6426 9.2666L24.9707 8.07617C23.5947 5.63855 20.9875 4 18 4C13.835 4 10.4117 7.18479 10.0352 11.251L9.88867 12.833L8.31445 13.0479C5.87753 13.3808 4 15.4727 4 18C4 20.7614 6.23858 23 9 23H10C10.5523 23 11 23.4477 11 24C11 24.5523 10.5523 25 10 25H9C5.13401 25 2 21.866 2 18C2 14.4584 4.63036 11.5327 8.04395 11.0664C8.51478 5.98134 12.792 2 18 2Z" fill="#71767A"/>
<rect width="0.666667" height="4" rx="0.333333" transform="matrix(-0.866025 0.5 0.5 0.866025 13.9331 25.7827)" fill="#8D9297"/>
<rect width="0.666667" height="4" rx="0.333333" transform="matrix(-2.58096e-08 1 1 2.58096e-08 12.644 27.3481)" fill="#8D9297"/>
<rect width="0.666667" height="4" rx="0.333333" transform="matrix(0.866025 0.5 0.5 -0.866025 13.3555 29.2468)" fill="#8D9297"/>
<rect width="1.33333" height="8" rx="0.666667" transform="matrix(-0.5 0.866025 0.866025 0.5 20.2319 29.7113)" fill="#8D9297"/>
<rect width="1.33333" height="8" rx="0.666667" transform="matrix(0.5 0.866025 0.866025 -0.5 19.5649 33.7113)" fill="#8D9297"/>
<rect width="1.33333" height="8" rx="0.666667" transform="matrix(1 0 0 -1 22.6958 36.2887)" fill="#8D9297"/>
</svg>
