<svg width="40" height="40" viewBox="0 0 40 40" fill="none" xmlns="http://www.w3.org/2000/svg">
<path d="M18 2C21.739 2 24.9962 4.05345 26.7119 7.09277C27.1326 7.03247 27.5626 7 28 7C32.9706 7 37 11.0294 37 16C37 20.9706 32.9706 25 28 25H9C5.13401 25 2 21.866 2 18C2 14.4584 4.63036 11.5327 8.04395 11.0664C8.51478 5.98134 12.792 2 18 2Z" fill="#F7F9FA"/>
<path d="M18 2C21.739 2 24.9962 4.05345 26.7119 7.09277C27.1326 7.03247 27.5626 7 28 7C32.9706 7 37 11.0294 37 16C37 20.9706 32.9706 25 28 25C27.4477 25 27 24.5523 27 24C27 23.4477 27.4477 23 28 23C31.866 23 35 19.866 35 16C35 12.134 31.866 9 28 9C27.6619 9 27.3269 9.02486 26.9961 9.07227L25.6426 9.2666L24.9707 8.07617C23.5947 5.63855 20.9875 4 18 4C13.835 4 10.4117 7.18479 10.0352 11.251L9.88867 12.833L8.31445 13.0479C5.87753 13.3808 4 15.4727 4 18C4 20.7614 6.23858 23 9 23H10C10.5523 23 11 23.4477 11 24C11 24.5523 10.5523 25 10 25H9C5.13401 25 2 21.866 2 18C2 14.4584 4.63036 11.5327 8.04395 11.0664C8.51478 5.98134 12.792 2 18 2Z" fill="#A9AEB1"/>
<mask id="path-3-inside-1_2139_2610" fill="white">
<path d="M20.3633 23H25.25L15 37.5L16.2676 27H12.5L16.25 16H22.75L20.3633 23Z"/>
</mask>
<path d="M20.3633 23H25.25L15 37.5L16.2676 27H12.5L16.25 16H22.75L20.3633 23Z" fill="#FACE00"/>
<path d="M20.3633 23L18.9435 22.5159L18.267 24.5H20.3633V23ZM25.25 23L26.4749 23.8659L28.1473 21.5H25.25V23ZM15 37.5L13.5108 37.3202L16.2249 38.3659L15 37.5ZM16.2676 27L17.7568 27.1798L17.9596 25.5H16.2676V27ZM12.5 27L11.0802 26.516L10.4039 28.5H12.5V27ZM16.25 16V14.5H15.1766L14.8302 15.516L16.25 16ZM22.75 16L24.1697 16.4841L24.8462 14.5H22.75V16ZM20.3633 23V24.5H25.25V23V21.5H20.3633V23ZM25.25 23L24.0251 22.1341L13.7751 36.6341L15 37.5L16.2249 38.3659L26.4749 23.8659L25.25 23ZM15 37.5L16.4892 37.6798L17.7568 27.1798L16.2676 27L14.7784 26.8202L13.5108 37.3202L15 37.5ZM16.2676 27V25.5H12.5V27V28.5H16.2676V27ZM12.5 27L13.9198 27.484L17.6698 16.484L16.25 16L14.8302 15.516L11.0802 26.516L12.5 27ZM16.25 16V17.5H22.75V16V14.5H16.25V16ZM22.75 16L21.3303 15.5159L18.9435 22.5159L20.3633 23L21.783 23.4841L24.1697 16.4841L22.75 16Z" fill="#B38C00" mask="url(#path-3-inside-1_2139_2610)"/>
<rect x="11" y="29" width="2" height="6" rx="1" fill="#73B3E7"/>
<rect x="27" y="26" width="2" height="6" rx="1" fill="#73B3E7"/>
<rect x="19" y="34" width="2" height="4" rx="1" fill="#73B3E7"/>
<rect x="23" y="31" width="2" height="5" rx="1" fill="#73B3E7"/>
</svg>
