<svg width="40" height="40" viewBox="0 0 40 40" fill="none" xmlns="http://www.w3.org/2000/svg">
<path d="M18 2C21.739 2 24.9962 4.05345 26.7119 7.09277C27.1326 7.03247 27.5626 7 28 7C32.9706 7 37 11.0294 37 16C37 20.9706 32.9706 25 28 25H9C5.13401 25 2 21.866 2 18C2 14.4584 4.63036 11.5327 8.04395 11.0664C8.51478 5.98134 12.792 2 18 2Z" fill="#F1F3F6"/>
<path d="M18 2C21.739 2 24.9962 4.05345 26.7119 7.09277C27.1326 7.03247 27.5626 7 28 7C32.9706 7 37 11.0294 37 16C37 20.9706 32.9706 25 28 25C27.4477 25 27 24.5523 27 24C27 23.4477 27.4477 23 28 23C31.866 23 35 19.866 35 16C35 12.134 31.866 9 28 9C27.6619 9 27.3269 9.02486 26.9961 9.07227L25.6426 9.2666L24.9707 8.07617C23.5947 5.63855 20.9875 4 18 4C13.835 4 10.4117 7.18479 10.0352 11.251L9.88867 12.833L8.31445 13.0479C5.87753 13.3808 4 15.4727 4 18C4 20.7614 6.23858 23 9 23H10C10.5523 23 11 23.4477 11 24C11 24.5523 10.5523 25 10 25H9C5.13401 25 2 21.866 2 18C2 14.4584 4.63036 11.5327 8.04395 11.0664C8.51478 5.98134 12.792 2 18 2Z" fill="#71767A"/>
<path d="M20.3631 23H25.2498L15 37.5001L16.2675 27H12.5L16.2499 16H22.7498L20.3631 23Z" fill="#FACE00"/>
<path d="M20.3631 23H25.2498L15 37.5001L16.2675 27H12.5L16.2499 16H22.7498L20.3631 23ZM14.5966 25.5H17.9599L17.2001 31.7881L22.3524 24.5H18.2665L20.6532 17.5H17.3232L14.5966 25.5Z" fill="#B38C00"/>
<rect x="11" y="29" width="2" height="6" rx="1" fill="#4F97D1"/>
<rect x="27" y="26" width="2" height="6" rx="1" fill="#4F97D1"/>
<rect x="19" y="34" width="2" height="4" rx="1" fill="#4F97D1"/>
<rect x="23" y="31" width="2" height="5" rx="1" fill="#4F97D1"/>
</svg>
