<svg width="24" height="24" viewBox="0 0 24 24" fill="none" xmlns="http://www.w3.org/2000/svg">
<path d="M10.9072 2C13.0741 2 14.9727 3.14317 16.0371 4.8584C16.3161 4.81114 16.603 4.78613 16.8955 4.78613C19.7146 4.78628 21.9998 7.07228 22 9.89258C22 12.7131 19.7148 14.9999 16.8955 15C16.8711 15 16.8466 14.9984 16.8223 14.998V15H6.2959V14.9971C6.2632 14.9978 6.23014 15 6.19727 15C3.88886 14.9998 2.01758 13.1289 2.01758 10.8213C2.01766 8.93187 3.27236 7.33599 4.99414 6.81934C5.55682 4.06888 7.99077 2.00001 10.9072 2Z" fill="#F1F3F6"/>
<path d="M10.8926 2C13.0604 2.00015 14.9604 3.14386 16.0244 4.86035C16.3072 4.81173 16.5979 4.78616 16.8945 4.78613C19.7139 4.78613 21.9999 7.07208 22 9.89258C22 12.6779 19.7707 14.9409 17 14.9971V14.9951H16.252C15.8377 14.9951 15.502 14.6593 15.502 14.2451C15.502 13.8309 15.8377 13.4951 16.252 13.4951H17.002C18.9427 13.4383 20.5 11.8493 20.5 9.89258C20.4999 7.90028 18.8852 6.28613 16.8945 6.28613C16.6842 6.28616 16.4784 6.30448 16.2783 6.33887L15.2822 6.50977L14.749 5.65039C13.9969 4.43736 12.6953 3.60874 11.1953 3.50977L10.8926 3.5C8.70292 3.5 6.87225 5.05348 6.44922 7.11914L6.26855 7.99805L5.40918 8.25586C4.37217 8.5664 3.60218 9.48689 3.50977 10.5967L3.5 10.8213C3.5 12.2397 4.60357 13.3966 6 13.4893V13.4951H6.75C7.16421 13.4951 7.5 13.8309 7.5 14.2451C7.49994 14.6593 7.16417 14.9951 6.75 14.9951H6V14.9941C3.77499 14.8999 2 13.0687 2 10.8213C2.00009 8.9308 3.2562 7.33407 4.97949 6.81836C5.54256 4.06841 7.97647 2 10.8926 2Z" fill="#71767A"/>
<path d="M12.0576 14.0004H15L9 22.0004L9.7168 16.3998H7.5L9.69531 9.39978H13.5L12.0576 14.0004Z" fill="#FACE00"/>
<path d="M12.0576 14.0004H15L9 22.0004L9.7168 16.3998H7.5L9.69531 9.39978H13.5L12.0576 14.0004ZM11.209 16.5531L11.999 15.5004H11.3438L11.209 16.5531ZM9.54297 14.8998H10.2041L11.457 10.8998H10.7979L9.54297 14.8998Z" fill="#B38C00"/>
<rect x="5" y="17" width="1.5" height="3.5" rx="0.75" fill="#4F97D1"/>
<path d="M19 15.75C19 15.3358 19.3358 15 19.75 15C20.1642 15 20.5 15.3358 20.5 15.75V17.75C20.5 18.1642 20.1642 18.5 19.75 18.5C19.3358 18.5 19 18.1642 19 17.75V15.75Z" fill="#4F97D1"/>
<path d="M16 17.75C16 17.3358 16.3358 17 16.75 17C17.1642 17 17.5 17.3358 17.5 17.75V19.25C17.5 19.6642 17.1642 20 16.75 20C16.3358 20 16 19.6642 16 19.25V17.75Z" fill="#4F97D1"/>
<path d="M13 19.75C13 19.3358 13.3358 19 13.75 19C14.1642 19 14.5 19.3358 14.5 19.75V21.25C14.5 21.6642 14.1642 22 13.75 22C13.3358 22 13 21.6642 13 21.25V19.75Z" fill="#4F97D1"/>
</svg>
