<svg width="24" height="24" viewBox="0 0 24 24" fill="none" xmlns="http://www.w3.org/2000/svg">
<path d="M19.2002 3C19.8002 2.99997 18.0006 9.59969 17.1006 12.2998C15.6744 16.5784 10.5615 20.7002 10.5615 20.7002C8.56182 22.1999 13.5006 17.0997 9.30078 12.2998C5.94119 8.46028 3.60101 3.00134 4.2002 3C4.2002 3 7.80019 3.90033 12 3.90039C12.2693 3.90039 12.534 3.8956 12.793 3.88867L12.8408 4.63477C13.0756 4.66688 15.748 4.49317 15.9629 4.3877C15.9629 4.35913 15.9244 4.0472 15.8789 3.64648C17.9123 3.38218 19.1818 3.00551 19.2002 3Z" fill="#DFE1E2"/>
<path d="M4.38281 2.27246H4.38379C4.38504 2.27282 4.38713 2.2738 4.38965 2.27441C4.39549 2.27585 4.40476 2.27831 4.41699 2.28125C4.44219 2.28731 4.48141 2.29589 4.53223 2.30762C4.63419 2.33114 4.78645 2.36523 4.98242 2.40625C5.37504 2.48842 5.94416 2.59871 6.64258 2.70898C8.04197 2.92992 9.95095 3.15036 12 3.15039C12.2533 3.15039 12.5021 3.14695 12.7461 3.14062L12.8408 4.63477C12.8529 4.63642 12.8721 4.63417 12.8965 4.63477C12.6043 4.6434 12.3053 4.65039 12 4.65039C9.8497 4.65036 7.85857 4.41942 6.4082 4.19043C5.89442 4.1093 5.4472 4.0263 5.08301 3.95508C5.26772 4.4568 5.55476 5.11663 5.93555 5.87207C6.84553 7.67735 8.23752 9.9454 9.86523 11.8057C12.0882 14.3463 11.989 16.9892 11.541 18.8135C11.9074 18.462 12.3205 18.0521 12.7471 17.5938C14.1843 16.0492 15.7279 14.0449 16.3887 12.0625C16.8316 10.7338 17.5012 8.4288 17.9844 6.45898C18.2266 5.47134 18.4166 4.58871 18.5098 3.96289C18.5107 3.95639 18.5108 3.94977 18.5117 3.94336C18.187 4.01679 17.7816 4.10447 17.3057 4.18848C16.8992 4.2602 16.4406 4.33069 15.9375 4.39551C15.9481 4.39225 15.9575 4.39084 15.9639 4.3877C15.9639 4.34262 15.8746 3.59099 15.7949 2.90039C16.2537 2.84044 16.6727 2.77663 17.0449 2.71094C17.6651 2.6015 18.1564 2.49307 18.4893 2.41211C18.6554 2.3717 18.7824 2.33828 18.8662 2.31543C18.9079 2.30405 18.9391 2.29477 18.959 2.28906C18.9687 2.28627 18.9762 2.28447 18.9805 2.2832C18.9825 2.28256 18.9846 2.28146 18.9854 2.28125L19.0898 2.25H19.2002C19.6863 2.2501 19.9129 2.62273 19.9824 2.79688C20.0506 2.96784 20.0652 3.14427 20.0693 3.2627C20.0782 3.51952 20.0448 3.84353 19.9941 4.18359C19.8905 4.87962 19.6866 5.81659 19.4414 6.81641C18.9496 8.82133 18.2686 11.1658 17.8115 12.5371C17.0461 14.8331 15.3203 17.0295 13.8447 18.6152C13.0986 19.417 12.3994 20.0818 11.8857 20.5459C11.6289 20.778 11.4174 20.9604 11.2695 21.0859C11.1957 21.1486 11.1369 21.1972 11.0967 21.2305C11.0767 21.247 11.0616 21.2607 11.0508 21.2695C11.0456 21.2737 11.0411 21.2769 11.0381 21.2793C11.0368 21.2804 11.0351 21.2815 11.0342 21.2822L11.0332 21.2832C11.0331 21.2833 11.032 21.2838 10.5615 20.7002L11.0322 21.2842L11.0225 21.292L11.0117 21.2998C10.8809 21.3979 10.7555 21.487 10.6436 21.5527C10.5879 21.5854 10.5165 21.6229 10.4375 21.6533C10.3711 21.6788 10.2253 21.7286 10.0439 21.7139C9.81231 21.6948 9.56329 21.5701 9.41895 21.3164C9.30756 21.1204 9.30964 20.9318 9.31348 20.8555C9.3216 20.6941 9.37281 20.5382 9.40137 20.4541C9.55756 19.994 9.80481 19.4998 10.0322 18.665C10.4537 17.1176 10.6109 14.9366 8.73633 12.7939C7.00419 10.8144 5.54571 8.43248 4.5957 6.54785C4.1212 5.60649 3.76198 4.76678 3.55859 4.14648C3.46021 3.84636 3.38292 3.5509 3.3623 3.30469C3.35309 3.19457 3.34571 3.00087 3.41797 2.80371C3.45781 2.69523 3.53529 2.54906 3.68457 2.42969C3.84386 2.3025 4.02946 2.25005 4.2002 2.25H4.29297L4.38281 2.27246Z" fill="#71767A"/>
<path d="M18.9912 5.43591C18.9014 5.84715 18.7974 6.29098 18.6836 6.75134C18.3337 6.8341 17.8591 6.93906 17.2793 7.04138C16.1009 7.24932 14.4849 7.45409 12.6006 7.49158V6.29138C14.4014 6.25414 15.9463 6.05826 17.0713 5.85974C17.6948 5.74971 18.1888 5.63962 18.5244 5.55798C18.692 5.51722 18.8202 5.48353 18.9053 5.46033C18.9421 5.45029 18.9708 5.44172 18.9912 5.43591ZM4.95117 5.55408C5.3459 5.63669 5.91778 5.74705 6.61914 5.85779C7.60352 6.0132 8.83982 6.16576 10.2002 6.24451V7.44568C8.76299 7.36541 7.46095 7.20585 6.43164 7.04333C6.14135 6.9975 5.87262 6.94982 5.62793 6.90564C5.37116 6.42779 5.14256 5.97222 4.94531 5.55212C4.94731 5.55254 4.94917 5.55366 4.95117 5.55408Z" fill="#71767A"/>
<path d="M7.43652 9.87537C8.72772 10.0504 10.3162 10.1996 12 10.1996C12.4125 10.1996 12.8131 10.1882 13.2002 10.1722V11.3734C12.8125 11.3887 12.412 11.3998 12 11.3998C10.7149 11.3998 9.48672 11.3159 8.39746 11.2006C8.06229 10.7673 7.74237 10.322 7.43652 9.87537ZM17.9238 9.59314C17.795 10.0451 17.666 10.4818 17.543 10.889C17.4575 10.905 17.37 10.9248 17.2793 10.9408C16.7909 11.027 16.2273 11.1129 15.6006 11.1869V9.97693C16.1464 9.9099 16.6398 9.8353 17.0713 9.75916C17.3908 9.70276 17.6762 9.64572 17.9238 9.59314Z" fill="#71767A"/>
<path d="M10.4824 14.0609C10.9754 14.0852 11.4832 14.1 12 14.1L12.001 14.099V15.2992L12 15.3002C11.6387 15.3002 11.2821 15.2906 10.9316 15.2787C10.8265 14.8814 10.6824 14.4736 10.4824 14.0609ZM16.4961 13.7543C16.2784 14.1987 16.0364 14.6369 15.7764 15.0629C15.3475 15.1156 14.8877 15.1652 14.4004 15.2035V13.9984C15.1796 13.9347 15.8845 13.848 16.4961 13.7543Z" fill="#71767A"/>
</svg>
