<svg width="40" height="40" viewBox="0 0 40 40" fill="none" xmlns="http://www.w3.org/2000/svg">
<path d="M32 4.99963C33 4.99958 30 15.9995 28.5 20.4996C26.123 27.6305 16.5 36.4996 16.5 36.4996C13.0005 38.4992 22.4999 28.4995 15.5 20.4996C9.90091 14.1005 6.00144 5.00198 7 4.99963C7 4.99963 13.0002 6.49957 20 6.49963C20.4549 6.49963 20.9017 6.49292 21.3389 6.48108L21.4023 7.47424C21.7959 7.52756 26.2494 7.23787 26.6055 7.06213C26.6053 7.01908 26.5604 6.61764 26.499 6.07288C29.8711 5.63216 31.9733 5.00761 32 4.99963Z" fill="#F7F9FA"/>
<path d="M32.2607 10.8717C32.2526 10.9055 32.2445 10.9394 32.2363 10.9733C32.2306 10.975 32.2245 10.9772 32.2178 10.9791C32.1754 10.9913 32.1135 11.0083 32.0342 11.0299C31.8753 11.0732 31.6438 11.1342 31.3457 11.2067C30.749 11.3518 29.8842 11.5434 28.7988 11.735C26.8346 12.0816 24.1412 12.4264 21 12.4889V10.4889C24.0016 10.4268 26.576 10.0971 28.4512 9.76624C29.4906 9.58281 30.3136 9.3994 30.873 9.26331C31.1526 9.1953 31.3669 9.13892 31.5088 9.10022C31.5794 9.08095 31.6328 9.06609 31.667 9.05627C31.6839 9.05144 31.6964 9.04778 31.7041 9.04553C31.7078 9.04446 31.7104 9.04308 31.7119 9.0426H31.7129L32.2607 10.8717ZM7.25586 9.03381C7.26597 9.0363 7.28165 9.04046 7.30273 9.04553C7.3454 9.0558 7.41055 9.07071 7.49609 9.09045C7.66759 9.13003 7.92315 9.18765 8.25195 9.25647C8.90982 9.39416 9.86241 9.57875 11.0312 9.76331C12.6719 10.0223 14.7325 10.2766 17 10.4078V12.4108C14.6045 12.2767 12.4343 12.0088 10.7188 11.7379C9.66875 11.5721 8.7865 11.4031 8.12305 11.2682C8.04117 11.11 7.96063 10.9538 7.88281 10.7994C7.62297 10.2839 7.38501 9.78728 7.16992 9.31702C7.23111 9.07206 7.24092 9.03618 7.24219 9.03088C7.24263 9.03094 7.24406 9.03062 7.24512 9.03088C7.24735 9.03144 7.25104 9.03263 7.25586 9.03381Z" fill="#8D9297"/>
<path d="M11.0586 16.2673C13.3971 16.6355 16.581 17.0007 20 17.0007C20.6874 17.0007 21.3549 16.9814 22 16.9548V18.9597C21.354 18.9853 20.6864 19.0007 20 19.0007C17.2988 19.0007 14.7482 18.7801 12.623 18.5085C12.0759 17.7695 11.5536 17.0177 11.0586 16.2673ZM30.9844 15.7341C30.771 16.4929 30.5574 17.2334 30.3496 17.9314C29.9012 18.0271 29.382 18.1322 28.7988 18.2351C27.9845 18.3788 27.0448 18.5218 26 18.6453V16.6296C26.9096 16.5179 27.732 16.3933 28.4512 16.2664C29.4906 16.0829 30.3136 15.8995 30.873 15.7634C30.9115 15.7541 30.9484 15.743 30.9844 15.7341Z" fill="#8D9297"/>
<path d="M16.2197 23.3572C17.2253 23.4292 18.2783 23.4817 19.3594 23.4958L20 23.5007V25.5007L19.334 25.4958C18.5136 25.4851 17.7095 25.4545 16.9297 25.4099C16.7817 24.7253 16.5514 24.0385 16.2197 23.3572ZM28.6748 22.7244C28.3266 23.4632 27.9229 24.2062 27.4814 24.9451C26.4517 25.0968 25.2825 25.2386 24 25.3396V23.3328C25.7278 23.1915 27.2364 22.9807 28.4512 22.7664C28.527 22.753 28.6013 22.7377 28.6748 22.7244Z" fill="#8D9297"/>
<path d="M24.0332 29.8298C23.4718 30.5297 22.9101 31.201 22.3633 31.8298C22.3287 31.8696 22.2933 31.9085 22.2588 31.948C21.5327 31.9804 20.7785 31.9998 20 31.9998C18.7528 31.9998 17.5378 31.9508 16.3818 31.8738C16.5837 31.2494 16.7652 30.5887 16.9004 29.9021C17.8988 29.9617 18.9379 29.9998 20 29.9998C21.4399 29.9998 22.7932 29.9321 24.0332 29.8298Z" fill="#8D9297"/>
<path d="M7.24316 4.03027H7.24512C7.24731 4.03083 7.25102 4.03202 7.25586 4.0332C7.26601 4.03569 7.28246 4.03981 7.30371 4.04492C7.34643 4.0552 7.41165 4.07013 7.49707 4.08984C7.66854 4.12941 7.92342 4.1871 8.25195 4.25586C8.90982 4.39355 9.86232 4.57813 11.0312 4.7627C13.3722 5.13231 16.5677 5.49997 20 5.5C20.4332 5.5 20.8586 5.4934 21.2754 5.48242L21.4023 7.47363C21.4192 7.47592 21.4435 7.4755 21.4746 7.47656C20.9938 7.49064 20.502 7.5 20 7.5C16.4329 7.49997 13.1286 7.11764 10.7197 6.7373C9.65014 6.56842 8.75438 6.39697 8.08691 6.26074C8.38211 7.14718 8.9202 8.41588 9.66797 9.89941C11.1913 12.9215 13.5226 16.7214 16.2529 19.8418C20.0997 24.2384 19.3677 29.1832 18.2637 32.5605C18.1205 32.9984 17.969 33.413 17.8203 33.7998C18.6801 32.9209 19.7431 31.7958 20.8545 30.5176C23.5495 27.4179 26.431 23.546 27.5518 20.1836C28.2923 17.962 29.41 14.1133 30.2168 10.8242C30.621 9.17612 30.9406 7.69634 31.0977 6.6416C31.1187 6.50047 31.1351 6.37052 31.1494 6.25195C30.5654 6.39022 29.7705 6.5629 28.7988 6.73438C28.1375 6.85107 27.393 6.96447 26.5771 7.07031C26.5879 7.0666 26.5981 7.06612 26.6055 7.0625C26.6055 6.9981 26.4993 6.06829 26.3857 5.0791C27.1431 4.9799 27.8351 4.87433 28.4512 4.76562C29.4904 4.58223 30.3136 4.39877 30.873 4.2627C31.1527 4.19468 31.3669 4.13831 31.5088 4.09961C31.5796 4.08029 31.6327 4.06548 31.667 4.05566C31.6839 4.05082 31.6964 4.04718 31.7041 4.04492C31.7077 4.04386 31.7104 4.04243 31.7119 4.04199H31.7129L31.8535 4H32C32.6608 4.00004 32.9721 4.50535 33.0713 4.75391C33.1688 4.99817 33.1917 5.25741 33.1982 5.44629C33.2123 5.85077 33.1592 6.37276 33.0752 6.93652C32.9042 8.08486 32.5674 9.63652 32.1592 11.3008C31.341 14.6366 30.2087 18.538 29.4492 20.8164C28.1931 24.5848 25.0739 28.7125 22.3633 31.8301C20.9935 33.4054 19.7009 34.7545 18.75 35.709C18.2744 36.1865 17.8831 36.5659 17.6104 36.8271C17.4741 36.9576 17.3673 37.0591 17.2939 37.1279C17.2573 37.1623 17.2284 37.189 17.209 37.207C17.1995 37.2159 17.1917 37.2228 17.1865 37.2275C17.1841 37.2298 17.1821 37.2321 17.1807 37.2334L17.1787 37.2344V37.2354H17.1777L17.0947 37.3125L16.9961 37.3682C16.7599 37.5031 16.505 37.6323 16.2578 37.7012C16.088 37.7485 15.463 37.8964 15 37.3877C14.7896 37.1564 14.7254 36.8955 14.7061 36.7236C14.6869 36.5525 14.7039 36.3977 14.7227 36.2861C14.76 36.0643 14.8372 35.8297 14.9141 35.6221C15.068 35.206 15.3212 34.6341 15.5693 34.04C15.8274 33.4222 16.1086 32.7155 16.3623 31.9395C17.3831 28.8169 17.9008 24.7614 14.748 21.1582C11.8784 17.8786 9.45947 13.9277 7.88281 10.7998C7.09515 9.23717 6.50261 7.85067 6.16895 6.83301C6.00654 6.33763 5.88445 5.86784 5.85254 5.4873C5.83806 5.31436 5.82935 5.03627 5.93066 4.75977C5.98619 4.60828 6.0923 4.408 6.2959 4.24512C6.51273 4.07177 6.76594 4.00008 7 4H7.12305L7.24316 4.03027Z" fill="#8D9297"/>
</svg>
