<svg width="40" height="40" viewBox="0 0 40 40" fill="none" xmlns="http://www.w3.org/2000/svg">
<mask id="mask0_2139_2776" style="mask-type:alpha" maskUnits="userSpaceOnUse" x="5" y="1" width="30" height="37">
<path d="M34.5818 37.6489H5.20972V1.76025H34.5818V37.6489ZM21.116 2.97705L21.4011 7.47412C21.7925 7.52766 26.2498 7.23779 26.6052 7.06201C26.6043 6.91391 26.1052 2.65381 26.1052 2.65381L21.116 2.97705Z" fill="#D9D9D9"/>
</mask>
<g mask="url(#mask0_2139_2776)">
<path d="M15.4999 20.5C9.8999 14.1 5.99993 5 6.9999 5C6.9999 5 12.9999 6.5 19.9999 6.5C26.9999 6.5 31.9999 5 31.9999 5C32.9999 4.99995 29.9999 16 28.4999 20.5C26.1229 27.6309 16.4999 36.5 16.4999 36.5C12.9999 38.5 22.4999 28.5 15.4999 20.5Z" fill="#F7F9FA" stroke="#8D9297" stroke-width="2"/>
</g>
<mask id="mask1_2139_2776" style="mask-type:alpha" maskUnits="userSpaceOnUse" x="5" y="2" width="28" height="35">
<path fill-rule="evenodd" clip-rule="evenodd" d="M32.3164 4.05154C22.4409 0.759702 11.3101 2.67955 6.71584 4.0408C6.18637 4.19768 5.88427 4.75449 6.04103 5.28396C6.16618 5.70634 6.54573 5.98407 6.96295 5.99954C7.62976 8.53547 11.0212 15.3813 15.5 20.5C20.1519 25.8164 17.5169 32.0161 16.2528 34.9902C15.6148 36.4915 15.326 37.1709 16.5001 36.5C16.5001 36.5 26.123 27.6309 28.5 20.5C29.7276 16.8173 31.9598 8.78115 32.182 5.98366C32.5278 5.91912 32.8291 5.67358 32.9483 5.31619C33.1229 4.79231 32.8402 4.22627 32.3164 4.05154ZM30.086 5.46678C22.3396 3.36266 13.9799 4.35644 9.19397 5.46094C11.5577 5.90181 15.5795 6.50003 20.0001 6.50003C24.4012 6.50003 28.0117 5.90707 30.086 5.46678Z" fill="#71767A"/>
</mask>
<g mask="url(#mask1_2139_2776)">
<path d="M7.24513 9.0305C7.24735 9.03105 7.25099 9.03223 7.25587 9.03343C7.26598 9.03591 7.2816 9.04006 7.30274 9.04515C7.34541 9.05541 7.4105 9.07031 7.4961 9.09007C7.6676 9.12964 7.9231 9.18725 8.25196 9.25608C8.90983 9.39377 9.86238 9.57836 11.0313 9.76292C13.3723 10.1325 16.5676 10.5002 20 10.5002C23.4301 10.5002 26.3709 10.133 28.4512 9.76585C29.4907 9.58241 30.3136 9.39901 30.8731 9.26292C31.1527 9.19489 31.3669 9.13854 31.5088 9.09983C31.5795 9.08054 31.6328 9.0657 31.667 9.05589C31.684 9.05102 31.6965 9.04739 31.7041 9.04515C31.7079 9.04403 31.7105 9.04265 31.7119 9.04222H31.7129L32.2871 10.9582H32.2861L32.2852 10.9592C32.2842 10.9595 32.2828 10.9597 32.2813 10.9602C32.2779 10.9612 32.2724 10.9624 32.2666 10.9641C32.255 10.9675 32.2388 10.9727 32.2178 10.9787C32.1754 10.9909 32.1136 11.0079 32.0342 11.0295C31.8753 11.0728 31.6439 11.1338 31.3457 11.2063C30.749 11.3514 29.8843 11.5431 28.7988 11.7346C26.6291 12.1175 23.5699 12.5002 20 12.5002C16.4326 12.5002 13.1277 12.1179 10.7188 11.7375C9.51295 11.5471 8.52762 11.3567 7.84181 11.2131C7.49909 11.1414 7.2308 11.0817 7.04688 11.0393C6.95489 11.0181 6.88357 11.0012 6.83497 10.9895C6.81085 10.9837 6.79227 10.979 6.77931 10.9758L6.75978 10.9709H6.75782C6.75765 10.9709 6.75748 10.9704 7.00001 10.0002C7.22346 9.10641 7.24089 9.03605 7.2422 9.0305C7.24258 9.03059 7.24402 9.03023 7.24513 9.0305Z" fill="#8D9297"/>
<path d="M7.24513 15.5305C7.24735 15.5311 7.25099 15.5322 7.25587 15.5334C7.26598 15.5359 7.2816 15.5401 7.30274 15.5451C7.34541 15.5554 7.4105 15.5703 7.4961 15.5901C7.6676 15.6296 7.9231 15.6873 8.25196 15.7561C8.90983 15.8938 9.86238 16.0784 11.0313 16.2629C13.3723 16.6325 16.5676 17.0002 20 17.0002C23.4301 17.0002 26.3709 16.633 28.4512 16.2659C29.4907 16.0824 30.3136 15.899 30.8731 15.7629C31.1527 15.6949 31.3669 15.6385 31.5088 15.5998C31.5795 15.5805 31.6328 15.5657 31.667 15.5559C31.684 15.551 31.6965 15.5474 31.7041 15.5451C31.7079 15.544 31.7105 15.5426 31.7119 15.5422H31.7129L32.2871 17.4582H32.2861L32.2852 17.4592C32.2842 17.4595 32.2828 17.4597 32.2813 17.4602C32.2779 17.4612 32.2724 17.4624 32.2666 17.4641C32.255 17.4675 32.2388 17.4727 32.2178 17.4787C32.1754 17.4909 32.1136 17.5079 32.0342 17.5295C31.8753 17.5728 31.6439 17.6338 31.3457 17.7063C30.749 17.8514 29.8843 18.0431 28.7988 18.2346C26.6291 18.6175 23.5699 19.0002 20 19.0002C16.4326 19.0002 13.1277 18.6179 10.7188 18.2375C9.51295 18.0471 8.52762 17.8567 7.84181 17.7131C7.49909 17.6414 7.2308 17.5817 7.04688 17.5393C6.95489 17.5181 6.88357 17.5012 6.83497 17.4895C6.81085 17.4837 6.79227 17.479 6.77931 17.4758L6.75978 17.4709H6.75782C6.75765 17.4709 6.75748 17.4704 7.00001 16.5002C7.22346 15.6064 7.24089 15.5361 7.2422 15.5305C7.24258 15.5306 7.24402 15.5302 7.24513 15.5305Z" fill="#8D9297"/>
<path d="M7.24513 22.0305C7.24735 22.0311 7.25099 22.0322 7.25587 22.0334C7.26598 22.0359 7.2816 22.0401 7.30274 22.0451C7.34541 22.0554 7.4105 22.0703 7.4961 22.0901C7.6676 22.1296 7.9231 22.1873 8.25196 22.2561C8.90983 22.3938 9.86238 22.5784 11.0313 22.7629C13.3723 23.1325 16.5676 23.5002 20 23.5002C23.4301 23.5002 26.3709 23.133 28.4512 22.7659C29.4907 22.5824 30.3136 22.399 30.8731 22.2629C31.1527 22.1949 31.3669 22.1385 31.5088 22.0998C31.5795 22.0805 31.6328 22.0657 31.667 22.0559C31.684 22.051 31.6965 22.0474 31.7041 22.0451C31.7079 22.044 31.7105 22.0426 31.7119 22.0422H31.7129L32.2871 23.9582H32.2861L32.2852 23.9592C32.2842 23.9595 32.2828 23.9597 32.2813 23.9602C32.2779 23.9612 32.2724 23.9624 32.2666 23.9641C32.255 23.9675 32.2388 23.9727 32.2178 23.9787C32.1754 23.9909 32.1136 24.0079 32.0342 24.0295C31.8753 24.0728 31.6439 24.1338 31.3457 24.2063C30.749 24.3514 29.8843 24.5431 28.7988 24.7346C26.6291 25.1175 23.5699 25.5002 20 25.5002C16.4326 25.5002 13.1277 25.1179 10.7188 24.7375C9.51295 24.5471 8.52762 24.3567 7.84181 24.2131C7.49909 24.1414 7.2308 24.0817 7.04688 24.0393C6.95489 24.0181 6.88357 24.0012 6.83497 23.9895C6.81085 23.9837 6.79227 23.979 6.77931 23.9758L6.75978 23.9709H6.75782C6.75765 23.9709 6.75748 23.9704 7.00001 23.0002C7.22346 22.1064 7.24089 22.0361 7.2422 22.0305C7.24258 22.0306 7.24402 22.0302 7.24513 22.0305Z" fill="#8D9297"/>
<path d="M7.24513 28.5305C7.24735 28.5311 7.25099 28.5322 7.25587 28.5334C7.26598 28.5359 7.2816 28.5401 7.30274 28.5451C7.34541 28.5554 7.4105 28.5703 7.4961 28.5901C7.6676 28.6296 7.9231 28.6873 8.25196 28.7561C8.90983 28.8938 9.86238 29.0784 11.0313 29.2629C13.3723 29.6325 16.5676 30.0002 20 30.0002C23.4301 30.0002 26.3709 29.633 28.4512 29.2659C29.4907 29.0824 30.3136 28.899 30.8731 28.7629C31.1527 28.6949 31.3669 28.6385 31.5088 28.5998C31.5795 28.5805 31.6328 28.5657 31.667 28.5559C31.684 28.551 31.6965 28.5474 31.7041 28.5451C31.7079 28.544 31.7105 28.5426 31.7119 28.5422H31.7129L32.2871 30.4582H32.2861L32.2852 30.4592C32.2842 30.4595 32.2828 30.4597 32.2813 30.4602C32.2779 30.4612 32.2724 30.4624 32.2666 30.4641C32.255 30.4675 32.2388 30.4727 32.2178 30.4787C32.1754 30.4909 32.1136 30.5079 32.0342 30.5295C31.8753 30.5728 31.6439 30.6338 31.3457 30.7063C30.749 30.8514 29.8843 31.0431 28.7988 31.2346C26.6291 31.6175 23.5699 32.0002 20 32.0002C16.4326 32.0002 13.1277 31.6179 10.7188 31.2375C9.51295 31.0471 8.52762 30.8567 7.84181 30.7131C7.49909 30.6414 7.2308 30.5817 7.04688 30.5393C6.95489 30.5181 6.88357 30.5012 6.83497 30.4895C6.81085 30.4837 6.79227 30.479 6.77931 30.4758L6.75978 30.4709H6.75782C6.75765 30.4709 6.75748 30.4704 7.00001 29.5002C7.22346 28.6064 7.24089 28.5361 7.2422 28.5305C7.24258 28.5306 7.24402 28.5302 7.24513 28.5305Z" fill="#8D9297"/>
<rect x="17" y="8.00024" width="4" height="5" fill="#F7F9FA"/>
<rect x="22" y="15.0002" width="4" height="5" fill="#F7F9FA"/>
<rect x="20" y="23.0002" width="4" height="3" fill="#F7F9FA"/>
</g>
</svg>
