<svg width="24" height="24" viewBox="0 0 24 24" fill="none" xmlns="http://www.w3.org/2000/svg">
<mask id="mask0_2139_1987" style="mask-type:alpha" maskUnits="userSpaceOnUse" x="2" y="1" width="19" height="23">
<path d="M20.9377 23.0562H2.93774V1.05615H20.9377V23.0562ZM12.6692 1.93604L12.8411 4.63428C13.0781 4.66619 15.75 4.49263 15.9631 4.38721C15.9621 4.29434 15.6633 1.74268 15.6633 1.74268L12.6692 1.93604Z" fill="#D9D9D9"/>
</mask>
<g mask="url(#mask0_2139_1987)">
<path d="M9.2997 12.3C5.9397 8.46 3.59971 3 4.19969 3C4.19969 3 7.79972 3.9 11.9997 3.9C16.1997 3.9 19.1997 3 19.1997 3C19.7997 2.99997 17.9997 9.60003 17.0997 12.3C15.6735 16.5785 10.5608 20.7 10.5608 20.7C8.56079 22.2 13.4997 17.1 9.2997 12.3Z" fill="#F7F9FA" stroke="#8D9297" stroke-width="1.5"/>
</g>
<mask id="mask1_2139_1987" style="mask-type:alpha" maskUnits="userSpaceOnUse" x="3" y="1" width="17" height="20">
<path fill-rule="evenodd" clip-rule="evenodd" d="M19.3897 2.43107C13.4644 0.456041 6.78586 1.60749 4.02936 2.42423C3.71184 2.51848 3.53099 2.85272 3.62506 3.17033C3.70011 3.42364 3.92779 3.59048 4.17803 3.60001C4.57833 5.12184 6.61307 9.22897 9.30019 12.3C11.9955 15.3803 11.0917 18.4607 10.6531 19.9553C10.4083 20.7896 10.3085 21.1298 11.0608 20.6999C11.0608 20.6999 15.674 16.5785 17.1002 12.3C17.8368 10.0902 19.1763 5.26791 19.3094 3.58977C19.5171 3.55137 19.698 3.40438 19.7696 3.18986C19.8744 2.87549 19.7041 2.53586 19.3897 2.43107ZM18.0532 3.27971C13.4056 2.01709 8.38962 2.61387 5.51768 3.27673C6.93607 3.54123 9.34857 3.89997 12.0002 3.89997C14.6419 3.89997 16.8089 3.54392 18.0532 3.27971Z" fill="#71767A"/>
</mask>
<g mask="url(#mask1_2139_1987)">
<path d="M4.34644 5.41785C4.34774 5.41817 4.35028 5.41907 4.35327 5.4198C4.35933 5.42129 4.36887 5.42357 4.38159 5.42664C4.40722 5.4328 4.44636 5.44211 4.4978 5.45398C4.6007 5.47772 4.75365 5.5123 4.95093 5.55359C5.34565 5.63621 5.91748 5.74655 6.6189 5.8573C8.02344 6.07905 9.94049 6.29967 11.9998 6.29968C14.0578 6.29968 15.8229 6.07952 17.071 5.85925C17.6946 5.74921 18.1885 5.63914 18.5242 5.5575C18.6918 5.51672 18.8199 5.48304 18.905 5.45984C18.9474 5.44827 18.9792 5.43937 18.9998 5.43347C19.01 5.43054 19.0176 5.42799 19.0222 5.42664C19.0245 5.42598 19.0262 5.42592 19.0271 5.42566L19.0281 5.42468L19.3718 6.57507L19.3689 6.57605C19.3669 6.57665 19.3636 6.57698 19.3601 6.578C19.3532 6.58004 19.3434 6.58318 19.3308 6.58679C19.3054 6.59408 19.2681 6.60407 19.2205 6.61707C19.1251 6.64306 18.9863 6.67998 18.8074 6.72351C18.4493 6.8106 17.9303 6.92596 17.2791 7.04089C15.9772 7.27061 14.1416 7.49988 11.9998 7.49988C9.8594 7.49986 7.87673 7.27105 6.4314 7.04285C5.70781 6.9286 5.11636 6.81355 4.70483 6.72742C4.49937 6.68441 4.33858 6.64838 4.22827 6.62292C4.17329 6.61024 4.13047 6.60064 4.10132 6.59363C4.08674 6.59012 4.07494 6.58675 4.06714 6.58484C4.06342 6.58393 4.06045 6.58341 4.05835 6.58289C4.05727 6.58262 4.05607 6.58207 4.05542 6.58191H4.05444L4.34546 5.41785H4.34644Z" fill="#8D9297"/>
<path d="M4.34644 9.31775C4.34774 9.31807 4.35028 9.31897 4.35327 9.3197C4.35933 9.32119 4.36887 9.32348 4.38159 9.32654C4.40722 9.33271 4.44636 9.34201 4.4978 9.35388C4.6007 9.37763 4.75365 9.4122 4.95093 9.45349C5.34565 9.53611 5.91748 9.64645 6.6189 9.7572C8.02344 9.97896 9.94049 10.1996 11.9998 10.1996C14.0578 10.1996 15.8229 9.97942 17.071 9.75916C17.6946 9.64911 18.1885 9.53904 18.5242 9.4574C18.6918 9.41662 18.8199 9.38295 18.905 9.35974C18.9474 9.34817 18.9792 9.33927 18.9998 9.33337C19.01 9.33044 19.0176 9.3279 19.0222 9.32654C19.0245 9.32588 19.0262 9.32583 19.0271 9.32556L19.0281 9.32458L19.3718 10.475L19.3689 10.476C19.3669 10.4766 19.3636 10.4769 19.3601 10.4779C19.3532 10.4799 19.3434 10.4831 19.3308 10.4867C19.3054 10.494 19.2681 10.504 19.2205 10.517C19.1251 10.543 18.9863 10.5799 18.8074 10.6234C18.4493 10.7105 17.9303 10.8259 17.2791 10.9408C15.9772 11.1705 14.1416 11.3998 11.9998 11.3998C9.8594 11.3998 7.87673 11.171 6.4314 10.9427C5.70781 10.8285 5.11636 10.7135 4.70483 10.6273C4.49937 10.5843 4.33858 10.5483 4.22827 10.5228C4.17329 10.5101 4.13047 10.5005 4.10132 10.4935C4.08674 10.49 4.07494 10.4867 4.06714 10.4847C4.06342 10.4838 4.06045 10.4833 4.05835 10.4828C4.05727 10.4825 4.05607 10.482 4.05542 10.4818H4.05444L4.34546 9.31775H4.34644Z" fill="#8D9297"/>
<path d="M4.34644 13.2178C4.34774 13.2181 4.35028 13.219 4.35327 13.2197C4.35933 13.2212 4.36887 13.2235 4.38159 13.2266C4.40722 13.2327 4.44636 13.242 4.4978 13.2539C4.6007 13.2777 4.75365 13.3122 4.95093 13.3535C5.34565 13.4361 5.91748 13.5465 6.6189 13.6572C8.02344 13.879 9.94049 14.0996 11.9998 14.0996C14.0578 14.0996 15.8229 13.8794 17.071 13.6592C17.6946 13.5491 18.1885 13.4391 18.5242 13.3574C18.6918 13.3166 18.8199 13.283 18.905 13.2598C18.9474 13.2482 18.9792 13.2393 18.9998 13.2334C19.01 13.2305 19.0176 13.2279 19.0222 13.2266C19.0245 13.2259 19.0262 13.2259 19.0271 13.2256L19.0281 13.2246L19.3718 14.375L19.3689 14.376C19.3669 14.3766 19.3636 14.3769 19.3601 14.3779C19.3532 14.38 19.3434 14.3831 19.3308 14.3867C19.3054 14.394 19.2681 14.404 19.2205 14.417C19.1251 14.443 18.9863 14.4799 18.8074 14.5234C18.4493 14.6105 17.9303 14.7259 17.2791 14.8408C15.9772 15.0705 14.1416 15.2998 11.9998 15.2998C9.8594 15.2998 7.87673 15.071 6.4314 14.8428C5.70781 14.7285 5.11636 14.6135 4.70483 14.5273C4.49937 14.4843 4.33858 14.4483 4.22827 14.4229C4.17329 14.4102 4.13047 14.4006 4.10132 14.3936C4.08674 14.39 4.07494 14.3867 4.06714 14.3848C4.06342 14.3839 4.06045 14.3833 4.05835 14.3828C4.05727 14.3825 4.05607 14.382 4.05542 14.3818H4.05444L4.34546 13.2178H4.34644Z" fill="#8D9297"/>
<rect x="10.2" y="4.7998" width="2.4" height="3" fill="#F7F9FA"/>
<rect x="13.2" y="8.99988" width="2.4" height="3" fill="#F7F9FA"/>
<rect x="12" y="13.7998" width="2.4" height="1.8" fill="#F7F9FA"/>
</g>
</svg>
