<?xml version="1.0" encoding="utf-8"?>
<!-- Generator: Adobe Illustrator 19.0.0, SVG Export Plug-In . SVG Version: 6.00 Build 0)  -->
<svg version="1.1" id="Layer_1" xmlns="http://www.w3.org/2000/svg" xmlns:xlink="http://www.w3.org/1999/xlink" x="0px" y="0px"
   viewBox="0 0 50 50" style="enable-background:new 0 0 50 50;" xml:space="preserve" width="50" height="50">
<style type="text/css">
  .st0{fill:#FFFFFF;}
</style>
<path id="XMLID_1_" class="st0" d="M33.1,44.5c-0.7,0-1.3-0.6-1.3-1.3c0-0.7,0.6-1.4,1.3-1.4c2.1,0,4-1.9,4-4c0-2.3-1.7-4-4-4H6.9
  c-0.7,0-1.4-0.6-1.4-1.3c0-0.7,0.6-1.4,1.4-1.4h26.2c3.7,0,6.7,3,6.7,6.8S36.8,44.5,33.1,44.5z M38.3,28.8H1.6
  c-0.7,0-1.4-0.6-1.4-1.3c0-0.7,0.6-1.4,1.4-1.4h36.7C43,26,47,22,47,17.1c0-4.9-4-9-8.8-9c-0.7,0-1.3-0.6-1.3-1.4
  c0-0.7,0.6-1.3,1.3-1.3c6.3,0,11.5,5.2,11.5,11.6S44.6,28.8,38.3,28.8z M31.7,23.8H11.9c-0.7,0-1.4-0.6-1.4-1.4s0.6-1.4,1.4-1.4
  h19.8c2.8,0,5.2-2.4,5.2-5.3c0-3-2.4-5.4-5.2-5.4c-2.1,0-3.9,1.2-4.8,3.2c-0.1,0.3-0.4,0.6-0.8,0.8c-0.3,0.1-0.7,0.1-1-0.1
  c-0.3-0.1-0.6-0.4-0.7-0.8c-0.1-0.3-0.1-0.7,0.1-1c1.2-2.9,4.1-4.8,7.3-4.8c4.4,0,8,3.7,8,8.1C39.7,20.2,36.1,23.8,31.7,23.8z"/>
</svg>
