<svg width="40" height="40" viewBox="0 0 40 40" fill="none" xmlns="http://www.w3.org/2000/svg">
<path d="M34 14C34 10.7502 31.1559 8 27.5 8C26.9477 7.99999 26.5 7.55228 26.5 7C26.5 6.44772 26.9477 6.00001 27.5 6C32.1283 6 36 9.51786 36 14C36 18.4821 32.1283 22 27.5 22H3C2.44772 22 2 21.5523 2 21C2 20.4477 2.44772 20 3 20H27.5C31.1559 20 34 17.2498 34 14Z" fill="#2491FF"/>
<path d="M24 12.5C24 10.6173 22.3727 9 20.25 9C18.6955 9 17.3892 9.87826 16.8164 11.0908C16.5806 11.5901 15.9847 11.804 15.4854 11.5684C14.986 11.3325 14.7721 10.7366 15.0078 10.2373C15.9181 8.30983 17.9385 7 20.25 7C23.374 7 26 9.41218 26 12.5C26 15.5878 23.374 18 20.25 18H6C5.44772 18 5 17.5523 5 17C5 16.4477 5.44772 16 6 16H20.25C22.3727 16 24 14.3827 24 12.5Z" fill="#58B4FF"/>
<path d="M32 29.5C32 31.3827 30.3727 33 28.25 33C26.6955 33 25.3892 32.1217 24.8164 30.9092C24.5806 30.4099 23.9847 30.196 23.4854 30.4316C22.986 30.6675 22.7721 31.2634 23.0078 31.7627C23.9181 33.6902 25.9385 35 28.25 35C31.374 35 34 32.5878 34 29.5C34 26.4122 31.374 24 28.25 24H6C5.44772 24 5 24.4477 5 25C5 25.5523 5.44772 26 6 26H28.25C30.3727 26 32 27.6173 32 29.5Z" fill="#58B4FF"/>
</svg>
