<svg width="24" height="24" viewBox="0 0 24 24" fill="none" xmlns="http://www.w3.org/2000/svg">
<path d="M18.75 8.38782C18.75 6.53033 17.1206 4.93762 15 4.93762C14.5858 4.93762 14.25 4.60184 14.25 4.18762C14.25 3.77341 14.5858 3.43762 15 3.43762C17.8499 3.43762 20.25 5.60611 20.25 8.38782C20.2499 11.1694 17.8498 13.338 15 13.338H2.5C2.08592 13.338 1.75021 13.002 1.75 12.588C1.75 12.1738 2.08579 11.838 2.5 11.838H15C17.1206 11.838 18.7499 10.2452 18.75 8.38782Z" fill="#2491FF"/>
<path d="M12.0996 6.8877C12.0996 5.84843 11.1985 4.9375 10 4.9375C9.12397 4.9375 8.39352 5.43243 8.0752 6.10645C7.89824 6.48077 7.45159 6.64065 7.07715 6.46387C6.70269 6.28702 6.54206 5.84031 6.71875 5.46582C7.29025 4.25573 8.55634 3.4375 10 3.4375C11.9495 3.4375 13.5996 4.94462 13.5996 6.8877C13.5995 8.83067 11.9494 10.3379 10 10.3379H3.5C3.08592 10.3379 2.75021 10.0019 2.75 9.58789C2.75 9.17368 3.08579 8.83789 3.5 8.83789H10C11.1984 8.83789 12.0995 7.92688 12.0996 6.8877Z" fill="#58B4FF"/>
<path d="M16.0996 18.2998C16.0996 19.3391 15.1985 20.25 14 20.25C13.124 20.25 12.3935 19.7551 12.0752 19.0811C11.8982 18.7067 11.4516 18.5468 11.0771 18.7236C10.7027 18.9005 10.5421 19.3472 10.7188 19.7217C11.2902 20.9318 12.5563 21.75 14 21.75C15.9495 21.75 17.5996 20.2429 17.5996 18.2998C17.5995 16.3568 15.9494 14.8496 14 14.8496H3.5C3.08592 14.8496 2.75021 15.1856 2.75 15.5996C2.75 16.0138 3.08579 16.3496 3.5 16.3496H14C15.1984 16.3496 16.0995 17.2606 16.0996 18.2998Z" fill="#58B4FF"/>
</svg>
