<svg width="26" height="26" viewBox="0 0 26 26" fill="none" xmlns="http://www.w3.org/2000/svg">
<path fill-rule="evenodd" clip-rule="evenodd" d="M21.41 10.59L19.11 8.29003L22 5.42003L20.58 4.00003L17.71 6.89003L15.41 4.59003V10.59H21.41ZM8.28997 6.89003L10.59 4.59003L10.59 10.59L4.58997 10.59L6.88997 8.29003L3.99997 5.42003L5.41997 4.00003L8.28997 6.89003ZM17.71 19.11L15.41 21.41L15.41 15.41L21.41 15.41L19.11 17.71L22 20.58L20.58 22L17.71 19.11ZM6.88997 17.71L4.58997 15.41H10.59L10.59 21.41L8.28997 19.11L5.41997 22L3.99997 20.58L6.88997 17.71Z" />
</svg>
