<?xml version="1.0" encoding="utf-8"?>
<!-- Generator: Adobe Illustrator 19.0.0, SVG Export Plug-In . SVG Version: 6.00 Build 0)  -->
<svg version="1.1" id="Layer_1" xmlns="http://www.w3.org/2000/svg" xmlns:xlink="http://www.w3.org/1999/xlink" x="0px" y="0px"
   viewBox="0 0 50 50" style="enable-background:new 0 0 50 50;" xml:space="preserve"  width="50" height="50">
<style type="text/css">
  .st0{fill:#FFFFFF;}
</style>
<path class="st0" d="M25,17.3c-5.7,0-11-0.4-15-1.2c-4.8-1-7.1-2.3-7.1-4.2c0-1.9,2.3-3.2,7.1-4.2c4-0.8,9.3-1.2,15-1.2
  c5.7,0,11,0.4,15,1.2c4.8,1,7.1,2.3,7.1,4.2c0,1.9-2.3,3.2-7.1,4.2C36,16.8,30.7,17.3,25,17.3z M5.5,11.9c0.4,0.3,1.6,1.1,5.5,1.8
  c3.8,0.7,8.8,1.1,14.1,1.1c5.3,0,10.2-0.4,14.1-1.1c3.9-0.7,5.1-1.5,5.5-1.8c-0.4-0.3-1.6-1.1-5.5-1.8C35.2,9.3,30.3,8.9,25,8.9
  c-5.3,0-10.2,0.4-14.1,1.1C7.1,10.8,5.8,11.6,5.5,11.9z M25,22.7c-7.7,0-14.6-0.8-18.5-2.1l0,0c-0.6-0.2-1-0.9-0.8-1.6
  c0.2-0.6,0.9-1,1.6-0.8c3.6,1.2,10.4,2,17.7,2c7,0,13.7-0.7,17.4-1.9c0.3-0.1,0.6-0.1,0.9,0.1c0.3,0.2,0.5,0.4,0.6,0.7
  c0.1,0.3,0.1,0.6-0.1,0.9c-0.1,0.3-0.4,0.5-0.7,0.6C39.2,22,32.4,22.7,25,22.7z M25,28.2c-3.2,0-6.3-0.1-9.2-0.4
  c-0.7-0.1-1.3-0.7-1.2-1.4c0.1-0.7,0.7-1.3,1.4-1.2c2.8,0.2,5.9,0.4,9,0.4c7.5,0,14.5-0.7,18.7-1.9c0.3-0.1,0.7-0.1,1,0.1
  c0.3,0.2,0.5,0.5,0.6,0.8c0.1,0.3,0.1,0.7-0.1,1c-0.2,0.3-0.5,0.5-0.8,0.6C40,27.5,32.7,28.2,25,28.2z M22,33.1
  c-0.7,0-1.3-0.6-1.3-1.4s0.6-1.3,1.4-1.3c1.5,0,5.7,0,7,0c4.3-0.1,8.2-0.4,11.4-1c0.7-0.1,1.4,0.4,1.5,1.1c0.1,0.4,0,0.7-0.2,1
  c-0.2,0.3-0.5,0.5-0.9,0.5c-3.3,0.6-7.4,0.9-11.8,1C27.7,33.2,23.4,33.2,22,33.1z M25,38.2c-0.7,0-1.3-0.6-1.3-1.4
  c0-0.7,0.6-1.3,1.4-1.3c1.4,0,2.7,0,4.1,0c2.4,0,4.7-0.1,6.9-0.3c0.7-0.1,1.4,0.5,1.4,1.2c0,0.4-0.1,0.7-0.3,1
  c-0.2,0.3-0.6,0.4-0.9,0.5c-2.2,0.2-4.6,0.3-7.1,0.3C27.8,38.3,26.4,38.3,25,38.2z M25,43.5c-0.7,0-0.9,0-1.4,0l-0.6,0
  c-0.7,0-1.3-0.7-1.3-1.4c0-0.7,0.7-1.3,1.4-1.3l0.5,0c0.5,0,0.7,0,1.4,0c1.7,0,3.3,0,4.9,0c0.7,0,1.4,0.6,1.4,1.3
  c0,0.4-0.1,0.7-0.4,1c-0.2,0.3-0.6,0.4-0.9,0.4C28.4,43.5,26.7,43.5,25,43.5z"/>
</svg>
