<?xml version="1.0" encoding="utf-8"?>
<!-- Generator: Adobe Illustrator 19.0.0, SVG Export Plug-In . SVG Version: 6.00 Build 0)  -->
<svg version="1.1" id="Layer_1" xmlns="http://www.w3.org/2000/svg" xmlns:xlink="http://www.w3.org/1999/xlink" x="0px" y="0px"
   viewBox="0 0 50 50" style="enable-background:new 0 0 50 50;" xml:space="preserve"  width="50" height="50">
<style type="text/css">
  .st0{fill:#FFFFFF;}
</style>
<path id="XMLID_43_" class="st0" d="M25.1,14.7c-5.1,0-9.3,4.3-9.3,9.5c0,5.3,4.2,9.5,9.3,9.5s9.3-4.3,9.3-9.5S30.2,14.7,25.1,14.7z
   M25.1,35.5c-6.1,0-11-5.1-11-11.3S19,13,25.1,13s11,5.1,11,11.3C36,30.5,31.1,35.5,25.1,35.5z M25.1,49.5c-0.9,0-1.6-0.7-1.6-1.6
  v-9.2c0-0.9,0.7-1.6,1.6-1.6c0.9,0,1.6,0.7,1.6,1.6V48C26.6,48.8,25.9,49.5,25.1,49.5z M40.5,44h-0.3c-0.5,0-0.9-0.3-1-0.4l-5.9-7.1
  c-0.3-0.5-0.4-1-0.3-1.4c0.1-0.4,0.3-0.7,0.6-0.9c0.4-0.3,0.9-0.4,1.3-0.3c0.4,0.1,0.7,0.3,0.9,0.6l5.8,7c0.3,0.4,0.4,0.8,0.4,1.1
  c0,0.5-0.4,1-0.5,1.1L41.3,44L41,43.9c0,0,0,0-0.1,0C40.7,44,40.6,44,40.5,44z M9.9,44c-0.2,0-0.6,0-1.1-0.3
  c-0.7-0.7-0.8-1.4-0.3-2.1l5.9-7.1c0.6-0.6,1.3-0.7,2.2-0.3l0.1,0.1c0.7,0.7,0.8,1.6,0.2,2.2l-6.3,7.4C10.5,43.9,10.3,44,9.9,44z
   M25.1,36c-6.3,0-11.5-5.3-11.5-11.8c0-6.5,5.1-11.8,11.5-11.8c6.3,0,11.5,5.3,11.5,11.8C36.5,30.7,31.4,36,25.1,36z M25.1,15.2
  c-4.8,0-8.8,4.1-8.8,9c0,5,4,9,8.8,9c4.8,0,8.8-4.1,8.8-9C33.9,19.3,29.8,15.2,25.1,15.2z M48.4,30h-0.2L39,28.4
  c-0.4,0-0.8-0.4-0.9-0.5c-0.4-0.6-0.4-1-0.3-1.2c0-0.4,0.3-0.7,0.5-0.9c0.5-0.4,1-0.5,1.4-0.3l8.9,1.5c0,0,0,0,0,0
  c0.4,0,0.8,0.4,0.9,0.5c0.4,0.5,0.5,1,0.3,1.4C49.7,29.5,49.1,30,48.4,30z M1.9,30H1.7c-0.7,0-1.3-0.4-1.5-1.1
  c-0.2-0.3-0.1-0.8,0.1-1.1c0.2-0.4,0.6-0.7,1.1-0.8l9.2-1.6c0.4-0.1,0.8-0.1,1.2,0.2c0.3,0.2,0.6,0.5,0.7,0.9
  c0.2,0.3,0.1,0.8-0.1,1.1c-0.2,0.4-0.6,0.7-1.1,0.8L1.9,30z M37.6,18.6c-0.6,0-1.2-0.4-1.3-0.9c-0.2-0.4-0.2-0.8-0.1-1.1
  c0.1-0.4,0.4-0.7,0.8-0.9l7.9-4.6c0.7-0.4,1.6-0.2,2.1,0.5c0.4,0.7,0.3,1.6-0.4,2.1l-8.1,4.7C38.1,18.6,37.7,18.6,37.6,18.6z
   M12.6,18.6c-0.4,0-0.7-0.1-0.9-0.3l-7.8-4.6c-0.3-0.2-0.6-0.5-0.7-0.9c-0.2-0.5-0.1-0.9,0.2-1.3c0.1-0.3,0.5-0.6,0.8-0.7
  c0.4-0.1,0.9-0.2,1.4,0.2l7.8,4.6c0.3,0.2,0.6,0.5,0.7,0.9c0.1,0.4,0.2,0.9-0.2,1.4l-0.3,0.3c0,0-0.1,0-0.1,0.1
  C13.4,18.4,13.1,18.6,12.6,18.6z M30,12.3l-0.4,0c-0.4-0.1-0.7-0.4-0.9-0.6l-0.1-0.1l0-0.1c-0.1-0.3-0.2-0.7-0.1-1.2l3.2-8.8
  c0.1-0.2,0.3-0.6,0.7-0.8c0.3-0.1,0.7-0.2,1.2-0.1c0.3,0.1,0.7,0.3,0.9,0.8c0.1,0.3,0.2,0.7,0.1,1.2l-3.1,8.6
  C31.4,11.7,30.9,12.3,30,12.3z M20.5,12.3h-0.4c-0.6,0-1.1-0.4-1.4-1l-3.3-8.7c-0.2-0.5-0.1-0.9,0.1-1.3c0.2-0.4,0.6-0.7,0.8-0.8
  c0.9-0.3,1.8,0.3,2,0.9l3.1,8.6c0.1,0.4,0.1,0.8-0.1,1.2C21.5,11.8,21.1,12.1,20.5,12.3L20.5,12.3z"/>
</svg>
