<?xml version="1.0" encoding="utf-8"?>
<!-- Generator: Adobe Illustrator 19.0.0, SVG Export Plug-In . SVG Version: 6.00 Build 0)  -->
<svg version="1.1" id="Layer_1" xmlns="http://www.w3.org/2000/svg" xmlns:xlink="http://www.w3.org/1999/xlink" x="0px" y="0px"
   viewBox="0 0 50 50" style="enable-background:new 0 0 50 50;" xml:space="preserve"  width="50" height="50">
<style type="text/css">
  .st0{fill:#FFFFFF;}
</style>
<path id="XMLID_30_" class="st0" d="M21.6,47.4c-2.3,0-4.1-1.8-4.1-4.2c0-1.8,1.7-4.4,3.1-6.3l0.9-1.3l1,1.2c0,0,3.3,3.9,3.3,6.4
  C25.7,45.7,24,47.4,21.6,47.4z M21.6,39.6c-1,1.5-1.8,3-1.8,3.6c0,1.1,0.7,1.9,1.8,1.9c1.1,0,1.8-0.7,1.8-1.9
  C23.3,42.6,22.6,41.1,21.6,39.6z M32.2,43c-0.6,0-1.2-0.6-1.2-1.2v-2.8l-2.4,1.4c-0.3,0.2-0.5,0.2-0.6,0.2c-0.4,0-0.8-0.2-1-0.6
  c-0.2-0.2-0.2-0.5-0.1-0.8c0.1-0.3,0.3-0.5,0.5-0.7l2.5-1.5l-2.4-1.4c-0.3-0.1-0.5-0.3-0.6-0.6c-0.1-0.3-0.1-0.7,0.1-1
  c0.1-0.3,0.3-0.5,0.6-0.6c0.3-0.1,0.7-0.1,1,0.1L31,35v-2.8c0-0.6,0.6-1.2,1.2-1.2s1.2,0.6,1.2,1.2V35l2.4-1.4
  c0.2-0.2,0.5-0.2,0.8-0.2c0.3,0.1,0.6,0.3,0.8,0.5c0.2,0.3,0.2,0.6,0.2,0.9c-0.1,0.3-0.3,0.5-0.5,0.7l-2.5,1.5l2.4,1.4
  c0.3,0.1,0.5,0.3,0.6,0.6c0.1,0.3,0.1,0.7-0.1,1c-0.2,0.3-0.5,0.6-1,0.6c-0.1,0-0.4,0-0.6-0.2l-2.4-1.4v2.8
  C33.3,42.5,32.8,43,32.2,43z M15.2,36.9c-0.6,0-1.1-0.5-1.1-1.1v-1.1l-0.9,0.6c-0.4,0.2-1,0.1-1.4-0.3l-0.1-0.2
  c-0.3-0.5-0.1-1.1,0.4-1.4l1-0.6l-1-0.6c-0.4-0.2-0.6-0.8-0.5-1.4c0.3-0.5,0.9-0.8,1.4-0.6l0.1,0l1,0.6v-1.1c0-0.6,0.5-1.1,1.1-1.1
  s1.1,0.5,1.1,1.1v1.1l1-0.6c0.6-0.3,1.1-0.1,1.5,0.4c0.3,0.6,0.1,1.2-0.4,1.5l-1.1,0.6l1,0.6c0.4,0.2,0.6,0.8,0.5,1.4
  c-0.3,0.5-0.9,0.8-1.4,0.6l-0.1,0l-1-0.6v1.1C16.3,36.4,15.8,36.9,15.2,36.9z M39.1,32.2c-0.6,0-1.2-0.6-1.2-1.2s0.6-1.2,1.2-1.2
  c4.4,0,8-3.6,8-8c0-4.4-3.6-8-8-8c-0.9,0-1.7,0.1-2.5,0.4l-1.1,0.4l-0.4-1.1c-1.8-4.9-6.4-8.2-11.6-8.2c-6.3,0-11.6,4.8-12.3,11.1
  l-0.2,1.2l-1.2-0.2c-0.1,0-0.3,0-0.4,0c-0.1,0-0.2,0-0.3,0c-3.5,0-6.3,2.8-6.3,6.3s2.8,6.3,6.3,6.3c0.6,0,1.2,0.6,1.2,1.2
  c0,0.6-0.6,1.2-1.2,1.2c-4.8,0-8.7-3.9-8.7-8.7c0-4.8,3.9-8.7,8.6-8.7c1.2-7,7.3-12.1,14.5-12.1c5.9,0,11.1,3.4,13.5,8.8
  c0.7-0.1,1.4-0.2,2.1-0.2c5.8,0,10.5,4.7,10.5,10.5C49.5,27.5,44.8,32.2,39.1,32.2z M24.9,31.6c-2,0-3.4-1.4-3.4-3.4
  c0-1.4,1.3-3.4,2.3-4.8l1-1.2l0.1,0.1l0,0l0.9,1.1c0.1,0.1,2.1,2.7,2.4,4.4c0,0.1,0,0.3,0,0.4v0c0,0,0,0,0,0l0,0c0,0,0,0,0,0l0,0
  c0,0,0,0,0,0c0,0,0,0,0,0c0,0,0,0,0,0c0,0,0,0,0,0c0,0,0,0,0,0l0,0c0,0,0,0,0,0C28.2,30.1,26.8,31.6,24.9,31.6z M24.9,25.9
  c-0.7,1.1-1.1,1.9-1.1,2.2c0,0.7,0.4,1.1,1.1,1.1c0.7,0,1.1-0.4,1.1-1.1C26,27.8,25.6,27,24.9,25.9z"/>
</svg>
