<?xml version="1.0" encoding="utf-8"?>
<!-- Generator: Adobe Illustrator 19.0.0, SVG Export Plug-In . SVG Version: 6.00 Build 0)  -->
<svg version="1.1" id="Layer_1" xmlns="http://www.w3.org/2000/svg" xmlns:xlink="http://www.w3.org/1999/xlink" x="0px" y="0px"
   viewBox="0 0 50 50" style="enable-background:new 0 0 50 50;" xml:space="preserve"  width="50" height="50">
<style type="text/css">
  .st0{fill:#FFFFFF;}
</style>
<path id="XMLID_27_" class="st0" d="M34.2,39.9c-0.8,1-1.9,2.9-1.9,3.8c0,1.2,0.8,2,1.9,2c1.2,0,1.9-0.8,1.9-2
  C36.1,42.6,35,40.9,34.2,39.9z M14.3,35.4c-0.7,1-1.6,2.3-1.6,3c0,1,0.6,1.6,1.6,1.6s1.6-0.7,1.6-1.6C15.9,37.8,15,36.4,14.3,35.4z
   M20.2,29.1H25l-1,10.2l5.6-11.4h-5.8l3.9-12.8h-5.5L20.2,29.1z M21.5,48.8l1-17.7h-4.9L20.3,13H31l-4.5,12.4H33L21.5,48.8z
   M34.2,48c-2.3,0-4.1-1.8-4.1-4.2c0-1.7,1.7-4.3,3.1-6.2l1-1.2l1,1.2c1.4,1.9,3.1,4.5,3.1,6.2C38.3,46.3,36.6,48,34.2,48z M14.3,42
  c-2,0-3.4-1.5-3.4-3.4c0-1.5,1.4-3.4,2.1-4.5c0.1-0.2,0.3-0.4,0.3-0.4l0.1-0.1l0.9-1.2l1.1,1.4c1,1.4,2.3,3.4,2.3,4.8
  C17.7,40.5,16.3,42,14.3,42z M39.2,30h-3c-0.7,0-1.3-0.6-1.3-1.3s0.6-1.3,1.3-1.3h3c4.4,0,7.9-3.6,7.9-7.9s-3.6-7.9-7.9-7.9
  c-0.9,0-1.7,0.1-2.4,0.4l-1.2,0.4l-0.4-1.2c-1.7-4.9-6.3-8.2-11.5-8.2c-6.3,0-11.5,4.7-12.2,11l-0.2,1.3L9.9,15
  C9.7,15,9.5,15,9.2,15C5.8,15,3,17.7,3,21.1s2.8,6.2,6.2,6.2h3.1c0.7,0,1.3,0.6,1.3,1.3c0,0.7-0.6,1.3-1.3,1.3H9.1
  c-4.9,0-8.8-4-8.8-8.8c0-4.8,3.9-8.7,8.6-8.8c1.3-6.9,7.5-12.1,14.6-12.1c5.8,0,11.1,3.5,13.5,8.8c0.7-0.1,1.4-0.2,2-0.2
  c5.8,0,10.6,4.7,10.6,10.6C49.7,25.2,45,30,39.2,30z"/>
</svg>
