<?xml version="1.0" encoding="utf-8"?>
<!-- Generator: Adobe Illustrator 19.0.0, SVG Export Plug-In . SVG Version: 6.00 Build 0)  -->
<svg version="1.1" id="Layer_1" xmlns="http://www.w3.org/2000/svg" xmlns:xlink="http://www.w3.org/1999/xlink" x="0px" y="0px"
   viewBox="0 0 50 50" style="enable-background:new 0 0 50 50;" xml:space="preserve"  width="50" height="50">
<style type="text/css">
  .st0{fill:#FFFFFF;}
</style>
<path id="XMLID_31_" class="st0" d="M32.9,39.6H7.6c-4.1,0-7.4-3.3-7.4-7.4c0-4.1,3.3-7.4,7.3-7.4c1-5.8,6.2-10.2,12.3-10.2
  c5,0,9.5,3,11.3,7.4c0.6-0.1,1.1-0.2,1.7-0.2c4.9,0,8.9,4,8.9,8.9C41.7,35.6,37.8,39.6,32.9,39.6z M7.9,26.9
  C7.9,26.9,7.9,26.9,7.9,26.9L7.7,27l-0.2,0c-2.9,0-5.2,2.4-5.2,5.2c0,2.9,2.4,5.2,5.2,5.2H33c3.7,0,6.7-3,6.7-6.7
  c0-3.7-3-6.7-6.7-6.7c-0.7,0-1.4,0.1-2,0.3l-1,0.4l-0.4-1c-1.5-4.1-5.4-6.9-9.7-6.9c-5.3,0-9.7,4-10.3,9.3l-0.2,1.1L8.2,27
  C8.1,26.9,8,26.9,7.9,26.9z M44.1,29.3h-0.9c-0.6,0-1.1-0.5-1.1-1.1s0.5-1.1,1.1-1.1h0.9c1.9,0,3.5-1.6,3.5-3.5
  c0-1.9-1.5-3.5-3.5-3.5h-0.4l-1,0.2l-0.2-1.2c-0.4-3.7-3.5-6.5-7.1-6.5c-2.5,0-4.8,1.3-6.1,3.5c-0.2,0.5-1,0.6-1.5,0.4
  c-0.5-0.3-0.7-1-0.5-1.5c1.7-2.8,4.8-4.6,8.1-4.6c4.5,0,8.3,3.1,9.2,7.4c3,0.2,5.3,2.7,5.3,5.7C49.8,26.7,47.3,29.3,44.1,29.3z"/>
</svg>
