<?xml version="1.0" encoding="utf-8"?>
<!-- Generator: Adobe Illustrator 19.0.0, SVG Export Plug-In . SVG Version: 6.00 Build 0)  -->
<svg version="1.1" id="Layer_1" xmlns="http://www.w3.org/2000/svg" xmlns:xlink="http://www.w3.org/1999/xlink" x="0px" y="0px"
   viewBox="0 0 50 50" style="enable-background:new 0 0 50 50;" xml:space="preserve"  width="50" height="50">
<style type="text/css">
  .st0{fill:#FFFFFF;}
</style>
<path class="st0" d="M12.8,10.1c0.9,0.7,0.9,2.4,0.9,3.2c0,0.4,0.1,0.8,0.3,1.4l0.3,1c0.3,1.3,0.7,2.8,0.7,5c0,2,0.3,4.8,0.6,7.5
  l0.1,0.7c0.3,2.5,0.5,4.9,0.5,6.6c0,0.7,0,1.3,0,1.8c0-0.6,0.1-1.2,0.2-1.8c0.1-1.2,0.2-2.5,0.2-3.5c0-1,0.1-2,0.3-3.3l0.1-0.7
  c0.2-1.5,0.4-3.1,0.4-5.2c0-4.6,0-6.5,1.7-6.5c2.3,0,2.3,3.2,2.3,4.7c0,0.7,0.2,1.8,0.4,2.9c0.1,0.3,0.1,0.6,0.2,0.9
  c0-0.7,0.1-1.4,0.2-2c0.1-1,0.2-2,0.2-3.2v-6.1c0-2.2,1.3-3,2.6-3c0.4,0,0.6-0.2,1-0.5l0.2-0.1c0.5-0.3,1.1-0.7,2.1-0.6
  c0.8,0,1.9,0.8,1.9,4.6c0,0.6,0.1,1.3,0.3,2.1l0.1,0.4c0.2,1.2,0.5,2.7,0.5,4.5c0,1.7,0.1,3.5,0.3,5.1l0,0.3
  c0.1,1.7,0.2,3.3,0.2,4.6c0,1.2,0.2,2.1,0.4,3.1l0.1,0.6c0,0.2,0.1,0.5,0.1,0.7c0.2,0.8,0.4,1.6,0.4,2.5c0,0.3,0,0.6,0,0.9
  c0-0.2,0-0.4,0-0.7c0-0.7,0.1-1.4,0.1-2.1c0.1-1.7,0.1-3.5,0.1-5.3c0-1.7,0.3-3.1,0.6-4.7l0.2-1c0.3-1.5,0.5-3,0.5-4.7
  c0-1.7,0.1-9.9,2.8-9.9c2.3,0,2.8,3,2.8,7.4c0,2.7,0.2,5,0.4,7.2c0.2,1.8,0.3,3.5,0.3,5.1c0,1.6,0.3,4.4,0.6,7.3
  c0.1,1.1,0.2,2.1,0.3,3c0.1-1.4,0.2-2.5,0.3-3.6c0.2-1.8,0.3-3.3,0.3-5.2c0-2.8,0.2-5.2,0.4-7.5c0.2-2.4,0.4-4.6,0.4-7
  c0-5.5,2.4-15.2,2.4-15.3l0.1-0.6l2,0.4v0.5c0,0.1,0,0.1-0.1,0.6c-1.8,8.1-2.2,12.3-2.2,14.3c0,2.8-0.2,5.3-0.4,7.3
  c-0.2,2.2-0.4,4.6-0.4,7.2c0,1.4-0.1,2.7-0.2,3.9c0,0.5-0.1,1-0.1,1.6c-0.2,1.7-0.4,3.8-0.4,6.5c-0.4,4.7-1.3,5.3-2.2,5.3
  c-2,0-2-2.1-2-4.7c0-0.8-0.1-2-0.2-3.5c-0.1-0.9-0.2-1.9-0.3-3c-0.3-2.9-0.6-5.8-0.6-7.5c0-0.8-0.1-1.8-0.2-2.9
  c-0.1-0.6-0.1-1.3-0.1-2c-0.2-2.3-0.4-4.8-0.4-7.4c0-2.8-0.3-4.1-0.5-4.7c-0.3,1.2-0.7,3.9-0.7,7.2c0,2.4-0.3,4.3-0.7,5.9l-0.1,0.5
  c-0.3,1.4-0.5,2.6-0.5,4c0,1,0,1.9-0.1,2.9c0,0.9,0,1.7,0,2.5c-0.1,1.4-0.1,2.7-0.1,3.9c0,2,0,4.8-2.1,4.8c-2.1,0-2.3-4.8-2.3-6.9
  c0-0.9-0.2-1.6-0.3-2.5l-0.1-0.3c-0.3-1.1-0.6-2.5-0.6-4.2c0-1.3-0.1-2.7-0.2-4.3l0-0.5c0-0.6-0.1-1.2-0.1-1.8
  c-0.1-1.2-0.2-2.4-0.2-3.5c0-1.6-0.2-3-0.4-4.1l-0.1-0.4c-0.2-0.9-0.3-1.8-0.3-2.5c0-1.3-0.2-2-0.3-2.4c-0.1,0-0.2,0.1-0.4,0.3
  L27,11.7c-0.5,0.3-1,0.6-1.9,0.7c-0.3,0-0.5,0-0.5,0.8v6.1c0,1.4-0.1,2.5-0.2,3.5c-0.1,1.1-0.2,2.2-0.2,3.8c0,1.8,0,4.3-1.8,4.3
  c-1.2,0-2.4-1.2-2.4-4c0-0.7-0.2-1.5-0.3-2.5l-0.1-0.3c0-0.1,0-0.1,0-0.2c-0.1,1.7-0.3,3.2-0.4,4.4l-0.1,0.6c0,0.5-0.1,0.9-0.1,1.3
  c-0.1,0.6-0.1,1.2-0.1,1.7c0,1.1-0.1,2.5-0.2,3.7c0,0.4-0.1,0.9-0.1,1.3c-0.1,1-0.2,2-0.2,3c0,3.3-0.9,5.2-2.4,5.2
  c-1.2,0-1.9-0.5-1.9-9.8c0-1.7-0.3-4.3-0.6-7c-0.3-3.1-0.6-5.8-0.6-7.8c0-1.2-0.1-2.3-0.3-3.2c-0.1,0.5-0.1,1-0.2,1.5l-0.1,0.5
  c-0.2,1.2-0.4,2.8-0.4,5.4c0,2.7-0.1,3.7-0.2,4.6c-0.1,0.7-0.1,1.1-0.1,2.4c0,2.7-0.7,4.2-2,4.2c-2.2,0-2.3-5.9-2.3-6
  c0-1.5-0.1-2.8-0.2-4.1c0-0.5-0.1-1.1-0.1-1.6c-0.3-1.2-0.5-2.6-0.5-4.3c0-2-0.2-3.2-0.4-4.2l-0.1-0.4c-0.2-0.9-0.3-1.6-0.3-2.5
  c0-2-1.6-7.3-1.9-7.8c-0.5-0.7-0.8-2.5-0.8-3V1.6L5,1.4L5.1,2C5.2,3,5.4,3.7,5.5,3.9c0.6,0.9,2.2,6.8,2.2,9.1c0,0.6,0.1,1.3,0.3,1.9
  c0.3,1.3,0.6,2.7,0.6,5.2c0,1.4,0.1,2.7,0.3,4.2c0.2,1.5,0.3,3.2,0.3,5.1l0-0.1c0.1-0.8,0.2-1.8,0.2-4.3c0-2.9,0.3-4.7,0.5-5.9
  l0-0.3c0.2-0.9,0.3-1.7,0.3-2.8c0-3.9,0-6.1,1.7-6.1c0.3,0,0.5,0.1,0.7,0.2"/>
</svg>
