<?xml version="1.0" encoding="utf-8"?>
<!-- Generator: Adobe Illustrator 19.0.0, SVG Export Plug-In . SVG Version: 6.00 Build 0)  -->
<svg version="1.1" id="Layer_1" xmlns="http://www.w3.org/2000/svg" xmlns:xlink="http://www.w3.org/1999/xlink" x="0px" y="0px"
   viewBox="0 0 50 50" style="enable-background:new 0 0 50 50;" xml:space="preserve"  width="50" height="50">
<style type="text/css">
  .st0{fill:#FFFFFF;}
</style>
<path id="XMLID_35_" class="st0" d="M28.2,47.1c-0.6,0-1.2-0.6-1.2-1.2v-5.3c0-0.6,0.6-1.2,1.2-1.2s1.2,0.6,1.2,1.2v5.3
  C29.4,46.6,28.8,47.1,28.2,47.1z M18,47.1c-0.6,0-1.2-0.6-1.2-1.2v-5.3c0-0.6,0.6-1.2,1.2-1.2s1.2,0.6,1.2,1.2v5.3
  C19.2,46.6,18.6,47.1,18,47.1z M33.4,41.9c-0.7,0-1.2-0.5-1.2-1.2v-5.3c0-0.6,0.6-1.2,1.2-1.2s1.2,0.6,1.2,1.2v5.3
  C34.6,41.3,34,41.9,33.4,41.9z M23.1,41.9c-0.7,0-1.2-0.5-1.2-1.2v-5.3c0-0.6,0.6-1.2,1.2-1.2s1.2,0.6,1.2,1.2v5.3
  C24.3,41.3,23.7,41.9,23.1,41.9z M12.6,41.9c-0.7,0-1.2-0.5-1.2-1.2v-5.3c0-0.6,0.6-1.2,1.2-1.2c0.6,0,1.2,0.6,1.2,1.2v5.3
  C13.8,41.3,13.2,41.9,12.6,41.9z M39.3,32.5H9c-4.9,0-8.8-3.9-8.8-8.7s3.9-8.7,8.7-8.7C10.1,8,16.2,2.9,23.5,2.9
  c5.9,0,11.2,3.4,13.6,8.8c0.7-0.1,1.4-0.2,2.1-0.2c5.8,0,10.6,4.7,10.6,10.5C49.7,27.8,45,32.5,39.3,32.5z M9.8,17.4H9
  c-3.6,0-6.3,2.8-6.3,6.3S5.5,30,9,30h30.3c4.6,0,8.1-3.6,8.1-8.1c0-4.4-3.7-8.1-8.1-8.1c-0.9,0-1.7,0.1-2.5,0.4l-1.2,0.4l-0.4-1.2
  c-1.7-4.9-6.4-8.2-11.7-8.2c-6.4,0-11.7,4.8-12.4,11.1l-0.2,1.2L9.8,17.4z"/>
</svg>
