<?xml version="1.0" encoding="utf-8"?>
<!-- Generator: Adobe Illustrator 19.0.0, SVG Export Plug-In . SVG Version: 6.00 Build 0)  -->
<svg version="1.1" id="Layer_1" xmlns="http://www.w3.org/2000/svg" xmlns:xlink="http://www.w3.org/1999/xlink" x="0px" y="0px"
   viewBox="0 0 50 50" style="enable-background:new 0 0 50 50;" xml:space="preserve"  width="50" height="50">
<style type="text/css">
  .st0{fill:#FFFFFF;}
</style>
<path class="st0" d="M25,49.5c-5.1,0-9-4-9-9c0-3.3,1.8-6.3,4.8-7.9v-28c0-2.3,1.8-4.2,4.2-4.2c2.3,0,4.2,1.8,4.2,4.2v27.9
  c3,1.5,4.8,4.5,4.8,7.9C34,45.6,30.1,49.5,25,49.5z M24.9,3.2c-0.8,0-1.4,0.6-1.4,1.4v29.7l-1.2,0.6c-2.2,1-3.5,3.2-3.5,5.6
  c0,3.4,2.8,6.2,6.2,6.2c1.7,0,3.3-0.7,4.4-2c1.1-1.2,1.6-2.7,1.5-4.2c0-2.5-1.3-4.6-3.5-5.6l-1.2-0.6V4.6
  C26.3,3.8,25.7,3.2,24.9,3.2z M25.4,36.2c2.2,0.1,3.8,2,3.8,4.1c0,2.5-1.9,4.4-4.4,4.4s-4.4-1.9-4.4-4.4c0-2.2,1.6-4,3.8-4.2"/>
</svg>
