<?xml version="1.0" encoding="utf-8"?>
<!-- Generator: Adobe Illustrator 19.0.0, SVG Export Plug-In . SVG Version: 6.00 Build 0)  -->
<svg version="1.1" id="Layer_1" xmlns="http://www.w3.org/2000/svg" xmlns:xlink="http://www.w3.org/1999/xlink" x="0px" y="0px"
   viewBox="0 0 50 50" style="enable-background:new 0 0 50 50;" xml:space="preserve"  width="50" height="50">
<style type="text/css">
  .st0{fill:#FFFFFF;}
</style>
<path id="XMLID_56_" class="st0" d="M25,49.9l-3.4-11.2c0,0-0.1,0-0.1,0c0,0-0.1,0-0.2,0l-8.6,7.9L15.3,35L15,34.8L3.6,37.4l7.9-8.6
  c0-0.1,0-0.1-0.1-0.2c0,0,0-0.1,0-0.1L0.1,25l11.2-3.5c0,0,0-0.1,0-0.1c0,0,0-0.1,0-0.2l-7.9-8.6l11.5,2.6l0.3-0.3L12.6,3.6l8.6,7.9
  c0.1,0,0.1,0,0.2-0.1c0,0,0.1,0,0.1,0L25,0.1l3.5,11.2c0.1,0,0.2,0,0.3,0.1l8.6-7.9l-2.6,11.5l0.3,0.3l11.5-2.6l-8,8.6
  c0,0,0,0.1,0,0.1c0,0.1,0,0.1,0,0.2L49.9,25l-11.2,3.5c0,0,0,0.1,0,0.1c0,0,0,0.1,0,0.2l7.9,8.6l-11.4-2.6C35,34.9,34.9,35,34.8,35
  l2.6,11.4l-8.6-7.9c-0.1,0-0.1,0-0.2,0.1c0,0-0.1,0-0.1,0L25,49.9z M24,39.3l1,3.3l1-3.3C25.3,39.4,24.6,39.4,24,39.3z M17,36.9
  l-0.8,3.5l2.6-2.4l-0.2-0.1C18.1,37.5,17.5,37.2,17,36.9z M31.2,37.8l2.6,2.4L33,36.7C32.4,37.1,31.8,37.5,31.2,37.8z M25,13.1
  c-6.6,0-11.9,5.3-11.9,11.9S18.4,36.9,25,36.9S36.9,31.6,36.9,25S31.6,13.1,25,13.1z M12.2,31.2l-2.4,2.6l3.5-0.8
  C12.9,32.5,12.5,31.9,12.2,31.2z M36.8,33l3.5,0.8l-2.4-2.6C37.5,31.8,37.2,32.4,36.8,33z M7.4,25l3.3,1c0-0.7,0-1.4,0-2.1L7.4,25z
   M39.3,23.9c0,0.7,0,1.4,0,2.1l3.3-1L39.3,23.9z M9.7,16.2l2.4,2.6c0.3-0.6,0.7-1.2,1.1-1.8L9.7,16.2z M36.8,17
  c0.4,0.5,0.8,1.1,1.1,1.8l2.4-2.6L36.8,17z M31.2,12.1c0.6,0.3,1.2,0.7,1.8,1.1l0.8-3.5L31.2,12.1z M16.2,9.7l0.8,3.5
  c0.6-0.4,1.2-0.8,1.8-1.1L16.2,9.7z M25,7.4l-1,3.3c0.7,0,1.4,0,2,0L25,7.4z"/>
</svg>
