<?xml version="1.0" encoding="utf-8"?>
<!-- Generator: Adobe Illustrator 19.0.0, SVG Export Plug-In . SVG Version: 6.00 Build 0)  -->
<svg version="1.1" id="Layer_1" xmlns="http://www.w3.org/2000/svg" xmlns:xlink="http://www.w3.org/1999/xlink" x="0px" y="0px"
   viewBox="0 0 50 50" style="enable-background:new 0 0 50 50;" xml:space="preserve"  width="50" height="50">
<style type="text/css">
  .st0{fill:#FFFFFF;}
</style>
<path id="XMLID_33_" class="st0" d="M26.4,35.9c-10.1,0-18.3-4.5-18.3-10c0-2.3,1.6-4.5,4.6-6c2.7-1.4,6.4-2.2,10.2-2.2
  c6.8,0,12.1,3,12.1,6.9c0,2.6-3,4.8-7.2,5.5c6.3-0.3,11.5-2.9,11.5-5.9c0-4.3-7.2-7.7-16-7.7c-11.2,0-20.6,4.5-20.6,9.8
  c0,0.6-0.5,1.1-1.1,1.1s-1.1-0.5-1.1-1.1c0-6.7,10.3-12.1,22.9-12.1c10.1,0,18.3,4.5,18.3,10c0,4.6-6.6,8.2-15.1,8.2
  c-6.8,0-12.1-3-12.1-6.9c0-2.6,3-4.8,7.1-5.5c-3,0.2-5.8,0.8-7.8,1.9c-2.2,1.1-3.4,2.5-3.4,4c0,4.3,7.2,7.7,16,7.7
  c11.2,0,20.6-4.5,20.6-9.8c0-0.6,0.5-1.1,1.1-1.1c0.6,0,1.1,0.5,1.1,1.1C49.3,30.4,39.1,35.9,26.4,35.9z M20.5,24.3
  c-0.7,0.3-1.1,0.8-1.1,1.1c0,0.7,0.9,1.3,1.4,1.6c0.2,0.1,0.5,0.2,0.7,0.3c-0.8-0.6-1.2-1.4-1.2-2.2C20.3,24.8,20.4,24.6,20.5,24.3z
   M28.2,22.6c0.7,0.6,1.1,1.3,1.1,2.2c0,0.3-0.1,0.6-0.2,0.9c0.8-0.4,1.3-0.8,1.3-1.2C30.5,23.9,29.6,23.1,28.2,22.6z M32.4,23.1
  c0.2,0.4,0.4,0.9,0.4,1.4c0,0.4-0.1,0.7-0.2,1c0.3-0.3,0.4-0.7,0.4-1C32.9,24.1,32.7,23.6,32.4,23.1z M22.9,25
  c0.2,0.2,0.9,0.5,1.9,0.5c1.2,0,2-0.4,2.3-0.6c-0.2-0.2-0.9-0.5-1.9-0.5C24,24.4,23.2,24.8,22.9,25z"/>
</svg>
