<?xml version="1.0" encoding="utf-8"?>
<!-- Generator: Adobe Illustrator 19.0.0, SVG Export Plug-In . SVG Version: 6.00 Build 0)  -->
<svg version="1.1" id="Layer_1" xmlns="http://www.w3.org/2000/svg" xmlns:xlink="http://www.w3.org/1999/xlink" x="0px" y="0px"
   viewBox="0 0 50 50" style="enable-background:new 0 0 50 50;" xml:space="preserve"  width="50" height="50">
<style type="text/css">
  .st0{fill:#FFFFFF;}
</style>
<path id="XMLID_37_" class="st0" d="M41.6,42.7c-0.1,0-0.1,0-0.2,0l-22.9,0c-3.8,0-6.8-3.1-6.8-6.8c0-3.7,2.9-6.7,6.6-6.8
  c1.1-5.4,5.7-9.2,11.2-9.2c4.5,0,8.5,2.6,10.4,6.7c0.5-0.1,1-0.1,1.5-0.1c4.5,0,8.2,3.7,8.2,8.2c0,2.2-0.9,4.3-2.5,5.8
  C45.6,41.9,43.7,42.7,41.6,42.7z M18.3,31.2c-2.5,0.1-4.5,2.1-4.5,4.7c0,2.6,2.1,4.7,4.7,4.7h22.8c3.3,0,5.9-2.7,5.9-5.9
  c0-3.3-2.7-6-5.9-6c-0.5,0-1.2,0.1-1.8,0.3L38.6,29l-0.4-0.8c-1.3-3.7-4.8-6.2-8.7-6.2c-4.8,0-8.7,3.6-9.2,8.3l0,1.2l-1.2-0.2
  C18.8,31.3,18.6,31.3,18.3,31.2z M7,36.8c-0.1,0-0.5,0-0.7-0.3c-0.5-0.5-0.5-1.2-0.1-1.6l4-4.8c0.5-0.5,1.2-0.6,1.6-0.1
  c0.5,0.5,0.5,1.2,0.1,1.6l-3.9,4.7C7.6,36.8,7.2,36.8,7,36.8z M13.6,30.2c-0.1,0-0.4,0-0.7-0.2c-2.1-1.5-3.4-4-3.4-6.6
  c0-4.4,3.5-7.9,7.8-7.9c2.8,0,5.4,1.5,6.7,3.9c0.1,0.3,0.2,0.6,0.1,0.8c-0.1,0.3-0.3,0.5-0.5,0.6c-0.2,0.1-0.5,0.1-0.8,0
  c-0.3-0.1-0.5-0.3-0.6-0.5c-1-1.7-2.9-2.8-4.8-2.8c-3.2,0-5.6,2.5-5.6,5.7c0,2,0.9,3.7,2.5,4.8l0.1,0.1c0.4,0.4,0.5,0.9,0.2,1.4l0,0
  C14.3,30,14,30.2,13.6,30.2z M1.7,27.4l-0.1,0c-0.5,0-0.9-0.4-1.1-0.9l0-0.2c0-0.6,0.4-1.1,1-1.1l6.2-1c0.6,0,1.1,0.4,1.1,1
  c0,0.6-0.4,1.1-1,1.1L1.7,27.4z M8.8,19.7H8.6l-0.3-0.2L3,16.4c-0.2-0.1-0.4-0.3-0.5-0.5c-0.1-0.3-0.1-0.6,0-0.9
  c0.3-0.5,0.9-0.7,1.4-0.5l5.4,3.1c0.2,0.1,0.4,0.3,0.5,0.5c0.1,0.3,0.1,0.6,0,0.9l0,0C9.6,19.5,9.3,19.7,8.8,19.7z M25.8,19.7
  c-0.1,0-0.2,0-0.4-0.1c-0.2,0-0.6-0.1-0.8-0.5c-0.3-0.5,0-1.2,0.5-1.4l5.5-3.1c0.5-0.3,1.2,0,1.5,0.5c0.3,0.5,0,1.2-0.5,1.4
  l-5.3,3.1C26.2,19.7,26,19.7,25.8,19.7z M20.6,15.4h-0.3l-0.1-0.1c-0.5-0.2-0.8-0.9-0.6-1.4l2.1-5.8c0.2-0.3,0.4-0.6,0.7-0.7
  c0.2-0.1,0.5-0.1,0.7,0c0.5,0.2,0.9,0.9,0.6,1.4l-2.1,5.7C21.5,15.1,21.1,15.4,20.6,15.4z M14.3,15.4h-0.3c-0.4,0-0.7-0.2-1-0.6
  l-2.2-5.9c-0.1-0.2-0.1-0.5,0-0.8c0.1-0.3,0.4-0.5,0.7-0.6c0.5-0.2,1.1,0.1,1.4,0.6L15,14c0.2,0.5-0.1,1.1-0.6,1.4L14.3,15.4z"/>
</svg>
