<?xml version="1.0" encoding="utf-8"?>
<!-- Generator: Adobe Illustrator 19.0.0, SVG Export Plug-In . SVG Version: 6.00 Build 0)  -->
<svg version="1.1" id="Layer_1" xmlns="http://www.w3.org/2000/svg" xmlns:xlink="http://www.w3.org/1999/xlink" x="0px" y="0px"
   viewBox="0 0 50 50" style="enable-background:new 0 0 50 50;" xml:space="preserve"  width="50" height="50">
<style type="text/css">
  .st0{fill:#FFFFFF;}
</style>
<path class="st0" d="M45.2,31.1c0-1.3-0.5-2.5-1.5-3.5c-0.8-0.8-1.8-1.2-2.9-1.3c-0.8-3.5-3.9-6-7.6-6c-2.7,0-5.2,1.4-6.6,3.7
  c-0.2,0.3-0.2,0.6-0.1,0.8s0.2,0.5,0.5,0.7s0.5,0.2,0.8,0.1c0.3-0.1,0.5-0.2,0.7-0.5c1-1.7,2.8-2.7,4.7-2.7c2.9,0,5.3,2.1,5.5,5
  l0.1,1.1l1.1-0.1c0.1,0,0.2,0,0.3,0c1.4,0,2.6,1.2,2.6,2.6s-1.2,2.6-2.6,2.6h-0.7c-0.6,0-1.1,0.5-1.1,1.1s0.5,1.1,1.1,1.1h0.7
  C43.1,35.9,45.2,33.7,45.2,31.1z M38.7,36.8c0-4.1-3.3-7.4-7.4-7.4c-0.4,0-0.8,0-1.2,0.1c-1.7-3.6-5.4-5.9-9.3-5.9
  c-5,0-9.1,3.4-10.1,8.2C7.4,32,4.8,34.7,4.8,38c0,3.4,2.8,6.2,6.2,6.2h20.3C35.4,44.2,38.7,40.9,38.7,36.8z M11.5,34l1.1,0.1
  l0.1-1.1c0.4-4.1,3.9-7.3,8-7.3c3.4,0,6.5,2.2,7.6,5.4l0.4,1l1-0.3c0.5-0.2,1-0.2,1.6-0.2c2.9,0,5.2,2.3,5.2,5.2S34.2,42,31.3,42H11
  c-2.2,0-4-1.8-4-4c0-2.2,1.8-4,4-4C11.1,34,11.3,34,11.5,34z M12.8,26.4l0.3-0.1l0.2-0.2c0-0.1,0.2-0.1,0.2-0.2l0.2-0.3l0.2-0.2
  l0.1-0.2l-0.5-0.4c-1.2-1-2.1-2.1-2.7-3.4c1.8,1,3.9,1.6,6,1.6c3.9,0,7.4-1.8,9.8-4.8c1.3-1.8,2.2-3.8,2.4-5.9
  c1.2,2.3,1.5,4.7,0.7,7.2L29.4,20l0.1,0.1l0.5,0.2l0.3,0.1l0.4,0l0.4,0l0.3-0.1l0.3-0.1c1.4-4.3,0.2-8.7-3.2-12.1l-2.4-2.3l0.5,3.3
  c0.5,2.8-0.2,5.5-1.9,7.7c-1.9,2.5-4.8,4-8,4c-2.2,0-4.3-0.7-6.1-2.1c-0.4-0.3-0.8-0.7-1.2-1l-2.3-2.4l0.5,3.3
  c0.4,2.9,1.9,5.7,4.2,7.7l0.1,0.1l0.2,0c0.1,0,0.2,0,0.2,0C12.6,26.5,12.7,26.5,12.8,26.4z"/>
</svg>
