<svg width="89" height="75" viewBox="0 0 89 75" fill="none" xmlns="http://www.w3.org/2000/svg">
<path d="M69.5111 53.1556C68.4444 53.1556 67.3778 52.0889 67.3778 51.0222C67.3778 49.9556 68.4444 48.8889 69.5111 48.8889C77.5111 48.8889 83.9111 42.4889 83.9111 34.4889C83.9111 26.4889 77.5111 20.0889 69.5111 20.0889C67.9111 20.0889 66.4889 20.2667 65.0667 20.8L62.9333 21.5111L62.2222 19.3778C59.0222 10.4889 50.6667 4.62222 41.4222 4.62222C30.0444 4.62222 20.6222 13.1556 19.3778 24.5333L19.0222 26.6667L16.8889 26.3111C16.7111 26.3111 16.3556 26.3111 16.1778 26.3111C16 26.3111 15.8222 26.3111 15.6444 26.3111C9.42222 26.3111 4.44444 31.2889 4.44444 37.5111C4.44444 43.7333 9.42222 48.7111 15.6444 48.7111C16.7111 48.7111 17.7778 49.7778 17.7778 50.8444C17.7778 51.9111 16.7111 52.9778 15.6444 52.9778C6.93333 52.9778 0 45.8667 0 37.3333C0 28.8 6.93333 21.6889 15.4667 21.6889C17.6 9.06667 28.4444 0 41.6 0C52.0889 0 61.5111 6.22222 65.7778 15.8222C67.0222 15.6444 68.2667 15.4667 69.5111 15.4667C79.8222 15.4667 88.3556 24 88.3556 34.3111C88 44.6222 79.6444 53.1556 69.5111 53.1556Z" />
<path fill-rule="evenodd" clip-rule="evenodd" d="M33.3025 71.1408C32.2582 70.9567 31.5236 70.1725 31.6617 69.3893L33.162 60.8805C33.3001 60.0973 34.2586 59.6117 35.3029 59.7958C36.3472 59.9799 37.0818 60.7641 36.9437 61.5473L35.4433 70.0561C35.3052 70.8393 34.3467 71.3249 33.3025 71.1408Z" />
<path fill-rule="evenodd" clip-rule="evenodd" d="M23.9599 61.3525C22.9156 61.1684 22.181 60.3842 22.3191 59.601L23.8195 51.0922C23.9576 50.309 24.9161 49.8234 25.9603 50.0075C27.0046 50.1916 27.7392 50.9758 27.6011 51.759L26.1008 60.2678C25.9627 61.051 25.0042 61.5366 23.9599 61.3525Z" />
<path fill-rule="evenodd" clip-rule="evenodd" d="M62.241 71.1856C62.7244 71.2708 63.1854 70.948 63.2707 70.4646C63.3559 69.9811 63.0331 69.5201 62.5497 69.4348L60.2862 69.0357L62.1689 67.7174C62.5711 67.4359 62.6688 66.8816 62.3872 66.4795C62.1056 66.0773 61.5514 65.9796 61.1492 66.2612L59.2664 67.5795L59.6655 65.3159C59.7508 64.8324 59.428 64.3714 58.9445 64.2861C58.461 64.2009 58 64.5237 57.9148 65.0072L57.5156 67.2707L56.1973 65.3879C55.9157 64.9857 55.3614 64.888 54.9593 65.1696C54.5572 65.4512 54.4594 66.0054 54.741 66.4076L56.0594 68.2904L53.7958 67.8913C53.3124 67.806 52.8513 68.1288 52.7661 68.6123C52.6808 69.0958 53.0036 69.5568 53.4871 69.642L55.7508 70.0412L53.8679 71.3596C53.4657 71.6412 53.368 72.1955 53.6496 72.5976C53.9312 72.9997 54.4854 73.0975 54.8876 72.8159L56.7703 71.4976L56.3712 73.761C56.286 74.2445 56.6088 74.7055 57.0923 74.7907C57.5757 74.876 58.0368 74.5532 58.122 74.0697L58.5211 71.8061L59.8395 73.6889C60.1211 74.0911 60.6753 74.1888 61.0775 73.9072C61.4796 73.6256 61.5773 73.0714 61.2957 72.6692L59.9774 70.7865L62.241 71.1856Z" />
<path fill-rule="evenodd" clip-rule="evenodd" d="M40.3078 49.2526C40.7913 49.3379 41.2523 49.015 41.3376 48.5316C41.4228 48.0481 41.1 47.5871 40.6166 47.5018L38.3531 47.1027L40.2358 45.7845C40.638 45.5029 40.7357 44.9486 40.4541 44.5465C40.1725 44.1444 39.6183 44.0466 39.2161 44.3282L37.3333 45.6466L37.7324 43.3829C37.8177 42.8994 37.4949 42.4384 37.0114 42.3532C36.5279 42.2679 36.0669 42.5907 35.9817 43.0742L35.5825 45.3377L34.2642 43.4549C33.9826 43.0528 33.4283 42.955 33.0262 43.2366C32.6241 43.5182 32.5263 44.0725 32.8079 44.4746L34.1263 46.3574L31.8627 45.9583C31.3792 45.8731 30.9182 46.1959 30.833 46.6793C30.7477 47.1628 31.0705 47.6238 31.554 47.7091L33.8177 48.1082L31.9348 49.4267C31.5326 49.7082 31.4349 50.2625 31.7165 50.6646C31.9981 51.0668 32.5523 51.1645 32.9545 50.8829L34.8372 49.5646L34.4381 51.828C34.3529 52.3115 34.6757 52.7725 35.1592 52.8578C35.6426 52.943 36.1036 52.6202 36.1889 52.1367L36.588 49.8732L37.9064 51.7559C38.1879 52.1581 38.7422 52.2558 39.1443 51.9742C39.5465 51.6927 39.6442 51.1384 39.3626 50.7363L38.0443 48.8535L40.3078 49.2526Z" />
<path fill-rule="evenodd" clip-rule="evenodd" d="M60.1826 55.7808C59.1383 55.5967 58.4037 54.8125 58.5418 54.0293L60.0421 45.5205C60.1802 44.7373 61.1387 44.2517 62.183 44.4358C63.2273 44.6199 63.9619 45.4041 63.8238 46.1873L62.3235 54.6961C62.1854 55.4793 61.2269 55.9649 60.1826 55.7808Z" />
<path fill-rule="evenodd" clip-rule="evenodd" d="M47.9709 65.4238C46.9266 65.2397 46.2014 64.4026 46.351 63.5541L47.9763 54.3363C48.1259 53.4878 49.0938 52.9493 50.138 53.1334C51.1823 53.3175 51.9076 54.1546 51.758 55.0031L50.1326 64.2209C49.983 65.0694 49.0152 65.6079 47.9709 65.4238Z" />
</svg>
