<svg width="75" height="72" viewBox="0 0 75 72" fill="none" xmlns="http://www.w3.org/2000/svg">
<path d="M38.3481 37.44H2.53242C1.26621 37.44 0 36.4089 0 35.0341C0 33.6593 1.08532 32.6282 2.53242 32.6282H38.3481C43.413 32.6282 47.7543 28.5037 47.7543 23.52C47.7543 18.3644 43.413 14.24 38.3481 14.24C34.5495 14.24 31.2935 16.3022 29.6655 19.7393C29.4846 20.2548 28.942 20.7704 28.2184 21.1141C27.6758 21.2859 26.9522 21.2859 26.4096 20.9422C25.8669 20.7704 25.3242 20.2548 25.1433 19.5674C24.9625 19.0519 24.9625 18.3644 25.3242 17.8489C27.4949 12.8652 32.7406 9.6 38.529 9.6C46.488 9.6 53 15.9585 53 23.52C52.8191 31.2533 46.3072 37.44 38.3481 37.44Z"/>
<path d="M49.5394 62.0848C49.5394 63.2884 50.6239 64.32 51.8892 64.32C58.5773 64.32 64 59.5057 64 52.9719C64 46.4382 58.5773 41.28 51.8892 41.28H4.53061C3.08455 41.28 2 42.4836 2 43.6872C2 44.8907 3.26531 45.9224 4.53061 45.9224H51.8892C56.0466 45.9224 59.1195 48.8454 59.1195 52.8C59.1195 56.4107 55.6851 59.6776 51.8892 59.6776C50.6239 59.6776 49.5394 60.8812 49.5394 62.0848Z"/>
<ellipse cx="60" cy="34.56" rx="3" ry="2.88" fill="#7F7F7F"/>
<ellipse cx="35" cy="53.76" rx="3" ry="2.88" fill="#7F7F7F"/>
<ellipse cx="14" cy="58.56" rx="2" ry="1.92" fill="#7F7F7F"/>
<ellipse cx="21" cy="25.92" rx="2" ry="1.92" fill="#7F7F7F"/>
<ellipse cx="12" cy="27.84" rx="2" ry="1.92" fill="#7F7F7F"/>
<ellipse cx="21" cy="50.88" rx="2" ry="1.92" fill="#7F7F7F"/>
<ellipse cx="70" cy="43.2" rx="2" ry="1.92" fill="#7F7F7F"/>
<ellipse cx="66" cy="25.92" rx="2" ry="1.92" fill="#7F7F7F"/>
</svg>
