<?xml version="1.0" encoding="utf-8"?>
<!-- Generator: Adobe Illustrator 19.0.0, SVG Export Plug-In . SVG Version: 6.00 Build 0)  -->
<svg version="1.1" id="Layer_1" xmlns="http://www.w3.org/2000/svg" xmlns:xlink="http://www.w3.org/1999/xlink" x="0px" y="0px"
   viewBox="0 0 50 50" style="enable-background:new 0 0 50 50;" xml:space="preserve"  width="50" height="50">
<style type="text/css">
  .st0{fill:#FFFFFF;}
</style>
<path class="st0" d="M41.4,45.1H8.6c-2.6,0-4.5-0.9-5.5-2.5c-0.9-1.6-0.8-3.8,0.5-6L20.1,8.2c1.3-2.2,3-3.4,4.9-3.4s3.6,1.2,4.9,3.4
  l16.4,28.3c1.3,2.2,1.5,4.4,0.5,6C45.9,44.2,43.9,45.1,41.4,45.1z M25,6.1c-1.4,0-2.8,1-3.8,2.8L4.8,37.2c-1,1.8-1.2,3.5-0.5,4.7
  s2.2,1.9,4.3,1.9h32.7c2.1,0,3.6-0.7,4.3-1.9s0.5-2.9-0.5-4.7L28.8,8.8C27.8,7,26.4,6.1,25,6.1z M41.4,45.9H8.6c-2.8,0-5-1-6.1-2.8
  c-1.1-1.9-0.9-4.4,0.5-6.7L19.5,7.9C21,5.4,22.9,4.1,25,4.1c2.2,0,4.1,1.3,5.5,3.7l16.4,28.3c1.4,2.4,1.6,4.9,0.5,6.7
  C46.4,44.8,44.2,45.9,41.4,45.9z M25,6.9c-1.2,0-2.3,0.9-3.2,2.4L5.4,37.6c-0.9,1.6-1.1,3-0.5,4c0.6,1,1.9,1.6,3.7,1.6h32.7
  c1.8,0,3.1-0.6,3.7-1.6c0.6-1,0.4-2.4-0.5-4L28.2,9.2C27.4,7.7,26.2,6.9,25,6.9z M45.9,37.3c0.6,1.2,0.9,2.4,0.8,3.5
  C46.8,39.7,46.6,38.5,45.9,37.3z M26.4,38.9h-2.9v-4.5h2.9V38.9z M26,31.4h-2l-0.3-9.4v-7.9h2.8v7.9L26,31.4z"/>
</svg>
