<?xml version="1.0" encoding="utf-8"?>
<!-- Generator: Adobe Illustrator 19.0.0, SVG Export Plug-In . SVG Version: 6.00 Build 0)  -->
<svg version="1.1" id="Layer_1" xmlns="http://www.w3.org/2000/svg" xmlns:xlink="http://www.w3.org/1999/xlink" x="0px" y="0px"
   viewBox="0 0 50 50" style="enable-background:new 0 0 50 50;" xml:space="preserve"  width="50" height="50">
<style type="text/css">
  .st0{fill:#FFFFFF;}
</style>
<path id="XMLID_27_" d="M25,46.6c-8.5,0-14.7-6.3-14.7-14.9c0-9,13.7-26.4,14.3-27.1L25,4l0.4,0.5C26,5.3,39.7,22.7,39.7,31.6
  C39.7,40.3,33.5,46.6,25,46.6z M25,5.7c-2.3,3-13.7,18.2-13.7,26c0,8.2,5.6,13.9,13.7,13.9c8,0,13.7-5.7,13.7-13.9
  C38.7,23.9,27.3,8.6,25,5.7z"/>
<path class="st0" d="M25,47.3c-9,0-15.5-6.6-15.5-15.6C9.5,22.1,23.9,4.2,24,4.1l0.9-1.4l1.2,1.5c4.3,5.6,14.3,19.4,14.3,27.3
  C40.5,40.7,34,47.3,25,47.3z M25,6.9c-3.2,4.2-13,17.8-13,24.8c0,7.7,5.3,13.1,13,13.1s13-5.4,13-13.1C38,25.1,29.1,12.2,25,6.9z"/>
</svg>
