<?xml version="1.0" encoding="utf-8"?>
<!-- Generator: Adobe Illustrator 19.0.0, SVG Export Plug-In . SVG Version: 6.00 Build 0)  -->
<svg version="1.1" id="Layer_1" xmlns="http://www.w3.org/2000/svg" xmlns:xlink="http://www.w3.org/1999/xlink" x="0px" y="0px"
   viewBox="0 0 50 50" style="enable-background:new 0 0 50 50;" xml:space="preserve"  width="50" height="50">
<style type="text/css">
  .st0{fill:#FFFFFF;}
</style>
<path class="st0" d="M25.9,47.8c-0.3,0-0.4-0.1-0.6-0.2c-0.2-0.1-0.4-0.2-0.4-0.4c-0.1-0.2-0.3-0.4-0.3-0.8v-4l-4.1,4
  c-0.1,0.1-0.4,0.4-0.9,0.4c-0.2,0-0.6,0-0.9-0.2l-0.2-0.1c-0.2-0.2-0.4-0.4-0.4-0.8c0-0.3,0.1-0.8,0.4-1.1l6-6V27.1l-10.8,6.3
  l-2.4,7.8c-0.2,0.4-0.6,0.7-1.1,0.7c-0.2,0-0.6,0-0.9-0.3l-0.1-0.1C9,41.2,8.8,40.7,9.1,40l1.5-5L7.3,37c-0.3,0.2-0.7,0.2-0.9,0.2
  c-0.4,0-0.8-0.2-1-0.6c-0.2-0.3-0.2-0.6-0.2-0.9c0-0.5,0.2-0.8,0.7-1l3.5-2L4,31.1c-0.3,0-0.6-0.2-0.8-0.4l-0.1-0.2
  c-0.1-0.3-0.3-0.5-0.3-0.8c0-0.3,0.2-0.7,0.4-0.9c0.3-0.2,0.7-0.3,1.1-0.2l8.2,2.2l10.4-6l-10.4-6L4.2,21c-0.3,0-0.8,0-1.1-0.3
  c-0.3-0.3-0.3-0.6-0.3-0.8c0-0.4,0.2-0.7,0.4-1c0.2-0.2,0.5-0.3,0.8-0.4L9.4,17l-3.7-2.2c-0.1-0.1-0.3-0.3-0.4-0.6l-0.1-0.1v-0.2
  c0-0.2,0-0.5,0.2-0.8l0.1-0.2c0.1-0.1,0.3-0.3,0.6-0.4l0.1-0.1h0.2c0.2,0,0.5,0,0.8,0.2l3.4,2L9.2,9.6C9,9.4,9,9.2,9,9
  c0-0.2,0.2-0.6,0.7-0.8c0.2-0.2,0.6-0.2,1-0.1c0.3,0.1,0.6,0.3,0.8,0.6l0.1,0.2l2.3,7.8l10.8,6.2V11.2l-6.2-6.1
  c-0.4-0.6-0.3-1.5,0.3-1.9L19,3.1h0.2c0.1,0,0.4-0.1,0.7,0c0.4,0,0.7,0.2,0.9,0.6l3.9,3.9v-4c0-0.7,0.6-1.3,1.3-1.3s1.3,0.6,1.3,1.3
  v3.9l3.4-3.7c0.1-0.3,0.3-0.4,0.4-0.5L31.4,3l0.3,0c0.1,0,0.5,0,0.8,0.2c0.3,0.2,0.7,0.6,0.7,1.1c0,0.1,0,0.5-0.3,0.8l-5.5,6v11.2
  l8.9-5.1l2.2-8.4c0.4-0.6,1-0.9,1.6-0.7l0.2,0.1l0.1,0.1c0.2,0.1,0.4,0.3,0.5,0.6c0.2,0.4,0.2,0.8,0,1.1l-1.4,5.4l3.5-2
  c0.3-0.2,0.7-0.2,0.8-0.2c0.4,0,0.8,0.2,1,0.6c0.2,0.3,0.2,0.6,0.2,0.9c0,0.5-0.2,0.8-0.7,1l-3.3,1.9l5,1.2c0.4,0,0.7,0.3,0.8,0.4
  c0.3,0.3,0.3,0.7,0.3,1c0,0.9-0.5,1.5-1.2,1.5l-0.2,0l-7.9-1.9L28.6,25l9.3,5.3l7.9-2.2c0.8,0,1.3,0.8,1.3,1.6c0,0.3,0,0.7-0.3,1
  c-0.1,0.1-0.4,0.4-0.8,0.4l-5,1.2l3.5,2.1c0.2,0.1,0.5,0.4,0.5,0.9c0,0.2,0,0.5-0.2,0.8l-0.1,0.2c-0.1,0.1-0.3,0.3-0.6,0.4l-0.1,0.1
  h-0.2c-0.2,0-0.5,0-0.8-0.2l-3.6-2.1l1.4,5.4c0.2,0.3,0.2,0.7,0,1.1c-0.1,0.2-0.3,0.6-0.7,0.8l0,0c-0.1,0.1-0.3,0.2-0.5,0.2
  c-0.5,0-0.8-0.3-1.1-0.6l-0.1-0.1l0-0.2l-2.1-8.3l-8.9-5.1v11.2l5.6,5.9c0.3,0.3,0.3,0.6,0.3,0.9c0,0.5-0.4,0.9-0.7,1.1
  c-0.3,0.2-0.6,0.2-0.8,0.2c-0.4,0-0.6-0.3-0.8-0.5l-3.6-3.8v3.9c0,0.5-0.3,0.9-0.7,1C26.5,47.7,26.2,47.8,25.9,47.8z"/>
</svg>
