<svg width="108" height="92" viewBox="0 0 108 92" fill="none" xmlns="http://www.w3.org/2000/svg">
<g opacity="0.6" clip-path="url(#clip0_445_5177)">
<path d="M7.53577 7.28076L11.3129 8.29285" stroke="#E1E3E6"/>
<path d="M2.82518 12.9237L9.27813 4.64196L13.0553 5.65405" stroke="#E1E3E6"/>
<path d="M23.3766 7.79492L26.7631 9.75012" stroke="#E1E3E6"/>
<path d="M17.366 12.026L25.7425 5.69666L29.129 7.65186" stroke="#E1E3E6"/>
<path d="M41.9443 8.42627L44.7094 11.1913" stroke="#E1E3E6"/>
<path d="M35.0435 10.9581L44.7728 7.01239L47.5378 9.77746" stroke="#E1E3E6"/>
<path d="M61.7728 9.93311L60.7607 13.7103" stroke="#E1E3E6"/>
<path d="M56.13 5.2224L64.4117 11.6753L63.3997 15.4525" stroke="#E1E3E6"/>
<path d="M80.7052 10.3765L78.75 13.763" stroke="#E1E3E6"/>
<path d="M76.4738 4.36584L82.8032 12.7424L80.848 16.1289" stroke="#E1E3E6"/>
<path d="M99.088 9.93555L98.0759 13.7127" stroke="#E1E3E6"/>
<path d="M93.4452 5.22484L101.727 11.6778L100.715 15.4549" stroke="#E1E3E6"/>
<path d="M7.48914 22.291H11.3995" stroke="#E1E3E6"/>
<path d="M4.39954 28.9607L8.48914 19.291H12.3995" stroke="#E1E3E6"/>
<path d="M23.7761 22.7549L27.1626 24.7101" stroke="#E1E3E6"/>
<path d="M17.7655 26.986L26.142 20.6566L29.5285 22.6118" stroke="#E1E3E6"/>
<path d="M42.9601 24.0283L43.9722 27.8055" stroke="#E1E3E6"/>
<path d="M35.718 22.7703L46.1167 24.2178L47.1288 27.995" stroke="#E1E3E6"/>
<path d="M61.9601 24.0283L62.9722 27.8055" stroke="#E1E3E6"/>
<path d="M54.718 22.7703L65.1167 24.2178L66.1288 27.995" stroke="#E1E3E6"/>
<path d="M81.1725 24.8931L80.1604 28.6702" stroke="#E1E3E6"/>
<path d="M75.5297 20.1824L83.8114 26.6353L82.7993 30.4125" stroke="#E1E3E6"/>
<path d="M99.4877 24.8955L98.4756 28.6727" stroke="#E1E3E6"/>
<path d="M93.8449 20.1848L102.127 26.6377L101.115 30.4149" stroke="#E1E3E6"/>
<path d="M6.18054 83.9243L7.19263 80.1472" stroke="#E1E3E6"/>
<path d="M11.8233 88.635L3.54162 82.1821L4.55371 78.4049" stroke="#E1E3E6"/>
<path d="M22.4061 85.8774L19.6411 83.1124" stroke="#E1E3E6"/>
<path d="M29.307 83.3456L19.5777 87.2913L16.8126 84.5263" stroke="#E1E3E6"/>
<path d="M41.4178 86.5762L37.6407 85.5641" stroke="#E1E3E6"/>
<path d="M46.1284 80.9332L39.6755 89.215L35.8983 88.2029" stroke="#E1E3E6"/>
<path d="M59.974 86.5083L56.5875 84.5531" stroke="#E1E3E6"/>
<path d="M65.9846 82.2772L57.6081 88.6066L54.2216 86.6514" stroke="#E1E3E6"/>
<path d="M78.974 86.5083L75.5875 84.5531" stroke="#E1E3E6"/>
<path d="M84.9846 82.2772L76.6081 88.6066L73.2216 86.6514" stroke="#E1E3E6"/>
<path d="M97.2892 86.5107L93.9027 84.5555" stroke="#E1E3E6"/>
<path d="M103.3 82.2796L94.9233 88.609L91.5368 86.6538" stroke="#E1E3E6"/>
<path d="M7.07104 37.4541L10.8482 36.442" stroke="#E1E3E6"/>
<path d="M5.81288 44.6961L7.26043 34.2975L11.0376 33.2854" stroke="#E1E3E6"/>
<path d="M21.6453 38.9268L23.6005 35.5403" stroke="#E1E3E6"/>
<path d="M25.8766 44.9374L19.5472 36.5608L21.5024 33.1743" stroke="#E1E3E6"/>
<path d="M41.0431 38.188H44.9535" stroke="#E1E3E6"/>
<path d="M37.9535 44.8577L42.0431 35.188H45.9535" stroke="#E1E3E6"/>
<path d="M60.043 38.188H63.9534" stroke="#E1E3E6"/>
<path d="M56.9534 44.8577L61.043 35.188H64.9534" stroke="#E1E3E6"/>
<path d="M79.4894 38.1382L83.2665 39.1503" stroke="#E1E3E6"/>
<path d="M74.7788 43.7811L81.2317 35.4994L85.0089 36.5115" stroke="#E1E3E6"/>
<path d="M98.9589 41.1001L95.5724 43.0553" stroke="#E1E3E6"/>
<path d="M98.2998 33.7796L99.5929 44.1986L96.2064 46.1538" stroke="#E1E3E6"/>
<path d="M6.18042 68.9243L7.19251 65.1472" stroke="#E1E3E6"/>
<path d="M11.8232 73.635L3.5415 67.1821L4.55358 63.4049" stroke="#E1E3E6"/>
<path d="M22.0557 70.5962L20.1005 67.2097" stroke="#E1E3E6"/>
<path d="M29.3766 69.9371L18.9576 71.2303L17.0024 67.8438" stroke="#E1E3E6"/>
<path d="M40.9741 71.5083L37.5876 69.5531" stroke="#E1E3E6"/>
<path d="M46.9847 67.2772L38.6082 73.6066L35.2217 71.6514" stroke="#E1E3E6"/>
<path d="M59.9739 71.5083L56.5874 69.5531" stroke="#E1E3E6"/>
<path d="M65.9845 67.2772L57.608 73.6066L54.2215 71.6514" stroke="#E1E3E6"/>
<path d="M78.9742 71.5083L75.5877 69.5531" stroke="#E1E3E6"/>
<path d="M84.9849 67.2772L76.6083 73.6066L73.2218 71.6514" stroke="#E1E3E6"/>
<path d="M97.2892 71.5107L93.9027 69.5555" stroke="#E1E3E6"/>
<path d="M103.3 67.2796L94.9233 73.609L91.5368 71.6538" stroke="#E1E3E6"/>
<path d="M6.42859 53.0698L9.19366 50.3048" stroke="#E1E3E6"/>
<path d="M8.96018 59.9703L5.01446 50.241L7.77953 47.476" stroke="#E1E3E6"/>
<path d="M21.5775 54.3706L22.5896 50.5934" stroke="#E1E3E6"/>
<path d="M27.2203 59.0813L18.9386 52.6284L19.9507 48.8512" stroke="#E1E3E6"/>
<path d="M40.6251 53.3506L44.4023 52.3385" stroke="#E1E3E6"/>
<path d="M39.367 60.5926L40.8145 50.194L44.5917 49.1819" stroke="#E1E3E6"/>
<path d="M59.2632 53.6167L62.6497 51.6615" stroke="#E1E3E6"/>
<path d="M59.9222 60.9372L58.6291 50.5182L62.0156 48.563" stroke="#E1E3E6"/>
<path d="M78.2634 53.6167L81.6499 51.6615" stroke="#E1E3E6"/>
<path d="M78.9225 60.9372L77.6293 50.5182L81.0158 48.563" stroke="#E1E3E6"/>
<path d="M98.5972 56.3662L94.82 57.3783" stroke="#E1E3E6"/>
<path d="M99.8553 49.1242L98.4078 59.5228L94.6306 60.5349" stroke="#E1E3E6"/>
</g>
<defs>
<clipPath id="clip0_445_5177">
<rect width="108" height="92" fill="white"/>
</clipPath>
</defs>
</svg>
