<svg width="1793" height="1484" viewBox="0 0 1793 1484" fill="none" xmlns="http://www.w3.org/2000/svg">
<path d="M6.32227 389.32C54.8223 434.82 81.3223 474.82 92.3223 486.32C103.322 497.82 157.822 558.82 210.822 578.82C263.822 598.82 300.822 604.82 321.822 591.82C342.822 578.82 343.822 542.82 342.322 533.82C340.822 524.82 342.322 485.32 342.322 472.82C342.322 460.32 361.322 445.82 359.322 425.32C357.322 404.82 336.822 372.32 336.822 344.32C336.822 316.32 371.322 287.82 370.822 267.82C370.322 247.82 364.322 211.32 377.822 189.32C391.322 167.32 394.322 163.32 412.322 157.82C430.322 152.32 455.822 141.82 470.822 131.32C485.822 120.82 496.322 107.82 514.322 107.82C532.322 107.82 555.322 108.82 578.322 114.32C601.322 119.82 630.322 116.32 664.822 131.32C699.322 146.32 738.322 172.32 769.822 184.32C801.322 196.32 817.822 207.82 842.822 232.32C867.822 256.82 869.822 258.82 893.322 267.82C916.822 276.82 960.822 294.32 985.322 314.32C1009.82 334.32 1045.32 358.32 1091.82 368.32C1138.32 378.32 1187.32 395.32 1248.82 389.32C1310.32 383.32 1405.82 359.82 1432.82 345.32C1459.82 330.82 1479.32 317.82 1485.82 306.82C1492.32 295.82 1511.82 253.82 1515.82 232.32C1519.82 210.82 1516.82 168.32 1498.32 127.32C1479.82 86.3203 1452.32 17.3203 1439.32 0.820312M1508.32 0.820312C1515.82 40.8203 1561.32 119.82 1562.82 134.32C1564.32 148.82 1581.82 190.82 1593.32 225.82C1604.82 260.82 1615.82 293.82 1573.32 314.32C1530.82 334.82 1464.32 379.32 1387.82 389.32C1311.32 399.32 1288.32 402.32 1254.32 405.32C1220.32 408.32 1215.32 414.32 1163.82 405.32C1112.32 396.32 1056.32 387.82 993.322 359.82C930.322 331.82 897.322 321.82 873.822 314.32C850.322 306.82 792.822 272.32 789.822 267.82C786.822 263.32 759.822 222.32 703.322 203.32C646.822 184.32 583.822 174.32 544.822 203.32C505.822 232.32 494.822 290.82 517.822 342.82C540.822 394.82 555.322 403.32 553.322 414.82C551.322 426.32 544.822 438.82 539.822 453.82C534.822 468.82 549.822 491.82 544.822 508.32C539.822 524.82 547.322 530.82 534.822 536.32C522.322 541.82 474.322 532.32 452.322 529.82C430.322 527.32 428.822 523.82 408.822 536.32C388.822 548.82 381.822 575.32 359.322 591.82C336.822 608.32 330.822 617.82 299.322 616.82C267.822 615.82 233.822 613.32 205.322 600.32C176.822 587.32 147.322 580.32 125.322 565.32C103.322 550.32 67.3223 530.32 41.8223 508.32C21.4223 490.72 5.6556 477.32 0.322266 472.82M0.322266 536.32C28.1556 544.654 89.4223 564.82 111.822 578.82C139.822 596.32 235.322 629.82 265.322 632.32C295.322 634.82 319.322 637.32 336.822 632.32C354.322 627.32 409.822 586.82 440.322 586.82C470.822 586.82 523.822 612.32 548.322 608.82C572.822 605.32 600.322 582.32 606.322 545.32C612.322 508.32 651.322 464.82 664.822 448.82C678.322 432.82 705.822 385.82 680.822 353.32C655.822 320.82 677.822 300.32 711.322 301.82C744.822 303.32 841.822 328.82 886.822 344.32C931.822 359.82 981.822 377.32 1021.82 389.32C1061.82 401.32 1106.82 417.32 1135.32 419.32C1163.82 421.32 1191.82 431.32 1217.32 425.32C1242.82 419.32 1254.32 425.32 1277.32 425.32C1300.32 425.32 1372.82 423.82 1406.32 419.32C1439.82 414.82 1455.82 411.82 1485.82 413.32C1515.82 414.82 1555.32 419.32 1605.82 419.32C1656.32 419.32 1696.32 416.82 1689.82 369.32C1683.32 321.82 1642.32 188.32 1633.32 161.32C1624.32 134.32 1568.82 36.3203 1562.82 20.8203C1558.02 8.42031 1556.82 2.32031 1556.82 0.820312M1605.82 0.820312C1633.32 44.3203 1642.32 68.8203 1654.32 83.8203C1666.32 98.8203 1671.82 122.82 1674.82 134.32C1677.82 145.82 1687.82 196.82 1696.32 222.32C1704.82 247.82 1715.32 274.32 1720.32 294.32C1725.32 314.32 1738.82 358.32 1732.82 399.32C1726.82 440.32 1699.32 514.32 1562.82 481.32C1426.32 448.32 1417.82 449.32 1345.32 449.82C1272.82 450.32 1257.32 446.32 1237.32 444.82C1217.32 443.32 1169.82 437.32 1146.82 436.32C1123.82 435.32 1027.82 409.32 969.822 399.32C911.822 389.32 775.322 355.32 743.322 405.32C711.322 455.32 697.822 477.82 681.322 504.82C664.822 531.82 648.322 600.32 675.822 608.82C703.322 617.32 733.322 629.32 738.322 685.82C743.322 742.32 729.822 766.82 711.322 768.82C692.822 770.82 656.322 752.82 649.822 723.32C644.622 699.72 638.989 688.487 636.822 685.82C632.322 681.654 621.222 676.82 612.822 690.82C602.322 708.32 573.322 714.82 563.322 690.82C553.322 666.82 505.822 667.82 487.822 661.82C469.822 655.82 439.822 630.82 408.822 640.32C377.822 649.82 336.822 655.82 281.822 650.32C226.822 644.82 173.822 628.82 135.322 616.82C96.8223 604.82 114.322 604.82 68.3223 591.82C31.5223 581.42 11.1556 571.487 0.322266 565.32M2.82227 591.82C29.9889 603.654 91.9223 628.92 122.322 635.32C160.322 643.32 279.322 674.82 336.822 676.32C394.322 677.82 441.322 689.32 452.322 698.32C463.322 707.32 474.822 719.82 491.822 729.82C508.822 739.82 522.822 745.82 531.322 755.32C539.822 764.82 540.822 771.32 550.822 788.82C560.822 806.32 576.322 828.82 600.322 823.32C624.322 817.82 645.322 823.32 659.322 829.32C673.322 835.32 728.322 852.32 738.322 829.32C748.322 806.32 771.822 769.82 762.822 715.82C753.822 661.82 765.322 651.82 751.822 628.32C738.322 604.82 725.322 586.32 726.322 570.82C727.322 555.32 731.822 532.32 743.322 504.82C754.822 477.32 774.322 438.32 806.322 431.82C838.322 425.32 922.822 418.82 963.322 425.32C1003.82 431.82 1149.82 461.32 1195.82 462.32C1241.82 463.32 1263.32 466.32 1300.32 471.32C1337.32 476.32 1345.32 475.32 1375.82 477.32C1406.32 479.32 1454.32 485.32 1491.82 496.82C1529.32 508.32 1541.32 522.32 1581.82 533.82C1622.32 545.32 1666.82 552.82 1689.82 533.82C1712.82 514.82 1757.32 480.32 1764.82 409.82C1772.32 339.32 1757.32 264.82 1752.32 238.82C1747.32 212.82 1737.82 155.82 1735.32 142.82C1732.82 129.82 1729.82 98.8203 1700.32 67.3203C1670.82 35.8203 1651.82 9.32031 1650.32 0.820312M1706.82 0.820312C1710.66 8.48698 1721.72 26.9203 1735.32 39.3203C1752.32 54.8203 1759.32 65.3203 1764.82 72.3203C1769.22 77.9203 1783.32 100.32 1789.82 110.82M772.322 0.820312C799.322 25.8203 816.322 40.8203 832.822 40.8203C849.322 40.8203 859.322 28.8203 867.822 20.8203C874.622 14.4203 883.322 4.82031 886.822 0.820312M954.822 0.820312C949.822 3.32031 937.822 13.3203 929.822 33.3203C919.822 58.3203 891.822 80.3203 900.822 115.32C909.822 150.32 939.822 176.82 954.822 199.32C969.822 221.82 1022.32 322.32 1101.32 345.32C1180.32 368.32 1214.82 368.32 1239.82 368.32C1264.82 368.32 1354.82 345.32 1384.32 328.32C1413.82 311.32 1464.82 293.32 1461.82 246.32C1458.82 199.32 1447.32 164.32 1432.82 139.82C1418.32 115.32 1393.82 84.8203 1375.82 72.3203C1357.82 59.8203 1340.82 54.3203 1270.32 60.8203C1199.82 67.3203 1140.82 45.8203 1116.32 29.8203C1096.72 17.0203 1074.82 5.15365 1066.32 0.820312M1.82227 618.82C36.4889 631.32 130.122 660.82 227.322 678.82C348.822 701.32 440.822 735.32 469.322 782.32C497.822 829.32 531.822 892.32 541.322 947.82C550.822 1003.32 574.822 1138.82 631.822 1137.32C688.822 1135.82 765.822 1095.82 774.822 958.32C783.822 820.82 776.822 816.82 781.822 782.32C786.822 747.82 786.322 674.32 777.322 615.32C768.322 556.32 792.822 497.32 835.822 483.32C878.822 469.32 907.822 462.32 963.322 466.82C1018.82 471.32 1076.32 476.32 1125.32 479.82C1174.32 483.32 1314.82 502.32 1375.82 511.82C1436.82 521.32 1474.32 527.32 1501.32 541.82C1528.32 556.32 1514.82 550.32 1553.82 567.32C1592.82 584.32 1608.32 594.32 1635.82 594.32C1663.32 594.32 1699.32 576.82 1717.32 555.32C1735.32 533.82 1782.82 474.82 1789.82 442.32M1789.82 529.32C1729.32 579.32 1697.32 629.32 1631.82 623.82C1566.32 618.32 1464.32 556.32 1406.32 550.32C1348.32 544.32 1233.32 517.82 1125.32 511.82C1017.32 505.82 904.822 478.32 856.822 541.82C808.822 605.32 813.822 654.82 815.322 699.82C817.322 741.154 821.622 832.92 822.822 869.32C824.322 914.82 826.822 978.82 819.322 1007.82C811.822 1036.82 798.322 1092.32 759.322 1124.82C720.322 1157.32 688.822 1192.32 640.322 1188.82C591.822 1185.32 526.822 1119.32 489.822 978.32C452.822 837.32 428.822 764.82 297.822 723.32C166.822 681.82 93.8223 673.32 59.8223 663.82C32.6223 656.22 10.4889 648.654 2.82227 645.82M2.82227 671.82C16.1556 676.154 50.2223 687.02 79.8223 695.82C116.822 706.82 130.322 714.32 149.822 716.82C169.322 719.32 241.822 727.82 261.822 740.82C281.822 753.82 365.822 790.32 389.822 836.32C413.822 882.32 455.322 975.32 485.822 1078.82C516.322 1182.32 614.822 1227.82 637.322 1227.82C659.822 1227.82 750.322 1204.32 780.322 1151.32C810.322 1098.32 831.322 1074.32 839.322 1052.32C847.322 1030.32 857.822 968.32 855.322 895.82C852.822 823.32 846.322 743.32 849.322 685.82C852.322 628.32 873.822 536.32 1005.82 536.32C1137.82 536.32 1257.82 559.82 1327.32 573.82C1396.82 587.82 1445.82 602.82 1488.32 616.32C1530.82 629.82 1555.32 643.82 1600.32 647.32C1645.32 650.82 1710.82 650.32 1746.32 623.82C1774.72 602.62 1786.82 592.987 1789.32 590.82M2.82227 712.32C9.32227 713.32 32.3223 718.22 72.3223 729.82C122.322 744.32 164.322 746.82 217.822 767.82C271.322 788.82 363.322 819.82 422.322 1023.82C481.322 1227.82 617.822 1272.82 651.322 1271.32C684.822 1269.82 779.822 1231.82 812.322 1176.32C844.822 1120.82 865.822 1093.32 876.822 1035.82C887.822 978.32 897.822 896.82 893.322 801.82C888.822 706.82 890.322 578.32 1034.32 578.32C1178.32 578.32 1343.32 612.32 1455.82 647.32C1568.32 682.32 1678.82 714.32 1789.32 663.32M1789.32 773.32C1740.66 774.32 1621.22 768.22 1532.82 735.82C1422.32 695.32 1304.82 655.82 1199.82 641.32C1129.82 628.654 985.422 622.02 967.822 696.82C945.822 790.32 944.322 815.82 942.822 859.82C941.322 903.82 948.322 990.32 920.822 1055.32C893.322 1120.32 869.822 1198.82 792.822 1246.32C715.822 1293.82 692.822 1308.82 651.322 1309.82C609.822 1310.82 502.822 1261.82 441.822 1176.32C380.822 1090.82 359.322 989.32 329.822 947.82C300.322 906.32 274.322 845.32 213.822 823.32C153.322 801.32 76.8223 761.32 2.82227 755.32M2.82227 811.32C146.322 841.32 234.322 883.82 321.822 1084.82C409.322 1285.82 550.822 1377.32 651.322 1374.82C751.822 1372.32 892.822 1285.82 946.822 1166.32C1000.82 1046.82 993.322 1064.32 997.322 1029.82C1001.32 995.32 999.822 956.32 1012.82 933.32C1025.82 910.32 1040.32 888.32 1041.82 855.82C1043.32 823.32 1052.82 736.32 1100.32 799.32C1147.82 862.32 1173.32 914.82 1208.82 914.82C1244.32 914.82 1242.32 862.82 1253.82 848.82C1265.32 834.82 1288.32 815.82 1327.82 808.82C1367.32 801.82 1376.82 802.82 1403.82 814.32C1430.82 825.82 1448.32 841.82 1479.82 848.82C1511.32 855.82 1585.32 908.32 1618.82 955.32C1652.32 1002.32 1667.32 996.82 1675.32 1005.82C1683.32 1014.82 1713.82 1079.32 1725.32 1095.82C1734.52 1109.02 1773.82 1138.65 1792.32 1151.82M2.82227 902.32C55.8223 916.82 130.322 960.32 159.322 1007.82C188.322 1055.32 217.822 1099.82 227.322 1166.32C236.822 1232.82 234.322 1228.82 257.322 1277.82C280.322 1326.82 306.822 1379.2 389.822 1451.82C400.322 1461.01 422.322 1475.82 436.322 1482.82M876.822 1482.82C878.156 1476.15 884.822 1459.22 900.822 1444.82C920.822 1426.82 958.322 1411.82 983.322 1397.82C1008.32 1383.82 1025.32 1373.82 1045.32 1366.82C1065.32 1359.82 1108.82 1335.32 1134.82 1336.32C1160.82 1337.32 1174.82 1364.82 1191.82 1374.82C1208.82 1384.82 1234.32 1409.82 1240.32 1416.82C1245.12 1422.42 1286.99 1463.15 1307.32 1482.82M265.322 536.32C281.822 533.82 299.322 549.32 299.322 560.32C299.322 571.32 300.822 581.32 289.322 582.32C277.822 583.32 259.822 575.32 256.822 565.32C253.822 555.32 257.99 536.32 265.322 536.32ZM1096.32 89.8203C1161.32 103.32 1189.32 112.82 1231.32 111.82C1273.32 110.82 1321.32 116.82 1341.32 131.82C1361.32 146.82 1389.32 165.32 1397.82 184.32C1406.32 203.32 1416.32 217.82 1418.82 226.82C1421.32 235.82 1430.82 257.82 1400.82 282.32C1370.82 306.82 1295.82 351.32 1226.82 347.82C1157.82 344.32 1112.32 330.82 1073.32 278.82C1034.32 226.82 1041.32 192.32 1027.82 168.82C1014.32 145.32 984.822 122.32 993.322 95.3203C1001.82 68.3203 1064.32 77.3203 1096.32 89.8203ZM1179.82 155.32C1254.32 156.32 1365.32 193.32 1361.82 237.82C1358.32 282.32 1266.32 327.32 1221.82 324.32C1177.32 321.32 1089.82 287.802 1109.32 192.32C1114.94 164.82 1151.32 155.32 1179.82 155.32ZM1191.32 263.82C1192.32 252.32 1194.82 235.32 1219.32 238.82C1243.82 242.32 1246.82 248.32 1245.82 261.32C1244.82 274.32 1226.32 282.32 1217.32 282.32C1208.32 282.32 1191.32 275.32 1191.32 263.82Z" stroke="#005EA2"/>
<path d="M3.82227 311.32C53.3223 249.32 151.322 134.32 188.322 100.82C225.322 67.32 317.822 -8.18 443.822 1.32M3.82227 194.32C13.8223 187.82 37.1223 171.72 50.3223 159.32C66.8223 143.82 90.3223 128.821 111.822 104.82C133.322 80.8201 208.822 13.8197 220.322 1.32M3.82227 116.32C50.3223 88.8203 105.322 13.8197 111.822 1.32M305.822 139.32C342.822 108.82 364.822 77.3201 316.822 80.8201C268.822 84.3201 249.822 115.32 244.322 127.32C238.822 139.32 235.822 174.32 270.822 159.32C298.822 147.32 305.822 140.987 305.822 139.32Z" stroke="#005EA2"/>
</svg>
