<?xml version="1.0" encoding="utf-8"?>
<!-- Generator: Adobe Illustrator 28.0.0, SVG Export Plug-In . SVG Version: 6.00 Build 0)  -->
<svg version="1.1" xmlns="http://www.w3.org/2000/svg" xmlns:xlink="http://www.w3.org/1999/xlink" x="0px" y="0px"
   viewBox="0 0 1033.31 1042.57" style="enable-background:new 0 0 1033.31 1042.57;" xml:space="preserve">
<style type="text/css">
  .st0{fill:#FFFFFF;}
  .st1{fill:#33B0E1;}
  .st2{fill:#00007F;}
  .st3{fill:#0000A4;}
  .st4{fill:#FF0000;}
  .st5{display:none;}
  .st6{display:inline;fill:#0000A4;}
  .st7{display:inline;fill:#00007F;}
  .st8{display:inline;fill:#FFFFFF;}
</style>
<g id="White_Circle">
  <circle class="st0" cx="524.53" cy="541.22" r="499.05"/>
</g>
<g id="Circle">
  <g>
    <circle class="st1" cx="523.21" cy="543.04" r="310.7"/>
  </g>
</g>
<g id="White_Cloud">
  <g>
    <path class="st0" d="M228.41,628.6c0,0,12.01,68.19,63.82,118.43c0,0,23.03,19.79,69.56,22.78c46.54,2.99,85.88-22.78,85.88-22.78
      s31.21,20.35,68.52,20.5c37.31,0.14,84.53-22.55,85.48-22.55s86.86,54.57,164.62-8.44c0,0,52.71-70.72,63.74-153.72H330.13
      l-101.72,9.08C228.41,591.9,225.52,607.22,228.41,628.6z"/>
    <path class="st2" d="M367.47,775.56c-2.65,0-5.32-0.08-8.02-0.26c-47.82-3.08-67.8-23.24-68.8-24.1l-0.24-0.22
      c-52.49-50.9-68.9-118.57-69.41-121.43l2.97-0.22c-2.98-22.02-3.08-37.8-2.95-38.46l0.77-4.09l106.35-9.47h506.19l-0.83,6.22
      C822.4,667,768.89,736.9,766.71,739.83l-0.41,0.55l-0.54,0.43c-32.27,27.83-66.44,35.83-107.03,30.05
      c-14.1-2.01-35.77-7.08-59.37-19.83c-0.13,0.06-0.27,0.11-0.4,0.17c-34.16,14.56-62.71,21.87-84.79,21.82
      c-32.16-0.12-59.56-14.37-68.48-19.55C436.08,759.12,404.89,775.56,367.47,775.56z M291.91,742.94
      c1.62,1.31,25.82,18.66,68.24,21.39c44.06,2.82,82.13-21.65,82.51-21.9l3-1.96l3.01,1.96c0.3,0.19,30.38,19.47,65.53,19.6
      c0.11,0,0.23,0,0.35,0c20.55,0,47.49-7.04,80.08-20.94c3.35-1.43,3.78-1.61,5.04-1.61c1.47,0,2.29,0.45,3.92,1.34
      c26.22,14.38,97.87,42.3,160.69-8.1c4.69-6.5,54.56-70.22,66.4-144.39h-502.3l-97.1,8.66c-0.61,5.7-5.28,16.93-3.43,30.75
      C228.39,630.62,243.05,695.45,291.91,742.94z"/>
  </g>
</g>
<g id="Layer_6">
  <g>
    <line class="st0" x1="255.23" y1="388.88" x2="349.01" y2="444.45"/>
    
      <rect x="297.12" y="362.16" transform="matrix(0.5098 -0.8603 0.8603 0.5098 -210.3539 464.1617)" class="st2" width="10" height="109.01"/>
  </g>
  <g>
    <line class="st0" x1="523.21" y1="232.18" x2="523.21" y2="379.56"/>
    <rect x="518.21" y="232.18" class="st2" width="10" height="147.37"/>
  </g>
  <g>
    <line class="st0" x1="676.37" y1="277.62" x2="618.71" y2="379.56"/>
    
      <rect x="588.98" y="323.59" transform="matrix(0.4924 -0.8704 0.8704 0.4924 42.6952 730.3826)" class="st2" width="117.12" height="10"/>
  </g>
  <g>
    <line class="st0" x1="790.55" y1="388.88" x2="702.59" y2="442.25"/>
    
      <rect x="695.12" y="410.56" transform="matrix(0.8549 -0.5188 0.5188 0.8549 -107.2642 447.5874)" class="st2" width="102.88" height="10"/>
  </g>
</g>
<g id="Circle_copy">
  <g>
    <path class="st2" d="M523.21,858.73c-84.33,0-163.6-32.84-223.23-92.47c-59.63-59.63-92.47-138.91-92.47-223.23
      c0-84.33,32.84-163.6,92.47-223.23c59.63-59.63,138.91-92.47,223.23-92.47c84.33,0,163.6,32.84,223.23,92.47
      c59.63,59.63,92.47,138.91,92.47,223.23c0,84.33-32.84,163.6-92.47,223.23C686.81,825.89,607.53,858.73,523.21,858.73z
       M523.21,237.34c-168.56,0-305.7,137.14-305.7,305.7c0,168.56,137.14,305.7,305.7,305.7c168.56,0,305.7-137.14,305.7-305.7
      C828.9,374.47,691.77,237.34,523.21,237.34z"/>
  </g>
</g>
<g id="Blue_Cloud">
  <g>
    <path class="st3" d="M206.55,546.35c0,0-38.26,19.06-26.58,64c11.68,44.93,66.41,44.2,109.54,30.24c0,0,54.93,61.07,130.41,35.3
      c0,0,33.06,34.15,86.94,41.73s102.02-15.38,102.02-15.38s46.61,14.17,72.3-30.72c0,0,32.24,16.56,61.35-9.87
      c22.55-22.99,6.52-47.77,6.52-47.77s86.93,5.53,106.91-65.37c0,0,35.4-23.07,15.66-56.16c-19.74-33.08-58.14-28.78-84.51-25.2
      c0,0-8.14-26.97-44.76-13.7c0,0-54.88-111.09-215.11-85.87c0,0-45.03-35.89-108.07-5.91s-54.45,60.05-54.45,60.05
      s-21.78-4.46-42.41,15.4c0,0-67.34-8.49-100.72,20.01S189.36,515.94,206.55,546.35z"/>
    <path class="st2" d="M529.49,724.17c-7.56,0-15.37-0.48-23.33-1.6c-47.55-6.69-79.03-33.07-87.55-40.99
      c-31.3,9.84-63.91,6.67-94.51-9.24c-18.53-9.63-31.14-21.17-36.05-26.05c-18.65,5.69-58.56,14.69-87.25-1.05
      c-13.11-7.19-21.75-18.5-25.68-33.63c-6.55-25.19,1.72-42.82,9.81-53.18c5.25-6.73,11.07-11.28,14.95-13.88
      c-8.17-15.78-11.35-30.24-9.74-44.09c1.97-16.97,11.46-32.82,28.21-47.11c31.46-26.86,89.64-22.7,102.24-21.43
      c15.06-13.56,30.43-15.63,38.81-15.61c0.65-11.52,8.53-35.79,57.63-59.13c33.95-16.14,62.86-13.58,81.14-8.59
      c15.65,4.27,26.29,10.92,30.36,13.76c36.43-5.5,70.44-4.43,101.13,3.19c25.12,6.23,48.05,16.84,68.17,31.51
      c27.31,19.92,41.8,41.7,46.89,50.37c12.46-3.77,23.17-3.48,31.89,0.9c7.41,3.72,11.51,9.53,13.55,13.41
      c24.26-3.2,64.92-6.81,85.75,28.09c11.51,19.29,6.07,35.53-0.52,45.76c-5.29,8.21-12.08,13.78-15.12,16.03
      c-8.99,29.8-31.01,50.86-63.79,60.98c-15.94,4.92-30.72,6.15-39.5,6.38c4.15,11.75,4.98,30.03-10.89,46.21l-0.21,0.2
      c-16.35,14.84-33.66,16.96-45.31,16.13c-7.44-0.53-13.54-2.3-17.36-3.69c-14.12,21.96-33.24,28.94-47.14,30.88
      c-12.36,1.72-22.63-0.17-26.75-1.14C601.59,710.95,569.14,724.17,529.49,724.17z M421.31,670.13l2.21,2.28
      c0.32,0.33,32.62,33.02,84.04,40.26c51.68,7.27,98.7-14.72,99.17-14.95l1.75-0.83l1.86,0.56c1.74,0.52,43.17,12.36,66.51-28.42
      l2.37-4.15l4.25,2.18c1.18,0.6,29.54,14.52,55.59-9.02c19.23-19.72,6.34-40.58,5.78-41.46l-5.27-8.29l9.79,0.61
      c0.21,0.02,21.35,1.22,44.45-5.97c30.27-9.42,49.56-28.19,57.33-55.76l0.51-1.81l1.57-1.02c1.27-0.84,31.1-20.91,14.09-49.41
      c-17.12-28.68-48.68-27-79.54-22.81l-4.23,0.57l-1.23-4.08c-0.09-0.27-2.49-7.58-10.34-11.44c-7.08-3.49-16.48-3.15-27.93,0.99
      l-4.21,1.52l-1.98-4.01c-0.13-0.26-13.81-27.27-46.35-50.87c-29.99-21.74-82.69-45-163.49-32.28l-2.17,0.34l-1.72-1.37
      c-0.1-0.08-10.98-8.56-29.04-13.4c-24.08-6.45-48.9-3.73-73.77,8.1c-57.66,27.42-51.83,53.98-51.76,54.24l2.27,7.93l-8.1-1.74
      c-0.77-0.15-19.6-3.54-37.94,14.1l-1.72,1.66l-2.37-0.3c-0.65-0.08-65.56-7.86-96.85,18.86c-27.99,23.9-32.42,50.26-13.94,82.95
      l2.59,4.59l-4.71,2.34c-1.46,0.74-34.46,17.97-23.98,58.27c3.21,12.35,10.21,21.56,20.81,27.38
      c18.68,10.24,49.46,10.01,82.35-0.64l3.09-1l2.17,2.41c0.13,0.14,13.61,14.91,35.8,26.38c29.39,15.19,59.43,17.72,89.28,7.54
      L421.31,670.13z"/>
  </g>
</g>
<g id="Lightning_Bolt">
  <g>
    <polygon class="st0" points="275.35,279.84 368.73,280.53 491.56,410.68 461.61,410.15 586.59,540.04 557.14,540.04 
      679.81,668.95 646.68,668.95 767.81,794.28 549.63,668.06 614.62,641.76 613.65,640.87 461.25,540.98 524.59,513.25 371.58,410.3 
      424.59,384.66     "/>
    <path class="st2" d="M769.35,800.95L538.27,667.26l65.86-26.65L450.78,540.1l63.47-27.79L361.57,409.59l53.19-25.73L259.37,274.72
      l111.53,0.83l132.45,140.35l-29.79-0.53l124.78,129.67H568.8l122.67,128.92h-33l116.59,120.6L769.35,800.95 M623.82,643.43
      l-62.83,25.43l178.38,103.2l-104.48-108.1h33.26L545.48,535.04h29.36l-125.19-130.1l30.11,0.54L366.55,285.51l-75.21-0.56
      l143.08,100.5l-52.83,25.55l153.34,103.17l-63.23,27.68L623.82,643.43z"/>
  </g>
</g>
<g id="Layer_8">
  <g>
    <path class="st4" d="M339.86,879.67l-53.47,82.44l-20.08-13.02l16.98-61.24c-4.94,9.02-9.25,16.71-12.96,23.08
      c-3.7,6.37-6.95,11.71-9.75,16.03l-8.4,12.95L235,928.78l53.47-82.44l20.13,13.06l-17.88,62.86c3.73-7.31,7.47-14.28,11.23-20.89
      c3.76-6.61,7.6-12.95,11.54-19.02l9.03-13.92L339.86,879.67z"/>
    <path class="st4" d="M268.41,830.35l-86.11,51.96l-18.77-19.84l56.82-82.92l15.79,16.68l-11.7,15.02l12.41,13.12l15.65-10.85
      L268.41,830.35z M222.34,834.86l-9.08-9.59l-26.63,34.24L222.34,834.86z"/>
    <path class="st4" d="M198.58,746.23l-68.29,40.08l9.3,15.85l-16.46,9.66l-30.74-52.39l16.45-9.66l9.78,16.67l68.3-40.07
      L198.58,746.23z"/>
    <path class="st4" d="M165.76,681.43l-92.97,31.81l-7.44-21.74l92.97-31.81L165.76,681.43z"/>
    <path class="st4" d="M99.16,633.71c-5.9,0.82-10.99,1.43-15.27,1.81c-4.28,0.38-7.8,0.55-10.56,0.51
      c-5.51-0.09-9.92-0.89-13.22-2.41c-4.73-2.17-8.44-5.36-11.13-9.56c-2.69-4.2-4.48-9.48-5.37-15.84
      c-0.89-6.4-0.62-11.96,0.83-16.67c1.45-4.71,4.15-8.76,8.1-12.15c2.83-2.5,6.86-4.52,12.1-6.07c2.64-0.8,6.06-1.6,10.26-2.4
      c4.2-0.8,9.26-1.62,15.15-2.44c5.86-0.82,10.92-1.42,15.18-1.8c4.26-0.38,7.79-0.55,10.59-0.51c5.46,0.05,9.9,0.9,13.3,2.52
      c9.23,4.29,14.73,12.72,16.48,25.27c1.76,12.6-1.21,22.25-8.91,28.95c-2.76,2.36-6.78,4.34-12.06,5.94
      c-2.64,0.8-6.07,1.6-10.29,2.4C110.12,632.07,105.06,632.88,99.16,633.71z M84.52,592.97c-10.78,1.51-17.34,3.13-19.68,4.87
      c-2.39,1.67-3.33,4.31-2.82,7.93c0.49,3.5,2.13,5.74,4.93,6.72c2.8,0.98,9.53,0.73,20.19-0.76l17.57-2.45
      c10.45-1.46,16.97-3.06,19.56-4.79c2.47-1.67,3.45-4.33,2.95-7.95c-0.49-3.54-2.14-5.8-4.94-6.78c-2.8-0.98-9.53-0.73-20.19,0.76
      L84.52,592.97z"/>
    <path class="st4" d="M138.49,532.45l-97.73-10.26l2.5-23.8l62.28-12.64c-10.27-0.31-19.09-0.67-26.45-1.08
      c-7.36-0.41-13.59-0.88-18.71-1.42l-15.36-1.61l2.14-20.37l97.73,10.26l-2.5,23.86l-64.13,12.58c8.21,0.01,16.12,0.18,23.71,0.53
      c7.6,0.35,14.99,0.9,22.19,1.66l16.5,1.73L138.49,532.45z"/>
    <path class="st4" d="M150.53,444.58l-85.12-53.56l9.28-25.68l99.61,13.48l-7.81,21.6l-18.68-3.7l-6.14,16.98l16.73,9.1
      L150.53,444.58z M125.8,405.45l4.49-12.42l-42.56-8.39L125.8,405.45z"/>
    <path class="st4" d="M214.32,312.7l-27.06,42.75l-83.03-52.55l12.29-19.41l66.26,41.94l14.78-23.35L214.32,312.7z"/>
    <path class="st4" d="M281.98,241.95l-71.3-70.39l19.13-12.95l31.12,36.64c1.73,2.02,3.29,3.85,4.68,5.5
      c1.4,1.65,2.68,3.18,3.85,4.6c1.17,1.42,2.23,2.73,3.19,3.92c0.96,1.2,1.89,2.34,2.79,3.43c-4.11-7.13-7.67-13.87-10.67-20.21
      l-20.64-43.58l19.13-12.95l32.55,35.45c0.69,0.72,1.75,1.91,3.19,3.58c1.44,1.67,3.3,3.84,5.57,6.52
      c2.62,3.11,4.72,5.54,6.32,7.28c-1.49-2.58-2.8-4.88-3.93-6.89c-1.13-2.01-2.1-3.77-2.91-5.27c-0.81-1.5-1.55-2.88-2.21-4.12
      c-0.66-1.25-1.25-2.36-1.77-3.35l-22.64-42.77l19.18-12.98l38.96,92.28l-20.55,13.91l-27.22-30.66c-2.41-2.73-4.86-5.61-7.34-8.63
      c-2.48-3.02-5.04-6.21-7.67-9.56c2.44,4.21,4.57,7.98,6.39,11.32c1.82,3.34,3.49,6.5,5,9.49l18.48,36.41L281.98,241.95z"/>
    <path class="st4" d="M376.42,186.69l-31.3-93.14l50.68-17.03l6.08,18.09l-29.03,9.75l5.75,17.12l26.79-9l6.28,18.69l-26.79,9
      l6.83,20.32l29.03-9.75l6.36,18.93L376.42,186.69z"/>
    <path class="st4" d="M452.34,163.4l12.14-99.84L491.67,61l30.29,95.85L499.09,159l-4.62-18.47l-17.98,1.69l-1.1,19.01
      L452.34,163.4z M477.19,124.34l13.15-1.24l-10.56-42.08L477.19,124.34z"/>
    <path class="st4" d="M560.39,160.12l10.26-78.52l-18.22-2.38l2.47-18.92l60.23,7.87l-2.47,18.92l-19.17-2.51l-10.26,78.52
      L560.39,160.12z"/>
    <path class="st4" d="M630.81,172.68L666.18,81l21.43,8.27l-13.37,34.65l17.2,6.64l13.37-34.64l20.95,8.09l-35.38,91.67
      l-20.95-8.09l14.68-38.04l-17.2-6.64l-14.68,38.04L630.81,172.68z"/>
    <path class="st4" d="M720.51,212.46l56.08-80.69l43.91,30.52l-10.89,15.67l-25.15-17.48l-10.31,14.83l23.21,16.13l-11.25,16.19
      L762.9,191.5l-12.24,17.6l25.15,17.48l-11.4,16.4L720.51,212.46z"/>
    <path class="st4" d="M786.94,262.37l72.91-65.88l17.32,19.17c5.73,6.34,9.55,11.18,11.46,14.49c2.03,3.38,3.11,6.59,3.26,9.61
      c0.18,3.62-0.52,7.07-2.08,10.35c-1.57,3.28-4.07,6.47-7.51,9.58c-4.2,3.79-8.38,6.24-12.55,7.34c-4.17,1.1-8.56,0.93-13.19-0.51
      c2.43,7.38-0.6,15.16-9.09,23.35l-0.24,0.21c-0.41,0.43-0.95,0.95-1.61,1.54c-0.66,0.6-1.42,1.31-2.28,2.14
      c-8.09,7.6-12.01,13.61-11.75,18.02l-18.01-19.93c1.12-1.81,2.41-3.57,3.88-5.27c1.47-1.7,3.15-3.41,5.05-5.12
      c0.6-0.54,1.25-1.12,1.96-1.73c0.71-0.61,1.49-1.27,2.34-1.98c0.85-0.71,1.56-1.31,2.12-1.79c0.57-0.48,0.97-0.84,1.23-1.07
      c4.45-4.02,6.97-7.36,7.56-10.01c0.58-2.65-0.49-5.49-3.23-8.52l-3.17-3.5l-29.16,26.35L786.94,262.37z M844.73,240.77
      c0.26,0.28,0.58,0.67,0.96,1.16c0.38,0.49,0.67,0.84,0.87,1.06c3.17,3.5,6.13,5.35,8.89,5.56c2.76,0.2,5.83-1.23,9.21-4.28
      c1.55-1.4,2.71-2.77,3.51-4.11c0.79-1.35,1.18-2.71,1.16-4.1c-0.02-1.39-0.43-2.84-1.23-4.35c-0.8-1.52-1.99-3.16-3.59-4.92
      c-0.2-0.22-0.52-0.55-0.97-0.98c-0.45-0.43-0.8-0.79-1.05-1.07L844.73,240.77z"/>
    <path class="st4" d="M913.29,396.55l-2.72,0.93c-5.11,1.75-8.51,3.58-10.19,5.51c-1.68,1.92-2.03,4.31-1.05,7.17
      c0.79,2.29,2.19,3.84,4.21,4.63c2.02,0.79,4.42,0.71,7.2-0.24c4.47-1.53,7.68-6.25,9.65-14.16l0.8-2.97l0.31-1.25
      c2.86-10.69,5.43-17.64,7.71-20.84c1.77-2.32,3.91-4.35,6.41-6.1c2.5-1.76,5.44-3.21,8.82-4.37c8.09-2.77,15.27-2.6,21.55,0.52
      c6.22,3.08,10.76,8.77,13.59,17.06c3.08,9.01,3.17,16.65,0.25,22.91c-2.92,6.26-8.7,10.87-17.35,13.83
      c-0.36,0.12-0.87,0.28-1.53,0.46c-0.66,0.18-1.17,0.33-1.53,0.46l-6.67-19.5l1.15-0.39c4.11-1.4,6.98-3.1,8.62-5.07
      c1.64-1.98,2.04-4.17,1.22-6.59c-0.7-2.05-2-3.45-3.9-4.2c-1.9-0.75-4.05-0.71-6.47,0.12c-3.94,1.35-6.92,6.32-8.92,14.92
      l-0.92,3.62c-0.07,0.34-0.16,0.74-0.29,1.21c-0.13,0.47-0.27,1.02-0.41,1.66c-2.25,9.31-4.65,15.57-7.2,18.78
      c-1.72,2.07-3.81,3.92-6.26,5.55c-2.46,1.63-5.27,2.98-8.45,4.07c-4.67,1.6-9.01,2.4-13.04,2.4c-4.02,0-7.67-0.76-10.93-2.29
      c-3.27-1.54-6.14-3.82-8.62-6.86c-2.48-3.04-4.48-6.79-6.01-11.26c-6.46-18.88-0.13-31.58,18.99-38.12
      c0.6-0.21,1.24-0.41,1.91-0.62c0.67-0.21,1.75-0.5,3.24-0.87L913.29,396.55z"/>
    <path class="st4" d="M900.88,474.02l97.66-10.83l5.9,53.14l-18.96,2.1l-3.38-30.44l-17.95,1.99l3.12,28.09l-19.6,2.17l-3.12-28.09
      l-21.31,2.36l3.38,30.44l-19.85,2.2L900.88,474.02z"/>
    <path class="st4" d="M906.87,558.72l97.51,12.16l-3.2,25.64c-1.06,8.49-2.22,14.53-3.49,18.15c-1.24,3.75-2.95,6.66-5.14,8.75
      c-2.63,2.5-5.69,4.23-9.2,5.19s-7.56,1.15-12.16,0.57c-5.62-0.7-10.2-2.27-13.75-4.71s-6.3-5.88-8.23-10.32
      c-4,6.66-11.88,9.45-23.61,8.37l-0.32-0.04c-0.6-0.03-1.34-0.1-2.22-0.21c-0.89-0.11-1.92-0.22-3.11-0.32
      c-11.04-1.16-18.15-0.21-21.32,2.87l3.32-26.66c2.1-0.34,4.28-0.51,6.53-0.5c2.25,0,4.64,0.16,7.17,0.48
      c0.8,0.1,1.67,0.22,2.59,0.35c0.92,0.14,1.93,0.3,3.03,0.47c1.09,0.18,2.01,0.32,2.74,0.44c0.74,0.11,1.27,0.19,1.61,0.23
      c5.95,0.74,10.12,0.47,12.51-0.82s3.84-3.96,4.34-8.01l0.58-4.69l-39-4.87L906.87,558.72z M960.98,588.36
      c-0.05,0.38-0.13,0.87-0.25,1.48c-0.12,0.61-0.2,1.06-0.23,1.35c-0.58,4.69-0.05,8.14,1.6,10.36c1.65,2.22,4.74,3.61,9.25,4.18
      c2.07,0.26,3.87,0.25,5.41-0.03c1.54-0.28,2.82-0.88,3.86-1.8c1.04-0.92,1.87-2.18,2.5-3.77c0.63-1.59,1.09-3.57,1.38-5.94
      c0.04-0.3,0.07-0.75,0.11-1.37s0.08-1.12,0.12-1.5L960.98,588.36z"/>
    <path class="st4" d="M886.41,663.26l99.71,13.95l-8.54,22.76l-51.31-10.18c-2.29-0.45-5.28-1.1-8.97-1.97
      c-3.7-0.87-7.68-1.85-11.95-2.95l1.07,0.6c4.61,2.37,8.4,4.32,11.36,5.86c2.96,1.54,5.13,2.68,6.49,3.42l45.41,26.29l-8.51,22.7
      L877,688.36L886.41,663.26z"/>
    <path class="st4" d="M854.49,733.82l83.54,51.73l-12.09,19.53l-83.54-51.73L854.49,733.82z"/>
    <path class="st4" d="M820.61,839.76l-15.61,16.32c-0.46-0.38-0.94-0.8-1.45-1.25c-0.51-0.46-1.25-1.15-2.24-2.09
      c-8.67-8.29-13.28-16.34-13.85-24.15c-0.56-7.81,2.9-15.63,10.4-23.47c8.79-9.19,18.2-12.84,28.23-10.96
      c3.57,0.7,7.61,2.63,12.13,5.78c2.26,1.57,5.02,3.77,8.27,6.59c3.25,2.81,7.03,6.28,11.33,10.4c4.3,4.12,7.93,7.73,10.89,10.86
      c2.96,3.12,5.27,5.78,6.95,7.97c3.35,4.38,5.45,8.33,6.31,11.87c2.33,9.94-0.82,19.41-9.43,28.42
      c-14.88,15.55-30.94,15.08-48.18-1.41l-0.69-0.66l15.48-16.09c4.86,4.58,8.77,7.27,11.73,8.04c2.97,0.84,5.63,0.03,7.98-2.43
      c2.59-2.71,3.14-5.68,1.65-8.93c-1.46-3.28-7.27-9.78-17.45-19.51l-1.34-1.28c-10.94-10.47-18.15-16.42-21.61-17.84
      c-3.4-1.37-6.38-0.72-8.94,1.96c-2.41,2.52-3.18,5.11-2.31,7.77c0.81,2.72,3.68,6.43,8.6,11.14L820.61,839.76z"/>
    <path class="st4" d="M751.11,850.57l52.87,82.83l-45.07,28.77l-10.27-16.08l25.82-16.48l-9.72-15.22l-23.83,15.21l-10.61-16.62
      l23.83-15.21l-11.54-18.07l-25.82,16.48l-10.75-16.83L751.11,850.57z"/>
  </g>
  <circle class="st2" cx="1625.82" cy="524" r="315"/>
  <path class="st1" d="M1893.08,375.72l-85.29,51.75l-5.19-8.55l85.46-51.86c-25.89-43.09-62.1-79.31-105.19-105.22l-57.21,101.12
    l-8.7-4.92l57.27-101.23c-42.61-23.76-91.46-37.62-143.42-38.46V360.5h-10V218.33c-109.25,1.76-204.75,61.13-257.4,148.99
    l90.75,53.78l-5.1,8.6l-90.65-53.72c-24.38,43.88-38.3,94.34-38.3,148c0,168.56,137.14,305.7,305.7,305.7
    c168.56,0,305.7-137.14,305.7-305.7C1931.52,470.21,1917.56,419.65,1893.08,375.72z"/>
  <polygon class="st4" points="523.21,928.51 535.2,959.67 567.01,960.34 542.61,980.88 550.28,1011.83 523.21,994.98 
    496.13,1011.83 503.8,980.88 479.4,960.34 511.21,959.67   "/>
  <polygon class="st3" points="401.44,928.51 408.64,947.22 427.74,947.63 413.09,959.96 417.7,978.55 401.44,968.43 385.18,978.55 
    389.79,959.96 375.13,947.63 394.24,947.22   "/>
  <polygon class="st3" points="646.24,928.51 653.44,947.22 672.55,947.63 657.9,959.96 662.5,978.55 646.24,968.43 629.98,978.55 
    634.59,959.96 619.94,947.63 639.04,947.22   "/>
  <path class="st2" d="M1465.61,755.61c-2.65,0-5.32-0.08-8.02-0.26c-47.82-3.08-67.8-23.24-68.8-24.1l-0.24-0.22
    c-52.49-50.9-68.9-118.57-69.41-121.43l2.97-0.22c-2.98-22.02-3.08-37.8-2.95-38.46l0.77-4.09l106.35-9.47h506.19l-0.83,6.22
    c-11.09,83.46-64.6,153.35-66.79,156.28l-0.41,0.55l-0.54,0.43c-32.27,27.83-66.44,35.83-107.03,30.05
    c-14.1-2.01-35.77-7.08-59.37-19.83c-0.13,0.06-0.27,0.11-0.4,0.17c-34.16,14.56-62.71,21.87-84.79,21.82
    c-32.16-0.12-59.56-14.37-68.48-19.55C1534.22,739.18,1503.03,755.61,1465.61,755.61z M1390.05,722.99
    c1.62,1.31,25.82,18.66,68.24,21.39c44.06,2.82,82.13-21.65,82.51-21.9l3-1.96l3.01,1.96c0.3,0.19,30.38,19.47,65.53,19.6
    c0.11,0,0.23,0,0.35,0c20.55,0,47.49-7.04,80.08-20.94c3.35-1.43,3.78-1.61,5.04-1.61c1.47,0,2.29,0.45,3.92,1.34
    c26.22,14.38,97.87,42.3,160.69-8.1c4.69-6.5,54.56-70.22,66.4-144.39h-502.3l-97.1,8.66c-0.61,5.7-5.28,16.93-3.43,30.75
    C1326.53,610.68,1341.19,675.51,1390.05,722.99z"/>
  <g class="st5">
    <path class="st6" d="M1304.7,526.4c0,0-38.26,19.06-26.58,64c11.68,44.93,66.41,44.2,109.54,30.24c0,0,54.93,61.07,130.41,35.3
      c0,0,33.06,34.15,86.94,41.73c53.88,7.58,102.02-15.38,102.02-15.38s46.61,14.18,72.3-30.72c0,0,32.23,16.56,61.35-9.87
      c22.55-22.99,6.52-47.77,6.52-47.77s86.93,5.53,106.91-65.37c0,0,35.4-23.07,15.66-56.16c-19.74-33.08-58.14-28.78-84.51-25.2
      c0,0-8.14-26.97-44.76-13.7c0,0-54.88-111.09-215.11-85.87c0,0-45.03-35.89-108.07-5.91c-63.04,29.98-54.45,60.05-54.45,60.05
      s-21.78-4.46-42.41,15.4c0,0-67.34-8.49-100.72,20.01C1286.36,465.69,1287.5,495.99,1304.7,526.4z"/>
    <path class="st7" d="M1627.64,704.22c-7.56,0-15.37-0.48-23.33-1.6c-47.55-6.69-79.03-33.07-87.55-40.99
      c-31.3,9.84-63.91,6.67-94.51-9.24c-18.53-9.63-31.14-21.17-36.05-26.05c-18.65,5.69-58.56,14.69-87.25-1.05
      c-13.11-7.19-21.75-18.5-25.68-33.63c-6.55-25.19,1.72-42.82,9.81-53.18c5.25-6.73,11.07-11.28,14.95-13.88
      c-8.17-15.78-11.35-30.24-9.74-44.09c1.97-16.97,11.46-32.82,28.21-47.11c31.46-26.86,89.64-22.7,102.24-21.43
      c15.06-13.56,30.43-15.63,38.81-15.61c0.65-11.52,8.53-35.79,57.63-59.13c33.95-16.14,62.86-13.58,81.14-8.59
      c15.65,4.27,26.29,10.92,30.36,13.76c36.43-5.5,70.44-4.43,101.13,3.19c25.12,6.23,48.05,16.84,68.17,31.51
      c27.31,19.92,41.8,41.7,46.89,50.37c12.46-3.77,23.17-3.48,31.89,0.9c7.41,3.72,11.51,9.53,13.55,13.41
      c24.26-3.2,64.92-6.81,85.75,28.09c11.51,19.29,6.07,35.53-0.52,45.76c-5.29,8.21-12.08,13.78-15.12,16.03
      c-8.99,29.8-31.01,50.86-63.79,60.98c-15.94,4.92-30.72,6.15-39.5,6.38c4.15,11.75,4.98,30.03-10.89,46.21l-0.21,0.2
      c-16.35,14.84-33.66,16.96-45.31,16.13c-7.44-0.53-13.54-2.3-17.36-3.69c-14.12,21.96-33.24,28.94-47.14,30.88
      c-12.36,1.72-22.63-0.17-26.75-1.14C1699.74,691,1667.28,704.22,1627.64,704.22z M1519.45,650.18l2.21,2.28
      c0.32,0.33,32.62,33.02,84.04,40.26c51.68,7.27,98.7-14.72,99.17-14.95l1.75-0.83l1.86,0.56c1.74,0.52,43.17,12.36,66.51-28.42
      l2.37-4.15l4.25,2.18c1.18,0.6,29.54,14.52,55.59-9.02c19.23-19.72,6.34-40.58,5.78-41.46l-5.27-8.29l9.79,0.61
      c0.21,0.02,21.35,1.22,44.45-5.97c30.27-9.42,49.56-28.19,57.33-55.76l0.51-1.81l1.57-1.02c1.27-0.84,31.1-20.91,14.09-49.41
      c-17.12-28.68-48.68-27-79.54-22.81l-4.23,0.57l-1.23-4.08c-0.09-0.27-2.49-7.58-10.34-11.44c-7.08-3.49-16.48-3.15-27.93,0.99
      l-4.21,1.52l-1.98-4.01c-0.13-0.26-13.81-27.27-46.35-50.87c-29.99-21.74-82.69-45-163.49-32.28l-2.17,0.34l-1.72-1.37
      c-0.1-0.08-10.98-8.56-29.04-13.4c-24.08-6.45-48.9-3.73-73.77,8.1c-57.66,27.42-51.83,53.98-51.76,54.24l2.27,7.93l-8.1-1.74
      c-0.77-0.15-19.6-3.54-37.94,14.1l-1.72,1.66l-2.37-0.3c-0.65-0.08-65.56-7.86-96.85,18.86c-27.99,23.9-32.42,50.26-13.94,82.95
      l2.59,4.59l-4.71,2.34c-1.46,0.74-34.46,17.97-23.98,58.27c3.21,12.35,10.21,21.56,20.81,27.38
      c18.68,10.24,49.46,10.01,82.35-0.64l3.09-1l2.17,2.41c0.13,0.14,13.61,14.91,35.8,26.38c29.39,15.19,59.43,17.72,89.28,7.54
      L1519.45,650.18z"/>
  </g>
  <g class="st5">
    <polygon class="st8" points="1373.5,259.89 1466.87,260.58 1589.7,390.74 1559.75,390.2 1684.73,520.09 1655.28,520.09 
      1777.95,649.01 1744.82,649.01 1865.95,774.34 1647.77,648.11 1712.76,621.81 1711.79,620.92 1559.39,521.03 1622.74,493.3 
      1469.72,390.35 1522.73,364.71     "/>
    <path class="st7" d="M1867.49,781l-231.07-133.69l65.86-26.65l-153.35-100.51l63.47-27.79l-152.69-102.73l53.19-25.73
      l-155.38-109.14l111.53,0.83l132.45,140.35l-29.79-0.53l124.78,129.67h-29.55l122.67,128.92h-33l116.59,120.6L1867.49,781
       M1721.97,623.48l-62.83,25.43l178.38,103.2l-104.48-108.1h33.26l-122.67-128.92h29.36l-125.19-130.1l30.11,0.54L1464.7,265.57
      l-75.21-0.56l143.08,100.5l-52.83,25.55l153.34,103.17l-63.23,27.68L1721.97,623.48z"/>
  </g>
  <g>
    <path class="st4" d="M1438.01,859.72l-53.47,82.44l-20.08-13.02l16.98-61.24c-4.94,9.02-9.25,16.71-12.96,23.08
      c-3.7,6.37-6.95,11.71-9.75,16.03l-8.4,12.95l-17.18-11.14l53.47-82.44l20.13,13.06l-17.88,62.86
      c3.73-7.31,7.47-14.28,11.23-20.89c3.76-6.61,7.6-12.95,11.54-19.02l9.03-13.92L1438.01,859.72z"/>
    <path class="st4" d="M1366.55,810.41l-86.11,51.96l-18.77-19.84l56.82-82.92l15.79,16.68l-11.7,15.02l12.41,13.12l15.65-10.85
      L1366.55,810.41z M1320.48,814.91l-9.08-9.59l-26.63,34.24L1320.48,814.91z"/>
    <path class="st4" d="M1296.72,726.29l-68.29,40.08l9.3,15.85l-16.46,9.66l-30.74-52.39l16.45-9.66l9.78,16.67l68.3-40.07
      L1296.72,726.29z"/>
    <path class="st4" d="M1263.9,661.48l-92.97,31.81l-7.44-21.74l92.97-31.81L1263.9,661.48z"/>
    <path class="st4" d="M1197.3,613.76c-5.9,0.82-10.99,1.43-15.27,1.81c-4.28,0.38-7.8,0.55-10.56,0.51
      c-5.51-0.09-9.92-0.89-13.22-2.41c-4.73-2.17-8.44-5.36-11.13-9.56c-2.69-4.2-4.48-9.48-5.37-15.84
      c-0.89-6.4-0.62-11.96,0.83-16.67c1.45-4.71,4.15-8.76,8.1-12.15c2.83-2.5,6.86-4.52,12.1-6.07c2.64-0.8,6.06-1.6,10.26-2.4
      c4.2-0.8,9.26-1.62,15.15-2.44c5.86-0.82,10.92-1.42,15.18-1.8c4.26-0.38,7.79-0.55,10.59-0.51c5.46,0.05,9.9,0.9,13.3,2.52
      c9.23,4.29,14.73,12.72,16.48,25.27c1.76,12.6-1.21,22.25-8.91,28.95c-2.76,2.36-6.78,4.34-12.06,5.94
      c-2.64,0.8-6.07,1.6-10.29,2.4C1208.26,612.12,1203.2,612.93,1197.3,613.76z M1182.66,573.02c-10.78,1.51-17.34,3.13-19.68,4.87
      c-2.39,1.67-3.33,4.31-2.82,7.93c0.49,3.5,2.13,5.74,4.93,6.72c2.8,0.98,9.53,0.73,20.19-0.76l17.57-2.45
      c10.45-1.46,16.97-3.06,19.56-4.79c2.47-1.67,3.45-4.33,2.95-7.95c-0.49-3.54-2.14-5.8-4.94-6.78c-2.8-0.98-9.53-0.73-20.19,0.76
      L1182.66,573.02z"/>
    <path class="st4" d="M1236.63,512.51l-97.73-10.26l2.5-23.8l62.28-12.64c-10.27-0.31-19.09-0.67-26.45-1.08
      c-7.36-0.41-13.59-0.88-18.71-1.42l-15.36-1.61l2.14-20.37l97.73,10.26l-2.5,23.86l-64.13,12.58c8.21,0.01,16.12,0.18,23.71,0.53
      c7.6,0.35,14.99,0.9,22.19,1.66l16.5,1.73L1236.63,512.51z"/>
    <path class="st4" d="M1248.68,424.63l-85.12-53.56l9.28-25.68l99.61,13.48l-7.81,21.6l-18.68-3.7l-6.14,16.98l16.73,9.1
      L1248.68,424.63z M1223.94,385.5l4.49-12.42l-42.56-8.39L1223.94,385.5z"/>
    <path class="st4" d="M1312.47,292.75l-27.06,42.75l-83.03-52.55l12.29-19.41l66.26,41.94l14.78-23.35L1312.47,292.75z"/>
    <path class="st4" d="M1380.12,222l-71.3-70.39l19.13-12.95l31.12,36.64c1.73,2.02,3.29,3.85,4.68,5.5c1.4,1.65,2.68,3.18,3.85,4.6
      c1.17,1.42,2.23,2.73,3.19,3.92c0.96,1.2,1.89,2.34,2.79,3.43c-4.11-7.13-7.67-13.87-10.67-20.21l-20.64-43.58l19.13-12.95
      l32.55,35.45c0.69,0.72,1.75,1.91,3.19,3.58c1.44,1.67,3.3,3.84,5.57,6.52c2.62,3.11,4.72,5.54,6.32,7.28
      c-1.49-2.58-2.8-4.88-3.93-6.89c-1.13-2.01-2.1-3.77-2.91-5.27c-0.81-1.5-1.55-2.88-2.21-4.12c-0.66-1.25-1.25-2.36-1.77-3.35
      l-22.64-42.77l19.18-12.98l38.96,92.28l-20.55,13.91l-27.22-30.66c-2.41-2.73-4.86-5.61-7.34-8.63c-2.48-3.02-5.04-6.21-7.67-9.56
      c2.44,4.21,4.57,7.98,6.39,11.32c1.82,3.34,3.49,6.5,5,9.49l18.48,36.41L1380.12,222z"/>
    <path class="st4" d="M1474.56,166.75l-31.3-93.14l50.68-17.03l6.08,18.09L1471,84.41l5.75,17.12l26.79-9l6.28,18.69l-26.79,9
      l6.83,20.32l29.03-9.75l6.36,18.93L1474.56,166.75z"/>
    <path class="st4" d="M1550.48,143.45l12.14-99.84l27.19-2.56l30.29,95.85l-22.87,2.15l-4.62-18.47l-17.98,1.69l-1.1,19.01
      L1550.48,143.45z M1575.33,104.39l13.15-1.24l-10.56-42.08L1575.33,104.39z"/>
    <path class="st4" d="M1658.53,140.17l10.26-78.52l-18.22-2.38l2.47-18.92l60.23,7.87l-2.47,18.92l-19.17-2.51l-10.26,78.52
      L1658.53,140.17z"/>
    <path class="st4" d="M1728.95,152.73l35.38-91.67l21.43,8.27l-13.37,34.65l17.2,6.64l13.37-34.64l20.95,8.09l-35.38,91.67
      l-20.95-8.09l14.68-38.04l-17.2-6.64L1750.38,161L1728.95,152.73z"/>
    <path class="st4" d="M1818.65,192.52l56.08-80.69l43.91,30.52l-10.89,15.67l-25.15-17.48l-10.31,14.83l23.21,16.13l-11.25,16.19
      l-23.21-16.13l-12.24,17.6l25.15,17.48l-11.4,16.4L1818.65,192.52z"/>
    <path class="st4" d="M1885.08,242.42l72.91-65.88l17.32,19.17c5.73,6.34,9.55,11.18,11.46,14.49c2.03,3.38,3.11,6.59,3.26,9.61
      c0.18,3.62-0.52,7.07-2.08,10.35c-1.57,3.28-4.07,6.47-7.51,9.58c-4.2,3.79-8.38,6.24-12.55,7.34c-4.17,1.1-8.56,0.93-13.19-0.51
      c2.43,7.38-0.6,15.16-9.09,23.35l-0.24,0.21c-0.41,0.43-0.95,0.95-1.61,1.54c-0.66,0.6-1.42,1.31-2.28,2.14
      c-8.09,7.6-12.01,13.61-11.75,18.02l-18.01-19.93c1.12-1.81,2.41-3.57,3.88-5.27c1.47-1.7,3.15-3.41,5.05-5.12
      c0.6-0.54,1.25-1.12,1.96-1.73c0.71-0.61,1.49-1.27,2.34-1.98c0.85-0.71,1.56-1.31,2.12-1.79c0.57-0.48,0.97-0.84,1.23-1.07
      c4.45-4.02,6.97-7.36,7.56-10.01c0.58-2.65-0.49-5.49-3.23-8.52l-3.17-3.5l-29.16,26.35L1885.08,242.42z M1942.87,220.82
      c0.26,0.28,0.58,0.67,0.96,1.16c0.38,0.49,0.67,0.84,0.87,1.06c3.17,3.5,6.13,5.35,8.89,5.56c2.76,0.2,5.83-1.23,9.21-4.28
      c1.55-1.4,2.71-2.77,3.51-4.11c0.79-1.35,1.18-2.71,1.16-4.1c-0.02-1.39-0.43-2.84-1.23-4.35c-0.8-1.52-1.99-3.16-3.59-4.92
      c-0.2-0.22-0.52-0.55-0.97-0.98c-0.45-0.43-0.8-0.79-1.05-1.07L1942.87,220.82z"/>
    <path class="st4" d="M2011.43,376.6l-2.72,0.93c-5.11,1.75-8.51,3.58-10.19,5.51c-1.68,1.92-2.03,4.31-1.05,7.17
      c0.79,2.29,2.19,3.84,4.21,4.63c2.02,0.79,4.42,0.71,7.2-0.24c4.47-1.53,7.68-6.25,9.65-14.16l0.8-2.97l0.31-1.25
      c2.86-10.69,5.43-17.64,7.71-20.84c1.77-2.32,3.91-4.35,6.41-6.1c2.5-1.76,5.44-3.21,8.82-4.37c8.09-2.77,15.27-2.6,21.55,0.52
      c6.22,3.08,10.76,8.77,13.59,17.06c3.08,9.01,3.17,16.65,0.25,22.91c-2.92,6.26-8.7,10.87-17.35,13.83
      c-0.36,0.12-0.87,0.28-1.53,0.46c-0.66,0.18-1.17,0.33-1.53,0.46l-6.67-19.5l1.15-0.39c4.11-1.4,6.98-3.1,8.62-5.07
      c1.64-1.98,2.04-4.17,1.22-6.59c-0.7-2.05-2-3.45-3.9-4.2c-1.9-0.75-4.05-0.71-6.47,0.12c-3.94,1.35-6.92,6.32-8.92,14.92
      l-0.92,3.62c-0.07,0.34-0.16,0.74-0.29,1.21c-0.13,0.47-0.27,1.02-0.41,1.66c-2.25,9.31-4.65,15.57-7.2,18.78
      c-1.72,2.07-3.81,3.92-6.26,5.55c-2.46,1.63-5.27,2.98-8.45,4.07c-4.67,1.6-9.01,2.4-13.04,2.4c-4.02,0-7.67-0.76-10.93-2.29
      c-3.27-1.54-6.14-3.82-8.62-6.86c-2.48-3.04-4.48-6.79-6.01-11.26c-6.46-18.88-0.13-31.58,18.99-38.12
      c0.6-0.21,1.24-0.41,1.91-0.62c0.67-0.21,1.75-0.5,3.24-0.87L2011.43,376.6z"/>
    <path class="st4" d="M1999.02,454.07l97.66-10.83l5.9,53.14l-18.96,2.1l-3.38-30.44l-17.95,1.99l3.12,28.09l-19.6,2.17
      l-3.12-28.09l-21.31,2.36l3.38,30.44l-19.85,2.2L1999.02,454.07z"/>
    <path class="st4" d="M2005.01,538.78l97.51,12.16l-3.2,25.64c-1.06,8.49-2.22,14.53-3.49,18.15c-1.24,3.75-2.95,6.66-5.14,8.75
      c-2.63,2.5-5.69,4.23-9.2,5.19s-7.56,1.15-12.16,0.57c-5.62-0.7-10.2-2.27-13.75-4.71s-6.3-5.88-8.23-10.32
      c-4,6.66-11.88,9.45-23.61,8.37l-0.32-0.04c-0.6-0.03-1.34-0.1-2.22-0.21c-0.89-0.11-1.92-0.22-3.11-0.32
      c-11.04-1.16-18.15-0.21-21.32,2.87l3.32-26.66c2.1-0.34,4.28-0.51,6.53-0.5c2.25,0,4.64,0.16,7.17,0.48
      c0.8,0.1,1.67,0.22,2.59,0.35c0.92,0.14,1.93,0.3,3.03,0.47c1.09,0.18,2.01,0.32,2.74,0.44c0.74,0.11,1.27,0.19,1.61,0.23
      c5.95,0.74,10.12,0.47,12.51-0.82s3.84-3.96,4.34-8.01l0.58-4.69l-39-4.87L2005.01,538.78z M2059.12,568.42
      c-0.05,0.38-0.13,0.87-0.25,1.48c-0.12,0.61-0.2,1.06-0.23,1.35c-0.58,4.69-0.05,8.14,1.6,10.36c1.65,2.22,4.74,3.61,9.25,4.18
      c2.07,0.26,3.87,0.25,5.41-0.03c1.54-0.28,2.82-0.88,3.86-1.8c1.04-0.92,1.87-2.18,2.5-3.77c0.63-1.59,1.09-3.57,1.38-5.94
      c0.04-0.3,0.07-0.75,0.11-1.37s0.08-1.12,0.12-1.5L2059.12,568.42z"/>
    <path class="st4" d="M1984.55,643.32l99.71,13.95l-8.54,22.76l-51.31-10.18c-2.29-0.45-5.28-1.1-8.97-1.97
      c-3.7-0.87-7.68-1.85-11.95-2.95l1.07,0.6c4.61,2.37,8.4,4.32,11.36,5.86c2.96,1.54,5.13,2.68,6.49,3.42l45.41,26.29l-8.51,22.7
      l-84.17-55.41L1984.55,643.32z"/>
    <path class="st4" d="M1952.63,713.87l83.54,51.73l-12.09,19.53l-83.54-51.73L1952.63,713.87z"/>
    <path class="st4" d="M1918.75,819.81l-15.61,16.32c-0.46-0.38-0.94-0.8-1.45-1.25c-0.51-0.46-1.25-1.15-2.24-2.09
      c-8.67-8.29-13.28-16.34-13.85-24.15c-0.56-7.81,2.9-15.63,10.4-23.47c8.79-9.19,18.2-12.84,28.23-10.96
      c3.57,0.7,7.61,2.63,12.13,5.78c2.26,1.57,5.02,3.77,8.27,6.59c3.25,2.81,7.03,6.28,11.33,10.4c4.3,4.12,7.93,7.73,10.89,10.86
      c2.96,3.12,5.27,5.78,6.95,7.97c3.35,4.38,5.45,8.33,6.31,11.87c2.33,9.94-0.82,19.41-9.43,28.42
      c-14.88,15.55-30.94,15.08-48.18-1.41l-0.69-0.66l15.48-16.09c4.86,4.58,8.77,7.27,11.73,8.04c2.97,0.84,5.63,0.03,7.98-2.43
      c2.59-2.71,3.14-5.68,1.65-8.93c-1.46-3.28-7.27-9.78-17.45-19.51l-1.34-1.28c-10.94-10.47-18.15-16.42-21.61-17.84
      c-3.4-1.37-6.38-0.72-8.94,1.96c-2.41,2.52-3.18,5.11-2.31,7.77c0.81,2.72,3.68,6.43,8.6,11.14L1918.75,819.81z"/>
    <path class="st4" d="M1849.26,830.62l52.87,82.83l-45.07,28.77l-10.27-16.08l25.82-16.48l-9.72-15.22l-23.83,15.21l-10.61-16.62
      l23.83-15.21l-11.54-18.07l-25.82,16.48l-10.75-16.83L1849.26,830.62z"/>
  </g>
  <polygon class="st4" points="1621.35,908.57 1633.34,939.72 1665.15,940.39 1640.75,960.93 1648.42,991.89 1621.35,975.03 
    1594.28,991.89 1601.94,960.93 1577.54,940.39 1609.35,939.72   "/>
  <polygon class="st3" points="1499.58,908.57 1506.78,927.27 1525.89,927.68 1511.24,940.01 1515.84,958.6 1499.58,948.48 
    1483.32,958.6 1487.93,940.01 1473.28,927.68 1492.38,927.27   "/>
  <polygon class="st3" points="1744.38,908.57 1751.59,927.27 1770.69,927.68 1756.04,940.01 1760.64,958.6 1744.38,948.48 
    1728.13,958.6 1732.73,940.01 1718.08,927.68 1737.18,927.27   "/>
</g>
</svg>
