<?xml version="1.0" encoding="utf-8"?>
<!-- Generator: Adobe Illustrator 19.0.0, SVG Export Plug-In . SVG Version: 6.00 Build 0)  -->
<svg version="1.1" id="Layer_1" xmlns="http://www.w3.org/2000/svg" xmlns:xlink="http://www.w3.org/1999/xlink" x="0px" y="0px"
   viewBox="0 0 50 50" style="enable-background:new 0 0 50 50;" xml:space="preserve"  width="50" height="50">
<style type="text/css">
  .st0{fill:#FFFFFF;}
</style>
<path class="st0" d="M20.5,41.6L20.5,41.6L20.5,41.6L20.5,41.6z M18.8,48.9c-0.6,0-1-0.4-1-1v-2.3l-2.4,2.3c-0.4,0.4-1,0.5-1.4,0.2
  L14,47.9c-0.2-0.2-0.4-0.6-0.1-1.3l0.1-0.1l3.9-3.9v-7.2L11,39.3l-1.6,5.1l-0.1,0.1c-0.1,0.1-0.3,0.3-0.7,0.3H8.5
  c-0.1,0-0.3,0-0.5-0.1c-0.2-0.1-0.4-0.3-0.5-0.5c-0.1-0.3,0-0.5,0-0.6l0.9-3l-2.1,1.1c-0.2,0.2-0.5,0.2-0.7,0.2
  c-0.3,0-0.5-0.2-0.6-0.3l-0.1-0.1c-0.1-0.3-0.1-0.6,0-0.9c0.1-0.2,0.3-0.4,0.5-0.5l1.9-1.1L4.1,38c-0.5,0-0.9-0.5-0.9-1.1
  c0-0.4,0.4-0.9,1.1-0.9l0.1,0l5.3,1.4l6.5-3.8L9.8,30l-5.3,1.5c-0.3,0-0.6,0-0.9-0.2l-0.1-0.1v-0.1c0-0.1-0.1-0.2-0.1-0.4
  c0-0.3,0.2-0.6,0.3-0.8l0.1-0.1c0.1,0,0.1-0.1,0.2-0.1c0.1-0.1,0.2-0.1,0.4-0.2l3.1-0.9l-1.9-1.1C5.2,27.4,5,27,5,26.7
  c0-0.1,0-0.4,0.1-0.6c0.1-0.3,0.5-0.5,0.8-0.5c0.1,0,0.5,0,0.7,0.2l1.8,1L7.6,24c-0.2-0.5,0-1,0.5-1.2c0.3-0.1,0.6-0.1,0.9,0
  c0.2,0.1,0.4,0.3,0.5,0.5l1.5,5l6.8,3.9V25l-4-4c-0.2-0.3-0.2-0.6-0.2-0.7c0-0.3,0.2-0.5,0.3-0.7c0.4-0.4,1.1-0.3,1.5,0.1l2.3,2.3
  v-2.2c0-0.6,0.4-1,1-1s1,0.4,1,1v2.1l2-2.2c0.1-0.1,0.4-0.4,0.7-0.4c0.2,0,0.3,0,0.6,0.2l0.1,0.1c0.2,0.1,0.4,0.4,0.4,0.8
  c0,0.1,0,0.4-0.2,0.7l-3.7,3.8v6.9l5.5-3.1l1.3-5.2c0-0.3,0.3-0.7,0.6-0.8c0.3-0.2,0.5-0.2,0.8,0c0.4,0.2,0.7,0.8,0.5,1.4l-0.8,3.1
  l2-1.1c0.4-0.2,1.1-0.1,1.4,0.3c0.2,0.2,0.2,0.6,0.2,0.7c0,0.3-0.2,0.5-0.3,0.7l-0.1,0.1L28.8,29l2.8,0.7c0.1,0,0.4,0,0.6,0.2
  c0.1,0.1,0.2,0.3,0.2,0.7c0,0.3-0.1,0.6-0.3,0.9c-0.2,0.2-0.5,0.2-0.7,0.2l-0.1,0l-5.1-1.3l-5.8,3.4l5.8,3.4l5.1-1.2
  c0.5-0.2,0.9,0.2,1.2,0.5l0.3,0.3l0,0.1c0.1,0.3,0.1,0.6-0.1,0.8c-0.2,0.2-0.4,0.3-0.7,0.4l-2.8,0.6l1.7,1c0.3,0.1,0.5,0.5,0.5,0.8
  c0,0.2,0,0.5-0.2,0.8c-0.1,0.1-0.3,0.3-0.7,0.3c-0.1,0-0.4,0-0.7-0.2L28,40.2l0.8,3.2c0.2,0.5-0.1,1.2-0.6,1.4l-0.1,0.1h-0.3
  c-0.4,0-0.8-0.2-0.9-0.6l0-0.1l-1.3-5.3L20,35.6v6.9l3.6,3.9c0.2,0.3,0.2,0.6,0,0.9l-0.1,0.1l-0.4,0.4c-0.5,0.3-0.9,0.2-1.2-0.3
  l-2-2v2.2c0,0.4-0.2,0.6-0.3,0.8C19.4,48.7,19.1,48.9,18.8,48.9z M40.3,24.5c-0.6,0-1-0.4-1-1V19l-3.6,2.1c-0.5,0.2-1.1,0-1.3-0.5
  l-0.1-0.1v-0.1c-0.1-0.5,0-1,0.5-1.2l3.8-2.3l-3.8-2.3c-0.5-0.3-0.6-0.8-0.4-1.2v-0.2l0.1-0.1c0.4-0.5,0.9-0.6,1.3-0.4l3.6,2.1v-3.7
  c0-0.6,0.4-1,1-1s1,0.4,1,1V15l4-2.6c0.5-0.2,1.1,0,1.3,0.5l0.1,0.1v0.1c0.1,0.5-0.1,1-0.5,1.2l-3.8,2.3l3.9,2.3
  c0.5,0.5,0.4,1.1,0.3,1.5l0,0v0.2l-0.1,0.1c-0.4,0.5-0.9,0.6-1.3,0.4l-4-2.4v4.7C41.3,24.1,40.9,24.5,40.3,24.5z M19.3,15.1
  c-0.6,0-1-0.4-1-1V9.6l-3.5,2.1c-0.4,0.2-1,0.2-1.4-0.4l-0.1-0.1V11c-0.1-0.4-0.1-0.9,0.4-1.2l3.8-2.3l-3.6-2.2
  c-0.2,0-0.3-0.1-0.4-0.2c-0.2-0.2-0.3-0.5-0.2-0.8v0l0.1-0.2c0.2-0.4,0.8-0.6,1.3-0.5l0.1,0l3.5,2.1V2.1c0-0.6,0.4-1,1-1s1,0.4,1,1
  v3.9l3.9-2.3c0.4-0.2,1-0.2,1.4,0.4l0.1,0.1l0,0.2c0.1,0.4,0.1,0.9-0.4,1.2l-3.8,2.3l3.7,2.2c0.2,0,0.3,0.2,0.4,0.3
  c0.2,0.3,0.2,0.6,0,0.9l0,0.1c-0.2,0.3-0.5,0.5-0.8,0.5c-0.2,0-0.4,0-0.6-0.2l-3.9-2.2v4.7C20.3,14.7,19.9,15.1,19.3,15.1z"/>
</svg>
