<?xml version="1.0" encoding="utf-8"?>
<!-- Generator: Adobe Illustrator 19.0.0, SVG Export Plug-In . SVG Version: 6.00 Build 0)  -->
<svg version="1.1" id="Layer_1" xmlns="http://www.w3.org/2000/svg" xmlns:xlink="http://www.w3.org/1999/xlink" x="0px" y="0px"
   viewBox="0 0 50 50" style="enable-background:new 0 0 50 50;" xml:space="preserve"  width="50" height="50">
<style type="text/css">
  .st0{fill:#FFFFFF;}
</style>
<g>
  <path class="st0" d="M24.4,50c-2.7,0-5.3-0.4-7.7-1.2c-6.3-2.1-11.4-6.5-14.4-12.4L0.6,33L4,34.6c1.1,0.5,2.1,0.9,3.2,1.3
    c12.3,3.8,24.3-3,27.9-14.3c1.9-5.8,1.4-12-1.6-17.4l-2-3.4l3.6,1.7c11.4,5.4,17,18.5,13,30.4C44.7,43.1,35.2,50,24.4,50z
     M6.8,38.4c2.7,3.7,6.5,6.4,11,7.9c12.3,3.7,24.3-3,28-14.4l0,0c1.5-4.7,1.4-10-0.3-14.8c-1.6-4.1-4.5-7.8-8-10.3
    c1.8,5.1,1.9,10.5,0.2,15.8c-3.4,10.2-12.8,17-23.5,17C11.6,39.5,9.1,39.2,6.8,38.4z M8.9,31.3l-0.7-3.8L4.7,26l3.4-1.8l0.4-3.8
    l2.8,2.7l3.7-0.9l-1.7,3.5l2,3.4l-3.8-0.6L8.9,31.3z M9.1,25.8l0.9,0.4l0.2,1.1l0.7-0.8l0.6,0.1l-0.3-0.5l0.5-1.1l-1,0.2l-0.8-0.8
    l-0.1,1L9.1,25.8z M19.6,28.5l-0.1-4.1L16,22.1l3.8-1.4l1.1-4l2.5,3.3l4.1-0.3l-2.3,3.4l1.5,3.8l-4-1.1L19.6,28.5z M20.3,22.5
    l1.1,0.7l0.1,1.6l1.2-1l1.2,0.4l-0.6-1.3l0.8-1.3l-1.5,0.1l-0.9-1.2l-0.5,1.6L20.3,22.5z M9,17.1l-1.2-5.9L2.4,8.9L7.7,6l0.5-6
    l4.3,4.1l5.8-1.4l-2.5,5.4l3.1,5.2L13,12.7L9,17.1z M7.6,8.6l2.3,1l0.6,2.5l1.7-1.9l2.5,0.3l-1.3-2.1l1-2.3L12,6.6l-1.9-1.8
    L9.8,7.5L7.6,8.6z M24.3,14.3l-1.7-2.2L20,12.2l1.3-2.3l-1.1-2.6L23,8.2l2.1-1.6l0.2,2.6l2.2,1.4l-2.5,1L24.3,14.3z"/>
</g>
</svg>
