<?xml version="1.0" encoding="utf-8"?>
<!-- Generator: Adobe Illustrator 19.0.0, SVG Export Plug-In . SVG Version: 6.00 Build 0)  -->
<svg version="1.1" id="Layer_1" xmlns="http://www.w3.org/2000/svg" xmlns:xlink="http://www.w3.org/1999/xlink" x="0px" y="0px"
   viewBox="0 0 50 50" style="enable-background:new 0 0 50 50;" xml:space="preserve"  width="50" height="50">
<style type="text/css">
  .st0{fill:#FFFFFF;}
</style>
<path class="st0" d="M31.7,41.5H17.6c-0.7,0-1.4-0.6-1.4-1.4c0-0.7,0.6-1.3,1.4-1.3h14.2c0.7,0,1.4,0.6,1.4,1.3
  C33.1,40.8,32.4,41.5,31.7,41.5z M48.3,33.9c-0.1,0-0.1,0-0.2,0H23.6c-0.7,0-1.4-0.6-1.4-1.3s0.6-1.3,1.4-1.3h24.6
  c0.7,0,1.3,0.6,1.3,1.3c0,0.5-0.2,0.9-0.6,1.1C48.7,33.8,48.5,33.9,48.3,33.9z M19.1,33.9c-0.1,0-0.1,0-0.2,0H8.2
  c-0.7,0-1.3-0.6-1.3-1.3s0.6-1.3,1.3-1.3h10.6c0.7,0,1.4,0.6,1.4,1.3c0,0.5-0.2,0.9-0.5,1.2C19.5,33.8,19.3,33.9,19.1,33.9z
   M43.8,26.3h-5.4c-0.7,0-1.4-0.6-1.4-1.3c0-0.7,0.6-1.4,1.4-1.4h5.4c0.7,0,1.4,0.6,1.4,1.4C45.1,25.7,44.5,26.3,43.8,26.3z M34,26.3
  H1.9c-0.7,0-1.4-0.6-1.4-1.3c0-0.7,0.6-1.4,1.4-1.4H34c0.7,0,1.4,0.6,1.4,1.4C35.4,25.7,34.8,26.3,34,26.3z M48.2,18.9H30.7
  c-0.7,0-1.4-0.6-1.4-1.4s0.6-1.4,1.4-1.4h17.5c0.7,0,1.3,0.6,1.3,1.4S48.9,18.9,48.2,18.9z M25.7,18.9H9.6c-0.7,0-1.4-0.6-1.4-1.4
  s0.6-1.4,1.4-1.4h16.1c0.7,0,1.3,0.6,1.3,1.4S26.4,18.9,25.7,18.9z M35.2,11.2H16.1c-0.7,0-1.4-0.6-1.4-1.4s0.6-1.4,1.4-1.4h19.2
  c0.7,0,1.4,0.6,1.4,1.4C36.6,10.7,36,11.2,35.2,11.2z"/>
</svg>
