<?xml version="1.0" encoding="utf-8"?>
<!-- Generator: Adobe Illustrator 19.0.0, SVG Export Plug-In . SVG Version: 6.00 Build 0)  -->
<svg version="1.1" id="Layer_1" xmlns="http://www.w3.org/2000/svg" xmlns:xlink="http://www.w3.org/1999/xlink" x="0px" y="0px"
   viewBox="0 0 50 50" style="enable-background:new 0 0 50 50;" xml:space="preserve"  width="50" height="50">
<style type="text/css">
  .st0{fill:#FFFFFF;}
</style>
<path id="XMLID_30_" class="st0" d="M33.7,47.4C32,47.4,32,45.6,32,44c0-0.8-0.1-1.9-0.3-2.9c-0.2-1.3-0.4-2.6-0.4-3.8
  c0-0.9-0.1-1.4-0.2-2v-0.2c-0.2-1-0.3-2-0.3-3.7c0-1.3-0.3-2.1-0.6-2.5c-0.2,0.9-0.4,2.4-0.4,4.2c0,1.4-0.3,2.2-0.5,2.8l-0.1,0.2
  c0,0.1-0.1,0.3-0.1,0.5c-0.1,0.4-0.2,0.7-0.2,1.3c0,0.8,0,1.3-0.1,1.7c0,0.2,0,0.4,0,0.5v0.2c-0.1,0.2-0.1,0.6-0.1,1.2
  c0,1.3,0,3.5-1.7,3.5c-1.6,0-1.9-2.6-1.9-4.8V40c-0.4-0.4-0.6-1-0.6-2c0-0.8-0.1-1.4-0.2-2S24,34.7,24,33.5c0-0.8-0.1-1.5-0.2-2.2
  c0-0.2-0.1-0.4-0.1-0.6v-0.2c-0.1-0.5-0.2-1-0.2-1.4s0-0.7,0-0.9c-0.4,0.2-0.8,0.5-1.4,0.5c-0.3,0-0.7,0.2-0.9,0.3v3.7
  c0,0.8-0.1,1.2-0.2,1.5l0,0v0.1c0,0.1-0.1,0.4-0.1,1.1c0,1.2,0,3.2-1.5,3.2c-0.9,0-1.9-1-1.9-3c0-0.2,0-0.2-0.1-0.3l-0.1-0.1
  c-0.1-0.3-0.3-0.6-0.4-1.3c0,0.4,0,0.7,0,0.9c0,0.9,0,1.6-0.5,2.1c0,0.6,0,1.2-0.1,2c-0.1,0.9-0.2,1.9-0.2,2.7
  c0,2.5-0.6,3.8-1.9,3.8c-1.2,0-1.6-0.9-1.6-6.6c0-0.9-0.2-1.4-0.3-2.1v-0.2c-0.2-0.7-0.4-1.5-0.4-2.9c0-1.2-0.2-3-0.4-4.7l-0.2-2.2
  c-0.1-0.9-0.1-1.5-0.1-1.8v-0.6h2.2v0.6c0,0.3,0.1,1.1,0.1,2l0.2,1.8c0.2,1.7,0.4,3.6,0.4,4.9c0,1.1,0.2,1.7,0.3,2.3V36
  c0.1-0.3,0.2-0.5,0.4-0.7V35c0-3.2,0-4.6,1.5-4.6c1,0,2.4,0.7,2.8,2.4l0,0v-4c0-1.4,1.7-2.1,2.8-2.3c0.2-0.1,0.4-0.2,0.6-0.3
  c0.4-0.3,0.9-0.6,1.7-0.5c1.5,0.2,1.5,2.4,1.5,3.4c0,0.3,0.1,0.8,0.2,1.3c0,0.2,0.1,0.4,0.1,0.6c0.1,0.7,0.2,1.5,0.2,2.6
  c0,1,0.1,1.6,0.2,2.2V36c0.1,0.6,0.2,1.2,0.2,2.2c0,0.2,0,0.3,0,0.4c0.1,0,0.1,0.1,0.2,0.1c0-0.2,0-0.4,0-0.7c0-1.2,0.2-1.8,0.4-2.3
  v-0.1c0.2-0.5,0.4-1,0.4-2.2c0-4.5,0.7-6.7,2.2-6.7c1.3,0,3.2,1.3,3.2,5c0,1.2,0.1,2,0.2,2.7c0,0.2,0.1,0.5,0.1,0.7
  c0.1,0.7,0.2,1.4,0.2,2.4c0,0.4,0,0.8,0.1,1.2c0.1-0.8,0.1-1.6,0.1-2.6c0-1.3,0.1-2.3,0.2-3.4c0-0.4,0.1-0.8,0.1-1.2
  c0.2-1.5,0.3-2.7,0.3-4.3v-0.6h2.2V27c0,1.2-0.1,2.2-0.2,3.2c0,0.4-0.1,0.8-0.1,1.3C36,32.9,36,34.3,36,35.9c0,1.3-0.1,2.4-0.2,3.5
  c-0.2,1.3-0.3,2.5-0.3,4.1l0,0c0,2.9-0.5,3.5-1.5,3.9H33.7z M39.3,32.5c-0.6,0-1.2-0.6-1.2-1.2s0.6-1.2,1.2-1.2
  c4.5,0,8.1-3.6,8.1-8.1s-3.6-8.1-8.1-8.1c-0.9,0-1.7,0.1-2.5,0.4l-1.2,0.4l-0.4-1.2c-1.8-5-6.5-8.3-11.7-8.3
  c-6.4,0-11.7,4.8-12.4,11.2l-0.2,1.2l-1.2-0.2c-0.1,0-0.3,0-0.4,0s-0.2,0-0.3,0c-3.5,0-6.3,2.8-6.3,6.3S5.5,30,9,30
  c0.6,0,1.2,0.6,1.2,1.2S9.6,32.4,9,32.4c-4.9,0-8.8-4-8.8-8.8s3.9-8.8,8.7-8.8c1.2-7.1,7.3-12.2,14.7-12.2c5.9,0,11.2,3.5,13.6,8.9
  c0.7-0.1,1.4-0.2,2.1-0.2c5.8,0,10.6,4.8,10.6,10.6C49.7,27.7,45,32.5,39.3,32.5z"/>
</svg>
