<svg width="50" height="50" viewBox="0 0 50 50" fill="none" xmlns="http://www.w3.org/2000/svg">
<path d="M23.6 35.9C33.7 35.9 41.9 31.4 41.9 25.9C41.9 23.6 40.3 21.4 37.3 19.9C34.6 18.5 30.9 17.7 27.1 17.7C20.3 17.7 15 20.7 15 24.6C15 27.2 18 29.4 22.2 30.1C15.9 29.8 10.7 27.2 10.7 24.2C10.7 19.9 17.9 16.5 26.7 16.5C37.9 16.5 47.3 21 47.3 26.3C47.3 26.9 47.8 27.4 48.4 27.4C49 27.4 49.5 26.9 49.5 26.3C49.5 19.6 39.2 14.2 26.6 14.2C16.5 14.2 8.3 18.7 8.3 24.2C8.3 28.8 14.9 32.4 23.4 32.4C30.2 32.4 35.5 29.4 35.5 25.5C35.5 22.9 32.5 20.7 28.4 20C31.4 20.2 34.2 20.8 36.2 21.9C38.4 23 39.6 24.4 39.6 25.9C39.6 30.2 32.4 33.5999 23.6 33.5999C12.4 33.5999 3 29.1 3 23.8C3 23.2 2.5 22.7 1.9 22.7C1.3 22.7 0.799999 23.2 0.799999 23.8C0.699999 30.4 10.9 35.9 23.6 35.9ZM29.5 24.3C30.2 24.6 30.6 25.1 30.6 25.4C30.6 26.1 29.7 26.7 29.2 27C29 27.1 28.7 27.2 28.5 27.3C29.3 26.7 29.7 25.9 29.7 25.1C29.7 24.8 29.6 24.6 29.5 24.3ZM21.8 22.6C21.1 23.2 20.7 23.9 20.7 24.8C20.7 25.1 20.8 25.4 20.9 25.7C20.1 25.3 19.6 24.9 19.6 24.5C19.5 23.9 20.4 23.1 21.8 22.6ZM17.6 23.1C17.4 23.5 17.2 24 17.2 24.5C17.2 24.9 17.3 25.2 17.4 25.5C17.1 25.2 17 24.8 17 24.5C17.1 24.1 17.3 23.6 17.6 23.1ZM27.1 25C26.9 25.2 26.2 25.5 25.2 25.5C24 25.5 23.2 25.1 22.9 24.9C23.1 24.7 23.8 24.4 24.8 24.4C26 24.4 26.8 24.8 27.1 25Z"/>
</svg>
