<?xml version="1.0" encoding="utf-8"?>
<!-- Generator: Adobe Illustrator 19.0.0, SVG Export Plug-In . SVG Version: 6.00 Build 0)  -->
<svg version="1.1" id="Layer_1" xmlns="http://www.w3.org/2000/svg" xmlns:xlink="http://www.w3.org/1999/xlink" x="0px" y="0px"
   viewBox="0 0 50 50" style="enable-background:new 0 0 50 50;" xml:space="preserve"  width="50" height="50">
<style type="text/css">
  .st0{fill:#FFFFFF;}
</style>
<path id="XMLID_38_" class="st0" d="M36,40.5H16.1c-3.3,0-6-2.8-6-6c0-3.2,2.6-5.9,5.8-6c1-4.7,5-8,9.9-8c3.9,0,7.4,2.3,9.1,5.8
  c0.4-0.1,0.8-0.1,1.3-0.1c4,0,7.2,3.2,7.2,7.2S40,40.5,36,40.5z M16.1,30.6c-2.2,0-3.9,1.8-3.9,3.9s1.8,3.9,3.9,3.9H36
  c2.8,0,5.1-2.3,5.1-5.1s-2.3-5.1-5.1-5.1c-0.5,0-1,0.1-1.6,0.3l-1.1,0.3l-0.3-1c-1.2-3.1-4.1-5.2-7.5-5.2c-4,0-7.4,3.1-7.9,7.2
  l0,1.2l-1.1-0.3H16.1z M6.4,35.4l-0.2,0c-0.1,0-0.5,0-0.8-0.3c-0.4-0.4-0.5-0.9-0.2-1.3l0.1-0.1l3.4-4.1c0.4-0.4,0.9-0.5,1.4-0.3
  l0.2,0.1c0.4,0.4,0.5,0.9,0.2,1.3l-0.1,0.1L7,35c-0.1,0.1-0.2,0.2-0.3,0.2L6.4,35.4z M44.9,32.3h-0.7c-0.6,0-1-0.5-1-1
  c0-0.6,0.5-1,1-1h0.7c1.4,0,2.6-1.2,2.6-2.6c0-1.4-1.2-2.6-2.6-2.6h-0.3l-1.1,0.3v-1.2c-0.3-2.7-2.6-4.8-5.4-4.8
  c-1.9,0-3.6,0.9-4.6,2.6l-0.1,0.1c-0.4,0.4-0.9,0.5-1.3,0.2l-0.2-0.1c-0.4-0.4-0.5-0.9-0.2-1.3c1.4-2.3,3.8-3.7,6.5-3.7
  c3.6,0,6.6,2.5,7.4,5.9c1,0.1,2,0.5,2.8,1.3c0.9,0.9,1.5,2.1,1.5,3.4C49.7,30.2,47.5,32.3,44.9,32.3z M11.9,30l-0.6-0.5
  c-1.9-1.3-3-3.5-3-5.8c0-3.9,3.1-7,6.8-7c2.5,0,4.8,1.3,6,3.5c0.3,0.5,0,1.2-0.5,1.5c-0.5,0.3-1.2,0-1.5-0.5
  c-0.9-1.5-2.4-2.4-4.1-2.4c-2.6,0-4.7,2.3-4.7,4.9c0,1.6,0.8,3.1,2.2,4.1l0.1,0.1c0.4,0.4,0.4,0.8,0.3,1.3c-0.1,0.2-0.2,0.4-0.5,0.5
  L11.9,30z M1.4,27.1c-0.4,0-0.8-0.2-1-0.7c-0.1-0.3-0.1-0.7,0.1-1C0.7,25.2,0.9,25,1.2,25l5.2-1c0.3-0.1,0.6-0.1,0.8,0.1
  c0.3,0.2,0.4,0.4,0.5,0.7c0.1,0.3,0,0.6-0.1,0.8c-0.2,0.3-0.4,0.5-0.7,0.5l-5.2,1C1.6,27.1,1.5,27.1,1.4,27.1z M22.5,20.5
  c-0.5,0-0.7-0.3-0.9-0.4l-0.1-0.2c-0.3-0.5,0-1.2,0.5-1.5l4.6-2.7c0.2-0.2,0.5-0.3,0.8-0.2c0.3,0.1,0.6,0.3,0.8,0.6
  c0.1,0.2,0.1,0.5,0,0.8c-0.1,0.3-0.3,0.5-0.5,0.6l-4.8,2.8C22.8,20.4,22.6,20.5,22.5,20.5z M7.8,20.5c-0.2,0-0.3,0-0.4-0.1l-5-2.9
  l-0.1-0.2c-0.1-0.2-0.3-0.7-0.1-1.2l0.1-0.2l0.2-0.1c0.2-0.1,0.7-0.3,1.2-0.1l4.9,2.9l0.1,0.2C8.8,19,9,19.4,8.7,19.9l-0.1,0.2
  C8.4,20.3,8.1,20.5,7.8,20.5z M18.1,16.8h-0.3l-0.1-0.1c-0.5-0.3-0.7-0.9-0.5-1.4l1.8-5c0.1-0.3,0.3-0.5,0.6-0.6
  c0.3-0.1,0.6-0.1,0.8,0c0.5,0.3,0.7,0.9,0.5,1.4L19,16.3l-0.1,0.1C18.7,16.6,18.4,16.8,18.1,16.8z M12.5,16.8h-0.3
  c-0.4,0-0.8-0.2-1-0.7l-1.9-5.2c-0.1-0.2-0.1-0.5,0-0.8c0.1-0.2,0.3-0.4,0.5-0.5c0.3-0.1,0.6-0.1,0.8,0c0.2,0.1,0.4,0.3,0.5,0.5
  l1.9,5.2c0.1,0.2,0.1,0.5,0,0.8c-0.1,0.2-0.2,0.4-0.4,0.5L12.5,16.8z"/>
</svg>
