<?xml version="1.0" encoding="utf-8"?>
<!-- Generator: Adobe Illustrator 19.0.0, SVG Export Plug-In . SVG Version: 6.00 Build 0)  -->
<svg version="1.1" id="Layer_1" xmlns="http://www.w3.org/2000/svg" xmlns:xlink="http://www.w3.org/1999/xlink" x="0px" y="0px"
   viewBox="0 0 50 50" style="enable-background:new 0 0 50 50;" xml:space="preserve"  width="50" height="50">
<style type="text/css">
  .st0{fill:#FFFFFF;}
</style>
<path class="st0" d="M36,46.3H12.6c-3.9,0-7-3.1-7-7c0-3.8,3-6.9,6.8-7c1.1-5.5,5.8-9.4,11.5-9.4c4.5,0,8.7,2.7,10.6,6.8
  c0.5-0.1,1-0.1,1.5-0.1c4.6,0,8.4,3.8,8.4,8.4S40.6,46.3,36,46.3z M12.6,34.6c-2.6,0-4.7,2.1-4.7,4.7S10,44,12.6,44H36
  c3.3,0,6-2.7,6-6s-2.7-6-6-6c-0.6,0-1.2,0.1-1.8,0.3l-1.1,0.3l-0.4-1.1c-1.3-3.7-4.9-6.2-8.8-6.2c-4.8,0-8.9,3.6-9.3,8.4l-0.1,1.2
  l-1.2-0.1C13,34.6,12.8,34.6,12.6,34.6z M15.5,25.7c0.4-0.2,0.5-0.5,0.5-0.6l0.3-0.5l-0.5-0.4c-1.3-1.1-2.1-2.2-2.8-3.6
  c2.1,1.3,4.5,1.9,6.9,1.9c4.3,0,8.2-1.9,10.8-5.3c1.5-2,2.4-4.3,2.7-6.7c2.1,3.9,1.8,8.7-0.9,12.3c-0.1,0.2-0.3,0.4-0.4,0.5
  c-0.2,0.3-0.4,0.5-0.5,0.7c-0.2,0.2-0.3,0.6-0.2,0.9c0.1,0.4,0.5,0.9,1,1c0.3,0.1,0.6,0,0.8-0.2l0,0c0.3-0.3,0.5-0.6,0.8-1
  c0.1-0.2,0.3-0.3,0.4-0.5c4.2-5.5,3.6-13.2-1.3-18l-2.5-2.4l0.6,3.4c0.5,3.1-0.3,6.2-2.1,8.7c-2.2,2.8-5.4,4.4-9,4.4
  c-2.5,0-4.8-0.8-6.8-2.3c-0.5-0.3-0.9-0.7-1.3-1.2l-2.4-2.5l0.5,3.4c0.5,3.4,1.8,6,4.2,8l0.1,0.1l0.2,0c0.1,0,0.2,0,0.3,0
  C15.1,25.9,15.3,25.8,15.5,25.7z"/>
</svg>
