<?xml version="1.0" encoding="utf-8"?>
<!-- Generator: Adobe Illustrator 19.0.0, SVG Export Plug-In . SVG Version: 6.00 Build 0)  -->
<svg version="1.1" id="Layer_1" xmlns="http://www.w3.org/2000/svg" xmlns:xlink="http://www.w3.org/1999/xlink" x="0px" y="0px"
   viewBox="0 0 50 50" style="enable-background:new 0 0 50 50;" xml:space="preserve"  width="50" height="50">
<style type="text/css">
  .st0{fill:#FFFFFF;}
</style>
<path id="XMLID_38_" class="st0" d="M32.2,45.3c-0.6,0-1.2-0.6-1.2-1.2v-2.7l-2.3,1.4c-0.3,0.2-0.5,0.2-0.7,0.2
  c-0.5,0-0.9-0.2-1.1-0.6c-0.1-0.2-0.2-0.5-0.1-0.8c0.1-0.3,0.3-0.6,0.6-0.8l2.4-1.4l-2.4-1.4c-0.3-0.1-0.5-0.3-0.6-0.6
  c-0.1-0.3-0.1-0.7,0.1-1c0.1-0.3,0.3-0.5,0.6-0.6c0.4-0.1,0.8-0.1,1.1,0.1l2.3,1.4v-2.7c0-0.6,0.6-1.2,1.2-1.2
  c0.6,0,1.2,0.6,1.2,1.2v2.7l2.4-1.4c0.2-0.2,0.5-0.2,0.8-0.2c0.3,0.1,0.6,0.3,0.8,0.6c0.4,0.6,0.2,1.3-0.4,1.7l-2.4,1.4l2.4,1.4
  c0.3,0.1,0.5,0.3,0.6,0.6c0.1,0.4,0.1,0.8-0.1,1.1c-0.2,0.3-0.6,0.6-1,0.6c-0.1,0-0.4,0-0.7-0.2l-2.3-1.4v2.7
  C33.4,44.7,32.8,45.3,32.2,45.3z M16.8,42.7c-0.6,0-1.2-0.6-1.2-1.2v-1.8L14,40.6c-0.3,0.2-0.5,0.2-0.7,0.2c-0.5,0-0.9-0.2-1.1-0.6
  c-0.3-0.5-0.2-1.2,0.4-1.6l1.6-0.9l-1.5-0.9c-0.5-0.2-0.8-0.9-0.5-1.6c0.1-0.3,0.4-0.6,0.7-0.7c0.4-0.1,0.8-0.1,1.1,0.1l1.6,0.9
  v-1.8c0-0.6,0.6-1.2,1.2-1.2S18,33,18,33.7v1.8l1.6-0.9c0.3-0.2,0.6-0.2,0.9-0.1c0.3,0.1,0.5,0.3,0.7,0.5c0.4,0.6,0.2,1.3-0.4,1.7
  l-1.6,0.9l1.5,0.9c0.3,0.1,0.5,0.3,0.6,0.6c0.1,0.4,0.1,0.8-0.1,1.1c-0.2,0.3-0.6,0.6-1,0.6c-0.1,0-0.4,0-0.7-0.2L18,39.7v1.8
  C18,42.2,17.4,42.7,16.8,42.7z M39.1,34.4c-0.6,0-1.2-0.6-1.2-1.2c0-0.6,0.6-1.2,1.2-1.2c4.4,0,8-3.6,8-8c0-4.4-3.6-8-8-8
  c-0.9,0-1.7,0.1-2.4,0.4l-1.2,0.4l-0.4-1.2c-1.8-4.9-6.4-8.2-11.5-8.2c-6.3,0-11.6,4.8-12.2,11.1l-0.2,1.3l-1.2-0.2
  c-0.2,0-0.3,0-0.5-0.1c-0.1,0-0.2,0-0.3,0c-3.4,0-6.2,2.8-6.2,6.2c0,3.4,2.8,6.2,6.2,6.2c0.6,0,1.2,0.6,1.2,1.2s-0.6,1.2-1.2,1.2
  c-4.8,0-8.8-3.9-8.8-8.8c0-4.8,3.9-8.7,8.6-8.8c1.3-7,7.3-12.1,14.6-12.1c5.9,0,11.1,3.4,13.5,8.8c0.7-0.1,1.3-0.2,2.1-0.2
  c5.8,0,10.5,4.7,10.5,10.5C49.5,29.7,44.8,34.4,39.1,34.4z M25.1,34.4c-0.6,0-1.2-0.6-1.2-1.2v-0.8l-0.7,0.4
  c-0.3,0.2-0.5,0.2-0.7,0.2c-0.5,0-0.9-0.2-1.1-0.6c-0.2-0.2-0.2-0.6-0.1-0.9c0.1-0.3,0.3-0.5,0.5-0.7l0.8-0.4L22,29.8
  c-0.3-0.1-0.5-0.3-0.6-0.6c-0.1-0.3-0.1-0.7,0.1-1c0.1-0.3,0.3-0.5,0.6-0.6c0.4-0.1,0.8-0.1,1.1,0.1l0.7,0.4v-0.8
  c0-0.6,0.6-1.2,1.2-1.2c0.6,0,1.2,0.6,1.2,1.2v0.8l0.7-0.4c0.2-0.2,0.5-0.2,0.8-0.2c0.3,0.1,0.6,0.3,0.8,0.6
  c0.2,0.3,0.3,0.6,0.2,0.9c-0.1,0.3-0.3,0.5-0.5,0.7l-0.8,0.4l0.7,0.4c0.3,0.1,0.5,0.3,0.6,0.6c0.1,0.4,0.1,0.8-0.1,1.1
  c-0.2,0.3-0.6,0.6-1,0.6c-0.1,0-0.4,0-0.7-0.2l-0.7-0.4v0.8C26.3,33.8,25.7,34.4,25.1,34.4z"/>
</svg>
