<svg viewBox="0 0 48 70" fill="none" xmlns="http://www.w3.org/2000/svg">
<path d="M23.94 70C10.0393 70 0 59.6413 0 45.5157C0 30.4484 22.241 2.35426 22.3955 2.19731L23.7855 0L25.6389 2.35426C32.2804 11.1435 47.7255 32.8027 47.7255 45.2018C47.88 59.6413 37.8406 70 23.94 70ZM23.94 6.59193C18.9975 13.1839 3.86129 34.5291 3.86129 45.5157C3.86129 57.6009 12.0472 66.0762 23.94 66.0762C35.8327 66.0762 44.0187 57.6009 44.0187 45.5157C44.0187 35.157 30.2725 14.9103 23.94 6.59193Z" fill="black"/>
<path fill-rule="evenodd" clip-rule="evenodd" d="M13.5704 34.4334C14.1833 33.8205 15.1771 33.8205 15.79 34.4334L33.0546 51.698C33.6675 52.3109 33.6675 53.3047 33.0546 53.9176C32.4416 54.5305 31.4479 54.5305 30.8349 53.9176L13.5704 36.653C12.9574 36.0401 12.9574 35.0463 13.5704 34.4334Z" fill="black"/>
<path fill-rule="evenodd" clip-rule="evenodd" d="M31.819 40.9085C33.3252 40.9085 34.5462 39.6874 34.5462 38.1812C34.5462 36.675 33.3252 35.4539 31.819 35.4539C30.3127 35.4539 29.0917 36.675 29.0917 38.1812C29.0917 39.6874 30.3127 40.9085 31.819 40.9085ZM31.819 44.5448C35.3335 44.5448 38.1826 41.6957 38.1826 38.1812C38.1826 34.6666 35.3335 31.8176 31.819 31.8176C28.3044 31.8176 25.4553 34.6666 25.4553 38.1812C25.4553 41.6957 28.3044 44.5448 31.819 44.5448Z" fill="black"/>
<path fill-rule="evenodd" clip-rule="evenodd" d="M15.9095 53.6369C17.4158 53.6369 18.6368 52.4158 18.6368 50.9096C18.6368 49.4034 17.4158 48.1823 15.9095 48.1823C14.4033 48.1823 13.1823 49.4034 13.1823 50.9096C13.1823 52.4158 14.4033 53.6369 15.9095 53.6369ZM15.9095 57.2732C19.4241 57.2732 22.2732 54.4241 22.2732 50.9096C22.2732 47.3951 19.4241 44.546 15.9095 44.546C12.395 44.546 9.5459 47.3951 9.5459 50.9096C9.5459 54.4241 12.395 57.2732 15.9095 57.2732Z" fill="black"/>
</svg>
