<svg viewBox="0 0 68 55" fill="none" xmlns="http://www.w3.org/2000/svg">
<path d="M47.7212 55C46.5109 55 45.4735 53.9864 45.4735 52.8038C45.4735 51.6212 46.5109 50.4386 47.7212 50.4386C51.3522 50.4386 54.6373 47.2287 54.6373 43.681C54.6373 39.7953 51.698 36.9233 47.7212 36.9233H2.42068C1.21036 36.9233 4.27544e-05 35.9097 4.27544e-05 34.7271C4.27544e-05 33.5445 1.03746 32.3619 2.42068 32.3619H47.7212C54.1186 32.3619 59.3057 37.4301 59.3057 43.8499C59.3057 50.2697 54.1186 55 47.7212 55ZM53.9948 27.3684H19.76C18.5496 27.3684 17.3393 26.3548 17.3393 25.0033C17.3393 23.6517 18.3767 22.6381 19.76 22.6381H53.9948C58.8361 22.6381 62.9858 18.5835 62.9858 13.6842C62.9858 8.61599 58.8361 4.56141 53.9948 4.56141C50.3639 4.56141 47.2516 6.5887 45.6955 9.96752C45.5226 10.4743 45.0039 10.9812 44.3122 11.319C43.7935 11.488 43.1019 11.488 42.5832 11.1501C42.0645 10.9812 41.5458 10.4743 41.3729 9.79857C41.2 9.29175 41.2 8.61599 41.5458 8.10917C43.6206 3.20988 48.6348 0 54.1677 0C61.7755 0 68 6.25081 68 13.6842C67.8271 21.2866 61.6026 27.3684 53.9948 27.3684Z" fill="black"/>
</svg>
