<svg width="36" height="36" viewBox="0 0 36 36" fill="none" xmlns="http://www.w3.org/2000/svg">
<g clip-path="url(#clip0_12541_115359)">
<rect width="9" height="9" fill="white"/>
<circle r="1.5" fill="#A9AEB1"/>
<circle cy="9" r="1.5" fill="#A9AEB1"/>
<circle cx="9" r="1.5" fill="#A9AEB1"/>
<circle cx="9" cy="9" r="1.5" fill="#A9AEB1"/>
<circle cx="4.5" cy="4.5" r="1.5" fill="#A9AEB1"/>
</g>
<g clip-path="url(#clip1_12541_115359)">
<rect width="9" height="9" transform="translate(0 18)" fill="white"/>
<circle cy="18" r="1.5" fill="#A9AEB1"/>
<circle cy="27" r="1.5" fill="#A9AEB1"/>
<circle cx="9" cy="18" r="1.5" fill="#A9AEB1"/>
<circle cx="9" cy="27" r="1.5" fill="#A9AEB1"/>
<circle cx="4.5" cy="22.5" r="1.5" fill="#A9AEB1"/>
</g>
<g clip-path="url(#clip2_12541_115359)">
<rect width="9" height="9" transform="translate(18)" fill="white"/>
<circle cx="18" r="1.5" fill="#A9AEB1"/>
<circle cx="18" cy="9" r="1.5" fill="#A9AEB1"/>
<circle cx="27" r="1.5" fill="#A9AEB1"/>
<circle cx="27" cy="9" r="1.5" fill="#A9AEB1"/>
<circle cx="22.5" cy="4.5" r="1.5" fill="#A9AEB1"/>
</g>
<g clip-path="url(#clip3_12541_115359)">
<rect width="9" height="9" transform="translate(18 18)" fill="white"/>
<circle cx="18" cy="18" r="1.5" fill="#A9AEB1"/>
<circle cx="18" cy="27" r="1.5" fill="#A9AEB1"/>
<circle cx="27" cy="18" r="1.5" fill="#A9AEB1"/>
<circle cx="27" cy="27" r="1.5" fill="#A9AEB1"/>
<circle cx="22.5" cy="22.5" r="1.5" fill="#A9AEB1"/>
</g>
<g clip-path="url(#clip4_12541_115359)">
<rect width="9" height="9" transform="translate(9)" fill="white"/>
<circle cx="9" r="1.5" fill="#A9AEB1"/>
<circle cx="9" cy="9" r="1.5" fill="#A9AEB1"/>
<circle cx="18" r="1.5" fill="#A9AEB1"/>
<circle cx="18" cy="9" r="1.5" fill="#A9AEB1"/>
<circle cx="13.5" cy="4.5" r="1.5" fill="#A9AEB1"/>
</g>
<g clip-path="url(#clip5_12541_115359)">
<rect width="9" height="9" transform="translate(9 18)" fill="white"/>
<circle cx="9" cy="18" r="1.5" fill="#A9AEB1"/>
<circle cx="9" cy="27" r="1.5" fill="#A9AEB1"/>
<circle cx="18" cy="18" r="1.5" fill="#A9AEB1"/>
<circle cx="18" cy="27" r="1.5" fill="#A9AEB1"/>
<circle cx="13.5" cy="22.5" r="1.5" fill="#A9AEB1"/>
</g>
<g clip-path="url(#clip6_12541_115359)">
<rect width="9" height="9" transform="translate(27)" fill="white"/>
<circle cx="27" r="1.5" fill="#A9AEB1"/>
<circle cx="27" cy="9" r="1.5" fill="#A9AEB1"/>
<circle cx="36" r="1.5" fill="#A9AEB1"/>
<circle cx="36" cy="9" r="1.5" fill="#A9AEB1"/>
<circle cx="31.5" cy="4.5" r="1.5" fill="#A9AEB1"/>
</g>
<g clip-path="url(#clip7_12541_115359)">
<rect width="9" height="9" transform="translate(27 18)" fill="white"/>
<circle cx="27" cy="18" r="1.5" fill="#A9AEB1"/>
<circle cx="27" cy="27" r="1.5" fill="#A9AEB1"/>
<circle cx="36" cy="18" r="1.5" fill="#A9AEB1"/>
<circle cx="36" cy="27" r="1.5" fill="#A9AEB1"/>
<circle cx="31.5" cy="22.5" r="1.5" fill="#A9AEB1"/>
</g>
<g clip-path="url(#clip8_12541_115359)">
<rect width="9" height="9" transform="translate(27 9)" fill="white"/>
<circle cx="27" cy="9" r="1.5" fill="#A9AEB1"/>
<circle cx="27" cy="18" r="1.5" fill="#A9AEB1"/>
<circle cx="36" cy="9" r="1.5" fill="#A9AEB1"/>
<circle cx="36" cy="18" r="1.5" fill="#A9AEB1"/>
<circle cx="31.5" cy="13.5" r="1.5" fill="#A9AEB1"/>
</g>
<g clip-path="url(#clip9_12541_115359)">
<rect width="9" height="9" transform="translate(27 27)" fill="white"/>
<circle cx="27" cy="27" r="1.5" fill="#A9AEB1"/>
<circle cx="27" cy="36" r="1.5" fill="#A9AEB1"/>
<circle cx="36" cy="27" r="1.5" fill="#A9AEB1"/>
<circle cx="36" cy="36" r="1.5" fill="#A9AEB1"/>
<circle cx="31.5" cy="31.5" r="1.5" fill="#A9AEB1"/>
</g>
<g clip-path="url(#clip10_12541_115359)">
<rect width="9" height="9" transform="translate(18 9)" fill="white"/>
<circle cx="18" cy="9" r="1.5" fill="#A9AEB1"/>
<circle cx="18" cy="18" r="1.5" fill="#A9AEB1"/>
<circle cx="27" cy="9" r="1.5" fill="#A9AEB1"/>
<circle cx="27" cy="18" r="1.5" fill="#A9AEB1"/>
<circle cx="22.5" cy="13.5" r="1.5" fill="#A9AEB1"/>
</g>
<g clip-path="url(#clip11_12541_115359)">
<rect width="9" height="9" transform="translate(18 27)" fill="white"/>
<circle cx="18" cy="27" r="1.5" fill="#A9AEB1"/>
<circle cx="18" cy="36" r="1.5" fill="#A9AEB1"/>
<circle cx="27" cy="27" r="1.5" fill="#A9AEB1"/>
<circle cx="27" cy="36" r="1.5" fill="#A9AEB1"/>
<circle cx="22.5" cy="31.5" r="1.5" fill="#A9AEB1"/>
</g>
<g clip-path="url(#clip12_12541_115359)">
<rect width="9" height="9" transform="translate(9 9)" fill="white"/>
<circle cx="9" cy="9" r="1.5" fill="#A9AEB1"/>
<circle cx="9" cy="18" r="1.5" fill="#A9AEB1"/>
<circle cx="18" cy="9" r="1.5" fill="#A9AEB1"/>
<circle cx="18" cy="18" r="1.5" fill="#A9AEB1"/>
<circle cx="13.5" cy="13.5" r="1.5" fill="#A9AEB1"/>
</g>
<g clip-path="url(#clip13_12541_115359)">
<rect width="9" height="9" transform="translate(9 27)" fill="white"/>
<circle cx="9" cy="27" r="1.5" fill="#A9AEB1"/>
<circle cx="9" cy="36" r="1.5" fill="#A9AEB1"/>
<circle cx="18" cy="27" r="1.5" fill="#A9AEB1"/>
<circle cx="18" cy="36" r="1.5" fill="#A9AEB1"/>
<circle cx="13.5" cy="31.5" r="1.5" fill="#A9AEB1"/>
</g>
<g clip-path="url(#clip14_12541_115359)">
<rect width="9" height="9" transform="translate(0 9)" fill="white"/>
<circle cy="9" r="1.5" fill="#A9AEB1"/>
<circle cy="18" r="1.5" fill="#A9AEB1"/>
<circle cx="9" cy="9" r="1.5" fill="#A9AEB1"/>
<circle cx="9" cy="18" r="1.5" fill="#A9AEB1"/>
<circle cx="4.5" cy="13.5" r="1.5" fill="#A9AEB1"/>
</g>
<g clip-path="url(#clip15_12541_115359)">
<rect width="9" height="9" transform="translate(0 27)" fill="white"/>
<circle cy="27" r="1.5" fill="#A9AEB1"/>
<circle cy="36" r="1.5" fill="#A9AEB1"/>
<circle cx="9" cy="27" r="1.5" fill="#A9AEB1"/>
<circle cx="9" cy="36" r="1.5" fill="#A9AEB1"/>
<circle cx="4.5" cy="31.5" r="1.5" fill="#A9AEB1"/>
</g>
<defs>
<clipPath id="clip0_12541_115359">
<rect width="9" height="9" fill="white"/>
</clipPath>
<clipPath id="clip1_12541_115359">
<rect width="9" height="9" fill="white" transform="translate(0 18)"/>
</clipPath>
<clipPath id="clip2_12541_115359">
<rect width="9" height="9" fill="white" transform="translate(18)"/>
</clipPath>
<clipPath id="clip3_12541_115359">
<rect width="9" height="9" fill="white" transform="translate(18 18)"/>
</clipPath>
<clipPath id="clip4_12541_115359">
<rect width="9" height="9" fill="white" transform="translate(9)"/>
</clipPath>
<clipPath id="clip5_12541_115359">
<rect width="9" height="9" fill="white" transform="translate(9 18)"/>
</clipPath>
<clipPath id="clip6_12541_115359">
<rect width="9" height="9" fill="white" transform="translate(27)"/>
</clipPath>
<clipPath id="clip7_12541_115359">
<rect width="9" height="9" fill="white" transform="translate(27 18)"/>
</clipPath>
<clipPath id="clip8_12541_115359">
<rect width="9" height="9" fill="white" transform="translate(27 9)"/>
</clipPath>
<clipPath id="clip9_12541_115359">
<rect width="9" height="9" fill="white" transform="translate(27 27)"/>
</clipPath>
<clipPath id="clip10_12541_115359">
<rect width="9" height="9" fill="white" transform="translate(18 9)"/>
</clipPath>
<clipPath id="clip11_12541_115359">
<rect width="9" height="9" fill="white" transform="translate(18 27)"/>
</clipPath>
<clipPath id="clip12_12541_115359">
<rect width="9" height="9" fill="white" transform="translate(9 9)"/>
</clipPath>
<clipPath id="clip13_12541_115359">
<rect width="9" height="9" fill="white" transform="translate(9 27)"/>
</clipPath>
<clipPath id="clip14_12541_115359">
<rect width="9" height="9" fill="white" transform="translate(0 9)"/>
</clipPath>
<clipPath id="clip15_12541_115359">
<rect width="9" height="9" fill="white" transform="translate(0 27)"/>
</clipPath>
</defs>
</svg>
