<svg width="246" height="126" viewBox="0 0 246 126" fill="none" xmlns="http://www.w3.org/2000/svg">
<circle cx="27.6271" cy="97.9899" r="27.6271" fill="#DFE1E2"/>
<circle cx="218.102" cy="97.9899" r="27.6271" fill="#DFE1E2"/>
<circle cx="121.681" cy="62.1718" r="53.1718" fill="#DFE1E2"/>
<circle cx="183.144" cy="79.6373" r="37.2063" fill="#DFE1E2"/>
<circle cx="58.698" cy="75.75" r="33.3191" fill="#DFE1E2"/>
<rect x="24.9893" y="92.2979" width="193.251" height="33.3191" fill="#DFE1E2"/>
<g opacity="0.9">
<circle cx="167.25" cy="35.25" r="33.25" fill="white" stroke="#3D4551" stroke-width="4"/>
<path d="M164.325 44.65V44.4135C164.352 41.9044 164.614 39.9077 165.114 38.4232C165.613 36.9388 166.322 35.7368 167.242 34.8172C168.161 33.8977 169.265 33.0504 170.552 32.2753C171.327 31.8024 172.023 31.2441 172.641 30.6004C173.258 29.9436 173.744 29.1882 174.099 28.3343C174.467 27.4805 174.651 26.5346 174.651 25.4968C174.651 24.2094 174.349 23.0928 173.744 22.147C173.14 21.2012 172.332 20.4721 171.321 19.9598C170.309 19.4474 169.186 19.1913 167.951 19.1913C166.874 19.1913 165.836 19.4146 164.838 19.8612C163.839 20.3079 163.005 21.0107 162.335 21.9697C161.665 22.9286 161.278 24.1832 161.173 25.7333H156.207C156.312 23.5001 156.89 21.5887 157.941 19.9992C159.005 18.4096 160.404 17.1945 162.138 16.3538C163.885 15.513 165.823 15.0926 167.951 15.0926C170.263 15.0926 172.273 15.5524 173.981 16.472C175.702 17.3915 177.028 18.6527 177.961 20.2553C178.907 21.858 179.38 23.684 179.38 25.7333C179.38 27.1783 179.157 28.4854 178.71 29.6546C178.276 30.8237 177.646 31.8681 176.818 32.7876C176.004 33.7072 175.019 34.5217 173.863 35.231C172.707 35.9536 171.78 36.7155 171.084 37.5168C170.388 38.305 169.882 39.2443 169.567 40.3346C169.252 41.4249 169.081 42.7846 169.055 44.4135V44.65H164.325ZM166.848 56.3153C165.875 56.3153 165.041 55.9672 164.345 55.2709C163.649 54.5747 163.301 53.7405 163.301 52.7684C163.301 51.7963 163.649 50.9621 164.345 50.2659C165.041 49.5696 165.875 49.2215 166.848 49.2215C167.82 49.2215 168.654 49.5696 169.35 50.2659C170.046 50.9621 170.394 51.7963 170.394 52.7684C170.394 53.4121 170.23 54.0032 169.902 54.5418C169.587 55.0804 169.16 55.5139 168.621 55.8424C168.096 56.1576 167.504 56.3153 166.848 56.3153Z" fill="#3D4551"/>
</g>
</svg>
