<svg width="246" height="126" viewBox="0 0 246 126" fill="none" xmlns="http://www.w3.org/2000/svg">
<circle cx="27.6271" cy="97.9899" r="27.6271" fill="#DFE1E2"/>
<circle cx="218.102" cy="97.9899" r="27.6271" fill="#DFE1E2"/>
<circle cx="121.681" cy="62.1718" r="53.1718" fill="#DFE1E2"/>
<circle cx="183.144" cy="79.6373" r="37.2063" fill="#DFE1E2"/>
<circle cx="58.698" cy="75.75" r="33.3191" fill="#DFE1E2"/>
<rect x="24.9895" y="92.2979" width="193.251" height="33.3191" fill="#DFE1E2"/>
<g opacity="0.9">
<circle cx="167.25" cy="35.25" r="33.25" fill="white" stroke="#8B0A03" stroke-width="4"/>
<path d="M170.154 15.1444L169.76 44.15H165.189L164.794 15.1444H170.154ZM167.474 55.8153C166.502 55.8153 165.668 55.4672 164.972 54.7709C164.276 54.0747 163.927 53.2405 163.927 52.2684C163.927 51.2963 164.276 50.4621 164.972 49.7659C165.668 49.0696 166.502 48.7215 167.474 48.7215C168.446 48.7215 169.281 49.0696 169.977 49.7659C170.673 50.4621 171.021 51.2963 171.021 52.2684C171.021 52.9121 170.857 53.5032 170.529 54.0418C170.213 54.5804 169.786 55.0139 169.248 55.3424C168.722 55.6576 168.131 55.8153 167.474 55.8153Z" fill="#8B0A03"/>
</g>
</svg>
