<svg width="24" height="24" viewBox="0 0 24 24" fill="none" xmlns="http://www.w3.org/2000/svg">
<path d="M15.4746 16.8887C14.4939 17.587 13.2957 18 12 18C8.68629 18 6 15.3137 6 12C6 10.7041 6.41084 9.50429 7.10938 8.52344L15.4746 16.8887Z" fill="#FACE00"/>
<path d="M12 6C15.3136 6.0001 18 8.68635 18 12C18 13.2957 17.587 14.4939 16.8887 15.4746L8.52441 7.11035C9.50519 6.41199 10.7043 6 12 6Z" fill="#FACE00"/>
<path d="M8.19043 9.60449C7.75326 10.2982 7.5 11.1194 7.5 12C7.5 14.4853 9.51472 16.5 12 16.5C12.8804 16.5 13.7009 16.2457 14.3945 15.8086L15.4746 16.8887C14.4939 17.587 13.2957 18 12 18C8.68629 18 6 15.3137 6 12C6 10.7041 6.41084 9.50429 7.10938 8.52344L8.19043 9.60449Z" fill="#B38C00"/>
<path d="M12 6C15.3136 6.0001 18 8.68635 18 12C18 13.2957 17.587 14.4939 16.8887 15.4746L15.8086 14.3945C16.2456 13.7009 16.5 12.8804 16.5 12C16.5 9.51478 14.4852 7.5001 12 7.5C11.1195 7.5 10.2982 7.75334 9.60449 8.19043L8.52441 7.11035C9.50519 6.41199 10.7043 6 12 6Z" fill="#B38C00"/>
<path d="M12.7002 22.2002C12.7 22.6142 12.3642 22.9501 11.9502 22.9502C11.5361 22.9502 11.2004 22.6142 11.2002 22.2002V19.1611C11.4467 19.1866 11.697 19.2002 11.9502 19.2002C12.2034 19.2002 12.4537 19.1866 12.7002 19.1611V22.2002ZM7.71973 17.8271C8.12289 18.1203 8.55826 18.3727 9.01855 18.5781L7.49902 21.208C7.29192 21.5667 6.83333 21.6895 6.47461 21.4824C6.11623 21.2752 5.99317 20.8166 6.2002 20.458L7.71973 17.8271ZM17.7002 20.458C17.9073 20.8167 17.7835 21.2753 17.4248 21.4824C17.0661 21.6894 16.6075 21.5667 16.4004 21.208L14.8818 18.5781C15.3422 18.3726 15.7775 18.1194 16.1807 17.8262L17.7002 20.458ZM5.37207 14.9316C5.57756 15.392 5.82982 15.8273 6.12305 16.2305L3.49121 17.749C3.13252 17.956 2.67386 17.8333 2.4668 17.4746C2.25998 17.116 2.38281 16.6573 2.74121 16.4502L5.37207 14.9316ZM21.1582 16.4502C21.5169 16.6573 21.6397 17.1159 21.4326 17.4746C21.2255 17.8333 20.7669 17.9561 20.4082 17.749L17.7773 16.2305C18.0706 15.8273 18.3228 15.392 18.5283 14.9316L21.1582 16.4502ZM4.78906 11.25C4.76356 11.4965 4.75 11.7468 4.75 12C4.75001 12.2532 4.76355 12.5035 4.78906 12.75H1.75C1.33585 12.75 1.00011 12.4141 1 12C1 11.5858 1.33579 11.25 1.75 11.25H4.78906ZM22.1504 11.25C22.5644 11.2502 22.9004 11.5859 22.9004 12C22.9003 12.414 22.5643 12.7498 22.1504 12.75H19.1113C19.1368 12.5035 19.1504 12.2532 19.1504 12C19.1504 11.7468 19.1368 11.4965 19.1113 11.25H22.1504ZM2.4668 6.52441C2.67393 6.16598 3.13262 6.04315 3.49121 6.25L6.12305 7.76953C5.82982 8.17275 5.57755 8.608 5.37207 9.06836L2.74121 7.5498C2.38249 7.3427 2.25969 6.88313 2.4668 6.52441ZM20.4082 6.25C20.7668 6.04299 21.2254 6.16608 21.4326 6.52441C21.6397 6.88313 21.5169 7.3427 21.1582 7.5498L18.5283 9.06836C18.3229 8.60804 18.0705 8.17272 17.7773 7.76953L20.4082 6.25ZM6.47559 2.5166C6.8342 2.3098 7.29291 2.43254 7.5 2.79102L9.01855 5.42188C8.55819 5.62735 8.12295 5.87964 7.71973 6.17285L6.20117 3.54102C5.99412 3.18231 6.11689 2.72369 6.47559 2.5166ZM16.4004 2.79102C16.6075 2.43255 17.0662 2.30972 17.4248 2.5166C17.7835 2.72368 17.9062 3.18232 17.6992 3.54102L16.1807 6.17285C15.7775 5.87964 15.3422 5.62736 14.8818 5.42188L16.4004 2.79102ZM11.9502 1.0498C12.3643 1.04992 12.7002 1.38566 12.7002 1.7998V4.83887C12.4537 4.81336 12.2034 4.79981 11.9502 4.7998C11.697 4.7998 11.4467 4.81336 11.2002 4.83887V1.7998C11.2002 1.38559 11.536 1.0498 11.9502 1.0498Z" fill="#B38C00"/>
</svg>
