<svg width="24" height="24" viewBox="0 0 24 24" fill="none" xmlns="http://www.w3.org/2000/svg">
<g opacity="0.72">
<path d="M4.78906 11.2501C4.76356 11.4966 4.75 11.7469 4.75 12.0001C4.75001 12.2533 4.76355 12.5036 4.78906 12.7501H1.75C1.33585 12.7501 1.00011 12.4142 1 12.0001C1 11.5859 1.33579 11.2501 1.75 11.2501H4.78906ZM22.1504 11.2501C22.5644 11.2503 22.9004 11.586 22.9004 12.0001C22.9003 12.4141 22.5643 12.7499 22.1504 12.7501H19.1113C19.1368 12.5036 19.1504 12.2533 19.1504 12.0001C19.1504 11.7469 19.1368 11.4966 19.1113 11.2501H22.1504ZM2.4668 6.52451C2.67393 6.16607 3.13262 6.04324 3.49121 6.25009L6.12305 7.76962C5.82982 8.17284 5.57755 8.60809 5.37207 9.06845L2.74121 7.5499C2.38249 7.34279 2.25969 6.88322 2.4668 6.52451ZM20.4082 6.25009C20.7668 6.04308 21.2254 6.16617 21.4326 6.52451C21.6397 6.88322 21.5169 7.34279 21.1582 7.5499L18.5283 9.06845C18.3229 8.60813 18.0705 8.17281 17.7773 7.76962L20.4082 6.25009ZM6.47559 2.51669C6.8342 2.30989 7.29291 2.43263 7.5 2.79111L9.01855 5.42197C8.55819 5.62744 8.12295 5.87973 7.71973 6.17294L6.20117 3.54111C5.99412 3.1824 6.11689 2.72379 6.47559 2.51669ZM16.4004 2.79111C16.6075 2.43264 17.0662 2.30982 17.4248 2.51669C17.7835 2.72377 17.9062 3.18241 17.6992 3.54111L16.1807 6.17294C15.7775 5.87973 15.3422 5.62745 14.8818 5.42197L16.4004 2.79111ZM11.9502 1.0499C12.3643 1.05002 12.7002 1.38576 12.7002 1.7999V4.83896C12.4537 4.81345 12.2034 4.7999 11.9502 4.7999C11.697 4.7999 11.4467 4.81345 11.2002 4.83896V1.7999C11.2002 1.38568 11.536 1.0499 11.9502 1.0499Z" fill="#B38C00"/>
<path d="M12 6.75C14.8994 6.75 17.25 9.10053 17.25 12H6.75C6.75005 9.10053 9.10055 6.75 12 6.75Z" fill="#FACE00" stroke="#B38C00" stroke-width="1.5"/>
<path d="M17.0303 18.9697L15.9697 20.0303L12.75 16.8105V22H11.25V16.8105L8.03027 20.0303L6.96973 18.9697L12 13.9395L17.0303 18.9697Z" fill="#B38C00"/>
</g>
</svg>
