<svg width="24" height="24" viewBox="0 0 24 24" fill="none" xmlns="http://www.w3.org/2000/svg">
<path d="M4.78906 11.25C4.76356 11.4965 4.75 11.7468 4.75 12C4.75001 12.2532 4.76355 12.5035 4.78906 12.75H1.75C1.33585 12.75 1.00011 12.4141 1 12C1 11.5858 1.33579 11.25 1.75 11.25H4.78906ZM22.1504 11.25C22.5644 11.2502 22.9004 11.5859 22.9004 12C22.9003 12.414 22.5643 12.7498 22.1504 12.75H19.1113C19.1368 12.5035 19.1504 12.2532 19.1504 12C19.1504 11.7468 19.1368 11.4965 19.1113 11.25H22.1504ZM2.4668 6.52441C2.67393 6.16598 3.13262 6.04315 3.49121 6.25L6.12305 7.76953C5.82982 8.17275 5.57755 8.608 5.37207 9.06836L2.74121 7.5498C2.38249 7.3427 2.25969 6.88313 2.4668 6.52441ZM20.4082 6.25C20.7668 6.04299 21.2254 6.16608 21.4326 6.52441C21.6397 6.88313 21.5169 7.3427 21.1582 7.5498L18.5283 9.06836C18.3229 8.60804 18.0705 8.17272 17.7773 7.76953L20.4082 6.25ZM6.47559 2.5166C6.8342 2.3098 7.29291 2.43254 7.5 2.79102L9.01855 5.42188C8.55819 5.62735 8.12295 5.87964 7.71973 6.17285L6.20117 3.54102C5.99412 3.18231 6.11689 2.72369 6.47559 2.5166ZM16.4004 2.79102C16.6075 2.43255 17.0662 2.30972 17.4248 2.5166C17.7835 2.72368 17.9062 3.18232 17.6992 3.54102L16.1807 6.17285C15.7775 5.87964 15.3422 5.62736 14.8818 5.42188L16.4004 2.79102ZM11.9502 1.0498C12.3643 1.04992 12.7002 1.38566 12.7002 1.7998V4.83887C12.4537 4.81336 12.2034 4.79981 11.9502 4.7998C11.697 4.7998 11.4467 4.81336 11.2002 4.83887V1.7998C11.2002 1.38559 11.536 1.0498 11.9502 1.0498Z" fill="#B38C00"/>
<path d="M12 6.75C14.8994 6.75 17.25 9.10053 17.25 12H6.75C6.75005 9.10053 9.10055 6.75 12 6.75Z" fill="#FACE00" stroke="#B38C00" stroke-width="1.5"/>
<path d="M6.96973 16.9697L8.03027 15.9092L11.25 19.1289L11.25 13.9395L12.75 13.9395L12.75 19.1289L15.9697 15.9092L17.0303 16.9697L12 22L6.96973 16.9697Z" fill="#B38C00"/>
</svg>
