<svg id="Layer_1" data-name="Layer 1" xmlns="http://www.w3.org/2000/svg" viewBox="0 0 360 360"><defs><style>.cls-1{fill:#0085ca;}.cls-2{fill:#fff;}.cls-3{fill:#003087;}</style></defs><g id="Main"><path id="Water" class="cls-1" d="M341.31,100c-25.67,38.82-68.23,92.67-117.65,110.78l-6.3,2.58a13.56,13.56,0,0,0,3.69,1.08c.63,0,1.36.06,2.18.09,1,.06,2,.07,3.14.05a4.45,4.45,0,0,0,.53,0c12.55-.49,30.84-5.76,34.35,7-41.64,1.83-57,12.09-71.46,18.79-22.39,12.52-50.8,23.41-69.38,6,14.89-2,42.35-11,52-19.8C93.67,225.51,58.7,176.52,34.2,149.7,25.38,139.56,16.33,130.8,7,130.08A180,180,0,1,0,341.31,100Z"/><path id="Bird" class="cls-2" d="M34.2,149.7c24.5,26.82,59.47,75.81,138.25,76.88-9.69,8.79-37.15,17.82-52,19.8,18.58,17.4,47,6.51,69.38-6,14.46-6.7,29.82-17,71.46-18.79-3.51-12.76-21.8-7.49-34.35-7a4.45,4.45,0,0,1-.53,0c-1.1,0-2.15,0-3.14-.05-.82,0-1.55-.05-2.18-.09a13.56,13.56,0,0,1-3.69-1.08l6.3-2.58c49.42-18.11,92-72,117.65-110.78A179.77,179.77,0,0,0,323,70.65c-46.33,8.43-61.13,76.28-87.68,109.88C200.45,229.39,167,218.72,131.81,186c-35-32-61.31-90.56-98.55-110.29A179.31,179.31,0,0,0,7,130.08C16.33,130.8,25.38,139.56,34.2,149.7Z"/><path id="Sky" class="cls-3" d="M131.81,186c35.15,32.71,68.64,43.38,103.5-5.48C261.86,146.93,276.66,79.08,323,70.65A180,180,0,0,0,33.26,75.72C70.5,95.45,96.76,154,131.81,186Z"/><g id="Wordmark"><path class="cls-2" d="M128.69,116.92h9.47V79.09c0-5-4.74-9-11-9H107.67v46.87h9.47V79.09h8.66c1.84,0,2.89,1.31,2.89,3.43h0Z"/><path class="cls-2" d="M183.36,116.92V79.09c0-5.83,6.3-9,9.46-9H204.4c4.72,0,9.45,3.21,9.45,9v37.83H204.4V99.21H192.82v17.71Zm21-34.41A3.36,3.36,0,0,0,201,79.09h-5a3.45,3.45,0,0,0-3.16,3.42v7.67H204.4Z"/><path class="cls-2" d="M221.21,116.92V79.09c0-5.83,6.3-9,9.46-9h11.58c4.71,0,9.44,3.21,9.44,9v37.83h-9.44V99.21H230.67v17.71Zm21-34.41a3.35,3.35,0,0,0-3.43-3.42h-5a3.45,3.45,0,0,0-3.14,3.42v7.67h11.58Z"/><path class="cls-2" d="M166.44,70.05H154.87c-3.15,0-9.46,2.37-9.46,9v29.12c0,4.49,5.79,8.75,9.46,8.75h11.57c4.21,0,9.47-5.06,9.47-8.75V79.05C175.91,73.5,171.18,70.05,166.44,70.05Zm0,35a3.09,3.09,0,0,1-3.09,3.09H158a3.09,3.09,0,0,1-3.1-3.09V81.92a3.09,3.09,0,0,1,3.1-3.09h5.38a3.09,3.09,0,0,1,3.09,3.09Z"/></g></g></svg>