<svg width="9" height="9" viewBox="0 0 9 9" fill="none" xmlns="http://www.w3.org/2000/svg">
<path d="M4.39054 9C3.89246 9 3.41282 8.92683 2.97007 8.78049C1.80787 8.39634 0.86704 7.59146 0.31361 6.5122L0 5.89024L0.62722 6.18293C0.830145 6.27439 1.01462 6.34756 1.21755 6.42073C3.48661 7.11585 5.70033 5.87195 6.36444 3.80488C6.71495 2.7439 6.62271 1.60976 6.06928 0.621951L5.70033 0L6.36444 0.310976C8.46747 1.29878 9.50054 3.69512 8.76264 5.87195C8.13542 7.73781 6.38289 9 4.39054 9ZM1.14375 6.87805C1.64184 7.55488 2.34285 8.04878 3.173 8.32317C5.44206 9 7.65578 7.77439 8.33834 5.68902C8.61506 4.82927 8.59661 3.85976 8.283 2.98171C7.98784 2.23171 7.45285 1.55488 6.80719 1.09756C7.13924 2.03049 7.15769 3.01829 6.84408 3.98781C6.21686 5.85366 4.48278 7.09756 2.50888 7.09756C2.02924 7.07927 1.56805 7.02439 1.14375 6.87805Z" fill="#71767A"/>
</svg>
